<svg xmlns="http://www.w3.org/2000/svg" width="400" height="374.242" viewBox="0 0 400 374.242">
  <g id="Grupo_155981" data-name="Grupo 155981" transform="translate(-13.49 -14.572)">
    <path id="Trazado_190523" data-name="Trazado 190523" d="M541.171,1836.58l.015.146c.114.828.271,1.6.447,2.354-.176-.752-.333-1.526-.447-2.353Z" transform="translate(-434.615 -1566.234)" fill="#6eb0ac"/>
    <path id="Trazado_190524" data-name="Trazado 190524" d="M517.012,1864.192c-.318-.061-.634-.122-.945-.193C516.378,1864.069,516.694,1864.133,517.012,1864.192Z" transform="translate(-395.777 -1578.125)" fill="#6eb0ac"/>
    <path id="Trazado_190525" data-name="Trazado 190525" d="M434.874,1770.629l-1.4.412-1.809.532,1.809-.532Z" transform="translate(-265.839 -1537.632)" fill="#6eb0ac"/>
    <path id="Trazado_190526" data-name="Trazado 190526" d="M531.755,1856.1a15.079,15.079,0,0,1-5.056-4.994,15.079,15.079,0,0,0,5.056,4.994q.418.253.852.483l0,0,0,0Q532.174,1856.357,531.755,1856.1Z" transform="translate(-417.397 -1572.535)" fill="#6eb0ac"/>
    <path id="Trazado_190527" data-name="Trazado 190527" d="M504.338,1865.28c.555.02,1.116.027,1.681.025C505.454,1865.307,504.893,1865.3,504.338,1865.28Z" transform="translate(-378.142 -1578.681)" fill="#6eb0ac"/>
    <path id="Trazado_190528" data-name="Trazado 190528" d="M523.694,1862.2c-.16-.062-.32-.125-.478-.191Q523.453,1862.107,523.694,1862.2Z" transform="translate(-406.508 -1577.261)" fill="#6eb0ac"/>
    <path id="Trazado_190529" data-name="Trazado 190529" d="M621.391,1632c.188.163.388.323.586.484h0C621.779,1632.324,621.579,1632.164,621.391,1632Z" transform="translate(-560.388 -1477.51)" fill="#6eb0ac"/>
    <path id="Trazado_190530" data-name="Trazado 190530" d="M520.743,1863.237c-.169-.05-.333-.108-.5-.161C520.412,1863.129,520.574,1863.187,520.743,1863.237Z" transform="translate(-401.874 -1577.725)" fill="#6eb0ac"/>
    <path id="Trazado_190531" data-name="Trazado 190531" d="M538.54,1848.954a17.229,17.229,0,0,1-1.4-2.815A17.229,17.229,0,0,0,538.54,1848.954Z" transform="translate(-429.239 -1570.379)" fill="#6eb0ac"/>
    <path id="Trazado_190532" data-name="Trazado 190532" d="M540.115,1825.44a15.193,15.193,0,0,1,.793-2.413A15.193,15.193,0,0,0,540.115,1825.44Z" transform="translate(-433.292 -1560.356)" fill="#6eb0ac"/>
    <path id="Trazado_190533" data-name="Trazado 190533" d="M298.887,1551.643c-.04.121-.072.241-.116.361h0C298.814,1551.883,298.846,1551.763,298.887,1551.643Z" transform="translate(-54.594 -1442.66)" fill="#6eb0ac"/>
    <path id="Trazado_190534" data-name="Trazado 190534" d="M500.968,1865.126c-.852.059-1.694.092-2.529.11C499.274,1865.217,500.116,1865.185,500.968,1865.126Z" transform="translate(-369.75 -1578.614)" fill="#6eb0ac"/>
    <path id="Trazado_190535" data-name="Trazado 190535" d="M442.494,1909.34a20.117,20.117,0,0,0-1.716-1.914A20.117,20.117,0,0,1,442.494,1909.34Z" transform="translate(-278.623 -1596.959)" fill="#6eb0ac"/>
    <path id="Trazado_190536" data-name="Trazado 190536" d="M179.942,1801.792c-16.691,2.046-33.466,4.078-50.283,4.694-10.236.373-20.494.35-30.734.689,10.24-.339,20.5-.316,30.734-.69,16.817-.614,33.592-2.646,50.283-4.692q2.681-.329,5.361-.664Q182.623,1801.461,179.942,1801.792Z" transform="translate(172.164 -1550.859)" fill="#6eb0ac"/>
    <path id="Trazado_190537" data-name="Trazado 190537" d="M544.512,1902.522c-.034-.395-.071-.8-.11-1.206C544.441,1901.724,544.478,1902.128,544.512,1902.522Z" transform="translate(-439.324 -1594.309)" fill="#6eb0ac"/>
    <path id="Trazado_190538" data-name="Trazado 190538" d="M621.711,1850.887c-.866-.12-1.732-.232-2.595-.331q1.3.148,2.607.332Z" transform="translate(-558.846 -1572.295)" fill="#6eb0ac"/>
    <path id="Trazado_190539" data-name="Trazado 190539" d="M546.425,1891.874c-.006.9-.024,1.755-.1,2.645s-.221,1.817-.367,2.928c.146-1.111.3-2.03.367-2.928s.1-1.747.1-2.645c0-.526.007-1.069.016-1.623C546.432,1890.806,546.429,1891.348,546.425,1891.874Z" transform="translate(-442.134 -1589.511)" fill="#6eb0ac"/>
    <path id="Trazado_190540" data-name="Trazado 190540" d="M570.284,1923.845a1.267,1.267,0,0,0-.142.56c-.023.278-.061.62-.089,1.221.028-.6.066-.943.089-1.221a1.267,1.267,0,0,1,.142-.56,1.307,1.307,0,0,1,.447-.364l1.06-.6-1.06.6A1.307,1.307,0,0,0,570.284,1923.845Z" transform="translate(-481.13 -1603.66)" fill="#6eb0ac"/>
    <path id="Trazado_190541" data-name="Trazado 190541" d="M502.428,1863.943a33.79,33.79,0,0,0,3.92.406q1.619-.538,3.208-1.167-1.587.632-3.208,1.167A33.432,33.432,0,0,1,502.428,1863.943Z" transform="translate(-380.597 -1577.771)" fill="#6eb0ac"/>
    <path id="Trazado_190542" data-name="Trazado 190542" d="M464.649,1848.517a56.891,56.891,0,0,0,15.653-12.909A56.891,56.891,0,0,1,464.649,1848.517Z" transform="translate(-329.949 -1565.812)" fill="#6eb0ac"/>
    <path id="Trazado_190543" data-name="Trazado 190543" d="M419.317,1824.838a38.184,38.184,0,0,0,.28-4.369A38.184,38.184,0,0,1,419.317,1824.838Z" transform="translate(-243.572 -1559.247)" fill="#6eb0ac"/>
    <path id="Trazado_190544" data-name="Trazado 190544" d="M412.192,1819.21h0c.321.507.622,1.026.916,1.546,1.067,1.88,2.009,3.861,3.143,5.712-1.134-1.851-2.076-3.831-3.143-5.712C412.814,1820.236,412.512,1819.717,412.192,1819.21Z" transform="translate(-236.191 -1558.701)" fill="#6eb0ac"/>
    <path id="Trazado_190545" data-name="Trazado 190545" d="M273.066,1823.483c-3.4.848-6.829,1.576-10.2,2.519a32.766,32.766,0,0,1-7.774,1.563,4.752,4.752,0,0,1-3.639-1.435,4.749,4.749,0,0,0,3.639,1.434,32.849,32.849,0,0,0,7.774-1.562c3.372-.942,6.8-1.671,10.2-2.519,16.164-4.033,32.246-8.795,48.873-10.508,6.122-.63,12.259-.965,18.4-1.17-6.143.2-12.28.54-18.4,1.17C305.312,1814.688,289.229,1819.451,273.066,1823.483Z" transform="translate(-69.251 -1555.489)" fill="#6eb0ac"/>
    <path id="Trazado_190546" data-name="Trazado 190546" d="M460.186,1851.153h0c-.113.2,1.915-.615,5-1.787C462.1,1850.536,460.073,1851.354,460.186,1851.153Z" transform="translate(-312.308 -1571.778)" fill="#6eb0ac"/>
    <path id="Trazado_190547" data-name="Trazado 190547" d="M620.9,1850.486c.673.072,1.35.161,2.026.248-.676-.086-1.352-.176-2.025-.248Z" transform="translate(-561.066 -1572.264)" fill="#6eb0ac"/>
    <path id="Trazado_190548" data-name="Trazado 190548" d="M612.683,1907.309a2.419,2.419,0,0,0-.038-.438A2.419,2.419,0,0,1,612.683,1907.309Z" transform="translate(-546.142 -1596.718)" fill="#6eb0ac"/>
    <path id="Trazado_190549" data-name="Trazado 190549" d="M637.13,1892.533a99.327,99.327,0,0,0-13.906-5.76q-4.345-1.361-8.544-2.319,4.2.95,8.544,2.319a99.327,99.327,0,0,1,13.906,5.76,14.006,14.006,0,0,1,3.986,2.681A14.006,14.006,0,0,0,637.13,1892.533Z" transform="translate(-575.727 -1586.996)" fill="#6eb0ac"/>
    <path id="Trazado_190550" data-name="Trazado 190550" d="M619.332,1914.54l-.121.056-.05.023.05-.023Z" transform="translate(-556.481 -1600.044)" fill="#6eb0ac"/>
    <path id="Trazado_190551" data-name="Trazado 190551" d="M620.518,1915.015l-.134.056-.137.052.137-.052Z" transform="translate(-558.283 -1600.25)" fill="#6eb0ac"/>
    <path id="Trazado_190552" data-name="Trazado 190552" d="M612.3,1920.465c-4.186-1.674-8.067-3.374-11.52-5.108C604.229,1917.091,608.11,1918.791,612.3,1920.465Z" transform="translate(-539.033 -1600.398)" fill="#6eb0ac"/>
    <path id="Trazado_190553" data-name="Trazado 190553" d="M665.531,1883.811q-2.1-.475-4.17-.838Q663.43,1883.335,665.531,1883.811Z" transform="translate(-626.578 -1586.354)" fill="#6eb0ac"/>
    <path id="Trazado_190554" data-name="Trazado 190554" d="M567.155,1924.377c5.861,2.344,12.32,4.64,19.04,6.918C579.475,1929.016,573.016,1926.721,567.155,1924.377Z" transform="translate(-493.892 -1604.31)" fill="#6eb0ac"/>
    <path id="Trazado_190555" data-name="Trazado 190555" d="M500.093,1953.81c2.9.982,5.768,1.97,8.565,2.964C505.861,1955.779,503,1954.793,500.093,1953.81Z" transform="translate(-378.377 -1617.075)" fill="#6eb0ac"/>
    <path id="Trazado_190556" data-name="Trazado 190556" d="M556.886,1936.593q2.879.977,5.815,1.95Q559.77,1937.569,556.886,1936.593Z" transform="translate(-464.583 -1609.608)" fill="#6eb0ac"/>
    <path id="Trazado_190557" data-name="Trazado 190557" d="M515.217,1950.35q2.947.978,5.855,1.959Q518.167,1951.326,515.217,1950.35Z" transform="translate(-399.356 -1615.574)" fill="#6eb0ac"/>
    <path id="Trazado_190558" data-name="Trazado 190558" d="M525.556,1940.036c5.864,1.946,11.849,3.887,17.742,5.841C537.405,1943.923,531.42,1941.982,525.556,1940.036Z" transform="translate(-427.437 -1611.101)" fill="#6eb0ac"/>
    <path id="Trazado_190559" data-name="Trazado 190559" d="M420.25,1829.8c-.077.6-.16,1.194-.244,1.742C420.09,1831,420.173,1830.407,420.25,1829.8Z" transform="translate(-244.615 -1563.294)" fill="#6eb0ac"/>
    <path id="Trazado_190560" data-name="Trazado 190560" d="M500.832,1862.022c-.394.172-.792.334-1.19.5C500.04,1862.356,500.438,1862.194,500.832,1862.022Z" transform="translate(-370.295 -1577.268)" fill="#6eb0ac"/>
    <path id="Trazado_190561" data-name="Trazado 190561" d="M348.378,1895.355q8.431-2.712,16.8-5.61Q356.807,1892.64,348.378,1895.355Z" transform="translate(-148.978 -1589.291)" fill="#6eb0ac"/>
    <path id="Trazado_190562" data-name="Trazado 190562" d="M401.479,1907.617a17.8,17.8,0,0,1,2.507-1.061A17.8,17.8,0,0,0,401.479,1907.617Z" transform="translate(-217.858 -1596.582)" fill="#6eb0ac"/>
    <path id="Trazado_190563" data-name="Trazado 190563" d="M419.7,1918.581c.23.446.472.933.719,1.45C420.17,1919.514,419.928,1919.027,419.7,1918.581Z" transform="translate(-244.608 -1601.797)" fill="#6eb0ac"/>
    <path id="Trazado_190564" data-name="Trazado 190564" d="M421.113,1835.543c-.082.449-.161.836-.231,1.139C420.952,1836.379,421.03,1835.992,421.113,1835.543Z" transform="translate(-245.973 -1565.784)" fill="#6eb0ac"/>
    <path id="Trazado_190565" data-name="Trazado 190565" d="M458.816,1848.182c-.626.232-1.223.457-1.784.67C457.593,1848.639,458.19,1848.414,458.816,1848.182Z" transform="translate(-304.149 -1571.265)" fill="#6eb0ac"/>
    <path id="Trazado_190566" data-name="Trazado 190566" d="M554.27,1896.112l-.041-.179Z" transform="translate(-454.647 -1591.975)" fill="#6eb0ac"/>
    <path id="Trazado_190567" data-name="Trazado 190567" d="M559.954,1899.461c.284-.617.554-1.247.794-1.888C560.508,1898.214,560.238,1898.844,559.954,1899.461Z" transform="translate(-464.367 -1592.686)" fill="#6eb0ac"/>
    <path id="Trazado_190568" data-name="Trazado 190568" d="M558.979,1892.375a15.28,15.28,0,0,1-.5,1.976A15.28,15.28,0,0,0,558.979,1892.375Z" transform="translate(-461.764 -1590.431)" fill="#6eb0ac"/>
    <path id="Trazado_190569" data-name="Trazado 190569" d="M544.15,1907.488c-.019-.584-.059-1.268-.113-2.009.054.741.095,1.424.114,2.009Z" transform="translate(-438.756 -1596.115)" fill="#6eb0ac"/>
    <path id="Trazado_190570" data-name="Trazado 190570" d="M436.248,1914.129a20.368,20.368,0,0,1,1.238,2.29A20.368,20.368,0,0,0,436.248,1914.129Z" transform="translate(-271.049 -1599.866)" fill="#6eb0ac"/>
    <path id="Trazado_190571" data-name="Trazado 190571" d="M422.137,1915.805c.066.107.136.224.211.353C422.273,1916.029,422.2,1915.912,422.137,1915.805Z" transform="translate(-247.92 -1600.593)" fill="#6eb0ac"/>
    <path id="Trazado_190572" data-name="Trazado 190572" d="M243.444,1989.63c.91-.542,1.834-1.028,2.764-1.481-.929.453-1.853.939-2.763,1.481Z" transform="translate(29.417 -1631.967)" fill="#6eb0ac"/>
    <path id="Trazado_190573" data-name="Trazado 190573" d="M430.6,1801.773a9.187,9.187,0,0,0-.584-1.079A9.187,9.187,0,0,1,430.6,1801.773Z" transform="translate(-260.64 -1550.67)" fill="#6eb0ac"/>
    <path id="Trazado_190574" data-name="Trazado 190574" d="M209.332,1977.608c1.843-.8,3.675-1.592,5.485-2.462s3.593-1.8,5.463-2.789c-1.87.988-3.651,1.919-5.463,2.79S211.175,1976.811,209.332,1977.608Z" transform="translate(74.662 -1625.118)" fill="#6eb0ac"/>
    <path id="Trazado_190575" data-name="Trazado 190575" d="M65.073,1506.045c-1.672-9.64-4.889-18.978-6.263-28.667a49.918,49.918,0,0,1,14.967-43.092,42.031,42.031,0,0,1,9.438-6.8c14.19-7.441,30.747-5.987,45.873-10.048,16.377-4.4,28.532-16.915,43.266-24.654,17.18-9.024,37.9-9.691,56.708-4.926,25.29,6.4,44.015,21.357,64.572,36.181,15,10.817,28.32,16.188,47.057,16.953,14.571.594,29.791.187,42.9,6.586,22.2,10.84,34.55,40.218,34.249,63.895-.012.967-.043,1.944-.086,2.925-5.8.648-11.2,1.458-16.088,2.438-34.9,7-65.172,24.062-95.653,41.12l-8.858-34.023v0l-3.207-12.316a35.954,35.954,0,0,0-2.906-7.576,39.513,39.513,0,0,0-3.842-5.958,38.423,38.423,0,0,0-5.16-5.39,41.08,41.08,0,0,0-5.664-4.11c.256.155.491.321.737.481-.264-.173-.52-.351-.8-.518l-.007,0a13.578,13.578,0,0,0-.391-4.5l-3.52-13.276.013.061c-2.434-9.352-15.07-15.525-33.294-14.881A85.436,85.436,0,0,0,210.84,1462l-101.9,17.946c-8.13,1.432-12.859,9.829-10.56,18.751l.556,2.156c-8.261,2.646-14.065,6.98-15.313,12.28a9.2,9.2,0,0,0-.237,1.778v-.126l-.68,13.457a9.389,9.389,0,0,0,.464,3.374c-6.8,3.5-11.381,8.08-12.589,13.362l-1.619,32.13-2.493,56.369-.8,18.2c-5.356,2.944-8.983,7.765-7.348,14.681h0a5.658,5.658,0,0,0,1.506,3.555,44.616,44.616,0,0,0-7.6,2.28c-5.825-10.089-10.328-20.736-10.98-34.013C38.967,1591.758,73.227,1553.075,65.073,1506.045Zm270.321-11.362,6.139-3.391,3.391,6.14,7.474-4.128-3.391-6.139,6.14-3.391-4.128-7.475-6.14,3.391-3.391-6.14-7.474,4.129,3.391,6.14-6.139,3.39Zm-81.975-63.141c3.326-5.011-4.455-10.163-7.774-5.16S250.1,1436.544,253.419,1431.542Zm-104.581,4.065,3.243-1.791,1.791,3.242,3.948-2.18-1.791-3.243,3.243-1.791-2.18-3.947-3.243,1.791-1.791-3.243-3.948,2.18,1.791,3.242-3.243,1.792ZM80.69,1480.751c3.325-5.011-4.455-10.162-7.775-5.16S77.369,1485.754,80.69,1480.751ZM58.939,1624.015l-3.243,1.791-1.791-3.242-3.947,2.18,1.791,3.243-3.243,1.791,2.18,3.947,3.243-1.791,1.791,3.243L59.668,1633l-1.791-3.242,3.243-1.791Z" transform="translate(-27.648 -1370.358)" fill="#81d4fa" opacity="0.43"/>
    <path id="Trazado_190576" data-name="Trazado 190576" d="M241.3,1985.878c-.933.413-1.869.833-2.8,1.286C239.432,1986.711,240.368,1986.291,241.3,1985.878Z" transform="translate(37.121 -1630.983)" fill="#6eb0ac"/>
    <path id="Trazado_190577" data-name="Trazado 190577" d="M428.474,1803.95a10.713,10.713,0,0,1,.375,1.211c.077.324.134.652.181.981-.047-.328-.1-.656-.181-.979A10.656,10.656,0,0,0,428.474,1803.95Z" transform="translate(-258.19 -1552.082)" fill="#6eb0ac"/>
    <path id="Trazado_190578" data-name="Trazado 190578" d="M448.251,1962.239a3.619,3.619,0,0,1,.029-1.03A3.619,3.619,0,0,0,448.251,1962.239Z" transform="translate(-288.627 -1620.284)" fill="#6eb0ac"/>
    <path id="Trazado_190579" data-name="Trazado 190579" d="M568.5,1922.878a1.588,1.588,0,0,1,.88,1.418A1.588,1.588,0,0,0,568.5,1922.878Z" transform="translate(-477.837 -1603.66)" fill="#6eb0ac"/>
    <path id="Trazado_190580" data-name="Trazado 190580" d="M428.276,1810.365l0-.037Z" transform="translate(-257.323 -1554.848)" fill="#6eb0ac"/>
    <path id="Trazado_190581" data-name="Trazado 190581" d="M442.151,1954.378a7.612,7.612,0,0,0-.589.6,7.612,7.612,0,0,1,.589-.6,9.177,9.177,0,0,1,1.569-1.132,2.956,2.956,0,0,1,.247,1.066,2.956,2.956,0,0,0-.247-1.066A9.177,9.177,0,0,0,442.151,1954.378Z" transform="translate(-280.54 -1616.831)" fill="#6eb0ac"/>
    <path id="Trazado_190582" data-name="Trazado 190582" d="M509.25,1808.962c-.467.034-.938.091-1.41.167l-.09.011h0l.091-.011c.472-.076.943-.133,1.41-.168l.074,0q.735-.053,1.459-.04-.724-.014-1.459.04Z" transform="translate(-384.837 -1554.235)" fill="#6eb0ac"/>
    <path id="Trazado_190583" data-name="Trazado 190583" d="M445.81,1957.734a5.87,5.87,0,0,1,.432-.763,6.763,6.763,0,0,1,.513-.669,6.763,6.763,0,0,0-.513.669A5.87,5.87,0,0,0,445.81,1957.734Z" transform="translate(-285.733 -1618.156)" fill="#6eb0ac"/>
    <path id="Trazado_190584" data-name="Trazado 190584" d="M533.462,1821.748a13.17,13.17,0,0,0-.768,4.239A13.17,13.17,0,0,1,533.462,1821.748Z" transform="translate(-421.643 -1559.801)" fill="#6eb0ac"/>
    <path id="Trazado_190585" data-name="Trazado 190585" d="M481.992,1828.132c.037.158.087.311.118.471a13.483,13.483,0,0,1,.244,2.918,13.483,13.483,0,0,0-.244-2.918C482.079,1828.442,482.029,1828.289,481.992,1828.132Z" transform="translate(-341.827 -1562.57)" fill="#6eb0ac"/>
    <path id="Trazado_190586" data-name="Trazado 190586" d="M142.894,1922.66a146.471,146.471,0,0,0,24.291.476c-4.678-2.085-9.872-4.119-15.37-6.12,5.5,2,10.693,4.034,15.37,6.12,1.575.7,3.1,1.409,4.551,2.124,6.437,3.174,22.932,5.467,48.689,6.291,23.582.755,44.975,5.221,68.227,4.661,33.232,15.445,49.75-17.942,66-38.043,11.434-14.141,22.132-27.336,33.074-38.333q.464.957.932,1.907c7.478,15.16,12.656,30.542,4.123,47.056-4.69,9.078-18.532,17.184-26.966,22.605-19.19,12.338-40.962,32.042-64.377,33.614-30.382,2.038-52.631-23.685-81.5-23.16-10.732.194-21.849,4.481-32.077,7.3a134.722,134.722,0,0,1-52.113,4.35c-32.659-3.479-57.177-17.737-73.865-45.49.437.141.866.284,1.283.428C87.087,1916.754,113.69,1919.506,142.894,1922.66Zm216.8-5.069,3.242-1.791,1.791,3.242,3.948-2.181-1.791-3.242,3.243-1.791-2.18-3.948-3.243,1.792-1.791-3.243-3.948,2.181,1.791,3.242-3.243,1.791Zm-221.835,21.158c3.326-5.011-4.455-10.163-7.774-5.159S134.539,1943.751,137.859,1938.749Z" transform="translate(-18.761 -1576.32)" fill="#81d4fa" opacity="0.43"/>
    <path id="Trazado_190587" data-name="Trazado 190587" d="M421.781,1813.314c.206.707.432,1.419.71,2.118C422.213,1814.733,421.987,1814.02,421.781,1813.314Z" transform="translate(-247.861 -1556.144)" fill="#6eb0ac"/>
    <path id="Trazado_190588" data-name="Trazado 190588" d="M424.3,1808.783c-.4-1.42-.686-2.836-.949-4.229-.108-.566-.211-1.128-.315-1.688.1.56.208,1.121.315,1.688C423.613,1805.948,423.9,1807.363,424.3,1808.783Z" transform="translate(-250.379 -1551.613)" fill="#6eb0ac"/>
    <path id="Trazado_190589" data-name="Trazado 190589" d="M425.144,1791.142h0a7.527,7.527,0,0,1,1.629,1.51A7.527,7.527,0,0,0,425.144,1791.142Z" transform="translate(-254.048 -1546.528)" fill="#6eb0ac"/>
    <path id="Trazado_190590" data-name="Trazado 190590" d="M483.257,1824.64c.035.1.072.2.109.295.054.143.1.288.159.432-.053-.144-.1-.289-.159-.432C483.329,1824.836,483.292,1824.74,483.257,1824.64Z" transform="translate(-343.709 -1561.055)" fill="#6eb0ac"/>
    <path id="Trazado_190591" data-name="Trazado 190591" d="M491.2,1814.344c-.292-.277-.6-.537-.917-.789l-.127-.107c-.336-.261-.687-.506-1.047-.74l-.081-.054c-.377-.24-.768-.464-1.169-.671l-.024-.013.024.013c.4.208.792.43,1.169.671l.081.054c.36.233.71.477,1.047.74l.127.106c.316.253.625.514.917.79l.165.169c.272.265.539.537.788.823-.249-.287-.515-.558-.788-.823Z" transform="translate(-354.921 -1555.56)" fill="#6eb0ac"/>
    <path id="Trazado_190592" data-name="Trazado 190592" d="M420.53,1819.887a10.748,10.748,0,0,1-.567-1A10.748,10.748,0,0,0,420.53,1819.887Z" transform="translate(-244.871 -1558.559)" fill="#6eb0ac"/>
    <path id="Trazado_190593" data-name="Trazado 190593" d="M419.786,1802.527c.125.469.239.94.33,1.41.146.764.247,1.526.317,2.288-.07-.762-.171-1.524-.317-2.288C420.025,1803.467,419.911,1803,419.786,1802.527Z" transform="translate(-244.672 -1551.465)" fill="#6eb0ac"/>
    <path id="Trazado_190594" data-name="Trazado 190594" d="M422.97,1797.2h0l-.135-.237Z" transform="translate(-248.937 -1549.052)" fill="#6eb0ac"/>
    <path id="Trazado_190595" data-name="Trazado 190595" d="M419.579,1812.8v0Z" transform="translate(-243.702 -1555.919)" fill="#6eb0ac"/>
    <path id="Trazado_190596" data-name="Trazado 190596" d="M479.113,1807.166h0a13.209,13.209,0,0,1,1.861,1.847A13.209,13.209,0,0,0,479.113,1807.166Z" transform="translate(-338.812 -1553.477)" fill="#6eb0ac"/>
    <path id="Trazado_190597" data-name="Trazado 190597" d="M475.716,1832.141q-.117-.614-.233-1.221c-.116-.607-.238-1.2-.362-1.8.123.6.246,1.193.362,1.8Q475.6,1831.527,475.716,1832.141Z" transform="translate(-331.293 -1562.999)" fill="#6eb0ac"/>
    <path id="Trazado_190598" data-name="Trazado 190598" d="M472.531,1818.4a17.657,17.657,0,0,1,.8,2.513q.156.641.266,1.291-.109-.649-.266-1.291A17.657,17.657,0,0,0,472.531,1818.4Z" transform="translate(-327.709 -1558.349)" fill="#6eb0ac"/>
    <path id="Trazado_190599" data-name="Trazado 190599" d="M479.62,1808.56c.438,1.384.9,2.708,1.32,4.013C480.521,1811.267,480.058,1809.943,479.62,1808.56Z" transform="translate(-339.065 -1554.082)" fill="#6eb0ac"/>
    <path id="Trazado_190600" data-name="Trazado 190600" d="M484.484,1821.653c-.063-.111-.136-.216-.2-.324.067.108.141.213.2.324.078.14.142.289.215.432s.134.275.2.412c-.069-.137-.133-.276-.2-.412S484.562,1821.793,484.484,1821.653Z" transform="translate(-345.666 -1559.62)" fill="#6eb0ac"/>
    <path id="Trazado_190601" data-name="Trazado 190601" d="M473.634,1837.033c.159.755.334,1.517.548,2.289C473.967,1838.549,473.793,1837.788,473.634,1837.033Z" transform="translate(-328.917 -1566.43)" fill="#6eb0ac"/>
    <path id="Trazado_190602" data-name="Trazado 190602" d="M472.061,1831.03h0c.012-.434.012-.869,0-1.3C472.073,1830.16,472.073,1830.6,472.061,1831.03Z" transform="translate(-325.912 -1563.26)" fill="#6eb0ac"/>
    <path id="Trazado_190603" data-name="Trazado 190603" d="M430.386,1815.561c.054.145.109.292.169.441C430.5,1815.854,430.44,1815.706,430.386,1815.561Z" transform="translate(-260.798 -1557.118)" fill="#6eb0ac"/>
    <path id="Trazado_190604" data-name="Trazado 190604" d="M527.731,1818.788a8.773,8.773,0,0,1,2.811-3.865A8.773,8.773,0,0,0,527.731,1818.788Z" transform="translate(-415.912 -1556.842)" fill="#6eb0ac"/>
    <path id="Trazado_190605" data-name="Trazado 190605" d="M516.709,1809.314h0c-.221.036-.441.059-.663.1a30.188,30.188,0,0,0-2.967.752,30.53,30.53,0,0,1,2.967-.753C516.268,1809.373,516.488,1809.35,516.709,1809.314Z" transform="translate(-393.782 -1554.409)" fill="#6eb0ac"/>
    <path id="Trazado_190606" data-name="Trazado 190606" d="M434.137,1796.708a4.22,4.22,0,0,1,.763.41A4.2,4.2,0,0,0,434.137,1796.708Z" transform="translate(-267.267 -1548.942)" fill="#6eb0ac"/>
    <path id="Trazado_190626" data-name="Trazado 190626" d="M509.687,1901.92h0l.211.083c.442.175.894.353,1.346.53l.722.283q1.021.4,2.078.8l.132-.05c3.453,1.734,7.334,3.433,11.52,5.108,5.861,2.344,12.32,4.64,19.04,6.918q2.879.977,5.815,1.95c5.864,1.946,11.85,3.887,17.743,5.841q2.947.978,5.855,1.959c2.9.983,5.768,1.97,8.565,2.964q1.4.5,2.773,1c5.5,2,10.693,4.035,15.37,6.12a146.445,146.445,0,0,1-24.291-.477c-29.2-3.153-55.808-5.906-79.727-14.217-.416-.144-.846-.286-1.283-.428-8.987-2.9-21.941-5.222-26.1-14.077-3.874-8.244.836-13,7.556-15.776a44.65,44.65,0,0,1,7.6-2.28C487.757,1892.019,495.914,1896.444,509.687,1901.92Z" transform="translate(-452.431 -1588.608)" fill="#f39164"/>
    <path id="Trazado_190627" data-name="Trazado 190627" d="M440.984,1684.754a17.826,17.826,0,0,0,2.22,3.46l.017.064a17.344,17.344,0,0,1-2.7-4.539c.112.27.236.535.36.8Z" transform="translate(-279.201 -1499.948)" fill="#e1e9f2"/>
    <path id="Trazado_190628" data-name="Trazado 190628" d="M445.961,1682.083c-.067-.183-.139-.365-.2-.549-.07-.213-.137-.433-.2-.653C445.672,1681.288,445.813,1681.687,445.961,1682.083Z" transform="translate(-284.796 -1498.709)" fill="#e1e9f2"/>
    <path id="Trazado_190629" data-name="Trazado 190629" d="M433.364,1693.764l-5.443-20.9c-1.453-5.462-2.894-10.93-4.359-16.4l6.172,6.758c1.148,4.406,1.586,6.083,1.79,6.832l-.064-.206.038.148,12.958,49.767-.63.186-5.245-5.741Z" transform="translate(-270.834 -1488.121)" fill="#e1e9f2"/>
    <path id="Trazado_190630" data-name="Trazado 190630" d="M434.216,1537.49l1.376,1.506-17.011,3c-4.922.866-8.311,4.895-8.941,9.891l-1.313-1.438a16.051,16.051,0,0,0,.259,6.931l.541,2.1q-.674.195-1.328.4l-.555-2.156c-2.3-8.922,2.43-17.319,10.56-18.751l101.9-17.946q-2.726,1.091-5.3,2.341Z" transform="translate(-336.511 -1429.382)" fill="#e1e9f2"/>
    <path id="Trazado_190631" data-name="Trazado 190631" d="M536.931,1558.3l17.864-3.146,13.626,14.917-6.631,1.168-6.76,1.191q-1.072-.132-2.165-.236a75.068,75.068,0,0,0-19.615.671l-4.317-4.726C529.1,1563.229,532.225,1559.133,536.931,1558.3Z" transform="translate(-454.473 -1444.184)" fill="#e1e9f2"/>
    <path id="Trazado_190632" data-name="Trazado 190632" d="M446.33,1680.856c-.049-.164-.1-.326-.147-.493l.052.152C446.276,1680.666,446.3,1680.771,446.33,1680.856Z" transform="translate(-285.519 -1498.484)" fill="#e1e9f2"/>
    <path id="Trazado_190633" data-name="Trazado 190633" d="M462.428,1656l5.331,20.921,4.413,16.944L459.9,1680.428a10.849,10.849,0,0,0-.322-2.062,10.737,10.737,0,0,0-7.711-7.853c.021-.473.044-.959.064-1.432l.347-7.9c.138-3.052.265-6.057.394-8.96a13.865,13.865,0,0,0-2.441-8.209,10.586,10.586,0,0,0-.322-3.181c-1.339-5.2-6.195-8.756-10.823-7.94l-.083.015.027-.27.68-13.457c-.007.155-.029.311-.045.467a9.177,9.177,0,0,0-.157-2.847l18.094,19.81C459.185,1643.083,460.818,1649.545,462.428,1656Z" transform="translate(-307.293 -1470.919)" fill="#e1e9f2"/>
    <path id="Trazado_190634" data-name="Trazado 190634" d="M346.1,1708.427c-.11.023-.22.049-.331.071v0Z" transform="translate(-128.428 -1510.655)" fill="#f3f6fa"/>
    <path id="Trazado_190635" data-name="Trazado 190635" d="M482.108,1598.727q-5.59-20.865-11.571-41.667,4.781,21.007,9.965,41.95c.126.514.257,1.028.383,1.544l-18.094-19.81a11.619,11.619,0,0,0-1.852-4.164,9.062,9.062,0,0,0,2.586-9.329c-1.339-5.2-6.194-8.755-10.823-7.939l-8.172,1.439L430.9,1545.833l69.142-12.177c-6.59,4.424-11.613,9.641-14.075,15.149a17.667,17.667,0,0,0-1.561,5.994,9.093,9.093,0,0,0-2.443,9.2,11.006,11.006,0,0,0,6.035,7.3l.323,1.218a14.031,14.031,0,0,0,2.787,5.3l-.015.028q-.387.684-.71,1.4a42.1,42.1,0,0,0-2.09,5.717,38.892,38.892,0,0,0-1.3,7.124,36.761,36.761,0,0,0,1.041,12.34h0l1.443,5.542-6.172-6.758C482.908,1601.712,482.514,1600.219,482.108,1598.727Z" transform="translate(-330.58 -1434.859)" fill="#f3f6fa"/>
    <path id="Trazado_190636" data-name="Trazado 190636" d="M416.014,1539.283l80.191-14.122c-1.7.826-3.349,1.7-4.923,2.615l-73.892,13.013Z" transform="translate(-318.309 -1431.175)" fill="#f3f6fa"/>
    <path id="Trazado_190637" data-name="Trazado 190637" d="M424.674,1758.432l5.245,5.741q-1.771.523-3.545,1.045-.792-3.16-1.581-6.321Z" transform="translate(-256.927 -1532.342)" fill="#cce0ee"/>
    <path id="Trazado_190638" data-name="Trazado 190638" d="M601.462,1579.767l.481,1.866q-.687.178-1.355.372l-.541-2.1a16.051,16.051,0,0,1-.259-6.931l1.313,1.438A14.278,14.278,0,0,0,601.462,1579.767Z" transform="translate(-527.973 -1451.911)" fill="#cce0ee"/>
    <path id="Trazado_190639" data-name="Trazado 190639" d="M442.411,1756.669l-8.271,1.456.157-3.574c.236-5.392.471-10.78.708-16.107l2.593-.456c4.008-.706,6.549-4.466,6.291-8.836l12.277,13.441,1.028,3.95q.866,3.254,1.723,6.51l-1.809.532-1.81.531c-2.591.761-5.9,1.645-9.617,2.68A7.936,7.936,0,0,0,442.411,1756.669Z" transform="translate(-291.287 -1519.644)" fill="#cce0ee"/>
    <path id="Trazado_190640" data-name="Trazado 190640" d="M591.046,1578.089l4.317,4.726q-1.774.308-3.456.7l-.457-1.773A12.86,12.86,0,0,1,591.046,1578.089Z" transform="translate(-516.586 -1454.129)" fill="#cce0ee"/>
    <path id="Trazado_190641" data-name="Trazado 190641" d="M393.849,1863.537c4.628-.816,7.308-5.7,5.969-10.9a11.328,11.328,0,0,0-2.248-4.4q4.988-.936,9.974-1.746c1.228,4.364,2.446,8.729,3.7,13.086-1-4.4-2.04-8.793-3.068-13.188,1.684-.272,3.367-.547,5.05-.8l1.425,5.477c1.749,6.713,7.883,12.074,17.214,15.151.271.192.544.383.828.568-4.122,1.607-8.267,3.107-12.407,4.582q-2.473.881-4.94,1.763c-3.289,1.181-6.564,2.382-9.808,3.659-2.212.87-4.437,1.536-6.367,2.347a18.982,18.982,0,0,0-4.218-2.529l-.5-.236c-.977-.458-1.844-.845-2.361-1.132-4.034-2.238-12.962-5.107-23.051-7.341l9.9-1.743Z" transform="translate(-228.202 -1570.144)" fill="#cce0ee"/>
    <path id="Trazado_190642" data-name="Trazado 190642" d="M434.144,1547.3c-4.706.828-7.828,4.924-8,9.84a12.858,12.858,0,0,0,.4,3.653l.457,1.774q-.685.16-1.351.335l-.481-1.866a14.279,14.279,0,0,1-.361-5.354c.631-5,4.019-9.025,8.941-9.891l17.012-3,73.892-13.012q-1.819,1.061-3.509,2.2l-69.142,12.177Z" transform="translate(-351.686 -1433.178)" fill="#c2cfdb"/>
    <path id="Trazado_190643" data-name="Trazado 190643" d="M456.884,1679.682l-1.028-3.95-4.413-16.945-5.331-20.921c-1.611-6.459-3.244-12.921-4.83-19.391-.126-.515-.257-1.029-.383-1.544q-5.179-20.937-9.965-41.95,5.979,20.8,11.571,41.667c.406,1.492.8,2.985,1.2,4.479,1.465,5.465,2.906,10.934,4.359,16.4l5.443,20.9,5.217,20.447.119.464q.785,3.162,1.581,6.321l-.412.122-1.4.412Q457.747,1682.936,456.884,1679.682Z" transform="translate(-290.976 -1452.781)" fill="#c2cfdb"/>
    <path id="Trazado_190644" data-name="Trazado 190644" d="M406.923,1847.11l.634-.1c1.028,4.4,2.066,8.789,3.068,13.188C409.37,1855.839,408.151,1851.474,406.923,1847.11Z" transform="translate(-227.58 -1570.756)" fill="#c2cfdb"/>
    <path id="Trazado_190645" data-name="Trazado 190645" d="M452.515,1580.2a9.093,9.093,0,0,1,2.443-9.2,13.716,13.716,0,0,0,.2,3.542,7.334,7.334,0,0,0-.526,5.289,8.479,8.479,0,0,0,3.124,4.685l.792,2.984A11.006,11.006,0,0,1,452.515,1580.2Z" transform="translate(-301.13 -1451.051)" fill="#c2cfdb"/>
    <path id="Trazado_190646" data-name="Trazado 190646" d="M508.174,1580.309l8.172-1.439c4.629-.815,9.485,2.744,10.823,7.939a9.063,9.063,0,0,1-2.586,9.329,16.678,16.678,0,0,0-1.517-1.886,6.806,6.806,0,0,0,1.977-7.069c-1.009-3.917-4.632-6.592-8.1-5.981l-14.8,2.606-.314.055c-2.247-.5-4.6-.9-7.047-1.2l6.76-1.191Z" transform="translate(-394.226 -1454.417)" fill="#c2cfdb"/>
    <path id="Trazado_190647" data-name="Trazado 190647" d="M539.863,1587.816l-.356-.081.314-.055Z" transform="translate(-431.903 -1458.288)" fill="#384e8a"/>
    <path id="Trazado_190648" data-name="Trazado 190648" d="M513.485,1583.011c3.464-.611,7.087,2.064,8.1,5.981a6.806,6.806,0,0,1-1.977,7.068c-3.135-3.384-8.176-6.354-14.509-8.516.541-.114,1.086-.22,1.625-.343,2.445-.544,4.869-1.142,7.261-1.89-2.553.123-5.061.394-7.564.714-1.417.179-2.825.39-4.229.613q-1.684-.482-3.465-.885l-.042-.136Z" transform="translate(-390.763 -1456.226)" fill="#edf1f8"/>
    <path id="Trazado_190649" data-name="Trazado 190649" d="M524.358,1587.141c-2.392.747-4.816,1.346-7.261,1.89-.54.123-1.084.229-1.625.343q-1.412-.481-2.907-.907c1.4-.223,2.812-.434,4.229-.613C519.3,1587.534,521.8,1587.263,524.358,1587.141Z" transform="translate(-401.14 -1458.055)" fill="#fff"/>
    <path id="Trazado_190650" data-name="Trazado 190650" d="M488.827,1653.07a10.585,10.585,0,0,1,.322,3.181,21.964,21.964,0,0,0-2.576-3.226c-1.066-3.41-4.133-5.778-7.234-5.64q-.786-.474-1.615-.933a9.174,9.174,0,0,0,.2-1.308l.083-.015C482.632,1644.314,487.488,1647.875,488.827,1653.07Z" transform="translate(-346.215 -1483.154)" fill="#c2cfdb"/>
    <path id="Trazado_190651" data-name="Trazado 190651" d="M489.531,1654.837a35.06,35.06,0,0,0-7.234-5.64C485.4,1649.059,488.465,1651.428,489.531,1654.837Z" transform="translate(-349.173 -1484.966)" fill="#edf1f8"/>
    <path id="Trazado_190652" data-name="Trazado 190652" d="M347.47,1708.551c-.37.077-.741.149-1.113.221q.556-.108,1.113-.223Z" transform="translate(-130.126 -1510.708)" fill="#c2cfdb"/>
    <path id="Trazado_190653" data-name="Trazado 190653" d="M469.208,1719.5a10.848,10.848,0,0,1,.322,2.062c.258,4.369-2.283,8.129-6.291,8.836l-2.593.456c.034-.769.068-1.55.1-2.316l.006-.14,1.884-.332c3.463-.61,5.452-4.281,4.444-8.191a8.083,8.083,0,0,0-5.689-5.9c.035-.777.07-1.558.1-2.329A10.737,10.737,0,0,1,469.208,1719.5Z" transform="translate(-316.927 -1512.051)" fill="#c2cfdb"/>
    <path id="Trazado_190654" data-name="Trazado 190654" d="M470.864,1721.656c1.008,3.91-.981,7.58-4.444,8.191l-1.884.332q.19-4.282.38-8.478l.117-2.765c.049-1.073.095-2.118.142-3.178A8.084,8.084,0,0,1,470.864,1721.656Z" transform="translate(-320.709 -1513.835)" fill="#edf1f8"/>
    <path id="Trazado_190655" data-name="Trazado 190655" d="M465.877,1777.654a7.941,7.941,0,0,1,3.271.127q-1.346.375-2.76.777c-2.821.8-5.818,1.693-8.876,2.677l.093-2.125Z" transform="translate(-314.754 -1540.629)" fill="#c2cfdb"/>
    <path id="Trazado_190656" data-name="Trazado 190656" d="M439.514,1865.863l14.9-2.625c3.464-.61,5.452-4.28,4.443-8.2a8.524,8.524,0,0,0-2.651-4.305c.843-.165,1.686-.306,2.529-.465a11.332,11.332,0,0,1,2.248,4.4c1.339,5.2-1.341,10.082-5.969,10.9l-14.9,2.624-9.9,1.743q-1.838-.407-3.72-.785.467-.564.876-1.145Z" transform="translate(-289.369 -1572.171)" fill="#c2cfdb"/>
    <path id="Trazado_190657" data-name="Trazado 190657" d="M475.414,1862.209c.714,2.769,1.289,5.418,1.747,7.882l-12.144,2.138a14.5,14.5,0,0,0,2.348-5.1,11.891,11.891,0,0,0,.3-2.221l.149-3.314c.267-.052.531-.114.8-.168q1.092-.22,2.175-.458c.4-.087.792-.176,1.188-.267.727-.167,1.445-.339,2.161-.515.227-.055.46-.107.686-.163C475.02,1860.755,475.229,1861.492,475.414,1862.209Z" transform="translate(-327.016 -1576.4)" fill="#384e8a"/>
    <path id="Trazado_190658" data-name="Trazado 190658" d="M447.639,1863.594l-14.9,2.625c-.458-2.465-1.034-5.113-1.747-7.882-.185-.718-.394-1.455-.6-2.188.136-.034.267-.07.4-.1.584-.148,1.156-.3,1.73-.447.377-.1.755-.2,1.127-.3.615-.164,1.213-.329,1.813-.493.322-.088.65-.176.967-.265.637-.177,1.253-.35,1.868-.525,1.118-.315,2.211-.625,3.244-.917q.957-.271,1.859-.521l.258-.072q1.008-.279,1.936-.523l.144-.038q.89-.234,1.7-.426l.153-.037c.565-.133,1.1-.251,1.592-.348l.249-.045a8.525,8.525,0,0,1,2.651,4.306C453.091,1859.315,451.1,1862.984,447.639,1863.594Z" transform="translate(-282.591 -1572.527)" fill="#edf1f8"/>
    <path id="Trazado_190659" data-name="Trazado 190659" d="M492.834,1650.98c1.85,7.508,14.042,14.042,30.064,15.439,18.681,1.629,35.494-4.345,37.552-13.342a8.2,8.2,0,0,0,.2-1.467l.014-.317a11.653,11.653,0,0,0,2.938-5.225l.014-.075q.829.458,1.615.933a35.061,35.061,0,0,1,7.234,5.64,21.972,21.972,0,0,1,2.576,3.226,13.866,13.866,0,0,1,2.441,8.209c-.129,2.9-.255,5.907-.394,8.959l-.347,7.9c-.02.473-.043.959-.064,1.432-.033.77-.069,1.552-.1,2.329-.048,1.06-.093,2.1-.142,3.178l-.117,2.765q-.194,4.2-.38,8.478l-.006.14c-.422.421-.876.832-1.344,1.238.019-.431.038-.866.057-1.295l.07-1.556q.157-3.561.317-7.059l.117-2.769c.107-2.343.211-4.651.31-6.937l.347-7.9c.08-1.756.155-3.5.229-5.21.045-1.032.089-2.047.134-3.059-8.808,9.313-29.66,14.8-52.356,12.821a93,93,0,0,1-21.467-4.335l32.45,39.526a111.7,111.7,0,0,1-13.958-.34c-.185-.017-.365-.037-.549-.053l-44.053-52.679-1.526,29.933-.1,2.357a16.885,16.885,0,0,1-1.182-2.414l1.619-32.13c1.209-5.282,5.793-9.867,12.589-13.362A15.717,15.717,0,0,0,492.834,1650.98Zm-15,6.424a33.758,33.758,0,0,0,5.1,4.184,63.191,63.191,0,0,0,5.645,3.464,79.915,79.915,0,0,0,12.167,5.253c1.044.369,2.1.691,3.155,1.028,1.064.3,2.122.627,3.194.9,2.135.583,4.294,1.063,6.458,1.523a118.83,118.83,0,0,0,13.134,1.88,75.613,75.613,0,0,0,26.4-2.3,58.452,58.452,0,0,0,12.307-4.978,52.807,52.807,0,0,0,5.585-3.571,31.853,31.853,0,0,0,4.935-4.383,44.866,44.866,0,0,1-10.946,7.125,63.313,63.313,0,0,1-12.261,4.363,73.562,73.562,0,0,1-12.852,1.952,87.148,87.148,0,0,1-13.01-.125,123.859,123.859,0,0,1-12.936-1.764,116.989,116.989,0,0,1-12.691-3.088q-3.128-.944-6.183-2.113t-6.02-2.55A52.317,52.317,0,0,1,477.832,1657.4Z" transform="translate(-432.106 -1482.695)" fill="#f3801a"/>
    <path id="Trazado_190660" data-name="Trazado 190660" d="M660.814,1841.361h0c-.448.212-.89.432-1.318.667l.8-18.2a17.678,17.678,0,0,0,1.19,2.256Z" transform="translate(-621.474 -1560.702)" fill="#f3801a"/>
    <path id="Trazado_190661" data-name="Trazado 190661" d="M481.53,1863.684q.769-.1,1.54-.222l.018,0c1.153-.176,2.307-.384,3.459-.6.11-.021.221-.037.331-.058l-.149,3.314a11.891,11.891,0,0,1-.3,2.221,14.5,14.5,0,0,1-2.348,5.1q-.409.582-.876,1.145c-.477-.1-.958-.187-1.438-.279a14.272,14.272,0,0,0,3.407-6.254Z" transform="translate(-346.084 -1577.604)" fill="#f3801a"/>
    <path id="Trazado_190662" data-name="Trazado 190662" d="M499.594,1679.158a117.1,117.1,0,0,0,12.691,3.088,123.854,123.854,0,0,0,12.936,1.764,87.147,87.147,0,0,0,13.01.125,73.539,73.539,0,0,0,12.852-1.952,63.347,63.347,0,0,0,12.261-4.364,44.854,44.854,0,0,0,10.946-7.125,31.851,31.851,0,0,1-4.935,4.383,52.8,52.8,0,0,1-5.585,3.571,58.453,58.453,0,0,1-12.307,4.978,75.613,75.613,0,0,1-26.4,2.3,118.826,118.826,0,0,1-13.134-1.879c-2.163-.46-4.323-.941-6.458-1.523-1.072-.269-2.13-.6-3.194-.9-1.055-.336-2.112-.659-3.156-1.028a79.9,79.9,0,0,1-12.167-5.253,63.219,63.219,0,0,1-5.645-3.464,33.725,33.725,0,0,1-5.1-4.184,52.285,52.285,0,0,0,11.181,6.792q2.956,1.4,6.02,2.55Q496.464,1678.21,499.594,1679.158Z" transform="translate(-430.484 -1492.993)" fill="#f89a44"/>
    <path id="Trazado_190663" data-name="Trazado 190663" d="M475.764,1688.955a93.03,93.03,0,0,0,21.467,4.335c22.7,1.978,43.548-3.509,52.355-12.821-.045,1.012-.089,2.027-.134,3.059-.074,1.714-.149,3.455-.229,5.21l-.347,7.9c-.1,2.286-.2,4.594-.31,6.937l-.117,2.769q-.161,3.5-.317,7.059l-.07,1.556c-.019.429-.038.864-.057,1.3-8.046,6.971-22.791,11.572-39.791,12.228Z" transform="translate(-405.528 -1498.53)" fill="#f89a44"/>
    <path id="Trazado_190664" data-name="Trazado 190664" d="M648.055,1840.322c-.74-.042-1.485-.1-2.218-.119a32.633,32.633,0,0,0-14.266,2.886l.669-15.281C635.169,1832.549,640.685,1836.876,648.055,1840.322Z" transform="translate(-592.231 -1562.429)" fill="#de6520"/>
    <path id="Trazado_190665" data-name="Trazado 190665" d="M574.438,1703.823l.1-2.357,1.526-29.934,44.053,52.679C597.854,1722.152,580.324,1713.885,574.438,1703.823Z" transform="translate(-531.943 -1494.654)" fill="#de6520"/>
    <path id="Trazado_190666" data-name="Trazado 190666" d="M521.828,1863.322c.159.008.324,0,.484.007.555.02,1.116.027,1.681.025.271,0,.539,0,.812,0,.835-.018,1.677-.051,2.529-.11l.057,0c.858-.061,1.725-.145,2.6-.241.211-.023.421-.049.631-.075.315-.038.629-.069.945-.112l3.648,4.362a14.271,14.271,0,0,1-3.407,6.254c-4.8-.917-9.7-1.651-14.36-2.079l-.5-.044c-6.634-.578-12.729-.522-17.205.543q-.756.179-1.449.4a6.305,6.305,0,0,0-.848-1.2c-.242-.278-.518-.563-.823-.853-.25-.238-.523-.481-.81-.725s-.606-.5-.933-.759-.658-.506-1.008-.76c-.33-.24-.673-.479-1.021-.718q-.276-.19-.557-.377-.409-.273-.827-.542l-.537-.342q-.444-.281-.894-.554-.608-.371-1.219-.728c-.672-.393-1.338-.765-1.993-1.126l-.338-.186q-.94-.51-1.817-.958l-.128-.068a104.42,104.42,0,0,0,26.8-1.572l0,0c.482.255.984.48,1.494.693.158.066.318.128.478.191q.581.224,1.184.414c.167.053.33.112.5.161.464.135.939.254,1.42.362.311.071.627.132.945.193.2.037.4.071.6.1a33.38,33.38,0,0,0,3.92.407Z" transform="translate(-396.116 -1576.729)" fill="#de6520"/>
    <path id="Trazado_190667" data-name="Trazado 190667" d="M525.543,1747.091c.184.017.365.037.549.053a111.747,111.747,0,0,0,13.958.341c17-.657,31.745-5.258,39.791-12.228.468-.406.922-.817,1.344-1.238-.035.766-.069,1.547-.1,2.316-.237,5.327-.472,10.714-.708,16.107l-.157,3.574-.093,2.125q-.824.265-1.654.54l.255-5.825.191-4.363c.178-4.079.357-8.144.536-12.167-7.765,6.727-21.994,11.168-38.4,11.8l1.99,2.424a113.812,113.812,0,0,1-14.613-.007l-2.3-2.751-.093-.007c-22.473-1.968-40.746-10.226-46.829-20.9l-2.373,53.651c2.3,5.192,8,10.175,16.049,14.042.7.335,1.434.646,2.16.963-.623-.051-1.237-.078-1.856-.114-7.369-3.445-12.885-7.772-15.814-12.514a17.671,17.671,0,0,1-1.19-2.256l2.493-56.369a16.879,16.879,0,0,0,1.182,2.414C485.746,1736.764,503.276,1745.031,525.543,1747.091Z" transform="translate(-437.365 -1517.534)" fill="#dde2e7"/>
    <path id="Trazado_190668" data-name="Trazado 190668" d="M528.606,1801.408h0c.261-.025.524-.045.783-.072l.2-4.593c-1.5.163-3.025.288-4.557.391l-5.78-6.912c3.614-.041,7.177-.237,10.652-.594,1.008-.1,1.993-.243,2.986-.374l5.106,6.22c-1.205.231-2.42.45-3.654.64l-.124,2.8q-.617.468-1.2.947t-1.137.973a28.7,28.7,0,0,0-2.055,2.028h0Z" transform="translate(-418.567 -1545.709)" fill="#dde2e7"/>
    <path id="Trazado_190669" data-name="Trazado 190669" d="M528.254,1861.983l-.219-.107q-.569-.287-1.092-.54l-.238-.118a104.631,104.631,0,0,0,27.493-1.291q.418.253.852.483A104.4,104.4,0,0,1,528.254,1861.983Z" transform="translate(-439.84 -1576.359)" fill="#dde2e7"/>
    <path id="Trazado_190670" data-name="Trazado 190670" d="M538.454,1807.072c-.259.027-.522.047-.783.072l-3.481-4.164-.092-.11c1.532-.1,3.055-.228,4.557-.39Z" transform="translate(-427.631 -1551.444)" fill="#b9c6c7"/>
    <path id="Trazado_190671" data-name="Trazado 190671" d="M522.19,1800.239l0,0,.473.576a49.036,49.036,0,0,0-4.254,2.86l.124-2.8C519.77,1800.689,520.985,1800.47,522.19,1800.239Z" transform="translate(-402.759 -1550.473)" fill="#b9c6c7"/>
    <path id="Trazado_190672" data-name="Trazado 190672" d="M551.528,1781.186c-.992.13-1.978.271-2.986.374-3.475.357-7.039.554-10.652.594l-9.621-11.5a113.791,113.791,0,0,0,14.613.007l4.333,5.278Z" transform="translate(-437.204 -1537.64)" fill="#b9c6c7"/>
    <path id="Trazado_190673" data-name="Trazado 190673" d="M494.986,1776.518l-5.106-6.22-4.312-5.251,4.327,5.27c.584-.077,1.168-.152,1.745-.238,2.772-.412,5.48-.931,8.09-1.546,1.629-.378,3.226-.807,4.778-1.268,1.365-.407,2.71-.834,4.013-1.3a62.913,62.913,0,0,0,6.757-2.859l.069-1.584.2-4.5q.148-3.479.3-6.94a52.975,52.975,0,0,1-10.417,4.957c-.134.048-.263.088-.4.135q-2.321.823-4.784,1.5c-2.6.719-5.312,1.322-8.1,1.817q-2.337.406-4.753.7c-2.021.252-4.08.441-6.163.575l-1.99-2.424c16.405-.633,30.635-5.074,38.4-11.8-.179,4.023-.358,8.088-.536,12.167l-.191,4.364-.255,5.825a115.061,115.061,0,0,0-19.325,8.115h0c-.781.17-1.551.354-2.346.507Z" transform="translate(-375.555 -1526.752)" fill="#f1f3f6"/>
    <path id="Trazado_190674" data-name="Trazado 190674" d="M528.21,1782.523l2.373-53.65c6.083,10.675,24.355,18.933,46.829,20.9l.093.007,2.3,2.751c-.871-.056-1.742-.117-2.616-.193q-3.366-.292-6.611-.777c-.009.3-.026.6-.035.894l-.247,5.608-.2,4.662c2.362.351,4.772.643,7.234.854,4.066.354,8.113.5,12.1.456l5.78,6.911a122.037,122.037,0,0,1-18.79-.2q-3.388-.293-6.643-.771l-.2,4.467q3.513.527,7.163.846a120.946,120.946,0,0,0,22.041-.073l1.218,1.456a21.785,21.785,0,0,0-2.453,3.222,121.694,121.694,0,0,1-20.485-.062c-2.613-.232-5.178-.538-7.675-.921l-.2,4.462c2.667.419,5.4.758,8.2,1a123.229,123.229,0,0,0,18.181.228,14.374,14.374,0,0,0-.391,3.39q0,.583.052,1.178a123.14,123.14,0,0,1-17.519-.254q-4.46-.392-8.713-1.09l-.176,3.974c0,.159-.013.327-.018.485q4.486.751,9.234,1.169a122.6,122.6,0,0,0,18.061.221q.248.832.548,1.6a17.229,17.229,0,0,0,1.4,2.815,15.079,15.079,0,0,0,5.057,4.994,104.62,104.62,0,0,1-27.493,1.291l-.148-.068c-.1-.048-.193-.09-.288-.135q-.321-.15-.617-.281l-.285-.126c-.189-.082-.365-.156-.534-.224l-.223-.093c-.224-.089-.431-.167-.608-.228l-.007,0-.036-.012q-1.615-.548-3.272-1.056c-.429-.132-.862-.258-1.293-.385-.668-.2-1.337-.393-2.011-.58-.571-.158-1.142-.312-1.716-.464q-.741-.194-1.485-.376c-.707-.177-1.413-.352-2.125-.515l-.272-.06c-2.976-.677-5.978-1.229-8.967-1.647l-.1-.014q-1.306-.182-2.607-.332c-.867-.1-1.731-.186-2.591-.255-.727-.317-1.461-.628-2.16-.963C536.206,1792.7,530.514,1787.716,528.21,1782.523Zm31.875-.973.19-4.411.195-4.42.192-4.425.323-7.3.221-4.955.245-5.613c.01-.2.018-.41.027-.611-12.25-2.941-22.351-7.884-28.623-13.992l-.542,12.265-.34,7.639-.18,4.133-.183,4.128-.183,4.108C538.112,1773.9,548.127,1778.621,560.085,1781.55Z" transform="translate(-488.74 -1519.522)" fill="#bbbec3"/>
    <path id="Trazado_190675" data-name="Trazado 190675" d="M546.212,1822.7c-2.8-.243-5.529-.583-8.2-1l.2-4.462c2.5.384,5.062.689,7.675.921a121.67,121.67,0,0,0,20.485.063q-.345.559-.642,1.133t-.547,1.162a15.193,15.193,0,0,0-.793,2.413A123.2,123.2,0,0,1,546.212,1822.7Z" transform="translate(-457.57 -1557.845)" fill="#9b9da1"/>
    <path id="Trazado_190676" data-name="Trazado 190676" d="M565.039,1806.7a120.947,120.947,0,0,1-22.041.073q-3.654-.321-7.163-.846l.2-4.467q3.258.473,6.643.771a122.038,122.038,0,0,0,18.79.2l.092.11Z" transform="translate(-455 -1551.003)" fill="#9b9da1"/>
    <path id="Trazado_190677" data-name="Trazado 190677" d="M515.1,1799.857c.8-.153,1.565-.338,2.346-.508q-.956.531-1.873,1.084Z" transform="translate(-395.67 -1550.087)" fill="#d4dcdd"/>
    <path id="Trazado_190678" data-name="Trazado 190678" d="M493.327,1761.965c2.791-.495,5.5-1.1,8.1-1.817q2.465-.678,4.784-1.5c.134-.048.263-.088.4-.135a52.957,52.957,0,0,0,10.417-4.957q-.155,3.461-.3,6.94l-.2,4.5-.069,1.584a62.908,62.908,0,0,1-6.757,2.859c-1.3.467-2.647.894-4.013,1.3-1.552.461-3.149.89-4.778,1.268-2.611.615-5.318,1.134-8.09,1.545-.578.086-1.161.162-1.745.239l-4.327-5.27-4.333-5.278c2.083-.134,4.141-.323,6.163-.575Q490.989,1762.369,493.327,1761.965Z" transform="translate(-376.732 -1530.229)" fill="#d4dcdd"/>
    <path id="Trazado_190679" data-name="Trazado 190679" d="M559.586,1780.956c-2.462-.212-4.872-.5-7.234-.854l.2-4.662.247-5.607c.01-.3.026-.6.035-.894q3.24.482,6.611.777c.874.076,1.745.137,2.616.193l9.621,11.5C567.7,1781.456,563.652,1781.31,559.586,1780.956Z" transform="translate(-470.999 -1536.898)" fill="#9b9da1"/>
    <path id="Trazado_190680" data-name="Trazado 190680" d="M601.887,1769.3l.183-4.128.18-4.133.34-7.638.542-12.265c6.272,6.109,16.373,11.052,28.623,13.993-.01.2-.017.409-.027.612l-.245,5.613-.221,4.955-.323,7.3-.192,4.424-.195,4.42-.19,4.411c-11.958-2.929-21.973-7.649-28.658-13.46Z" transform="translate(-559.017 -1524.841)" fill="#9b9da1"/>
    <path id="Trazado_190681" data-name="Trazado 190681" d="M549.815,1838.611q-4.743-.413-9.234-1.169c0-.159.013-.326.018-.485l.176-3.974q4.248.693,8.713,1.09a123.14,123.14,0,0,0,17.519.254c.019.23.044.462.073.694l.015.146c.115.828.271,1.6.448,2.353.1.446.209.892.334,1.313A122.6,122.6,0,0,1,549.815,1838.611Z" transform="translate(-460.524 -1564.673)" fill="#9b9da1"/>
    <path id="Trazado_190682" data-name="Trazado 190682" d="M570.751,1658.456c-2.057,9-18.87,14.971-37.552,13.342-16.023-1.4-28.215-7.931-30.064-15.439,5.966,4.939,16.161,8.711,28.349,9.852,17.151,1.607,32.936-2.488,39.48-9.539l-.014.317A8.218,8.218,0,0,1,570.751,1658.456Z" transform="translate(-442.407 -1488.074)" fill="#de6520"/>
    <rect id="Rectángulo_46214" data-name="Rectángulo 46214" width="0.001" height="0.015" transform="translate(61.594 154.972)" fill="#de6520"/>
    <path id="Trazado_190683" data-name="Trazado 190683" d="M618.97,1634.1c.155.115.3.232.462.345-.159-.114-.308-.23-.463-.345Z" transform="translate(-556.473 -1478.42)" fill="#de6520"/>
    <path id="Trazado_190684" data-name="Trazado 190684" d="M611.569,1638.993l.2.106h0Z" transform="translate(-544.622 -1480.542)" fill="#de6520"/>
    <path id="Trazado_190685" data-name="Trazado 190685" d="M610.658,1639.18c.172.089.342.179.518.269-.176-.089-.348-.178-.52-.268Z" transform="translate(-543.507 -1480.624)" fill="#c6561d"/>
    <path id="Trazado_190686" data-name="Trazado 190686" d="M619.786,1633.374c.177.139.366.274.551.411h0C620.152,1633.649,619.963,1633.513,619.786,1633.374Z" transform="translate(-557.84 -1478.106)" fill="#f89a44"/>
    <path id="Trazado_190687" data-name="Trazado 190687" d="M621.242,1632.871l.073.061-.073-.06Z" transform="translate(-559.641 -1477.887)" fill="#f89a44"/>
    <path id="Trazado_190688" data-name="Trazado 190688" d="M497.034,1615.278c.009.137.025.275.04.412.018.167.038.333.065.5.023.138.052.277.08.414.035.164.071.328.115.49.036.138.077.275.12.412.05.163.1.325.164.487q.075.2.158.407c.066.16.136.32.211.481.062.134.127.268.195.4.082.16.169.317.258.476.075.132.151.264.232.4.1.157.2.314.3.47.087.13.174.261.266.389.112.157.232.312.352.468.1.126.193.252.3.377.129.157.266.312.4.468.107.121.211.242.322.362.148.159.306.317.461.473.113.114.221.228.339.34.172.167.356.329.537.493.112.1.219.2.335.3.189.163.389.323.586.484l.012.01.074.06c.092.074.179.15.273.224.177.139.366.275.55.411.155.115.3.232.463.345l.22.15c.281.2.566.393.862.586.135.088.278.173.416.259.241.152.481.3.731.453.161.1.331.19.5.285.235.135.47.271.712.4.18.1.367.194.55.29l.2.107c.173.09.344.178.52.267.193.1.391.19.588.285.246.118.491.237.743.352.2.094.413.186.621.278.254.112.509.224.768.333.215.091.433.179.652.267.262.106.524.211.791.313.225.087.453.172.681.256.27.1.541.2.817.295q.351.123.706.243.42.14.845.277.361.116.726.228c.289.088.583.175.878.26.246.071.492.142.742.211.3.083.6.162.908.242.253.065.5.131.759.194.31.077.625.151.939.224.257.06.514.12.773.178.322.07.647.137.974.2.26.053.518.108.781.158.337.066.68.127,1.022.188.256.046.512.094.771.138.361.061.728.115,1.094.172.246.038.49.078.739.114.408.058.822.11,1.234.162.212.026.421.056.634.082q.943.111,1.9.2c21.043,1.971,40.035-4.639,42.419-14.764.07-.3.122-.594.162-.892.013-.1.018-.195.028-.292.016-.156.037-.312.045-.467l-.68,13.457-.027.27a9.159,9.159,0,0,1-.2,1.308l-.014.075a11.655,11.655,0,0,1-2.938,5.225c-6.544,7.051-22.33,11.146-39.48,9.539-12.189-1.141-22.384-4.913-28.349-9.852a15.715,15.715,0,0,1-5.207-7.023,9.388,9.388,0,0,1-.464-3.374l.68-13.457v.126c0,.137,0,.273,0,.41C497.022,1614.941,497.023,1615.109,497.034,1615.278Z" transform="translate(-441.283 -1469.806)" fill="#c2cfdb"/>
    <path id="Trazado_190689" data-name="Trazado 190689" d="M545.381,1593.687a76.709,76.709,0,0,1,21.851,4.227,20.084,20.084,0,0,1,5.288,4.837,12.571,12.571,0,0,1,.756,1.2c-6.066,7.159-20.423,12.668-36.634,13.315-14.756.589-27.061-3.011-32.561-8.743a8.225,8.225,0,0,1-.2-4.5,9.306,9.306,0,0,1,.907-2.287C513.35,1596.072,528.85,1592.728,545.381,1593.687Z" transform="translate(-445.015 -1460.823)" fill="#e1e9f2"/>
    <path id="Trazado_190690" data-name="Trazado 190690" d="M514.56,1586.691q.667-.175,1.351-.335,1.679-.394,3.456-.7a75.073,75.073,0,0,1,19.615-.671q1.094.1,2.165.236c2.444.3,4.8.7,7.047,1.2l.356.08q1.781.4,3.465.885,1.494.426,2.907.907c6.333,2.162,11.374,5.131,14.509,8.516a16.7,16.7,0,0,1,1.517,1.886,11.62,11.62,0,0,1,1.852,4.164,9.179,9.179,0,0,1,.157,2.848c-.01.1-.015.195-.028.292-.041.3-.092.594-.162.892-2.384,10.126-21.376,16.736-42.419,14.765q-.96-.091-1.9-.2c-.214-.025-.422-.055-.634-.082-.413-.052-.827-.1-1.234-.162-.249-.036-.493-.076-.739-.114-.366-.057-.733-.111-1.094-.172-.259-.044-.514-.092-.771-.137-.342-.061-.685-.122-1.022-.188-.263-.051-.521-.1-.781-.158-.326-.067-.652-.134-.973-.2-.259-.058-.516-.118-.773-.178-.314-.073-.629-.146-.939-.224-.255-.063-.507-.129-.759-.194-.3-.08-.608-.16-.908-.242-.25-.069-.5-.14-.742-.211-.3-.086-.588-.172-.878-.26q-.366-.112-.727-.228-.426-.137-.845-.277-.355-.12-.706-.244c-.275-.1-.547-.2-.817-.294-.228-.084-.456-.17-.681-.257-.267-.1-.529-.207-.791-.313-.219-.088-.437-.177-.652-.267-.259-.109-.514-.22-.768-.332-.208-.092-.417-.184-.621-.278-.252-.115-.5-.233-.743-.352-.2-.095-.395-.189-.588-.285-.176-.089-.346-.179-.518-.268l-.2-.106c-.183-.1-.37-.191-.55-.29-.242-.132-.477-.268-.712-.4-.166-.094-.335-.189-.5-.285-.25-.149-.49-.3-.731-.453-.138-.087-.281-.171-.416-.259-.3-.193-.58-.389-.862-.586l-.22-.15c-.16-.114-.308-.23-.462-.345-.185-.137-.374-.272-.551-.411-.094-.074-.181-.15-.273-.224l-.073-.061-.012-.009c-.2-.161-.4-.321-.586-.484-.115-.1-.223-.2-.335-.3-.182-.164-.365-.327-.537-.493-.117-.113-.226-.226-.339-.34-.156-.156-.314-.314-.461-.473-.111-.12-.215-.241-.322-.362-.137-.156-.274-.31-.4-.468-.1-.125-.2-.251-.3-.377-.121-.156-.24-.311-.352-.468-.092-.128-.179-.258-.266-.389-.1-.156-.207-.312-.3-.47-.081-.132-.157-.265-.232-.4-.089-.159-.177-.316-.258-.476-.068-.134-.133-.268-.195-.4-.074-.161-.145-.321-.211-.481q-.083-.2-.158-.407-.088-.242-.164-.487c-.042-.137-.083-.274-.12-.412-.044-.162-.08-.326-.115-.49-.028-.138-.057-.276-.08-.414-.027-.166-.047-.333-.065-.5-.015-.137-.031-.275-.04-.412-.011-.169-.012-.337-.014-.506,0-.137,0-.273,0-.41a9.2,9.2,0,0,1,.237-1.778c1.248-5.3,7.052-9.634,15.313-12.28q.653-.21,1.328-.4T514.56,1586.691Zm-17.228,13.128c-.041.175-.065.35-.1.525a20.816,20.816,0,0,1,2.057-1.714,9.393,9.393,0,0,0-.461,1.386,8.78,8.78,0,0,0-.1,3.587,10.6,10.6,0,0,1-1.673-3c-1.432,9.685,13.206,18.893,33.378,20.782,20.7,1.94,39.387-4.563,41.733-14.525a10.078,10.078,0,0,0-2.064-8.443c-.246.382-.522.759-.814,1.133-.2-.346-.427-.691-.674-1.035a18.566,18.566,0,0,0-3.285-3.443c1.049.455,2.048.932,2.982,1.431-5.487-5.567-16.269-9.923-29.419-11.155C518.277,1583.422,499.669,1589.9,497.332,1599.819Z" transform="translate(-440.59 -1456.969)" fill="#e1e9f2"/>
    <path id="Trazado_190691" data-name="Trazado 190691" d="M521.9,1592.5c7.41-3.815,18.741-5.732,30.775-4.64,9.643.876,18.32,3.642,24.1,7.465a76.722,76.722,0,0,0-21.851-4.227c-16.532-.959-32.031,2.385-40.589,8.045C515.732,1596.579,518.36,1594.323,521.9,1592.5Z" transform="translate(-454.556 -1458.235)" fill="#edf2f8"/>
    <path id="Trazado_190692" data-name="Trazado 190692" d="M546.267,1585.641c13.15,1.232,23.932,5.588,29.419,11.155-.933-.5-1.933-.976-2.982-1.431-5.727-4.729-15.384-8.108-26.569-9.123-18.764-1.7-35.868,3.916-39.47,12.677a20.806,20.806,0,0,0-2.057,1.714c.031-.175.055-.35.1-.525C507.04,1590.186,525.649,1583.71,546.267,1585.641Z" transform="translate(-447.962 -1457.257)" fill="#edf2f8"/>
    <path id="Trazado_190693" data-name="Trazado 190693" d="M530.977,1631.235c12.123,1.1,23.56-.856,31.106-4.74,4.74-2.44,7.945-5.64,8.824-9.323a9.287,9.287,0,0,0-1.206-7.061c.292-.374.569-.751.814-1.133a10.077,10.077,0,0,1,2.064,8.443c-2.346,9.961-21.03,16.464-41.733,14.525-20.172-1.89-34.81-11.1-33.378-20.783a10.6,10.6,0,0,0,1.673,3,10.95,10.95,0,0,0,1.981,4.508C505.8,1625.173,517.234,1629.987,530.977,1631.235Z" transform="translate(-441 -1467.525)" fill="#ced8e2"/>
    <path id="Trazado_190694" data-name="Trazado 190694" d="M534.019,1625.251c16.211-.647,30.568-6.155,36.634-13.314a8.61,8.61,0,0,1,1.02,6.369c-2.208,9.247-19.815,15.336-39.246,13.571-13.357-1.213-24.892-6.041-29.389-12.3a11.108,11.108,0,0,1-1.581-3.068C506.958,1622.241,519.262,1625.841,534.019,1625.251Z" transform="translate(-442.392 -1468.809)" fill="#ced8e2"/>
    <path id="Trazado_190695" data-name="Trazado 190695" d="M540.485,1586.73c11.185,1.015,20.842,4.394,26.568,9.123a18.559,18.559,0,0,1,3.285,3.443c.247.345.47.689.674,1.035a9.288,9.288,0,0,1,1.206,7.061c-.879,3.683-4.084,6.883-8.824,9.323-7.547,3.884-18.983,5.841-31.106,4.74-13.742-1.248-25.182-6.062-29.854-12.566a10.948,10.948,0,0,1-1.981-4.509,8.781,8.781,0,0,1,.1-3.587,9.39,9.39,0,0,1,.461-1.386C504.617,1590.645,521.721,1585.026,540.485,1586.73Zm-39.3,14.211a8.226,8.226,0,0,0,.2,4.5,11.109,11.109,0,0,0,1.581,3.068c4.5,6.26,16.032,11.088,29.389,12.3,19.432,1.765,37.038-4.324,39.247-13.571a8.61,8.61,0,0,0-1.02-6.369,12.556,12.556,0,0,0-.756-1.2,20.082,20.082,0,0,0-5.288-4.837c-5.781-3.823-14.458-6.589-24.1-7.465-12.033-1.092-23.364.825-30.774,4.64-3.537,1.822-6.165,4.078-7.564,6.643A9.308,9.308,0,0,0,501.181,1600.941Z" transform="translate(-442.311 -1457.745)" fill="#fff"/>
    <path id="Trazado_190696" data-name="Trazado 190696" d="M369.543,1882.419l-.433.169c-.284-.185-.557-.375-.828-.568C368.7,1882.157,369.116,1882.291,369.543,1882.419Z" transform="translate(-164.616 -1585.941)" fill="#cacac8"/>
    <path id="Trazado_190697" data-name="Trazado 190697" d="M365.324,1850.895l-1.425-5.477c.539-.08,1.078-.154,1.618-.232l1.38,5.3c1.85,7.093,8.949,12.368,19.385,14.977-.826.337-1.654.659-2.482.984-.428-.128-.846-.262-1.261-.4C373.207,1862.969,367.073,1857.608,365.324,1850.895Z" transform="translate(-178.872 -1569.966)" fill="#dcdcda"/>
    <path id="Trazado_190698" data-name="Trazado 190698" d="M299.01,1552.281l-.035.106.035-.106Z" transform="translate(-54.833 -1442.937)" fill="#dcdcda"/>
    <path id="Trazado_190699" data-name="Trazado 190699" d="M366.793,1610.518l-1.253-4.812-.175.011a14.083,14.083,0,0,0-.354-2.038l-3.2-12.292a33.46,33.46,0,0,0-2.45-6.577,15.68,15.68,0,0,1-.19,3.881,20.8,20.8,0,0,1-1.6,5.131c-.04.092-.1.2-.148.289-6.69,14.319-28.188,26.906-51.787,31.442l20.991,18.7c-.575.193-1.152.385-1.734.569-.229.073-.459.143-.689.214q-.868.268-1.745.522c-.229.067-.458.134-.687.2q-2.141.6-4.322,1.12c-.509.119-1.011.235-1.506.344q-.591.131-1.184.257l-.331.069q-.556.115-1.113.222-.6.118-1.212.229-.736.134-1.5.261-.654.11-1.31.21l-23.742-21.148c-11.368-.25-21.038-2.873-27.289-7.352a22.18,22.18,0,0,1-2.346-1.906c.062.266.124.531.194.8l.019.077c2.26,8.671,2.936,11.282,3.2,12.276l-.009.007,1.757,6.75a17.831,17.831,0,0,1-2.22-3.46l-.106-.215c-.123-.266-.247-.531-.36-.8-.055-.137-.1-.277-.152-.416-.147-.4-.288-.8-.4-1.2.066.22.133.439.2.653-.032-.1-.074-.189-.1-.286l-.049-.166c-.026-.086-.054-.191-.1-.341l-.052-.152v0h0l-.038-.148.063.206c-.2-.749-.642-2.426-1.79-6.832l-1.443-5.543h0a36.761,36.761,0,0,1-1.041-12.339,38.885,38.885,0,0,1,1.3-7.124,42.1,42.1,0,0,1,2.09-5.717q.322-.711.71-1.4l.015-.028c5.123,6.249,16.041,10.034,30.494,9.524,24.354-.858,49.459-13.559,56.077-28.368a17.685,17.685,0,0,0,1.557-5.934l.007,0c.276.167.532.345.8.518-.246-.16-.481-.326-.737-.481a41.041,41.041,0,0,1,5.664,4.11,38.437,38.437,0,0,1,5.16,5.39,39.521,39.521,0,0,1,3.842,5.958,35.951,35.951,0,0,1,2.906,7.576l3.207,12.315v0h0A16.762,16.762,0,0,1,366.793,1610.518Zm-17.678-14.692a58.741,58.741,0,0,1-10.82,9.539,88.279,88.279,0,0,1-26.18,12,82.294,82.294,0,0,1-28.553,3.5,74.054,74.054,0,0,1-14.308-2.239c-2.342-.622-4.674-1.308-6.953-2.161a53.138,53.138,0,0,1-6.7-2.922,44.647,44.647,0,0,0,6.442,3.543,65.827,65.827,0,0,0,21.365,5.667c1.229.166,2.466.206,3.7.266s2.476.129,3.714.07c1.238-.033,2.479-.047,3.718-.1l3.7-.334a34.9,34.9,0,0,0,3.683-.516c1.219-.221,2.457-.378,3.66-.653l3.613-.822c1.2-.284,2.386-.64,3.58-.958a95.945,95.945,0,0,0,13.892-5.177,75.568,75.568,0,0,0,12.731-7.623,55.045,55.045,0,0,0,10.632-10.322,40.476,40.476,0,0,0,6.816-13.025A45,45,0,0,1,349.115,1595.826Z" transform="translate(-97.08 -1449.702)" fill="#dcdcda"/>
    <path id="Trazado_190700" data-name="Trazado 190700" d="M305.669,1607.077c.049-.091.108-.2.148-.289a20.8,20.8,0,0,0,1.6-5.131,15.686,15.686,0,0,0,.19-3.881,33.465,33.465,0,0,1,2.45,6.578l3.2,12.292a14.077,14.077,0,0,1,.354,2.038l.175-.011,1.253,4.812a22.428,22.428,0,0,1-1.668,5.277c-5.323,11.771-20.413,22.379-38.5,28.454l-20.991-18.7C277.481,1633.983,298.979,1621.4,305.669,1607.077Z" transform="translate(-45.332 -1462.667)" fill="#eaeae9"/>
    <path id="Trazado_190701" data-name="Trazado 190701" d="M355.232,1618.914a75.573,75.573,0,0,1-12.731,7.623,95.932,95.932,0,0,1-13.892,5.177c-1.194.318-2.379.674-3.58.958l-3.613.822c-1.2.275-2.441.432-3.66.653a34.9,34.9,0,0,1-3.683.516l-3.7.334c-1.239.049-2.48.062-3.718.1-1.239.059-2.477-.012-3.714-.07s-2.475-.1-3.7-.266a65.827,65.827,0,0,1-21.365-5.667,44.648,44.648,0,0,1-6.442-3.543,53.153,53.153,0,0,0,6.7,2.922c2.278.854,4.611,1.539,6.953,2.161a74.072,74.072,0,0,0,14.308,2.239,82.3,82.3,0,0,0,28.553-3.5,88.29,88.29,0,0,0,26.18-12,58.747,58.747,0,0,0,10.82-9.539,45,45,0,0,0,7.742-12.267,40.477,40.477,0,0,1-6.816,13.025A55.039,55.039,0,0,1,355.232,1618.914Z" transform="translate(-112.903 -1461.709)" fill="#eaeae9"/>
    <path id="Trazado_190702" data-name="Trazado 190702" d="M284.486,1845.229l-1.38-5.3q7.231-1.063,14.457-1.941,8.623-1.042,17.24-1.878c11.341-1.122,22.676-2.059,34.008-3.043.271.064.541.116.812.17l-.153.119-.02.016q-2.131,1.66-4.287,3.262t-4.345,3.142q-6.564,4.623-13.46,8.711-2.3,1.361-4.653,2.667-4.7,2.607-9.605,4.981c-3.047,1.474-6.13,2.81-9.23,4.071C293.436,1857.6,286.336,1852.322,284.486,1845.229Z" transform="translate(-96.462 -1564.71)" fill="#cdcdcb"/>
    <path id="Trazado_190703" data-name="Trazado 190703" d="M358.827,1669.645l.009-.007c-.268-.994-.945-3.6-3.2-12.276l-.019-.078c-.07-.267-.133-.533-.194-.8a22.2,22.2,0,0,0,2.346,1.906c6.25,4.48,15.921,7.1,27.289,7.353l23.742,21.148a96.285,96.285,0,0,1-11.662,1.093c-17.307.533-30.39-4.035-36.531-11.527l-.017-.064Z" transform="translate(-196.582 -1488.129)" fill="#cdcdcb"/>
    <path id="Trazado_190704" data-name="Trazado 190704" d="M353.325,1662.6c.2-.322.4-.645.586-.967l-3.262-12.516c-.188.313-.39.624-.591.935l-2.394-9.192a24.9,24.9,0,0,1-.932,2.374c-5.153,11.393-19.181,21.963-37.666,28.437l4.49,4a111.044,111.044,0,0,1-19.844,5.24l-4.065-3.621a97.757,97.757,0,0,1-11.1,1c-14.218.437-26.068-2.47-33.586-8.095l1.265,4.859c-.707-.45-1.395-.909-2.04-1.394l3.56,13.67,2.468,9.482,1.282,4.921,1.282,4.921.349,1.341-1.559.46-12.958-49.767h0v0c.044.166.1.328.147.493l.049.167c.03.1.073.19.1.287.061.185.133.366.2.549.052.14.1.279.152.416a17.34,17.34,0,0,0,2.7,4.539c6.141,7.492,19.224,12.06,36.531,11.527a96.284,96.284,0,0,0,11.662-1.093q.656-.1,1.31-.21.76-.126,1.5-.261.607-.111,1.212-.229c.372-.072.743-.144,1.113-.221.111-.022.221-.048.331-.071q.594-.125,1.184-.257c.495-.109,1-.225,1.506-.344q2.178-.517,4.322-1.12c.229-.065.458-.131.687-.2q.877-.253,1.745-.522c.23-.071.46-.14.689-.214.582-.184,1.159-.375,1.734-.568,18.091-6.076,33.18-16.683,38.5-28.454a22.424,22.424,0,0,0,1.668-5.277,16.762,16.762,0,0,0-.21-7.248h0l8.858,34.023q-1.1.616-2.2,1.229Z" transform="translate(-77.947 -1476.804)" fill="#273a73"/>
    <path id="Trazado_190705" data-name="Trazado 190705" d="M382.434,1712.739c-.632.032-1.264.065-1.893.083q-1.364.041-2.7.042c-.309,0-.61-.007-.916-.011-.574,0-1.149-.008-1.715-.025-.373-.01-.739-.029-1.108-.044-.488-.021-.976-.04-1.456-.068-.4-.023-.8-.054-1.2-.083-.433-.031-.865-.064-1.292-.1s-.84-.082-1.257-.126c-.387-.042-.773-.083-1.156-.131-.438-.053-.873-.112-1.3-.173q-.513-.073-1.02-.152-.685-.108-1.357-.227c-.293-.052-.583-.107-.872-.163-.478-.091-.953-.186-1.42-.287-.236-.052-.468-.106-.7-.159-.508-.117-1.014-.234-1.509-.361-.156-.04-.307-.084-.462-.125-.56-.149-1.117-.3-1.661-.464l-.051-.016a41.9,41.9,0,0,1-10.374-4.609h0l-1.265-4.859c7.517,5.625,19.367,8.532,33.586,8.095a97.729,97.729,0,0,0,11.1-1l4.065,3.621c-.485.08-.968.175-1.453.249l3.375,12.968q-4.958,1.862-9.961,3.588l-.607-2.33Z" transform="translate(-178.736 -1507.296)" fill="#1f2e5a"/>
    <path id="Trazado_190706" data-name="Trazado 190706" d="M247.842,1690.305h0q-2.674,1.5-5.354,2.987a42.217,42.217,0,0,0,4.566-6.013Z" transform="translate(28.324 -1501.484)" fill="#5b689e"/>
    <path id="Trazado_190707" data-name="Trazado 190707" d="M282.946,1667.026c-1.521,1.389-3.178,2.755-4.944,4.079a82.154,82.154,0,0,1-8.969,5.809c-1.293.728-2.618,1.443-3.994,2.123-.424.216-.861.415-1.292.621-3.1,1.5-6.324,2.838-9.61,4.042l-4.49-4c18.485-6.474,32.513-17.044,37.666-28.437a24.916,24.916,0,0,0,.932-2.374l2.394,9.192A46.69,46.69,0,0,1,282.946,1667.026Z" transform="translate(-18.529 -1484.835)" fill="#5b689e"/>
    <path id="Trazado_190708" data-name="Trazado 190708" d="M425.371,1734.873l-1.282-4.921-2.468-9.482-3.56-13.67c.645.485,1.333.945,2.04,1.395l8.457,32.477-1.557.464-.349-1.34Z" transform="translate(-251.821 -1509.949)" fill="#fff"/>
    <path id="Trazado_190709" data-name="Trazado 190709" d="M262.688,1690.023c3.286-1.2,6.505-2.542,9.61-4.042.43-.207.868-.406,1.292-.621,1.376-.68,2.7-1.395,3.994-2.123a82.047,82.047,0,0,0,8.969-5.809c1.766-1.323,3.423-2.689,4.944-4.078a46.7,46.7,0,0,0,7.694-8.944c.2-.311.4-.622.591-.935l3.263,12.516c-.187.323-.386.646-.586.967a42.237,42.237,0,0,1-4.566,6.013q-2.691,1.5-5.389,2.983-5.4,2.969-10.839,5.864-2.723,1.443-5.463,2.857c-7.421,3.828-14.909,7.208-22.467,10.291l-10.888-9.7A111.087,111.087,0,0,0,262.688,1690.023Z" transform="translate(-27.079 -1491.158)" fill="#fff"/>
    <path id="Trazado_190710" data-name="Trazado 190710" d="M363.341,1709.262a41.9,41.9,0,0,0,10.374,4.609l.051.016c.544.163,1.1.315,1.661.464.154.041.306.084.462.125.5.127,1,.245,1.509.361.233.053.465.107.7.159.467.1.942.2,1.42.287.289.055.579.111.872.162q.672.12,1.357.227.507.079,1.021.151.646.092,1.3.173c.383.048.768.09,1.156.131.417.045.834.088,1.257.126s.859.071,1.292.1c.4.029.794.06,1.2.083.48.028.968.048,1.456.068.369.015.736.033,1.108.044.566.017,1.141.02,1.715.025.306,0,.608.011.916.011q1.335,0,2.7-.043c.629-.017,1.261-.051,1.893-.083l3.421,13.136.607,2.33c-5.09,1.764-10.217,3.438-15.381,5.061s-10.366,3.193-15.608,4.751l-8.457-32.477Z" transform="translate(-195.061 -1511.017)" fill="#dcdcda"/>
    <path id="Trazado_190711" data-name="Trazado 190711" d="M331.37,1719.61l10.888,9.7q-2.233.911-4.474,1.793t-4.492,1.726l-3.375-12.969C330.4,1719.785,330.885,1719.69,331.37,1719.61Z" transform="translate(-115.604 -1515.505)" fill="#dcdcda"/>
    <path id="Trazado_190712" data-name="Trazado 190712" d="M327.792,1588.567c-14.453.511-25.37-3.275-30.494-9.523a14.033,14.033,0,0,1-2.787-5.3l-.323-1.218-.792-2.984-2.406-9.073.052.151a13.191,13.191,0,0,0,.457,1.347c.049.123.1.246.15.369a14.082,14.082,0,0,0,.715,1.434l.1.164a14.751,14.751,0,0,0,.825,1.229c.083.112.165.223.251.332a16.576,16.576,0,0,0,1.105,1.282l.135.131c.369.376.765.738,1.179,1.093.114.1.228.2.345.29.468.382.954.756,1.474,1.111l.151.1c.484.325.995.637,1.522.938.143.082.287.164.434.244.584.32,1.187.63,1.82.92l.148.064c.6.27,1.219.522,1.857.765.172.065.344.13.518.193.694.251,1.4.491,2.143.709l.134.036c.7.206,1.434.392,2.178.567.2.047.4.092.6.137.8.176,1.6.341,2.443.48l.105.015c.809.134,1.642.245,2.488.346.221.026.444.052.668.075.89.095,1.792.176,2.722.232l.062,0c.909.053,1.843.082,2.789.1l.733.009c.977.005,1.965,0,2.977-.037,24.353-.86,49.459-13.56,56.076-28.368q.313-.7.562-1.386l.035-.107c.044-.121.076-.24.116-.361.1-.3.206-.6.288-.9.052-.185.087-.365.131-.548.065-.264.137-.531.188-.792.037-.188.057-.373.087-.559.04-.253.087-.507.114-.757.02-.19.025-.375.038-.563.018-.242.041-.485.046-.724,0-.193-.008-.381-.012-.571,0-.229,0-.46-.019-.687-.013-.192-.042-.379-.063-.568-.025-.221-.044-.442-.079-.66-.031-.187-.076-.37-.114-.555-.045-.214-.084-.43-.138-.641l-.013-.061,3.52,13.277a13.575,13.575,0,0,1,.391,4.5,17.684,17.684,0,0,1-1.557,5.934C377.251,1575.008,352.145,1587.709,327.792,1588.567Z" transform="translate(-136.768 -1436.087)" fill="#273a73"/>
    <path id="Trazado_190713" data-name="Trazado 190713" d="M388.962,1526.36c.035.218.054.439.079.66.021.189.05.376.063.568.016.226.014.458.019.687,0,.19.016.378.012.571-.005.239-.028.482-.046.724-.013.188-.018.373-.038.563-.028.25-.074.5-.114.757-.029.186-.05.371-.087.559-.052.261-.123.528-.188.792-.045.183-.08.363-.131.548-.083.3-.187.6-.288.9-.04.12-.073.24-.117.361l-.035.107q-.25.686-.562,1.386c-6.617,14.807-31.723,27.508-56.076,28.368-1.012.034-2,.042-2.977.037l-.733-.009c-.946-.015-1.88-.043-2.789-.1l-.062,0c-.929-.056-1.832-.137-2.722-.232-.224-.023-.446-.049-.668-.075-.846-.1-1.68-.211-2.488-.346l-.105-.015c-.838-.14-1.647-.3-2.443-.48-.2-.045-.4-.09-.6-.137-.744-.175-1.474-.361-2.178-.567l-.134-.036c-.74-.218-1.449-.459-2.143-.709-.174-.063-.347-.128-.518-.193-.638-.242-1.261-.495-1.857-.765l-.148-.064c-.633-.29-1.236-.6-1.82-.92-.147-.08-.291-.162-.434-.244-.527-.3-1.038-.613-1.522-.938l-.151-.1c-.519-.355-1.006-.728-1.474-1.111-.117-.1-.231-.193-.345-.29-.414-.355-.81-.718-1.179-1.093l-.135-.131a16.63,16.63,0,0,1-1.105-1.282c-.086-.11-.168-.221-.251-.332a14.753,14.753,0,0,1-.825-1.229l-.1-.164a14.082,14.082,0,0,1-.715-1.434c-.052-.123-.1-.245-.15-.369a13.181,13.181,0,0,1-.457-1.347l-.052-.151,2.406,9.073a8.479,8.479,0,0,1-3.124-4.685,7.334,7.334,0,0,1,.526-5.289,13.718,13.718,0,0,1-.2-3.542,17.665,17.665,0,0,1,1.561-5.994c2.462-5.508,7.485-10.725,14.075-15.149q1.689-1.133,3.509-2.2c1.574-.918,3.222-1.789,4.923-2.615s3.479-1.614,5.3-2.341a85.427,85.427,0,0,1,28.274-6.065c18.224-.643,30.86,5.529,33.294,14.881.054.211.093.427.138.641C388.886,1525.989,388.932,1526.172,388.962,1526.36Zm-5.195-4.452c-4.592-6.814-15.574-10.591-29.381-10.1-22.527.794-45.862,12.646-52.016,26.421a17.832,17.832,0,0,0-1.346,4.368,13.071,13.071,0,0,0,2.076,9.689c4.592,6.813,15.575,10.591,29.381,10.1,22.527-.795,45.862-12.646,52.017-26.42C386.78,1530.862,386.527,1526,383.768,1521.907Z" transform="translate(-143.95 -1424.702)" fill="#384e8a"/>
    <path id="Trazado_190714" data-name="Trazado 190714" d="M386.121,1537.652c-5.951,13.318-28.714,24.785-50.742,25.562-13.3.469-23.818-3.069-28.127-9.465-2.463-3.656-2.674-8.031-.61-12.655,5.952-13.319,28.715-24.786,50.743-25.562,13.3-.469,23.818,3.068,28.128,9.465a11.689,11.689,0,0,1,1.839,8.665A16.3,16.3,0,0,1,386.121,1537.652Z" transform="translate(-146.897 -1426.981)" fill="#384e8a"/>
    <path id="Trazado_190715" data-name="Trazado 190715" d="M334.311,1563.553c-13.806.487-24.79-3.291-29.381-10.1a13.071,13.071,0,0,1-2.076-9.689,17.838,17.838,0,0,1,1.346-4.369c6.154-13.774,29.49-25.626,52.016-26.421,13.807-.487,24.789,3.29,29.381,10.1,2.759,4.094,3.012,8.954.731,14.059C380.173,1550.907,356.838,1562.758,334.311,1563.553Zm50.083-39.667c-4.31-6.4-14.824-9.934-28.128-9.465-22.028.776-44.79,12.244-50.743,25.562-2.064,4.624-1.853,9,.61,12.655,4.309,6.4,14.824,9.934,28.127,9.465,22.028-.777,44.791-12.244,50.742-25.562a16.308,16.308,0,0,0,1.231-3.99A11.689,11.689,0,0,0,384.394,1523.886Z" transform="translate(-145.779 -1425.87)" fill="#8188b6"/>
    <path id="Trazado_190716" data-name="Trazado 190716" d="M239.613,1828.115c-23.252.561-44.645-3.905-68.227-4.661-25.757-.824-42.252-3.117-48.689-6.291-1.45-.716-2.976-1.423-4.551-2.124-4.678-2.086-9.872-4.119-15.37-6.12q-1.374-.5-2.773-1c-2.8-.995-5.66-1.982-8.565-2.964q-2.905-.983-5.855-1.959c-5.893-1.954-11.878-3.895-17.743-5.841q-2.931-.974-5.815-1.95c-6.72-2.278-13.179-4.573-19.04-6.918-4.186-1.675-8.067-3.374-11.52-5.108l.223-.085.136-.053.134-.056c.119-.049.237-.1.354-.15l.09-.039.05-.024.121-.056.227-.106.116-.057c.14-.069.278-.141.412-.214l.028-.014a9.413,9.413,0,0,0,1.266-.821l.009-.007a3.572,3.572,0,0,0,1.633-2.687,2.42,2.42,0,0,0-.039-.438v-.009h0a3.9,3.9,0,0,0-1.112-1.925,14,14,0,0,0-3.986-2.681A99.313,99.313,0,0,0,17.219,1768q-4.345-1.361-8.544-2.319-2.1-.475-4.17-.839T.4,1764.229h0c-1.636-6.916,1.992-11.737,7.348-14.681.429-.236.87-.455,1.318-.667a32.631,32.631,0,0,1,14.266-2.886c.733.021,1.477.077,2.218.119.618.036,1.233.063,1.856.114q1.29.1,2.591.255c.862.1,1.728.211,2.595.331-.335-.046-.667-.08-1-.123-.676-.086-1.353-.175-2.026-.247h0a118.057,118.057,0,0,1,17.24,4.931q2.794,1.064,5.507,2.327a45.542,45.542,0,0,1,10.84,6.681q.377.332.733.687a10.239,10.239,0,0,1,3.18,6.066,10.663,10.663,0,0,1-.123,3.029,15.291,15.291,0,0,1-.5,1.976c-.1.325-.217.649-.337.968-.241.641-.511,1.271-.795,1.888a16.9,16.9,0,0,0,3.971-2.923l.024.107.041.179a5.785,5.785,0,0,0,1.677-1.239,5.417,5.417,0,0,0,1.052-1.643,4.939,4.939,0,0,0,.3-1.1c.383-.559.752-1.123,1.085-1.691.058-.1.142.091.24.5s.211,1.025.33,1.78c-.01.554-.013,1.1-.016,1.622-.006.9-.024,1.755-.1,2.645s-.221,1.817-.367,2.928a4.614,4.614,0,0,0,1.255-.93c.039.408.076.812.11,1.206s.065.78.093,1.151c.054.741.095,1.424.113,2.009h0c3.2-4.583,4.151-11.811,10.364-13.088,5.256-1.081,10.9.343,16.1,1.189,10.443,1.7,22.329,3.289,30.3,10.993a20.751,20.751,0,0,1,4.282,6.085,23.524,23.524,0,0,1,2.072,8.448q.908-1.155,1.695-2.38a27.879,27.879,0,0,0,1.44-2.521q.326-.647.617-1.314a25.573,25.573,0,0,0,1.41-4.16c.036-.146.244.1.546.587.066.107.136.224.211.353.2.342.421.754.662,1.219.23.446.472.933.719,1.45a39.061,39.061,0,0,1,2.277,5.659c.892-4.227.073-8.976,4.006-11.9a11.678,11.678,0,0,1,1.529-.956,17.741,17.741,0,0,1,2.507-1.061c.861-.3,1.738-.544,2.6-.774,2.792-.747,5.554-1.5,8.313-2.369.788-.25,1.571-.516,2.358-.768q8.431-2.711,16.8-5.61c6.361-2.2,12.7-4.457,19.04-6.719,6.377-2.276,12.753-4.557,19.146-6.789,6.287-2.194,12.617-4.261,18.863-6.569,6.187-2.286,12.318-4.717,18.42-7.221s12.175-5.076,18.249-7.643q8.61-3.638,17.262-7.182c12.283-2.774,24.5-6.035,36.8-8.87h0l-6.511.807q-2.68.333-5.361.664c-16.691,2.046-33.466,4.078-50.283,4.693-10.236.374-20.494.351-30.734.69-6.143.2-12.28.54-18.4,1.169-16.626,1.713-32.709,6.475-48.873,10.508-3.4.848-6.829,1.577-10.2,2.519a32.856,32.856,0,0,1-7.774,1.563,4.749,4.749,0,0,1-3.639-1.435,8.995,8.995,0,0,1-.93-1.075c-.433-.58-.832-1.182-1.21-1.8-1.134-1.851-2.076-3.832-3.143-5.712-.294-.52-.6-1.039-.916-1.546.014.223.021.461.024.713a38.177,38.177,0,0,1-.28,4.369c-.035.308-.071.615-.109.917-.077.6-.16,1.194-.244,1.742s-.17,1.059-.252,1.508-.161.837-.23,1.139c-.105.456-.191.721-.241.724-.583.019-1.2.068-1.841.144a43.169,43.169,0,0,0-5.217.995c-2.2.544-4.5,1.234-6.718,1.963-1.108.365-2.2.739-3.24,1.108s-2.047.736-2.986,1.085c-.626.232-1.223.457-1.784.67-3.089,1.171-5.117,1.988-5,1.786a19.292,19.292,0,0,0,2.134-5.852q.116-.611.193-1.23a19.575,19.575,0,0,0,.148-2.5,56.883,56.883,0,0,1-15.653,12.909q-1.279.7-2.6,1.337-.776.37-1.562.712c-.394.172-.792.334-1.19.5-.13.052-.258.109-.388.161q-1.587.632-3.208,1.167a33.682,33.682,0,0,1-3.92-.406c-.2-.033-.4-.068-.6-.1-.318-.059-.634-.123-.945-.193-.481-.108-.956-.227-1.42-.362-.169-.05-.332-.108-.5-.161q-.6-.19-1.184-.414-.24-.092-.478-.191c-.511-.213-1.013-.438-1.494-.693l0,0q-.435-.229-.852-.483a15.078,15.078,0,0,1-5.057-4.994,17.225,17.225,0,0,1-1.4-2.815q-.3-.767-.548-1.6c-.125-.421-.229-.867-.334-1.313-.177-.751-.333-1.526-.447-2.354l-.015-.146c-.029-.232-.054-.464-.073-.694q-.049-.595-.051-1.178a14.366,14.366,0,0,1,.391-3.39,15.189,15.189,0,0,1,.793-2.413q.249-.588.546-1.162t.642-1.133a21.8,21.8,0,0,1,2.453-3.222h0a28.717,28.717,0,0,1,2.055-2.028q.551-.493,1.137-.973t1.2-.947a48.954,48.954,0,0,1,4.254-2.86q.917-.553,1.873-1.084h0a115.061,115.061,0,0,1,19.325-8.115q.829-.273,1.654-.54c3.058-.984,6.054-1.873,8.876-2.678q1.412-.4,2.76-.777c3.716-1.035,7.026-1.919,9.617-2.68l1.811-.531,1.809-.532,1.4-.412.412-.122q1.777-.522,3.545-1.045l.63-.186,1.559-.46,1.557-.464c5.242-1.557,10.444-3.128,15.608-4.751s10.291-3.3,15.381-5.06q5-1.732,9.961-3.588,2.251-.846,4.492-1.725t4.474-1.793c7.558-3.083,15.046-6.463,22.467-10.291q2.74-1.413,5.463-2.857,5.446-2.886,10.839-5.864,2.7-1.487,5.389-2.983t5.354-2.987q1.1-.614,2.2-1.229c30.481-17.058,60.752-34.124,95.653-41.12,4.888-.98,10.289-1.79,16.088-2.438,7.243-.808,15.109-1.364,23.388-1.672v4.063c-14.737.566-28.158,1.91-39.045,4.093-42.813,8.582-78.661,32.316-116.473,52.6q4.925-2.006,9.809-4.108c15.531-6.7,30.774-14.051,46.342-20.663a480.052,480.052,0,0,1,46.792-17.22c16.369-5.02,33.071-8.827,49.85-12.2.907-.183,1.818-.352,2.726-.531v106.522c-1.14.34-2.234.673-3.257.994-15.162,4.762-28.382,14.656-41.263,27.6-10.942,11-21.639,24.192-33.074,38.333C289.363,1810.173,272.845,1843.559,239.613,1828.115ZM60.384,1787.44l-1.06.6a1.306,1.306,0,0,0-.447.363,1.267,1.267,0,0,0-.142.56c-.023.278-.061.62-.089,1.221a1.625,1.625,0,0,0,1.36.3,1.654,1.654,0,0,0,1-.727,1.761,1.761,0,0,0,.263-.9A1.588,1.588,0,0,0,60.384,1787.44Zm72.518,17.2a9.164,9.164,0,0,0-1.569,1.131,7.614,7.614,0,0,0-.589.6,6.759,6.759,0,0,0-.513.669,5.831,5.831,0,0,0-.432.763,5.4,5.4,0,0,0-.323.869c-.039.155-.074.314-.1.477a3.619,3.619,0,0,0-.029,1.03,3.188,3.188,0,0,0,.12.554,7.216,7.216,0,0,0,.937-.481,7.427,7.427,0,0,0,.747-.525,5.836,5.836,0,0,0,1.177-1.3,5.084,5.084,0,0,0,.737-1.717,4.231,4.231,0,0,0,.085-1.009A2.955,2.955,0,0,0,132.9,1804.638Zm131.762,10.822c-1.87.988-3.651,1.919-5.463,2.789s-3.642,1.664-5.485,2.462l-5.571,2.406c-.933.413-1.869.833-2.8,1.286s-1.854.939-2.764,1.481h0a31.254,31.254,0,0,0,6.19-.9,36.406,36.406,0,0,0,5.939-1.956,28.712,28.712,0,0,0,5.494-3.094A17.823,17.823,0,0,0,264.664,1815.46ZM89.019,1723.984a14.238,14.238,0,0,0-4.668,2.321,8.774,8.774,0,0,0-2.811,3.865,13.166,13.166,0,0,0-.768,4.239,27.7,27.7,0,0,0,.476,5.64c1.526,8.694,5.664,11.958,11.625,12l-.054.01c.3,0,.6-.006.908-.018.108,0,.215-.008.323-.013.268-.015.54-.038.815-.065.189-.019.379-.042.571-.065.237-.029.474-.058.716-.1.436-.069.878-.145,1.329-.236a16.925,16.925,0,0,0,3.021-.922q.718-.3,1.4-.65a16.427,16.427,0,0,0,2.53-1.637q.586-.461,1.122-.969a14.671,14.671,0,0,0,4.7-10.212,13.476,13.476,0,0,0-.244-2.918c-.031-.16-.081-.313-.118-.471-.072-.315-.141-.632-.234-.936-.033-.107-.076-.21-.116-.315-.054-.144-.1-.289-.159-.431-.036-.1-.074-.2-.109-.3s-.068-.2-.109-.293c-.061-.142-.134-.276-.2-.413s-.133-.276-.2-.412-.137-.291-.215-.431c-.063-.112-.136-.217-.2-.324-.108-.173-.214-.349-.326-.519-.072-.107-.135-.222-.211-.329-.206-.291-.429-.567-.657-.841l-.194-.244c-.249-.287-.515-.558-.788-.823L106,1727c-.292-.276-.6-.536-.917-.789l-.127-.106c-.337-.262-.687-.506-1.047-.74l-.082-.055c-.377-.241-.768-.464-1.169-.671l-.024-.013-.012-.006c-.414-.214-.839-.407-1.274-.582h0a15.581,15.581,0,0,0-2.739-.819,16.342,16.342,0,0,0-2.92-.319h-.015q-.724-.014-1.459.04l-.074,0c-.467.035-.938.092-1.41.168l-.091.011h.015c-.221.037-.441.059-.663.1A30.492,30.492,0,0,0,89.019,1723.984Zm26.852,12.007c.012-.434.012-.869,0-1.3a19.651,19.651,0,0,0-.257-2.609q-.109-.649-.266-1.291a17.657,17.657,0,0,0-.8-2.513,17.891,17.891,0,0,0-1.163-2.365,16.123,16.123,0,0,0-1.5-2.15,13.229,13.229,0,0,0-1.861-1.847c.081.273.17.524.254.79.438,1.383.9,2.707,1.32,4.013.251.778.483,1.553.7,2.33s.416,1.552.6,2.334c.231.979.445,1.969.65,2.967.123.6.246,1.193.362,1.8q.116.606.233,1.221.138.725.294,1.46c.159.755.334,1.516.548,2.289.144-.416.268-.836.374-1.258A18.022,18.022,0,0,0,115.87,1735.991Zm21.484-19.593a4.21,4.21,0,0,0-.763-.41c.277,1.123.493,2.071.7,3.04l.642,2.851c.221.951.464,1.9.746,2.874.191.628.39,1.259.631,1.911.054.145.109.293.169.441.087.216.175.432.275.655a7.619,7.619,0,0,0,.895-3.2c.019-.273.028-.548.027-.82l0-.037a10.839,10.839,0,0,0-.111-1.42c-.047-.329-.1-.656-.181-.981a10.694,10.694,0,0,0-.375-1.211q-.144-.389-.32-.765a9.173,9.173,0,0,0-.584-1.079c-.155-.232-.321-.462-.5-.682A5.817,5.817,0,0,0,137.355,1716.4Zm5.093-2.052a7.516,7.516,0,0,0-1.629-1.51c.442,1.482.8,2.825,1.079,4.2.173.809.328,1.622.48,2.44.1.56.207,1.121.315,1.688.263,1.392.551,2.809.949,4.229.206.707.432,1.419.71,2.118.139.35.292.7.462,1.037a10.762,10.762,0,0,0,.567,1,31.891,31.891,0,0,0,.217-4.421v-.029c-.015-.7-.053-1.411-.117-2.118-.07-.762-.17-1.525-.317-2.288-.091-.471-.2-.941-.33-1.411a15.484,15.484,0,0,0-1.08-2.912h0l-.135-.237A10.969,10.969,0,0,0,142.447,1714.346Z" transform="translate(30.278 -1468.222)" fill="#f7a67c"/>
    <path id="Trazado_190717" data-name="Trazado 190717" d="M576.336,1862.087l.148.068.238.118C576.594,1862.211,576.46,1862.145,576.336,1862.087Z" transform="translate(-489.619 -1577.296)" fill="#f7a67c"/>
    <path id="Trazado_190718" data-name="Trazado 190718" d="M581.065,1860.4c-.224-.089-.431-.167-.608-.228C580.634,1860.228,580.841,1860.306,581.065,1860.4Z" transform="translate(-496.295 -1576.463)" fill="#f7a67c"/>
    <path id="Trazado_190719" data-name="Trazado 190719" d="M579.654,1860.957c-.189-.082-.365-.156-.534-.224C579.29,1860.8,579.465,1860.875,579.654,1860.957Z" transform="translate(-494.128 -1576.709)" fill="#f7a67c"/>
    <path id="Trazado_190720" data-name="Trazado 190720" d="M569.99,1865.368l.338.186Z" transform="translate(-479.63 -1578.719)" fill="#f7a67c"/>
    <path id="Trazado_190721" data-name="Trazado 190721" d="M578.145,1861.633c-.213-.1-.42-.194-.617-.281Q577.824,1861.484,578.145,1861.633Z" transform="translate(-491.716 -1576.977)" fill="#f7a67c"/>
    <path id="Trazado_190722" data-name="Trazado 190722" d="M574.141,1863.543c-.117-.061-.231-.117-.347-.175l.219.107Z" transform="translate(-485.599 -1577.851)" fill="#f7a67c"/>
    <path id="Trazado_190723" data-name="Trazado 190723" d="M612.075,1852.814c-2.974-.673-5.979-1.231-8.967-1.647C606.1,1851.585,609.1,1852.137,612.075,1852.814Z" transform="translate(-540.132 -1572.56)" fill="#f7a67c"/>
    <path id="Trazado_190724" data-name="Trazado 190724" d="M283.26,1833.368l-.153.119Z" transform="translate(-30.098 -1564.841)" fill="#f7a67c"/>
    <path id="Trazado_190725" data-name="Trazado 190725" d="M90.564,1828.847c2.988.416,5.993.974,8.967,1.647l.272.059c.712.163,1.417.338,2.125.515q.744.183,1.485.376c.575.152,1.146.305,1.716.464.674.187,1.343.382,2.011.581.431.127.865.252,1.293.385q1.654.51,3.272,1.056l.036.012.007,0c.177.06.385.139.608.228l.223.092c.168.068.344.143.533.224l.285.126c.2.088.4.182.617.281l.288.135c.124.058.258.125.387.186q.524.252,1.092.54c.116.058.229.114.347.175q.876.448,1.817.958l.338.186c.656.361,1.322.733,1.993,1.126q.611.357,1.219.728.449.274.894.554l.537.342q.419.269.827.542.281.188.557.377c.348.239.691.478,1.021.718.35.254.685.507,1.008.76s.638.509.933.76.56.487.81.725c.3.29.581.575.823.853a6.293,6.293,0,0,1,.848,1.2q.692-.219,1.449-.4c4.476-1.066,10.571-1.122,17.205-.544l.5.045c4.658.427,9.565,1.162,14.36,2.078.48.092.961.184,1.438.279q1.882.376,3.72.785c10.089,2.234,19.017,5.1,23.051,7.341.517.287,1.383.674,2.361,1.133l.5.236a18.961,18.961,0,0,1,4.218,2.529c1.931-.811,4.155-1.477,6.367-2.347,3.245-1.278,6.52-2.478,9.809-3.659q2.466-.885,4.94-1.763c4.14-1.475,8.285-2.975,12.407-4.582l.433-.169c.828-.324,1.656-.647,2.482-.984,3.1-1.26,6.183-2.6,9.23-4.071q4.91-2.373,9.605-4.981,2.35-1.306,4.653-2.667,6.914-4.089,13.46-8.711,2.188-1.541,4.345-3.142t4.287-3.262l.02-.015.153-.119a35.2,35.2,0,0,0,5.164.612,49.139,49.139,0,0,0,6.147-.066,45.779,45.779,0,0,0,6.1-.855,28.883,28.883,0,0,0,5.928-1.838,56.117,56.117,0,0,0-6.156-.114c-2.026.053-4.042.141-6.054.3s-4.023.356-6.04.621a45.939,45.939,0,0,0-6.062,1.139l.164.034c-11.332.984-22.667,1.921-34.008,3.043q-8.618.853-17.24,1.879-7.227.871-14.457,1.941c-.54.079-1.079.152-1.618.232-1.684.253-3.367.527-5.05.8l-.634.1q-4.987.813-9.974,1.745c-.843.158-1.685.3-2.529.465l-.249.045c-.494.1-1.028.215-1.592.348l-.153.037q-.805.193-1.7.426l-.144.038q-.927.244-1.936.523l-.258.072q-.9.249-1.859.521c-1.032.292-2.125.6-3.244.917-.614.175-1.232.348-1.868.525-.317.088-.646.176-.967.265-.6.164-1.2.329-1.813.493-.371.1-.751.2-1.128.3-.573.15-1.146.3-1.73.447-.36.092-.725.178-1.088.267q-1.072.264-2.161.515-.592.136-1.188.267-1.082.24-2.175.458c-.376.076-.751.155-1.129.227-1.152.221-2.307.427-3.459.6l-.018,0c-.831.127-1.659.234-2.485.333-.211.025-.421.052-.631.075-.87.1-1.737.181-2.6.241l-.057,0c-.852.059-1.694.091-2.529.11-.273.006-.541,0-.812,0q-.848,0-1.681-.025c-.16-.006-.325,0-.484-.007l.04-.014q1.619-.539,3.208-1.167c.13-.052.258-.109.388-.161.4-.162.8-.324,1.19-.5q.786-.343,1.562-.712,1.323-.632,2.6-1.337a56.89,56.89,0,0,0,15.653-12.909,19.578,19.578,0,0,1-.148,2.5q-.076.619-.193,1.23a19.3,19.3,0,0,1-2.134,5.852h0c-.113.2,1.915-.617,5-1.788.561-.213,1.158-.438,1.784-.67.938-.349,1.94-.714,2.986-1.085s2.132-.744,3.24-1.108c2.215-.728,4.514-1.418,6.718-1.963a43.214,43.214,0,0,1,5.217-.994c.642-.076,1.258-.125,1.841-.144.05,0,.135-.268.241-.724.07-.3.148-.69.231-1.14s.168-.958.252-1.509.167-1.138.244-1.742c.039-.3.075-.609.109-.917a38.168,38.168,0,0,0,.28-4.369c0-.252-.01-.491-.024-.713.321.507.622,1.026.916,1.546,1.067,1.881,2.009,3.861,3.143,5.712.378.616.778,1.219,1.21,1.8a9,9,0,0,0,.93,1.075,4.752,4.752,0,0,0,3.639,1.435,32.741,32.741,0,0,0,7.774-1.563c3.372-.942,6.8-1.671,10.2-2.519,16.164-4.033,32.246-8.795,48.873-10.508,6.122-.63,12.259-.965,18.4-1.169,10.24-.339,20.5-.316,30.734-.689,16.817-.616,33.592-2.647,50.283-4.694q2.681-.329,5.361-.664,3.255-.4,6.511-.806h0c-12.3,2.835-24.515,6.1-36.8,8.87q-8.66,3.523-17.262,7.181c-6.074,2.567-12.147,5.141-18.249,7.644s-12.233,4.935-18.42,7.22c-6.246,2.308-12.577,4.375-18.863,6.569-6.394,2.232-12.769,4.513-19.146,6.789-6.339,2.261-12.68,4.518-19.04,6.719q-8.37,2.895-16.8,5.61c-.787.253-1.57.518-2.358.768-2.759.874-5.522,1.622-8.313,2.369-.863.23-1.74.478-2.6.774a17.8,17.8,0,0,0-2.507,1.061,11.68,11.68,0,0,0-1.529.957c-3.932,2.926-3.114,7.675-4.006,11.9a39.072,39.072,0,0,0-2.277-5.659c-.247-.517-.489-1-.719-1.45-.241-.466-.464-.878-.662-1.219-.075-.128-.145-.246-.211-.353-.3-.487-.51-.734-.546-.587a25.593,25.593,0,0,1-1.41,4.16q-.291.666-.617,1.314a27.887,27.887,0,0,1-1.44,2.521q-.786,1.225-1.695,2.38a23.528,23.528,0,0,0-2.072-8.448,20.337,20.337,0,0,0-1.238-2.289,20.873,20.873,0,0,0-3.044-3.8c-7.971-7.7-19.857-9.294-30.3-10.993-5.193-.846-10.841-2.271-16.1-1.189-6.212,1.277-7.162,8.5-10.364,13.088-.019-.584-.06-1.268-.114-2.009-.028-.372-.059-.757-.093-1.151s-.071-.8-.11-1.206a6.674,6.674,0,0,0,1.729-4.628,9.836,9.836,0,0,0-.51-3.094,10.093,10.093,0,0,0-1.424-2.8,11.277,11.277,0,0,0-.531,3.063c-.022.406-.029.8-.036,1.19-.119-.755-.232-1.375-.33-1.781s-.181-.6-.24-.5c-.334.568-.7,1.132-1.085,1.69a4.253,4.253,0,0,0,.045-.972,2.681,2.681,0,0,0-1.013-2.007c-.357.725-.648,1.188-.93,1.667a12.124,12.124,0,0,0-.732,1.463,7.9,7.9,0,0,0-.5,1.72,4.91,4.91,0,0,0,.033,1.826,16.9,16.9,0,0,1-3.971,2.923c.284-.617.554-1.247.795-1.888.12-.32.233-.644.337-.968a15.3,15.3,0,0,0,.5-1.976,10.663,10.663,0,0,0,.123-3.029,10.239,10.239,0,0,0-3.18-6.066q-.355-.355-.733-.687a45.526,45.526,0,0,0-10.84-6.681q-2.711-1.269-5.507-2.327a118.086,118.086,0,0,0-17.24-4.931h0c.673.072,1.35.161,2.025.247.334.043.666.077,1,.123h.012ZM337,1812.126c.415-.07.829-.142,1.244-.214C337.824,1811.985,337.41,1812.057,337,1812.126Zm5.882-1.058.27-.051Zm5.251-1.054q.55-.115,1.1-.231Q348.679,1809.9,348.128,1810.014Zm5.838-1.262.16-.036Zm-148.855,59a11.085,11.085,0,0,0-.121-2.432,9.9,9.9,0,0,0-.614-2.2,7.53,7.53,0,0,0-1.246-2.06,4.414,4.414,0,0,0-2.142-1.427,20.29,20.29,0,0,0,.4,2.356,14.126,14.126,0,0,0,.66,2.09,9.247,9.247,0,0,0,1.125,2.028A5.119,5.119,0,0,0,205.112,1867.752Zm-8.539-3.669a14.5,14.5,0,0,0,.267,1.85,12.966,12.966,0,0,0,.621,2.078,3.969,3.969,0,0,0,1.345-1.91,5.545,5.545,0,0,0,.277-2.2,5.8,5.8,0,0,0-.563-2.109,4.709,4.709,0,0,0-1.458-1.776,7.7,7.7,0,0,0-.483,2.162A11.822,11.822,0,0,0,196.572,1864.083Z" transform="translate(-27.589 -1550.24)" fill="#f4976e"/>
    <path id="Trazado_190726" data-name="Trazado 190726" d="M621,1883.343q4.2.95,8.544,2.319a99.293,99.293,0,0,1,13.906,5.76,14.006,14.006,0,0,1,3.986,2.681,3.9,3.9,0,0,1,1.112,1.925,11.907,11.907,0,0,0-9.246,3.168c-13.773-5.476-21.93-9.9-25.076-13.749a5.659,5.659,0,0,1-1.506-3.555h0q2.04.246,4.109.612T621,1883.343Z" transform="translate(-582.042 -1585.885)" fill="#fdcba7"/>
    <path id="Trazado_190727" data-name="Trazado 190727" d="M620.838,1915.166l-.223.085-.132.05c.165-.061.329-.124.491-.188Z" transform="translate(-558.873 -1600.293)" fill="#fdcba7"/>
    <path id="Trazado_190728" data-name="Trazado 190728" d="M614.239,1906.871a2.419,2.419,0,0,1,.038.438,3.572,3.572,0,0,1-1.633,2.687A3.322,3.322,0,0,0,614.239,1906.871Z" transform="translate(-547.736 -1596.718)" fill="#fdcba7"/>
    <path id="Trazado_190729" data-name="Trazado 190729" d="M615.544,1913.221a9.409,9.409,0,0,0,1.266-.821A9.409,9.409,0,0,1,615.544,1913.221Z" transform="translate(-551.91 -1599.116)" fill="#fdcba7"/>
    <path id="Trazado_190730" data-name="Trazado 190730" d="M621.893,1906.815h0v.01a3.321,3.321,0,0,1-1.594,3.125l-.009.007a9.463,9.463,0,0,1-1.266.821l-.028.014c-.135.073-.272.145-.412.214l-.116.057-.227.106-.121.056-.05.024-.09.04c-.117.052-.235.1-.354.149l-.134.055c-.162.064-.326.127-.491.188q-1.059-.4-2.078-.8l-.722-.283c-.453-.178-.9-.355-1.346-.53l-.211-.083h0A11.908,11.908,0,0,1,621.893,1906.815Z" transform="translate(-555.392 -1596.672)" fill="#fed8bd"/>
    <path id="Trazado_190731" data-name="Trazado 190731" d="M427.817,1906.2a4.707,4.707,0,0,1,1.458,1.776,5.792,5.792,0,0,1,.564,2.109,5.549,5.549,0,0,1-.277,2.2,3.968,3.968,0,0,1-1.345,1.909,12.953,12.953,0,0,1-.621-2.078,14.517,14.517,0,0,1-.267-1.85,11.819,11.819,0,0,1,.005-1.909A7.7,7.7,0,0,1,427.817,1906.2Z" transform="translate(-258.346 -1596.425)" fill="#ee7544"/>
    <path id="Trazado_190732" data-name="Trazado 190732" d="M417.038,1907.888a20.3,20.3,0,0,1-.4-2.356,4.41,4.41,0,0,1,2.142,1.427,7.523,7.523,0,0,1,1.246,2.06,9.9,9.9,0,0,1,.614,2.2,11.083,11.083,0,0,1,.121,2.432,5.121,5.121,0,0,1-1.937-1.643,9.244,9.244,0,0,1-1.125-2.028A14.111,14.111,0,0,1,417.038,1907.888Z" transform="translate(-243.236 -1596.137)" fill="#ee7544"/>
    <path id="Trazado_190733" data-name="Trazado 190733" d="M542.01,1888.617c0-.526.007-1.069.016-1.623.006-.391.014-.784.036-1.19a11.276,11.276,0,0,1,.531-3.063,10.088,10.088,0,0,1,1.424,2.8,9.839,9.839,0,0,1,.51,3.094,6.674,6.674,0,0,1-1.729,4.628,4.605,4.605,0,0,1-1.255.93c.146-1.111.3-2.03.367-2.928S542,1889.515,542.01,1888.617Z" transform="translate(-437.719 -1586.253)" fill="#ee7544"/>
    <path id="Trazado_190734" data-name="Trazado 190734" d="M548.851,1888.806a7.914,7.914,0,0,1,.5-1.72,12.143,12.143,0,0,1,.732-1.463c.282-.479.573-.943.93-1.668a2.682,2.682,0,0,1,1.013,2.007,4.259,4.259,0,0,1-.045.973,4.944,4.944,0,0,1-.3,1.1,5.42,5.42,0,0,1-1.052,1.643,5.785,5.785,0,0,1-1.677,1.239l-.041-.179-.024-.107A4.91,4.91,0,0,1,548.851,1888.806Z" transform="translate(-449.327 -1586.78)" fill="#ee7544"/>
    <path id="Trazado_190735" data-name="Trazado 190735" d="M570.855,1925.195a1.652,1.652,0,0,1-1,.727,1.625,1.625,0,0,1-1.36-.3c.028-.6.066-.943.089-1.221a1.267,1.267,0,0,1,.142-.56,1.306,1.306,0,0,1,.447-.364l1.06-.6a1.588,1.588,0,0,1,.88,1.418A1.762,1.762,0,0,1,570.855,1925.195Z" transform="translate(-479.576 -1603.66)" fill="#ee7544"/>
    <path id="Trazado_190736" data-name="Trazado 190736" d="M445.3,1955.322a5.083,5.083,0,0,1-.737,1.716,5.832,5.832,0,0,1-1.177,1.3,7.432,7.432,0,0,1-.747.525,7.16,7.16,0,0,1-.937.481,3.179,3.179,0,0,1-.12-.554,3.617,3.617,0,0,1,.029-1.03c.027-.164.061-.322.1-.477a5.4,5.4,0,0,1,.323-.869,5.846,5.846,0,0,1,.432-.763,6.764,6.764,0,0,1,.513-.669,7.611,7.611,0,0,1,.589-.6,9.18,9.18,0,0,1,1.569-1.132,2.955,2.955,0,0,1,.247,1.066A4.228,4.228,0,0,1,445.3,1955.322Z" transform="translate(-281.955 -1616.831)" fill="#ee7544"/>
    <path id="Trazado_190737" data-name="Trazado 190737" d="M226.955,1976.826a28.7,28.7,0,0,1-5.494,3.093,36.406,36.406,0,0,1-5.939,1.957,31.29,31.29,0,0,1-6.19.9h0c.91-.542,1.834-1.028,2.763-1.481s1.865-.873,2.8-1.286l5.571-2.406c1.843-.8,3.675-1.592,5.485-2.461s3.593-1.8,5.463-2.79A17.824,17.824,0,0,1,226.955,1976.826Z" transform="translate(63.529 -1625.118)" fill="#ee7544"/>
    <path id="Trazado_190738" data-name="Trazado 190738" d="M459.459,1857.189c-.318.088-.645.176-.967.265Z" transform="translate(-305.619 -1575.172)" fill="#f7a67c"/>
    <path id="Trazado_190739" data-name="Trazado 190739" d="M468.446,1860.105c.363-.09.728-.176,1.088-.267-.135.034-.266.07-.4.1C468.906,1860,468.673,1860.05,468.446,1860.105Z" transform="translate(-321.331 -1576.321)" fill="#f7a67c"/>
    <path id="Trazado_190740" data-name="Trazado 190740" d="M464.529,1858.527c-.372.1-.75.2-1.128.3C463.777,1858.724,464.158,1858.626,464.529,1858.527Z" transform="translate(-313.468 -1575.752)" fill="#f7a67c"/>
    <path id="Trazado_190741" data-name="Trazado 190741" d="M475.371,1861.22c-.4.091-.79.18-1.188.268Q474.778,1861.357,475.371,1861.22Z" transform="translate(-330.417 -1576.92)" fill="#f7a67c"/>
    <path id="Trazado_190742" data-name="Trazado 190742" d="M452.709,1854.643c-1.032.292-2.125.6-3.244.917C450.583,1855.245,451.676,1854.934,452.709,1854.643Z" transform="translate(-293.757 -1574.067)" fill="#f7a67c"/>
    <path id="Trazado_190743" data-name="Trazado 190743" d="M480.121,1862.727c.377-.072.753-.15,1.129-.227-.267.054-.531.117-.8.168C480.342,1862.691,480.231,1862.706,480.121,1862.727Z" transform="translate(-339.658 -1577.475)" fill="#f7a67c"/>
    <path id="Trazado_190744" data-name="Trazado 190744" d="M472.528,1860.31c-.716.176-1.434.348-2.161.515Q471.456,1860.575,472.528,1860.31Z" transform="translate(-325.413 -1576.525)" fill="#f7a67c"/>
    <path id="Trazado_190745" data-name="Trazado 190745" d="M478.456,1861.692q-1.083.24-2.175.458Q477.373,1861.93,478.456,1861.692Z" transform="translate(-334.69 -1577.125)" fill="#f7a67c"/>
    <path id="Trazado_190746" data-name="Trazado 190746" d="M467.121,1859.049c-.574.15-1.146.3-1.73.447C465.975,1859.349,466.549,1859.2,467.121,1859.049Z" transform="translate(-317.189 -1575.978)" fill="#f7a67c"/>
    <path id="Trazado_190747" data-name="Trazado 190747" d="M457.061,1856.262c-.615.174-1.231.347-1.868.525C455.829,1856.61,456.447,1856.436,457.061,1856.262Z" transform="translate(-301.353 -1574.769)" fill="#f7a67c"/>
    <path id="Trazado_190748" data-name="Trazado 190748" d="M462.013,1857.656c-.6.164-1.2.329-1.813.493C460.814,1857.985,461.414,1857.82,462.013,1857.656Z" transform="translate(-309.14 -1575.374)" fill="#f7a67c"/>
    <path id="Trazado_190749" data-name="Trazado 190749" d="M485.573,1862.9c-1.152.219-2.306.427-3.459.6C483.266,1863.328,484.421,1863.122,485.573,1862.9Z" transform="translate(-345.11 -1577.649)" fill="#f7a67c"/>
    <path id="Trazado_190750" data-name="Trazado 190750" d="M488.253,1864.306c.826-.1,1.654-.206,2.485-.334-.514.079-1.027.154-1.54.221C488.882,1864.236,488.568,1864.267,488.253,1864.306Z" transform="translate(-353.752 -1578.113)" fill="#f7a67c"/>
    <path id="Trazado_190751" data-name="Trazado 190751" d="M496.351,1864.693c-.87.1-1.737.18-2.6.241C494.615,1864.873,495.481,1864.79,496.351,1864.693Z" transform="translate(-362.482 -1578.426)" fill="#f7a67c"/>
    <path id="Trazado_190752" data-name="Trazado 190752" d="M493.272,1864.561c-.211.026-.421.052-.631.075C492.851,1864.612,493.062,1864.586,493.272,1864.561Z" transform="translate(-358.771 -1578.369)" fill="#f7a67c"/>
    <path id="Trazado_190753" data-name="Trazado 190753" d="M102.943,1632.463a480.114,480.114,0,0,0-46.792,17.22c-15.568,6.612-30.812,13.964-46.342,20.663q-4.881,2.106-9.809,4.108c37.813-20.287,73.66-44.021,116.473-52.6,10.887-2.183,24.308-3.526,39.045-4.093v1.974c-.908.179-1.819.348-2.726.531C136.014,1623.637,119.312,1627.443,102.943,1632.463Z" transform="translate(257.971 -1471.333)" fill="#fab895"/>
    <path id="Trazado_190754" data-name="Trazado 190754" d="M499.375,1809.314c6.943.168,12.955,4.715,14.246,11.349,1.514,7.825-4.094,15.572-12.523,17.312-.513.1-1.009.187-1.5.259-5.961-.041-10.1-3.3-11.625-12a27.7,27.7,0,0,1-.476-5.64,13.168,13.168,0,0,1,.768-4.239,8.774,8.774,0,0,1,2.811-3.865,14.243,14.243,0,0,1,4.668-2.321,30.179,30.179,0,0,1,2.967-.752C498.933,1809.373,499.154,1809.35,499.375,1809.314Z" transform="translate(-376.448 -1554.409)" fill="#fab895"/>
    <path id="Trazado_190755" data-name="Trazado 190755" d="M497.729,1808.919a16.33,16.33,0,0,1,2.92.319,15.591,15.591,0,0,1,2.739.819A15.984,15.984,0,0,0,497.729,1808.919Z" transform="translate(-371.768 -1554.237)" fill="#fab895"/>
    <path id="Trazado_190756" data-name="Trazado 190756" d="M483.729,1837.8c8.43-1.74,14.037-9.487,12.523-17.312-1.291-6.634-7.3-11.18-14.246-11.349h-.015l.09-.011c.472-.076.943-.133,1.41-.167l.074-.005q.734-.053,1.459-.04h.015a15.979,15.979,0,0,1,5.659,1.138h0c.436.176.86.368,1.274.582l.012.006.024.013c.4.208.792.431,1.169.671l.081.054c.36.233.711.478,1.047.739l.127.107c.316.252.625.513.917.79l.165.168c.272.265.539.537.788.823l.194.244c.228.274.451.55.657.841.075.107.139.222.211.33.113.17.218.346.326.519.067.109.141.213.2.324.078.14.142.289.215.432s.134.275.2.412.142.271.2.413c.041.1.074.2.109.293s.073.2.109.3c.054.143.105.288.159.431.039.1.082.207.115.315.093.3.162.621.234.936.037.157.087.31.118.471a13.475,13.475,0,0,1,.244,2.918,14.67,14.67,0,0,1-4.7,10.212q-.535.507-1.122.969a16.409,16.409,0,0,1-2.53,1.637q-.677.354-1.4.65a16.906,16.906,0,0,1-3.021.922c-.451.091-.894.167-1.329.236-.242.037-.479.066-.716.1-.191.023-.382.046-.571.065-.275.027-.547.051-.815.065-.108.006-.215.01-.323.014-.306.012-.611.021-.908.017l.054-.01C482.72,1837.989,483.217,1837.9,483.729,1837.8Z" transform="translate(-359.08 -1554.235)" fill="#fbc6a9"/>
    <path id="Trazado_190757" data-name="Trazado 190757" d="M242.065,1831.441l-.164-.034a45.94,45.94,0,0,1,6.062-1.139q3.025-.4,6.04-.621c2.013-.156,4.028-.244,6.054-.3a56.177,56.177,0,0,1,6.156.114,28.869,28.869,0,0,1-5.928,1.838,45.819,45.819,0,0,1-6.1.855,49.092,49.092,0,0,1-6.147.066,35.132,35.132,0,0,1-5.164-.612C242.607,1831.557,242.336,1831.505,242.065,1831.441Z" transform="translate(10.285 -1563.084)" fill="#ee7544"/>
    <path id="Trazado_190758" data-name="Trazado 190758" d="M477.4,1825.111c-.106.422-.229.842-.374,1.258-.215-.772-.389-1.534-.548-2.289q-.155-.735-.294-1.46-.117-.614-.233-1.221c-.116-.607-.238-1.2-.362-1.8-.206-1-.419-1.988-.65-2.967-.189-.782-.389-1.559-.6-2.334s-.447-1.552-.7-2.33c-.419-1.3-.882-2.629-1.32-4.013-.084-.266-.173-.517-.254-.789a13.206,13.206,0,0,1,1.861,1.847,16.064,16.064,0,0,1,1.5,2.15,17.846,17.846,0,0,1,1.163,2.365,17.654,17.654,0,0,1,.8,2.513q.156.641.266,1.291a19.655,19.655,0,0,1,.257,2.609c.014.436.014.871,0,1.305A18.02,18.02,0,0,1,477.4,1825.111Z" transform="translate(-331.758 -1553.477)" fill="#ee7544"/>
    <path id="Trazado_190759" data-name="Trazado 190759" d="M422.51,1794.675h0a15.483,15.483,0,0,1,1.081,2.912c.125.469.239.94.33,1.411.146.763.247,1.526.317,2.288.065.707.1,1.414.117,2.118v.03a31.894,31.894,0,0,1-.217,4.421,10.791,10.791,0,0,1-.567-1c-.17-.341-.323-.686-.462-1.036-.279-.7-.5-1.411-.71-2.118-.4-1.42-.686-2.836-.949-4.229-.107-.566-.211-1.128-.315-1.688-.152-.818-.307-1.631-.48-2.44-.281-1.375-.638-2.718-1.079-4.2a7.528,7.528,0,0,1,1.629,1.51,10.977,10.977,0,0,1,1.172,1.787Z" transform="translate(-248.477 -1546.528)" fill="#ee7544"/>
    <path id="Trazado_190760" data-name="Trazado 190760" d="M431.368,1800.044q.176.376.32.765a10.658,10.658,0,0,1,.375,1.212c.077.323.134.651.181.98a10.832,10.832,0,0,1,.111,1.42l0,.037c0,.273-.007.547-.027.82a7.62,7.62,0,0,1-.895,3.2c-.1-.222-.188-.439-.275-.655-.06-.149-.115-.3-.169-.441-.241-.652-.441-1.283-.632-1.912-.282-.969-.526-1.923-.746-2.874l-.642-2.851c-.206-.969-.422-1.917-.7-3.04a4.2,4.2,0,0,1,.763.41,5.815,5.815,0,0,1,1.247,1.166c.179.22.345.45.5.682A9.168,9.168,0,0,1,431.368,1800.044Z" transform="translate(-261.404 -1548.942)" fill="#ee7544"/>
  </g>
</svg>
