<svg id="cf6_cardiovascular_2" data-name="cf6_cardiovascular 2" xmlns="http://www.w3.org/2000/svg" width="288.727" height="450.451" viewBox="0 0 288.727 450.451">
  <g id="Capa_2" data-name="Capa 2" transform="translate(0 0)">
    <g id="Grupo_73903" data-name="Grupo 73903">
      <path id="Trazado_146935" data-name="Trazado 146935" d="M274.32,213.769c18.46,4.254,45.993-6.9,49.442-7.129s15.355,16.463,10.589,21.23S284.888,235.292,274.32,213.769Z" transform="translate(-52.281 -37.634)" fill="#cc0500"/>
      <path id="Trazado_146936" data-name="Trazado 146936" d="M284.12,223.9c17.059,9.93,45.993,7.484,49.787,3.7,1.223-1.213,1.338-3.209.8-5.488-6.272,1.61-13.327,4.547-16.1,4.484-8.247-.188-13.735-7.516-18.606-14.049-1.547.314-3.136.606-4.725.857Z" transform="translate(-51.837 -37.366)" fill="#a12252" opacity="0.36"/>
      <path id="Trazado_146937" data-name="Trazado 146937" d="M250.2,174.958c-6.669-7.432-23.216-8.655-32.258-23-4.725-7.463-8.362-21.951-12.721-28.725-7.066-11.028-18.544-3.6-19.505,6.491-.868,9.2,13.955,40.024,19.307,47.571C213.265,188.955,235.635,190.136,250.2,174.958Z" transform="translate(-56.296 -41.659)" fill="#00bcd4"/>
      <path id="Trazado_146938" data-name="Trazado 146938" d="M227.954,185.6c5.446-4.641,7.986-11.55,8.686-18.972-6.669-3.136-13.986-7.077-19-15.01-4.181-6.554-7.474-18.5-11.153-25.913a11.415,11.415,0,0,0-2.331,4.505c-2.174,8.2,4,16.244,6.564,23.32,1.871,5.226,3.46,18.366-6.46,16.348-5.519-1.129-11.927-17.028-11.927-17.028,4.348,10.118,9.627,20.216,12.387,24.1C209.326,183.5,218.347,186.693,227.954,185.6Z" transform="translate(-55.994 -41.3)" fill="#004056" opacity="0.3"/>
      <path id="Trazado_146939" data-name="Trazado 146939" d="M92.145,256.478c-11.864,13.118-10.3,47.54-6.857,64.264,4.244,20.6,19.045,43.16,30.857,60.627,27.24,40.338,61.494,70.2,105.177,92.885,17.634,9.157,42.794,17.185,63.146,13.286,22.066-4.244,40.3-32.477,48.8-53.069,23-55.526,21.951-105.25-3.951-159.4C312.513,239.91,291.022,225,255.775,208.8c-27.993-12.857-71.6-17.435-100.682-7.9-13.463,4.411-25.777,10.568-36.815,19.693C109.518,227.827,102.87,239.555,92.145,256.478Z" transform="translate(-60.955 -38.124)" fill="#ff5252"/>
      <path id="Trazado_146940" data-name="Trazado 146940" d="M326.351,275.095C309.542,239.91,288.051,225,252.8,208.8c-27.993-12.857-71.6-17.435-100.682-7.9-.648.209-1.275.439-1.9.659-2.237,8.927-2.551,17.989-.22,26.446,8.362,30.387,42.418,31.944,64.693,45.1,54.1,31.955,84.982,106.62,60.815,166.253-11.676,28.808-30.428,35.54-53.414,36.784,17.331,8.362,40.453,15.052,59.4,11.415,22.066-4.244,40.3-32.477,48.8-53.069C353.267,378.934,352.232,329.241,326.351,275.095Z" transform="translate(-57.985 -38.124)" fill="#a12252" opacity="0.36"/>
      <path id="Trazado_146941" data-name="Trazado 146941" d="M219,220.367c-.962,33.136,59.226,30.533,77.926,39.951,5.916,2.99,24.334,18.167,19.087,2.446-6.418-19.233-30.46-38.676-61.484-43.474Z" transform="translate(-54.787 -37.061)" fill="#a12252" opacity="0.36"/>
      <path id="Trazado_146942" data-name="Trazado 146942" d="M255.39,486.149a77.2,77.2,0,0,0,13.014.6c31.725-15.376,52.62-50.414,58.808-99.93,4.129-33.062,2.321-69.292-8.634-100.348-5.822-16.516-12.962-30.522-25.808-43.118-5.958-5.843-16.348-14.028-22.672-4.84s3.554,25.16,7.035,33.345c15.857,37.191,29.759,76.484,30.679,117.376C308.961,440.71,291.954,473.354,255.39,486.149Z" transform="translate(-53.138 -36.377)" fill="#a12252" opacity="0.36"/>
      <path id="Trazado_146943" data-name="Trazado 146943" d="M114.22,243.952c6.627-24.042,23.341-50.331,20-76.379-3.481-27.125,7.411-41.655,5.77-69.365-1.244-21.01-7.38-34.495,12.314-40.515,20.53-6.272,9.063,18.815,14.812,28.223,11.686,19.129,20.268,2.279,16.254-13.244-3-11.676-.387-24.836,14.571-15.868,14.164,8.477,3.711,20.854,8.76,26.352,12.115,13.192,11.676-33.282,15.523-37.108s27.753,3.01,24.8,11.206c-4.725,13.118-10.568,21.732,9.732,44.331s26.665,61.975,25.254,87.93c-.815,14.969-37.63,27.439-38.676,7.014-1.986-37.139-31.359-89.5-41.477-27.794-2.362,14.383,11.9,30.021,6.345,44.425-5.362,13.976-12.679,21.773-27.313,28.139C154.244,252.858,127.474,252.064,114.22,243.952Z" transform="translate(-59.532 -44.956)" fill="#cc0500"/>
      <path id="Trazado_146944" data-name="Trazado 146944" d="M230.822,188.865c-21.491.742-9.794,35.383-2.247,44.477,4.9,5.9,12.711,11.77,20.216,13.672,70.515,17.854,41.728-9.941,48.209-3.46,7.39,7.39,9.22,25.087,20.08,11.091,9.941-12.773-16.118-39.617-24.794-46.881C274.421,192.775,249.993,184.193,230.822,188.865Z" transform="translate(-54.807 -38.497)" fill="#ff9fa8"/>
      <path id="Trazado_146945" data-name="Trazado 146945" d="M160.612,58.782c-3.136-3.868-18.815.585-21.4,8.049C135.514,77.639,163.747,62.649,160.612,58.782Z" transform="translate(-58.415 -44.395)" fill="#5c0500" opacity="0.57"/>
      <path id="Trazado_146946" data-name="Trazado 146946" d="M193.3,56.991c-6.167-2.854-8.5-2.185-10.84.293-3.209,3.408,3.282,17.247,11.958,15C203.885,69.838,199.453,59.855,193.3,56.991Z" transform="translate(-56.479 -44.496)" fill="#5c0500" opacity="0.57"/>
      <path id="Trazado_146947" data-name="Trazado 146947" d="M220.093,46.65c-4.913,4.923,15.031,12.543,20.164,9.334S223.417,43.337,220.093,46.65Z" transform="translate(-54.772 -44.911)" fill="#5c0500" opacity="0.57"/>
      <path id="Trazado_146948" data-name="Trazado 146948" d="M86.19,321.769c2.843,6.721,7.746,16.986,15.512,17.132,8.174.146,4.181-9.324,37.975-20,11.226-3.554,9.92-20.122,12.543-30.219,2.937-11.174,20.435-9.115,24.6-18.355,2.143-4.767.136-11.028,2.185-16.171,2.226-5.561,7.746-6.272,6.021-14.017-32.509-10.212-77.216,28.526-93.491,53.634Z" transform="translate(-60.802 -36.192)" fill="#a12252" opacity="0.36"/>
      <path id="Trazado_146949" data-name="Trazado 146949" d="M185.067,254.861c-2.153,5.7,5.226,14.864,9.868,17.394,5.53,2.99,15.282,3.345,21.711,3.429,17,.23,31-4.066,43.975-15.606S268.136,232.9,273.7,217.9c2.613-7.035,12.679-12.648,8.613-20.122-3.136-5.791-12.324-8.1-17.937-9.732C221.338,175.513,236.234,258.9,185.067,254.861Z" transform="translate(-56.341 -38.534)" fill="#a12252" opacity="0.36"/>
      <path id="Trazado_146950" data-name="Trazado 146950" d="M177.834,291.482c-21.638,6.418-37.714,30.7-44.164,51.136-10.756,34.045,6.449,63.857,33.313,84.386,16.808,12.836,46.432,35.32,68.989,28.369,32.32-9.962,38.676-58.108,33.1-86.351-4.422-22.411-15.251-45.136-31.359-60.951C226.921,297.535,204.991,283.465,177.834,291.482Z" transform="translate(-58.798 -33.898)" fill="#ff5252" opacity="0.46"/>
      <path id="Trazado_146951" data-name="Trazado 146951" d="M164.669,311.006c-43.108,10.934-19.861,78.135,2.394,97.745,8.843,7.8,27.083,18.6,37.63,11.247,16.725-11.6,9.585-42.564,7.317-59.446C208.2,331.912,196.278,308.915,164.669,311.006Z" transform="translate(-58.343 -32.913)" fill="#ff5252" opacity="0.43"/>
      <path id="Trazado_146952" data-name="Trazado 146952" d="M251.6,101.069c-20.3-22.6-14.456-31.212-9.732-44.331a4.743,4.743,0,0,0,.209-.888c-4.547,3.084-10.453,5.665-12.157,9.408-5.226,11.5,1.61,24.752,8.362,33.115,16.725,20.8,26.08,45.993,23.509,72.93-.753,7.829-4.463,23-2.739,34.108a31.829,31.829,0,0,0,14.268-8.7c.429-2.582.826-4.923,1.3-6.658.8-3.063,1.61-6.272,2.415-9.408C276.791,155.1,269.808,121.348,251.6,101.069Z" transform="translate(-54.376 -44.463)" fill="#a12252" opacity="0.36"/>
      <path id="Trazado_146953" data-name="Trazado 146953" d="M168.884,96.218c2.8.073,4.3-.972,5.08-2.613-2.509-.659-5.436-3.136-8.582-8.362-4.129-6.753.606-21.554-3.962-27.063.188,6.115-5.582,5.948-8.017,10.651C149.128,77.142,159.361,95.967,168.884,96.218Z" transform="translate(-57.803 -44.358)" fill="#a12252" opacity="0.36"/>
      <path id="Trazado_146954" data-name="Trazado 146954" d="M242,194.407c30.407,4.181,61.181-35.707,70.035-35.707,4.986,0,19.129,32.8,10.944,34.672s-22.38,15.209-35.07,20.77C274.4,220.079,244.091,213.369,242,194.407Z" transform="translate(-53.745 -39.805)" fill="#cc0500"/>
      <path id="Trazado_146955" data-name="Trazado 146955" d="M319.988,174.31c-5.843,6.272-10.2,11.707-17.205,16.411-6.136,4.108-12.659,7.547-19.934,4.7a26.132,26.132,0,0,1-11.216-9.293,72.8,72.8,0,0,1-9.543,4.62l-8.3,10.6c10.2,6.272,18.46,13.589,31.181,12.8.335,0,.669-.073.993-.1.491-.167.972-.355,1.422-.554,12.69-5.561,26.9-18.909,35.069-20.77,4.38-1.045,2.373-10.85-1.213-19.8Z" transform="translate(-53.211 -39.16)" fill="#a12252" opacity="0.36"/>
      <path id="Trazado_146956" data-name="Trazado 146956" d="M200.429,87.223c3.073,1.139,5.059.052,6.272-2.394a6.272,6.272,0,0,1-3.627-2.3c-4.505-4.913,3.345-15.324-5.049-23.529,1.275,2.822,2.446,5.624,2.341,7.7C199.969,73.634,187.749,82.509,200.429,87.223Z" transform="translate(-55.888 -44.32)" fill="#a12252" opacity="0.36"/>
      <path id="Trazado_146957" data-name="Trazado 146957" d="M245.07,152.721c-5.07-14.415-24.847-39.439-42.031-30.428-15.742,8.247-16.066,34.965-19.087,49.317-3.418,16.212-4.432,35.174-15.063,49.484A34.348,34.348,0,0,1,153.46,232.3c-.679-5.31-1.84-10.61-2.373-15.8-1.244-12.314.4-21.261,9.941-29.049,8.362-6.836,18.554-14.31,22.787-25.087,2.446-6.188,4.327-24.742-3.355-28-4.861-2.091-14.739,3.376-19.139,5.1-8.216,3.22-16.066,7.317-24.2,10.537l-3.439,8.038c.1,1.965.261,3.983.533,6.084,3.345,26.049-13.369,52.359-20,76.379,13.254,8.111,40.024,8.906,66.627-2.655,14.634-6.366,21.951-14.164,27.345-28.16,5.551-14.4-8.707-30.042-6.345-44.425,10.1-61.672,39.491-9.345,41.477,27.794.293,5.456,3.136,8.54,7.16,9.888a62.717,62.717,0,0,0,1.338-16.641A126.666,126.666,0,0,0,245.07,152.721Z" transform="translate(-59.532 -41.54)" fill="#a12252" opacity="0.36"/>
      <path id="Trazado_146958" data-name="Trazado 146958" d="M321.632,207.737c-4.129,4.181,5.864,21.753,10.024,19.557S323.828,205.542,321.632,207.737Z" transform="translate(-50.183 -37.592)" fill="#5c0500" opacity="0.57"/>
      <path id="Trazado_146959" data-name="Trazado 146959" d="M82.8,259.688c.7-14.634,3.136-26.185,5.53-40.463,2.833-16.725,8.676-33.209,7.16-50.738-1.275-14.739-8.279-42.742-3.836-57.637,3.742-12.543,17.174-24.585,30.732-13.8,11.185,8.906,1.84,35.1,7.547,47.3,12.021,1.652,22.85-17.53,35.237-19.495,17.624-2.791,22.861,18.052,18.376,33.052-3.909,13.045-14.049,16.672-25.871,21.627-18.146,7.6-21.815,8.488-21.031,30.313.4,10.85,1.871,20.812,1.265,31.359C136.11,272.043,116.814,266.984,82.8,259.688Z" transform="translate(-60.955 -42.787)" fill="#00bcd4"/>
      <path id="Trazado_146960" data-name="Trazado 146960" d="M166.2,125.53c-16.641,0-14.686,39.23-.564,41.362C182.875,169.495,185.822,126.7,166.2,125.53Z" transform="translate(-57.713 -41.307)" fill="#004056" opacity="0.69"/>
      <path id="Trazado_146961" data-name="Trazado 146961" d="M230.822,188.865c-21.491.742-9.794,35.383-2.247,44.477,4.9,5.9,12.711,11.77,20.216,13.672,70.515,17.854,41.728-9.941,48.209-3.46,7.39,7.39,9.22,25.087,20.08,11.091,9.941-12.773-16.118-39.617-24.794-46.881C274.421,192.775,249.993,184.193,230.822,188.865Z" transform="translate(-54.807 -38.497)" fill="#ff9fa8"/>
      <path id="Trazado_146962" data-name="Trazado 146962" d="M296.807,243.532c7.39,7.39,9.219,25.087,20.08,11.09,9.941-12.773-16.118-39.616-24.794-46.881-12.366-10.338-27.9-17.655-42.648-19.641,6.167,3.794,15.544,4.181,21.627,8.07,9.481,6.1,23.948,16.265,31.223,25.672,11.5,14.843-4.181,20.3-12.9,18.9-14.833-2.373-26.937,2.791-38.78-8.718-9.293-9.052-17.415-8.519-27.815-8.739a41.374,41.374,0,0,0,5.582,10.035c4.9,5.9,12.711,11.77,20.216,13.672C319.113,264.845,290.326,237.051,296.807,243.532Z" transform="translate(-54.614 -38.473)" fill="#a12252" opacity="0.36"/>
      <path id="Trazado_146963" data-name="Trazado 146963" d="M185.809,263.375c-7.317-12.293.178-25.641,8.676-52.547,9.23-29.268,15.3-43.9,46.2-61.578,24.282-13.861,54.846-23.4,57.209,1.955,3.512,37.881-53.31,26.007-63.23,62.717-4.432,16.442,2.091,33.136-5.226,48.282C220.826,280.2,195.9,280.278,185.809,263.375Z" transform="translate(-56.424 -40.861)" fill="#00bcd4"/>
      <path id="Trazado_146964" data-name="Trazado 146964" d="M309.483,160.55c-4.746-.219,5.488,30.313,10.725,30.721C324.19,191.532,313.936,160.749,309.483,160.55Z" transform="translate(-50.744 -39.721)" fill="#5c0500" opacity="0.57"/>
      <path id="Trazado_146965" data-name="Trazado 146965" d="M105.025,96.4c-9.815,7.171-12.543,17.9-11.122,29.425,2.091,15.909,4.652,31.212,5.362,47.6.5,11.634-2.153,22.212-5.624,33.313-2.6,8.289-6.627,14.958.533,20.948,3.5,2.937,10.62,11.5,14.153,4.976,3.4-6.272,2.78-16.359,3.408-23.258.794-8.875,1.474-17.77.742-26.707-1.652-20.007-7.15-39.428-7.108-59.582a87.1,87.1,0,0,1,1.432-16.38C107.7,102.045,107.387,99.7,105.025,96.4Z" transform="translate(-60.623 -42.627)" fill="#92ceff" opacity="0.43"/>
      <path id="Trazado_146966" data-name="Trazado 146966" d="M153.149,129.7c-4.453,4.808-10.024,8.561-15.251,12.2-5.8,4.035-9.8,4-8.791,12.2.533,4.369,2.54,14.122,8.979,9.188,2.143-1.641,3.084-4.84,4.819-6.847,2.383-2.739,6.753-3.575,8.812-5.916,1.882-2.164,1.118-6.564,1.045-9.261A47.853,47.853,0,0,1,153.149,129.7Z" transform="translate(-58.865 -41.118)" fill="#92ceff" opacity="0.43"/>
      <path id="Trazado_146967" data-name="Trazado 146967" d="M284.748,137.25c-20.09,0-38.508,9.93-54.543,21.533a83.622,83.622,0,0,0-24.763,29.268c-7.38,14.78-9.951,30.732-15.146,46.3-2.258,6.773-4.756,12.543-3.868,19.725.585,4.7,2.791,12.732,8.185,13.756,4.934-3.136,4.181-14.32,4.777-19.516,1.631-14.634,2.3-43.474,20.613-68.54,27.251-37.3,60.878-37.63,70.85-40.7Z" transform="translate(-56.27 -40.776)" fill="#92ceff" opacity="0.43"/>
      <path id="Trazado_146968" data-name="Trazado 146968" d="M297.423,150.928a19.86,19.86,0,0,0-3.021-9.408,17.624,17.624,0,0,1-6.115,7.777c-12.272,8.833-30.585,9.251-44.038,18.815-16.1,11.4-21.564,28.15-25.84,46.223-3.5,14.78-3.606,33.115-10.589,46.38a20.508,20.508,0,0,1-14.561,10.714c11.812,7.8,28.881,4.808,35.728-9.408,7.265-15.146.774-31.839,5.227-48.282C244.092,176.934,300.935,188.809,297.423,150.928Z" transform="translate(-55.952 -40.583)" fill="#004056" opacity="0.3"/>
      <path id="Trazado_146969" data-name="Trazado 146969" d="M178.752,162.64c-3.073,2.76-6.366,4.881-11.268,4.38-2.718-.282-5.446-2.77-8.028-2.091-1.819.5-4.432,4.442-6.2,5.6-8.927,5.864-23.258,1.589-30.93,8.6-8.927,8.174-4.181,23.394-4.662,34.1-.909,18.251-5.592,32.927-13.495,47.738,20.091,3.136,31.411.335,32.77-22.9.606-10.557-.868-20.53-1.265-31.359-.784-21.857,2.885-22.745,21.031-30.313C165.664,172.6,173.7,169.6,178.752,162.64Z" transform="translate(-59.987 -39.626)" fill="#004056" opacity="0.3"/>
      <path id="Trazado_146970" data-name="Trazado 146970" d="M124.941,144.352A14.634,14.634,0,0,0,128.15,143c-4.557-12.679,3.742-37.359-7.056-45.993a17.853,17.853,0,0,0-9.784-4.181c2.676,6.031,3.544,14.122,4.035,19.077.815,8.1-.293,14.843-1.432,22.411C112.679,142.659,115.941,147.028,124.941,144.352Z" transform="translate(-59.664 -42.788)" fill="#004056" opacity="0.3"/>
      <path id="Trazado_146971" data-name="Trazado 146971" d="M78.99,220.441c-17.425,33.784-30.439,80.885,7.317,112.285,8.2,6.815,18.136,6.449,25.348-3.512,4.181-5.76,2.2-9.115,1.474-12.909-1.15-6.084,7.672,9.5,13.066,8.362,15.679-3.3,17.258-13.171,18.585-27.721,1.84-20.132,9.408-10.934,20.77-18.7,8.634-5.937,8.9-12.543,6.272-23.488-1.526-6.272,13.861-10.777,11.425-16.233-2.875-6.418-49.359-10.453-58.233-3.366C102.844,252.928,104.1,216.908,78.99,220.441Z" transform="translate(-61.902 -37.02)" fill="#ff9fa8"/>
      <path id="Trazado_146972" data-name="Trazado 146972" d="M182.25,238.516c-2.875-6.418-49.359-10.453-58.233-3.366-20.164,16.171-20.906-12.219-39.846-14.77.2.763,9.679,3.136,18.293,17.707,6.063,10.233,8.592,11.31,20.958,7.526,7.934-2.425,20.509-8.059,27.251.544,9.8,12.543-7.16,18.638-15.732,20.634-4.307,11.049.606,22.777-1.348,34.725-3.136,18.92-19.557,21.606-27.052,3.847.815,9.355,4.505,22.139-3.533,27.491-2.728,1.808-5.927,2.749-13.254,2.749,7.15,3.5,14.969,1.829,20.906-6.4,4.181-5.76,2.2-9.115,1.474-12.909-1.15-6.084,7.672,9.5,13.066,8.362,15.679-3.3,17.258-13.171,18.585-27.721,1.84-20.132,9.408-10.934,20.77-18.7,8.634-5.937,8.9-12.543,6.272-23.488C169.257,248.477,184.643,244.024,182.25,238.516Z" transform="translate(-60.893 -37.011)" fill="#a12252" opacity="0.36"/>
      <path id="Trazado_146973" data-name="Trazado 146973" d="M82.783,228.56c-20.634,17.5-20.561,57.491-7.024,78.616,3.136,4.85,9.888,13.327,16.463,12.042,9.47-1.84,2.415-10.223,4.547-17.456,4.432-14.989,22.651,12.042,29.906-8.854,2.969-8.571-5.645-15.868-5.049-23,.794-9.408,13.4-8.174,12.638-16.4-9.47-4.777-19.254,5.739-29.414,1.463C91.814,249.487,97.626,231.55,82.783,228.56Z" transform="translate(-61.701 -36.641)" fill="#ff9797" opacity="0.43"/>
      <path id="Trazado_146974" data-name="Trazado 146974" d="M253.365,194.23c-8.007,3.6-10.986,9.2-5.916,16.725,4.641,6.847,11.707,5.833,18.157,9.868,6.617,4.181,9.8,9.742,17.916,12.2,12.658,3.815,15.6-2.383,8.31-12.543C283.6,208.916,269.849,196.185,253.365,194.23Z" transform="translate(-53.611 -38.196)" fill="#ff9797" opacity="0.43"/>
      <path id="Trazado_146975" data-name="Trazado 146975" d="M305.611,164c-6.345,3.031-19.923,15.251-24.042,21.512-7.6,11.571,18.554,3.784,23.488-3.4C309.134,176.2,303.813,166.958,305.611,164Z" transform="translate(-52.015 -39.565)" fill="#ff9797" opacity="0.43"/>
      <path id="Trazado_146976" data-name="Trazado 146976" d="M316.752,210c-7.61.439-19.955,4.61-8.592,12.01,2.415,1.578,8.6,4.327,10.944,1.045s-2.822-8.132-1.631-11.676Z" transform="translate(-50.957 -37.482)" fill="#ff9797" opacity="0.43"/>
      <path id="Trazado_146977" data-name="Trazado 146977" d="M140.468,72.058c.261,9.408,1.944,18.888,1.453,28.725-.355,7.15-4.484,19.589-1.453,26.132,3.92,8.488,12.909,1.442,14.718-5.373,2.143-8.017-4.035-18.564-5.54-26.561C148.841,90.779,148.841,64.574,140.468,72.058Z" transform="translate(-58.393 -43.79)" fill="#ff9797" opacity="0.43"/>
      <path id="Trazado_146978" data-name="Trazado 146978" d="M182.088,70c2.415,8.718,3.512,17.644-1.244,25.871-3.847,6.669-12.125,13.233-8.791,21.47,2.6,6.418,15.209,15.9,18.658,5.76,2.592-7.6,1.045-21.251,1.777-29.059.481-4.8,1.307-11.8-1.233-15.993C188.339,73.209,183.677,72.739,182.088,70Z" transform="translate(-56.948 -43.822)" fill="#ff9797" opacity="0.43"/>
      <path id="Trazado_146979" data-name="Trazado 146979" d="M218.684,53.49c-1.578,7.453-.272,15.418-2.206,22.61-1.7,6.272-6.711,10.547-10.171,16-1.84,2.916-3.429,5.477-3.408,9.115,0,6.115.575,4.672,5.017,6.815,8.174,3.93,15.679,7.317,22.4,13.662,4.767,4.442,10.662,19.056,17.686,17.77,1.672-19.735-21.031-27.941-25.087-45.062C219.729,80.647,228.6,64.037,218.684,53.49Z" transform="translate(-55.516 -44.57)" fill="#ff9797" opacity="0.43"/>
      <path id="Trazado_146980" data-name="Trazado 146980" d="M165.1,183.25c-10.892,5.634-16.787,23.885-14.373,35.143,4.672,21.794,15.094-6.46,16.892-14.686C169.141,196.692,170.688,188.152,165.1,183.25Z" transform="translate(-57.903 -38.693)" fill="#ff9797" opacity="0.43"/>
      <path id="Trazado_146981" data-name="Trazado 146981" d="M77.679,237.5c-7.024,6.219-14.728,34.265-5.3,41.205,10.453,7.714,14.78-21.366,15.355-27.6C88.247,245.569,87.4,235.7,77.679,237.5Z" transform="translate(-61.625 -36.246)" fill="#ff9797" opacity="0.43"/>
      <path id="Trazado_146982" data-name="Trazado 146982" d="M100.76,166.743c-.92-20.969-5.592-40.7-3.125-61.735,0-.23-.324-.251-.4,0-6.962,20.425-.638,40.881,0,61.808.387,11.958,0,24.24-2.76,35.927-1.735,7.317-5.08,14.122-1.767,21.313a.439.439,0,0,0,.794-.1C97.415,204.666,101.627,186.54,100.76,166.743Z" transform="translate(-60.57 -42.245)" fill="#92ceff" opacity="0.77"/>
      <path id="Trazado_146983" data-name="Trazado 146983" d="M155.4,128c-3.732,1.328-5.885,5.415-8.937,7.85-4.411,3.512-9.564,5.9-13.913,9.47s-9.711,11.153-2.571,14.812a.617.617,0,0,0,.836-.826c-4.338-8.739,5.843-13.442,11.885-17.509,5.613-3.773,8.99-8.216,12.732-13.746C155.455,128,155.423,127.938,155.4,128Z" transform="translate(-58.976 -41.196)" fill="#92ceff" opacity="0.77"/>
      <path id="Trazado_146984" data-name="Trazado 146984" d="M248.615,148.74c-14.854,2.185-28.223,17.958-36.752,29.268-10.641,14.279-15.052,32.07-17.6,49.432,0,.073.084.125.115,0,7.432-13.787,8.822-29.6,17.665-42.93s21.753-28.4,37.076-34.056a.941.941,0,0,0-.5-1.714Z" transform="translate(-55.907 -40.256)" fill="#92ceff" opacity="0.77"/>
      <path id="Trazado_146985" data-name="Trazado 146985" d="M193.959,231.345c0-.052,0-.136-.094-.094-3.209,2.456-4.411,6.658-5.227,10.453-.7,3.219-1.913,8.728.753,11.362a.815.815,0,0,0,1.348-.355c.554-3.073,0-6.47.272-9.617A33.449,33.449,0,0,1,193.959,231.345Z" transform="translate(-56.202 -36.52)" fill="#92ceff" opacity="0.77"/>
      <path id="Trazado_146986" data-name="Trazado 146986" d="M79.076,237c-7.923,6.115-15.314,23.644-9.732,33.042a.544.544,0,0,0,1.045-.272c.742-5.78,0-11.2,1.777-16.965,1.683-5.582,4.474-10.453,7.129-15.617C79.317,237.115,79.191,237,79.076,237Z" transform="translate(-61.653 -36.259)" fill="#92ceff" opacity="0.77"/>
      <path id="Trazado_146987" data-name="Trazado 146987" d="M127.324,307.939c-4.672,3.742-10.568,5.582-15.345.8-2.592-2.592-3.983-6.4-5.791-9.512-.063-.094-.22,0-.188.073,1.547,5.226,3.136,11.383,8.676,13.714A10.693,10.693,0,0,0,128,308.472C128.275,308.023,127.69,307.646,127.324,307.939Z" transform="translate(-59.905 -33.442)" fill="#92ceff" opacity="0.77"/>
      <path id="Trazado_146988" data-name="Trazado 146988" d="M150.517,254.223a.408.408,0,0,0-.669-.188c-1.045,1.045-1.516,2.425-2.467,3.5a18.335,18.335,0,0,1-4.547,3.564c-3.335,1.934-6.8,3.23-10.631,2.091a.063.063,0,0,0-.073.094c2.185,3.136,7.808,1.3,10.516-.052C145.155,262.021,151.981,257.871,150.517,254.223Z" transform="translate(-58.721 -35.492)" fill="#92ceff" opacity="0.77"/>
      <path id="Trazado_146989" data-name="Trazado 146989" d="M294.1,235.476c-13.892-.073-27.1,7.139-39.721-2.77-7.672-6.042-10.934-9.951-20.906-12.136a.1.1,0,0,0,0,.2c7.808,3.188,12.449,7.024,18.46,12.543a24.867,24.867,0,0,0,10.6,5.812c10.39,2.739,21.711-.052,31.672-3.136a.261.261,0,0,0-.1-.512Z" transform="translate(-54.134 -37.003)" fill="#92ceff" opacity="0.77"/>
      <path id="Trazado_146990" data-name="Trazado 146990" d="M306.546,164c-5.875,1.463-11.833,7.056-16.2,11.143-3.585,3.334-9.408,7.986-9.554,13.317h.063a142.7,142.7,0,0,1,11.979-12.794c4.181-3.794,11.059-6.366,14.205-11.049a.439.439,0,0,0-.491-.617Z" transform="translate(-51.988 -39.565)" fill="#ff94ab" opacity="0.77"/>
      <path id="Trazado_146991" data-name="Trazado 146991" d="M316.532,210.177c-3.836-1.589-9.355,1.913-12,4.526-.794.794.24,2.216,1.223,1.589a19.41,19.41,0,0,1,5.718-2.247c1.819-.46,3.7-.533,5.373-1.422a1.359,1.359,0,0,0-.314-2.446Z" transform="translate(-50.926 -37.492)" fill="#ff94ab" opacity="0.77"/>
      <path id="Trazado_146992" data-name="Trazado 146992" d="M143.823,99.538c-.22-9.063-2.655-17.833-3.575-26.822a.136.136,0,0,0-.272,0c-.2,10.777,1.819,21.491,1.254,32.247-.387,7.453-4.181,16.171.324,22.861a.408.408,0,0,0,.742-.314C140.123,118.646,144.042,108.674,143.823,99.538Z" transform="translate(-58.393 -43.705)" fill="#ff94ab" opacity="0.77"/>
      <path id="Trazado_146993" data-name="Trazado 146993" d="M181.895,70.166c-.146-.314-.648-.084-.554.24,1.965,6.857,1.746,12.972.554,19.861-.073.408.46.878.784.46C186.975,85.24,184.4,75.895,181.895,70.166Z" transform="translate(-56.493 -43.821)" fill="#ff94ab" opacity="0.77"/>
      <path id="Trazado_146994" data-name="Trazado 146994" d="M217.762,53.464c0-.115-.23-.146-.261,0-.941,4.882-.429,10.077-.93,15.042-.69,6.857-3.136,12.073-6.188,18.1-.178.345.125.92.564.742C221.765,82.889,221.013,62.391,217.762,53.464Z" transform="translate(-55.179 -44.576)" fill="#ff94ab" opacity="0.77"/>
      <path id="Trazado_146995" data-name="Trazado 146995" d="M157.008,56.464a.125.125,0,1,0,0,.251,8.853,8.853,0,0,1,2.091.659c1.672.962,1.327,3.136.146,4.359A35.316,35.316,0,0,1,156.3,64.22c-1.923,1.537-4.923,2.331-6.366,4.348a.074.074,0,0,0,.1.1c2.091-1.286,4.422-2.091,6.408-3.6,1.474-1.139,3.481-2.425,4.338-4.181C162.067,58.429,159.579,55.878,157.008,56.464Z" transform="translate(-57.916 -44.439)" fill="#ff94ab" opacity="0.77"/>
      <path id="Trazado_146996" data-name="Trazado 146996" d="M194.825,57.4c-.272-.084-.366.272-.178.418,3.544,2.718,7.223,7.766,4.077,12.272-2.425,3.47-6.679,2.258-10.244,2.4h0c4.024,1.474,9.847,1.2,11.655-3.355C201.776,65.031,199.163,58.759,194.825,57.4Z" transform="translate(-56.169 -44.393)" fill="#ff94ab" opacity="0.77"/>
      <path id="Trazado_146997" data-name="Trazado 146997" d="M236.282,49.19h0c1.045,1.913,5.038,3.136,4.484,5.7-.523,2.373-4.181,2.707-6.1,3.01-.084,0,0,.136,0,.146,2.091.251,5.76-.355,6.648-2.665C242.47,52.3,237.986,50.737,236.282,49.19Z" transform="translate(-54.079 -44.765)" fill="#ff94ab" opacity="0.77"/>
      <path id="Trazado_146998" data-name="Trazado 146998" d="M321.456,185.914a41.812,41.812,0,0,0-6.272-18.993c0-.063-.1,0-.084.052.22.523,9.408,24.575,4.181,24.136a.24.24,0,0,0-.115.439C321.968,192.949,321.529,187.189,321.456,185.914Z" transform="translate(-50.434 -39.434)" fill="#ff94ab" opacity="0.77"/>
      <path id="Trazado_146999" data-name="Trazado 146999" d="M329.615,216.312a.1.1,0,1,0-.167.094c.753,2.77,3.084,4.767,2.791,7.871-.355,3.784-3.69,3.481-5.906,1.411h-.052c1.275,1.84,4.181,3.334,5.812,1.045C334.35,223.65,331.768,218.758,329.615,216.312Z" transform="translate(-49.928 -37.198)" fill="#ff94ab" opacity="0.77"/>
      <path id="Trazado_147000" data-name="Trazado 147000" d="M320.383,207.641s0-.073-.052,0c-2.791,2.613.084,7.829,1.526,10.453a.136.136,0,0,0,.251-.063C321.637,214.206,318.658,211.708,320.383,207.641Z" transform="translate(-50.25 -37.59)" fill="#ff94ab" opacity="0.77"/>
      <path id="Trazado_147001" data-name="Trazado 147001" d="M308.919,170.391c-.888-2.969-2.707-7.652-.763-10.39.094-.136-.094-.335-.23-.23-2.279,1.693-1.474,5.4-.962,7.8a67.094,67.094,0,0,0,5.676,16.15.251.251,0,0,0,.46-.188C311.888,179.1,310.236,174.792,308.919,170.391Z" transform="translate(-50.828 -39.758)" fill="#ff94ab" opacity="0.77"/>
      <path id="Trazado_147002" data-name="Trazado 147002" d="M227.068,55.732c-2.394-1.2-12.209-6.094-7.955-9.773a.261.261,0,0,0-.24-.429c-2.728.679-1.61,3.815-.449,5.436,2.028,2.833,5.31,4.118,8.561,4.955a.1.1,0,0,0,.084-.188Z" transform="translate(-54.869 -44.931)" fill="#ff94ab" opacity="0.77"/>
      <path id="Trazado_147003" data-name="Trazado 147003" d="M186.012,54.258a.084.084,0,0,0,0-.157c-7.16-.6-7.725,13.369-1.652,15.084a.115.115,0,0,0,.115-.2C179.929,64.888,179.145,56.4,186.012,54.258Z" transform="translate(-56.544 -44.543)" fill="#ff94ab" opacity="0.77"/>
      <path id="Trazado_147004" data-name="Trazado 147004" d="M140.146,70.827c-2.969-1.213-.878-4.3.115-5.749A15.836,15.836,0,0,1,147,59.193V59.12c-3.836.293-7.766,5.07-8.875,8.53-1.254,3.888,4.077,5.3,6.46,2.906.094-.094,0-.282-.125-.23C143.229,70.827,141.463,71.36,140.146,70.827Z" transform="translate(-58.458 -44.315)" fill="#ff94ab" opacity="0.77"/>
      <path id="Trazado_147005" data-name="Trazado 147005" d="M115.124,94.216c-4.077-2.843-11.164.606-14.467,3.334a26.707,26.707,0,0,0-9.408,16.934c0,.146.2.136.22,0,1.3-10.986,12.439-21.23,23.571-19.861C115.239,94.624,115.271,94.321,115.124,94.216Z" transform="translate(-60.573 -42.774)" fill="#92ceff" opacity="0.77"/>
      <path id="Trazado_147006" data-name="Trazado 147006" d="M164.334,124.251c-5.655-.449-10.181,5.226-11.8,10.139-2.321,6.993-1.317,17.143,2.749,23.341a.3.3,0,0,0,.554-.24c-2.456-10.955-5.718-28.526,8.53-32.979a.136.136,0,0,0-.031-.261Z" transform="translate(-57.852 -41.366)" fill="#92ceff" opacity="0.77"/>
      <path id="Trazado_147007" data-name="Trazado 147007" d="M179.013,136.89h-.063c3,9.711-1.7,20.268-6.449,28.39a.24.24,0,0,0,.366.293c4.516-4.338,6.272-10.338,7.442-16.359C181.083,145.367,181.574,140.266,179.013,136.89Z" transform="translate(-56.894 -40.793)" fill="#92ceff" opacity="0.77"/>
      <path id="Trazado_147008" data-name="Trazado 147008" d="M161.3,400.165c-6.146-14.362-14.854-26.247-18.167-42.01-1.725-8.237-2.5-17.132-.146-25.338,2.613-9.1,8.456-14.07,15.617-19.651.178-.136,0-.4-.209-.355-17.258,4.526-21.387,24.522-19.641,39.857,1.725,15.157,8.592,38.676,21.293,48.47a.8.8,0,0,0,1.254-.972Z" transform="translate(-58.438 -32.825)" fill="#ff94ab" opacity="0.77"/>
      <path id="Trazado_147009" data-name="Trazado 147009" d="M144.52,242.233a36.346,36.346,0,0,0-17.5.993c-5.582,1.85-5.843,2.8-12.544,2.854-7.808.063-9.523-1.631-13.589-8.017-4.819-7.61-7.787-14.634-17.435-16.442-.1,0-.146.136,0,.157,13.808,3.449,13.244,18.732,23.822,25.61,3.888,2.519,7.317,2.551,11.561,1.4s7.683-3.8,11.969-4.7c4.505-.951,9.2-.585,13.746-1.286a.293.293,0,0,0-.031-.564Z" transform="translate(-60.93 -36.955)" fill="#ff94ab" opacity="0.77"/>
      <path id="Trazado_147010" data-name="Trazado 147010" d="M280.248,232.556c-5.08-2.582-7.265-7.474-11.7-10.693-3.972-2.885-8.9-2.958-13.233-4.944-6.941-3.2-14.488-24.178-1.923-23.07a.251.251,0,0,0,.125-.47c-10.955-4.934-9.408,12.219-7.108,17.77,2.425,5.937,6.1,8.362,12.136,10.213,3.209.972,6.554,1.725,9.24,3.941,1.84,1.526,3,3.7,4.725,5.331a10.087,10.087,0,0,0,7.432,2.979.6.6,0,0,0,.3-1.056Z" transform="translate(-53.62 -38.274)" fill="#ff94ab" opacity="0.77"/>
      <path id="Trazado_147011" data-name="Trazado 147011" d="M96.444,312.714a.721.721,0,0,0-1.338-.366c-3.481,6.178-7.15,4.934-11.613,1.15a42.326,42.326,0,0,1-7.672-8.435c-6.125-9.084-8.247-21.178-9.408-31.819a.084.084,0,0,0-.167,0C63.758,286.519,69.3,303.1,78.685,312.724c2.875,2.948,7.505,7.568,12.052,7.411C94.761,319.916,96.852,316.456,96.444,312.714Z" transform="translate(-61.732 -34.621)" fill="#ff94ab" opacity="0.77"/>
      <path id="Trazado_147012" data-name="Trazado 147012" d="M126.209,280.471a.6.6,0,0,0-1.045.136c-1.589,5.7-2.9,13.4-9.544,15.272-4.9,1.39-9.481-2.415-14.415-.261-.24.1-.1.47.125.47,6.868-.084,12.909,5.227,19.129,0C124.286,292.795,128.728,285.53,126.209,280.471Z" transform="translate(-60.127 -34.301)" fill="#ff94ab" opacity="0.77"/>
      <path id="Trazado_147013" data-name="Trazado 147013" d="M304.952,270.014c4.4.429,8.5-.272,11.812-3.408a.083.083,0,0,0-.094-.136c-9.544,5.226-20.4-2.017-29.854-4.181a30.9,30.9,0,0,0-16.453.742c-1.861-1.892-6.073-1.495-8.362-.909-7.192,1.871-15.251,8.017-20.55-.679a.126.126,0,1,0-.22.125c2.477,4.672,6.178,6.052,11.268,5.028,3.052-.606,5.916-1.892,8.927-2.613a11.235,11.235,0,0,1,5.226-.4,4.587,4.587,0,0,1,1.129.481c-11.644,5.373-9.742,16.725-1.233,24.658.345.324.711.638,1.045.941a.523.523,0,0,0-.324.376c-1.045,4.9,3.136,7.955,5.143,12,3.23,6.564-3.261,10.557-2.676,16.871,0,.3.523.428.575.084.784-5.226,5.645-8.54,5.227-14.007s-5.5-9.188-6.941-14.467c6.073,4.787,13.735,8.205,16.421,15.941,3.063,8.791-.429,18.617,1.233,27.721,1.463,8.038,6.272,12.983,11.9,18.512a41.571,41.571,0,0,1,3.449,3.857c-.282,0-.564.2-.439.512,2.875,6.993,1.892,10.934-1.547,17.529a30.878,30.878,0,0,0-3.826,11.822c0,.136.209.136.22,0,.6-7.495,10.777-16.819,8.989-24.784,4.9,9.251,4.265,19.39,0,30.46-.1.261.335.449.46.188,6.617-13.955,5.352-27.533-5.373-39.021-9.146-9.794-13.505-16.725-12.481-30.439.24-3.084.6-6.125.659-9.125a21.951,21.951,0,0,0,3.3,5.226,28.344,28.344,0,0,0,4.432,3.627c3.439,2.571,4.537,4.913,4.808,9.282a.126.126,0,0,0,.251,0c.826-4.526-.261-7.171-3.7-10.15-2.78-2.4-5.289-4.181-7-7.6-.972-1.944-1.526-3.93-2.456-5.76a18.271,18.271,0,0,0-2.153-6.136c-3.021-5.226-8.362-8.362-13.014-11.854-5.613-4.244-11.143-9.063-9.408-16.505,1.683-6.993,8.916-9.125,15.679-9.481s15.732,3.983,23.822,5.331a68.988,68.988,0,0,0-4.62,5.969,7.757,7.757,0,0,0-1.578,5.676c.617,4.463,5.477,9.857,10.014,10.453a.173.173,0,0,0,.094-.314c-5.122-2.969-11.906-9.408-6.669-15.418C301.722,274.227,304.45,272.481,304.952,270.014Z" transform="translate(-53.78 -35.155)" fill="#eec39c" opacity="0.77"/>
      <path id="Trazado_147014" data-name="Trazado 147014" d="M245.616,412.3c-5.226-6.69-11.728-9.23-20.059-7.2-7.882,1.913-14.373,3.282-21.878-1.265a31.756,31.756,0,0,1-8.592-7.9,37.169,37.169,0,0,0-3.408-8.948c-3.7-6.554-10-10.066-16.014-14.237-15.585-10.84-22.578-24.867-20.488-41.383a20.466,20.466,0,0,0,2.927,8.874c4.338,6.5,14.352,7.965,21.23,9.972.178,0,.3-.23.136-.314-6.272-3.021-15.815-4.474-19.861-10.7-2.728-4.244-3.042-10.4-2.707-16,.533-1.8,1.139-3.606,1.871-5.446,5.655-14.122,14.634-30.24,11.362-45.993a.136.136,0,0,0-.251,0c-6.533,31.359-36.345,70.275-4,97.546,3.784,3.136,8.362,5.78,12.606,8.655a4.175,4.175,0,0,0-.763.115.679.679,0,0,0-.47.826,15.271,15.271,0,0,1,0,9.658c-.7,2.519-1.495,4.913-1.286,7.557.5,6.355,5.153,11.394,10.526,14.258a.086.086,0,0,0,.1-.136c-3.8-3.836-8.226-9.2-8.059-15,.1-3.47,2.091-6.773,2.76-10.139a10.924,10.924,0,0,0-.157-5.227,30.127,30.127,0,0,1,8.2,8.477c4.777,7.892,5.059,17.624,8.906,25.913,3.941,8.477,11.111,14.237,19.056,18.815,5.592,3.23,10.662,6.031,14.822,11.122,2.76,3.4,5.038,6.439,8.655,8.979.575.408,1.15-.449.721-.92-5.791-6.272-9.564-13.589-17.049-17.989C213.3,427.69,203.24,422.3,198.557,409.283a88.4,88.4,0,0,1-2.718-10.108,26.613,26.613,0,0,0,11.728,9.167,21.1,21.1,0,0,0,9.491,1.526c11.226-1.045,17.279-6.774,28.15,2.791a.27.27,0,0,0,.408-.355Z" transform="translate(-57.862 -34.688)" fill="#eec39c" opacity="0.77"/>
      <path id="Trazado_147015" data-name="Trazado 147015" d="M165.659,289.632c-4.672,8.456-7.735,18.157-10.589,27.345-2.592,8.362-2,16.181-2.78,24.721,0,.188.24.188.3,0,3.01-7.442,1.923-16.369,4.432-24.219,2.958-9.272,6.272-18.428,8.77-27.836a.073.073,0,0,0-.136-.01Z" transform="translate(-57.808 -33.877)" fill="#ff94ab" opacity="0.77"/>
      <path id="Trazado_147016" data-name="Trazado 147016" d="M179.045,374.46h0c-.638,6.868-6.272,15.815-1.965,22.359a.222.222,0,1,0,.408-.178c-1.432-4.662-.951-8.362.314-12.951C178.585,380.648,179.463,377.627,179.045,374.46Z" transform="translate(-56.758 -30.033)" fill="#ff94ab" opacity="0.77"/>
      <path id="Trazado_147017" data-name="Trazado 147017" d="M217.857,427.8c-4.61-3.585-9.93-5.78-13.923-10.275-5.655-6.334-6.648-14.059-9.219-21.794,0-.063-.115,0-.094,0,1.672,7.923,2.425,15.449,7.672,21.951,3.753,4.662,9.408,9.031,15.251,10.62C217.836,428.417,218.129,428.01,217.857,427.8Z" transform="translate(-55.891 -29.071)" fill="#ff94ab" opacity="0.77"/>
      <path id="Trazado_147018" data-name="Trazado 147018" d="M168.088,366.624c-2.906-3.6-6.658-6.272-9.345-10.077a37.065,37.065,0,0,1-5.854-12.324c0-.136-.219-.073-.209,0,1.181,8.718,6.606,19.024,15.01,22.861a.324.324,0,0,0,.4-.46Z" transform="translate(-57.79 -31.406)" fill="#ff94ab" opacity="0.77"/>
      <path id="Trazado_147019" data-name="Trazado 147019" d="M233.3,401.012c-3.763-2.519-7.317-1.756-11.5-.387-7.442,2.456-13.233,2.613-20.582-.408,3.815,2.519,8.143,4.3,12.794,4.129a22.211,22.211,0,0,0,6.272-1.443,25.329,25.329,0,0,1,12.784-1.286.355.355,0,0,0,.23-.606Z" transform="translate(-55.592 -28.905)" fill="#ff94ab" opacity="0.77"/>
      <path id="Trazado_147020" data-name="Trazado 147020" d="M265.4,265.39c.084-.1,0-.293-.157-.2-5.718,4.014-10.181,17.164-.784,19.975a.512.512,0,0,0,.491-.847c-2.582-3.063-4.746-5.226-4.181-9.543A18.71,18.71,0,0,1,265.4,265.39Z" transform="translate(-52.974 -34.983)" fill="#ff94ab" opacity="0.77"/>
      <path id="Trazado_147021" data-name="Trazado 147021" d="M268.866,295.451c-.063-.052-.178,0-.115.094a13.693,13.693,0,0,1,3.031,7.934c.063,2.425-.784,4.714-.836,7.1a.387.387,0,0,0,.711.188C274.636,305.9,273.026,298.994,268.866,295.451Z" transform="translate(-52.534 -33.612)" fill="#ff94ab" opacity="0.77"/>
      <path id="Trazado_147022" data-name="Trazado 147022" d="M280.184,297.54h-.094c1.192,4.307,2.613,8.362,3.136,12.868.387,3.606,0,7.38,1.045,10.881a.282.282,0,0,0,.533,0C286.728,314.024,284.585,303.634,280.184,297.54Z" transform="translate(-52.02 -33.517)" fill="#ff94ab" opacity="0.77"/>
      <path id="Trazado_147023" data-name="Trazado 147023" d="M300.432,355.492a.379.379,0,1,0-.732.2,17.841,17.841,0,0,1,.575,4.275c0,1.3-.293,2.6-.209,3.878a.355.355,0,0,0,.659.178C302.418,361.764,301.279,357.875,300.432,355.492Z" transform="translate(-51.132 -30.905)" fill="#ff94ab" opacity="0.77"/>
      <path id="Trazado_147024" data-name="Trazado 147024" d="M297.124,274.6c.052-.073,0-.136-.1-.1-2.624,1.129-4.035,6.941-1.16,8.54.167.094.46-.073.366-.293A7.453,7.453,0,0,1,297.124,274.6Z" transform="translate(-51.378 -34.561)" fill="#ff94ab" opacity="0.77"/>
      <path id="Trazado_147025" data-name="Trazado 147025" d="M294.1,266.388c-2.749-2.509-7.212-3.721-10.871-3.868v.052c3.544,1.338,7.087,3.136,10.735,4.066a.146.146,0,0,0,.136-.251Z" transform="translate(-51.878 -35.103)" fill="#ff94ab" opacity="0.77"/>
      <path id="Trazado_147026" data-name="Trazado 147026" d="M171.382,270.273a.1.1,0,0,0-.2,0c-1.045,9.993-.084,20.341-3.5,29.968-2.54,7.139-7.537,13.16-9.962,20.341-2.937,8.7-1.537,18.042,7.484,22.076.293.125.648-.23.366-.481-14.174-12.083-2.6-25.516,3.031-38.477C173.211,293.081,172.218,281.541,171.382,270.273Z" transform="translate(-57.625 -34.755)" fill="#a12252" opacity="0.36"/>
      <path id="Trazado_147027" data-name="Trazado 147027" d="M180.71,371.892c-7.944-3.962-14.341-6.554-19.139-14.634-4.275-7.192-5.885-15.951-6.334-24.178h-.094c-.47,10.453,1.693,21.47,8.362,29.843,4.087,5.132,9.063,7.108,14.812,10.035,9.408,4.787,14.906,12.314,18.439,22.139.157.449.93.429.888-.115C196.808,385.261,189.282,376.146,180.71,371.892Z" transform="translate(-57.682 -31.907)" fill="#a12252" opacity="0.36"/>
      <path id="Trazado_147028" data-name="Trazado 147028" d="M195.429,395.913a.073.073,0,1,0-.146,0c-.742,10.453,6.5,19.338,14.55,25.233,4.181,3.063,8.916,5.227,13.15,8.268,7.474,5.32,12.376,11.707,18.031,18.815a.125.125,0,0,0,.209-.115C232.62,424.638,197.791,422.85,195.429,395.913Z" transform="translate(-55.863 -29.065)" fill="#a12252" opacity="0.36"/>
      <path id="Trazado_147029" data-name="Trazado 147029" d="M186.107,405.237c-4.693-4.777-7.223-8.916-6.69-15.753.366-4.756,1.662-9.408,1.118-14.174h-.052c-1.672,10.327-5.76,23.916,5.226,30.408a.312.312,0,0,0,.4-.481Z" transform="translate(-56.628 -29.995)" fill="#a12252" opacity="0.36"/>
      <path id="Trazado_147030" data-name="Trazado 147030" d="M200.51,394.35c4.516,5.091,9.857,6.084,16.474,5.885,11.415-.345,20.1-3,27.847,7.777.261.355.972.157.784-.335C238.015,388.35,213.1,405.921,200.51,394.35Z" transform="translate(-55.624 -29.132)" fill="#a12252" opacity="0.36"/>
      <path id="Trazado_147031" data-name="Trazado 147031" d="M303.2,351.9c-3.209-4.955-7.4-8.969-10.965-13.641-5.53-7.317-4.955-14.833-6.2-23.2,0-.063-.094,0-.094,0-.272,9.481-1.108,16.369,4.735,24.376,9.23,12.669,20.477,22.829,15.763,40.066a.574.574,0,0,0,1.045.429C312.374,370.451,308.695,360.385,303.2,351.9Z" transform="translate(-51.764 -32.724)" fill="#a12252" opacity="0.36"/>
      <path id="Trazado_147032" data-name="Trazado 147032" d="M286.362,302.625c-2.749-5.979-8.362-8.854-13.442-12.543-4.181-3.084-9.46-7.777-9.188-13.589.334-7.317,7.881-9.7,13.662-11.2a.052.052,0,0,0,0-.1c-7.777-.711-16.725,4.725-15.418,13.442,1.693,11.634,16.725,16.725,23.718,24.6C286.049,303.492,286.55,302.99,286.362,302.625Z" transform="translate(-52.846 -34.985)" fill="#a12252" opacity="0.36"/>
      <path id="Trazado_147033" data-name="Trazado 147033" d="M313.474,268.291c.084,0,.063-.136,0-.146-7.4-.889-14.226,3.408-15.962,10.7-1.516,6.376,3.282,11.059,8.289,14.373.251.167.481-.157.376-.387-2.216-4.85-8.362-6.617-7.317-12.878C300.22,271.96,306.68,269.985,313.474,268.291Z" transform="translate(-51.243 -34.853)" fill="#a12252" opacity="0.36"/>
      <path id="Trazado_147034" data-name="Trazado 147034" d="M261.265,262.924c-1.7.753-3.136,2.091-4.766,2.9-2.958,1.463-6.429,1.777-9.659,2.091V268c3.355.272,6.355.355,9.544-.878,3.345-1.3,5.948-4.516,9.638-2.091a.387.387,0,0,0,.564-.429C265.687,262.14,263.523,261.921,261.265,262.924Z" transform="translate(-53.526 -35.11)" fill="#a12252" opacity="0.36"/>
      <path id="Trazado_147035" data-name="Trazado 147035" d="M275.141,303.808c-.449-4.317-2.937-9.606-6.648-11.948-.052,0-.094,0-.063.073,3.449,4.411,6.815,11.122,4.307,16.662-1.233,2.728-3.638,5.007-2.99,8.153a.345.345,0,0,0,.638.084C272.319,312.985,275.6,308.313,275.141,303.808Z" transform="translate(-52.548 -33.774)" fill="#a12252" opacity="0.36"/>
      <path id="Trazado_147036" data-name="Trazado 147036" d="M105.837,302.2h-.052c-.2,5.55.868,11.07.659,16.61-.115,3.052-.617,6.272-2.854,8.5-2.927,2.989-7.056,2.665-10.8,3.585-.345.084-.366.669,0,.732,5.822,1.045,12.408-1.7,14.153-7.662C108.973,317.022,106.171,309.193,105.837,302.2Z" transform="translate(-60.515 -33.306)" fill="#a12252" opacity="0.36"/>
      <path id="Trazado_147037" data-name="Trazado 147037" d="M134.045,266.185a.1.1,0,0,0-.2-.052c-4.871,15.345,5.164,35.833-8.791,47.644-.324.261,0,.774.387.669C142.334,309.9,131.683,277.819,134.045,266.185Z" transform="translate(-59.047 -34.942)" fill="#a12252" opacity="0.36"/>
      <path id="Trazado_147038" data-name="Trazado 147038" d="M155.278,278.2c-8.592-2.038-12.69,4.735-13.746,12.293-1.463,10.526-4.913,37.787-21.836,30.993-.146-.063-.209.146-.1.23,9.125,6.711,17.049-4.338,20.5-11.916a41.508,41.508,0,0,0,3.387-13.338c.324-3.136.251-6.554,1.254-9.575,1.84-5.54,5.467-6.439,10.547-8a.366.366,0,0,0,0-.69Z" transform="translate(-59.291 -34.41)" fill="#a12252" opacity="0.36"/>
      <path id="Trazado_147039" data-name="Trazado 147039" d="M111.859,310.646c-.282-.324-.753,0-.774.324-.167,2.185.669,4.181.711,6.376a16.182,16.182,0,0,1-1.965,8.091c-2.854,5.31-7.578,7.422-12.857,9.627-.125.052-.125.261,0,.251a18.177,18.177,0,0,0,14.477-8.916C113.887,322.217,115.288,314.6,111.859,310.646Z" transform="translate(-60.318 -32.929)" fill="#a12252" opacity="0.36"/>
      <path id="Trazado_147040" data-name="Trazado 147040" d="M170.36,247.511c-4.181,1.808-4.422,5.665-3.888,9.794.376,2.927,1.15,5.864.972,8.843-.22,3.7-2.331,6.512-3.941,9.732a.533.533,0,0,0,.836.638,13.735,13.735,0,0,0,5.4-10.369c.355-6.428-3.742-12.721.763-18.439a.125.125,0,0,0-.146-.2Z" transform="translate(-57.303 -35.783)" fill="#a12252" opacity="0.36"/>
      <path id="Trazado_147041" data-name="Trazado 147041" d="M179.267,239.229c-.272-2.875-2.927-6.146-6.115-5.08a.115.115,0,0,0,0,.2c2.321,1.453,4.672,2.268,4.432,5.519a6.983,6.983,0,0,1-1.192,3.314c-.7,1.045-1.871,1.61-2.5,2.686a.46.46,0,0,0,.4.679C177.605,246.912,179.529,241.821,179.267,239.229Z" transform="translate(-56.866 -36.397)" fill="#a12252" opacity="0.36"/>
      <path id="Trazado_147042" data-name="Trazado 147042" d="M142.865,240.34c-.073,0-.146.063-.084.125,3.3,3.345,7.725,6.115,8.362,11.185.669,5.676-2.645,9.627-7.4,12.115a.376.376,0,0,0,.2.7c5.415.324,8.707-5.728,9-10.505C153.338,246.873,148.018,243.81,142.865,240.34Z" transform="translate(-58.24 -36.107)" fill="#a12252" opacity="0.36"/>
      <path id="Trazado_147043" data-name="Trazado 147043" d="M158.228,57.849c-3.052-1.568-8.247,1.411-10.882,2.927-3.376,1.944-6.983,4.62-7.986,8.571a.408.408,0,0,0,.784.22c1.39-3.774,5.352-6.272,8.8-8a29.823,29.823,0,0,1,5.519-2.091,15.157,15.157,0,0,0,3.763-1.045.355.355,0,0,0,0-.585Z" transform="translate(-58.394 -44.393)" fill="#a12252" opacity="0.36"/>
      <path id="Trazado_147044" data-name="Trazado 147044" d="M194.234,57.626c-.951-2.655-5.226-3.355-7.6-2.655a7.4,7.4,0,0,0-4.85,5.226,8.571,8.571,0,0,0,1.244,7.317c1.589,2.091,5,3.784,7.578,2.645h0c-2.091-1.213-4.474-1.359-6.052-3.5a6.616,6.616,0,0,1-.9-5.707,5.582,5.582,0,0,1,3.523-3.972c2.53-.763,4.275,1.265,6.648,1.254a.418.418,0,0,0,.408-.606Z" transform="translate(-56.487 -44.514)" fill="#a12252" opacity="0.36"/>
      <path id="Trazado_147045" data-name="Trazado 147045" d="M232.211,48.71c-2.341-1.892-13.787-5.017-12.909.847.638,4.233,6.188,4.181,9.408,4.411.178,0,.209-.251,0-.293-2.216-.617-6.334-1.244-7.568-3.439-1.495-2.665,3.209-2.4,4.672-2.153,2.091.345,3.993,1.453,6.084,1.275C232.232,49.327,232.494,48.94,232.211,48.71Z" transform="translate(-54.775 -44.902)" fill="#a12252" opacity="0.36"/>
      <path id="Trazado_147046" data-name="Trazado 147046" d="M309.7,161.679a.742.742,0,0,0-1.223.324,10.452,10.452,0,0,0,.387,6.658c.585,1.808,1.3,4.369,2.9,5.561a.237.237,0,0,0,.376-.209c.125-1.735-1.045-3.533-1.61-5.111a11.8,11.8,0,0,1-.9-5.31c2.551,2.613,3.366,5.749,5.373,8.885a.136.136,0,0,0,.24-.094C314.6,168.494,312.814,164.167,309.7,161.679Z" transform="translate(-50.751 -39.679)" fill="#a12252" opacity="0.36"/>
      <path id="Trazado_147047" data-name="Trazado 147047" d="M321.273,209a.669.669,0,0,0-.8.46,10.453,10.453,0,0,0,.491,5.7c.533,1.526,1.139,3.5,2.582,4.369a.334.334,0,0,0,.5-.282c0-1.495-1.045-2.812-1.537-4.181a12.3,12.3,0,0,1-.784-4.652,8.133,8.133,0,0,1,3.491,1.934.171.171,0,1,0,.272-.209A5.676,5.676,0,0,0,321.273,209Z" transform="translate(-50.2 -37.528)" fill="#a12252" opacity="0.36"/>
      <path id="Trazado_147048" data-name="Trazado 147048" d="M325.329,225.723c-1.9-.261-3.774.523-5.655.836-3.293.554-6.481.564-9.47-1.129a.052.052,0,1,0-.063.084,10.066,10.066,0,0,0,6.962,2.509c2.561,0,6.1-.418,8.3-1.746C325.6,226.152,325.6,225.754,325.329,225.723Z" transform="translate(-50.66 -36.783)" fill="#a12252" opacity="0.36"/>
      <path id="Trazado_147049" data-name="Trazado 147049" d="M318.456,188.305c-4.4-1.589-7.61.282-11.206,2.948-7.317,5.425-12.951,8.676-22.348,8.916a.1.1,0,0,0,0,.188c11.425,7.62,23.373-8.289,33.6-10.735a.69.69,0,0,0-.042-1.317Z" transform="translate(-51.804 -38.491)" fill="#a12252" opacity="0.36"/>
      <path id="Trazado_147050" data-name="Trazado 147050" d="M243.169,100.865c-8.268-12.627-14.341-27.01-5.226-40.651,0-.052,0-.084-.063-.073-16.045,6.794-5.676,33.982,4.641,41.341C242.918,101.805,243.409,101.23,243.169,100.865Z" transform="translate(-54.308 -44.269)" fill="#a12252" opacity="0.36"/>
      <path id="Trazado_147051" data-name="Trazado 147051" d="M203.565,85.7c-2.352-1.045-5.174-1.589-6-4.411s.6-5.707,1.829-8.038c.188-.334-.293-.763-.554-.429-2.007,2.561-3.7,6.042-2.739,9.408a6.209,6.209,0,0,0,7.39,4.1.335.335,0,0,0,.073-.627Z" transform="translate(-55.836 -43.7)" fill="#a12252" opacity="0.36"/>
      <path id="Trazado_147052" data-name="Trazado 147052" d="M171.392,94.006c-6.136.125-9.544-3.983-12.376-9.01-3.659-6.533-3.282-12.742-1.045-19.641a.073.073,0,0,0-.125-.073c-5.916,6.617-4.683,15.847-.523,23,2.749,4.767,8.937,11.822,14.634,7.317C172.709,95.082,172.145,94,171.392,94.006Z" transform="translate(-57.74 -44.037)" fill="#a12252" opacity="0.36"/>
      <path id="Trazado_147053" data-name="Trazado 147053" d="M233.522,149.362c-4.787-13.307-21.2-26.718-33.6-13.589-14.038,14.812-11.206,41.477-6.157,59.132a.23.23,0,0,0,.429-.115c.167-15.847-2.822-31.725,3.533-46.86,2.8-6.638,7.787-14.833,16.4-13.056,6.993,1.442,13.589,10.077,18.021,15.282a.815.815,0,0,0,1.369-.794Z" transform="translate(-56.117 -41.087)" fill="#a12252" opacity="0.36"/>
      <path id="Trazado_147054" data-name="Trazado 147054" d="M245.866,100.3c-.052,0-.157,0-.125.073,2.028,5.7,5.3,10.913,7.986,16.327,3.01,6.031,4.7,13.024,8.31,18.679a1.171,1.171,0,0,0,2.164-.585C265.695,123.077,254.061,107.732,245.866,100.3Z" transform="translate(-53.576 -42.45)" fill="#a12252" opacity="0.36"/>
      <path id="Trazado_147055" data-name="Trazado 147055" d="M325.006,349.566c-.669-20.645,1.976-50.864-10.934-68.592-.136-.188-.523-.084-.418.178,8.739,21.136,7.223,45.993,7.683,68.414.251,12.345-.376,24.533-1.129,36.846-.857,14.164-5.937,26.132-8.488,39.857-.1.564.753,1.045,1.045.429,4.6-10.808,9.794-21.564,10.923-33.387A341.421,341.421,0,0,0,325.006,349.566Z" transform="translate(-50.587 -34.271)" fill="#a12252" opacity="0.36"/>
      <path id="Trazado_147056" data-name="Trazado 147056" d="M175.864,133.371c-3.732-3.888-9.868-8.6-15.042-4.359-6.585,5.4-7.547,17.592-4.923,25.087.125.345.7.429.784,0,1.3-6.868-.46-13.746,3.387-20.132,2.174-3.606,4.84-5.456,8.969-3.627,2.237.983,4.254,2.436,6.491,3.439a.282.282,0,0,0,.334-.408Z" transform="translate(-57.706 -41.225)" fill="#004056" opacity="0.34"/>
      <path id="Trazado_147057" data-name="Trazado 147057" d="M165.405,166.794c-10.453,6.533-29.373,8.446-37.191,18.69-3.679,4.819-3.334,11.038-3.293,16.777.073,10.265,0,20.906,1.819,31.076a1.348,1.348,0,0,0,2.582,0,105.323,105.323,0,0,0,1.181-23.373c-.345-8.185-4.181-17.54,1.463-24.5,8.017-9.878,24.428-9.6,34.171-17.77C166.66,167.3,165.98,166.428,165.405,166.794Z" transform="translate(-59.049 -39.442)" fill="#004056" opacity="0.34"/>
      <path id="Trazado_147058" data-name="Trazado 147058" d="M122.922,119.092c0-7.463-.972-15.355-5.425-21.533-.251-.334-.868-.251-.847.23.3,8.206,1.118,16.15.774,24.387-.261,6.491-1.474,12.993,1.15,19.066a.784.784,0,0,0,1.359,0C123.058,134.7,122.932,126.252,122.922,119.092Z" transform="translate(-59.422 -42.583)" fill="#004056" opacity="0.34"/>
      <path id="Trazado_147059" data-name="Trazado 147059" d="M290.192,155.793c-9.951,8.582-20.373,13.746-32.08,19.453-9.408,4.61-18.481,10.108-23.979,19.369-6.1,10.286-9.794,23.561-11.718,35.258-2.237,13.589-.449,29.362-9.617,40.672-.575.711.146,1.892,1.045,1.348,8.436-5.143,10.254-14.634,11.5-23.833,2.143-15.679,4.767-30.606,11.153-45.219s18.888-20.341,32.185-27.324c8.833-4.641,17.958-9.92,21.951-19.484C290.725,155.782,290.37,155.646,290.192,155.793Z" transform="translate(-55.077 -39.939)" fill="#004056" opacity="0.34"/>
      <path id="Trazado_147060" data-name="Trazado 147060" d="M207.934,139.875c-.136-.22-.429-.1-.47.136-.585,4.411,1.787,8.739,3.2,12.794a23,23,0,0,1,.679,15,.721.721,0,0,0,1.045.8C222.662,163.582,211.739,145.865,207.934,139.875Z" transform="translate(-55.313 -40.663)" fill="#004056" opacity="0.34"/>
      <path id="Trazado_147061" data-name="Trazado 147061" d="M211.192,137.75c-3.031-5.07-7.976,5.289-8.582,7.181a57.574,57.574,0,0,0-2.6,22.139.481.481,0,1,0,.962,0c.617-5.352,1.192-10.672,2.321-15.951a32.17,32.17,0,0,1,2.875-9.031c1.38-2.415,2.812-2.31,4.8-3.648a.512.512,0,0,0,.23-.69Z" transform="translate(-55.655 -40.816)" fill="#004056" opacity="0.34"/>
      <path id="Trazado_147062" data-name="Trazado 147062" d="M297.384,242.933a.711.711,0,0,0-1.286-.167c-10.986,17.268-41.279-.69-56.979-2.9h0C245.58,243.267,303.207,264.424,297.384,242.933Z" transform="translate(-53.875 -36.129)" fill="#a12252" opacity="0.36"/>
      <path id="Trazado_147063" data-name="Trazado 147063" d="M310.855,255.9a.742.742,0,0,0-.7-.544c-1.223,0-1.505.983-2.53,1.443-1.254.564-2.509-.188-3.523-.909a33.718,33.718,0,0,1-5.226-5.226c0-.052-.157,0-.125.073.983,3.021,2.864,6.272,5.686,7.882a4.808,4.808,0,0,0,4.129.5C309.9,258.605,311.315,257.393,310.855,255.9Z" transform="translate(-51.175 -35.641)" fill="#a12252" opacity="0.36"/>
      <path id="Trazado_147064" data-name="Trazado 147064" d="M298.68,220a.355.355,0,0,0-.251.6c1.85,1.568,4.808,2.7,5.54,5.226s-1.045,5.122-2.592,6.92c-3,3.512-7.035,5.53-10.777,8.07h0c5.509-.324,11.916-5.227,14.5-10C307.879,225.728,304.283,220.334,298.68,220Z" transform="translate(-51.544 -37.029)" fill="#a12252" opacity="0.36"/>
    </g>
  </g>
</svg>
