<svg xmlns="http://www.w3.org/2000/svg" xmlns:xlink="http://www.w3.org/1999/xlink" width="179" height="179" viewBox="0 0 179 179">
  <defs>
    <filter id="Elipse_4062" x="0" y="0" width="179" height="179" filterUnits="userSpaceOnUse">
      <feOffset dy="3" input="SourceAlpha"/>
      <feGaussianBlur stdDeviation="3" result="blur"/>
      <feFlood flood-opacity="0.161"/>
      <feComposite operator="in" in2="blur"/>
      <feComposite in="SourceGraphic"/>
    </filter>
  </defs>
  <g id="Grupo_163043" data-name="Grupo 163043" transform="translate(-276 -7402)">
    <g id="Grupo_73307" data-name="Grupo 73307" transform="translate(0 6545.727)">
      <g transform="matrix(1, 0, 0, 1, 276, 856.27)" filter="url(#Elipse_4062)">
        <circle id="Elipse_4062-2" data-name="Elipse 4062" cx="80.5" cy="80.5" r="80.5" transform="translate(9 6)" fill="#fff"/>
      </g>
    </g>
    <g id="Grupo_157033" data-name="Grupo 157033" transform="translate(300 7425)">
      <g id="Grupo_157032" data-name="Grupo 157032" transform="translate(0 0)">
        <path id="Trazado_193171" data-name="Trazado 193171" d="M333.5,103.731a1.937,1.937,0,1,0,1.938-1.938A1.937,1.937,0,0,0,333.5,103.731Z" transform="translate(-314.994 -10.955)" fill="#7e5ee3"/>
        <ellipse id="Elipse_5002" data-name="Elipse 5002" cx="2.355" cy="2.355" rx="2.355" ry="2.355" transform="translate(84.698 95.714)" fill="#7e5ee3"/>
        <path id="Trazado_193172" data-name="Trazado 193172" d="M335.836,100.628a4.136,4.136,0,0,0-.753,8.2v4.3a3.766,3.766,0,1,0,1.5,0v-4.3a4.124,4.124,0,0,0,3.144-5.446l9.612-5.55a4.129,4.129,0,0,0,6.289,0l9.612,5.55a4.121,4.121,0,0,0,3.144,5.446v11.1a4.133,4.133,0,1,0,1.5,0v-11.1a4.126,4.126,0,0,0,3.155-5.417l9.607-5.573a4.127,4.127,0,0,0,6.116.178l9.756,5.426a4.13,4.13,0,0,0,3.167,5.385v9.594a3.765,3.765,0,0,0-2.383,5.775l-2.934,2.951a2.633,2.633,0,1,0,1.067,1.061l2.934-2.952a3.751,3.751,0,0,0,4.134,0l3.043,3.061a2.659,2.659,0,0,0-.153.428,51.645,51.645,0,0,1-4.893,3.177c-.52.328-1.079.579-1.615.875s-1.078.577-1.637.82l-1.643.8-1.673.71a58.74,58.74,0,0,1-6.805,2.291c-.568.171-1.142.313-1.718.435s-1.144.273-1.718.384c-1.152.191-2.29.435-3.431.581-1.138.192-2.275.284-3.4.394-.564.066-1.125.064-1.683.1-.559.015-1.118.087-1.671.078-1.107.017-2.208.053-3.287-.006-.54-.023-1.083-.018-1.614-.065s-1.062-.081-1.59-.114c-1.057-.054-2.082-.221-3.106-.322l-2.985-.485a63.238,63.238,0,0,1-10.558-2.941c-.769-.3-1.534-.572-2.248-.884s-1.4-.619-2.074-.9c-.661-.3-1.282-.622-1.889-.914s-1.181-.581-1.714-.878l-1.534-.826-1.332-.78-.731-.43a58.253,58.253,0,0,0,11.938,8.086,56.93,56.93,0,0,0,76.489-76.487,58.32,58.32,0,0,0-8.077-11.93c.138.233.279.473.428.729l.774,1.323.828,1.534c.3.532.589,1.106.88,1.714s.612,1.226.916,1.887c.287.671.586,1.365.906,2.074s.581,1.478.885,2.247a63.208,63.208,0,0,1,2.947,10.559q.238,1.463.487,2.986c.1,1.024.268,2.049.323,3.107a58.873,58.873,0,0,1,.186,6.494c.007.553-.06,1.112-.082,1.671s-.033,1.121-.1,1.685c-.11,1.127-.2,2.264-.392,3.4-.021.178-.05.356-.077.533a3.769,3.769,0,0,0-2.978,2.942h-3.966a4.138,4.138,0,0,0-3.314-3.314v-11.1a4.136,4.136,0,1,0-3.9-6.75l-9.612-5.549a4.122,4.122,0,0,0-3.143-5.447V58.629a3.76,3.76,0,0,0,2.6-5.406l4.787-3.83a2.367,2.367,0,1,0-.939-1.175l-4.786,3.829a3.76,3.76,0,0,0-4.82,0l-4.786-3.829a2.354,2.354,0,1,0-.94,1.175l4.787,3.83a3.76,3.76,0,0,0,2.6,5.406v3.612a4.125,4.125,0,0,0-3.144,5.447l-9.612,5.549a4.129,4.129,0,0,0-6.5.269l-9.519-5.522a4.131,4.131,0,0,0-3.028-5.743v-11.1a4.138,4.138,0,1,0-1.5,0v11.1a4.136,4.136,0,0,0-3.06,5.678l-9.651,5.368a4.138,4.138,0,0,0-6.38,0l-9.651-5.368a4.163,4.163,0,1,0-.835,1.257l9.756,5.426a4.13,4.13,0,0,0,3.167,5.385v11.1a4.125,4.125,0,0,0-3.144,5.447l-9.612,5.549A4.127,4.127,0,0,0,335.836,100.628Zm2.766,16.194a2.767,2.767,0,1,1-2.766-2.768A2.767,2.767,0,0,1,338.6,116.822Zm-1.027-9.564a3.039,3.039,0,0,0-4.232-4.232,3.04,3.04,0,1,1,4.232,4.232Zm57.747,24.132a1.645,1.645,0,1,0-2.11-2.109,1.932,1.932,0,1,1,2.11,2.109ZM337.576,68.8a3.039,3.039,0,0,0-4.232-4.232,3.04,3.04,0,1,1,4.232,4.232Zm34.607,55.2a3.036,3.036,0,0,1-1.3,2.491,3.039,3.039,0,0,0-4.232-4.232,3.04,3.04,0,0,1,5.534,1.741Zm-1.3-16.738a3.039,3.039,0,0,0-4.232-4.232,3.04,3.04,0,1,1,4.232,4.232Zm16.653-9.615a3.039,3.039,0,0,0-4.232-4.232,3.04,3.04,0,1,1,4.232,4.232Zm12.421,5.382a3.039,3.039,0,1,1,4.231,4.232,3.038,3.038,0,0,0-4.231-4.232Zm2.491,21.856a2.767,2.767,0,1,1,2.768-2.766A2.767,2.767,0,0,1,402.447,124.881ZM429.93,92.544l-.183,1a1.928,1.928,0,0,0-.555,2.65c-.071.331-.152.661-.238.99a2.747,2.747,0,0,1,.977-4.637ZM423.166,95.9h3.966a3.754,3.754,0,0,0,1.532,2.317,60.728,60.728,0,0,1-2.172,6.379q-.356.834-.711,1.674l-.795,1.645c-.257.553-.538,1.094-.828,1.633s-.546,1.1-.874,1.616a60.123,60.123,0,0,1-4.1,6.157,56.718,56.718,0,0,1-4.914,5.6l-1.4,1.346c-.246.23-.531.526-.743.7l-.656.567c-.454.378-.836.762-1.341,1.144l-.194.153h-.012a2.618,2.618,0,0,0-1.348.374l-2.995-3.011a3.765,3.765,0,0,0-2.381-5.775v-9.594a4.126,4.126,0,0,0,3.166-5.385l9.758-5.426a4.131,4.131,0,0,0,7.043-2.116Zm-1.024-.753a3.038,3.038,0,0,1-1.3,2.493,3.039,3.039,0,0,0-4.232-4.232,3.04,3.04,0,0,1,5.534,1.74ZM419.1,72.88a3.04,3.04,0,0,1,1.74,5.534,3.039,3.039,0,0,0-4.232-4.232A3.038,3.038,0,0,1,419.1,72.88ZM399.679,54.938a2.768,2.768,0,1,1,2.768,2.768A2.767,2.767,0,0,1,399.679,54.938Zm2.768,8.328a3.039,3.039,0,0,1,1.74,5.533,3.038,3.038,0,0,0-4.231-4.232A3.033,3.033,0,0,1,402.447,63.267ZM389.691,74.541l9.612-5.55a4.129,4.129,0,0,0,6.289,0l9.612,5.55a4.121,4.121,0,0,0,3.143,5.446v11.1a4.137,4.137,0,0,0-3.059,5.678l-9.651,5.368a4.138,4.138,0,0,0-6.38,0L389.6,96.763a4.136,4.136,0,0,0-3.059-5.678v-11.1a4.124,4.124,0,0,0,3.144-5.446Zm-3.9-1.661a3.04,3.04,0,0,1,1.74,5.534,3.039,3.039,0,0,0-4.232-4.232A3.036,3.036,0,0,1,385.795,72.88ZM366.649,45.338a3.04,3.04,0,1,1,4.232,4.232,3.039,3.039,0,0,0-4.232-4.232Zm2.493,17.928a3.039,3.039,0,0,1,1.74,5.533,3.039,3.039,0,0,0-4.232-4.232A3.037,3.037,0,0,1,369.141,63.267ZM356.407,74.6l9.757-5.426a4.13,4.13,0,0,0,5.906.053l9.726,5.643a4.12,4.12,0,0,0,3.246,5.116v11.1a4.124,4.124,0,0,0-3.14,5.456l-9.594,5.565a4.131,4.131,0,0,0-6.311-.023l-9.611-5.55a4.125,4.125,0,0,0-3.144-5.447v-11.1a4.126,4.126,0,0,0,3.166-5.385Zm-4.671-.969a3.023,3.023,0,0,0-1.74.549,3.039,3.039,0,1,1,4.231,4.232,3.039,3.039,0,0,0-2.491-4.781Zm.752,18.477a3.039,3.039,0,0,1,1.74,5.533A3.038,3.038,0,0,0,350,93.411,3.033,3.033,0,0,1,352.488,92.11Z" transform="translate(-315.394 -24.046)" fill="#7e5ee3"/>
        <path id="Trazado_193173" data-name="Trazado 193173" d="M391.863,53.107a1.937,1.937,0,1,0-1.938,1.938A1.937,1.937,0,0,0,391.863,53.107Z" transform="translate(-302.873 -22.215)" fill="#7e5ee3"/>
        <path id="Trazado_193174" data-name="Trazado 193174" d="M403.393,150.919a55.681,55.681,0,0,0,8.534-3.545,59.221,59.221,0,0,0,8.025-4.922l1.885-1.439c.625-.466,1.271-1.054,1.9-1.581l.951-.814c.329-.279.535-.494.81-.743l1.672-1.578a70.61,70.61,0,0,0,6.153-7.225c.913-1.287,1.835-2.571,2.62-3.934.4-.677.815-1.341,1.194-2.027l1.1-2.068a56.15,56.15,0,0,0,3.54-8.534c.6-1.887,1.13-3.78,1.55-5.675a60.166,60.166,0,1,0-39.94,44.084Zm-64.981-20.576a57.546,57.546,0,0,1-9.47-14.792,58.188,58.188,0,0,1-4-12.894,59.762,59.762,0,0,1-.895-8.622c0-2,0-3.062,0-3.062a57.811,57.811,0,0,1,57.81-57.81l3.061,0a59.605,59.605,0,0,1,8.623.9A58.1,58.1,0,0,1,440.7,86.269a59.022,59.022,0,0,1-3.171,24.773,58.819,58.819,0,0,1-35.615,35.616,58.945,58.945,0,0,1-24.759,3.173,57.833,57.833,0,0,1-22.379-6.585A58.546,58.546,0,0,1,338.411,130.343Z" transform="translate(-318.361 -27.484)" fill="#7e5ee3"/>
        <path id="Trazado_193175" data-name="Trazado 193175" d="M324.927,91.748l.057,1.037.109-1.033c.081-.67.13-1.67.324-2.909.088-.62.185-1.306.29-2.052q.2-1.115.44-2.4c.347-1.707.809-3.611,1.394-5.661.3-1.023.667-2.071,1.021-3.159.43-1.065.78-2.2,1.279-3.305l.727-1.7c.257-.567.546-1.128.822-1.7.538-1.154,1.189-2.282,1.8-3.451a70.864,70.864,0,0,1,4.488-6.782A62.332,62.332,0,0,1,349.506,46.8a71.623,71.623,0,0,1,6.782-4.486c1.169-.615,2.3-1.262,3.452-1.8.573-.275,1.134-.565,1.7-.821l1.7-.727c1.11-.5,2.241-.85,3.305-1.277,1.089-.355,2.136-.726,3.159-1.022,2.049-.584,3.955-1.046,5.661-1.395l2.4-.44,2.057-.291c1.244-.194,2.232-.244,2.9-.325l1.033-.11-1.035-.056-1.248-.06c-.493-.035-1.059-.04-1.692-.023L377.581,34l-2.475.178c-.886.065-1.818.215-2.81.33s-2.013.359-3.094.548c-1.075.218-2.18.51-3.334.785l-1.729.524c-.587.175-1.182.358-1.77.583a55.393,55.393,0,0,0-7.3,3.129,60.28,60.28,0,0,0-7.234,4.483,55.879,55.879,0,0,0-12.4,12.4,60.767,60.767,0,0,0-4.48,7.234,55.683,55.683,0,0,0-3.129,7.3c-.225.589-.408,1.183-.583,1.77s-.352,1.163-.523,1.73c-.275,1.153-.568,2.258-.786,3.332-.188,1.082-.434,2.1-.548,3.1s-.267,1.924-.33,2.809-.125,1.71-.18,2.475c-.011.768-.022,1.473-.032,2.11s-.012,1.2.023,1.688S324.911,91.409,324.927,91.748Z" transform="translate(-316.921 -26.044)" fill="#7e5ee3"/>
      </g>
    </g>
  </g>
</svg>
