<svg xmlns="http://www.w3.org/2000/svg" width="85" height="85" viewBox="0 0 85 85">
  <g id="Grupo_155295" data-name="Grupo 155295" transform="translate(-390 -2851.756)">
    <circle id="Elipse_4087" data-name="Elipse 4087" cx="42.5" cy="42.5" r="42.5" transform="translate(390 2851.756)" fill="#00bcd4"/>
    <g id="Grupo_157052" data-name="Grupo 157052" transform="translate(397 2858.97)">
      <path id="Trazado_193182" data-name="Trazado 193182" d="M205.241,325.082A35.517,35.517,0,1,0,240.758,360.6,35.552,35.552,0,0,0,205.241,325.082Zm0,67.935a32.4,32.4,0,1,1,32.4-32.4A32.449,32.449,0,0,1,205.241,393.017Z" transform="translate(-169.724 -325.082)" fill="#fff"/>
      <path id="Trazado_193183" data-name="Trazado 193183" d="M232.161,349.46a9.783,9.783,0,0,0-17.019-2.834,9.794,9.794,0,0,0-16.552,6.8,9.795,9.795,0,0,0-5.045,15.493c-4.2,4.235-4.656,10.853-.9,15.119a10.414,10.414,0,0,0,7.863,3.488c.125,0,.249-.016.374-.016a10.163,10.163,0,0,0,10.386,9.545,11.765,11.765,0,0,0,6.929-2.289,10.514,10.514,0,0,0,6.321,2.056,11.82,11.82,0,0,0,7.833-3.021,11.984,11.984,0,0,0,2.413-2.927h.078a9.818,9.818,0,0,0,9.81-9.81,9.589,9.589,0,0,0-1.946-5.761,10.646,10.646,0,0,0-.825-10.386,9.674,9.674,0,0,0,1.915-5.823,9.815,9.815,0,0,0-9.809-9.794A8.9,8.9,0,0,0,232.161,349.46Zm-9.28-3.534A6.712,6.712,0,0,1,229.5,351.7a5.311,5.311,0,0,1,.078.919,6.572,6.572,0,0,1-.529,2.6v.031a.763.763,0,0,0-.046.109,6.7,6.7,0,0,1-3.753,3.535,6.3,6.3,0,0,1-2.382.452,6.614,6.614,0,0,1-5.2-2.507,9.586,9.586,0,0,0-.576-7.536,6.674,6.674,0,0,1,5.792-3.379ZM238.732,365.9c.016.015.031.046.062.062s.015.016.015.016a7.371,7.371,0,0,1,1.448,6.929,9.734,9.734,0,0,0-14.247,3.908.48.48,0,0,1-.078-.093,8.535,8.535,0,0,1-.67-1.043c-.016-.031-.047-.047-.062-.078a1.539,1.539,0,0,0-.187-.234c-.062-.062-.109-.125-.171-.187a8.511,8.511,0,0,1,.576-6.836c.015-.031.078-.171.093-.2.031-.078.047-.156.078-.218a2.492,2.492,0,0,0,.2-.2,9.464,9.464,0,0,1,2.429-2.538,9.157,9.157,0,0,1,2.663-1.292,7.52,7.52,0,0,1,7.848,2.009Zm-19.682,11.04a10.542,10.542,0,0,0-6.664-2.071,9.844,9.844,0,0,0-.327-1.915,6.793,6.793,0,0,1,3.893-5.216,7.171,7.171,0,0,1,6.275.218,11.275,11.275,0,0,0-.529,7.536,11.788,11.788,0,0,0-2.647,1.448Zm-8-13.8a9.62,9.62,0,0,0,4.749-3.005c.109-.124.2-.28.311-.42a9.735,9.735,0,0,0,6.773,2.725,10.259,10.259,0,0,0,1.853-.171,9.678,9.678,0,0,0,.545,1.308,11.489,11.489,0,0,0-1.542,1.7,10.275,10.275,0,0,0-9.093-.374,9.627,9.627,0,0,0-4.547,4.2c-.093-.109-.156-.218-.249-.327-.156-.171-.311-.311-.467-.467a9.71,9.71,0,0,0,1.666-5.169Zm-2.663-16.116a6.707,6.707,0,0,1,6.68,6.711,6.818,6.818,0,0,1-.561,2.678c-.015.031-.031.078-.046.109a7.5,7.5,0,0,1-1.028,1.588,6.556,6.556,0,0,1-2.8,1.915,9.817,9.817,0,0,0-8.891-6.945A6.7,6.7,0,0,1,208.385,347.03Zm-7.132,9.125a6.7,6.7,0,1,1-6.7,6.7A6.7,6.7,0,0,1,201.253,356.155Zm1.635,23.979a11.374,11.374,0,0,0-1.791,4.235,7.316,7.316,0,0,1-6.119-2.4c-2.678-3.052-2.242-7.832.872-10.93a9.745,9.745,0,0,0,11.429-.452c.093.093.187.171.265.264a7.043,7.043,0,0,1,1.37,2.382,7.481,7.481,0,0,1,.405,2.367,15.023,15.023,0,0,0-6.431,4.531Zm2.818,11.382a7.773,7.773,0,0,1-.311-9.529A13.031,13.031,0,0,1,211,378.281c.2-.078.389-.156.529-.218a7.434,7.434,0,0,1,6.727,2.351,7.322,7.322,0,0,1,.934,1.324,6.929,6.929,0,0,1,.67,1.822,8.353,8.353,0,0,1-1.977,7.271,5.9,5.9,0,0,1-.826.857C213.586,394.74,208.494,394.662,205.707,391.516Zm14.761,1.043a11.348,11.348,0,0,0,2.429-9.685,10.165,10.165,0,0,0-.95-2.616,9.869,9.869,0,0,0-.685-1.09,8.883,8.883,0,0,1,1.931-.95c.078.109.156.218.218.311.14.2.311.389.482.592a9.291,9.291,0,0,0,1.214,1.137c-.015.265-.078.514-.078.779a9.775,9.775,0,0,0,6.384,9.171,9.443,9.443,0,0,1-1.137,1.23,8.23,8.23,0,0,1-9.81,1.121Zm14.372-4.8a7.654,7.654,0,0,1-.81-.047,6.686,6.686,0,0,1-5.886-6.649,6.3,6.3,0,0,1,.125-1.214,6.7,6.7,0,1,1,6.571,7.91Zm5.855-28.682a6.689,6.689,0,0,1-1,3.5A10.849,10.849,0,0,0,230,360.9a11.849,11.849,0,0,0-2.117.872c-.078-.187-.156-.389-.218-.592a9.867,9.867,0,0,0,4.266-4.7c.015-.046.031-.078.047-.124a9.675,9.675,0,0,0,.731-3.721v-.094a7.165,7.165,0,0,1,1.308-.14,6.689,6.689,0,0,1,6.68,6.68Z" transform="translate(-181.79 -335.586)" fill="#fff"/>
    </g>
  </g>
</svg>
