<svg xmlns="http://www.w3.org/2000/svg" width="85" height="85" viewBox="0 0 85 85">
  <g id="Grupo_155295" data-name="Grupo 155295" transform="translate(-390 -2851.756)">
    <circle id="Elipse_4087" data-name="Elipse 4087" cx="42.5" cy="42.5" r="42.5" transform="translate(390 2851.756)" fill="#00bcd4"/>
    <g id="Grupo_157053" data-name="Grupo 157053" transform="translate(396.966 2858.367)">
      <path id="Trazado_193186" data-name="Trazado 193186" d="M305.807,83.643A35.517,35.517,0,1,0,270.29,48.126,35.552,35.552,0,0,0,305.807,83.643Zm0-67.92a32.4,32.4,0,1,1-32.4,32.4A32.449,32.449,0,0,1,305.807,15.723Z" transform="translate(-270.29 -12.609)" fill="#fff"/>
      <path id="Trazado_193187" data-name="Trazado 193187" d="M310.324,69.017c2.772-.872,5.279-2.834,7.676-6,1.324-1.759,2.694-2.694,3.94-2.694a2.49,2.49,0,0,1,1.791.747c.343.576-.421,1.76-1.355,2.569l-.265.234c-1.448,1.246-3.239,2.787-3.176,5.169.046,2.133,1.6,3.5,2.849,4.594a5.362,5.362,0,0,1,1.868,2.258,1.99,1.99,0,0,1-1.2,2.056,3.146,3.146,0,0,1-2.974-.5,12.039,12.039,0,0,1-1.62-1.6c-1.23-1.386-2.631-2.943-4.889-3.021a4.688,4.688,0,0,0-3.363,1.339A7.55,7.55,0,0,0,307.49,79.4c-.062,7.178,6.789,12.426,13.235,12.815.327.015.654.031.981.031,5.481,0,11.3-2.756,16.116-7.645A31.611,31.611,0,0,0,346.978,65.5a25.722,25.722,0,0,0-6.836-20.087,21.668,21.668,0,0,0-20.289-6.072,37.236,37.236,0,0,0-9.342,4.188c-.405.234-1.355-.125-2.351-.514-2.009-.763-4.733-1.791-8-.234a16.223,16.223,0,0,0-1.807,1.074,14.078,14.078,0,0,0,11.974,25.163ZM295.283,54.349a11.542,11.542,0,0,1,6.244-8.735c2.071-1,3.752-.343,5.559.327,1.557.592,3.316,1.246,4.983.311a35.272,35.272,0,0,1,8.564-3.877,18.533,18.533,0,0,1,17.315,5.232,22.532,22.532,0,0,1,5.964,17.626,28.5,28.5,0,0,1-8.284,17.206c-4.469,4.547-9.841,6.976-14.683,6.7-4.92-.3-10.355-4.344-10.308-9.685a4.49,4.49,0,0,1,1.168-3.021,1.479,1.479,0,0,1,1.059-.483h.047c.856.031,1.573.763,2.663,1.977a13.541,13.541,0,0,0,2.087,2.025,6.23,6.23,0,0,0,6.041.856,5.072,5.072,0,0,0,3.021-5.637,7.684,7.684,0,0,0-2.849-3.893c-1.106-.965-1.775-1.619-1.791-2.335-.015-.9,1.059-1.838,2.1-2.741l.28-.234c2.367-2.056,3.145-4.625,1.977-6.54a5.472,5.472,0,0,0-4.173-2.242c-1.666-.078-4.157.529-6.711,3.924-1.993,2.631-3.986,4.235-6.119,4.9a11.259,11.259,0,0,1-11.211-2.943,10.808,10.808,0,0,1-2.943-8.72Z" transform="translate(-283.2 -28.112)" fill="#fff"/>
      <path id="Trazado_193188" data-name="Trazado 193188" d="M382.448,105.261a3.84,3.84,0,0,0,.421-.031,4.365,4.365,0,0,0,3.379-2.772,9.749,9.749,0,0,0,.576-3.426l.109-2.414c.031-.794.109-2.631-1.308-3.69a3.375,3.375,0,0,0-4.5.732,12.066,12.066,0,0,0-2.865,5.481,6.156,6.156,0,0,0,.592,3.924A4.252,4.252,0,0,0,382.448,105.261Zm-1.09-5.652a9.44,9.44,0,0,1,2.087-3.846c.031-.031.046-.062.078-.078a.7.7,0,0,1,.264-.187,3.589,3.589,0,0,1,.047,1l-.109,2.413a7.492,7.492,0,0,1-.343,2.367c-.2.467-.561.841-.888.872a1.1,1.1,0,0,1-.919-.607A3.239,3.239,0,0,1,381.358,99.608Z" transform="translate(-334.209 -59.856)" fill="#fff"/>
      <path id="Trazado_193189" data-name="Trazado 193189" d="M319.031,85.511c3.005,0,5.45-2.04,5.45-4.547s-2.445-4.547-5.45-4.547-5.45,2.04-5.45,4.547S316.026,85.511,319.031,85.511Zm0-6c1.37,0,2.335.763,2.335,1.433s-.949,1.432-2.335,1.432c-1.37,0-2.336-.763-2.336-1.432S317.661,79.516,319.031,79.516Z" transform="translate(-295.939 -50.415)" fill="#fff"/>
    </g>
  </g>
</svg>
