<svg xmlns="http://www.w3.org/2000/svg" width="85" height="85" viewBox="0 0 85 85">
  <g id="Grupo_155298" data-name="Grupo 155298" transform="translate(-705 -2851.756)">
    <circle id="Elipse_4087" data-name="Elipse 4087" cx="42.5" cy="42.5" r="42.5" transform="translate(705 2851.756)" fill="#7e5ee3"/>
    <g id="Grupo_156017" data-name="Grupo 156017" transform="translate(716.214 2845.102)">
      <path id="Trazado_191660" data-name="Trazado 191660" d="M97.94,39.187a16.122,16.122,0,0,0-3.029-9.444.879.879,0,0,0-1.43,1.024A14.479,14.479,0,0,1,76.489,52.691c.142-.157.282-.322.42-.5s.256-.337.381-.514a13.271,13.271,0,0,0,11.529-1.314.879.879,0,0,0-.945-1.483,11.516,11.516,0,0,1-9.651,1.256,14.869,14.869,0,0,0,1.531-4.525c.34-2.225-.084-3.875-1.224-4.771-1.017-.8-2.508-.9-4.311-.292a.879.879,0,0,0,.562,1.666,2.958,2.958,0,0,1,2.662.008c1.262.991.668,4.8-1.217,7.869a.874.874,0,0,0-.063.1,10.436,10.436,0,0,1-.637.912,3.7,3.7,0,0,1-2.76,1.746h-.011a6.085,6.085,0,0,1-4.534-3.572,3.7,3.7,0,0,1,1.045-3.1,10.484,10.484,0,0,1,.766-.866A13.618,13.618,0,0,1,71.535,44a.879.879,0,0,0-.836-1.525,11.489,11.489,0,1,1,19.849,4.046A.879.879,0,1,0,91.9,47.648a13.244,13.244,0,1,0-22.67-4c-.156.145-.308.292-.454.44-.171.174-.334.35-.49.528a14.334,14.334,0,0,1-1.053-5.429A14.474,14.474,0,0,1,90.339,27.567q.353.262.69.546a.879.879,0,0,0,1.133-1.345A16.232,16.232,0,0,0,65.475,39.187,16.07,16.07,0,0,0,67.1,46.271a4.7,4.7,0,0,0-.589,3.417c0,.018.01.037.015.055a3.44,3.44,0,0,0-.66.642,3.858,3.858,0,0,0,.469,5.071,11.629,11.629,0,0,1-7.507,9.338,13.392,13.392,0,0,0-8.683,11.048.879.879,0,0,0,.774.973.936.936,0,0,0,.1.005.879.879,0,0,0,.872-.78,11.636,11.636,0,0,1,7.541-9.6A13.388,13.388,0,0,0,67.941,56.5a4.135,4.135,0,0,0,1.433.26q.131,0,.262-.008A3.564,3.564,0,0,0,72.25,55.4a3.453,3.453,0,0,0,.467-.793h.057a4.271,4.271,0,0,0,2.209-.647A16.238,16.238,0,0,0,97.94,39.187ZM70.868,54.317a1.829,1.829,0,0,1-1.346.677,2.477,2.477,0,0,1-1.684-.546,2.16,2.16,0,0,1-.59-2.975c.023-.03.049-.057.074-.084a9.635,9.635,0,0,0,3.61,2.837C70.911,54.256,70.891,54.287,70.868,54.317Zm.1-9.9a13.416,13.416,0,0,1,4.3-2.343l-.67-1.621s-.6-.159-4.035,2.1ZM89.977,27.305a15.305,15.305,0,0,1,4.511,5.074l1.386-1.116A16.346,16.346,0,0,0,90.9,25.825Z" transform="translate(-44.25 0)" fill="#fff"/>
      <path id="Trazado_191661" data-name="Trazado 191661" d="M320.607,118.686a4.2,4.2,0,1,0-4.2,4.219A4.213,4.213,0,0,0,320.607,118.686Zm-4.2,2.46a2.461,2.461,0,1,1,2.439-2.46A2.453,2.453,0,0,1,316.409,121.147Z" transform="translate(-275.539 -80.764)" fill="#fff"/>
      <path id="Trazado_191662" data-name="Trazado 191662" d="M325.648,313.432c-.773-1.368-1.655-1.655-2.257-1.655s-1.483.287-2.257,1.655a7.645,7.645,0,0,0-.888,2.824,6.293,6.293,0,0,0-.039.69,2.981,2.981,0,0,0,1.008,2.475,3.053,3.053,0,0,0,1.653.6,5.048,5.048,0,0,1-.2,4.948,6.813,6.813,0,0,0,0,7.149.879.879,0,1,0,1.5-.924,5.053,5.053,0,0,1,0-5.3,6.81,6.81,0,0,0,.554-6.032,2.653,2.653,0,0,0,.847-.441,2.981,2.981,0,0,0,1.008-2.475,6.223,6.223,0,0,0-.039-.689A7.654,7.654,0,0,0,325.648,313.432Zm-2.257,4.859c-1.106,0-1.426-.3-1.426-1.344a4.493,4.493,0,0,1,.029-.5c.182-1.655,1.038-2.914,1.4-2.914s1.215,1.26,1.4,2.916a4.436,4.436,0,0,1,.029.5C324.817,317.989,324.5,318.291,323.391,318.291Z" transform="translate(-282.595 -254.897)" fill="#fff"/>
      <path id="Trazado_191663" data-name="Trazado 191663" d="M411.7,300.541a5.053,5.053,0,0,1-3.015-4.361,6.812,6.812,0,0,0-2.973-5.275,2.647,2.647,0,0,0,.444-.846,2.981,2.981,0,0,0-.579-2.609,6.335,6.335,0,0,0-.424-.544,7.639,7.639,0,0,0-2.337-1.819,2.366,2.366,0,0,0-3.712,2.567,7.648,7.648,0,0,0,.876,2.828,6.251,6.251,0,0,0,.36.59,2.982,2.982,0,0,0,2.237,1.463c.054,0,.108.005.163.005a3.148,3.148,0,0,0,1.54-.45,5.05,5.05,0,0,1,2.652,4.181,6.813,6.813,0,0,0,4.066,5.88.879.879,0,0,0,.705-1.611Zm-9.009-9.761c-.289-.019-.594-.257-.906-.709a4.512,4.512,0,0,1-.258-.424c-.791-1.464-.8-2.987-.509-3.191a.319.319,0,0,1,.179-.042,4.575,4.575,0,0,1,2.628,1.645,4.334,4.334,0,0,1,.305.391,1.37,1.37,0,0,1,.343,1.1,2.505,2.505,0,0,1-1.782,1.232Z" transform="translate(-352.202 -230.965)" fill="#fff"/>
      <path id="Trazado_191664" data-name="Trazado 191664" d="M231.514,303.823a2.649,2.649,0,0,0-2.644.918,7.64,7.64,0,0,0-1.679,2.438,6.326,6.326,0,0,0-.241.648,2.981,2.981,0,0,0,.235,2.663,3.054,3.054,0,0,0,1.4,1.061,5.05,5.05,0,0,1-1.644,4.671,6.813,6.813,0,0,0-2.1,6.833.879.879,0,1,0,1.7-.443,5.054,5.054,0,0,1,1.559-5.067,6.809,6.809,0,0,0,2.3-5.6,2.661,2.661,0,0,0,.939-.175,2.981,2.981,0,0,0,1.691-2.069,6.249,6.249,0,0,0,.165-.671,7.643,7.643,0,0,0-.017-2.962C232.847,304.534,232.09,304,231.514,303.823Zm-.039,4.878a4.517,4.517,0,0,1-.118.482h0c-.161.523-.38.843-.65.948a1.8,1.8,0,0,1-1.108-.083c-1.057-.325-1.274-.707-.968-1.7a4.546,4.546,0,0,1,.174-.466c.627-1.451,1.731-2.383,2.134-2.383a.211.211,0,0,1,.059.008C231.34,305.61,231.787,307.066,231.475,308.7Z" transform="translate(-198.239 -247.803)" fill="#fff"/>
      <path id="Trazado_191665" data-name="Trazado 191665" d="M31.482,224.8a5.046,5.046,0,0,1,2.558-1.023,6.814,6.814,0,0,0,5.116-3.239,2.644,2.644,0,0,0,.867.4,2.407,2.407,0,0,0,.582.071,3.3,3.3,0,0,0,1.994-.783h0a6.314,6.314,0,0,0,.522-.452,7.651,7.651,0,0,0,1.7-2.428,2.366,2.366,0,0,0-2.754-3.576,7.645,7.645,0,0,0-2.779,1.019,6.259,6.259,0,0,0-.571.39,2.979,2.979,0,0,0-1.346,2.308,3.052,3.052,0,0,0,.531,1.679,5.05,5.05,0,0,1-4.039,2.86A6.814,6.814,0,0,0,28.2,226.39a.879.879,0,1,0,1.645.622A5.044,5.044,0,0,1,31.482,224.8Zm8.305-8.226a4.461,4.461,0,0,1,.411-.28,5.375,5.375,0,0,1,2.588-.816.788.788,0,0,1,.573.145c.219.284-.257,1.731-1.458,2.885a4.54,4.54,0,0,1-.375.326c-.826.636-1.26.567-1.935-.31a1.794,1.794,0,0,1-.465-1.009C39.131,217.225,39.353,216.909,39.788,216.574Z" transform="translate(-24.834 -168.357)" fill="#fff"/>
      <path id="Trazado_191666" data-name="Trazado 191666" d="M3.987,141.058a5.044,5.044,0,0,1,2.607.89,6.793,6.793,0,0,0,3.516,1.2c.121.007.243.01.364.01a6.8,6.8,0,0,0,2.115-.337,2.649,2.649,0,0,0,.4.869,2.98,2.98,0,0,0,2.418,1.138q.155.008.315.008c.124,0,.249,0,.376-.011a7.65,7.65,0,0,0,2.869-.737c1.407-.7,1.741-1.564,1.773-2.166a2.649,2.649,0,0,0-1.533-2.341,7.637,7.637,0,0,0-2.773-1.037,6.288,6.288,0,0,0-.687-.076,2.981,2.981,0,0,0-2.525.875,3.056,3.056,0,0,0-.688,1.618A5.05,5.05,0,0,1,7.6,140.5a6.814,6.814,0,0,0-7.139-.38.879.879,0,1,0,.843,1.543A5.048,5.048,0,0,1,3.987,141.058Zm10.242.52c.059-1.1.376-1.408,1.418-1.352a4.461,4.461,0,0,1,.495.055c1.643.27,2.855,1.192,2.836,1.55s-1.323,1.147-2.986,1.241a4.6,4.6,0,0,1-.5,0C14.454,143.018,14.17,142.682,14.229,141.578Z" transform="translate(0 -101.94)" fill="#fff"/>
      <path id="Trazado_191667" data-name="Trazado 191667" d="M314.248,88.328a.879.879,0,0,0-.879-.879h-.011a.874.874,0,0,0-.874.879.882.882,0,0,0,1.764,0Z" transform="translate(-275.78 -56.919)" fill="#fff"/>
      <path id="Trazado_191668" data-name="Trazado 191668" d="M278.876,91.566h-.011a.874.874,0,0,0-.865.888.884.884,0,0,0,.885.87h.009a.879.879,0,0,0-.009-1.759Z" transform="translate(-245.347 -60.553)" fill="#fff"/>
      <path id="Trazado_191669" data-name="Trazado 191669" d="M339.761,207.321h-.011a.875.875,0,0,0-.865.888.884.884,0,0,0,.884.87h.01a.879.879,0,0,0-.009-1.758Z" transform="translate(-299.08 -162.711)" fill="#fff"/>
    </g>
  </g>
</svg>
