<svg xmlns="http://www.w3.org/2000/svg" width="85" height="85" viewBox="0 0 85 85">
  <g id="Grupo_155299" data-name="Grupo 155299" transform="translate(-1019.676 -2852.029)">
    <circle id="Elipse_4087" data-name="Elipse 4087" cx="42.5" cy="42.5" r="42.5" transform="translate(1019.676 2852.029)" fill="#7e5ee3"/>
    <g id="Grupo_156018" data-name="Grupo 156018" transform="translate(1034.35 2837.768)">
      <path id="Trazado_191670" data-name="Trazado 191670" d="M245.987,30v6.507a1.094,1.094,0,0,0,2.188,0V30" transform="translate(-219.082)" fill="#fff"/>
      <g id="Grupo_156007" data-name="Grupo 156007" transform="translate(17.317 35.31)">
        <g id="Grupo_156006" data-name="Grupo 156006">
          <path id="Trazado_191671" data-name="Trazado 191671" d="M162.813,81.485,160.2,78.87a1.094,1.094,0,1,0-1.546,1.547l2.617,2.615a1.094,1.094,0,0,0,1.546-1.547Z" transform="translate(-158.33 -78.55)" fill="#fff"/>
        </g>
      </g>
      <g id="Grupo_156009" data-name="Grupo 156009" transform="translate(33.713 35.313)">
        <g id="Grupo_156008" data-name="Grupo 156008">
          <path id="Trazado_191672" data-name="Trazado 191672" d="M312.882,78.893a1.094,1.094,0,0,0-1.547,0l-2.782,2.784a1.094,1.094,0,0,0,1.548,1.546l2.782-2.784A1.094,1.094,0,0,0,312.882,78.893Z" transform="translate(-308.233 -78.573)" fill="#fff"/>
        </g>
      </g>
      <g id="Grupo_156011" data-name="Grupo 156011" transform="translate(0 45.34)">
        <g id="Grupo_156010" data-name="Grupo 156010">
          <path id="Trazado_191673" data-name="Trazado 191673" d="M48.836,182.694h-.883a5.543,5.543,0,0,0,1.15-3.384v-1.544a5.572,5.572,0,1,0-11.144,0v1.2l-8.228-8.229A1.649,1.649,0,0,0,28,170.351a1.649,1.649,0,0,0-1.731.386l-8.228,8.228v-1.2a5.572,5.572,0,0,0-11.144,0v1.544a5.542,5.542,0,0,0,1.15,3.384H7.164A7.172,7.172,0,0,0,0,189.858V204.35a1.094,1.094,0,0,0,1.094,1.094H5.715a1.093,1.093,0,0,0,.314-.046,1.093,1.093,0,0,0,.314.046h12.25a1.094,1.094,0,0,0,1.094-1.094v-3.719a1.094,1.094,0,0,0-2.187,0v2.625H7.438V190.793a1.094,1.094,0,0,0-2.187,0v12.463H2.188v-13.4a4.982,4.982,0,0,1,4.977-4.977h7.6a1.091,1.091,0,0,0,.771-.318l0,0L26.9,173.2a12.044,12.044,0,0,1-2.055,6.351l-7.158,10.631a1.094,1.094,0,0,0-.186.611v9.652a1.094,1.094,0,0,0,2.188,0v-9.318l6.972-10.354A14.316,14.316,0,0,0,28,178.278a14.308,14.308,0,0,0,1.341,2.495l6.972,10.354V204.35a1.094,1.094,0,0,0,1.094,1.094h12.25a1.093,1.093,0,0,0,.314-.046,1.093,1.093,0,0,0,.314.046h4.621A1.094,1.094,0,0,0,56,204.35V189.858A7.172,7.172,0,0,0,48.836,182.694Zm-32.983-3.385a3.384,3.384,0,1,1-6.769,0v-1.544a3.384,3.384,0,1,1,6.769,0Zm24.294-1.544a3.384,3.384,0,0,1,6.769,0v1.544a3.384,3.384,0,1,1-6.769,0Zm13.666,25.491H50.75V191.1a1.094,1.094,0,0,0-2.187,0v12.152H38.5V190.793a1.094,1.094,0,0,0-.186-.611l-7.158-10.631A12.044,12.044,0,0,1,29.1,173.2l11.361,11.361c.014.014.028.027.041.037a1.088,1.088,0,0,0,.732.283h7.6a4.982,4.982,0,0,1,4.977,4.977v13.4Z" transform="translate(0 -170.252)" fill="#fff"/>
        </g>
      </g>
      <g id="Grupo_156013" data-name="Grupo 156013" transform="translate(48.563 64.787)">
        <g id="Grupo_156012" data-name="Grupo 156012">
          <path id="Trazado_191674" data-name="Trazado 191674" d="M445.867,348.37a1.093,1.093,0,1,0,.321.773A1.1,1.1,0,0,0,445.867,348.37Z" transform="translate(-444 -348.05)" fill="#fff"/>
        </g>
      </g>
      <g id="Grupo_156015" data-name="Grupo 156015" transform="translate(17.5 70.578)">
        <g id="Grupo_156014" data-name="Grupo 156014">
          <path id="Trazado_191675" data-name="Trazado 191675" d="M161.867,401.32a1.093,1.093,0,1,0,.321.773A1.1,1.1,0,0,0,161.867,401.32Z" transform="translate(-160 -401)" fill="#fff"/>
        </g>
      </g>
    </g>
  </g>
</svg>
