<svg xmlns="http://www.w3.org/2000/svg" width="278.877" height="189.64" viewBox="0 0 278.877 189.64">
  <g id="Grupo_158471" data-name="Grupo 158471" transform="translate(-58.979 -212.608)">
    <g id="Background_Complete" data-name="Background Complete" transform="translate(74.456 261.007)">
      <g id="Grupo_158330" data-name="Grupo 158330" transform="translate(0)">
        <g id="Grupo_158313" data-name="Grupo 158313" transform="translate(0 31.009)">
          <g id="Grupo_158272" data-name="Grupo 158272">
            <g id="Grupo_158271" data-name="Grupo 158271">
              <g id="Grupo_158270" data-name="Grupo 158270">
                <g id="Grupo_158269" data-name="Grupo 158269">
                  <g id="Grupo_158268" data-name="Grupo 158268">
                    <g id="Grupo_158267" data-name="Grupo 158267">
                      <g id="Grupo_158266" data-name="Grupo 158266">
                        <path id="Trazado_194013" data-name="Trazado 194013" d="M143.866,428.372c15.758-10.518,19.605-30.419,19.268-48.364-.056-3,.326-6.148-1.077-8.8s-4.741-4.494-7.477-3.273c-2.269,1.012-3.291,3.585-4.585,5.705a17.668,17.668,0,0,1-7.219,6.6c-1.948.961-4.347,1.53-6.238.463-2.6-1.464-2.848-5.035-2.782-8.015q.182-8.323.364-16.647a27.382,27.382,0,0,0-.772-8.858c-.894-2.84-2.926-5.5-5.784-6.333s-6.434.745-7.085,3.65a27.215,27.215,0,0,0-.143,3.707,3.135,3.135,0,0,1-1.9,2.921c-1.21.331-2.4-.532-3.293-1.416-3.067-3.054-5.12-6.959-7.035-10.84s-3.771-7.852-6.546-11.174-6.643-5.979-10.96-6.285-8.962,2.258-10.119,6.428,1.256,8.478,3.9,11.917a66.914,66.914,0,0,0,13.817,13.4,5.5,5.5,0,0,1,2.307,2.523c.624,1.994-1.313,3.939-3.308,4.562-2.261.7-4.7.438-7.054.677s-4.922,1.223-5.846,3.4c-1.283,3.026,1.247,6.254,3.752,8.381a57.85,57.85,0,0,0,16.924,9.983c2.207.836,4.532,1.573,6.3,3.139s2.8,4.258,1.691,6.339-3.9,2.713-6.219,2.253-4.38-1.737-6.583-2.6c-4.122-1.607-9.481-1.4-12.192,2.092a9.321,9.321,0,0,0-1.146,8.318,21.653,21.653,0,0,0,4.459,7.427,57.977,57.977,0,0,0,24.5,17.552c9.568,3.435,18.466,4.459,28.079,1.152" transform="translate(-80.182 -321.392)" fill="#ebebeb"/>
                      </g>
                    </g>
                  </g>
                </g>
              </g>
            </g>
          </g>
          <g id="Grupo_158280" data-name="Grupo 158280" transform="translate(4.722 2.434)">
            <g id="Grupo_158279" data-name="Grupo 158279">
              <g id="Grupo_158278" data-name="Grupo 158278">
                <g id="Grupo_158277" data-name="Grupo 158277">
                  <g id="Grupo_158276" data-name="Grupo 158276">
                    <g id="Grupo_158275" data-name="Grupo 158275">
                      <g id="Grupo_158274" data-name="Grupo 158274">
                        <g id="Grupo_158273" data-name="Grupo 158273">
                          <path id="Trazado_194014" data-name="Trazado 194014" d="M144.376,429.619c-2.536-9.089-9.478-30.472-13.612-40.53q-1.565-3.764-3.091-7.434c-1.019-2.44-2.029-4.855-3.166-7.159a133.1,133.1,0,0,0-7.3-12.869c-2.523-3.983-5.063-7.673-7.465-11.107s-4.714-6.584-6.94-9.371a106.824,106.824,0,0,0-11.479-12.37c-1.466-1.352-2.637-2.364-3.439-3.041l-.916-.764c-.208-.17-.322-.248-.322-.248s.093.1.291.283l.888.8c.781.7,1.933,1.732,3.378,3.1a111.652,111.652,0,0,1,11.348,12.44c2.205,2.792,4.491,5.952,6.884,9.387s4.911,7.134,7.419,11.115a133.954,133.954,0,0,1,7.252,12.84c1.128,2.3,2.129,4.694,3.149,7.139s2.045,4.923,3.088,7.432c4.132,10.051,11.078,31.411,13.629,40.471" transform="translate(-86.65 -324.726)" fill="#e0e0e0"/>
                        </g>
                      </g>
                    </g>
                  </g>
                </g>
              </g>
            </g>
          </g>
          <g id="Grupo_158288" data-name="Grupo 158288" transform="translate(42.457 19.462)">
            <g id="Grupo_158287" data-name="Grupo 158287">
              <g id="Grupo_158286" data-name="Grupo 158286">
                <g id="Grupo_158285" data-name="Grupo 158285">
                  <g id="Grupo_158284" data-name="Grupo 158284">
                    <g id="Grupo_158283" data-name="Grupo 158283">
                      <g id="Grupo_158282" data-name="Grupo 158282">
                        <g id="Grupo_158281" data-name="Grupo 158281">
                          <path id="Trazado_194015" data-name="Trazado 194015" d="M138.354,380.75a7.213,7.213,0,0,0,.294-1.269c.164-.821.367-2.017.6-3.5.464-2.959.969-7.067,1.515-11.6s1.123-8.623,1.65-11.565c.258-1.472.483-2.662.65-3.48a7.163,7.163,0,0,0,.207-1.286,7.4,7.4,0,0,0-.378,1.247c-.22.809-.492,1.992-.791,3.461-.61,2.935-1.237,7.033-1.784,11.569-.535,4.492-1.02,8.557-1.383,11.609-.184,1.42-.338,2.6-.456,3.514A7.093,7.093,0,0,0,138.354,380.75Z" transform="translate(-138.345 -348.054)" fill="#e0e0e0"/>
                        </g>
                      </g>
                    </g>
                  </g>
                </g>
              </g>
            </g>
          </g>
          <g id="Grupo_158296" data-name="Grupo 158296" transform="translate(3.786 44.403)">
            <g id="Grupo_158295" data-name="Grupo 158295">
              <g id="Grupo_158294" data-name="Grupo 158294">
                <g id="Grupo_158293" data-name="Grupo 158293">
                  <g id="Grupo_158292" data-name="Grupo 158292">
                    <g id="Grupo_158291" data-name="Grupo 158291">
                      <g id="Grupo_158290" data-name="Grupo 158290">
                        <g id="Grupo_158289" data-name="Grupo 158289">
                          <path id="Trazado_194016" data-name="Trazado 194016" d="M85.369,382.242a1.391,1.391,0,0,0,.4.071l1.147.115c.995.1,2.434.231,4.208.456,3.548.422,8.43,1.183,13.776,2.258s10.141,2.28,13.582,3.247c1.724.472,3.109.891,4.067,1.178l1.106.325a.2.2,0,1,0,.029-.086c-.3-.111-.652-.245-1.08-.4-.942-.338-2.315-.807-4.032-1.318-3.426-1.047-8.222-2.292-13.582-3.381s-10.263-1.792-13.831-2.134c-1.781-.185-3.229-.273-4.23-.315l-1.154-.032A1.36,1.36,0,0,0,85.369,382.242Z" transform="translate(-85.369 -382.222)" fill="#e0e0e0"/>
                        </g>
                      </g>
                    </g>
                  </g>
                </g>
              </g>
            </g>
          </g>
          <g id="Grupo_158304" data-name="Grupo 158304" transform="translate(58.7 46.349)">
            <g id="Grupo_158303" data-name="Grupo 158303">
              <g id="Grupo_158302" data-name="Grupo 158302">
                <g id="Grupo_158301" data-name="Grupo 158301">
                  <g id="Grupo_158300" data-name="Grupo 158300">
                    <g id="Grupo_158299" data-name="Grupo 158299">
                      <g id="Grupo_158298" data-name="Grupo 158298">
                        <g id="Grupo_158297" data-name="Grupo 158297">
                          <path id="Trazado_194017" data-name="Trazado 194017" d="M160.6,433.492a2.412,2.412,0,0,0,.263-.467l.677-1.379c.584-1.2,1.385-2.955,2.349-5.136,1.931-4.361,4.413-10.466,7.065-17.237s5.086-12.889,6.941-17.278c.919-2.151,1.671-3.91,2.216-5.189l.6-1.413a2.439,2.439,0,0,0,.182-.506,2.392,2.392,0,0,0-.264.468l-.676,1.378c-.584,1.2-1.385,2.955-2.348,5.136-1.931,4.361-4.413,10.466-7.067,17.24s-5.086,12.886-6.94,17.275c-.919,2.151-1.671,3.91-2.216,5.189-.245.577-.444,1.045-.6,1.413A2.333,2.333,0,0,0,160.6,433.492Z" transform="translate(-160.597 -384.887)" fill="#e0e0e0"/>
                        </g>
                      </g>
                    </g>
                  </g>
                </g>
              </g>
            </g>
          </g>
          <g id="Grupo_158312" data-name="Grupo 158312" transform="translate(7.409 77.785)">
            <g id="Grupo_158311" data-name="Grupo 158311">
              <g id="Grupo_158310" data-name="Grupo 158310">
                <g id="Grupo_158309" data-name="Grupo 158309">
                  <g id="Grupo_158308" data-name="Grupo 158308">
                    <g id="Grupo_158307" data-name="Grupo 158307">
                      <g id="Grupo_158306" data-name="Grupo 158306">
                        <g id="Grupo_158305" data-name="Grupo 158305">
                          <path id="Trazado_194018" data-name="Trazado 194018" d="M90.332,427.955a2.632,2.632,0,0,0,.511.207l1.493.507,5.5,1.832c4.639,1.553,11.022,3.775,18.068,6.249s13.453,4.652,18.122,6.128c2.334.739,4.228,1.32,5.544,1.7l1.518.428a2.538,2.538,0,0,0,.539.119,2.59,2.59,0,0,0-.512-.207l-1.491-.507-5.5-1.832c-4.64-1.552-11.023-3.777-18.072-6.25s-13.45-4.651-18.118-6.127c-2.334-.739-4.229-1.32-5.545-1.7l-1.518-.428A2.573,2.573,0,0,0,90.332,427.955Z" transform="translate(-90.332 -427.952)" fill="#e0e0e0"/>
                        </g>
                      </g>
                    </g>
                  </g>
                </g>
              </g>
            </g>
          </g>
        </g>
        <g id="Grupo_158329" data-name="Grupo 158329" transform="translate(145.106)">
          <g id="Grupo_158314" data-name="Grupo 158314">
            <path id="Trazado_194019" data-name="Trazado 194019" d="M354.3,279.267s-7.492-3.849-14.168,13.791-8.843,27.628-8.843,27.628-1.866,3.748-4.521,1.724-6.662-8.151-10.62-6.533c-4.1,1.678-4.98,6.561-3.408,13.423s4.465,22.02,4.722,23.391c.252,1.347-.306,3.433-2.336,2.345s-14.218-11.987-19.043-5.894,2.7,24.487,3.479,26.514.473,2.963-.461,3.589-4.686-3.424-8.279-6.381-8.279-5.757-10.768-2.009-1.84,18.1,14.266,39.755l8.12,9.546,12.417-2.066c26.3-6.043,36.1-16.547,36.638-21.014s-4.847-5.375-9.5-5.453-10.135.572-10.441-.51.065-2,1.975-3.032,19.563-10.162,19.84-17.929-16.068-7.372-18.318-7.859-1.323-2.437-.258-3.3c1.085-.878,13.116-10.542,18.762-14.747s8.146-8.489,6.108-12.428c-1.964-3.8-8.987-1.731-12.32-1.912s-2.324-4.243-2.324-4.243,4.827-9.008,11.182-26.767-2.061-19.692-2.061-19.692" transform="translate(-278.967 -278.911)" fill="#ebebeb"/>
          </g>
          <g id="Grupo_158316" data-name="Grupo 158316" transform="translate(23.751 16.033)">
            <g id="Grupo_158315" data-name="Grupo 158315">
              <path id="Trazado_194020" data-name="Trazado 194020" d="M311.5,423.367c4.718-13.024,11.388-30.961,18.819-50.752s14.139-37.7,18.922-50.7c2.381-6.491,4.31-11.748,5.65-15.4.664-1.805,1.182-3.213,1.539-4.186l.41-1.085c.094-.245.152-.366.152-.366s-.033.131-.115.379l-.373,1.1-1.471,4.21c-1.28,3.656-3.172,8.933-5.533,15.443-4.719,13.024-11.387,30.959-18.816,50.744s-14.142,37.712-18.926,50.71" transform="translate(-311.504 -300.876)" fill="#e0e0e0"/>
            </g>
          </g>
          <g id="Grupo_158318" data-name="Grupo 158318" transform="translate(42.354 45.652)">
            <g id="Grupo_158317" data-name="Grupo 158317">
              <path id="Trazado_194021" data-name="Trazado 194021" d="M336.993,341.452a4.11,4.11,0,0,1,.407.811c.242.53.567,1.307.961,2.272.783,1.929,1.8,4.622,2.862,7.614l2.7,7.668.832,2.317a4.082,4.082,0,0,1,.272.864,4.092,4.092,0,0,1-.413-.807c-.239-.531-.566-1.309-.949-2.277-.764-1.938-1.742-4.643-2.807-7.634l-2.752-7.646c-.335-.918-.617-1.691-.844-2.314A4.028,4.028,0,0,1,336.993,341.452Z" transform="translate(-336.989 -341.452)" fill="#e0e0e0"/>
            </g>
          </g>
          <g id="Grupo_158320" data-name="Grupo 158320" transform="translate(51.558 57.223)">
            <g id="Grupo_158319" data-name="Grupo 158319">
              <path id="Trazado_194022" data-name="Trazado 194022" d="M349.6,367.373c-.041-.1,5.419-2.434,12.192-5.213s12.3-4.954,12.341-4.854-5.417,2.433-12.193,5.214S349.639,367.473,349.6,367.373Z" transform="translate(-349.598 -357.302)" fill="#e0e0e0"/>
            </g>
          </g>
          <g id="Grupo_158322" data-name="Grupo 158322" transform="translate(38.778 93.721)">
            <g id="Grupo_158321" data-name="Grupo 158321">
              <path id="Trazado_194023" data-name="Trazado 194023" d="M332.09,410.748a4.2,4.2,0,0,1,.914-.143l2.5-.266c2.111-.228,5.024-.555,8.226-1.033s6.088-1,8.173-1.4l2.47-.47a4.228,4.228,0,0,1,.917-.129,4.241,4.241,0,0,1-.883.277c-.575.153-1.41.359-2.448.591-2.074.469-4.959,1.04-8.172,1.513s-6.138.764-8.258.922c-1.061.074-1.919.126-2.514.143A4.192,4.192,0,0,1,332.09,410.748Z" transform="translate(-332.09 -407.302)" fill="#e0e0e0"/>
            </g>
          </g>
          <g id="Grupo_158324" data-name="Grupo 158324" transform="translate(26.146 79.424)">
            <g id="Grupo_158323" data-name="Grupo 158323">
              <path id="Trazado_194024" data-name="Trazado 194024" d="M314.786,387.717a3.652,3.652,0,0,1,.564.643l1.422,1.84c1.188,1.564,2.805,3.74,4.573,6.156s3.352,4.62,4.483,6.225l1.322,1.913a3.571,3.571,0,0,1,.442.733,3.715,3.715,0,0,1-.564-.644l-1.422-1.84c-1.187-1.564-2.805-3.74-4.574-6.158s-3.351-4.619-4.481-6.224l-1.323-1.913A3.6,3.6,0,0,1,314.786,387.717Z" transform="translate(-314.784 -387.716)" fill="#e0e0e0"/>
            </g>
          </g>
          <g id="Grupo_158326" data-name="Grupo 158326" transform="translate(11.513 104.362)">
            <g id="Grupo_158325" data-name="Grupo 158325">
              <path id="Trazado_194025" data-name="Trazado 194025" d="M294.74,421.881a5.814,5.814,0,0,1,.714.831l1.831,2.351c1.533,1.995,3.629,4.768,5.924,7.844s4.358,5.877,5.834,7.914c.7.978,1.28,1.794,1.732,2.425a5.82,5.82,0,0,1,.592.921,5.989,5.989,0,0,1-.714-.831l-1.831-2.35c-1.533-2-3.629-4.769-5.925-7.846s-4.356-5.875-5.832-7.913l-1.732-2.425A5.9,5.9,0,0,1,294.74,421.881Z" transform="translate(-294.738 -421.88)" fill="#e0e0e0"/>
            </g>
          </g>
          <g id="Grupo_158328" data-name="Grupo 158328" transform="translate(27.894 120.836)">
            <g id="Grupo_158327" data-name="Grupo 158327">
              <path id="Trazado_194026" data-name="Trazado 194026" d="M317.179,449.616a6.879,6.879,0,0,1,1.154-.211l3.159-.452c2.666-.384,6.346-.929,10.392-1.645s7.695-1.45,10.33-2l3.124-.654a6.758,6.758,0,0,1,1.156-.2,6.772,6.772,0,0,1-1.12.344c-.728.2-1.786.466-3.1.775-2.623.623-6.268,1.407-10.323,2.118s-7.746,1.22-10.424,1.535c-1.339.154-2.425.268-3.177.33A6.766,6.766,0,0,1,317.179,449.616Z" transform="translate(-317.179 -444.449)" fill="#e0e0e0"/>
            </g>
          </g>
        </g>
      </g>
    </g>
    <g id="Floor" transform="translate(58.979 399.755)">
      <g id="Grupo_158331" data-name="Grupo 158331" transform="translate(0 0)">
        <path id="Trazado_194027" data-name="Trazado 194027" d="M337.856,469.176c0,.105-62.434.19-139.432.19-77.024,0-139.445-.085-139.445-.19s62.421-.19,139.445-.19C275.422,468.986,337.856,469.071,337.856,469.176Z" transform="translate(-58.979 -468.986)" fill="#263238"/>
      </g>
    </g>
    <g id="Character" transform="translate(132.438 212.608)">
      <g id="Grupo_158470" data-name="Grupo 158470">
        <g id="Grupo_158442" data-name="Grupo 158442" transform="translate(6.227)">
          <g id="Grupo_158438" data-name="Grupo 158438">
            <g id="Grupo_158437" data-name="Grupo 158437">
              <g id="Grupo_158387" data-name="Grupo 158387" transform="translate(34.482)">
                <g id="Grupo_158383" data-name="Grupo 158383">
                  <g id="Grupo_158382" data-name="Grupo 158382">
                    <path id="Trazado_194040" data-name="Trazado 194040" d="M225.833,223.995c10.914-14.372,22.419-12.341,30.4-8.868a21.953,21.953,0,0,1,12.815,20.913c-.14,2.295-.631,4.712.3,6.814,1.5,3.38,5.87,4.332,8.4,7.03,3.459,3.689,2.692,9.53,1.523,14.451s-2.4,10.537.5,14.685c2.65,3.8,7.7,4.818,11.87,6.841a21.788,21.788,0,0,1,11.532,13.569,18.585,18.585,0,0,1-3.948,17.147c-4.051,4.413-10.135,6.37-16.061,7.243a59.168,59.168,0,0,1-67.714-61.535" transform="translate(-215.381 -212.608)" fill="#263238"/>
                  </g>
                </g>
                <g id="Grupo_158386" data-name="Grupo 158386" transform="translate(18.931 0.948)">
                  <g id="Grupo_158385" data-name="Grupo 158385">
                    <g id="Grupo_158384" data-name="Grupo 158384">
                      <path id="Trazado_194041" data-name="Trazado 194041" d="M300,318.4c-.032-.035.376-.355.989-1.107a10.106,10.106,0,0,0,1.941-3.716,13.828,13.828,0,0,0,.058-6.607,16.13,16.13,0,0,0-4.056-7.714A19.421,19.421,0,0,0,294.983,296a32.047,32.047,0,0,0-5.028-2.432,37.457,37.457,0,0,1-5.5-2.6,17.237,17.237,0,0,1-4.756-4.414,22.692,22.692,0,0,1-4.218-13.081,34.921,34.921,0,0,1,.621-7.309c.445-2.44,1.064-4.866,1.535-7.335a27.5,27.5,0,0,0,.6-5.216,14.228,14.228,0,0,0-1.148-4.948c-.633-1.585-1.378-3.124-1.975-4.727a22.6,22.6,0,0,1-1.029-4.946c-.2-1.648-.2-3.273-.385-4.815a27.937,27.937,0,0,0-.877-4.527,24.01,24.01,0,0,0-3.656-7.8l-.02-.026,0-.007a16.2,16.2,0,0,0-11.275-7.271,15.472,15.472,0,0,0-10.247,2.142,16.485,16.485,0,0,0-5.017,4.658c-.908,1.31-1.245,2.1-1.294,2.079a10.877,10.877,0,0,1,1.139-2.183,16.082,16.082,0,0,1,4.986-4.855,15.743,15.743,0,0,1,10.5-2.334,16.674,16.674,0,0,1,11.724,7.44l-.023-.032a24.45,24.45,0,0,1,3.818,8.013,28.514,28.514,0,0,1,.917,4.627c.2,1.6.2,3.212.4,4.815a22.042,22.042,0,0,0,1,4.781c.582,1.553,1.328,3.088,1.977,4.705a14.9,14.9,0,0,1,1.2,5.192,27.886,27.886,0,0,1-.614,5.372c-.478,2.5-1.1,4.921-1.538,7.329a34.384,34.384,0,0,0-.62,7.161,22.078,22.078,0,0,0,4.046,12.7,16.638,16.638,0,0,0,4.556,4.271,37.176,37.176,0,0,0,5.394,2.591,32.272,32.272,0,0,1,5.1,2.514,19.783,19.783,0,0,1,4.028,3.381,16.453,16.453,0,0,1,4.074,7.977,13.931,13.931,0,0,1-.183,6.768,9.793,9.793,0,0,1-2.1,3.732A6.126,6.126,0,0,1,300,318.4Z" transform="translate(-241.315 -213.907)" fill="#455a64"/>
                    </g>
                  </g>
                </g>
              </g>
              <g id="Grupo_158390" data-name="Grupo 158390" transform="translate(0 79.974)">
                <g id="Grupo_158389" data-name="Grupo 158389">
                  <g id="Grupo_158388" data-name="Grupo 158388">
                    <path id="Trazado_194042" data-name="Trazado 194042" d="M279.571,361.1c-3.448-19.849-9.656-29.583-11.8-31.926-7.459-8.17-31.026-6.946-31.026-6.946l-32.9,4.008s-24,2.489-30.6,21.7l-5.1,22.859,26.408,1.053.52,4.359c.638,2.342,1.448,5.129,2.331,7.39,1.479,3.784,4.983,11.763,2.9,15.464-5.25,9.336-10.379,31.5-10.379,31.5h0l75.688-.983L256.589,374.5,279.571,361.1" transform="translate(-168.143 -322.167)" fill="#00bcd4"/>
                  </g>
                </g>
              </g>
              <g id="Grupo_158436" data-name="Grupo 158436" transform="translate(34.314 12.809)">
                <g id="Grupo_158435" data-name="Grupo 158435">
                  <g id="Grupo_158426" data-name="Grupo 158426">
                    <g id="Grupo_158425" data-name="Grupo 158425">
                      <g id="Grupo_158424" data-name="Grupo 158424">
                        <g id="Grupo_158394" data-name="Grupo 158394">
                          <g id="Grupo_158393" data-name="Grupo 158393">
                            <g id="Grupo_158392" data-name="Grupo 158392">
                              <g id="Grupo_158391" data-name="Grupo 158391">
                                <path id="Trazado_194043" data-name="Trazado 194043" d="M219.185,234.436a4.854,4.854,0,0,0-4.016,5.192h0l5.187,66.479c.6,7.718,7.717,13.347,15.976,12.639h0c8.341-.715,14.707-7.618,14.228-15.424-.5-8.193-.883-16.829-.883-16.829s10.44-2.433,11.738-16.343c.645-6.916-.423-18.117-1.594-27.256a14.572,14.572,0,0,0-16.913-12.526Z" transform="translate(-215.151 -230.155)" fill="#b78876"/>
                              </g>
                            </g>
                          </g>
                        </g>
                        <g id="Grupo_158404" data-name="Grupo 158404" transform="translate(35.625 17.086)">
                          <g id="Grupo_158398" data-name="Grupo 158398" transform="translate(0.941 1.953)">
                            <g id="Grupo_158397" data-name="Grupo 158397">
                              <g id="Grupo_158396" data-name="Grupo 158396">
                                <g id="Grupo_158395" data-name="Grupo 158395">
                                  <path id="Trazado_194044" data-name="Trazado 194044" d="M268.763,257.727a1.769,1.769,0,0,1-1.588,1.891,1.692,1.692,0,0,1-1.923-1.475,1.771,1.771,0,0,1,1.585-1.893A1.694,1.694,0,0,1,268.763,257.727Z" transform="translate(-265.245 -256.238)" fill="#263238"/>
                                </g>
                              </g>
                            </g>
                          </g>
                          <g id="Grupo_158403" data-name="Grupo 158403">
                            <g id="Grupo_158402" data-name="Grupo 158402">
                              <g id="Grupo_158401" data-name="Grupo 158401">
                                <g id="Grupo_158400" data-name="Grupo 158400">
                                  <g id="Grupo_158399" data-name="Grupo 158399">
                                    <path id="Trazado_194045" data-name="Trazado 194045" d="M270.941,255.206c-.2.245-1.606-.659-3.505-.531-1.9.1-3.231,1.167-3.452.948-.108-.1.088-.526.667-1.008a4.856,4.856,0,0,1,2.745-1.044,4.659,4.659,0,0,1,2.809.711C270.817,254.692,271.042,255.1,270.941,255.206Z" transform="translate(-263.955 -253.562)" fill="#263238"/>
                                  </g>
                                </g>
                              </g>
                            </g>
                          </g>
                        </g>
                        <g id="Grupo_158414" data-name="Grupo 158414" transform="translate(16.969 18.646)">
                          <g id="Grupo_158408" data-name="Grupo 158408" transform="translate(0.927 2.09)">
                            <g id="Grupo_158407" data-name="Grupo 158407">
                              <g id="Grupo_158406" data-name="Grupo 158406">
                                <g id="Grupo_158405" data-name="Grupo 158405">
                                  <path id="Trazado_194046" data-name="Trazado 194046" d="M243.187,260.051a1.77,1.77,0,0,1-1.588,1.891,1.693,1.693,0,0,1-1.923-1.475,1.771,1.771,0,0,1,1.586-1.892A1.694,1.694,0,0,1,243.187,260.051Z" transform="translate(-239.668 -258.563)" fill="#263238"/>
                                </g>
                              </g>
                            </g>
                          </g>
                          <g id="Grupo_158413" data-name="Grupo 158413">
                            <g id="Grupo_158412" data-name="Grupo 158412">
                              <g id="Grupo_158411" data-name="Grupo 158411">
                                <g id="Grupo_158410" data-name="Grupo 158410">
                                  <g id="Grupo_158409" data-name="Grupo 158409">
                                    <path id="Trazado_194047" data-name="Trazado 194047" d="M245.384,257.343c-.2.245-1.607-.658-3.506-.531-1.9.1-3.231,1.168-3.453.948-.107-.1.087-.526.668-1.007a4.849,4.849,0,0,1,2.745-1.045,4.658,4.658,0,0,1,2.809.711C245.259,256.829,245.485,257.233,245.384,257.343Z" transform="translate(-238.397 -255.699)" fill="#263238"/>
                                  </g>
                                </g>
                              </g>
                            </g>
                          </g>
                        </g>
                        <g id="Grupo_158419" data-name="Grupo 158419" transform="translate(29.854 18.16)">
                          <g id="Grupo_158418" data-name="Grupo 158418">
                            <g id="Grupo_158417" data-name="Grupo 158417">
                              <g id="Grupo_158416" data-name="Grupo 158416">
                                <g id="Grupo_158415" data-name="Grupo 158415">
                                  <path id="Trazado_194048" data-name="Trazado 194048" d="M257.956,270.81a12.615,12.615,0,0,1,3.051-.755c.482-.082.935-.208,1-.545a2.478,2.478,0,0,0-.417-1.417l-1.674-3.6c-2.332-5.132-4.053-9.364-3.846-9.456s2.267,3.992,4.6,9.124q.845,1.9,1.615,3.628a2.816,2.816,0,0,1,.374,1.888,1.219,1.219,0,0,1-.752.761,3.323,3.323,0,0,1-.817.168A12.355,12.355,0,0,1,257.956,270.81Z" transform="translate(-256.049 -255.033)" fill="#263238"/>
                                </g>
                              </g>
                            </g>
                          </g>
                        </g>
                        <g id="Grupo_158423" data-name="Grupo 158423" transform="translate(15.768 52.609)">
                          <g id="Grupo_158422" data-name="Grupo 158422">
                            <g id="Grupo_158421" data-name="Grupo 158421">
                              <g id="Grupo_158420" data-name="Grupo 158420">
                                <path id="Trazado_194049" data-name="Trazado 194049" d="M255.51,305.955a35.1,35.1,0,0,1-18.758-3.729s5.084,9.17,18.781,6.992Z" transform="translate(-236.752 -302.226)" fill="#aa6550"/>
                              </g>
                            </g>
                          </g>
                        </g>
                      </g>
                    </g>
                  </g>
                  <g id="Grupo_158430" data-name="Grupo 158430" transform="translate(15.348 11.607)">
                    <g id="Grupo_158429" data-name="Grupo 158429">
                      <g id="Grupo_158428" data-name="Grupo 158428">
                        <g id="Grupo_158427" data-name="Grupo 158427">
                          <path id="Trazado_194050" data-name="Trazado 194050" d="M244.795,247.261c-.154.529-2.067.406-4.279.818-2.221.369-3.976,1.137-4.3.693-.146-.213.136-.719.83-1.266a7.57,7.57,0,0,1,6.538-1.152C244.421,246.63,244.859,247.01,244.795,247.261Z" transform="translate(-236.177 -246.056)" fill="#263238"/>
                        </g>
                      </g>
                    </g>
                  </g>
                  <g id="Grupo_158434" data-name="Grupo 158434" transform="translate(35.064 11.511)">
                    <g id="Grupo_158433" data-name="Grupo 158433">
                      <g id="Grupo_158432" data-name="Grupo 158432">
                        <g id="Grupo_158431" data-name="Grupo 158431">
                          <path id="Trazado_194051" data-name="Trazado 194051" d="M269.68,247.689c-.307.453-1.645.09-3.22.17-1.578.026-2.888.477-3.224.046-.148-.21.034-.656.59-1.1a4.67,4.67,0,0,1,5.192-.174C269.6,247.037,269.813,247.469,269.68,247.689Z" transform="translate(-263.186 -245.924)" fill="#263238"/>
                        </g>
                      </g>
                    </g>
                  </g>
                </g>
              </g>
            </g>
          </g>
          <path id="Trazado_194052" data-name="Trazado 194052" d="M254.518,279.115a5.818,5.818,0,0,1,3.49,1.222,2.205,2.205,0,0,1,.9.888,1.88,1.88,0,0,1-.188,1.654,3.332,3.332,0,0,1-3.15,1.682,3.067,3.067,0,0,1-2.645-2.341,2.842,2.842,0,0,1,1.593-3.105" transform="translate(-191.023 -230.567)" fill="#aa6550"/>
          <g id="Grupo_158440" data-name="Grupo 158440" transform="translate(60.946 48.385)">
            <g id="Grupo_158439" data-name="Grupo 158439">
              <path id="Trazado_194053" data-name="Trazado 194053" d="M258.861,282.782c.023.145-.474.365-1.3.315a7.081,7.081,0,0,1-2.979-.973,8.185,8.185,0,0,1-2.381-2c-.5-.639-.647-1.14-.521-1.221.255-.162,1.5,1.147,3.467,2.227A14.755,14.755,0,0,0,257.7,282.3C258.383,282.538,258.841,282.616,258.861,282.782Z" transform="translate(-251.634 -278.892)" fill="#263238"/>
            </g>
          </g>
          <path id="Trazado_194054" data-name="Trazado 194054" d="M215.5,299.705c9.474-3.344,10.449-24.2,3.981-34.184A15.952,15.952,0,0,0,221.64,247.6a13.232,13.232,0,0,0,8.278-18.656s-5.524-3.152-10.766-1.719-8.99,5.5-11.415,15.34-.173,18.412-4.267,24.565-9.211,10.742-8.6,17.25,4.991,19.872,4.991,19.872Z" transform="translate(-175.347 -216.453)" fill="#263238"/>
          <g id="Grupo_158441" data-name="Grupo 158441" transform="translate(20.11 12.671)">
            <path id="Trazado_194055" data-name="Trazado 194055" d="M196.289,291.552a13.4,13.4,0,0,1-.521-2.785,18.556,18.556,0,0,1,0-3.332,19.571,19.571,0,0,1,.931-4.314,18.446,18.446,0,0,1,6.732-9.136,21.321,21.321,0,0,0,4.908-4.514,11.165,11.165,0,0,0,1.41-3.2,19.154,19.154,0,0,0,.524-3.6c.147-2.467.015-4.9.211-7.255a17.789,17.789,0,0,1,.567-3.434,10.79,10.79,0,0,1,.574-1.6,8.755,8.755,0,0,1,.771-1.469,19.12,19.12,0,0,1,4.245-4.439c1.491-1.208,2.93-2.267,4.116-3.367a12.684,12.684,0,0,0,4.052-6.354,8.067,8.067,0,0,0,.049-2.794.651.651,0,0,1,.05.179c.029.143.064.32.108.538a7.143,7.143,0,0,1-.062,2.106,12.617,12.617,0,0,1-4.013,6.521c-1.192,1.13-2.625,2.2-4.1,3.415a18.954,18.954,0,0,0-4.149,4.382,8.552,8.552,0,0,0-.739,1.426,10.431,10.431,0,0,0-.551,1.55,17.518,17.518,0,0,0-.545,3.365c-.19,2.321-.055,4.753-.2,7.249a19.381,19.381,0,0,1-.538,3.672,11.49,11.49,0,0,1-1.467,3.31,21.42,21.42,0,0,1-5,4.583,18.317,18.317,0,0,0-6.692,8.946,19.737,19.737,0,0,0-.974,4.248,19.338,19.338,0,0,0-.061,3.3,17.286,17.286,0,0,0,.26,2.073c.038.218.069.393.094.536A.7.7,0,0,1,196.289,291.552Z" transform="translate(-195.692 -229.966)" fill="#455a64"/>
          </g>
        </g>
        <g id="Grupo_158443" data-name="Grupo 158443" transform="translate(74.293 118.465)" opacity="0.2">
          <path id="Trazado_194056" data-name="Trazado 194056" d="M276.918,425.065a10.167,10.167,0,0,1-9.283-2.077,16.17,16.17,0,0,1-5.059-8.345,40.913,40.913,0,0,1-1.131-9.826c-.245-9.98.341-19.959,1-29.92Z" transform="translate(-261.388 -374.897)"/>
        </g>
        <g id="Grupo_158444" data-name="Grupo 158444" transform="translate(32.745 122.053)">
          <path id="Trazado_194057" data-name="Trazado 194057" d="M211.67,410.9a8.074,8.074,0,0,1-.557-1.14c-.336-.745-.81-1.826-1.374-3.172a83.7,83.7,0,0,1-3.778-10.768,41.238,41.238,0,0,1-1.479-11.312,27.531,27.531,0,0,1,.277-3.453c.053-.406.123-.716.161-.928a1.1,1.1,0,0,1,.085-.318,9.562,9.562,0,0,1-.1,1.264c-.079.81-.155,1.985-.155,3.438a44.515,44.515,0,0,0,1.577,11.213,99.665,99.665,0,0,0,3.66,10.764c.515,1.313.939,2.4,1.261,3.216A8.177,8.177,0,0,1,211.67,410.9Z" transform="translate(-204.472 -379.812)" fill="#263238"/>
        </g>
        <g id="Grupo_158445" data-name="Grupo 158445" transform="translate(63.454 101.421)">
          <path id="Trazado_194058" data-name="Trazado 194058" d="M256.013,370.924a4.166,4.166,0,0,1-.759.7,5.383,5.383,0,0,1-1.033.656,3,3,0,0,1-1.614.3,2.045,2.045,0,0,1-1.666-1.089,11.688,11.688,0,0,1-.606-2.173l-1.124-4.964c-.787-3.525-1.479-6.721-1.961-9.038l-.552-2.748a5.306,5.306,0,0,1-.152-1.019,5.39,5.39,0,0,1,.3.987c.176.713.4,1.627.67,2.722.55,2.3,1.283,5.488,2.07,9.013.387,1.759.756,3.435,1.094,4.97a12.188,12.188,0,0,0,.546,2.107,1.763,1.763,0,0,0,1.416.964,3.693,3.693,0,0,0,2.527-.806A7.553,7.553,0,0,1,256.013,370.924Z" transform="translate(-246.541 -351.548)" fill="#263238"/>
        </g>
        <g id="Grupo_158446" data-name="Grupo 158446" transform="translate(66.526 103.22)">
          <path id="Trazado_194059" data-name="Trazado 194059" d="M251.929,354.217c-.008-.013.122-.121.412-.179a1.846,1.846,0,0,1,1.207.226,2.043,2.043,0,0,1,1.057,1.5,2.015,2.015,0,0,1-3.372,1.537,2.044,2.044,0,0,1-.437-1.78,1.85,1.85,0,0,1,.623-1.059c.233-.181.4-.208.4-.193.017.031-.123.1-.3.3a1.881,1.881,0,0,0-.459,1,1.813,1.813,0,0,0,.428,1.491,1.687,1.687,0,0,0,2.768-1.262,1.812,1.812,0,0,0-.845-1.3,1.886,1.886,0,0,0-1.055-.309C252.088,354.194,251.942,354.252,251.929,354.217Z" transform="translate(-250.749 -354.012)" fill="#263238"/>
        </g>
        <g id="Grupo_158447" data-name="Grupo 158447" transform="translate(69.212 112.18)">
          <path id="Trazado_194060" data-name="Trazado 194060" d="M255.609,366.492c-.008-.014.121-.122.411-.18a1.847,1.847,0,0,1,1.208.226,2.039,2.039,0,0,1,1.056,1.5,2.014,2.014,0,0,1-3.372,1.537,2.044,2.044,0,0,1-.437-1.78,1.847,1.847,0,0,1,.622-1.059c.234-.181.4-.208.405-.193.017.031-.123.1-.3.3a1.886,1.886,0,0,0-.458,1,1.815,1.815,0,0,0,.427,1.491,1.688,1.688,0,0,0,2.769-1.262,1.814,1.814,0,0,0-.845-1.3,1.888,1.888,0,0,0-1.055-.309C255.768,366.468,255.621,366.526,255.609,366.492Z" transform="translate(-254.429 -366.286)" fill="#263238"/>
        </g>
        <g id="Grupo_158448" data-name="Grupo 158448" transform="translate(10.489 103.264)">
          <path id="Trazado_194061" data-name="Trazado 194061" d="M277.342,354.077c.009.105-23.122,2.275-51.66,4.846s-51.69,4.573-51.7,4.468,23.118-2.274,51.665-4.846S277.333,353.972,277.342,354.077Z" transform="translate(-173.982 -354.073)" fill="#fafafa"/>
        </g>
        <g id="Grupo_158449" data-name="Grupo 158449" transform="translate(8.968 106.861)">
          <path id="Trazado_194062" data-name="Trazado 194062" d="M277.631,359c.009.105-23.654,2.323-52.846,4.953s-52.877,4.68-52.887,4.575,23.649-2.322,52.852-4.953S277.622,358.9,277.631,359Z" transform="translate(-171.898 -359.001)" fill="#fafafa"/>
        </g>
        <g id="Grupo_158450" data-name="Grupo 158450" transform="translate(30.661 88.475)">
          <path id="Trazado_194063" data-name="Trazado 194063" d="M201.62,333.813a6.88,6.88,0,0,1,.356,1.12c.209.726.474,1.788.769,3.107a81.29,81.29,0,0,1,1.824,21c-.063,1.351-.141,2.442-.221,3.194a6.891,6.891,0,0,1-.158,1.164,6.969,6.969,0,0,1,.01-1.174c.036-.754.073-1.845.1-3.192a96.639,96.639,0,0,0-1.819-20.938c-.26-1.322-.485-2.391-.649-3.126A7.073,7.073,0,0,1,201.62,333.813Z" transform="translate(-201.616 -333.813)" fill="#263238"/>
        </g>
        <g id="Grupo_158460" data-name="Grupo 158460" transform="translate(58.342 54.192)">
          <g id="Grupo_158451" data-name="Grupo 158451" transform="translate(0 0.368)">
            <path id="Trazado_194064" data-name="Trazado 194064" d="M239.537,311.606s12.657-9.16,13.169-8.9,6.786,1.664,6.786,1.664l1.024-5.5s-1.793-10.241,0-11.138,2.176,0,2.176.9,2.048,8.193,2.048,8.193l.769,9.986,2.688,2.432v19.716l-12.36,3.365-3-6.054-.512-3.713s-2.3.9-2.688.384a12.519,12.519,0,0,1-.768-2.945l-.512,3.456s-3.456,1.024-3.84.384,1.152-9.09,1.152-9.09l4.1-5.633s-5.033,3.07-6,3.426C241.62,313.318,239.537,311.606,239.537,311.606Z" transform="translate(-239.537 -287.352)" fill="#b78876"/>
            <path id="Trazado_194065" data-name="Trazado 194065" d="M261.336,347.263c0,.72,1.918,40.9,2.35,43.78s.687,30.1,16.332,32.189c0,0,7.83-.1,8.571-.714l.026-.02a36.056,36.056,0,0,0,14.494-26.75l1.627-28.66s-8.978,1.164-20.621,2.172v7.524s-2.713-7.579-3.145-9.7-6.887-22.755-6.887-22.755Z" transform="translate(-245.424 -302.739)" fill="#b78876"/>
          </g>
          <g id="Grupo_158452" data-name="Grupo 158452" transform="translate(19.679)">
            <path id="Trazado_194066" data-name="Trazado 194066" d="M272.788,306.663a4.04,4.04,0,0,1-.116-.747l-.226-2.114c-.176-1.875-.418-4.453-.705-7.51l0,.018c-.518-2.64-1.116-5.689-1.75-8.925l-.026-.132.161.152-1.222-.172.116-.02a4.21,4.21,0,0,0-1.951,2.823,8.515,8.515,0,0,0-.018,3.333c.169,1.066.409,2.073.554,3.034a13.744,13.744,0,0,1,.158,2.7,13.408,13.408,0,0,1-.7,3.81c-.152.431-.287.758-.388.975a1.437,1.437,0,0,1-.173.322c-.029-.012.169-.473.426-1.339a14.475,14.475,0,0,0,.581-3.775,13.939,13.939,0,0,0-.2-2.639c-.156-.944-.407-1.945-.59-3.029a8.783,8.783,0,0,1,0-3.471,4.56,4.56,0,0,1,2.13-3.073l.054-.029.061.009,1.222.172.134.018.026.134.026.132c.619,3.24,1.2,6.292,1.707,8.933v.018c.231,3.062.426,5.644.568,7.522q.082,1.31.133,2.122A4.187,4.187,0,0,1,272.788,306.663Z" transform="translate(-266.496 -286.848)" fill="#aa6550"/>
          </g>
          <g id="Grupo_158453" data-name="Grupo 158453" transform="translate(0.048 15.499)">
            <path id="Trazado_194067" data-name="Trazado 194067" d="M249.779,314.7a4.425,4.425,0,0,1-.69.469c-.459.287-1.134.7-2,1.2s-1.9,1.112-3.126,1.75a3.991,3.991,0,0,1-1.014.418,2.317,2.317,0,0,1-1.181-.066,4.785,4.785,0,0,1-2.038-1.384l-.131-.144.167-.114,6.07-4.116,6.842-4.594.064-.042.072.018,7.295,1.834,2.056.546a3.977,3.977,0,0,1,.723.23,4,4,0,0,1-.747-.126l-2.08-.453-7.327-1.7.135-.024-6.82,4.626-6.087,4.09.036-.258a4.511,4.511,0,0,0,1.867,1.3,2.018,2.018,0,0,0,1.026.072,3.813,3.813,0,0,0,.942-.376c1.222-.61,2.277-1.2,3.153-1.672l2.043-1.117A4.827,4.827,0,0,1,249.779,314.7Z" transform="translate(-239.603 -308.081)" fill="#aa6550"/>
          </g>
          <g id="Grupo_158454" data-name="Grupo 158454" transform="translate(4.727 19.718)">
            <path id="Trazado_194068" data-name="Trazado 194068" d="M251.021,324.188a1.463,1.463,0,0,1-.015.395c-.033.3-.073.672-.121,1.12-.131,1.03-.307,2.414-.52,4.09l0,.036-.026.033a3.012,3.012,0,0,1-1.846,1.148,3.469,3.469,0,0,1-2.385-.567l-.091-.057.02-.115c.342-2.034.721-4.28,1.119-6.641l.374-2.177.007-.039.015-.022a18.592,18.592,0,0,1,1.729-2.067c.584-.631,1.156-1.231,1.707-1.8,1.1-1.141,2.123-2.164,3.016-3.045l.027-.027.038-.01a18.346,18.346,0,0,1,2.12-.562,1.837,1.837,0,0,1,.925.118,7.357,7.357,0,0,1,.7.3,10.276,10.276,0,0,0,.947.421,2.214,2.214,0,0,1,.342.122,3.327,3.327,0,0,1-1.351-.4c-.209-.085-.439-.183-.7-.262a1.651,1.651,0,0,0-.837-.079,20.509,20.509,0,0,0-2.085.613l.065-.036-2.964,3.088-1.686,1.812a19.39,19.39,0,0,0-1.67,2.006l.022-.061c-.121.71-.245,1.438-.371,2.178l-1.15,6.635-.071-.172a3.173,3.173,0,0,0,2.134.535,2.736,2.736,0,0,0,1.675-1.01l-.031.069c.264-1.669.482-3.046.644-4.072l.2-1.109A1.449,1.449,0,0,1,251.021,324.188Z" transform="translate(-246.013 -313.86)" fill="#aa6550"/>
          </g>
          <g id="Grupo_158455" data-name="Grupo 158455" transform="translate(9.444 24.999)">
            <path id="Trazado_194069" data-name="Trazado 194069" d="M262.056,326.09a7.9,7.9,0,0,1-1.253.117l-3.439.176.111-.065a6.316,6.316,0,0,1-1.8,1.88l.073-.134a10.974,10.974,0,0,1-.372,2.9,2.991,2.991,0,0,1-.328.761,1.53,1.53,0,0,1-.695.551,2.971,2.971,0,0,1-1.733.077l-.141-.031v-.152c0-.737,0-1.509,0-2.3,0-1.419,0-2.794.007-4.1v-.063l.038-.048,3.341-4.321.044-.057.068,0,4.435-.165,1.221-.023a1.578,1.578,0,0,1,.429.023,1.6,1.6,0,0,1-.425.066l-1.216.1-4.429.3.112-.059-3.288,4.362.038-.112c0,1.3,0,2.679.007,4.1,0,.786,0,1.559,0,2.3l-.141-.182a2.63,2.63,0,0,0,1.5-.054,1.153,1.153,0,0,0,.537-.417,2.7,2.7,0,0,0,.285-.658,10.966,10.966,0,0,0,.392-2.793l0-.087.071-.048a6.178,6.178,0,0,0,1.747-1.75l.041-.064h.071l3.443-.055A7.735,7.735,0,0,1,262.056,326.09Z" transform="translate(-252.474 -321.095)" fill="#aa6550"/>
          </g>
          <g id="Grupo_158456" data-name="Grupo 158456" transform="translate(12.515 34.029)">
            <path id="Trazado_194070" data-name="Trazado 194070" d="M260.467,344.329a5.552,5.552,0,0,1-1.1-1.326,15.785,15.785,0,0,1-2.663-7.814,5.563,5.563,0,0,1,.061-1.723,21.419,21.419,0,0,0,3.7,10.863Z" transform="translate(-256.682 -333.466)" fill="#aa6550"/>
          </g>
          <g id="Grupo_158457" data-name="Grupo 158457" transform="translate(13.499 33.444)">
            <path id="Trazado_194071" data-name="Trazado 194071" d="M262.855,334.719a4.743,4.743,0,0,0-4.824-1.608c-.019-.042.25-.226.755-.35a3.7,3.7,0,0,1,3.676,1.225C262.791,334.388,262.9,334.7,262.855,334.719Z" transform="translate(-258.03 -332.663)" fill="#aa6550"/>
          </g>
          <g id="Grupo_158458" data-name="Grupo 158458" transform="translate(18.072 30.424)">
            <path id="Trazado_194072" data-name="Trazado 194072" d="M264.83,328.527a7.917,7.917,0,0,1-.046,2.423,7.787,7.787,0,0,1-.423,2.377,7.828,7.828,0,0,1,.045-2.423A7.72,7.72,0,0,1,264.83,328.527Z" transform="translate(-264.294 -328.527)" fill="#aa6550"/>
          </g>
          <g id="Grupo_158459" data-name="Grupo 158459" transform="translate(28.658 41.963)">
            <path id="Trazado_194073" data-name="Trazado 194073" d="M296.4,409.24a8.042,8.042,0,0,0,1.177-2.38,9.257,9.257,0,0,0,.333-3.088,15.033,15.033,0,0,0-.866-4.036c-.495-1.456-1.194-3-1.854-4.7-.691-1.685-1.361-3.51-2.084-5.424-1.4-3.844-2.873-8.095-4.36-12.574-2.958-8.968-5.454-17.143-7.214-23.074-.88-2.965-1.575-5.37-2.043-7.035l-.529-1.921-.127-.5a.584.584,0,0,1-.031-.174.626.626,0,0,1,.068.164l.164.492q.219.7.6,1.9l2.158,7c1.826,5.909,4.362,14.069,7.319,23.032,1.485,4.478,2.945,8.728,4.327,12.574.713,1.915,1.372,3.742,2.048,5.427.645,1.7,1.331,3.25,1.816,4.729a14.962,14.962,0,0,1,.823,4.112,9.181,9.181,0,0,1-.4,3.14,6.588,6.588,0,0,1-.875,1.8A3.266,3.266,0,0,1,296.4,409.24Z" transform="translate(-278.796 -344.334)" fill="#aa6550"/>
          </g>
        </g>
        <g id="Grupo_158465" data-name="Grupo 158465" transform="translate(0 128.608)">
          <path id="Trazado_194074" data-name="Trazado 194074" d="M234.9,430.5l-48.715-7.265,6.065-33.394-25.754-1.053-6.512,36.779a20.158,20.158,0,0,0,19.59,23.963l56.818-.631Z" transform="translate(-159.613 -388.792)" fill="#b78876"/>
          <g id="Grupo_158464" data-name="Grupo 158464" transform="translate(71.769 37.603)">
            <path id="Trazado_194075" data-name="Trazado 194075" d="M257.931,445.253c.479.16,11.172-4.948,11.172-4.948l18.832.958s-.479,3.2-1.915,3.994-10.214,0-10.214,0l4.469,3.188,7.661-.639,1.915-1.6s.2,5.278-1.237,6.235-5.565,1.3-5.565,1.3a13.789,13.789,0,0,1-.333,2.413c-.25.832-2.5,1.664-2.5,1.664a29.64,29.64,0,0,1-2,3.578,20.6,20.6,0,0,1-4.459,1.538,19.181,19.181,0,0,1-10.672-.08l-5.162-1.541V445.6" transform="translate(-257.931 -440.305)" fill="#b78876"/>
            <g id="Grupo_158461" data-name="Grupo 158461" transform="translate(10.972 0.224)">
              <path id="Trazado_194076" data-name="Trazado 194076" d="M294.232,446.381a1.129,1.129,0,0,1-.233.184,6.529,6.529,0,0,1-.726.465,10.722,10.722,0,0,1-3.019,1.169,11.792,11.792,0,0,1-4.961.069,11.213,11.213,0,0,1-2.872-.993,31.522,31.522,0,0,0-2.885-1.552l-.838-.308.893-.035a33.035,33.035,0,0,1,4.364.3,11.514,11.514,0,0,0,4.55-.274,4.466,4.466,0,0,0,3.326-3.767l.178.192-13.626-.795-3.986-.268-1.068-.088a1.542,1.542,0,0,1-.368-.053,1.626,1.626,0,0,1,.372-.013l1.072.026,3.991.159,13.626.662.185.009-.007.183a4.119,4.119,0,0,1-1.117,2.572,5.53,5.53,0,0,1-2.464,1.544,11.781,11.781,0,0,1-4.7.283,33.62,33.62,0,0,0-4.316-.318l.055-.342a30.121,30.121,0,0,1,2.914,1.591,11.033,11.033,0,0,0,2.78.995,11.8,11.8,0,0,0,4.855.01,11.486,11.486,0,0,0,3.01-1.058C293.883,446.589,294.215,446.354,294.232,446.381Z" transform="translate(-272.962 -440.612)" fill="#aa6550"/>
            </g>
            <g id="Grupo_158462" data-name="Grupo 158462" transform="translate(19.481 13.005)">
              <path id="Trazado_194077" data-name="Trazado 194077" d="M293.33,458.146a30.876,30.876,0,0,1-8.711.954,37.309,37.309,0,0,1,4.348-.545A37.219,37.219,0,0,1,293.33,458.146Z" transform="translate(-284.619 -458.121)" fill="#aa6550"/>
            </g>
            <g id="Grupo_158463" data-name="Grupo 158463" transform="translate(19.251 16.647)">
              <path id="Trazado_194078" data-name="Trazado 194078" d="M289.1,463.127a17.471,17.471,0,0,1-4.794,1.854,17.47,17.47,0,0,1,4.794-1.854Z" transform="translate(-284.304 -463.11)" fill="#aa6550"/>
            </g>
          </g>
        </g>
        <g id="Grupo_158466" data-name="Grupo 158466" transform="translate(69.448 114.641)" opacity="0.2">
          <path id="Trazado_194079" data-name="Trazado 194079" d="M255.063,370.176a1.705,1.705,0,1,0,3.268-.518,1.955,1.955,0,0,1-3.579.168" transform="translate(-254.752 -369.658)"/>
        </g>
        <g id="Grupo_158467" data-name="Grupo 158467" transform="translate(66.899 105.749)" opacity="0.2">
          <path id="Trazado_194080" data-name="Trazado 194080" d="M251.569,358a1.706,1.706,0,1,0,3.269-.518,1.954,1.954,0,0,1-3.579.168" transform="translate(-251.259 -357.477)"/>
        </g>
        <g id="Grupo_158468" data-name="Grupo 158468" transform="translate(32.886 122.6)" opacity="0.2">
          <path id="Trazado_194081" data-name="Trazado 194081" d="M205.547,380.562c.895,6.707,4.825,12.877,4.8,19.643,0,.67-.144,1.484-.772,1.715-.8.3-1.5-.618-1.842-1.4a36.222,36.222,0,0,1-2.68-19.869" transform="translate(-204.664 -380.562)"/>
        </g>
        <g id="Grupo_158469" data-name="Grupo 158469" transform="translate(95.868 97.601)">
          <path id="Trazado_194082" data-name="Trazado 194082" d="M290.957,346.314a6.611,6.611,0,0,1,.188,1.133c.1.732.216,1.794.344,3.107.255,2.628.518,6.268.642,10.3s.081,7.679-.014,10.317c-.047,1.319-.1,2.385-.154,3.122a6.625,6.625,0,0,1-.119,1.142,6.64,6.64,0,0,1-.029-1.147c.009-.806.02-1.856.034-3.124.026-2.636.023-6.278-.1-10.3s-.343-7.655-.529-10.284c-.091-1.264-.166-2.312-.223-3.115A6.61,6.61,0,0,1,290.957,346.314Z" transform="translate(-290.945 -346.314)" fill="#263238"/>
        </g>
      </g>
    </g>
  </g>
</svg>
