<svg xmlns="http://www.w3.org/2000/svg" xmlns:xlink="http://www.w3.org/1999/xlink" width="138.374" height="138.374" viewBox="0 0 138.374 138.374">
  <defs>
    <filter id="Elipse_4062" x="0" y="0" width="138.374" height="138.374" filterUnits="userSpaceOnUse">
      <feOffset dy="3" input="SourceAlpha"/>
      <feGaussianBlur stdDeviation="3" result="blur"/>
      <feFlood flood-opacity="0.161"/>
      <feComposite operator="in" in2="blur"/>
      <feComposite in="SourceGraphic"/>
    </filter>
  </defs>
  <g id="Grupo_75708" data-name="Grupo 75708" transform="translate(-276 -856.273)">
    <g transform="matrix(1, 0, 0, 1, 276, 856.27)" filter="url(#Elipse_4062)">
      <circle id="Elipse_4062-2" data-name="Elipse 4062" cx="60.187" cy="60.187" r="60.187" transform="translate(9 6)" fill="#fff"/>
    </g>
    <circle id="Elipse_4063" data-name="Elipse 4063" cx="46.355" cy="46.355" r="46.355" transform="translate(297.71 876.479)" fill="#7e5ee3"/>
    <g id="Grupo_162235" data-name="Grupo 162235" transform="translate(282.938 892.105)">
      <rect id="Rectángulo_46450" data-name="Rectángulo 46450" width="3.728" height="44.742" transform="translate(77.637 8.357)" fill="#dcf5f8"/>
      <path id="Trazado_201432" data-name="Trazado 201432" d="M38.562,37.328c0,14.443,16.886,14.9,17.952,28.459a1.5,1.5,0,0,0,1.495,1.369h4.445a1.5,1.5,0,0,0,1.5-1.632c-1.263-13.3-17.929-13.847-17.929-28.2s16.667-14.893,17.93-28.2a1.5,1.5,0,0,0-1.5-1.632H58.009a1.5,1.5,0,0,0-1.495,1.369C55.448,22.429,38.562,22.885,38.562,37.328Z" transform="translate(-6.6 -6.6)" fill="#dcf5f8"/>
      <circle id="Elipse_5270" data-name="Elipse 5270" cx="4.661" cy="4.661" r="4.661" transform="translate(74.84 0.9)" fill="#e94444"/>
      <circle id="Elipse_5271" data-name="Elipse 5271" cx="4.661" cy="4.661" r="4.661" transform="translate(74.84 17.679)" fill="#ffc344"/>
      <circle id="Elipse_5272" data-name="Elipse 5272" cx="4.661" cy="4.661" r="4.661" transform="translate(74.84 34.457)" fill="#00bcd4"/>
      <circle id="Elipse_5273" data-name="Elipse 5273" cx="4.661" cy="4.661" r="4.661" transform="translate(74.84 51.236)" fill="#ffc344"/>
      <path id="Trazado_201433" data-name="Trazado 201433" d="M407.851,9.407a4.663,4.663,0,0,1-5.294,7.063,4.661,4.661,0,1,0,5.294-7.063Z" transform="translate(-326.903 -8.278)" fill="#d83131"/>
      <path id="Trazado_201434" data-name="Trazado 201434" d="M407.851,149.188a4.663,4.663,0,0,1-5.294,7.063,4.661,4.661,0,1,0,5.294-7.063Z" transform="translate(-326.903 -131.28)" fill="#feb237"/>
      <path id="Trazado_201436" data-name="Trazado 201436" d="M407.851,428.751a4.663,4.663,0,0,1-5.294,7.063,4.661,4.661,0,1,0,5.294-7.063Z" transform="translate(-326.903 -377.287)" fill="#feb237"/>
      <path id="Trazado_201437" data-name="Trazado 201437" d="M236.123,212.337v1.88a.3.3,0,0,1-.3.3H225.537a.6.6,0,0,0-.6.6v4.393a.6.6,0,0,0,.6.6h10.285a.3.3,0,0,1,.3.3v1.88a.3.3,0,0,0,.485.236l6.351-4.976a.3.3,0,0,0,0-.472l-6.351-4.976A.3.3,0,0,0,236.123,212.337Z" transform="translate(-170.604 -186.585)" fill="#3b15b6"/>
      <path id="Trazado_201438" data-name="Trazado 201438" d="M114.681,32.863H101.912a.9.9,0,1,1,0-1.8h12.769a.9.9,0,1,1,0,1.8Z" transform="translate(-61.554 -27.334)"/>
      <path id="Trazado_201439" data-name="Trazado 201439" d="M81.992,79.456H69.223a.9.9,0,1,1,0-1.8H81.992a.9.9,0,1,1,0,1.8Z" transform="translate(-32.788 -68.335)"/>
      <path id="Trazado_201440" data-name="Trazado 201440" d="M77.956,250.3H64.906a.9.9,0,1,1,0-1.8h13.05a.9.9,0,0,1,0,1.8Z" transform="translate(-28.99 -218.672)"/>
      <path id="Trazado_201441" data-name="Trazado 201441" d="M87.8,203.707H74.754a.9.9,0,0,1,0-1.8H87.8a.9.9,0,0,1,0,1.8Z" transform="translate(-37.656 -177.671)"/>
      <path id="Trazado_201442" data-name="Trazado 201442" d="M114.681,467.738H101.912a.9.9,0,1,1,0-1.8h12.769a.9.9,0,1,1,0,1.8Z" transform="translate(-61.554 -410.009)"/>
      <path id="Trazado_201443" data-name="Trazado 201443" d="M81.992,421.145H69.223a.9.9,0,1,1,0-1.8H81.992a.9.9,0,1,1,0,1.8Z" transform="translate(-32.788 -369.009)"/>
      <path id="Trazado_201444" data-name="Trazado 201444" d="M87.8,296.895H74.754a.9.9,0,0,1,0-1.8H87.8a.9.9,0,1,1,0,1.8Z" transform="translate(-37.656 -259.673)"/>
      <path id="Trazado_201445" data-name="Trazado 201445" d="M55.854,61.457H51.409a2.4,2.4,0,0,1-2.392-2.2c-.486-6.179-4.44-9.455-8.627-12.922-4.586-3.8-9.329-7.727-9.329-15.607S35.8,18.92,40.391,15.121q.569-.472,1.136-.945a.9.9,0,1,1,1.158,1.378q-.57.479-1.145.954c-4.462,3.7-8.676,7.187-8.677,14.221s4.214,10.525,8.676,14.221c4.291,3.554,8.727,7.229,9.273,14.168a.6.6,0,0,0,.6.54h4.445a.6.6,0,0,0,.448-.2.581.581,0,0,0,.151-.449c-.571-6.019-4.474-9.251-8.605-12.674-4.586-3.8-9.328-7.727-9.328-15.607s4.742-11.809,9.329-15.607c4.131-3.422,8.034-6.655,8.605-12.674A.581.581,0,0,0,56.3,2a.6.6,0,0,0-.448-.2H51.409a.6.6,0,0,0-.6.54,15.973,15.973,0,0,1-4.858,10.226.9.9,0,0,1-1.3-1.25A14.085,14.085,0,0,0,49.017,2.2,2.4,2.4,0,0,1,51.409,0h4.445a2.4,2.4,0,0,1,2.391,2.617C57.6,9.378,53.228,13,49,16.508c-4.462,3.7-8.677,7.187-8.677,14.221S44.534,41.253,49,44.949c4.232,3.505,8.607,7.13,9.249,13.89a2.4,2.4,0,0,1-2.391,2.617Z"/>
      <path id="Trazado_201446" data-name="Trazado 201446" d="M393.842,11.122A5.561,5.561,0,1,1,399.4,5.561,5.567,5.567,0,0,1,393.842,11.122Zm0-9.321a3.76,3.76,0,1,0,3.76,3.76A3.765,3.765,0,0,0,393.842,1.8Z" transform="translate(-314.341)"/>
      <path id="Trazado_201447" data-name="Trazado 201447" d="M393.842,150.9a5.561,5.561,0,1,1,5.561-5.561A5.567,5.567,0,0,1,393.842,150.9Zm0-9.321a3.76,3.76,0,1,0,3.76,3.76A3.765,3.765,0,0,0,393.842,141.582Z" transform="translate(-314.341 -123.003)"/>
      <path id="Trazado_201448" data-name="Trazado 201448" d="M393.842,290.685a5.561,5.561,0,1,1,5.561-5.561A5.567,5.567,0,0,1,393.842,290.685Zm0-9.321a3.76,3.76,0,1,0,3.76,3.76A3.765,3.765,0,0,0,393.842,281.363Z" transform="translate(-314.341 -246.006)"/>
      <path id="Trazado_201449" data-name="Trazado 201449" d="M393.842,430.466A5.561,5.561,0,1,1,399.4,424.9,5.567,5.567,0,0,1,393.842,430.466Zm0-9.321a3.76,3.76,0,1,0,3.76,3.76A3.765,3.765,0,0,0,393.842,421.145Z" transform="translate(-314.341 -369.009)"/>
      <path id="Trazado_201450" data-name="Trazado 201450" d="M229.825,216.885a1.2,1.2,0,0,1-1.2-1.2V214.4H228.5a.9.9,0,0,1,0-1.8h.728a1.2,1.2,0,0,1,1.2,1.2v.647l4.777-3.744-4.777-3.744v.647a1.2,1.2,0,0,1-1.2,1.2h-9.985V212.6h5.056a.9.9,0,1,1,0,1.8h-5.356a1.5,1.5,0,0,1-1.5-1.5v-4.393a1.5,1.5,0,0,1,1.5-1.5h9.685v-1.28a1.2,1.2,0,0,1,1.941-.945l6.351,4.976a1.2,1.2,0,0,1,0,1.889l-6.351,4.977A1.2,1.2,0,0,1,229.825,216.885Zm-.6-2.482h0Z" transform="translate(-164.004 -179.979)"/>
      <path id="Trazado_201451" data-name="Trazado 201451" d="M412.478,84.458a.9.9,0,0,1-.9-.9V75.325a.9.9,0,1,1,1.8,0v8.233A.9.9,0,0,1,412.478,84.458Z" transform="translate(-334.841 -65.492)"/>
      <path id="Trazado_201452" data-name="Trazado 201452" d="M443.541,78.236a.9.9,0,0,1-.9-.9v-2.01a.9.9,0,0,1,1.8,0v2.01A.9.9,0,0,1,443.541,78.236Z" transform="translate(-362.176 -65.492)"/>
      <path id="Trazado_201453" data-name="Trazado 201453" d="M443.541,129.993a.9.9,0,0,1-.9-.9v-2.021a.9.9,0,1,1,1.8,0v2.021A.9.9,0,0,1,443.541,129.993Z" transform="translate(-362.176 -111.026)"/>
      <path id="Trazado_201454" data-name="Trazado 201454" d="M443.541,224.24a.9.9,0,0,1-.9-.9v-8.233a.9.9,0,1,1,1.8,0v8.233A.9.9,0,0,1,443.541,224.24Z" transform="translate(-362.176 -188.495)"/>
      <path id="Trazado_201455" data-name="Trazado 201455" d="M412.478,224.24a.9.9,0,0,1-.9-.9v-8.233a.9.9,0,1,1,1.8,0v8.233A.9.9,0,0,1,412.478,224.24Z" transform="translate(-334.841 -188.495)"/>
      <path id="Trazado_201456" data-name="Trazado 201456" d="M443.541,364.021a.9.9,0,0,1-.9-.9v-8.233a.9.9,0,1,1,1.8,0v8.233A.9.9,0,0,1,443.541,364.021Z" transform="translate(-362.176 -311.498)"/>
      <path id="Trazado_201457" data-name="Trazado 201457" d="M412.478,364.021a.9.9,0,0,1-.9-.9v-8.233a.9.9,0,1,1,1.8,0v8.233A.9.9,0,0,1,412.478,364.021Z" transform="translate(-334.841 -311.498)"/>
    </g>
  </g>
</svg>
