<svg xmlns="http://www.w3.org/2000/svg" width="237.667" height="210.927" viewBox="0 0 237.667 210.927">
  <g id="Grupo_163040" data-name="Grupo 163040" transform="translate(-90.647 -60.176)">
    <g id="Grupo_163020" data-name="Grupo 163020" transform="translate(142.172 188.548)">
      <path id="Trazado_202880" data-name="Trazado 202880" d="M255.824,312.26l-1.666.98a12.806,12.806,0,0,0-2.206-1.6L177.23,268.5c-7.282-4.2-20.119-3.672-28.527,1.182l-22.479,12.979a17.923,17.923,0,0,0-4.358,3.434l-1.561-.981a9.85,9.85,0,0,0-.28,9.943c.016.028.033.042.049.069a10.261,10.261,0,0,0,4.1,4l74.721,43.14c7.282,4.2,20.119,3.672,28.527-1.182L249.9,328.111a15.592,15.592,0,0,0,5.772-5.32c.018-.029.037-.043.055-.074A9.926,9.926,0,0,0,255.824,312.26Z" transform="translate(-118.783 -262.554)" fill="#bc9b96"/>
      <path id="Trazado_202881" data-name="Trazado 202881" d="M199.168,337.411l-74.722-43.14c-7.282-4.2-6.36-11.616,2.048-16.47l22.479-12.978c8.408-4.855,21.246-5.387,28.527-1.182l74.722,43.14c7.282,4.2,6.36,11.615-2.048,16.47L227.7,336.229C219.287,341.083,206.449,341.615,199.168,337.411Z" transform="translate(-119.053 -260.803)" fill="#dec9c5"/>
      <g id="Grupo_163006" data-name="Grupo 163006" transform="translate(12.164 1.955)">
        <g id="Grupo_162996" data-name="Grupo 162996" transform="translate(0 13.042)">
          <g id="Grupo_162994" data-name="Grupo 162994" transform="translate(3.106 2.379)">
            <path id="Trazado_202882" data-name="Trazado 202882" d="M150.713,298.952c-4.455,0-8.065-1.921-8.065-4.29v5.661c0,2.369,3.611,4.29,8.065,4.29s8.064-1.921,8.064-4.29v-5.661C158.777,297.031,155.167,298.952,150.713,298.952Z" transform="translate(-142.648 -290.372)" fill="#399ee2"/>
            <path id="Trazado_202883" data-name="Trazado 202883" d="M150.713,287.958c-4.455,0-8.065,1.921-8.065,4.29s3.611,4.29,8.065,4.29,8.064-1.921,8.064-4.29S155.167,287.958,150.713,287.958Z" transform="translate(-142.648 -287.958)" fill="#65b6f8"/>
          </g>
          <g id="Grupo_162995" data-name="Grupo 162995">
            <path id="Trazado_202884" data-name="Trazado 202884" d="M148.965,299.469c-6.17,0-11.171-2.661-11.171-5.942v7.842c0,3.281,5,5.942,11.171,5.942s11.171-2.66,11.171-5.942v-7.842C160.136,296.808,155.134,299.469,148.965,299.469Z" transform="translate(-137.794 -287.585)" fill="#e6f3ff" opacity="0.5"/>
            <path id="Trazado_202885" data-name="Trazado 202885" d="M148.965,284.24c-6.17,0-11.171,2.661-11.171,5.942s5,5.942,11.171,5.942,11.171-2.661,11.171-5.942S155.134,284.24,148.965,284.24Z" transform="translate(-137.794 -284.24)" fill="#fff" opacity="0.5"/>
          </g>
        </g>
        <g id="Grupo_162999" data-name="Grupo 162999" transform="translate(22.342)">
          <g id="Grupo_162997" data-name="Grupo 162997" transform="translate(3.106 2.379)">
            <path id="Trazado_202886" data-name="Trazado 202886" d="M185.63,278.57c-4.454,0-8.065-1.921-8.065-4.29v5.661c0,2.369,3.611,4.29,8.065,4.29s8.065-1.922,8.065-4.29V274.28C193.7,276.649,190.084,278.57,185.63,278.57Z" transform="translate(-177.565 -269.99)" fill="#399ee2"/>
            <path id="Trazado_202887" data-name="Trazado 202887" d="M185.63,267.576c-4.454,0-8.065,1.92-8.065,4.29s3.611,4.29,8.065,4.29,8.065-1.921,8.065-4.29S190.084,267.576,185.63,267.576Z" transform="translate(-177.565 -267.576)" fill="#65b6f8"/>
          </g>
          <g id="Grupo_162998" data-name="Grupo 162998">
            <path id="Trazado_202888" data-name="Trazado 202888" d="M183.882,279.087c-6.169,0-11.171-2.661-11.171-5.942v7.842c0,3.281,5,5.942,11.171,5.942s11.171-2.661,11.171-5.942v-7.842C195.053,276.426,190.051,279.087,183.882,279.087Z" transform="translate(-172.711 -267.203)" fill="#e6f3ff" opacity="0.5"/>
            <path id="Trazado_202889" data-name="Trazado 202889" d="M183.882,263.858c-6.169,0-11.171,2.661-11.171,5.942s5,5.942,11.171,5.942,11.171-2.661,11.171-5.942S190.051,263.858,183.882,263.858Z" transform="translate(-172.711 -263.858)" fill="#fff" opacity="0.5"/>
          </g>
        </g>
        <g id="Grupo_163002" data-name="Grupo 163002" transform="translate(23.604 26.319)">
          <g id="Grupo_163000" data-name="Grupo 163000" transform="translate(3.106 2.379)">
            <path id="Trazado_202890" data-name="Trazado 202890" d="M187.6,319.7c-4.454,0-8.065-1.921-8.065-4.29v5.661c0,2.369,3.611,4.29,8.065,4.29s8.065-1.921,8.065-4.29v-5.661C195.667,317.782,192.057,319.7,187.6,319.7Z" transform="translate(-179.538 -311.123)" fill="#399ee2"/>
            <path id="Trazado_202891" data-name="Trazado 202891" d="M187.6,308.709c-4.454,0-8.065,1.92-8.065,4.29s3.611,4.29,8.065,4.29,8.065-1.921,8.065-4.29S192.057,308.709,187.6,308.709Z" transform="translate(-179.538 -308.709)" fill="#65b6f8"/>
          </g>
          <g id="Grupo_163001" data-name="Grupo 163001">
            <path id="Trazado_202892" data-name="Trazado 202892" d="M185.854,320.22c-6.169,0-11.171-2.661-11.171-5.942v7.842c0,3.281,5,5.942,11.171,5.942s11.171-2.661,11.171-5.942v-7.842C197.025,317.559,192.024,320.22,185.854,320.22Z" transform="translate(-174.683 -308.336)" fill="#e6f3ff" opacity="0.5"/>
            <path id="Trazado_202893" data-name="Trazado 202893" d="M185.854,304.991c-6.169,0-11.171,2.66-11.171,5.942s5,5.942,11.171,5.942,11.171-2.661,11.171-5.942S192.024,304.991,185.854,304.991Z" transform="translate(-174.683 -304.991)" fill="#fff" opacity="0.5"/>
          </g>
        </g>
        <g id="Grupo_163005" data-name="Grupo 163005" transform="translate(45.945 13.278)">
          <g id="Grupo_163003" data-name="Grupo 163003" transform="translate(3.106 2.379)">
            <path id="Trazado_202894" data-name="Trazado 202894" d="M222.52,299.321c-4.454,0-8.065-1.921-8.065-4.29v5.661c0,2.369,3.611,4.29,8.065,4.29s8.065-1.921,8.065-4.29v-5.661C230.584,297.4,226.974,299.321,222.52,299.321Z" transform="translate(-214.455 -290.741)" fill="#399ee2"/>
            <path id="Trazado_202895" data-name="Trazado 202895" d="M222.52,288.327c-4.454,0-8.065,1.92-8.065,4.29s3.611,4.29,8.065,4.29,8.065-1.921,8.065-4.29S226.974,288.327,222.52,288.327Z" transform="translate(-214.455 -288.327)" fill="#65b6f8"/>
          </g>
          <g id="Grupo_163004" data-name="Grupo 163004">
            <path id="Trazado_202896" data-name="Trazado 202896" d="M220.772,299.838c-6.17,0-11.172-2.661-11.172-5.942v7.841c0,3.282,5,5.942,11.172,5.942s11.171-2.661,11.171-5.942V293.9C231.942,297.177,226.941,299.838,220.772,299.838Z" transform="translate(-209.6 -287.954)" fill="#e6f3ff" opacity="0.5"/>
            <path id="Trazado_202897" data-name="Trazado 202897" d="M220.772,284.609c-6.17,0-11.172,2.661-11.172,5.942s5,5.942,11.172,5.942,11.171-2.661,11.171-5.942S226.941,284.609,220.772,284.609Z" transform="translate(-209.6 -284.609)" fill="#fff" opacity="0.5"/>
          </g>
        </g>
      </g>
      <g id="Grupo_163019" data-name="Grupo 163019" transform="translate(59.372 28.51)">
        <g id="Grupo_163009" data-name="Grupo 163009" transform="translate(0 13.042)">
          <g id="Grupo_163007" data-name="Grupo 163007" transform="translate(3.106 2.379)">
            <path id="Trazado_202898" data-name="Trazado 202898" d="M224.492,340.454c-4.455,0-8.065-1.921-8.065-4.29v5.661c0,2.369,3.611,4.29,8.065,4.29s8.064-1.921,8.064-4.29v-5.661C232.556,338.533,228.946,340.454,224.492,340.454Z" transform="translate(-216.427 -331.874)" fill="#399ee2"/>
            <path id="Trazado_202899" data-name="Trazado 202899" d="M224.492,329.46c-4.455,0-8.065,1.92-8.065,4.29s3.611,4.29,8.065,4.29,8.064-1.921,8.064-4.29S228.946,329.46,224.492,329.46Z" transform="translate(-216.427 -329.46)" fill="#65b6f8"/>
          </g>
          <g id="Grupo_163008" data-name="Grupo 163008">
            <path id="Trazado_202900" data-name="Trazado 202900" d="M222.744,340.971c-6.17,0-11.171-2.661-11.171-5.942v7.841c0,3.282,5,5.942,11.171,5.942s11.171-2.661,11.171-5.942v-7.841C233.915,338.31,228.913,340.971,222.744,340.971Z" transform="translate(-211.573 -329.087)" fill="#e6f3ff" opacity="0.5"/>
            <path id="Trazado_202901" data-name="Trazado 202901" d="M222.744,325.742c-6.17,0-11.171,2.661-11.171,5.942s5,5.942,11.171,5.942,11.171-2.661,11.171-5.942S228.913,325.742,222.744,325.742Z" transform="translate(-211.573 -325.742)" fill="#fff" opacity="0.5"/>
          </g>
        </g>
        <g id="Grupo_163012" data-name="Grupo 163012" transform="translate(22.342)">
          <g id="Grupo_163010" data-name="Grupo 163010" transform="translate(3.106 2.378)">
            <path id="Trazado_202902" data-name="Trazado 202902" d="M259.409,320.072c-4.454,0-8.065-1.921-8.065-4.29v5.661c0,2.369,3.611,4.29,8.065,4.29s8.065-1.921,8.065-4.29v-5.661C267.474,318.151,263.863,320.072,259.409,320.072Z" transform="translate(-251.344 -311.492)" fill="#399ee2"/>
            <path id="Trazado_202903" data-name="Trazado 202903" d="M259.409,309.077c-4.454,0-8.065,1.921-8.065,4.29s3.611,4.29,8.065,4.29,8.065-1.921,8.065-4.29S263.863,309.077,259.409,309.077Z" transform="translate(-251.344 -309.077)" fill="#65b6f8"/>
          </g>
          <g id="Grupo_163011" data-name="Grupo 163011">
            <path id="Trazado_202904" data-name="Trazado 202904" d="M257.661,320.589c-6.169,0-11.171-2.661-11.171-5.942v7.841c0,3.281,5,5.942,11.171,5.942s11.171-2.661,11.171-5.942v-7.841C268.832,317.928,263.83,320.589,257.661,320.589Z" transform="translate(-246.49 -308.705)" fill="#e6f3ff" opacity="0.5"/>
            <path id="Trazado_202905" data-name="Trazado 202905" d="M257.661,305.36c-6.169,0-11.171,2.66-11.171,5.942s5,5.942,11.171,5.942,11.171-2.661,11.171-5.942S263.83,305.36,257.661,305.36Z" transform="translate(-246.49 -305.36)" fill="#fff" opacity="0.5"/>
          </g>
        </g>
        <g id="Grupo_163015" data-name="Grupo 163015" transform="translate(23.604 26.319)">
          <g id="Grupo_163013" data-name="Grupo 163013" transform="translate(3.106 2.378)">
            <path id="Trazado_202906" data-name="Trazado 202906" d="M261.382,361.2c-4.454,0-8.065-1.921-8.065-4.29v5.661c0,2.369,3.611,4.29,8.065,4.29s8.065-1.921,8.065-4.29v-5.661C269.446,359.284,265.836,361.2,261.382,361.2Z" transform="translate(-253.317 -352.625)" fill="#399ee2"/>
            <path id="Trazado_202907" data-name="Trazado 202907" d="M261.382,350.21c-4.454,0-8.065,1.921-8.065,4.29s3.611,4.29,8.065,4.29,8.065-1.921,8.065-4.29S265.836,350.21,261.382,350.21Z" transform="translate(-253.317 -350.21)" fill="#65b6f8"/>
          </g>
          <g id="Grupo_163014" data-name="Grupo 163014">
            <path id="Trazado_202908" data-name="Trazado 202908" d="M259.633,361.721c-6.169,0-11.171-2.661-11.171-5.942v7.842c0,3.282,5,5.942,11.171,5.942s11.171-2.66,11.171-5.942v-7.842C270.8,359.061,265.8,361.721,259.633,361.721Z" transform="translate(-248.462 -349.837)" fill="#e6f3ff" opacity="0.5"/>
            <path id="Trazado_202909" data-name="Trazado 202909" d="M259.633,346.493c-6.169,0-11.171,2.66-11.171,5.942s5,5.942,11.171,5.942,11.171-2.661,11.171-5.942S265.8,346.493,259.633,346.493Z" transform="translate(-248.462 -346.493)" fill="#fff" opacity="0.5"/>
          </g>
        </g>
        <g id="Grupo_163018" data-name="Grupo 163018" transform="translate(45.945 13.278)">
          <g id="Grupo_163016" data-name="Grupo 163016" transform="translate(3.107 2.378)">
            <path id="Trazado_202910" data-name="Trazado 202910" d="M296.3,340.822c-4.454,0-8.065-1.921-8.065-4.29v5.661c0,2.369,3.611,4.29,8.065,4.29s8.065-1.921,8.065-4.29v-5.661C304.363,338.9,300.753,340.822,296.3,340.822Z" transform="translate(-288.234 -332.242)" fill="#399ee2"/>
            <path id="Trazado_202911" data-name="Trazado 202911" d="M296.3,329.828c-4.454,0-8.065,1.92-8.065,4.29s3.611,4.29,8.065,4.29,8.065-1.921,8.065-4.29S300.753,329.828,296.3,329.828Z" transform="translate(-288.234 -329.828)" fill="#65b6f8"/>
          </g>
          <g id="Grupo_163017" data-name="Grupo 163017">
            <path id="Trazado_202912" data-name="Trazado 202912" d="M294.55,341.339c-6.169,0-11.171-2.661-11.171-5.942v7.842c0,3.281,5,5.942,11.171,5.942s11.171-2.661,11.171-5.942V335.4C305.721,338.678,300.72,341.339,294.55,341.339Z" transform="translate(-283.379 -329.455)" fill="#e6f3ff" opacity="0.5"/>
            <path id="Trazado_202913" data-name="Trazado 202913" d="M294.55,326.111c-6.169,0-11.171,2.66-11.171,5.942s5,5.942,11.171,5.942,11.171-2.661,11.171-5.942S300.72,326.111,294.55,326.111Z" transform="translate(-283.379 -326.111)" fill="#fff" opacity="0.5"/>
          </g>
        </g>
      </g>
    </g>
    <g id="Grupo_163022" data-name="Grupo 163022" transform="translate(280.647 111.688)">
      <path id="Trazado_202914" data-name="Trazado 202914" d="M337.531,278.453c-10.663,0-19.307,4.6-19.307,10.27s8.644,10.27,19.307,10.27,19.308-4.6,19.308-10.27S348.195,278.453,337.531,278.453Z" transform="translate(-313.698 -190.3)" fill="#ea3636"/>
      <path id="Trazado_202915" data-name="Trazado 202915" d="M311.15,203.632V255.4c0,7,10.671,12.677,23.833,12.677s23.834-5.676,23.834-12.677V203.632Z" transform="translate(-311.15 -163.353)" fill="#f74d41"/>
      <path id="Trazado_202916" data-name="Trazado 202916" d="M334.984,231.457c-13.162,0-23.833-5.676-23.833-12.677v30.334c0,7,10.67,12.677,23.833,12.677s23.834-5.676,23.834-12.677V218.78C358.818,225.781,348.147,231.457,334.984,231.457Z" transform="translate(-311.15 -168.809)" fill="#efe2e1"/>
      <path id="Trazado_202917" data-name="Trazado 202917" d="M358.818,195.188c0-6.947-8.691-13.543-8.691-13.543l-3.14,3.174a41.285,41.285,0,0,0-24.005,0l-3.14-3.174s-8.69,6.6-8.69,13.543v.526c0,7,10.67,12.677,23.833,12.677s23.834-5.676,23.834-12.677Z" transform="translate(-311.15 -155.435)" fill="#ff5e4c"/>
      <path id="Trazado_202918" data-name="Trazado 202918" d="M338.511,174.424c-9.7,0-17.567,4.184-17.567,9.344s7.865,9.344,17.567,9.344,17.567-4.184,17.567-9.344S348.213,174.424,338.511,174.424Z" transform="translate(-314.677 -152.834)" fill="#f74d41"/>
      <ellipse id="Elipse_5331" data-name="Elipse 5331" cx="12.113" cy="6.443" rx="12.113" ry="6.443" transform="translate(11.721 21.59)" fill="#ea3636"/>
      <g id="Grupo_163021" data-name="Grupo 163021" transform="translate(8.994 7.894)">
        <path id="Trazado_202919" data-name="Trazado 202919" d="M325.206,153.019v12.246a5.557,5.557,0,0,0,2.2,3.89v-9.4c0-.583.358-.853.795-.6a1.91,1.91,0,0,1,.795,1.518v9.737a17.107,17.107,0,0,0,4.407,1.82V162.64a.917.917,0,0,1,1.834,0v10a26.319,26.319,0,0,0,4.325.465v-9.9a.918.918,0,0,1,1.835,0v9.8a26.828,26.828,0,0,0,4.455-.487V162.248a.918.918,0,1,1,1.835,0v9.62a15.772,15.772,0,0,0,3.674-1.673v-9.524a1.91,1.91,0,0,1,.795-1.518c.437-.253.795.017.795.6v9.188a5.382,5.382,0,0,0,1.932-3.677V153.019Z" transform="translate(-325.206 -153.019)" fill="#dec9c5"/>
        <path id="Trazado_202920" data-name="Trazado 202920" d="M348.564,167.51a.92.92,0,0,0-.918.917v9.9c.169,0,.31.051.481.051.48,0,.886-.122,1.354-.145v-9.8A.92.92,0,0,0,348.564,167.51Z" transform="translate(-333.288 -158.238)" fill="#bc9b96"/>
        <path id="Trazado_202921" data-name="Trazado 202921" d="M338.936,166.623a.919.919,0,0,0-.917.917v9.588c.6.163,1.191.295,1.834.414v-10A.919.919,0,0,0,338.936,166.623Z" transform="translate(-329.821 -157.918)" fill="#bc9b96"/>
        <path id="Trazado_202922" data-name="Trazado 202922" d="M358.4,166.007a.921.921,0,0,0-.918.918V177.2a18.3,18.3,0,0,0,1.835-.658v-9.62A.92.92,0,0,0,358.4,166.007Z" transform="translate(-336.828 -157.697)" fill="#bc9b96"/>
        <path id="Trazado_202923" data-name="Trazado 202923" d="M366.882,162.554a1.91,1.91,0,0,0-.795,1.518v9.524a10.05,10.05,0,0,0,1.589-1.253v-9.188C367.676,162.571,367.319,162.3,366.882,162.554Z" transform="translate(-339.929 -156.419)" fill="#bc9b96"/>
        <path id="Trazado_202924" data-name="Trazado 202924" d="M329.443,162.554c-.437-.253-.795.017-.795.6v9.4a10.051,10.051,0,0,0,1.589,1.254v-9.737A1.91,1.91,0,0,0,329.443,162.554Z" transform="translate(-326.446 -156.419)" fill="#bc9b96"/>
      </g>
      <path id="Trazado_202925" data-name="Trazado 202925" d="M340.046,140.682c-8.2,0-14.84,3.535-14.84,7.894s6.644,7.894,14.84,7.894,14.84-3.535,14.84-7.894S348.242,140.682,340.046,140.682Z" transform="translate(-316.212 -140.682)" fill="#ead9d8"/>
      <path id="Trazado_202926" data-name="Trazado 202926" d="M342.315,140.682c-6.176,0-11.183,2.664-11.183,5.949s5.007,5.949,11.183,5.949,11.183-2.663,11.183-5.949S348.491,140.682,342.315,140.682Z" transform="translate(-318.346 -140.682)" fill="#efe2e1"/>
      <path id="Trazado_202927" data-name="Trazado 202927" d="M318.792,187.788a24.338,24.338,0,0,0-3.959,6.2c-.6,1.426-1.758,4.342-.611,5.785.941,1.184,2.263.322,2.751-.767a28.007,28.007,0,0,0,1.168-4.293c.475-1.8,1.38-4.5,1.777-6.322C320.116,187.493,319.788,186.721,318.792,187.788Z" transform="translate(-312.081 -157.461)" fill="#fff"/>
      <path id="Trazado_202928" data-name="Trazado 202928" d="M354.117,254.95c.188,7.444-5.63,12.446-12.576,12.446s-12.575-5-12.575-12.446c0-6.308,5.63-10.4,12.575-10.4S353.957,248.644,354.117,254.95Z" transform="translate(-317.566 -178.09)" fill="#f44a3d"/>
      <path id="Trazado_202929" data-name="Trazado 202929" d="M351.55,254.2a28.718,28.718,0,0,1-5.256.917v-5.83h-5.212v5.848a29.331,29.331,0,0,1-5.265-.87l-.9-.24V259l.529.142a30.619,30.619,0,0,0,5.633.93v6.005h5.212v-6.025a30.056,30.056,0,0,0,5.641-.98l.521-.145v-4.979Z" transform="translate(-319.711 -179.794)" fill="#efe2e1"/>
    </g>
    <g id="Grupo_163029" data-name="Grupo 163029" transform="translate(195.647 60.176)">
      <g id="Grupo_163023" data-name="Grupo 163023" transform="translate(0 39.41)">
        <path id="Trazado_202930" data-name="Trazado 202930" d="M262.484,122.074v71.717c0,9.033-13.766,16.355-30.747,16.355s-30.748-7.322-30.748-16.355V121.768Z" transform="translate(-200.99 -121.768)" fill="#399ee2"/>
      </g>
      <g id="Grupo_163024" data-name="Grupo 163024" transform="translate(12.246 51.547)">
        <path id="Trazado_202931" data-name="Trazado 202931" d="M220.129,153.722a49.9,49.9,0,0,0,18.5,3.368c16.982,0,30.748-7.322,30.748-16.355v48.056c0,9.033-13.766,16.355-30.748,16.355a49.887,49.887,0,0,1-18.5-3.368Z" transform="translate(-220.129 -140.736)" fill="#efe2e1"/>
      </g>
      <path id="Trazado_202932" data-name="Trazado 202932" d="M230.584,170.684a52.877,52.877,0,0,0,11.811,1.347c16.982,0,30.748-7.322,30.748-16.355v5.492c0,9.032-13.766,16.355-30.748,16.355a52.914,52.914,0,0,1-11.811-1.347Z" transform="translate(-211.648 -94.57)" fill="#422c2a"/>
      <path id="Trazado_202933" data-name="Trazado 202933" d="M202.339,106.862l-.034-.013a14.469,14.469,0,0,1,.858-1.4c.162-.221.309-.443.49-.66,2.214-3,7.483-8.552,17.869-11.417,3.6-.992,5.652-.065,6.742,1.856,1.155-.07,2.285-.186,3.474-.186,1.216,0,2.372.117,3.55.191,1.089-1.925,3.145-2.852,6.747-1.86,10.855,2.995,16.188,8.979,18.212,11.857.7.995,2.238,4.592,2.238,6.167,0,9.033-13.766,16.356-30.747,16.356s-30.747-7.323-30.747-16.356A9.515,9.515,0,0,1,202.339,106.862Z" transform="translate(-200.99 -71.987)" fill="#65b6f8"/>
      <path id="Trazado_202934" data-name="Trazado 202934" d="M238.684,91.563c9.14,0,16.549,3.941,16.549,8.8s-7.409,8.8-16.549,8.8-16.549-3.942-16.549-8.8S229.545,91.563,238.684,91.563Z" transform="translate(-208.605 -71.48)" fill="#399ee2"/>
      <g id="Grupo_163026" data-name="Grupo 163026" transform="translate(13.511)">
        <path id="Trazado_202935" data-name="Trazado 202935" d="M255.966,74.25V88.22c0,1.648-1.059,3.108-2.513,4.437a11.5,11.5,0,0,1-1.813,1.431,19.483,19.483,0,0,1-5.027,2.076c-.684.186-1.359.337-2.093.472a29.864,29.864,0,0,1-4.934.53c-.193,0-.354.06-.55.06-.548,0-1.01-.139-1.544-.166a30.62,30.62,0,0,1-5.084-.555,21.184,21.184,0,0,1-2.094-.75,18.016,18.016,0,0,1-4.191-1.909,11.494,11.494,0,0,1-1.813-1.43,6.138,6.138,0,0,1-2.2-4.195V74.25Z" transform="translate(-222.106 -65.245)" fill="#563937"/>
        <g id="Grupo_163025" data-name="Grupo 163025" transform="translate(2.205 15.896)">
          <path id="Trazado_202936" data-name="Trazado 202936" d="M247.2,90.781a1.05,1.05,0,0,1,1.047,1.047v11.292c-.193,0-.354.059-.55.059-.548,0-1.01-.138-1.544-.166V91.828A1.05,1.05,0,0,1,247.2,90.781Z" transform="translate(-232.971 -87.094)" fill="#422c2a"/>
          <path id="Trazado_202937" data-name="Trazado 202937" d="M258.181,89.769a1.05,1.05,0,0,1,1.047,1.047v10.937c-.684.186-1.359.337-2.093.472V90.816A1.05,1.05,0,0,1,258.181,89.769Z" transform="translate(-236.926 -86.73)" fill="#422c2a"/>
          <path id="Trazado_202938" data-name="Trazado 202938" d="M235.982,89.068a1.05,1.05,0,0,1,1.047,1.046V101.84a21.184,21.184,0,0,1-2.094-.75V90.114A1.049,1.049,0,0,1,235.982,89.068Z" transform="translate(-228.931 -86.477)" fill="#422c2a"/>
          <path id="Trazado_202939" data-name="Trazado 202939" d="M226.458,85.127a2.177,2.177,0,0,1,.907,1.731V97.723a11.494,11.494,0,0,1-1.813-1.43V85.812C225.552,85.148,225.96,84.839,226.458,85.127Z" transform="translate(-225.552 -85.019)" fill="#422c2a"/>
          <path id="Trazado_202940" data-name="Trazado 202940" d="M269.169,85.127c.5-.288.907.02.907.685V96.536a11.5,11.5,0,0,1-1.813,1.431V86.859A2.18,2.18,0,0,1,269.169,85.127Z" transform="translate(-240.934 -85.019)" fill="#422c2a"/>
        </g>
        <path id="Trazado_202941" data-name="Trazado 202941" d="M239.036,60.176c9.35,0,16.929,4.032,16.929,9.005s-7.58,9.005-16.929,9.005-16.93-4.032-16.93-9.005S229.686,60.176,239.036,60.176Z" transform="translate(-222.106 -60.176)" fill="#644"/>
      </g>
      <g id="Grupo_163027" data-name="Grupo 163027" transform="translate(37.294 84.313)">
        <path id="Trazado_202942" data-name="Trazado 202942" d="M268.372,198.537c4.075-1.923,10.552-1.973,10.552-1.973l1.756,3.423c1.547,3.279-1.456,7.945-6.706,10.423-5.143,2.427-10.513,1.836-12.184-1.271l-1.879-3.6S264.3,200.46,268.372,198.537Z" transform="translate(-259.505 -193.609)" fill="#bc9b96"/>
        <path id="Trazado_202943" data-name="Trazado 202943" d="M271.99,205.323c5.25-2.478,8.252-7.144,6.706-10.422s-7.058-3.928-12.308-1.451-8.253,7.143-6.706,10.422S266.74,207.8,271.99,205.323Z" transform="translate(-259.276 -191.945)" fill="#dec9c5"/>
      </g>
      <g id="Grupo_163028" data-name="Grupo 163028" transform="translate(16.497 89.798)">
        <path id="Trazado_202944" data-name="Trazado 202944" d="M231.411,205.812a20.894,20.894,0,0,1,10.886,2.183c4.306,2,7.6,4.836,9.064,7.493l2.1,1.017-1.571,3.3c-1.551,3.335-8.36,3.456-15.208.271s-11.142-8.472-9.591-11.806l1.727-3.712Z" transform="translate(-226.772 -201.971)" fill="#bc9b96"/>
        <path id="Trazado_202945" data-name="Trazado 202945" d="M239.379,214.906c6.848,3.185,13.656,3.064,15.208-.27s-2.744-8.62-9.591-11.806-13.657-3.064-15.208.27S232.531,211.72,239.379,214.906Z" transform="translate(-227.744 -200.518)" fill="#d1b8b4"/>
      </g>
    </g>
    <g id="Grupo_163032" data-name="Grupo 163032" transform="translate(105.81 230.364)">
      <path id="Trazado_202946" data-name="Trazado 202946" d="M108.115,341.858a25.5,25.5,0,0,0-19.891,0l-5.041-3.245v9.2c0,4.4,6.71,7.972,14.986,7.972s14.986-3.569,14.986-7.972v-9.2Z" transform="translate(-83.184 -330.642)" fill="#c4a8a5"/>
      <g id="Grupo_163030" data-name="Grupo 163030">
        <path id="Trazado_202947" data-name="Trazado 202947" d="M98.17,326.155c-8.277,0-14.986,3.569-14.986,7.971s6.71,7.972,14.986,7.972,14.986-3.569,14.986-7.972S106.447,326.155,98.17,326.155Z" transform="translate(-83.184 -326.155)" fill="#efe2e1"/>
      </g>
      <g id="Grupo_163031" data-name="Grupo 163031" transform="translate(3.834 0.724)">
        <path id="Trazado_202948" data-name="Trazado 202948" d="M94.622,327.287l-5.446,1.928,18.942,12.128,2.373-.954s2.042-1.291,1.831-1.426S94.622,327.287,94.622,327.287Z" transform="translate(-89.176 -327.287)" fill="#d1b8b4"/>
      </g>
    </g>
    <g id="Grupo_163035" data-name="Grupo 163035" transform="translate(145.675 244.803)">
      <path id="Trazado_202949" data-name="Trazado 202949" d="M146.107,364.425a25.492,25.492,0,0,1,19.891,0l5.041-3.245v9.2c0,4.4-6.71,7.972-14.986,7.972s-14.987-3.57-14.987-7.972v-9.2Z" transform="translate(-141.066 -353.208)" fill="#c4a8a5"/>
      <g id="Grupo_163033" data-name="Grupo 163033">
        <path id="Trazado_202950" data-name="Trazado 202950" d="M156.053,348.721c8.277,0,14.986,3.569,14.986,7.972s-6.71,7.971-14.986,7.971-14.987-3.568-14.987-7.971S147.776,348.721,156.053,348.721Z" transform="translate(-141.066 -348.721)" fill="#efe2e1"/>
      </g>
      <g id="Grupo_163034" data-name="Grupo 163034" transform="translate(2.978 0.725)">
        <path id="Trazado_202951" data-name="Trazado 202951" d="M163.434,349.854l5.446,1.928-18.942,12.127-2.373-.954s-2.042-1.291-1.831-1.426S163.434,349.854,163.434,349.854Z" transform="translate(-145.72 -349.854)" fill="#d1b8b4"/>
      </g>
    </g>
    <g id="Grupo_163038" data-name="Grupo 163038" transform="translate(125.149 95.911)">
      <path id="Trazado_202952" data-name="Trazado 202952" d="M101.6,158.528v51.455c0,6.481,9.877,11.734,22.06,11.734s22.06-5.253,22.06-11.734V158.309Z" transform="translate(-98.697 -131.253)" fill="#7fa521"/>
      <g id="Grupo_163037" data-name="Grupo 163037" transform="translate(2.899 35.39)">
        <g id="Grupo_163036" data-name="Grupo 163036">
          <path id="Trazado_202953" data-name="Trazado 202953" d="M101.6,171.335v33.012c0,6.48,9.877,11.734,22.06,11.734a35.375,35.375,0,0,0,14.144-2.733V180.336a35.386,35.386,0,0,1-14.144,2.733C111.473,183.069,101.6,177.815,101.6,171.335Z" transform="translate(-101.596 -171.335)" fill="#efe2e1"/>
        </g>
      </g>
      <path id="Trazado_202954" data-name="Trazado 202954" d="M132.141,189.987a39.182,39.182,0,0,1-8.484.913c-12.183,0-22.06-5.254-22.06-11.734v5.362c0,6.48,9.877,11.734,22.06,11.734a39.182,39.182,0,0,0,8.484-.913Z" transform="translate(-98.697 -138.765)" fill="#422c2a"/>
      <path id="Trazado_202955" data-name="Trazado 202955" d="M142.138,139.812c-4.624-3.12-11.776-5.13-19.825-5.13a42.79,42.79,0,0,0-13.211,2l-2.09-.2-9.947,5.906v5.721c0,7.417,11.3,13.431,25.249,13.431s25.249-6.013,25.249-13.431v-5.721Z" transform="translate(-97.065 -122.744)" fill="#dec9c5"/>
      <path id="Trazado_202956" data-name="Trazado 202956" d="M122.314,125.74c-13.944,0-25.249,6.013-25.249,13.431s11.3,13.431,25.249,13.431,25.249-6.013,25.249-13.431S136.259,125.74,122.314,125.74Z" transform="translate(-97.065 -119.524)" fill="#efe2e1"/>
      <path id="Trazado_202957" data-name="Trazado 202957" d="M141.384,130.544c-3.88-2.618-9.883-4.3-16.637-4.3a35.894,35.894,0,0,0-11.087,1.679l-1.754-.166-8.348,3.224v6.535c0,6.225,9.487,11.271,21.189,11.271s21.189-5.047,21.189-11.271v-6.535Z" transform="translate(-99.403 -119.704)" fill="#7fa521"/>
      <path id="Trazado_202958" data-name="Trazado 202958" d="M124.747,116.025c-11.7,0-21.189,5.047-21.189,11.272s9.487,11.271,21.189,11.271,21.189-5.047,21.189-11.271S136.45,116.025,124.747,116.025Z" transform="translate(-99.403 -116.025)" fill="#97c941"/>
    </g>
    <g id="Grupo_163039" data-name="Grupo 163039" transform="translate(90.647 175.721)">
      <path id="Trazado_202959" data-name="Trazado 202959" d="M64.354,264.3l2.4-.482a21.094,21.094,0,0,1,6.7-4.842c6.021-2.907,13.09-3.789,18.231-2.61a13.53,13.53,0,0,1,3.089,1.1l3.842.121s.016,5.065-.008,5.506c-.179,3.367-3.446,7.156-9.074,9.874-8.355,4.033-18.727,4.17-23.167.306a5.315,5.315,0,0,1-1.972-4.557Z" transform="translate(-64.354 -250.427)" fill="#399ee2"/>
      <path id="Trazado_202960" data-name="Trazado 202960" d="M73.449,250.487c-8.355,4.033-11.528,10.435-7.088,14.3s14.813,3.727,23.167-.306,11.528-10.435,7.088-14.3S81.8,246.454,73.449,250.487Z" transform="translate(-64.353 -247.37)" fill="#65b6f8"/>
      <path id="Trazado_202961" data-name="Trazado 202961" d="M82.761,249.781a27.637,27.637,0,0,1,12.491,10.453l-3.075,1.876s-6.88-8.479-13.609-10.755Z" transform="translate(-69.473 -248.238)" fill="#399ee2"/>
    </g>
  </g>
</svg>
