<svg xmlns="http://www.w3.org/2000/svg" width="295" height="198.215" viewBox="0 0 295 198.215">
  <g id="Grupo_162844" data-name="Grupo 162844" transform="translate(-192.058 -175.88)">
    <g id="Grupo_162824" data-name="Grupo 162824" transform="translate(360.613 175.88)">
      <path id="Trazado_202454" data-name="Trazado 202454" d="M384.357,298.824h-88.83a5.779,5.779,0,0,1-5.778-5.778h0a5.779,5.779,0,0,1,5.778-5.778h88.83a5.779,5.779,0,0,1,5.778,5.778h0A5.779,5.779,0,0,1,384.357,298.824Z" transform="translate(-289.749 -167.037)" fill="#9ae2d8" opacity="0.5" style="mix-blend-mode: multiply;isolation: isolate"/>
      <g id="Grupo_162823" data-name="Grupo 162823" transform="translate(9.726)">
        <path id="Trazado_202455" data-name="Trazado 202455" d="M372.358,193.927H306.1l-3.789,8.712a42.732,42.732,0,0,0-3.547,17.045V293.7a8.553,8.553,0,0,0,8.553,8.553h63.827a8.553,8.553,0,0,0,8.553-8.553V219.683a42.732,42.732,0,0,0-3.547-17.045Z" transform="translate(-298.76 -174.447)" fill="#6c3faa"/>
        <rect id="Rectángulo_46727" data-name="Rectángulo 46727" width="67.346" height="49.124" rx="5.186" transform="translate(6.794 57.049)" fill="#fffff2"/>
        <g id="Grupo_162821" data-name="Grupo 162821" transform="translate(2.523)">
          <rect id="Rectángulo_46728" data-name="Rectángulo 46728" width="75.887" height="19.48" rx="4.232" fill="#f90"/>
          <g id="Grupo_162820" data-name="Grupo 162820" transform="translate(1.585)" opacity="0.5" style="mix-blend-mode: screen;isolation: isolate">
            <rect id="Rectángulo_46729" data-name="Rectángulo 46729" width="2.686" height="19.48" transform="translate(26.262)" fill="#f90"/>
            <rect id="Rectángulo_46730" data-name="Rectángulo 46730" width="2.686" height="19.48" transform="translate(21.885)" fill="#f90"/>
            <rect id="Rectángulo_46731" data-name="Rectángulo 46731" width="2.686" height="19.48" transform="translate(17.508)" fill="#f90"/>
            <rect id="Rectángulo_46732" data-name="Rectángulo 46732" width="2.686" height="19.48" transform="translate(4.377)" fill="#f90"/>
            <rect id="Rectángulo_46733" data-name="Rectángulo 46733" width="2.686" height="19.48" transform="translate(13.131)" fill="#f90"/>
            <path id="Trazado_202456" data-name="Trazado 202456" d="M367.447,195.33a4.5,4.5,0,0,0,2.686-1.1V177a4.5,4.5,0,0,0-2.686-1.1Z" transform="translate(-297.415 -175.878)" fill="#f90"/>
            <rect id="Rectángulo_46734" data-name="Rectángulo 46734" width="2.686" height="19.48" transform="translate(8.754)" fill="#f90"/>
            <rect id="Rectángulo_46735" data-name="Rectángulo 46735" width="2.686" height="19.48" transform="translate(35.016)" fill="#f90"/>
            <rect id="Rectángulo_46736" data-name="Rectángulo 46736" width="2.686" height="19.48" transform="translate(30.639)" fill="#f90"/>
            <rect id="Rectángulo_46737" data-name="Rectángulo 46737" width="2.686" height="19.48" transform="translate(39.393)" fill="#f90"/>
            <rect id="Rectángulo_46738" data-name="Rectángulo 46738" width="2.686" height="19.48" transform="translate(61.278)" fill="#f90"/>
            <rect id="Rectángulo_46739" data-name="Rectángulo 46739" width="2.686" height="19.48" transform="translate(56.9)" fill="#f90"/>
            <path id="Trazado_202457" data-name="Trazado 202457" d="M302.566,194.234a4.5,4.5,0,0,0,2.686,1.1V175.906a4.5,4.5,0,0,0-2.686,1.1Z" transform="translate(-302.566 -175.878)" fill="#f90"/>
            <rect id="Rectángulo_46740" data-name="Rectángulo 46740" width="2.686" height="19.48" transform="translate(65.654)" fill="#f90"/>
            <rect id="Rectángulo_46741" data-name="Rectángulo 46741" width="2.686" height="19.48" transform="translate(43.77)" fill="#f90"/>
            <rect id="Rectángulo_46742" data-name="Rectángulo 46742" width="2.686" height="19.48" transform="translate(52.524)" fill="#f90"/>
            <rect id="Rectángulo_46743" data-name="Rectángulo 46743" width="2.686" height="19.48" transform="translate(48.147)" fill="#f90"/>
          </g>
        </g>
        <path id="Trazado_202458" data-name="Trazado 202458" d="M362.545,238.648h-3.982v-3.982h-5.239v3.982h-3.982v5.239h3.982v3.982h5.239v-3.982h3.982Z" transform="translate(-294.744 -171.213)" fill="#6c3faa"/>
        <g id="Grupo_162822" data-name="Grupo 162822" transform="translate(13.082 68.914)">
          <rect id="Rectángulo_46744" data-name="Rectángulo 46744" width="28.919" height="3.079" fill="#bfd3ec"/>
          <rect id="Rectángulo_46745" data-name="Rectángulo 46745" width="35.277" height="3.079" transform="translate(0 11.158)" fill="#bfd3ec"/>
          <rect id="Rectángulo_46746" data-name="Rectángulo 46746" width="35.277" height="3.079" transform="translate(0 17.968)" fill="#bfd3ec"/>
          <rect id="Rectángulo_46747" data-name="Rectángulo 46747" width="35.277" height="3.079" transform="translate(0 24.779)" fill="#bfd3ec"/>
        </g>
        <path id="Trazado_202459" data-name="Trazado 202459" d="M350.479,191.832c-11.538-2.783-23.354-7.576-31.624-15.952h-13.21a4.547,4.547,0,0,0-4.547,4.547v10.385a4.547,4.547,0,0,0,4.547,4.547h65.988A163.3,163.3,0,0,1,350.479,191.832Z" transform="translate(-298.574 -175.88)" fill="#f90" opacity="0.2" style="mix-blend-mode: multiply;isolation: isolate"/>
        <path id="Trazado_202460" data-name="Trazado 202460" d="M325.145,262.833c-5.288-16.079-.958-34.931,10.187-47.454,9.755-10.963,24.116-16.61,38.453-18.169l-1.427-3.282H306.1l-3.789,8.712a42.732,42.732,0,0,0-3.547,17.045V293.7a8.553,8.553,0,0,0,8.553,8.553h63.827a8.539,8.539,0,0,0,7.187-3.927C355.244,297.312,333.023,286.788,325.145,262.833Z" transform="translate(-298.76 -174.447)" fill="#6c3faa" opacity="0.1" style="mix-blend-mode: multiply;isolation: isolate"/>
      </g>
    </g>
    <g id="Grupo_162828" data-name="Grupo 162828" transform="translate(217.112 276.782)">
      <path id="Trazado_202461" data-name="Trazado 202461" d="M348.49,325.311h-90.3a5.872,5.872,0,0,1-5.873-5.873h0a5.872,5.872,0,0,1,5.873-5.873h90.3a5.872,5.872,0,0,1,5.873,5.873h0A5.872,5.872,0,0,1,348.49,325.311Z" transform="translate(-251.856 -280.372)" fill="#9ae2d8" opacity="0.5" style="mix-blend-mode: multiply;isolation: isolate"/>
      <g id="Grupo_162827" data-name="Grupo 162827" transform="translate(0 0)">
        <g id="Grupo_162825" data-name="Grupo 162825">
          <path id="Trazado_202462" data-name="Trazado 202462" d="M301.875,328.6H271.4a19.411,19.411,0,0,1-19.411-19.411h0A19.411,19.411,0,0,1,271.4,289.777h30.478Z" transform="translate(-251.986 -289.777)" fill="#f90"/>
          <path id="Trazado_202463" data-name="Trazado 202463" d="M287.739,328.6h30.479a19.412,19.412,0,0,0,19.411-19.411h0a19.412,19.412,0,0,0-19.411-19.411H287.739Z" transform="translate(-237.85 -289.777)" fill="#6c3faa"/>
          <path id="Trazado_202464" data-name="Trazado 202464" d="M310.815,313.87c-18.432-2.42-38.08-7.338-50.206-21.746A19.41,19.41,0,0,0,271.4,327.672h60.957a19.4,19.4,0,0,0,18.173-12.642A203.145,203.145,0,0,1,310.815,313.87Z" transform="translate(-251.986 -288.849)" fill="#6c3faa" opacity="0.1" style="mix-blend-mode: multiply;isolation: isolate"/>
        </g>
        <g id="Grupo_162826" data-name="Grupo 162826" transform="translate(17.975 5.749)" opacity="0.8" style="mix-blend-mode: hard-light;isolation: isolate">
          <path id="Trazado_202465" data-name="Trazado 202465" d="M337.848,302.883a1.438,1.438,0,0,1-1.245-.716,10.844,10.844,0,0,0-9.344-5.4h-7.924a1.437,1.437,0,1,1,0-2.873h7.924a13.725,13.725,0,0,1,11.83,6.828,1.437,1.437,0,0,1-1.242,2.159ZM311.8,296.77H266.3a1.437,1.437,0,0,1,0-2.873h45.5a1.437,1.437,0,1,1,0,2.873Z" transform="translate(-264.868 -293.897)" fill="#fff"/>
        </g>
      </g>
    </g>
    <g id="Grupo_162835" data-name="Grupo 162835" transform="translate(430.233 231.357)">
      <g id="Grupo_162834" data-name="Grupo 162834" transform="translate(6.331)">
        <g id="Grupo_162830" data-name="Grupo 162830" transform="translate(1.363 4.869)">
          <g id="Grupo_162829" data-name="Grupo 162829" transform="translate(0 1.253)">
            <path id="Trazado_202466" data-name="Trazado 202466" d="M361.376,234.542l11.473-1.594,3.731,15.981-11.635,2.805Z" transform="translate(-361.376 -232.948)" fill="#ffe208"/>
          </g>
          <path id="Trazado_202467" data-name="Trazado 202467" d="M362.538,235.264l9.607-1.425,3.091,13.239-9.756,2.352Z" transform="translate(-361.284 -231.625)" fill="#fff"/>
          <path id="Trazado_202468" data-name="Trazado 202468" d="M371.1,236.931c-2.164.272-4.314.567-6.457.985-.326.064-.188.558.137.5a63.166,63.166,0,0,1,6.322-1.128C371.475,237.255,371.465,236.885,371.1,236.931Z" transform="translate(-361.132 -231.379)" fill="#4b679e"/>
          <path id="Trazado_202469" data-name="Trazado 202469" d="M371.245,240.73c-1.84.255-3.668.53-5.49.92-.277.059-.16.52.117.464a49.539,49.539,0,0,1,5.375-1.051C371.568,241.034,371.557,240.687,371.245,240.73Z" transform="translate(-361.041 -231.078)" fill="#4b679e"/>
          <path id="Trazado_202470" data-name="Trazado 202470" d="M370.823,239.007c-1.84.255-3.669.529-5.491.92-.277.059-.16.52.117.463a49.547,49.547,0,0,1,5.375-1.051C371.145,239.309,371.135,238.964,370.823,239.007Z" transform="translate(-361.075 -231.215)" fill="#4b679e"/>
          <path id="Trazado_202471" data-name="Trazado 202471" d="M372.832,243.439c-2.089.345-4.164.717-6.232,1.245-.315.08-.181.7.132.627a48.443,48.443,0,0,1,6.1-1.423C373.2,243.85,373.187,243.381,372.832,243.439Z" transform="translate(-360.976 -230.863)" fill="#4b679e"/>
          <path id="Trazado_202472" data-name="Trazado 202472" d="M369.859,233.2a4.927,4.927,0,0,1-.891-.018,1.646,1.646,0,1,0-3.253.508,4.927,4.927,0,0,1-.843.289.562.562,0,0,0-.468.642l.084.543a.563.563,0,0,0,.643.468l4.987-.779a.563.563,0,0,0,.468-.643l-.084-.542A.563.563,0,0,0,369.859,233.2Zm-2.512.27a.447.447,0,1,1,.373-.512A.447.447,0,0,1,367.347,233.469Z" transform="translate(-361.137 -231.788)" fill="#00adf1"/>
        </g>
        <g id="Grupo_162832" data-name="Grupo 162832" transform="translate(13.489 12.592)">
          <path id="Trazado_202473" data-name="Trazado 202473" d="M378.618,243.4a21.28,21.28,0,0,0-2.392,2.16s7.286,8.357,7.94,8.107,3.449-4.139,3.449-4.139S379.694,244.438,378.618,243.4Z" transform="translate(-372.324 -238.589)" fill="#fff"/>
          <g id="Grupo_162831" data-name="Grupo 162831">
            <path id="Trazado_202474" data-name="Trazado 202474" d="M376.892,241.243c-.332-.246-2.572-.353-2.875.089a15.963,15.963,0,0,1-.92,1.579c-.271.216.572.56.866.889.34.381.436.432,1.816.733a2.165,2.165,0,0,1,1.064.863l1.667-1.57A20.318,20.318,0,0,0,376.892,241.243Z" transform="translate(-372.576 -238.777)" fill="#fbf4db"/>
            <path id="Trazado_202475" data-name="Trazado 202475" d="M372.9,243.28l4.969-4.338.775.84-5.513,4.019-.517.113Z" transform="translate(-372.611 -238.942)" fill="#4b679e"/>
            <path id="Trazado_202476" data-name="Trazado 202476" d="M375.131,242.6s-1.507-.563-1.69-.257.1.815.509,1.143a4.661,4.661,0,0,0,1.808.376Z" transform="translate(-372.55 -238.68)" fill="#fbf4db"/>
          </g>
        </g>
        <path id="Trazado_202477" data-name="Trazado 202477" d="M360.467,242.6a2.409,2.409,0,0,1-.353-.087A.586.586,0,0,0,360.467,242.6Z" transform="translate(-360.114 -226.068)" fill="#f0edf1" opacity="0.5" style="mix-blend-mode: multiply;isolation: isolate"/>
        <path id="Trazado_202478" data-name="Trazado 202478" d="M395.218,310.837a4.079,4.079,0,0,1,.153,2.585c-.142.715-1.985.894-3.358.475-3.35-1.021-4.173-2.364-2.567-3.024,1.737-.712,3.194-.9,3.572-.685A6.812,6.812,0,0,0,395.218,310.837Z" transform="translate(-357.848 -220.701)" fill="#322d44"/>
        <path id="Trazado_202479" data-name="Trazado 202479" d="M386.354,267.317s.3,22.075,1.416,24.993c2.542,6.64,5.254,22.623,5.254,22.623a3.93,3.93,0,0,0,2.027.029c.8-.312,1.47-14.044.123-25.122-.33-8.575,1.224-10.466-.659-22.356C394.055,264.58,391,267.282,386.354,267.317Z" transform="translate(-358.031 -224.192)" fill="#203269"/>
        <path id="Trazado_202480" data-name="Trazado 202480" d="M380.116,266.363s-2.135,23.471-1.836,26.583c.678,7.078-2.239,22.826-2.239,22.826a3.948,3.948,0,0,0,1.947.569c.853-.087,8.4-14.361,8.067-23.171,2.32-14.9,5.912-16.115,4.3-25.026C389.831,265.251,384.606,267.57,380.116,266.363Z" transform="translate(-358.85 -224.174)" fill="#203269"/>
        <path id="Trazado_202481" data-name="Trazado 202481" d="M393.025,298.933a8.433,8.433,0,0,1,2.573-4.722c-.11-1.479-.249-2.947-.423-4.37-.33-8.575,1.224-10.466-.659-22.356-.46-2.9-3.512-.2-8.161-.167,0,0,.3,22.075,1.416,24.993,2.542,6.64,5.254,22.623,5.254,22.623a4.689,4.689,0,0,0,1.6.131A29.488,29.488,0,0,1,393.025,298.933Z" transform="translate(-358.031 -224.192)" fill="#203269" opacity="0.4" style="mix-blend-mode: multiply;isolation: isolate"/>
        <path id="Trazado_202482" data-name="Trazado 202482" d="M376.749,316.109c2.419-6.6,2.441-13.685,5.359-20.166a3.345,3.345,0,0,1,3.955-2.09c0-.23,0-.46-.008-.683,2.32-14.9,5.912-16.115,4.3-25.026-.524-2.893-5.749-.574-10.239-1.781,0,0-2.135,23.471-1.836,26.583.678,7.078-2.238,22.826-2.238,22.826A5.329,5.329,0,0,0,376.749,316.109Z" transform="translate(-358.85 -224.174)" fill="#203269" opacity="0.4" style="mix-blend-mode: multiply;isolation: isolate"/>
        <path id="Trazado_202483" data-name="Trazado 202483" d="M379.584,311.617a8.843,8.843,0,0,0,.217,2.856c.142.715-6.181,1.294-7.614,1.214s-3.91-1.445-3.4-1.713c.7-.366,1.541.135,3.223-.3,2.015-.519,4.291-2.014,4.667-1.8C377.57,312.382,379.584,311.617,379.584,311.617Z" transform="translate(-359.431 -220.581)" fill="#322d44"/>
        <g id="Grupo_162833" data-name="Grupo 162833" transform="translate(19.222)">
          <path id="Trazado_202484" data-name="Trazado 202484" d="M379.387,232.924s.7,8.03,3.939,10.455a1.223,1.223,0,0,0,1.454-.152l.438,4.407,4.125-.6-.865-6.466s1.779-.221,1.462-2.826S384.931,228.5,379.387,232.924Z" transform="translate(-377.806 -226.946)" fill="#fbf4db"/>
          <path id="Trazado_202485" data-name="Trazado 202485" d="M386.75,245.887c-.257-.161-.921-3.043-2.246-2.745l-.116-.284a11.875,11.875,0,0,0,4.851-6.6,4.571,4.571,0,0,1,.3,1.1c.317,2.6-1.462,2.825-1.462,2.825l.65,4.925Z" transform="translate(-377.409 -226.564)" fill="#fbf4db" style="mix-blend-mode: multiply;isolation: isolate"/>
          <path id="Trazado_202486" data-name="Trazado 202486" d="M391.925,228.726c-1.547-2.071-4.84-1.192-8.406-1.051-2.443.1-4.308-1.2-5.034.433-.865,1.944-.882,5.185,1.019,5.947,2.259.906,2.633,1.249,2.994,2.706.572,2.307,1.451-.645,2.719.707a2,2,0,0,1-.791,2.831c.272.716,1.476,2.913,1.492,2.913,1.437,0,3.174.285,3.35-.732C389.811,239.319,396.233,234.489,391.925,228.726Z" transform="translate(-377.922 -227.277)" fill="#3f53b8"/>
        </g>
        <path id="Trazado_202487" data-name="Trazado 202487" d="M365.936,245.679c-.214-.532-.366-.9-.413-.979-.523-.875-.256-3.387-1.463-3.605-.115,1.048-.834.838-1.263-.341-.261-.721-1.483.821-1.464,1.334.057,1.525.251,2.093.529,2.36.682.655,1.18,1.389,1.94,1.647.312.106.594.744.88,1.664A3.109,3.109,0,0,1,365.936,245.679Z" transform="translate(-360.017 -226.222)" fill="#fbf4db"/>
        <path id="Trazado_202488" data-name="Trazado 202488" d="M398.624,247.839c-.42-1.323-8.47-4.087-8.47-4.087-.868.958-4.306.589-4.306.589a37.363,37.363,0,0,0-6.736,2.464c-1.932,1.169-3.73,3.788-6.572,4.316s-7.04-6.2-7.04-6.2l-1.588,1.324s3.847,8.25,7.1,9.741,8.321-.642,8.916-.524-6,32.557-2.721,35.988c2.088,2.183,19.127,3.865,24.994.368,1.345-.8-4.1-29.36-3.826-32.235C399.072,252.236,400.306,253.144,398.624,247.839Z" transform="translate(-359.813 -225.969)" fill="#fff"/>
        <path id="Trazado_202489" data-name="Trazado 202489" d="M382.794,248.712a11.415,11.415,0,0,1,.613-3.728,23.523,23.523,0,0,0-4.295,1.736c-1.932,1.169-3.73,3.788-6.572,4.316s-7.04-6.2-7.04-6.2l-1.588,1.324s3.847,8.25,7.1,9.741,8.321-.642,8.916-.524-6,32.557-2.721,35.988c1.682,1.758,13.061,3.19,20.492,1.853C385.912,282.565,382.734,264.276,382.794,248.712Z" transform="translate(-359.813 -225.883)" fill="#edf4f9" style="mix-blend-mode: multiply;isolation: isolate"/>
      </g>
      <path id="Trazado_202490" data-name="Trazado 202490" d="M354.25,313.59c.128,2.987,12.953,4.862,28.643,4.188s28.307-3.64,28.18-6.626-12.953-4.861-28.644-4.187S354.122,310.6,354.25,313.59Z" transform="translate(-354.249 -220.962)" fill="#9ae2d8" opacity="0.5" style="mix-blend-mode: multiply;isolation: isolate"/>
    </g>
    <g id="Grupo_162839" data-name="Grupo 162839" transform="translate(294.267 266.472)">
      <ellipse id="Elipse_5317" data-name="Elipse 5317" cx="29.991" cy="6.743" rx="29.991" ry="6.743" transform="translate(27.807 68.67)" fill="#9ae2d8" opacity="0.5" style="mix-blend-mode: multiply;isolation: isolate"/>
      <g id="Grupo_162838" data-name="Grupo 162838" transform="translate(0 0)">
        <g id="Grupo_162836" data-name="Grupo 162836">
          <path id="Trazado_202491" data-name="Trazado 202491" d="M338,336.12l-23.6-19.29a19.41,19.41,0,0,1-2.743-27.315h0a19.411,19.411,0,0,1,27.315-2.743l23.6,19.29Z" transform="translate(-307.279 -282.389)" fill="#f90"/>
          <path id="Trazado_202492" data-name="Trazado 202492" d="M329.3,329.412l23.6,19.29a19.411,19.411,0,0,0,27.315-2.742h0a19.41,19.41,0,0,0-2.743-27.315l-23.6-19.291Z" transform="translate(-298.573 -275.681)" fill="#6c3faa"/>
          <path id="Trazado_202493" data-name="Trazado 202493" d="M353.659,331.091c-12.738-13.539-24.838-29.783-25.109-48.612a19.411,19.411,0,0,0-14.145,34.35l47.193,38.58a19.4,19.4,0,0,0,22.072,1.715A203.1,203.1,0,0,1,353.659,331.091Z" transform="translate(-307.279 -282.388)" fill="#6c3faa" opacity="0.1" style="mix-blend-mode: multiply;isolation: isolate"/>
        </g>
        <g id="Grupo_162837" data-name="Grupo 162837" transform="translate(25.713 8.51)" opacity="0.8" style="mix-blend-mode: hard-light;isolation: isolate">
          <path id="Trazado_202494" data-name="Trazado 202494" d="M377.756,341.051a1.439,1.439,0,0,1-.511-1.342,10.837,10.837,0,0,0-3.818-10.091l-6.135-5.016a1.437,1.437,0,0,1,1.82-2.226l6.136,5.016a13.726,13.726,0,0,1,4.836,12.775,1.437,1.437,0,0,1-2.327.885Zm-16.3-21.218-35.225-28.8a1.437,1.437,0,1,1,1.82-2.226l35.224,28.8a1.437,1.437,0,1,1-1.818,2.226Z" transform="translate(-325.705 -288.487)" fill="#fff"/>
        </g>
      </g>
    </g>
    <g id="Grupo_162841" data-name="Grupo 162841" transform="translate(192.058 314.137)">
      <ellipse id="Elipse_5318" data-name="Elipse 5318" cx="38.85" cy="15.476" rx="38.85" ry="15.476" transform="translate(0 15.934)" fill="#9ae2d8" opacity="0.5" style="mix-blend-mode: multiply;isolation: isolate"/>
      <g id="Grupo_162840" data-name="Grupo 162840" transform="translate(9.414 0)">
        <path id="Trazado_202495" data-name="Trazado 202495" d="M303.257,329.364c-6.6-3.035-15.9-4.929-26.212-4.929s-19.609,1.894-26.212,4.929H240.777v11.5h.028c.593,8.572,16.584,15.441,36.24,15.441s35.647-6.87,36.24-15.441h.028v-11.5Z" transform="translate(-240.777 -313.43)" fill="#fbf0d0"/>
        <ellipse id="Elipse_5319" data-name="Elipse 5319" cx="36.268" cy="15.934" rx="36.268" ry="15.934" fill="#fbffe5"/>
        <path id="Trazado_202496" data-name="Trazado 202496" d="M240.777,329.364a7.276,7.276,0,0,0,.3,2.022h71.934a7.277,7.277,0,0,0,.3-2.022,8.25,8.25,0,0,0-1.776-4.929H242.553A8.25,8.25,0,0,0,240.777,329.364Z" transform="translate(-240.777 -313.43)" fill="#fbf0d0"/>
        <path id="Trazado_202497" data-name="Trazado 202497" d="M313.011,330.4a7.277,7.277,0,0,0,.3-2.022,7.078,7.078,0,0,0-.165-1.454H240.94a7.175,7.175,0,0,0-.163,1.454,7.275,7.275,0,0,0,.3,2.022Z" transform="translate(-240.777 -312.445)" fill="#fbf0d0" opacity="0.5" style="mix-blend-mode: multiply;isolation: isolate"/>
      </g>
    </g>
    <g id="Grupo_162843" data-name="Grupo 162843" transform="translate(251.268 302.215)">
      <ellipse id="Elipse_5320" data-name="Elipse 5320" cx="38.219" cy="7.748" rx="38.219" ry="7.748" transform="translate(0 56.384)" fill="#9ae2d8" opacity="0.5" style="mix-blend-mode: multiply;isolation: isolate"/>
      <g id="Grupo_162842" data-name="Grupo 162842" transform="translate(10.86 0)">
        <ellipse id="Elipse_5321" data-name="Elipse 5321" cx="34.237" cy="34.237" rx="34.237" ry="34.237" transform="translate(0 2.711) rotate(-2.269)" fill="#fbf0d0"/>
        <ellipse id="Elipse_5322" data-name="Elipse 5322" cx="33.018" cy="33.018" rx="33.018" ry="33.018" transform="translate(4.462 1.329)" fill="#fbffe5"/>
        <path id="Trazado_202498" data-name="Trazado 202498" d="M303.024,360.985a33.011,33.011,0,0,1-3.952-46.359,33,33,0,1,0,46.567,46.468c.049-.059.088-.121.138-.18A33,33,0,0,1,303.024,360.985Z" transform="translate(-282.982 -305.385)" fill="#fbf0d0" opacity="0.5" style="mix-blend-mode: multiply;isolation: isolate"/>
        <path id="Trazado_202499" data-name="Trazado 202499" d="M293.892,318.311a33.132,33.132,0,0,0-2.922,4.017l49.787,42.243a33.23,33.23,0,0,0,6.409-7.553l-49.789-42.243A33.278,33.278,0,0,0,293.892,318.311Z" transform="translate(-281.588 -305.326)" fill="#fbf0d0"/>
        <path id="Trazado_202500" data-name="Trazado 202500" d="M344.177,359.634c.649-.854,1.267-1.72,1.821-2.616L296.21,314.775c-.794.692-1.549,1.443-2.284,2.221Z" transform="translate(-280.419 -305.326)" fill="#fbf0d0" opacity="0.5" style="mix-blend-mode: multiply;isolation: isolate"/>
      </g>
    </g>
  </g>
</svg>
