<svg xmlns="http://www.w3.org/2000/svg" xmlns:xlink="http://www.w3.org/1999/xlink" width="138.374" height="138.374" viewBox="0 0 138.374 138.374">
  <defs>
    <filter id="Elipse_4062" x="0" y="0" width="138.374" height="138.374" filterUnits="userSpaceOnUse">
      <feOffset dy="3" input="SourceAlpha"/>
      <feGaussianBlur stdDeviation="3" result="blur"/>
      <feFlood flood-opacity="0.161"/>
      <feComposite operator="in" in2="blur"/>
      <feComposite in="SourceGraphic"/>
    </filter>
  </defs>
  <g id="Grupo_75708" data-name="Grupo 75708" transform="translate(-276 -856.273)">
    <g transform="matrix(1, 0, 0, 1, 276, 856.27)" filter="url(#Elipse_4062)">
      <circle id="Elipse_4062-2" data-name="Elipse 4062" cx="60.187" cy="60.187" r="60.187" transform="translate(9 6)" fill="#fff"/>
    </g>
    <circle id="Elipse_4063" data-name="Elipse 4063" cx="46.355" cy="46.355" r="46.355" transform="translate(297.71 876.479)" fill="#7e5ee3"/>
    <g id="Grupo_162237" data-name="Grupo 162237" transform="translate(293.967 886.941)">
      <path id="Trazado_201466" data-name="Trazado 201466" d="M287.413,73.045l-1.506-.735a.359.359,0,0,1-.16-.488A33.466,33.466,0,0,0,256,23.032v6.692A26.772,26.772,0,0,1,279.721,68.9a.359.359,0,0,1-.476.154l-1.771-.864a.718.718,0,0,0-1.033.652l.119,12.364a.718.718,0,0,0,1.154.563l9.82-7.514A.718.718,0,0,0,287.413,73.045Z" transform="translate(-205.902 -19.724)" fill="#81d4fa"/>
      <path id="Trazado_201467" data-name="Trazado 201467" d="M25.077,87.8l1.506.735a.359.359,0,0,1,.16.488,33.466,33.466,0,0,0,29.748,48.79v-6.692a26.772,26.772,0,0,1-23.721-39.18.359.359,0,0,1,.476-.154l1.771.864a.718.718,0,0,0,1.033-.652L35.93,79.629a.718.718,0,0,0-1.154-.563l-9.82,7.514A.718.718,0,0,0,25.077,87.8Z" transform="translate(-6.392 -67.582)" fill="#81d4fa"/>
      <circle id="Elipse_5281" data-name="Elipse 5281" cx="11.153" cy="11.153" r="11.153" transform="translate(38.946 1.077)" fill="#ff9d00"/>
      <path id="Trazado_201468" data-name="Trazado 201468" d="M229.937,52.043h-2.231a.359.359,0,0,1-.359-.359V49.453a.359.359,0,0,0-.359-.359h-3.743a.359.359,0,0,0-.359.359v2.231a.359.359,0,0,1-.359.359H220.3a.359.359,0,0,0-.359.359v3.743a.359.359,0,0,0,.359.359h2.231a.359.359,0,0,1,.359.359v2.231a.359.359,0,0,0,.359.359h3.743a.359.359,0,0,0,.359-.359V56.863a.359.359,0,0,1,.359-.359h2.231a.359.359,0,0,0,.359-.359V52.4A.359.359,0,0,0,229.937,52.043Z" transform="translate(-175.019 -42.043)" fill="#eaf9fa"/>
      <path id="Trazado_201469" data-name="Trazado 201469" d="M151.947,211.719H120.64a4.422,4.422,0,0,1-4.422-4.422v-9a4.422,4.422,0,0,1,4.422-4.422h31.306a4.422,4.422,0,0,1,4.422,4.422v9A4.422,4.422,0,0,1,151.947,211.719Z" transform="translate(-86.195 -166.03)" fill="#02c7dd"/>
      <path id="Trazado_201470" data-name="Trazado 201470" d="M347.007,193.875h-3.016a4.422,4.422,0,0,1,4.422,4.422v9a4.422,4.422,0,0,1-4.422,4.422h3.016a4.422,4.422,0,0,0,4.422-4.422v-9A4.422,4.422,0,0,0,347.007,193.875Z" transform="translate(-281.255 -166.031)" fill="#07b2cd"/>
      <circle id="Elipse_5282" data-name="Elipse 5282" cx="11.153" cy="11.153" r="11.153" transform="translate(38.946 50.15)" fill="#e94444"/>
      <path id="Trazado_201472" data-name="Trazado 201472" d="M207.512,362.846A11.154,11.154,0,0,1,192,378.356a11.154,11.154,0,1,0,15.51-15.51Z" transform="translate(-151.095 -310.734)" fill="#d83131"/>
      <path id="Trazado_201473" data-name="Trazado 201473" d="M229.936,415.774H220.3a.359.359,0,0,1-.359-.359v-3.743a.359.359,0,0,1,.359-.359h9.64a.359.359,0,0,1,.359.359v3.743A.359.359,0,0,1,229.936,415.774Z" transform="translate(-175.018 -352.24)" fill="#eaf9fa"/>
      <path id="Trazado_201474" data-name="Trazado 201474" d="M183.074,24.46A12.237,12.237,0,0,1,171.74,7.626a1.077,1.077,0,0,1,2,.811,10.086,10.086,0,1,0,2.613-3.711,1.077,1.077,0,1,1-1.438-1.6,12.23,12.23,0,1,1,8.164,21.337Z" transform="translate(-132.976)"/>
      <path id="Trazado_201475" data-name="Trazado 201475" d="M220.566,54.107h-3.743a1.438,1.438,0,0,1-1.436-1.436V51.158h-1.512a1.438,1.438,0,0,1-1.436-1.436V45.979a1.438,1.438,0,0,1,1.436-1.436h1.512V43.03a1.438,1.438,0,0,1,1.436-1.436h3.743A1.438,1.438,0,0,1,222,43.03v1.512h1.512a1.438,1.438,0,0,1,1.436,1.436v3.743a1.438,1.438,0,0,1-1.436,1.436H222v1.512A1.438,1.438,0,0,1,220.566,54.107Zm-3.025-2.154h2.307V50.44A1.438,1.438,0,0,1,221.284,49H222.8V46.7h-1.512a1.438,1.438,0,0,1-1.436-1.436V43.748h-2.307v1.512A1.438,1.438,0,0,1,216.1,46.7h-1.512V49H216.1a1.438,1.438,0,0,1,1.436,1.436Zm5.974-5.255h0Z" transform="translate(-168.596 -35.62)"/>
      <path id="Trazado_201476" data-name="Trazado 201476" d="M207.445,224.053h-4.461a1.077,1.077,0,0,1-1.077-1.077v-2.231a3.308,3.308,0,1,1,6.615,0v2.231A1.077,1.077,0,0,1,207.445,224.053Zm-3.384-2.154h2.307v-1.153a1.153,1.153,0,1,0-2.307,0Z" transform="translate(-159.577 -186.21)"/>
      <path id="Trazado_201477" data-name="Trazado 201477" d="M207.444,255.115a1.077,1.077,0,0,1-1.077-1.077v-3.384H204.06v3.384a1.077,1.077,0,1,1-2.154,0v-4.461a1.077,1.077,0,0,1,1.077-1.077h4.461a1.077,1.077,0,0,1,1.077,1.077v4.461A1.077,1.077,0,0,1,207.444,255.115Z" transform="translate(-159.577 -212.811)"/>
      <path id="Trazado_201478" data-name="Trazado 201478" d="M329.465,224.053h-2.23a1.077,1.077,0,0,1-1.077-1.077v-4.461a1.077,1.077,0,0,1,1.077-1.077h2.23a3.308,3.308,0,1,1,0,6.615Zm-1.153-2.154h1.153a1.153,1.153,0,1,0,0-2.307h-1.153Z" transform="translate(-265.983 -186.21)"/>
      <path id="Trazado_201479" data-name="Trazado 201479" d="M329.465,255.115h-2.23a1.077,1.077,0,0,1-1.077-1.077v-4.461a1.077,1.077,0,0,1,1.077-1.077h2.23a3.308,3.308,0,1,1,0,6.615Zm-1.153-2.154h1.153a1.153,1.153,0,1,0,0-2.307h-1.153Z" transform="translate(-265.983 -212.811)"/>
      <path id="Trazado_201480" data-name="Trazado 201480" d="M267.34,224.053h-2.23a1.077,1.077,0,0,1-1.077-1.077v-4.461a1.077,1.077,0,0,1,1.077-1.077h2.23a3.308,3.308,0,1,1,0,6.615Zm-1.153-2.154h1.153a1.153,1.153,0,1,0,0-2.307h-1.153Z" transform="translate(-212.78 -186.21)"/>
      <path id="Trazado_201481" data-name="Trazado 201481" d="M269.569,255.115a1.077,1.077,0,0,1-1.077-1.077v-2.231a1.155,1.155,0,0,0-1.153-1.153h-1.153v3.384a1.077,1.077,0,0,1-2.154,0v-4.461a1.077,1.077,0,0,1,1.077-1.077h2.231a3.311,3.311,0,0,1,3.308,3.308v2.231A1.077,1.077,0,0,1,269.569,255.115Z" transform="translate(-212.779 -212.811)"/>
      <path id="Trazado_201482" data-name="Trazado 201482" d="M143.09,228.514a3.312,3.312,0,0,1-3.308-3.308v-4.461a3.308,3.308,0,0,1,6.615,0,1.077,1.077,0,1,1-2.154,0,1.153,1.153,0,1,0-2.307,0v4.461a1.153,1.153,0,1,0,2.307,0,1.077,1.077,0,1,1,2.154,0A3.311,3.311,0,0,1,143.09,228.514Z" transform="translate(-106.375 -186.209)"/>
      <path id="Trazado_201483" data-name="Trazado 201483" d="M145.524,206.374H114.217a5.506,5.506,0,0,1-5.5-5.5v-9a5.506,5.506,0,0,1,5.5-5.5h23.529a1.077,1.077,0,0,1,0,2.154H114.217a3.349,3.349,0,0,0-3.345,3.345v9a3.349,3.349,0,0,0,3.345,3.345h31.306a3.349,3.349,0,0,0,3.345-3.345v-9a3.349,3.349,0,0,0-3.345-3.345h-2.751a1.077,1.077,0,0,1,0-2.154h2.751a5.506,5.506,0,0,1,5.5,5.5v9A5.506,5.506,0,0,1,145.524,206.374Z" transform="translate(-79.772 -159.608)"/>
      <path id="Trazado_201484" data-name="Trazado 201484" d="M183.074,366.148a12.23,12.23,0,1,1,12.23-12.23A12.244,12.244,0,0,1,183.074,366.148Zm0-22.306a10.076,10.076,0,1,0,10.076,10.076A10.087,10.087,0,0,0,183.074,343.842Z" transform="translate(-132.976 -292.615)"/>
      <path id="Trazado_201485" data-name="Trazado 201485" d="M223.514,410.428h-9.64a1.438,1.438,0,0,1-1.436-1.436v-3.743a1.438,1.438,0,0,1,1.436-1.436h9.64a1.438,1.438,0,0,1,1.436,1.436v3.743A1.438,1.438,0,0,1,223.514,410.428Zm-8.922-2.154h8.2v-2.307h-8.2Z" transform="translate(-168.595 -345.818)"/>
      <path id="Trazado_201486" data-name="Trazado 201486" d="M42.347,131.556a1.088,1.088,0,0,1-.249-.029,34.616,34.616,0,0,1-14.662-7.543,34.17,34.17,0,0,1-11.294-19.758,34.72,34.72,0,0,1,2.923-21.472l-.852-.416a1.8,1.8,0,0,1-.3-3.039l9.82-7.514a1.8,1.8,0,0,1,2.886,1.408l.119,12.364a1.795,1.795,0,0,1-2.582,1.631l-1.136-.554a25.683,25.683,0,0,0,2.9,27.188,1.077,1.077,0,0,1-1.691,1.335,27.838,27.838,0,0,1-2.8-30.147,1.429,1.429,0,0,1,1.9-.622L28.574,85l-.107-11.065L19.68,80.657l.983.48a1.423,1.423,0,0,1,.732.837,1.448,1.448,0,0,1-.088,1.113,32.4,32.4,0,0,0,21.287,46.344,1.077,1.077,0,0,1-.248,2.126Z" transform="translate(0 -61.158)"/>
      <path id="Trazado_201487" data-name="Trazado 201487" d="M133.69,395.43a1.072,1.072,0,0,1-.448-.1,27.881,27.881,0,0,1-6.671-4.31,1.077,1.077,0,1,1,1.414-1.625,25.731,25.731,0,0,0,6.156,3.977,1.077,1.077,0,0,1-.45,2.057Z" transform="translate(-94.744 -333.245)"/>
      <path id="Trazado_201488" data-name="Trazado 201488" d="M317.08,81.966a1.8,1.8,0,0,1-1.8-1.779l-.119-12.365a1.8,1.8,0,0,1,2.582-1.631l1.137.555A25.724,25.724,0,0,0,306.5,32.094a1.077,1.077,0,1,1,.9-1.958A27.863,27.863,0,0,1,320.474,68.37a1.429,1.429,0,0,1-1.9.622l-1.248-.609.107,11.065,8.788-6.725-.983-.48a1.425,1.425,0,0,1-.732-.837,1.448,1.448,0,0,1,.087-1.112A32.4,32.4,0,0,0,303.3,23.949a1.077,1.077,0,0,1,.5-2.1A34.614,34.614,0,0,1,318.462,29.4a34.169,34.169,0,0,1,11.294,19.758,34.723,34.723,0,0,1-2.923,21.472l.852.415a1.8,1.8,0,0,1,.3,3.039l-9.82,7.514A1.789,1.789,0,0,1,317.08,81.966Z" transform="translate(-245.701 -18.69)"/>
    </g>
  </g>
</svg>
