<svg xmlns="http://www.w3.org/2000/svg" xmlns:xlink="http://www.w3.org/1999/xlink" width="190" height="89.471" viewBox="0 0 190 89.471">
  <defs>
    <clipPath id="clip-path">
      <path id="Intersección_1" data-name="Intersección 1" d="M0,89.471V0H190V89.471Z" transform="translate(0)" fill="none"/>
    </clipPath>
  </defs>
  <g id="Grupo_156964" data-name="Grupo 156964" transform="translate(-48.91 374.393)">
    <g id="Grupo_156963" data-name="Grupo 156963" transform="translate(48.91 -374.393)" clip-path="url(#clip-path)">
      <g id="Grupo_156962" data-name="Grupo 156962" transform="translate(0.759 8.71)">
        <path id="Trazado_193066" data-name="Trazado 193066" d="M370.519-284.345a27.716,27.716,0,0,0-27.685-27.685H282.85a27.716,27.716,0,0,0-27.685,27.685A27.716,27.716,0,0,0,282.85-256.66h59.984A27.716,27.716,0,0,0,370.519-284.345Z" transform="translate(-191.424 322.823)" fill="#dff6fd"/>
        <path id="Trazado_193067" data-name="Trazado 193067" d="M370.519-233.641a27.776,27.776,0,0,0-.387-4.614,27.729,27.729,0,0,1-27.3,23.071H282.85a27.729,27.729,0,0,1-27.3-23.071,27.775,27.775,0,0,0-.387,4.614,27.716,27.716,0,0,0,27.685,27.685h59.984A27.716,27.716,0,0,0,370.519-233.641Z" transform="translate(-191.424 272.118)" fill="#c8effe"/>
        <path id="Trazado_193068" data-name="Trazado 193068" d="M381.572-264.063a18.457,18.457,0,0,0-18.457-18.457H303.132a18.456,18.456,0,0,0-18.457,18.456,18.456,18.456,0,0,0,18.457,18.456h59.984A18.456,18.456,0,0,0,381.572-264.063Z" transform="translate(-211.706 302.541)" fill="#62dbfb"/>
        <path id="Trazado_193069" data-name="Trazado 193069" d="M381.572-233.007a18.5,18.5,0,0,0-.515-4.326A18.46,18.46,0,0,1,363.115-223.2H303.132a18.46,18.46,0,0,1-17.942-14.131,18.517,18.517,0,0,0-.515,4.326,18.456,18.456,0,0,0,18.457,18.456h59.984A18.456,18.456,0,0,0,381.572-233.007Z" transform="translate(-211.706 271.485)" fill="#01d0fb"/>
        <g id="Grupo_156959" data-name="Grupo 156959" transform="translate(143.062 28.686)">
          <circle id="Elipse_4996" data-name="Elipse 4996" cx="6.921" cy="6.921" r="6.921" transform="translate(0 9.788) rotate(-45)" fill="#fe93d3"/>
          <path id="Trazado_193070" data-name="Trazado 193070" d="M531.07-233.568a6.907,6.907,0,0,1-1.272,1.749,6.921,6.921,0,0,1-9.788,0,6.909,6.909,0,0,1-1.272-1.749,6.923,6.923,0,0,0,1.272,8.039,6.921,6.921,0,0,0,9.788,0A6.923,6.923,0,0,0,531.07-233.568Z" transform="translate(-515.116 240.211)" fill="#fe73c5"/>
        </g>
        <g id="Grupo_156960" data-name="Grupo 156960" transform="translate(108.026 31.586)">
          <path id="Trazado_193071" data-name="Trazado 193071" d="M407.03-232.283l-7.967-4.658a4.615,4.615,0,0,1-1.655-6.312h0a4.614,4.614,0,0,1,6.312-1.655l7.967,4.658a4.615,4.615,0,0,1,1.655,6.312h0A4.615,4.615,0,0,1,407.03-232.283Z" transform="translate(-396.777 245.539)" fill="#ffe177"/>
        </g>
        <path id="Trazado_193072" data-name="Trazado 193072" d="M617.818-226.692a2.135,2.135,0,0,1-.627-1.514,2.141,2.141,0,0,1,2.141-2.141h8.651a2.141,2.141,0,0,1,2.141,2.141,2.141,2.141,0,0,1-2.141,2.141h-8.651A2.135,2.135,0,0,1,617.818-226.692Z" transform="translate(-440.237 266.683)"/>
        <path id="Trazado_193073" data-name="Trazado 193073" d="M591.889-302.736a2.141,2.141,0,0,1,0-3.028l6.117-6.117a2.141,2.141,0,0,1,3.028,0,2.141,2.141,0,0,1,0,3.028l-6.117,6.118A2.141,2.141,0,0,1,591.889-302.736Z" transform="translate(-422.416 323.152)"/>
        <path id="Trazado_193074" data-name="Trazado 193074" d="M529.288-334.235a2.136,2.136,0,0,1-.627-1.514V-344.4a2.141,2.141,0,0,1,2.141-2.141,2.141,2.141,0,0,1,2.141,2.142v8.651a2.141,2.141,0,0,1-2.141,2.141A2.135,2.135,0,0,1,529.288-334.235Z" transform="translate(-379.392 346.542)"/>
        <path id="Trazado_193075" data-name="Trazado 193075" d="M598.007-157.975l-6.118-6.117a2.141,2.141,0,0,1,0-3.028,2.141,2.141,0,0,1,3.028,0L601.035-161a2.141,2.141,0,0,1,0,3.028A2.141,2.141,0,0,1,598.007-157.975Z" transform="translate(-422.417 223.66)"/>
        <path id="Trazado_193076" data-name="Trazado 193076" d="M529.288-129.511a2.134,2.134,0,0,1-.627-1.514v-8.651a2.141,2.141,0,0,1,2.141-2.141,2.141,2.141,0,0,1,2.141,2.141v8.651a2.141,2.141,0,0,1-2.141,2.141A2.135,2.135,0,0,1,529.288-129.511Z" transform="translate(-379.392 205.839)"/>
        <path id="Trazado_193077" data-name="Trazado 193077" d="M51.964-250.106a2.135,2.135,0,0,1-.419-.594,2.141,2.141,0,0,1,1.012-2.854l17.77-8.463a24.828,24.828,0,0,1,26.627,3.428,20.526,20.526,0,0,0,13.212,4.827h4.623a2.142,2.142,0,0,1,2.141,2.141,2.141,2.141,0,0,1-2.141,2.141h-4.623a24.808,24.808,0,0,1-15.973-5.835,20.538,20.538,0,0,0-22.025-2.835L54.4-249.688A2.142,2.142,0,0,1,51.964-250.106Z" transform="translate(-51.337 290.098)"/>
        <path id="Trazado_193078" data-name="Trazado 193078" d="M254.391-157.975a2.141,2.141,0,0,1,0-3.028l6.117-6.117a2.141,2.141,0,0,1,3.028,0,2.141,2.141,0,0,1,0,3.028l-6.117,6.117A2.141,2.141,0,0,1,254.391-157.975Z" transform="translate(-190.461 223.66)"/>
        <path id="Trazado_193079" data-name="Trazado 193079" d="M336.552-129.511a2.134,2.134,0,0,1-.627-1.514v-8.652a2.141,2.141,0,0,1,2.141-2.141,2.141,2.141,0,0,1,2.141,2.142v8.652a2.141,2.141,0,0,1-2.141,2.141A2.135,2.135,0,0,1,336.552-129.511Z" transform="translate(-246.929 205.839)"/>
        <path id="Trazado_193080" data-name="Trazado 193080" d="M400.8-129.511a2.134,2.134,0,0,1-.627-1.514v-8.652a2.141,2.141,0,0,1,2.141-2.142,2.141,2.141,0,0,1,2.142,2.141v8.652a2.141,2.141,0,0,1-2.141,2.142A2.135,2.135,0,0,1,400.8-129.511Z" transform="translate(-291.084 205.839)"/>
        <path id="Trazado_193081" data-name="Trazado 193081" d="M465.043-129.511a2.134,2.134,0,0,1-.627-1.514v-8.651a2.141,2.141,0,0,1,2.141-2.141,2.141,2.141,0,0,1,2.141,2.141v8.651a2.141,2.141,0,0,1-2.141,2.141A2.134,2.134,0,0,1,465.043-129.511Z" transform="translate(-335.238 205.839)"/>
        <path id="Trazado_193082" data-name="Trazado 193082" d="M529.288-334.235a2.136,2.136,0,0,1-.627-1.514V-344.4a2.141,2.141,0,0,1,2.141-2.141,2.141,2.141,0,0,1,2.141,2.142v8.651a2.141,2.141,0,0,1-2.141,2.141A2.135,2.135,0,0,1,529.288-334.235Z" transform="translate(-379.392 346.542)"/>
        <path id="Trazado_193083" data-name="Trazado 193083" d="M336.552-334.235a2.134,2.134,0,0,1-.627-1.514V-344.4a2.141,2.141,0,0,1,2.141-2.141,2.141,2.141,0,0,1,2.141,2.141v8.652a2.141,2.141,0,0,1-2.141,2.141A2.134,2.134,0,0,1,336.552-334.235Z" transform="translate(-246.929 346.542)"/>
        <path id="Trazado_193084" data-name="Trazado 193084" d="M400.8-334.235a2.135,2.135,0,0,1-.627-1.514V-344.4a2.141,2.141,0,0,1,2.141-2.141,2.141,2.141,0,0,1,2.141,2.141v8.652a2.141,2.141,0,0,1-2.141,2.141A2.135,2.135,0,0,1,400.8-334.235Z" transform="translate(-291.084 346.542)"/>
        <path id="Trazado_193085" data-name="Trazado 193085" d="M465.043-334.235a2.134,2.134,0,0,1-.627-1.514V-344.4a2.141,2.141,0,0,1,2.141-2.141A2.141,2.141,0,0,1,468.7-344.4v8.652a2.141,2.141,0,0,1-2.141,2.141A2.136,2.136,0,0,1,465.043-334.235Z" transform="translate(-335.238 346.542)"/>
        <path id="Trazado_193086" data-name="Trazado 193086" d="M260.508-302.736l-6.117-6.117a2.141,2.141,0,0,1,0-3.028,2.141,2.141,0,0,1,3.028,0l6.118,6.118a2.141,2.141,0,0,1,0,3.028A2.141,2.141,0,0,1,260.508-302.736Z" transform="translate(-190.46 323.151)"/>
        <path id="Trazado_193087" data-name="Trazado 193087" d="M336.552-334.235a2.134,2.134,0,0,1-.627-1.514V-344.4a2.141,2.141,0,0,1,2.141-2.141,2.141,2.141,0,0,1,2.141,2.141v8.652a2.141,2.141,0,0,1-2.141,2.141A2.134,2.134,0,0,1,336.552-334.235Z" transform="translate(-246.929 346.542)"/>
        <path id="Trazado_193088" data-name="Trazado 193088" d="M257.06-267.972a29.738,29.738,0,0,1-8.747-21.081,29.83,29.83,0,0,1,.829-6.993,2.141,2.141,0,0,1,2.584-1.579,2.141,2.141,0,0,1,1.579,2.584,25.521,25.521,0,0,0-.709,5.987,25.575,25.575,0,0,0,25.545,25.545l59.985,0a25.572,25.572,0,0,0,25.543-25.543,25.368,25.368,0,0,0-7.491-18.052,25.368,25.368,0,0,0-18.052-7.49l-59.985,0a25.57,25.57,0,0,0-21.083,11.139,2.141,2.141,0,0,1-2.977.555,2.14,2.14,0,0,1-.555-2.977,29.849,29.849,0,0,1,24.615-13l59.985,0a29.622,29.622,0,0,1,21.08,8.745,29.624,29.624,0,0,1,8.745,21.08,29.859,29.859,0,0,1-29.825,29.825l-59.985,0A29.732,29.732,0,0,1,257.06-267.972Z" transform="translate(-186.715 327.53)"/>
        <path id="Trazado_193089" data-name="Trazado 193089" d="M283.866-254.211a20.533,20.533,0,0,1-6.04-14.558,20.462,20.462,0,0,1,6.033-14.565,20.462,20.462,0,0,1,14.565-6.033h45.735a2.142,2.142,0,0,1,2.141,2.141,2.141,2.141,0,0,1-2.141,2.141H298.424a16.21,16.21,0,0,0-11.537,4.778,16.208,16.208,0,0,0-4.778,11.537,16.267,16.267,0,0,0,4.784,11.532,16.26,16.26,0,0,0,11.532,4.784h9.528a2.141,2.141,0,0,1,2.141,2.141,2.141,2.141,0,0,1-2.141,2.141h-9.528A20.533,20.533,0,0,1,283.866-254.211Z" transform="translate(-206.998 307.247)"/>
        <path id="Trazado_193090" data-name="Trazado 193090" d="M399.894-248.8a2.137,2.137,0,0,1-.627-1.514,2.142,2.142,0,0,1,2.142-2.142H441.87a16.212,16.212,0,0,0,11.538-4.779,16.2,16.2,0,0,0,4.778-11.536,16.2,16.2,0,0,0-4.778-11.537,16.21,16.21,0,0,0-11.538-4.779h-4.255a2.142,2.142,0,0,1-2.141-2.141,2.141,2.141,0,0,1,2.141-2.141h4.255a20.465,20.465,0,0,1,14.566,6.033,20.457,20.457,0,0,1,6.032,14.565,20.455,20.455,0,0,1-6.032,14.564,20.466,20.466,0,0,1-14.566,6.034H401.409A2.136,2.136,0,0,1,399.894-248.8Z" transform="translate(-290.462 307.247)"/>
        <path id="Trazado_193091" data-name="Trazado 193091" d="M513.8-237.01a9.072,9.072,0,0,1,0-12.816,9.073,9.073,0,0,1,12.816,0,9.073,9.073,0,0,1,0,12.816A9.072,9.072,0,0,1,513.8-237.01Zm9.788-9.788a4.786,4.786,0,0,0-6.76,0,4.786,4.786,0,0,0,0,6.76,4.786,4.786,0,0,0,6.76,0A4.786,4.786,0,0,0,523.585-246.8Z" transform="translate(-367.355 281.892)"/>
        <g id="Grupo_156961" data-name="Grupo 156961" transform="translate(105.887 29.447)">
          <path id="Trazado_193092" data-name="Trazado 193092" d="M391.914-240.847a6.767,6.767,0,0,1-1.056-8.187,6.763,6.763,0,0,1,9.241-2.423l7.967,4.658a6.764,6.764,0,0,1,2.423,9.241,6.764,6.764,0,0,1-9.241,2.423h0l-7.967-4.658A6.741,6.741,0,0,1,391.914-240.847Zm14.491-1.87a2.474,2.474,0,0,0-.5-.386l-7.967-4.657a2.477,2.477,0,0,0-3.383.887,2.478,2.478,0,0,0,.888,3.383l7.967,4.657h0a2.476,2.476,0,0,0,3.383-.887A2.478,2.478,0,0,0,406.406-242.717Zm-4.077,5.733,0,0Z" transform="translate(-389.937 252.379)"/>
        </g>
        <path id="Trazado_193093" data-name="Trazado 193093" d="M471.729-242.614a2.136,2.136,0,0,1-.627-1.514,6.711,6.711,0,0,1,1.979-4.777,6.711,6.711,0,0,1,4.777-1.978A2.142,2.142,0,0,1,480-248.742a2.141,2.141,0,0,1-2.142,2.141,2.458,2.458,0,0,0-1.749.724,2.458,2.458,0,0,0-.724,1.749,2.141,2.141,0,0,1-2.141,2.141A2.135,2.135,0,0,1,471.729-242.614Z" transform="translate(-339.833 280.797)"/>
        <path id="Trazado_193094" data-name="Trazado 193094" d="M351.175-215.218a2.134,2.134,0,0,1-.627-1.514,2.141,2.141,0,0,1,2.141-2.142,2.476,2.476,0,0,0,2.473-2.473,2.141,2.141,0,0,1,2.141-2.142,2.142,2.142,0,0,1,2.141,2.141,6.764,6.764,0,0,1-6.755,6.756A2.138,2.138,0,0,1,351.175-215.218Z" transform="translate(-256.979 261.969)"/>
        <path id="Trazado_193095" data-name="Trazado 193095" d="M480.53-204.642a2.155,2.155,0,0,1-.626-1.514,2.072,2.072,0,0,1,.042-.417,2.322,2.322,0,0,1,.121-.4,2.278,2.278,0,0,1,.2-.371,2.047,2.047,0,0,1,.265-.325,2.1,2.1,0,0,1,.327-.267,2.173,2.173,0,0,1,.369-.2,2.322,2.322,0,0,1,.4-.123,2.072,2.072,0,0,1,.418-.042,2.163,2.163,0,0,1,1.512.628,2.165,2.165,0,0,1,.63,1.514,2.237,2.237,0,0,1-.043.418,2.333,2.333,0,0,1-.123.4,2.165,2.165,0,0,1-.2.369,2.322,2.322,0,0,1-.268.325,2.27,2.27,0,0,1-.323.266,2.261,2.261,0,0,1-.371.2,2.3,2.3,0,0,1-.4.121,2.238,2.238,0,0,1-.418.043A2.158,2.158,0,0,1,480.53-204.642Z" transform="translate(-345.883 251.53)"/>
        <path id="Trazado_193096" data-name="Trazado 193096" d="M350.489-248.992a2.034,2.034,0,0,1-.265-.325,2.271,2.271,0,0,1-.2-.369,2.168,2.168,0,0,1-.121-.4,2.121,2.121,0,0,1-.04-.42,1.937,1.937,0,0,1,.042-.418,2.006,2.006,0,0,1,.121-.4,2.035,2.035,0,0,1,.2-.37,2.109,2.109,0,0,1,.266-.327,2.148,2.148,0,0,1,1.514-.626,2.1,2.1,0,0,1,.42.04,2.162,2.162,0,0,1,.4.121,2.223,2.223,0,0,1,.369.2,2.059,2.059,0,0,1,.592.592,2.118,2.118,0,0,1,.2.367,2.171,2.171,0,0,1,.121.4,2.126,2.126,0,0,1,.04.42,2.128,2.128,0,0,1-.04.42,2.171,2.171,0,0,1-.121.4,2.216,2.216,0,0,1-.2.367,2.1,2.1,0,0,1-.266.327,2.077,2.077,0,0,1-.327.266,2.184,2.184,0,0,1-.367.2,2.164,2.164,0,0,1-.4.121,2.146,2.146,0,0,1-.42.04,2.006,2.006,0,0,1-.42-.04,2.168,2.168,0,0,1-.4-.121,2.155,2.155,0,0,1-.367-.2A2.061,2.061,0,0,1,350.489-248.992Z" transform="translate(-256.508 282.009)"/>
        <path id="Trazado_193097" data-name="Trazado 193097" d="M322.278-225.2a2.062,2.062,0,0,1-.268-.325,2.142,2.142,0,0,1-.2-.369,2.313,2.313,0,0,1-.123-.4,2.232,2.232,0,0,1-.043-.417,2.264,2.264,0,0,1,.042-.418,2.2,2.2,0,0,1,.124-.4,2.15,2.15,0,0,1,.2-.369,2.3,2.3,0,0,1,.267-.323,2.28,2.28,0,0,1,.325-.269,2.163,2.163,0,0,1,.369-.2,2.222,2.222,0,0,1,.4-.123,2.261,2.261,0,0,1,.418-.043,2.235,2.235,0,0,1,.418.043,2.321,2.321,0,0,1,.4.123,2.163,2.163,0,0,1,.369.2,2.178,2.178,0,0,1,.592.591,2.258,2.258,0,0,1,.2.372,2.275,2.275,0,0,1,.121.4,2.08,2.08,0,0,1,.043.418,2.054,2.054,0,0,1-.043.418,2.186,2.186,0,0,1-.123.4,2.152,2.152,0,0,1-.2.369,2.1,2.1,0,0,1-.266.327,2.155,2.155,0,0,1-1.514.625,2.1,2.1,0,0,1-.418-.042,2.269,2.269,0,0,1-.4-.121,2.245,2.245,0,0,1-.372-.2A2.029,2.029,0,0,1,322.278-225.2Z" transform="translate(-237.116 265.656)"/>
      </g>
    </g>
  </g>
</svg>
