<svg xmlns="http://www.w3.org/2000/svg" width="153.382" height="103.175" viewBox="0 0 153.382 103.175">
  <g id="Grupo_156971" data-name="Grupo 156971" transform="translate(-390 -5136.17)">
    <g id="Grupo_156968" data-name="Grupo 156968" transform="translate(379.033 5120.565)">
      <path id="Trazado_193098" data-name="Trazado 193098" d="M108.588,35.388c17.153,19.721,12.663,51.7-10.026,71.439s-54.988,19.743-72.139.021S13.76,55.143,36.449,35.409,91.438,15.666,108.588,35.388Z" transform="translate(-3.955 -3.925)" fill="#e1b7a3"/>
      <path id="Trazado_193099" data-name="Trazado 193099" d="M123.849,58.231c15.376,17.678,11.352,46.351-8.989,64.042s-49.293,17.7-64.669.019S38.839,75.942,59.18,58.251,108.473,40.553,123.849,58.231Z" transform="translate(-23.47 -23.069)" fill="#adf0e5"/>
      <path id="Trazado_193100" data-name="Trazado 193100" d="M356.752,145.591a1.614,1.614,0,0,1-.715,2.041,1.608,1.608,0,0,1-2.127-.536l-1.009-1.552a1.745,1.745,0,0,0-3.208.951,1.707,1.707,0,0,0,.041.373,18.965,18.965,0,0,0,.575,2.631,1.95,1.95,0,0,1-.064,1.893,7.269,7.269,0,0,1-4.835,3.223l-4.631.833a.29.29,0,0,1-.232-.513,1.629,1.629,0,0,0,.1-2.453l-6-5.663a1.758,1.758,0,0,1,2.157-2.758l3.489,2.232a1.623,1.623,0,0,0,1.916-.12l.44-.365a1.628,1.628,0,0,0,.021-2.481l-1.97-1.7a1.974,1.974,0,0,1,2.249-3.219l4.393,2.442a1.63,1.63,0,0,0,1.569.006l.494-.27a1.627,1.627,0,0,0,.71-2.082l-1.238-2.813a1.628,1.628,0,0,1,.834-2.146,1.611,1.611,0,0,1,.207-.075l.17-.047a1.626,1.626,0,0,1,1.921.878Z" transform="translate(-253.791 -92.484)" fill="#4ca987"/>
      <path id="Trazado_193101" data-name="Trazado 193101" d="M386.79,277.84c2.7,1.122,3.775,4.734,2.393,8.067s-4.7,5.129-7.4,4.009-3.775-4.732-2.393-8.067S384.086,276.72,386.79,277.84Z" transform="translate(-288.887 -205.698)" fill="#6addc7"/>
      <path id="Trazado_193102" data-name="Trazado 193102" d="M291.225,278.32c4.255,10.577-5.135,16.026-11.9,13.932A28.055,28.055,0,0,0,291.225,278.32Z" transform="translate(-210.773 -206.337)" fill="#5fcda4"/>
      <path id="Trazado_193103" data-name="Trazado 193103" d="M167.93,367.964c1.15,2.59,2.3,10.934-16.691,11.223-13.264.2-20.6-11.927-15.541-14.966,4.318-2.59,4.022,4.605,13.238,4.605S165.377,362.219,167.93,367.964Z" transform="translate(-96.7 -273.363)" fill="#fc8193"/>
      <path id="Trazado_193104" data-name="Trazado 193104" d="M211.283,218.95c5.88,0,11.8,5.105,11.8,11.223s-8.058,11.8-13.238,12.663c-5.8.966-9.783-5.68-9.783-11.8s5.343-12.086,11.223-12.086Z" transform="translate(-148.514 -159.708)" fill="#edb740"/>
      <path id="Trazado_193105" data-name="Trazado 193105" d="M170.369,215.151c-8.009-4.71.949-20.655,11.618-16.635C176.036,201.067,169.9,205.495,170.369,215.151Z" transform="translate(-122.778 -143.154)" fill="#5fcda4"/>
      <path id="Trazado_193106" data-name="Trazado 193106" d="M84.357,268.162a5.808,5.808,0,0,1-5.18,5.889c-3.264.384-7.38-3.558-7.3-6.831a5.831,5.831,0,0,1,6.713-5.652c2.994.609,5.768,3.539,5.768,6.595Z" transform="translate(-47.837 -193.104)" fill="#6addc7"/>
      <circle id="Elipse_4997" data-name="Elipse 4997" cx="2.708" cy="2.708" r="2.708" transform="translate(30.161 59.751)" fill="#6addc7"/>
      <path id="Trazado_193107" data-name="Trazado 193107" d="M232.936,248.21a5.618,5.618,0,1,1-6.146,5.592,5.889,5.889,0,0,1,6.146-5.592Z" transform="translate(-169.508 -182.689)" fill="#d8a43d"/>
      <path id="Trazado_193108" data-name="Trazado 193108" d="M56.629,122.3c-15.376-17.678-11.352-46.351,8.989-64.042A53.066,53.066,0,0,1,96.6,45.1c-12.631-.887-26.308,3.5-37.415,13.16C38.839,75.947,34.815,104.619,50.191,122.3c8.391,9.646,20.822,14.025,33.692,13.141A39.224,39.224,0,0,1,56.629,122.3Z" transform="translate(-23.47 -23.074)" fill="#8fc6bb"/>
      <g id="Grupo_156967" data-name="Grupo 156967" transform="translate(10.967 15.605)">
        <path id="Trazado_193109" data-name="Trazado 193109" d="M45.432,119.071c7.64,8.785,18.743,13.622,31.267,13.622h.016a53.493,53.493,0,0,0,34.9-13.537A53.493,53.493,0,0,0,129.86,86.471c1.741-12.408-1.509-24.081-9.152-32.87S101.964,39.979,89.441,39.979h-.015a53.5,53.5,0,0,0-34.9,13.537A53.493,53.493,0,0,0,36.28,86.2c-1.741,12.408,1.509,24.082,9.152,32.87ZM38.4,86.5A51.348,51.348,0,0,1,55.934,55.135,51.5,51.5,0,0,1,89.439,42.143c11.4,0,22.189,4.287,29.65,12.867,7.229,8.312,10.3,19.38,8.646,31.163a51.35,51.35,0,0,1-17.529,31.366A51.5,51.5,0,0,1,76.7,130.531c-11.4,0-22.189-4.287-29.65-12.867-7.229-8.313-10.3-19.381-8.646-31.164Z" transform="translate(-30.487 -34.748)"/>
        <path id="Trazado_193110" data-name="Trazado 193110" d="M129.393,365.247c1.32,4.629,7.638,11.058,17.6,11.058.117,0,.235,0,.353,0,9.03-.137,14.81-2.084,17.178-5.789A7.447,7.447,0,0,0,165,363.57c-1.922-4.325-6.03-3.039-10.381-1.677a31.888,31.888,0,0,1-9.592,1.9,10.4,10.4,0,0,1-8.034-3.269c-1.5-1.38-3.047-2.808-5.755-1.182-1.885,1.131-2.573,3.337-1.842,5.9Zm2.945-4.062a2.274,2.274,0,0,1,1.133-.414c.582,0,1.1.443,2.064,1.335a12.545,12.545,0,0,0,9.489,3.837,34.094,34.094,0,0,0,10.234-2c4.914-1.539,6.727-1.866,7.779.5a5.341,5.341,0,0,1-.325,4.916c-1.344,2.1-5.107,4.643-15.4,4.8l-.311,0c-8.752,0-14.441-5.635-15.543-9.5-.268-.939-.509-2.639.882-3.474Z" transform="translate(-103.754 -285.011)"/>
        <path id="Trazado_193111" data-name="Trazado 193111" d="M169.961,396.064a5.565,5.565,0,0,0,4.358-.4,6.3,6.3,0,0,0,4.073,1.6,5.412,5.412,0,0,0,.745-.052,5.477,5.477,0,0,0,3.521-2.033,4.619,4.619,0,0,0,4.368.563,4.234,4.234,0,0,0,2.879-4.764,1.073,1.073,0,0,0-2.125.3l0,.024a2.143,2.143,0,0,1-1.487,2.42,2.351,2.351,0,0,1-2.864-.833,1.073,1.073,0,0,0-1.874.061,3.687,3.687,0,0,1-2.719,2.135,4.238,4.238,0,0,1-3.6-1.514,1.073,1.073,0,0,0-1.427-.125,3.475,3.475,0,0,1-3.155.582,2.757,2.757,0,0,1-1.786-2.02,1.073,1.073,0,0,0-2.071.565,4.9,4.9,0,0,0,3.161,3.485Z" transform="translate(-133.329 -309.704)"/>
        <path id="Trazado_193112" data-name="Trazado 193112" d="M272.589,138.38a7.393,7.393,0,0,1,7.073,3.355,1.073,1.073,0,0,0,1.79-1.184,9.517,9.517,0,0,0-8.964-4.315,1.073,1.073,0,0,0,.1,2.144Z" transform="translate(-215.563 -110.338)"/>
        <path id="Trazado_193113" data-name="Trazado 193113" d="M273.956,115.37c3.253-.339,7.967,1.965,9.345,4.566a1.073,1.073,0,0,0,1.9-1c-1.779-3.357-7.349-6.125-11.464-5.7a1.073,1.073,0,0,0,.223,2.134Z" transform="translate(-216.593 -92.25)"/>
        <path id="Trazado_193114" data-name="Trazado 193114" d="M283.282,93.415c3.072-.146,7.84,2.2,9.459,4.651a1.073,1.073,0,0,0,1.79-1.184c-2.063-3.119-7.479-5.794-11.35-5.611a1.073,1.073,0,1,0,.1,2.144Z" transform="translate(-223.962 -75.027)"/>
        <path id="Trazado_193115" data-name="Trazado 193115" d="M298.825,75.684a9.428,9.428,0,0,1,6.858,3.369,1.073,1.073,0,1,0,1.794-1.177l0-.007a11.5,11.5,0,0,0-8.748-4.328,1.073,1.073,0,0,0,.1,2.144Z" transform="translate(-236.169 -61.103)"/>
        <path id="Trazado_193116" data-name="Trazado 193116" d="M198.748,218.046a13.656,13.656,0,0,0-3.689,9.063c0,4.31,1.808,8.627,4.608,11a7.841,7.841,0,0,0,5.129,1.967,7.932,7.932,0,0,0,1.3-.109,20.2,20.2,0,0,0,9.085-4.605c3.256-2.8,5.049-6.042,5.049-9.115,0-6.436-6.135-12.3-12.872-12.3a11.919,11.919,0,0,0-8.609,4.1Zm8.607-1.95a11.1,11.1,0,0,1,7.378,3.033,9.72,9.72,0,0,1,3.348,7.117c0,2.439-1.528,5.1-4.3,7.489a18.22,18.22,0,0,1-8.038,4.115,5.584,5.584,0,0,1-4.686-1.379c-2.3-1.95-3.849-5.712-3.849-9.361,0-5.662,4.934-11.014,10.151-11.014Z" transform="translate(-155.554 -171.386)"/>
        <path id="Trazado_193117" data-name="Trazado 193117" d="M287.3,273.324a1.073,1.073,0,0,0-1,.672,27.075,27.075,0,0,1-11.451,13.411,1.073,1.073,0,0,0,.233,1.946,11.111,11.111,0,0,0,3.287.487,11.641,11.641,0,0,0,8.465-3.562c1.663-1.805,4.064-5.8,1.457-12.282a1.073,1.073,0,0,0-1-.672Zm-2.04,11.5A9.423,9.423,0,0,1,278.3,287.7a28.848,28.848,0,0,0,8.79-10.266,8.221,8.221,0,0,1-1.831,7.391Z" transform="translate(-217.814 -218.018)"/>
        <path id="Trazado_193118" data-name="Trazado 193118" d="M165.906,212.139a1.073,1.073,0,0,0,1.616-.977c-.355-7.278,3.131-12.234,10.97-15.6a1.073,1.073,0,0,0-.045-1.99,10.6,10.6,0,0,0-9.047.658,14.287,14.287,0,0,0-5.869,6.3C161.251,205.3,162.205,209.961,165.906,212.139Zm-.439-10.684c2.128-4.45,5.82-6.4,9.212-6.406-5.837,3.277-8.9,7.824-9.285,13.8-1.5-2.119-1.011-5.123.073-7.39Z" transform="translate(-129.827 -154.821)"/>
        <path id="Trazado_193119" data-name="Trazado 193119" d="M229.011,256.539a6.688,6.688,0,1,0-7.219-6.666A6.967,6.967,0,0,0,229.011,256.539Zm0-11.187a4.551,4.551,0,1,1-5.073,4.52A4.826,4.826,0,0,1,229.011,245.352Z" transform="translate(-176.55 -194.364)"/>
        <path id="Trazado_193120" data-name="Trazado 193120" d="M99.193,223.879a3.782,3.782,0,1,0-3.781-3.782h0A3.786,3.786,0,0,0,99.193,223.879Zm0-5.417a1.636,1.636,0,1,1-1.635,1.636h0A1.637,1.637,0,0,1,99.193,218.462Z" transform="translate(-77.29 -173.244)"/>
        <path id="Trazado_193121" data-name="Trazado 193121" d="M75.376,271.2a6.893,6.893,0,0,0,6.129-6.953c0-3.473-2.974-6.9-6.63-7.646a6.627,6.627,0,0,0-5.365,1.389,6.967,6.967,0,0,0-2.633,5.289A7.925,7.925,0,0,0,69.748,269a7.759,7.759,0,0,0,5.048,2.237,5,5,0,0,0,.581-.034Zm-6.354-7.87a4.761,4.761,0,0,1,1.825-3.662,4.637,4.637,0,0,1,2.85-1.038,3.776,3.776,0,0,1,.75.074c2.616.532,4.911,3.122,4.911,5.543a4.717,4.717,0,0,1-4.234,4.822,5.456,5.456,0,0,1-3.934-1.659A5.968,5.968,0,0,1,69.022,263.332Z" transform="translate(-54.879 -204.795)"/>
        <path id="Trazado_193122" data-name="Trazado 193122" d="M84.784,274.494a2.965,2.965,0,0,0-2.521,2.493,1.073,1.073,0,0,0,.838,1.265,1.06,1.06,0,0,0,.215.021,1.073,1.073,0,0,0,1.052-.86c.118-.582.374-.736.776-.8a1.073,1.073,0,1,0-.345-2.118l-.014,0Z" transform="translate(-66.946 -218.924)"/>
        <path id="Trazado_193123" data-name="Trazado 193123" d="M383.293,272.911a5.87,5.87,0,0,0-5.116.381,8.406,8.406,0,0,0-3.684,4.206c-1.606,3.876-.273,8.123,2.972,9.469a5.42,5.42,0,0,0,2.086.412,7.648,7.648,0,0,0,6.714-5c1.606-3.874.273-8.122-2.972-9.468Zm.99,8.648c-1.153,2.782-3.843,4.321-6,3.428s-2.965-3.882-1.812-6.665a6.255,6.255,0,0,1,2.723-3.142,4.187,4.187,0,0,1,1.99-.536,3.328,3.328,0,0,1,1.282.252c2.154.89,2.965,3.88,1.812,6.662Z" transform="translate(-295.946 -217.365)"/>
        <path id="Trazado_193124" data-name="Trazado 193124" d="M338.039,141.041l-.438.365a.552.552,0,0,1-.653.041l-3.489-2.233a2.831,2.831,0,0,0-3.471,4.443l5.995,5.662a.553.553,0,0,1,.022.783.513.513,0,0,1-.056.052,1.363,1.363,0,0,0,1.093,2.407l4.631-.831a8.38,8.38,0,0,0,5.546-3.7,3.018,3.018,0,0,0,.151-2.9,16.8,16.8,0,0,1-.5-2.375c0-.021-.008-.043-.012-.064a.672.672,0,0,1,1.105-.643.665.665,0,0,1,.114.133l1.009,1.552a2.687,2.687,0,0,0,4.73-2.5l-4.738-11.294c-.005-.012-.011-.025-.017-.038a2.686,2.686,0,0,0-3.189-1.456l-.169.048a2.7,2.7,0,0,0-1.729,3.683l1.238,2.814a.55.55,0,0,1-.241.708l-.494.269a.552.552,0,0,1-.534,0l-4.394-2.441a3.047,3.047,0,0,0-3.471,4.969l1.97,1.7a.553.553,0,0,1,.058.78.561.561,0,0,1-.065.064Zm1.41-2.468-1.97-1.7a.9.9,0,0,1-.092-1.271.882.882,0,0,1,.1-.1.906.906,0,0,1,1.014-.1l4.393,2.441a2.686,2.686,0,0,0,2.6.01l.494-.269a2.683,2.683,0,0,0,1.178-3.457l-1.238-2.814a.553.553,0,0,1,.283-.73.546.546,0,0,1,.071-.026l.169-.048a.551.551,0,0,1,.647.285l4.728,11.27a.541.541,0,0,1-.952.5l-1.009-1.551a2.818,2.818,0,0,0-5.123,2.1,16.992,16.992,0,0,0,.644,2.856c.238.56.076.809.021.893a6.229,6.229,0,0,1-4.123,2.749l-3.027.543a2.769,2.769,0,0,0,.034-.329,2.7,2.7,0,0,0-.844-2.073l-6-5.662a.686.686,0,0,1,.841-1.076l3.489,2.233a2.689,2.689,0,0,0,3.183-.2l.438-.365a2.7,2.7,0,0,0,.036-4.117Z" transform="translate(-260.83 -104.148)"/>
        <path id="Trazado_193125" data-name="Trazado 193125" d="M192.211,106.122l-1.248,6.345a1.073,1.073,0,1,0,2.106.414l.851-4.327.515.733a1.073,1.073,0,0,0,1.773-1.209l-.018-.025-1.7-2.415,1.4-7.125a1.073,1.073,0,0,0-2.106-.414l-1,5.107-2.717-3.867a1.073,1.073,0,0,0-1.773,1.209l.018.025Z" transform="translate(-150.094 -79.716)"/>
        <path id="Trazado_193126" data-name="Trazado 193126" d="M105.443,30.758C96.943,20.986,84.591,15.6,70.657,15.6h-.017a59.548,59.548,0,0,0-38.85,15.07,64.415,64.415,0,0,0-6.05,6.006,1.073,1.073,0,0,0,1.6,1.427A62.263,62.263,0,0,1,33.2,32.295,57.407,57.407,0,0,1,70.641,17.751h.016c13.3,0,25.082,5.119,33.167,14.415s11.524,21.681,9.674,34.861a57.405,57.405,0,0,1-19.6,35.064A57.411,57.411,0,0,1,56.46,116.636h-.016c-13.3,0-25.082-5.119-33.167-14.415S11.753,80.539,13.6,67.358A54.608,54.608,0,0,1,20.659,47.33a1.073,1.073,0,0,0-.259-1.39l-.007-.005a1.072,1.072,0,0,0-1.5.186,1.053,1.053,0,0,0-.08.118A56.752,56.752,0,0,0,11.478,67.06c-1.938,13.805,1.678,26.792,10.18,36.567S42.51,118.78,56.444,118.78h.017a59.547,59.547,0,0,0,38.85-15.07,59.548,59.548,0,0,0,20.312-36.385c1.937-13.8-1.678-26.791-10.181-36.567Z" transform="translate(-10.967 -15.605)"/>
      </g>
    </g>
    <g id="Grupo_156969" data-name="Grupo 156969" transform="translate(483.866 5176.111)">
      <path id="Trazado_193098-2" data-name="Trazado 193098" d="M58.744,27.428c7.918,9.1,5.846,23.869-4.628,32.979s-25.385,9.114-33.3.01-5.846-23.869,4.628-32.979S50.827,18.324,58.744,27.428Z" transform="translate(-4.537 -4.502)" fill="#e1b7a3"/>
      <path id="Trazado_193099-2" data-name="Trazado 193099" d="M79.165,51.1c7.1,8.161,5.241,21.4-4.15,29.564s-22.756,8.17-29.854.009-5.241-21.4,4.15-29.564S72.067,42.935,79.165,51.1Z" transform="translate(-26.922 -26.463)" fill="#adf0e5"/>
      <path id="Trazado_193100-2" data-name="Trazado 193100" d="M344.558,139.005a.745.745,0,0,1-.33.942.742.742,0,0,1-.982-.248l-.466-.716a.806.806,0,0,0-1.481.439.789.789,0,0,0,.019.172,8.755,8.755,0,0,0,.266,1.215.9.9,0,0,1-.03.874,3.356,3.356,0,0,1-2.232,1.488l-2.138.384a.134.134,0,0,1-.107-.237.752.752,0,0,0,.047-1.132l-2.768-2.614a.812.812,0,0,1,1-1.273l1.611,1.03a.749.749,0,0,0,.885-.055l.2-.168a.752.752,0,0,0,.01-1.145l-.909-.786a.911.911,0,0,1,1.038-1.486l2.028,1.127a.752.752,0,0,0,.724,0l.228-.125a.751.751,0,0,0,.328-.961l-.572-1.3a.752.752,0,0,1,.385-.991.743.743,0,0,1,.1-.035l.078-.022a.751.751,0,0,1,.887.405Z" transform="translate(-291.122 -106.088)" fill="#4ca987"/>
      <path id="Trazado_193101-2" data-name="Trazado 193101" d="M382.481,277.66a3.084,3.084,0,1,1-3.416,1.851A2.778,2.778,0,0,1,382.481,277.66Z" transform="translate(-331.381 -235.956)" fill="#6addc7"/>
      <path id="Trazado_193102-2" data-name="Trazado 193102" d="M284.821,278.32c1.964,4.883-2.371,7.4-5.491,6.431A12.951,12.951,0,0,0,284.821,278.32Z" transform="translate(-241.777 -236.689)" fill="#5fcda4"/>
      <path id="Trazado_193103-2" data-name="Trazado 193103" d="M149.711,365.646c.531,1.2,1.063,5.047-7.705,5.181-6.123.092-9.511-5.506-7.174-6.909,1.993-1.2,1.856,2.126,6.111,2.126S148.532,362.994,149.711,365.646Z" transform="translate(-110.924 -313.573)" fill="#fc8193"/>
      <path id="Trazado_193104-2" data-name="Trazado 193104" d="M205.241,218.95a5.543,5.543,0,0,1,5.447,5.181c0,2.824-3.72,5.447-6.111,5.846-2.678.446-4.516-2.622-4.516-5.448s2.467-5.579,5.181-5.579Z" transform="translate(-170.36 -183.2)" fill="#edb740"/>
      <path id="Trazado_193105-2" data-name="Trazado 193105" d="M168.712,205.849c-3.7-2.174.438-9.535,5.363-7.68C171.328,199.347,168.494,201.391,168.712,205.849Z" transform="translate(-140.838 -164.211)" fill="#5fcda4"/>
      <path id="Trazado_193106-2" data-name="Trazado 193106" d="M77.637,264.56a2.681,2.681,0,0,1-2.391,2.718,3.533,3.533,0,0,1-3.37-3.153,2.692,2.692,0,0,1,3.1-2.609,3.391,3.391,0,0,1,2.663,3.044Z" transform="translate(-54.873 -221.509)" fill="#6addc7"/>
      <circle id="Elipse_4997-2" data-name="Elipse 4997" cx="1.25" cy="1.25" r="1.25" transform="translate(19.828 35.984)" fill="#6addc7"/>
      <path id="Trazado_193107-2" data-name="Trazado 193107" d="M229.627,248.21a2.594,2.594,0,1,1-2.837,2.582,2.719,2.719,0,0,1,2.837-2.582Z" transform="translate(-194.442 -209.562)" fill="#d8a43d"/>
      <path id="Trazado_193108-2" data-name="Trazado 193108" d="M48.134,80.675c-7.1-8.161-5.241-21.4,4.15-29.564a24.5,24.5,0,0,1,14.3-6.075,24.025,24.025,0,0,0-17.272,6.075c-9.39,8.167-11.248,21.4-4.15,29.564a18.583,18.583,0,0,0,15.553,6.066,18.107,18.107,0,0,1-12.581-6.066Z" transform="translate(-26.922 -26.468)" fill="#8fc6bb"/>
      <g id="Grupo_156967-2" data-name="Grupo 156967" transform="translate(10.967 15.605)">
        <path id="Trazado_193109-2" data-name="Trazado 193109" d="M40.258,76.491A18.749,18.749,0,0,0,54.692,82.78H54.7A25.49,25.49,0,0,0,79.233,61.441,18.324,18.324,0,0,0,60.574,39.979h-.007A25.49,25.49,0,0,0,36.033,61.317a18.752,18.752,0,0,0,4.225,15.174ZM37.014,61.455a24.482,24.482,0,0,1,23.56-20.477A17.323,17.323,0,0,1,78.252,61.3a24.482,24.482,0,0,1-23.56,20.477A17.323,17.323,0,0,1,37.014,61.455Z" transform="translate(-33.359 -37.564)"/>
        <path id="Trazado_193110-2" data-name="Trazado 193110" d="M129.239,361.68c.609,2.137,3.526,5.1,8.123,5.1h.163c4.169-.063,6.837-.962,7.93-2.672a3.438,3.438,0,0,0,.221-3.205c-.887-2-2.784-1.4-4.792-.774a14.722,14.722,0,0,1-4.428.878,4.8,4.8,0,0,1-3.709-1.509c-.692-.637-1.407-1.3-2.657-.546a2.256,2.256,0,0,0-.85,2.725Zm1.36-1.875a1.05,1.05,0,0,1,.523-.191c.269,0,.506.2.953.616a5.791,5.791,0,0,0,4.38,1.771,15.739,15.739,0,0,0,4.725-.924c2.269-.71,3.106-.861,3.591.231a2.465,2.465,0,0,1-.15,2.269c-.621.971-2.358,2.143-7.11,2.215h-.143c-4.04,0-6.666-2.6-7.175-4.386a1.348,1.348,0,0,1,.407-1.6Z" transform="translate(-117.403 -324.639)"/>
        <path id="Trazado_193111-2" data-name="Trazado 193111" d="M168.238,392.832a2.569,2.569,0,0,0,2.012-.185,2.908,2.908,0,0,0,1.88.741,2.5,2.5,0,0,0,.344-.024,2.528,2.528,0,0,0,1.625-.938,2.132,2.132,0,0,0,2.016.26,1.955,1.955,0,0,0,1.329-2.2.5.5,0,0,0-.981.139l0,.011a.989.989,0,0,1-.686,1.117,1.085,1.085,0,0,1-1.322-.384.5.5,0,0,0-.865.028,1.7,1.7,0,0,1-1.255.985,1.956,1.956,0,0,1-1.663-.7.5.5,0,0,0-.659-.058,1.6,1.6,0,0,1-1.456.269,1.273,1.273,0,0,1-.825-.933.5.5,0,0,0-.956.261,2.262,2.262,0,0,0,1.459,1.609Z" transform="translate(-151.328 -352.965)"/>
        <path id="Trazado_193112-2" data-name="Trazado 193112" d="M271.984,137.218a3.413,3.413,0,0,1,3.265,1.549.5.5,0,0,0,.826-.546,4.393,4.393,0,0,0-4.138-1.992.5.5,0,1,0,.046.99Z" transform="translate(-245.659 -124.272)"/>
        <path id="Trazado_193113-2" data-name="Trazado 193113" d="M273.321,114.2a5.1,5.1,0,0,1,4.314,2.108.5.5,0,0,0,.875-.464,6.073,6.073,0,0,0-5.292-2.63.5.5,0,0,0,.1.985Z" transform="translate(-246.84 -103.524)"/>
        <path id="Trazado_193114-2" data-name="Trazado 193114" d="M282.677,92.256a6.014,6.014,0,0,1,4.367,2.147.5.5,0,0,0,.826-.546,6.884,6.884,0,0,0-5.239-2.59.5.5,0,0,0,.046.99Z" transform="translate(-255.293 -83.768)"/>
        <path id="Trazado_193115-2" data-name="Trazado 193115" d="M298.22,74.527a4.353,4.353,0,0,1,3.166,1.555.5.5,0,1,0,.828-.543l0,0a5.309,5.309,0,0,0-4.039-2,.5.5,0,0,0,.046.99Z" transform="translate(-269.296 -67.795)"/>
        <path id="Trazado_193116-2" data-name="Trazado 193116" d="M196.762,215.841a6.3,6.3,0,0,0-1.7,4.184,6.846,6.846,0,0,0,2.127,5.077,3.62,3.62,0,0,0,2.368.908,3.663,3.663,0,0,0,.6-.05,9.323,9.323,0,0,0,4.194-2.126,5.82,5.82,0,0,0,2.331-4.208,6.044,6.044,0,0,0-5.942-5.676,5.5,5.5,0,0,0-3.974,1.891Zm3.974-.9a5.126,5.126,0,0,1,3.406,1.4,4.487,4.487,0,0,1,1.545,3.286,4.876,4.876,0,0,1-1.987,3.457,8.411,8.411,0,0,1-3.711,1.9,2.578,2.578,0,0,1-2.163-.637,5.907,5.907,0,0,1-1.777-4.322c0-2.614,2.278-5.085,4.686-5.085Z" transform="translate(-176.822 -194.301)"/>
        <path id="Trazado_193117-2" data-name="Trazado 193117" d="M280.318,273.324a.5.5,0,0,0-.459.31,12.5,12.5,0,0,1-5.286,6.191.5.5,0,0,0,.108.9,5.129,5.129,0,0,0,1.517.225A5.374,5.374,0,0,0,280.1,279.3c.768-.833,1.876-2.678.672-5.67a.5.5,0,0,0-.459-.31Zm-.942,5.309a4.35,4.35,0,0,1-3.212,1.327,13.317,13.317,0,0,0,4.058-4.739,3.8,3.8,0,0,1-.845,3.412Z" transform="translate(-248.24 -247.793)"/>
        <path id="Trazado_193118-2" data-name="Trazado 193118" d="M163.966,201.759a.5.5,0,0,0,.746-.451c-.164-3.36,1.445-5.648,5.064-7.2a.5.5,0,0,0-.021-.919,4.894,4.894,0,0,0-4.177.3,6.6,6.6,0,0,0-2.709,2.906C161.817,198.6,162.258,200.754,163.966,201.759Zm-.2-4.932a4.776,4.776,0,0,1,4.253-2.957,7.577,7.577,0,0,0-4.286,6.368,3.478,3.478,0,0,1,.034-3.411Z" transform="translate(-147.311 -175.299)"/>
        <path id="Trazado_193119-2" data-name="Trazado 193119" d="M225.125,249.361a3.087,3.087,0,1,0-3.333-3.078A3.216,3.216,0,0,0,225.125,249.361Zm0-5.164a2.1,2.1,0,1,1-2.342,2.087A2.228,2.228,0,0,1,225.125,244.2Z" transform="translate(-200.906 -220.658)"/>
        <path id="Trazado_193120-2" data-name="Trazado 193120" d="M97.158,219.807a1.746,1.746,0,1,0-1.746-1.746h0A1.748,1.748,0,0,0,97.158,219.807Zm0-2.5a.755.755,0,1,1-.755.755h0A.756.756,0,0,1,97.158,217.307Z" transform="translate(-87.046 -196.432)"/>
        <path id="Trazado_193121-2" data-name="Trazado 193121" d="M70.8,263.281a3.182,3.182,0,0,0,2.829-3.21,3.855,3.855,0,0,0-3.06-3.53,3.059,3.059,0,0,0-2.477.641,3.216,3.216,0,0,0-1.215,2.442,3.659,3.659,0,0,0,1.325,2.639,3.582,3.582,0,0,0,2.33,1.033,2.315,2.315,0,0,0,.268-.016Zm-2.933-3.633a2.2,2.2,0,0,1,.843-1.691,2.14,2.14,0,0,1,1.316-.479,1.741,1.741,0,0,1,.346.034,2.9,2.9,0,0,1,2.267,2.559,2.177,2.177,0,0,1-1.955,2.226,2.519,2.519,0,0,1-1.816-.766A2.755,2.755,0,0,1,67.867,259.648Z" transform="translate(-61.338 -232.625)"/>
        <path id="Trazado_193122-2" data-name="Trazado 193122" d="M83.415,274.485a1.369,1.369,0,0,0-1.164,1.151.5.5,0,0,0,.387.584.489.489,0,0,0,.1.01.5.5,0,0,0,.485-.4c.054-.269.173-.34.358-.371a.5.5,0,1,0-.159-.978h-.007Z" transform="translate(-75.181 -248.832)"/>
        <path id="Trazado_193123-2" data-name="Trazado 193123" d="M378.188,272.685a2.71,2.71,0,0,0-2.362.176,3.88,3.88,0,0,0-1.7,1.942,3.269,3.269,0,0,0,1.372,4.371,2.5,2.5,0,0,0,.963.19,3.531,3.531,0,0,0,3.1-2.308,3.269,3.269,0,0,0-1.372-4.371Zm.457,3.992a2.015,2.015,0,1,1-3.6-1.494,2.888,2.888,0,0,1,1.257-1.45,1.933,1.933,0,0,1,.919-.248,1.537,1.537,0,0,1,.592.116,2.293,2.293,0,0,1,.836,3.076Z" transform="translate(-337.866 -247.043)"/>
        <path id="Trazado_193124-2" data-name="Trazado 193124" d="M333.227,134.2l-.2.168a.255.255,0,0,1-.3.019l-1.611-1.031a1.307,1.307,0,0,0-1.6,2.051l2.767,2.614a.256.256,0,0,1,.01.361.24.24,0,0,1-.026.024.629.629,0,0,0,.5,1.111l2.138-.384a3.869,3.869,0,0,0,2.56-1.706,1.393,1.393,0,0,0,.07-1.337,7.756,7.756,0,0,1-.232-1.1c0-.01,0-.02-.006-.03a.31.31,0,0,1,.51-.3.307.307,0,0,1,.053.062l.466.716a1.24,1.24,0,0,0,2.184-1.156l-2.187-5.214-.008-.017a1.24,1.24,0,0,0-1.472-.672l-.078.022a1.247,1.247,0,0,0-.8,1.7l.572,1.3a.254.254,0,0,1-.111.327l-.228.124a.255.255,0,0,1-.246,0l-2.028-1.127a1.407,1.407,0,0,0-1.6,2.294l.909.785a.255.255,0,0,1,0,.39Zm.651-1.139-.909-.785a.416.416,0,0,1-.042-.587.407.407,0,0,1,.048-.047.418.418,0,0,1,.468-.044l2.028,1.127a1.24,1.24,0,0,0,1.2,0l.228-.124a1.238,1.238,0,0,0,.544-1.6l-.571-1.3a.255.255,0,0,1,.131-.337l.033-.012.078-.022a.254.254,0,0,1,.3.131l2.183,5.2a.25.25,0,0,1-.44.233l-.466-.716a1.3,1.3,0,0,0-2.365.97,7.847,7.847,0,0,0,.3,1.319c.11.258.035.373.01.412a2.876,2.876,0,0,1-1.9,1.269l-1.4.251a1.285,1.285,0,0,0,.016-.152,1.246,1.246,0,0,0-.39-.957l-2.768-2.614a.317.317,0,0,1,.388-.5l1.611,1.031a1.241,1.241,0,0,0,1.47-.092l.2-.168a1.246,1.246,0,0,0,.017-1.9Z" transform="translate(-297.584 -117.172)"/>
        <path id="Trazado_193125-2" data-name="Trazado 193125" d="M190,101.337l-.576,2.929a.5.5,0,0,0,.972.191l.393-2,.238.338a.5.5,0,0,0,.819-.558l-.008-.012-.783-1.115.647-3.289a.5.5,0,0,0-.972-.191l-.464,2.358-1.254-1.785a.5.5,0,1,0-.819.558l.008.011Z" transform="translate(-170.56 -89.146)"/>
        <path id="Trazado_193126-2" data-name="Trazado 193126" d="M54.581,22.6a20.86,20.86,0,0,0-16.059-7h-.008A27.49,27.49,0,0,0,20.58,22.562a29.737,29.737,0,0,0-2.793,2.773.5.5,0,0,0,.74.659,28.743,28.743,0,0,1,2.7-2.684A26.5,26.5,0,0,1,38.515,16.6h.007A19.394,19.394,0,0,1,58.3,39.344a26.5,26.5,0,0,1-9.046,16.187,26.5,26.5,0,0,1-17.285,6.714h-.007A19.394,19.394,0,0,1,12.184,39.5a25.209,25.209,0,0,1,3.257-9.246.5.5,0,0,0-.119-.642l0,0a.5.5,0,0,0-.694.086.486.486,0,0,0-.037.055A26.2,26.2,0,0,0,11.2,39.359,20.383,20.383,0,0,0,31.961,63.235h.008A27.489,27.489,0,0,0,49.9,56.278a27.49,27.49,0,0,0,9.377-16.8,20.862,20.862,0,0,0-4.7-16.881Z" transform="translate(-10.967 -15.605)"/>
      </g>
    </g>
    <g id="Grupo_156970" data-name="Grupo 156970" transform="translate(483.866 5120.776)">
      <path id="Trazado_193098-3" data-name="Trazado 193098" d="M58.744,27.428c7.918,9.1,5.846,23.869-4.628,32.979s-25.385,9.114-33.3.01-5.846-23.869,4.628-32.979S50.827,18.324,58.744,27.428Z" transform="translate(-4.537 -4.502)" fill="#e1b7a3"/>
      <path id="Trazado_193099-3" data-name="Trazado 193099" d="M79.165,51.1c7.1,8.161,5.241,21.4-4.15,29.564s-22.756,8.17-29.854.009-5.241-21.4,4.15-29.564S72.067,42.935,79.165,51.1Z" transform="translate(-26.922 -26.463)" fill="#adf0e5"/>
      <path id="Trazado_193100-3" data-name="Trazado 193100" d="M344.558,139.005a.745.745,0,0,1-.33.942.742.742,0,0,1-.982-.248l-.466-.716a.806.806,0,0,0-1.481.439.789.789,0,0,0,.019.172,8.755,8.755,0,0,0,.266,1.215.9.9,0,0,1-.03.874,3.356,3.356,0,0,1-2.232,1.488l-2.138.384a.134.134,0,0,1-.107-.237.752.752,0,0,0,.047-1.132l-2.768-2.614a.812.812,0,0,1,1-1.273l1.611,1.03a.749.749,0,0,0,.885-.055l.2-.168a.752.752,0,0,0,.01-1.145l-.909-.786a.911.911,0,0,1,1.038-1.486l2.028,1.127a.752.752,0,0,0,.724,0l.228-.125a.751.751,0,0,0,.328-.961l-.572-1.3a.752.752,0,0,1,.385-.991.743.743,0,0,1,.1-.035l.078-.022a.751.751,0,0,1,.887.405Z" transform="translate(-291.122 -106.088)" fill="#4ca987"/>
      <path id="Trazado_193101-3" data-name="Trazado 193101" d="M382.481,277.66a3.084,3.084,0,1,1-3.416,1.851A2.778,2.778,0,0,1,382.481,277.66Z" transform="translate(-331.381 -235.956)" fill="#6addc7"/>
      <path id="Trazado_193102-3" data-name="Trazado 193102" d="M284.821,278.32c1.964,4.883-2.371,7.4-5.491,6.431A12.951,12.951,0,0,0,284.821,278.32Z" transform="translate(-241.777 -236.689)" fill="#5fcda4"/>
      <path id="Trazado_193103-3" data-name="Trazado 193103" d="M149.711,365.646c.531,1.2,1.063,5.047-7.705,5.181-6.123.092-9.511-5.506-7.174-6.909,1.993-1.2,1.856,2.126,6.111,2.126S148.532,362.994,149.711,365.646Z" transform="translate(-110.924 -313.573)" fill="#fc8193"/>
      <path id="Trazado_193104-3" data-name="Trazado 193104" d="M205.241,218.95a5.543,5.543,0,0,1,5.447,5.181c0,2.824-3.72,5.447-6.111,5.846-2.678.446-4.516-2.622-4.516-5.448s2.467-5.579,5.181-5.579Z" transform="translate(-170.36 -183.2)" fill="#edb740"/>
      <path id="Trazado_193105-3" data-name="Trazado 193105" d="M168.712,205.849c-3.7-2.174.438-9.535,5.363-7.68C171.328,199.347,168.494,201.391,168.712,205.849Z" transform="translate(-140.838 -164.211)" fill="#5fcda4"/>
      <path id="Trazado_193106-3" data-name="Trazado 193106" d="M77.637,264.56a2.681,2.681,0,0,1-2.391,2.718,3.533,3.533,0,0,1-3.37-3.153,2.692,2.692,0,0,1,3.1-2.609,3.391,3.391,0,0,1,2.663,3.044Z" transform="translate(-54.873 -221.509)" fill="#6addc7"/>
      <circle id="Elipse_4997-3" data-name="Elipse 4997" cx="1.25" cy="1.25" r="1.25" transform="translate(19.828 35.984)" fill="#6addc7"/>
      <path id="Trazado_193107-3" data-name="Trazado 193107" d="M229.627,248.21a2.594,2.594,0,1,1-2.837,2.582,2.719,2.719,0,0,1,2.837-2.582Z" transform="translate(-194.442 -209.562)" fill="#d8a43d"/>
      <path id="Trazado_193108-3" data-name="Trazado 193108" d="M48.134,80.675c-7.1-8.161-5.241-21.4,4.15-29.564a24.5,24.5,0,0,1,14.3-6.075,24.025,24.025,0,0,0-17.272,6.075c-9.39,8.167-11.248,21.4-4.15,29.564a18.583,18.583,0,0,0,15.553,6.066,18.107,18.107,0,0,1-12.581-6.066Z" transform="translate(-26.922 -26.468)" fill="#8fc6bb"/>
      <g id="Grupo_156967-3" data-name="Grupo 156967" transform="translate(10.967 15.605)">
        <path id="Trazado_193109-3" data-name="Trazado 193109" d="M40.258,76.491A18.749,18.749,0,0,0,54.692,82.78H54.7A25.49,25.49,0,0,0,79.233,61.441,18.324,18.324,0,0,0,60.574,39.979h-.007A25.49,25.49,0,0,0,36.033,61.317a18.752,18.752,0,0,0,4.225,15.174ZM37.014,61.455a24.482,24.482,0,0,1,23.56-20.477A17.323,17.323,0,0,1,78.252,61.3a24.482,24.482,0,0,1-23.56,20.477A17.323,17.323,0,0,1,37.014,61.455Z" transform="translate(-33.359 -37.564)"/>
        <path id="Trazado_193110-3" data-name="Trazado 193110" d="M129.239,361.68c.609,2.137,3.526,5.1,8.123,5.1h.163c4.169-.063,6.837-.962,7.93-2.672a3.438,3.438,0,0,0,.221-3.205c-.887-2-2.784-1.4-4.792-.774a14.722,14.722,0,0,1-4.428.878,4.8,4.8,0,0,1-3.709-1.509c-.692-.637-1.407-1.3-2.657-.546a2.256,2.256,0,0,0-.85,2.725Zm1.36-1.875a1.05,1.05,0,0,1,.523-.191c.269,0,.506.2.953.616a5.791,5.791,0,0,0,4.38,1.771,15.739,15.739,0,0,0,4.725-.924c2.269-.71,3.106-.861,3.591.231a2.465,2.465,0,0,1-.15,2.269c-.621.971-2.358,2.143-7.11,2.215h-.143c-4.04,0-6.666-2.6-7.175-4.386a1.348,1.348,0,0,1,.407-1.6Z" transform="translate(-117.403 -324.639)"/>
        <path id="Trazado_193111-3" data-name="Trazado 193111" d="M168.238,392.832a2.569,2.569,0,0,0,2.012-.185,2.908,2.908,0,0,0,1.88.741,2.5,2.5,0,0,0,.344-.024,2.528,2.528,0,0,0,1.625-.938,2.132,2.132,0,0,0,2.016.26,1.955,1.955,0,0,0,1.329-2.2.5.5,0,0,0-.981.139l0,.011a.989.989,0,0,1-.686,1.117,1.085,1.085,0,0,1-1.322-.384.5.5,0,0,0-.865.028,1.7,1.7,0,0,1-1.255.985,1.956,1.956,0,0,1-1.663-.7.5.5,0,0,0-.659-.058,1.6,1.6,0,0,1-1.456.269,1.273,1.273,0,0,1-.825-.933.5.5,0,0,0-.956.261,2.262,2.262,0,0,0,1.459,1.609Z" transform="translate(-151.328 -352.965)"/>
        <path id="Trazado_193112-3" data-name="Trazado 193112" d="M271.984,137.218a3.413,3.413,0,0,1,3.265,1.549.5.5,0,0,0,.826-.546,4.393,4.393,0,0,0-4.138-1.992.5.5,0,1,0,.046.99Z" transform="translate(-245.659 -124.272)"/>
        <path id="Trazado_193113-3" data-name="Trazado 193113" d="M273.321,114.2a5.1,5.1,0,0,1,4.314,2.108.5.5,0,0,0,.875-.464,6.073,6.073,0,0,0-5.292-2.63.5.5,0,0,0,.1.985Z" transform="translate(-246.84 -103.524)"/>
        <path id="Trazado_193114-3" data-name="Trazado 193114" d="M282.677,92.256a6.014,6.014,0,0,1,4.367,2.147.5.5,0,0,0,.826-.546,6.884,6.884,0,0,0-5.239-2.59.5.5,0,0,0,.046.99Z" transform="translate(-255.293 -83.768)"/>
        <path id="Trazado_193115-3" data-name="Trazado 193115" d="M298.22,74.527a4.353,4.353,0,0,1,3.166,1.555.5.5,0,1,0,.828-.543l0,0a5.309,5.309,0,0,0-4.039-2,.5.5,0,0,0,.046.99Z" transform="translate(-269.296 -67.795)"/>
        <path id="Trazado_193116-3" data-name="Trazado 193116" d="M196.762,215.841a6.3,6.3,0,0,0-1.7,4.184,6.846,6.846,0,0,0,2.127,5.077,3.62,3.62,0,0,0,2.368.908,3.663,3.663,0,0,0,.6-.05,9.323,9.323,0,0,0,4.194-2.126,5.82,5.82,0,0,0,2.331-4.208,6.044,6.044,0,0,0-5.942-5.676,5.5,5.5,0,0,0-3.974,1.891Zm3.974-.9a5.126,5.126,0,0,1,3.406,1.4,4.487,4.487,0,0,1,1.545,3.286,4.876,4.876,0,0,1-1.987,3.457,8.411,8.411,0,0,1-3.711,1.9,2.578,2.578,0,0,1-2.163-.637,5.907,5.907,0,0,1-1.777-4.322c0-2.614,2.278-5.085,4.686-5.085Z" transform="translate(-176.822 -194.301)"/>
        <path id="Trazado_193117-3" data-name="Trazado 193117" d="M280.318,273.324a.5.5,0,0,0-.459.31,12.5,12.5,0,0,1-5.286,6.191.5.5,0,0,0,.108.9,5.129,5.129,0,0,0,1.517.225A5.374,5.374,0,0,0,280.1,279.3c.768-.833,1.876-2.678.672-5.67a.5.5,0,0,0-.459-.31Zm-.942,5.309a4.35,4.35,0,0,1-3.212,1.327,13.317,13.317,0,0,0,4.058-4.739,3.8,3.8,0,0,1-.845,3.412Z" transform="translate(-248.24 -247.793)"/>
        <path id="Trazado_193118-3" data-name="Trazado 193118" d="M163.966,201.759a.5.5,0,0,0,.746-.451c-.164-3.36,1.445-5.648,5.064-7.2a.5.5,0,0,0-.021-.919,4.894,4.894,0,0,0-4.177.3,6.6,6.6,0,0,0-2.709,2.906C161.817,198.6,162.258,200.754,163.966,201.759Zm-.2-4.932a4.776,4.776,0,0,1,4.253-2.957,7.577,7.577,0,0,0-4.286,6.368,3.478,3.478,0,0,1,.034-3.411Z" transform="translate(-147.311 -175.299)"/>
        <path id="Trazado_193119-3" data-name="Trazado 193119" d="M225.125,249.361a3.087,3.087,0,1,0-3.333-3.078A3.216,3.216,0,0,0,225.125,249.361Zm0-5.164a2.1,2.1,0,1,1-2.342,2.087A2.228,2.228,0,0,1,225.125,244.2Z" transform="translate(-200.906 -220.658)"/>
        <path id="Trazado_193120-3" data-name="Trazado 193120" d="M97.158,219.807a1.746,1.746,0,1,0-1.746-1.746h0A1.748,1.748,0,0,0,97.158,219.807Zm0-2.5a.755.755,0,1,1-.755.755h0A.756.756,0,0,1,97.158,217.307Z" transform="translate(-87.046 -196.432)"/>
        <path id="Trazado_193121-3" data-name="Trazado 193121" d="M70.8,263.281a3.182,3.182,0,0,0,2.829-3.21,3.855,3.855,0,0,0-3.06-3.53,3.059,3.059,0,0,0-2.477.641,3.216,3.216,0,0,0-1.215,2.442,3.659,3.659,0,0,0,1.325,2.639,3.582,3.582,0,0,0,2.33,1.033,2.315,2.315,0,0,0,.268-.016Zm-2.933-3.633a2.2,2.2,0,0,1,.843-1.691,2.14,2.14,0,0,1,1.316-.479,1.741,1.741,0,0,1,.346.034,2.9,2.9,0,0,1,2.267,2.559,2.177,2.177,0,0,1-1.955,2.226,2.519,2.519,0,0,1-1.816-.766A2.755,2.755,0,0,1,67.867,259.648Z" transform="translate(-61.338 -232.625)"/>
        <path id="Trazado_193122-3" data-name="Trazado 193122" d="M83.415,274.485a1.369,1.369,0,0,0-1.164,1.151.5.5,0,0,0,.387.584.489.489,0,0,0,.1.01.5.5,0,0,0,.485-.4c.054-.269.173-.34.358-.371a.5.5,0,1,0-.159-.978h-.007Z" transform="translate(-75.181 -248.832)"/>
        <path id="Trazado_193123-3" data-name="Trazado 193123" d="M378.188,272.685a2.71,2.71,0,0,0-2.362.176,3.88,3.88,0,0,0-1.7,1.942,3.269,3.269,0,0,0,1.372,4.371,2.5,2.5,0,0,0,.963.19,3.531,3.531,0,0,0,3.1-2.308,3.269,3.269,0,0,0-1.372-4.371Zm.457,3.992a2.015,2.015,0,1,1-3.6-1.494,2.888,2.888,0,0,1,1.257-1.45,1.933,1.933,0,0,1,.919-.248,1.537,1.537,0,0,1,.592.116,2.293,2.293,0,0,1,.836,3.076Z" transform="translate(-337.866 -247.043)"/>
        <path id="Trazado_193124-3" data-name="Trazado 193124" d="M333.227,134.2l-.2.168a.255.255,0,0,1-.3.019l-1.611-1.031a1.307,1.307,0,0,0-1.6,2.051l2.767,2.614a.256.256,0,0,1,.01.361.24.24,0,0,1-.026.024.629.629,0,0,0,.5,1.111l2.138-.384a3.869,3.869,0,0,0,2.56-1.706,1.393,1.393,0,0,0,.07-1.337,7.756,7.756,0,0,1-.232-1.1c0-.01,0-.02-.006-.03a.31.31,0,0,1,.51-.3.307.307,0,0,1,.053.062l.466.716a1.24,1.24,0,0,0,2.184-1.156l-2.187-5.214-.008-.017a1.24,1.24,0,0,0-1.472-.672l-.078.022a1.247,1.247,0,0,0-.8,1.7l.572,1.3a.254.254,0,0,1-.111.327l-.228.124a.255.255,0,0,1-.246,0l-2.028-1.127a1.407,1.407,0,0,0-1.6,2.294l.909.785a.255.255,0,0,1,0,.39Zm.651-1.139-.909-.785a.416.416,0,0,1-.042-.587.407.407,0,0,1,.048-.047.418.418,0,0,1,.468-.044l2.028,1.127a1.24,1.24,0,0,0,1.2,0l.228-.124a1.238,1.238,0,0,0,.544-1.6l-.571-1.3a.255.255,0,0,1,.131-.337l.033-.012.078-.022a.254.254,0,0,1,.3.131l2.183,5.2a.25.25,0,0,1-.44.233l-.466-.716a1.3,1.3,0,0,0-2.365.97,7.847,7.847,0,0,0,.3,1.319c.11.258.035.373.01.412a2.876,2.876,0,0,1-1.9,1.269l-1.4.251a1.285,1.285,0,0,0,.016-.152,1.246,1.246,0,0,0-.39-.957l-2.768-2.614a.317.317,0,0,1,.388-.5l1.611,1.031a1.241,1.241,0,0,0,1.47-.092l.2-.168a1.246,1.246,0,0,0,.017-1.9Z" transform="translate(-297.584 -117.172)"/>
        <path id="Trazado_193125-3" data-name="Trazado 193125" d="M190,101.337l-.576,2.929a.5.5,0,0,0,.972.191l.393-2,.238.338a.5.5,0,0,0,.819-.558l-.008-.012-.783-1.115.647-3.289a.5.5,0,0,0-.972-.191l-.464,2.358-1.254-1.785a.5.5,0,1,0-.819.558l.008.011Z" transform="translate(-170.56 -89.146)"/>
        <path id="Trazado_193126-3" data-name="Trazado 193126" d="M54.581,22.6a20.86,20.86,0,0,0-16.059-7h-.008A27.49,27.49,0,0,0,20.58,22.562a29.737,29.737,0,0,0-2.793,2.773.5.5,0,0,0,.74.659,28.743,28.743,0,0,1,2.7-2.684A26.5,26.5,0,0,1,38.515,16.6h.007A19.394,19.394,0,0,1,58.3,39.344a26.5,26.5,0,0,1-9.046,16.187,26.5,26.5,0,0,1-17.285,6.714h-.007A19.394,19.394,0,0,1,12.184,39.5a25.209,25.209,0,0,1,3.257-9.246.5.5,0,0,0-.119-.642l0,0a.5.5,0,0,0-.694.086.486.486,0,0,0-.037.055A26.2,26.2,0,0,0,11.2,39.359,20.383,20.383,0,0,0,31.961,63.235h.008A27.489,27.489,0,0,0,49.9,56.278a27.49,27.49,0,0,0,9.377-16.8,20.862,20.862,0,0,0-4.7-16.881Z" transform="translate(-10.967 -15.605)"/>
      </g>
    </g>
  </g>
</svg>
