<svg xmlns="http://www.w3.org/2000/svg" xmlns:xlink="http://www.w3.org/1999/xlink" width="179" height="179" viewBox="0 0 179 179">
  <defs>
    <filter id="Elipse_4062" x="0" y="0" width="179" height="179" filterUnits="userSpaceOnUse">
      <feOffset dy="3" input="SourceAlpha"/>
      <feGaussianBlur stdDeviation="3" result="blur"/>
      <feFlood flood-opacity="0.161"/>
      <feComposite operator="in" in2="blur"/>
      <feComposite in="SourceGraphic"/>
    </filter>
  </defs>
  <g id="Grupo_163042" data-name="Grupo 163042" transform="translate(-276 -7088)">
    <g id="Grupo_73307" data-name="Grupo 73307" transform="translate(0 6231.727)">
      <g transform="matrix(1, 0, 0, 1, 276, 856.27)" filter="url(#Elipse_4062)">
        <circle id="Elipse_4062-2" data-name="Elipse 4062" cx="80.5" cy="80.5" r="80.5" transform="translate(9 6)" fill="#fff"/>
      </g>
    </g>
    <g id="Grupo_157031" data-name="Grupo 157031" transform="translate(303 7111)">
      <g id="Grupo_157030" data-name="Grupo 157030" transform="translate(0 0)">
        <path id="Trazado_193145" data-name="Trazado 193145" d="M198.091,251.558a5.37,5.37,0,1,0,9.6,3.283l5.908-1.274a3.542,3.542,0,1,0-.522-1.753l-5.7,1.231a5.372,5.372,0,0,0-4.395-3.507l-.073-5.894a3.559,3.559,0,1,0-1.824.024l.075,5.959A5.345,5.345,0,0,0,198.091,251.558Zm16.394-2.184a2.938,2.938,0,0,1,1.776-.8,3.239,3.239,0,0,1,1.9.414,3.75,3.75,0,0,1,1.53,1.664,3.554,3.554,0,0,0-.794-.669,1.04,1.04,0,0,0-.662-.193c-.43.065-.4.475-.445.815a1.624,1.624,0,0,1-.9,1.313,1.932,1.932,0,0,1-1.957-.057C213.707,251.255,213.674,250.3,214.485,249.374Zm-1.067,2.65a2.828,2.828,0,0,0,.094.307l.079.213.114.24a4.1,4.1,0,0,0,.342.531,3.489,3.489,0,0,0,.52.522,3.323,3.323,0,0,0,.69.43,3.451,3.451,0,0,0,.824.25,3.315,3.315,0,0,0,.9.014,3.4,3.4,0,0,0,.846-.226,3.356,3.356,0,0,0,.741-.442,3.273,3.273,0,0,0,.567-.582,3.54,3.54,0,0,0,.379-.632,3.986,3.986,0,0,0,.2-.6l.054-.26.026-.225a3.038,3.038,0,0,0,.017-.323l0-.114.019.113a2.016,2.016,0,0,1,.042.323l.01.236-.017.277c-.008.1-.031.2-.048.314s-.06.221-.091.342-.088.237-.143.359a3.025,3.025,0,0,1-.2.361,3.134,3.134,0,0,1-.585.685,3.426,3.426,0,0,1-.814.527,3.283,3.283,0,0,1-1.969.239,3.3,3.3,0,0,1-.916-.316,3.134,3.134,0,0,1-.733-.523,3.036,3.036,0,0,1-.285-.3c-.083-.1-.155-.212-.225-.314s-.125-.207-.171-.309-.09-.2-.122-.294l-.083-.265-.047-.23a2.239,2.239,0,0,1-.037-.325l-.008-.113Zm-5.249,1.285c.134-.039.323-.1.554-.16s.5-.136.787-.206.6-.141.907-.212.621-.132.913-.188.567-.1.8-.142.433-.065.57-.087.217-.028.217-.028-.076.025-.208.065-.324.1-.554.16-.5.136-.788.206-.6.141-.907.212-.62.132-.912.188-.567.1-.8.143-.432.065-.569.087-.218.028-.218.028S208.035,253.349,208.168,253.309Zm-1.065,1.675.028-.342a4.538,4.538,0,0,0,.011-.487v-.173l.023.172.028.206c0,.04.013.084.017.13l0,.15c0,.106.006.225,0,.354l-.035.414c-.016.148-.053.3-.081.468s-.1.33-.146.508c-.067.171-.136.351-.223.532a4.681,4.681,0,0,1-.31.534,4.774,4.774,0,0,1-.88,1.008,5.128,5.128,0,0,1-1.209.775,5.65,5.65,0,0,1-1.432.4,5.881,5.881,0,0,1-.742.026,5.214,5.214,0,0,1-.745-.072,5.037,5.037,0,0,1-1.36-.462,4.738,4.738,0,0,1-1.1-.767,4.649,4.649,0,0,1-.43-.445c-.128-.154-.238-.313-.344-.462s-.191-.307-.262-.458-.141-.295-.191-.434l-.132-.395c-.032-.124-.057-.239-.081-.343l-.034-.146c-.007-.047-.01-.091-.016-.132l-.022-.207-.019-.172.041.168a4.723,4.723,0,0,0,.126.469l.111.326.165.369c.063.13.146.26.224.4s.185.273.283.419.226.279.356.416a4.824,4.824,0,0,0,.426.4,4.994,4.994,0,0,0,1.054.674,5.138,5.138,0,0,0,1.268.395,4.768,4.768,0,0,0,.676.06,5.391,5.391,0,0,0,.694-.031,4.815,4.815,0,0,0,2.46-1.045,5,5,0,0,0,.862-.906,5.136,5.136,0,0,0,.319-.489c.093-.164.17-.33.245-.489.06-.165.128-.321.174-.475s.091-.3.12-.442Zm-7.3-17.1a2.947,2.947,0,0,1,1.776-.8,3.248,3.248,0,0,1,1.9.415,3.75,3.75,0,0,1,1.53,1.664,3.523,3.523,0,0,0-.794-.669,1.04,1.04,0,0,0-.662-.193c-.43.065-.4.475-.445.815a1.624,1.624,0,0,1-.9,1.313,1.932,1.932,0,0,1-1.957-.057C199.03,239.764,199,238.809,199.807,237.883Zm.612,5.214a3.107,3.107,0,0,1-.733-.523,3.036,3.036,0,0,1-.285-.3c-.083-.1-.155-.213-.225-.314s-.125-.208-.171-.31-.09-.2-.122-.292l-.084-.265-.046-.23a2.08,2.08,0,0,1-.037-.325l-.008-.114.03.111c.024.072.042.179.094.308l.081.212.114.241a4.1,4.1,0,0,0,.342.531,3.47,3.47,0,0,0,.519.521,3.312,3.312,0,0,0,.691.43,3.4,3.4,0,0,0,.824.252,3.191,3.191,0,0,0,1.743-.213,3.4,3.4,0,0,0,.741-.44,3.355,3.355,0,0,0,.567-.582,3.661,3.661,0,0,0,.379-.632,3.99,3.99,0,0,0,.2-.6l.054-.261.026-.224a3.032,3.032,0,0,0,.017-.323l0-.114.019.113a2.146,2.146,0,0,1,.042.322l.01.236-.017.277c-.008.1-.031.2-.048.313s-.06.223-.091.342-.088.237-.143.36a3.122,3.122,0,0,1-.2.361,3.16,3.16,0,0,1-.585.685,3.425,3.425,0,0,1-.814.527,3.68,3.68,0,0,1-.976.273,3.736,3.736,0,0,1-.993-.034A3.338,3.338,0,0,1,200.42,243.1Zm1.291,3.536c0,.621-.017,1.242-.043,1.709-.011.232-.029.427-.039.563s-.019.213-.019.213-.008-.078-.019-.213-.028-.331-.039-.563c-.026-.467-.043-1.088-.043-1.709s.017-1.243.042-1.709c.012-.233.03-.427.039-.563s.019-.213.019-.213.01.077.02.213.026.33.039.563C201.693,245.39,201.71,246.01,201.711,246.633Zm.06,3.493a4.9,4.9,0,0,1,2.868.626,5.669,5.669,0,0,1,2.312,2.515,5.4,5.4,0,0,0-1.2-1.011,1.565,1.565,0,0,0-1-.291c-.65.1-.611.72-.673,1.231a2.455,2.455,0,0,1-1.36,1.984,2.922,2.922,0,0,1-2.958-.085c-1.85-.924-1.9-2.367-.675-3.767A4.447,4.447,0,0,1,201.771,250.126Z" transform="translate(-172.045 -159.684)" fill="#7e5ee3"/>
        <path id="Trazado_193146" data-name="Trazado 193146" d="M230.762,223.22a3.747,3.747,0,0,0-1.073,2.224l-4.212.389a2.455,2.455,0,0,0-.5-.729,2.486,2.486,0,1,0,.72,1.99l4.067-.374a3.757,3.757,0,0,0,2.758,2.806l-.445,4.1a2.483,2.483,0,1,0,1.27.136l.45-4.147a3.759,3.759,0,1,0-3.03-6.4Zm-6.256,5.45a2.06,2.06,0,0,1-1.3.4,2.272,2.272,0,0,1-1.284-.446,2.632,2.632,0,0,1-.923-1.286,2.508,2.508,0,0,0,.5.532.73.73,0,0,0,.444.19c.3-.01.32-.3.378-.529a1.135,1.135,0,0,1,.735-.836,1.354,1.354,0,0,1,1.355.2A1,1,0,0,1,224.505,228.67Zm.98-1.752,0,.081-.012-.079a2,2,0,0,0-.039-.221l-.037-.155-.06-.176a2.7,2.7,0,0,0-.193-.4,2.463,2.463,0,0,0-.316-.407,2.3,2.3,0,0,0-.444-.356,2.372,2.372,0,0,0-.551-.244,2.223,2.223,0,0,0-1.781.246,2.287,2.287,0,0,0-.443.356,2.406,2.406,0,0,0-.316.408,2.7,2.7,0,0,0-.193.4l-.059.177L221,226.7a2.069,2.069,0,0,0-.039.223l-.012.079,0-.079a1.492,1.492,0,0,1,0-.227l.013-.165.035-.191c.014-.069.039-.138.06-.214s.06-.149.093-.23.081-.156.13-.237a2.162,2.162,0,0,1,.172-.235,2.235,2.235,0,0,1,.465-.426,2.347,2.347,0,0,1,.609-.3,2.292,2.292,0,0,1,1.389,0,2.336,2.336,0,0,1,.61.3,2.228,2.228,0,0,1,.465.425,2.162,2.162,0,0,1,.172.235c.049.079.091.16.131.237s.069.155.093.23.046.146.06.214l.035.19.013.165A1.494,1.494,0,0,1,225.485,226.918Zm3.741-.45c-.1.014-.233.042-.4.064s-.357.053-.564.077-.428.048-.649.071-.443.04-.651.053-.4.023-.568.032-.306.008-.4.012h-.153s.054-.012.15-.029.232-.042.4-.064.357-.053.564-.077.427-.048.649-.071.442-.04.65-.053.4-.023.568-.032.307-.008.4-.012.154,0,.154,0S229.321,226.451,229.226,226.468Zm4.512,11.424a2.06,2.06,0,0,1-1.3.4,2.274,2.274,0,0,1-1.284-.448,2.631,2.631,0,0,1-.923-1.285,2.509,2.509,0,0,0,.5.532.728.728,0,0,0,.444.189c.3-.008.32-.3.378-.528a1.137,1.137,0,0,1,.735-.836,1.351,1.351,0,0,1,1.355.2A1,1,0,0,1,233.738,237.892Zm.013-3.675a2.164,2.164,0,0,1,.464.425,2.344,2.344,0,0,1,.173.235c.048.079.09.16.13.237s.069.154.093.23.046.146.06.213l.035.191.013.164a1.539,1.539,0,0,1,0,.229l0,.081-.012-.079c-.011-.052-.014-.129-.04-.221l-.037-.155-.06-.177a2.828,2.828,0,0,0-.193-.4,2.369,2.369,0,0,0-.759-.763,2.451,2.451,0,0,0-.552-.243,2.332,2.332,0,0,0-.622-.087,2.215,2.215,0,0,0-1.159.331,2.342,2.342,0,0,0-.443.357,2.451,2.451,0,0,0-.316.407,2.966,2.966,0,0,0-.193.4l-.059.177-.037.154a2.028,2.028,0,0,0-.039.223l-.012.079,0-.081a1.489,1.489,0,0,1,0-.227l.013-.164.035-.191c.014-.069.04-.138.06-.214s.06-.149.093-.23.081-.158.13-.237a2.355,2.355,0,0,1,.637-.661,2.327,2.327,0,0,1,.609-.3,2.576,2.576,0,0,1,.7-.108,2.607,2.607,0,0,1,.687.107A2.336,2.336,0,0,1,233.751,234.217Zm-.325-4.135c-.006.1-.008.232-.02.395-.022.326-.063.759-.114,1.191s-.117.862-.173,1.184c-.028.16-.057.294-.075.388s-.031.147-.031.147,0-.054,0-.15.008-.231.02-.395c.022-.325.061-.758.113-1.19s.117-.863.174-1.184c.026-.161.057-.294.073-.388s.031-.147.031-.147S233.43,229.987,233.426,230.082Zm1.945-1.473a3.124,3.124,0,0,1-1.968.61,3.428,3.428,0,0,1-1.94-.678,3.974,3.974,0,0,1-1.4-1.942,3.837,3.837,0,0,0,.75.8,1.1,1.1,0,0,0,.67.286c.46-.013.485-.449.572-.8a1.719,1.719,0,0,1,1.111-1.265,2.045,2.045,0,0,1,2.048.308C236.426,226.732,236.34,227.739,235.371,228.609Zm1.143-4.179c.049.119.107.229.143.341s.072.217.1.318l.059.285c.012.089.019.171.026.244l.012.1c0,.034,0,.065,0,.093v.147l0,.12-.013-.12a3.358,3.358,0,0,0-.048-.336l-.049-.237-.084-.27c-.031-.1-.079-.194-.122-.3s-.106-.206-.161-.315-.134-.213-.212-.319a3.593,3.593,0,0,0-.939-.869,3.6,3.6,0,0,0-.85-.381,3.3,3.3,0,0,0-.463-.1,3.308,3.308,0,0,0-1.434.1,3.543,3.543,0,0,0-.848.383,3.512,3.512,0,0,0-.937.87c-.078.106-.147.215-.213.319s-.116.212-.16.315-.089.2-.122.3l-.083.271-.049.235a3.367,3.367,0,0,0-.048.338l-.013.12v-.122l0-.146c0-.028,0-.059,0-.091l.011-.1c.007-.075.014-.156.026-.246l.059-.285c.023-.1.061-.206.1-.319s.094-.221.144-.341.124-.233.2-.35a3.266,3.266,0,0,1,.261-.347,3.365,3.365,0,0,1,.7-.626,3.629,3.629,0,0,1,.906-.437,3.9,3.9,0,0,1,1.029-.158,3.945,3.945,0,0,1,.519.043,3.327,3.327,0,0,1,1.418.549,3.336,3.336,0,0,1,.7.625,3.216,3.216,0,0,1,.261.345C236.389,224.2,236.453,224.315,236.514,224.43Z" transform="translate(-167.208 -162.644)" fill="#7e5ee3"/>
        <path id="Trazado_193147" data-name="Trazado 193147" d="M199.878,197.909a2.487,2.487,0,1,0,.333,4.853l2.132,3.585a3.759,3.759,0,1,0,5.788.869l3.132-2.842a2.48,2.48,0,1,0-.93-.878l-3.025,2.744a3.756,3.756,0,0,0-3.892-.584l-2.111-3.546a2.483,2.483,0,0,0-1.428-4.2Zm-2.465,1.793a2.064,2.064,0,0,1,.8-1.1,2.266,2.266,0,0,1,1.295-.414,2.628,2.628,0,0,1,1.51.472,2.544,2.544,0,0,0-.716-.126.727.727,0,0,0-.468.116c-.238.19-.078.43.016.65a1.139,1.139,0,0,1-.084,1.111,1.353,1.353,0,0,1-1.206.651C197.6,201.115,197.247,200.548,197.414,199.7Zm16.967,3.11a2.346,2.346,0,0,0,.14-.551,2.479,2.479,0,0,0,.008-.515,2.844,2.844,0,0,0-.085-.433l-.059-.177-.063-.146a2.228,2.228,0,0,0-.1-.2l-.037-.071.051.063a1.428,1.428,0,0,1,.138.181l.089.138.087.174c.029.063.052.134.081.207s.041.155.064.239.03.174.039.267a2.128,2.128,0,0,1,0,.291,2.224,2.224,0,0,1-.114.62,2.409,2.409,0,0,1-.308.6,2.294,2.294,0,0,1-1.11.835,2.327,2.327,0,0,1-.665.129,2.142,2.142,0,0,1-.628-.06,2.2,2.2,0,0,1-.278-.083c-.088-.035-.168-.075-.247-.112s-.148-.082-.212-.128-.125-.089-.177-.135l-.143-.131-.108-.123a1.567,1.567,0,0,1-.137-.184l-.045-.066.057.057a2.132,2.132,0,0,0,.165.153l.123.1.154.106a2.83,2.83,0,0,0,.392.2,2.433,2.433,0,0,0,.5.135,2.279,2.279,0,0,0,.568.018,2.2,2.2,0,0,0,1.137-.442,2.427,2.427,0,0,0,.433-.434A2.348,2.348,0,0,0,214.38,202.812Zm-4.046-1.29a2.064,2.064,0,0,1,.8-1.1,2.269,2.269,0,0,1,1.295-.414,2.632,2.632,0,0,1,1.511.472,2.55,2.55,0,0,0-.716-.126.725.725,0,0,0-.468.116c-.238.189-.078.43.016.65a1.134,1.134,0,0,1-.085,1.11,1.352,1.352,0,0,1-1.206.652C210.523,202.935,210.168,202.368,210.334,201.522Zm-2.448,4.6c.067-.07.16-.173.279-.291s.254-.256.4-.4.314-.3.477-.446.33-.3.487-.434.308-.259.436-.367.238-.191.314-.251.123-.094.123-.094-.037.042-.1.113-.161.174-.28.291-.254.256-.4.4-.313.295-.477.446-.329.3-.487.433-.308.26-.434.367-.239.191-.315.253-.122.093-.122.093S207.819,206.191,207.887,206.12Zm-.472,4.771a3.573,3.573,0,0,0,.448-.817,3.419,3.419,0,0,0,.2-.851,3.365,3.365,0,0,0,.022-.408c0-.131-.012-.259-.022-.382s-.035-.239-.061-.349-.049-.214-.082-.31l-.1-.266-.1-.218a2.94,2.94,0,0,0-.165-.3l-.061-.1.075.1.089.114c.017.023.037.047.055.073l.054.09c.038.064.083.135.126.213l.125.264c.042.1.073.2.114.312s.059.233.09.359.041.261.052.4a3.258,3.258,0,0,1,0,.433,3.317,3.317,0,0,1-.179.919,3.564,3.564,0,0,1-.462.893,3.908,3.908,0,0,1-.727.745,3.977,3.977,0,0,1-.44.277,3.658,3.658,0,0,1-.477.217,3.533,3.533,0,0,1-.987.2,3.567,3.567,0,0,1-1.349-.2c-.13-.049-.253-.106-.371-.16s-.223-.118-.319-.185-.189-.13-.268-.2l-.219-.191c-.063-.065-.118-.126-.168-.179l-.071-.077c-.022-.026-.039-.052-.057-.075l-.085-.118-.072-.1.084.088a3.2,3.2,0,0,0,.241.239l.182.159.23.166c.083.058.178.107.274.165s.208.1.319.154.235.089.361.128a3.634,3.634,0,0,0,.4.091,3.488,3.488,0,0,0,.874.038,3.64,3.64,0,0,0,.909-.2,3.5,3.5,0,0,0,.43-.2,3.814,3.814,0,0,0,.41-.262A3.647,3.647,0,0,0,207.415,210.891Zm-4.52-4.459a3.436,3.436,0,0,1,1.957-.626,3.975,3.975,0,0,1,2.283.714,3.816,3.816,0,0,0-1.083-.191,1.094,1.094,0,0,0-.706.174c-.36.286-.118.65.023.982a1.717,1.717,0,0,1-.128,1.678,2.045,2.045,0,0,1-1.822.986c-1.445.088-1.981-.769-1.729-2.046A3.111,3.111,0,0,1,202.895,206.433Zm-1.261-2.1c.218.377.425.758.573,1.049.075.146.131.27.174.355s.063.136.063.136-.033-.043-.087-.122-.132-.191-.221-.329c-.178-.273-.407-.644-.625-1.019s-.425-.759-.573-1.051c-.075-.146-.131-.27-.174-.355s-.063-.136-.063-.136.033.043.087.123.132.19.22.327C201.187,203.59,201.416,203.961,201.634,204.338Zm.061-3.259a2.368,2.368,0,0,1-.308.6,2.3,2.3,0,0,1-1.108.835,2.379,2.379,0,0,1-.667.13,2.41,2.41,0,0,1-.906-.144c-.087-.035-.168-.073-.245-.111s-.149-.082-.213-.129-.124-.089-.177-.135l-.143-.131-.108-.123a1.443,1.443,0,0,1-.136-.184l-.046-.066.058.057a1.933,1.933,0,0,0,.165.153l.123.1.154.106a2.964,2.964,0,0,0,.392.2,2.466,2.466,0,0,0,.5.134,2.335,2.335,0,0,0,.568.019,2.432,2.432,0,0,0,.587-.137,2.236,2.236,0,0,0,.982-.74,2.4,2.4,0,0,0,.295-.527,2.285,2.285,0,0,0,.138-.551,2.4,2.4,0,0,0,.008-.515,2.71,2.71,0,0,0-.085-.433l-.059-.177-.063-.146a1.979,1.979,0,0,0-.1-.2l-.039-.071.052.063a1.44,1.44,0,0,1,.137.181l.089.14.087.173c.03.063.052.134.081.207s.042.155.065.24.03.174.038.267a2.339,2.339,0,0,1,0,.291A2.227,2.227,0,0,1,201.7,201.079Z" transform="translate(-172.026 -167.573)" fill="#7e5ee3"/>
        <path id="Trazado_193148" data-name="Trazado 193148" d="M227.307,184.23a3.758,3.758,0,0,0,4,5.459l1.6,3.916a2.446,2.446,0,0,0-.549.694,2.485,2.485,0,1,0,1.693-1.27l-1.548-3.78a3.759,3.759,0,0,0,1.878-3.459l4.053-.774a2.481,2.481,0,1,0-.241-1.254l-4.1.782a3.758,3.758,0,0,0-6.788-.315Zm13.054-1.438c.272-.918.925-1.058,1.663-.614a2.065,2.065,0,0,1,.767,1.128,2.277,2.277,0,0,1-.053,1.359,2.638,2.638,0,0,1-.959,1.259,2.552,2.552,0,0,0,.363-.631.733.733,0,0,0,.052-.479c-.1-.289-.378-.22-.616-.207a1.138,1.138,0,0,1-1.016-.459A1.356,1.356,0,0,1,240.362,182.792Zm-1.856.449a2.373,2.373,0,0,1,.444-.8c.063-.071.128-.134.189-.194s.128-.112.193-.156.126-.085.188-.119l.172-.09.153-.06a1.487,1.487,0,0,1,.219-.065l.077-.02-.072.035a1.887,1.887,0,0,0-.2.1l-.137.081-.152.108a2.806,2.806,0,0,0-.324.3,2.475,2.475,0,0,0-.3.422,2.318,2.318,0,0,0-.212.528,2.394,2.394,0,0,0-.071.6,2.347,2.347,0,0,0,.1.62,2.408,2.408,0,0,0,.261.556,2.33,2.33,0,0,0,.395.456,2.3,2.3,0,0,0,.471.319,2.424,2.424,0,0,0,.483.184,2.736,2.736,0,0,0,.436.067l.187,0,.158-.008c.1,0,.172-.023.224-.028l.079-.012-.076.027a1.515,1.515,0,0,1-.217.069l-.161.036-.193.022c-.07.006-.143,0-.223,0s-.16-.013-.247-.02-.174-.032-.265-.055a2.14,2.14,0,0,1-.274-.1,2.188,2.188,0,0,1-.543-.319,2.367,2.367,0,0,1-.463-.5,2.305,2.305,0,0,1-.407-1.329A2.352,2.352,0,0,1,238.506,183.241Zm-3.858,1.519c.093-.023.224-.06.383-.1.318-.075.745-.162,1.172-.239s.859-.14,1.183-.179c.162-.02.3-.033.394-.043l.149-.012s-.053.016-.144.04-.225.059-.384.1c-.318.075-.744.162-1.172.239s-.858.141-1.183.181c-.161.02-.3.031-.392.042s-.15.013-.15.013S234.555,184.784,234.648,184.76Zm-2.935,4.484-.138.045c-.028.008-.057.019-.088.028l-.1.02c-.073.013-.154.031-.243.046l-.29.028c-.1.007-.214,0-.332,0s-.239-.025-.368-.037-.259-.052-.393-.089a3.468,3.468,0,0,1-.407-.148,3.373,3.373,0,0,1-.8-.483,3.544,3.544,0,0,1-.682-.739,3.885,3.885,0,0,1-.452-.939,4.23,4.23,0,0,1-.11-.508,3.521,3.521,0,0,1-.041-.522,3.566,3.566,0,0,1,.15-.994,3.566,3.566,0,0,1,.649-1.2c.09-.106.187-.2.277-.294s.188-.17.284-.237.185-.134.276-.185l.256-.14c.082-.037.158-.069.226-.1l.1-.041c.031-.011.061-.018.089-.026l.14-.041.117-.034-.111.048a3.033,3.033,0,0,0-.308.144l-.212.117-.233.159c-.083.059-.161.132-.249.2s-.165.161-.254.247-.164.19-.243.3a3.551,3.551,0,0,0-.556,1.152,3.542,3.542,0,0,0-.117.923,3.225,3.225,0,0,0,.041.473,3.919,3.919,0,0,0,.107.475,3.643,3.643,0,0,0,.407.868,3.549,3.549,0,0,0,.615.7,3.433,3.433,0,0,0,.729.483,3.363,3.363,0,0,0,.377.16c.124.045.248.077.367.11s.236.049.348.061.219.026.32.029h.283l.239-.023a3,3,0,0,0,.337-.052l.119-.023Zm2.528,5.074c.272-.918.925-1.059,1.663-.614a2.061,2.061,0,0,1,.767,1.128,2.273,2.273,0,0,1-.053,1.357,2.621,2.621,0,0,1-.96,1.259,2.512,2.512,0,0,0,.365-.629.734.734,0,0,0,.052-.479c-.1-.289-.378-.22-.616-.207a1.139,1.139,0,0,1-1.016-.46A1.354,1.354,0,0,1,234.241,194.317Zm-.3-1.04.077-.019-.072.035a1.879,1.879,0,0,0-.2.1l-.137.081-.152.108a2.808,2.808,0,0,0-.324.3,2.513,2.513,0,0,0-.3.421,2.365,2.365,0,0,0-.212.528,2.4,2.4,0,0,0-.071.6,2.346,2.346,0,0,0,.1.62,2.434,2.434,0,0,0,.261.556,2.4,2.4,0,0,0,.395.456,2.3,2.3,0,0,0,.471.319,2.6,2.6,0,0,0,.481.184,2.915,2.915,0,0,0,.437.067l.187,0,.158-.01a1.832,1.832,0,0,0,.224-.028l.079-.012-.076.028a1.393,1.393,0,0,1-.217.067l-.161.036-.193.023c-.07.006-.143,0-.223,0s-.16-.014-.247-.022-.174-.031-.265-.054a2.329,2.329,0,0,1-.274-.1,2.23,2.23,0,0,1-.543-.32,2.337,2.337,0,0,1-.463-.5,2.3,2.3,0,0,1-.407-1.327,2.366,2.366,0,0,1,.106-.67,2.373,2.373,0,0,1,.444-.8c.063-.07.128-.134.189-.194s.128-.111.193-.155.126-.087.188-.12l.172-.089.153-.06A1.48,1.48,0,0,1,233.943,193.277Zm-1.347-3.083c.07.152.155.327.238.517s.171.395.256.6.168.412.242.606.138.378.2.534.1.29.13.383.046.146.046.146-.026-.049-.071-.136-.108-.211-.178-.362-.154-.326-.238-.516-.171-.4-.256-.6-.168-.412-.242-.605-.138-.379-.2-.535-.1-.29-.13-.381-.046-.147-.046-.147.026.049.071.136S232.526,190.043,232.6,190.194Zm.073-6.864a3.108,3.108,0,0,1,1.158,1.7,3.427,3.427,0,0,1-.079,2.053,3.978,3.978,0,0,1-1.45,1.9,3.8,3.8,0,0,0,.55-.952,1.1,1.1,0,0,0,.078-.724c-.148-.436-.572-.332-.931-.313a1.718,1.718,0,0,1-1.534-.693,2.048,2.048,0,0,1-.3-2.049C230.566,182.869,231.555,182.658,232.67,183.33Z" transform="translate(-165.96 -170.915)" fill="#7e5ee3"/>
        <path id="Trazado_193149" data-name="Trazado 193149" d="M252.117,250.749a2.5,2.5,0,0,0,.327-.976l4.128-.6a3.759,3.759,0,1,0,3.019-5.015l-1.426-3.982A2.484,2.484,0,1,0,257,240.7l1.377,3.846a3.756,3.756,0,0,0-2.03,3.371l-4.084.592a2.484,2.484,0,1,0-.142,2.24Zm7.046-6.161.14-.039c.028-.007.058-.017.089-.023l.1-.016c.073-.011.155-.025.244-.036l.291-.013c.1,0,.214.008.332.013s.237.035.366.054.256.063.389.1a3.136,3.136,0,0,1,.4.167,3.289,3.289,0,0,1,.78.517,3.572,3.572,0,0,1,.65.769,3.967,3.967,0,0,1,.409.957,4.075,4.075,0,0,1,.087.513,3.66,3.66,0,0,1,.018.523,3.557,3.557,0,0,1-.195.987,3.583,3.583,0,0,1-.7,1.17c-.1.1-.195.194-.29.28s-.195.161-.294.225-.191.124-.284.172l-.261.129-.231.087-.1.036c-.031.01-.061.016-.089.024l-.142.034-.118.029.113-.043a3.11,3.11,0,0,0,.314-.131l.217-.106.241-.149c.084-.054.167-.125.258-.191s.172-.154.265-.235.172-.183.255-.285a3.277,3.277,0,0,0,.237-.332,3.455,3.455,0,0,0,.371-.793,3.606,3.606,0,0,0,.158-.917,3.29,3.29,0,0,0-.02-.475,4.107,4.107,0,0,0-.084-.478,3.384,3.384,0,0,0-.952-1.613,3.433,3.433,0,0,0-.708-.514,3.314,3.314,0,0,0-.368-.177c-.123-.049-.244-.088-.362-.125s-.233-.06-.344-.078-.218-.036-.319-.042l-.283-.013-.24.011a2.772,2.772,0,0,0-.339.038l-.119.016Zm-2.3-5.181c-.313.9-.972,1.016-1.69.538a2.055,2.055,0,0,1-.715-1.16,2.267,2.267,0,0,1,.113-1.354,2.627,2.627,0,0,1,1.014-1.215,2.543,2.543,0,0,0-.391.614.729.729,0,0,0-.072.477c.084.292.367.236.605.233a1.14,1.14,0,0,1,.994.5A1.355,1.355,0,0,1,256.864,239.407Zm.251,1.051-.078.017.075-.031a2.228,2.228,0,0,0,.2-.094l.14-.075.156-.1a2.954,2.954,0,0,0,.337-.285,2.6,2.6,0,0,0,.314-.409,2.278,2.278,0,0,0,.235-.517,2.426,2.426,0,0,0,.1-.6,2.245,2.245,0,0,0-.307-1.19,2.381,2.381,0,0,0-.374-.474,2.347,2.347,0,0,0-.456-.339,2.489,2.489,0,0,0-.473-.2,2.883,2.883,0,0,0-.433-.088l-.185-.013-.159,0a1.99,1.99,0,0,0-.225.018l-.079.008.077-.024A1.506,1.506,0,0,1,256.2,236l.162-.029.194-.013c.07,0,.144,0,.223,0s.16.02.245.031.172.04.262.067a2.174,2.174,0,0,1,.27.108,2.215,2.215,0,0,1,.528.343,2.384,2.384,0,0,1,.44.516,2.577,2.577,0,0,1,.279.652,2.665,2.665,0,0,1,.069.692,2.371,2.371,0,0,1-.136.665,2.207,2.207,0,0,1-.3.556,2.166,2.166,0,0,1-.184.225c-.065.067-.132.128-.2.185s-.132.106-.2.147-.13.081-.193.112l-.176.082-.156.053A1.388,1.388,0,0,1,257.115,240.457Zm1.208,3.141c-.063-.154-.141-.333-.215-.527s-.153-.4-.23-.611-.149-.419-.214-.616-.122-.384-.172-.543-.085-.294-.113-.387-.039-.148-.039-.148.024.051.065.14.1.214.161.369.14.332.214.527.154.4.231.61.148.419.214.616.122.384.172.543.084.295.112.388.04.148.04.148-.025-.049-.065-.138S258.386,243.752,258.323,243.6Zm-1.29,3.053a3.967,3.967,0,0,1,1.534-1.835,3.747,3.747,0,0,0-.592.927,1.1,1.1,0,0,0-.111.72c.128.443.556.357.917.354a1.723,1.723,0,0,1,1.5.762,2.045,2.045,0,0,1,.212,2.06c-.472,1.368-1.468,1.535-2.552.813a3.109,3.109,0,0,1-1.081-1.753A3.437,3.437,0,0,1,257.033,246.651Zm-4.159,2.675c.094-.018.227-.049.387-.078.321-.06.751-.13,1.182-.187s.864-.1,1.189-.128c.164-.013.3-.018.395-.025s.15-.006.15-.006-.053.013-.147.034-.226.049-.387.078c-.32.06-.75.13-1.182.187s-.864.1-1.189.128c-.162.013-.3.018-.395.025s-.149,0-.149,0S252.782,249.346,252.874,249.326Zm-3.522-2.024a1.4,1.4,0,0,1,.22-.059l.162-.029.194-.013c.07,0,.143,0,.223,0s.159.022.245.033.172.039.262.066a2.185,2.185,0,0,1,.27.108,2.253,2.253,0,0,1,.528.343,2.384,2.384,0,0,1,.44.516,2.576,2.576,0,0,1,.279.652,2.666,2.666,0,0,1,.069.692,2.371,2.371,0,0,1-.136.665,2.348,2.348,0,0,1-.48.781c-.065.067-.132.128-.2.185s-.132.106-.2.147-.129.081-.191.112l-.177.082-.155.054a1.716,1.716,0,0,1-.221.055l-.078.016.073-.031a1.781,1.781,0,0,0,.2-.093l.141-.076.156-.1a2.84,2.84,0,0,0,.337-.285,2.545,2.545,0,0,0,.314-.409,2.278,2.278,0,0,0,.235-.517,2.428,2.428,0,0,0,.1-.6,2.37,2.37,0,0,0-.072-.623,2.4,2.4,0,0,0-.235-.567,2.373,2.373,0,0,0-.374-.473,2.308,2.308,0,0,0-.456-.341,2.49,2.49,0,0,0-.473-.2,2.726,2.726,0,0,0-.433-.087l-.185-.013-.159,0a2.044,2.044,0,0,0-.225.017l-.079.008Zm-.806,3.882a2.055,2.055,0,0,1-.715-1.16,2.268,2.268,0,0,1,.113-1.354,2.633,2.633,0,0,1,1.014-1.215,2.507,2.507,0,0,0-.391.614.73.73,0,0,0-.073.477c.085.292.368.237.606.233a1.14,1.14,0,0,1,.994.5,1.353,1.353,0,0,1,.14,1.363C249.922,251.551,249.263,251.662,248.546,251.184Z" transform="translate(-161.766 -159.87)" fill="#7e5ee3"/>
        <path id="Trazado_193150" data-name="Trazado 193150" d="M210.247,240.6a1.34,1.34,0,0,0,2.306.93l3.161,1.758a1.36,1.36,0,0,0-.071.427,1.341,1.341,0,0,0,2.681,0,1.358,1.358,0,0,0-.07-.427l3.161-1.758a1.34,1.34,0,1,0,1.208-2.248v-3.6a1.34,1.34,0,1,0-1.262-2.188l-3.114-1.8a1.341,1.341,0,1,0-2.526,0l-3.114,1.8a1.34,1.34,0,1,0-1.262,2.188v3.6A1.341,1.341,0,0,0,210.247,240.6Zm1.585-4.913a1.34,1.34,0,0,0,1.1-1.318,1.321,1.321,0,0,0-.078-.448l3.116-1.8a1.338,1.338,0,0,0,2.037,0l3.114,1.8a1.336,1.336,0,0,0,1.019,1.765v3.6a1.34,1.34,0,0,0-.992,1.84l-3.128,1.739a1.342,1.342,0,0,0-2.067,0l-3.126-1.739a1.343,1.343,0,0,0-.992-1.84Z" transform="translate(-169.34 -161.059)" fill="#7e5ee3"/>
        <path id="Trazado_193151" data-name="Trazado 193151" d="M209.7,190.4a1.34,1.34,0,0,0,.718,2.57l1.278,3.361A1.341,1.341,0,1,0,213.621,198l3.58.519a1.341,1.341,0,1,0,2.374-.9l2.33-2.768a1.34,1.34,0,1,0,.33-2.529l-1.279-3.361a1.34,1.34,0,1,0-1.958-1.6l-3.55-.573a1.324,1.324,0,0,0-.087-.445,1.34,1.34,0,1,0-2.505.953,1.32,1.32,0,0,0,.232.39l-2.272,2.788A1.34,1.34,0,0,0,209.7,190.4Zm1.73.776a1.368,1.368,0,0,0-.232-.391l2.272-2.788a1.336,1.336,0,0,0,1.9-.724l3.551.573a1.334,1.334,0,0,0,1.58,1.288l1.278,3.361a1.343,1.343,0,0,0-.272,2.072l-2.3,2.738a1.339,1.339,0,0,0-1.931.735l-3.542-.514a1.342,1.342,0,0,0-1.581-1.367l-1.279-3.361A1.34,1.34,0,0,0,211.426,191.172Z" transform="translate(-169.628 -170.096)" fill="#7e5ee3"/>
        <path id="Trazado_193152" data-name="Trazado 193152" d="M267.4,223.817a1.34,1.34,0,0,0-1.975.946l-3.6.051a1.34,1.34,0,1,0-2.169,1.295l-1.755,3.14a1.34,1.34,0,1,0-.04,2.551l1.9,3.076a1.32,1.32,0,0,0-.271.339,1.341,1.341,0,1,0,2.487.9l3.619.006a1.34,1.34,0,1,0,2.15-1.373l1.753-3.14a1.34,1.34,0,1,0-.036-2.525l-1.842-3.089a1.307,1.307,0,0,0,.286-.353A1.341,1.341,0,0,0,267.4,223.817Zm1.655,5.516a1.307,1.307,0,0,0-.286.353,1.339,1.339,0,0,0,.314,1.685l-1.753,3.14a1.338,1.338,0,0,0-1.6.615,1.308,1.308,0,0,0-.162.508l-3.579-.007a1.34,1.34,0,0,0-1.805-1.007l-1.882-3.043a1.343,1.343,0,0,0,.031-2.09l1.753-3.14a1.337,1.337,0,0,0,1.751-1.045l3.6-.051a1.337,1.337,0,0,0,1.78.994Z" transform="translate(-160.007 -162.333)" fill="#7e5ee3"/>
        <path id="Trazado_193153" data-name="Trazado 193153" d="M250.9,253.488a.938.938,0,0,0-1.652-.609l-2.179-1.259a.928.928,0,0,0,.054-.313.939.939,0,1,0-1.822.313l-2.181,1.259a.938.938,0,1,0-.883,1.531v2.517a.938.938,0,1,0,.845,1.573l2.214,1.231a.916.916,0,0,0-.051.3.939.939,0,1,0,1.877,0,.948.948,0,0,0-.049-.3l2.213-1.231a.938.938,0,1,0,.846-1.573V254.41A.937.937,0,0,0,250.9,253.488Zm-1.11,3.439a.938.938,0,0,0-.768.923.923.923,0,0,0,.075.365l-2.19,1.218a.938.938,0,0,0-1.446,0l-2.189-1.218a.939.939,0,0,0-.694-1.288V254.41a.936.936,0,0,0,.714-1.235l2.179-1.259a.937.937,0,0,0,1.427,0l2.181,1.259a.933.933,0,0,0,.712,1.235Z" transform="translate(-162.989 -156.898)" fill="#7e5ee3"/>
        <path id="Trazado_193154" data-name="Trazado 193154" d="M188.485,240.935a.938.938,0,0,0,1.614.651l2.213,1.231a.915.915,0,0,0-.049.3.938.938,0,0,0,1.876,0,.948.948,0,0,0-.049-.3l2.213-1.231a.938.938,0,1,0,.846-1.573V237.5a.938.938,0,1,0-.883-1.531l-2.181-1.259a.938.938,0,1,0-1.768,0l-2.181,1.259a.938.938,0,1,0-.883,1.531v2.517A.938.938,0,0,0,188.485,240.935Zm1.108-3.439a.938.938,0,0,0,.768-.922.923.923,0,0,0-.054-.313L192.488,235a.938.938,0,0,0,1.426,0l2.181,1.259a.924.924,0,0,0-.054.313.938.938,0,0,0,.768.922v2.517a.938.938,0,0,0-.768.922.924.924,0,0,0,.073.366l-2.189,1.218a.94.94,0,0,0-1.448,0l-2.189-1.218a.924.924,0,0,0,.073-.366.938.938,0,0,0-.768-.922Z" transform="translate(-173.766 -160.338)" fill="#7e5ee3"/>
        <path id="Trazado_193155" data-name="Trazado 193155" d="M256.977,204.386a.937.937,0,0,0,.486,1.67l.4,2.5a.958.958,0,0,0-.266.146.939.939,0,0,0,1.16,1.477.973.973,0,0,0,.2-.224l2.335.978a.938.938,0,1,0,1.759-.307l1.98-1.556a.938.938,0,1,0,.657-1.64l-.357-2.492a.96.96,0,0,0,.28-.15.938.938,0,1,0-1.16-1.475.918.918,0,0,0-.213.236l-2.337-.936a.938.938,0,1,0-1.75.252l-1.98,1.556A.939.939,0,0,0,256.977,204.386Zm3.39-1.254a.939.939,0,0,0,1.2.034.918.918,0,0,0,.212-.237l2.337.936a.936.936,0,0,0,.882,1.122l.357,2.492a.969.969,0,0,0-.279.15.938.938,0,0,0-.25,1.174l-1.98,1.555a.939.939,0,0,0-1.2-.034.949.949,0,0,0-.242.284l-2.309-.969a.939.939,0,0,0-.9-1.137l-.395-2.474a.912.912,0,0,0,.332-.167.939.939,0,0,0,.251-1.173Z" transform="translate(-159.908 -166.84)" fill="#7e5ee3"/>
        <path id="Trazado_193156" data-name="Trazado 193156" d="M191.111,223.456l-2.626,1.337a9.384,9.384,0,0,1,4.252.777l5.143,10.116,0,.078a23.972,23.972,0,0,1-.427,3.745l2.779-1.412a69.648,69.648,0,0,0,.546-7.723c6.966,4.786,10.356,6.289,12.228,5.338l1.324-.674,1.324-.673c1.354-.688,2.138-2.774,2.558-7.074,3.721,2.194,5.869,2.789,7.223,2.1.392-.2.848-.431,1.324-.674l1.324-.672c1.874-.953,2.656-4.585,2.893-13.054,6.983,4.8,10.378,6.307,12.252,5.354.395-.2.852-.433,1.33-.678s.936-.475,1.331-.675c1.353-.687,2.136-2.77,2.557-7.06,3.714,2.188,5.858,2.782,7.211,2.094l1.33-.676,1.331-.676c1.874-.953,2.656-4.586,2.893-13.06a54.352,54.352,0,0,0,8,4.816l2.752-1.528a19.507,19.507,0,0,1-2.534-1.15l-6.729-13.236a7.206,7.206,0,0,1,1.245-2.084l-2.628,1.335c-1.349.686-2.131,2.761-2.554,7.029-3.7-2.175-5.834-2.764-7.183-2.078l-1.345.685-1.347.684c-1.87.952-2.653,4.577-2.892,13.024-6.966-4.785-10.356-6.289-12.226-5.337-.4.2-.86.437-1.343.684s-.946.48-1.344.682c-1.349.686-2.132,2.762-2.554,7.034-3.7-2.177-5.839-2.768-7.188-2.081l-1.343.682-1.343.682c-1.87.951-2.653,4.573-2.892,13.009-6.958-4.777-10.344-6.279-12.214-5.329l-1.331.677-1.331.676c-1.353.687-2.136,2.77-2.557,7.059C194.607,223.362,192.463,222.768,191.111,223.456Zm6.87,8.2c-.024.883-.04,1.747-.059,2.586l-4.2-8.271a22.335,22.335,0,0,1,2.471,1.295l1.817,3.575C198,231.108,197.988,231.379,197.981,231.655Zm.079-2.235L197.337,228q.379.255.767.522Q198.08,228.959,198.06,229.421Zm1.532,8.223-1.236.628c.059-.444.107-.9.144-1.365l.2.391a.346.346,0,1,0,.617-.314l-.739-1.452c.025-.72.042-1.457.058-2.235.008-.382.017-.774.026-1.164l.244.48a.346.346,0,1,0,.617-.314l-.508-1,1.007.758C199.929,234.335,199.787,236.178,199.592,237.644Zm13.2-2.343c-1.675.852-5-.658-11.874-5.386-.451-.31-.9-.621-1.333-.925-.714-.5-1.389-.97-2.052-1.414a18.522,18.522,0,0,0-7.291-3.159l1.077-.549c1.675-.851,5,.658,11.873,5.386.452.31.9.621,1.335.927.714.5,1.388.969,2.052,1.413a18.515,18.515,0,0,0,7.291,3.159Zm-2.478-2.14-7.4-14.55a13.5,13.5,0,0,1,2.113.592l7.514,14.78A16.335,16.335,0,0,1,210.316,233.161Zm3.632,1.134c-.161-.025-.332-.057-.514-.094l-7.429-14.612a21.927,21.927,0,0,1,2.455,1.266l6.1,12.005A12.212,12.212,0,0,1,213.948,234.295Zm1.452-4.882a19.457,19.457,0,0,1-.534,2.513L209.6,221.571c.035.024.07.045.1.069.859.575,1.757,1.208,2.685,1.854Zm-1.814-5.094q1.107.755,2.092,1.4c-.01.344-.02.684-.034,1.016-.02.507-.054.986-.1,1.444Zm1.271,9.673c.043-.1.085-.2.129-.3l.013.025a.336.336,0,0,0,.13.138Zm.8-.455a.341.341,0,0,0-.036-.135l-.3-.593a18.007,18.007,0,0,0,.611-2.361l.079.158a.346.346,0,0,0,.617-.314l-.508-1c.037-.271.072-.551.1-.84l1.053.792C216.909,231.569,216.384,232.93,215.653,233.536Zm11.633-5.863c.03-.069.059-.14.089-.211a.346.346,0,0,0,.154.087Zm.658-.351a.353.353,0,0,0-.02-.264l-.225-.442a17.619,17.619,0,0,0,.626-2.332l.112.219a.346.346,0,0,0,.617-.314l-.534-1.049a25.752,25.752,0,0,0,.245-2.7c0-.118.008-.238.012-.357l.13.255a.346.346,0,1,0,.617-.314l-.708-1.39c.006-.226.011-.456.016-.688.011-.533.022-1.075.037-1.622,0-.2.011-.4.017-.594l1.331,1C229.949,223.265,229.266,226.422,227.944,227.322Zm.177-8.531c-.013.552-.028,1.1-.048,1.621-.023.574-.063,1.113-.114,1.625l-6.218-12.229a16.108,16.108,0,0,1,2.225.811Zm-3.129-7.68a25.159,25.159,0,0,1,2.505,1.483l.093.063.67,1.318c-.034.733-.061,1.508-.083,2.33-.01.343-.018.685-.025,1.023Zm19.345,7.5-7.063-13.891a24.936,24.936,0,0,1,2.58,1.51l5.247,10.32A13.669,13.669,0,0,1,244.337,218.608Zm-.658.233a14,14,0,0,1-2.13-.626l-7.506-14.763a16.049,16.049,0,0,1,2.211.785Zm2.1-6.046a22.1,22.1,0,0,1-.421,2.735l-4.318-8.492c.733.507,1.486,1.039,2.264,1.573l.533.365Zm-.761-3.023q.457.3.891.586-.014.509-.034,1c0,.031,0,.06,0,.09Zm.549,8.6-.479.243c.154-.349.309-.746.458-1.189l.054.1a.346.346,0,1,0,.616-.314l-.38-.749a20.4,20.4,0,0,0,.51-2.56l.14.274a.346.346,0,0,0,.617-.313l-.338-.665.75.564C247.108,216.486,246.481,217.914,245.57,218.377ZM258,212.058l-.478.243c.138-.315.279-.669.414-1.061l.1.191a.346.346,0,1,0,.616-.313l-.419-.824a20.168,20.168,0,0,0,.525-2.532l.09.178a.346.346,0,0,0,.617-.314l-.561-1.1c.043-.462.077-.945.1-1.455.023-.588.039-1.19.053-1.815l.29.572a.346.346,0,1,0,.617-.314l-.875-1.721c.006-.279.011-.556.019-.839.006-.238.013-.471.02-.7l1.332,1C260.178,208.151,259.447,211.322,258,212.058Zm.389-10.112c-.023,1.071-.04,2.112-.079,3.094,0,.1-.01.19-.014.285l-5.39-10.6a18.775,18.775,0,0,1,2.327,1.011Zm-2.081-5.621q.688.4,1.431.894c.262.177.53.359.8.544q-.067,1.269-.111,2.729Zm12.018,4.8c-.335-.2-.676-.418-1.029-.653-.556-.372-1.129-.769-1.715-1.178l-3.852-7.575a17.072,17.072,0,0,1,.626-2.336Zm-3.946-2.668-.465-.322c-.814-.56-1.576-1.073-2.3-1.546l-.323-.634c.006-.184.011-.371.018-.551a25.361,25.361,0,0,1,.225-2.536Zm-2.757-10.072.179-.091.129.255a16.036,16.036,0,0,0-.7,2.2l-.076-.149a.346.346,0,0,0-.616.313l.463.912a24.357,24.357,0,0,0-.349,2.877l-.246-.481a.346.346,0,0,0-.617.313l.667,1.312q-.542-.345-1.048-.651C259.794,191.022,260.489,188.959,261.621,188.384Zm-9.841,4.745c1.675-.852,5,.658,11.873,5.385.451.312.9.622,1.333.927.715.5,1.389.969,2.053,1.414a23.822,23.822,0,0,0,3.839,2.118l-1.7.942a56.584,56.584,0,0,1-7.8-4.739c-.453-.31-.9-.621-1.335-.927-.714-.5-1.388-.969-2.052-1.413a18.542,18.542,0,0,0-7.291-3.16Zm-1.184,1a11.762,11.762,0,0,1,1.383.3l6.214,12.224a21.469,21.469,0,0,1-.438,2.7l-7.443-14.639C250.408,194.5,250.5,194.308,250.6,194.13Zm-.626,1.445,7.52,14.79a13.376,13.376,0,0,1-.777,2.034l-7.382-14.517A16.688,16.688,0,0,1,249.97,195.575Zm-1.087,6.146a25.5,25.5,0,0,1,.249-2.7l6.853,13.48a14.255,14.255,0,0,1-2.144-.653l-4.969-9.773C248.876,201.955,248.88,201.835,248.883,201.721Zm-.1,4.108c.022-.786.036-1.558.052-2.311l4.021,7.909a22.822,22.822,0,0,1-2.493-1.341l-1.613-3.173C248.758,206.56,248.769,206.2,248.78,205.829Zm-.091,2.5.51,1c-.181-.122-.359-.242-.542-.368C248.668,208.756,248.679,208.544,248.688,208.329Zm-2.013-1.059a72.636,72.636,0,0,1,.513-7.566,6.647,6.647,0,0,1,1.395-1.593,24.157,24.157,0,0,0-.341,2.72l-.18-.354a.346.346,0,1,0-.616.314l.728,1.433c-.02.633-.035,1.284-.048,1.964-.01.473-.02.955-.034,1.44l-.321-.634a.346.346,0,1,0-.617.314l.894,1.759q-.025.744-.06,1.431l-1.319-.918C246.67,207.476,246.673,207.375,246.675,207.27Zm-12.707-5.087c1.675-.851,5,.659,11.874,5.386.451.311.9.621,1.333.927.714.5,1.389.969,2.052,1.413a18.53,18.53,0,0,0,7.291,3.16l-1.077.548c-1.675.852-5-.658-11.874-5.385-.451-.31-.9-.621-1.333-.927-.714-.5-1.389-.969-2.052-1.413a18.548,18.548,0,0,0-7.291-3.16Zm-1.181,1c.119.018.243.04.375.065l7.4,14.559a22.192,22.192,0,0,1-2.477-1.306l-5.971-11.745A12.2,12.2,0,0,1,232.788,203.186Zm-.966,2.519,5.114,10.059c-.893-.6-1.827-1.261-2.794-1.931l-2.84-5.587A19.549,19.549,0,0,1,231.822,205.7Zm-.744,5.069c.018-.446.046-.871.082-1.279l1.788,3.518q-1-.681-1.9-1.266Q231.06,211.251,231.078,210.773Zm-1.72-1.847a7.353,7.353,0,0,1,.894-1.218l.333.657c-.1.727-.165,1.52-.2,2.38-.007.187-.013.373-.019.562l-.143-.09-.283-.557a.348.348,0,0,0-.466-.153.34.34,0,0,0-.149.15c-.049-.03-.1-.061-.148-.09Q229.259,209.685,229.358,208.926Zm-7.817-.424c1.675-.851,5,.659,11.873,5.386.451.31.9.621,1.333.927.715.5,1.389.969,2.052,1.413a18.554,18.554,0,0,0,7.291,3.16l-1.077.548c-1.675.852-5-.658-11.873-5.385-.452-.312-.9-.622-1.335-.927-.714-.5-1.388-.969-2.052-1.414a18.534,18.534,0,0,0-7.291-3.159Zm-1.182,1c.155.024.321.053.5.089l6.948,13.666a18.722,18.722,0,0,1-.549,2.483l-7.52-14.791A12.133,12.133,0,0,1,220.359,209.5Zm-.927,2.382,7.514,14.779a11.786,11.786,0,0,1-.572,1.31c-.2-.03-.407-.069-.634-.118L218.9,214.4A19.2,19.2,0,0,1,219.433,211.886Zm-.783,5.206c.022-.513.055-1,.1-1.46l6.1,12a16.633,16.633,0,0,1-2.244-.848L218.6,218.9C218.611,218.281,218.626,217.676,218.649,217.092Zm-.1,4.108c.007-.28.013-.558.02-.836l3,5.905a25.578,25.578,0,0,1-2.3-1.378l-.32-.218-.49-.965C218.49,222.922,218.522,222.09,218.546,221.2Zm-2.1,1.44c.084-3.078.241-5.513.489-7.392a7.236,7.236,0,0,1,.965-1.3l.286.564c-.107.774-.185,1.62-.223,2.548-.007.178-.013.359-.019.54l-.272-.535a.346.346,0,0,0-.617.314l.852,1.675c0,.166-.007.332-.011.5-.011.532-.023,1.073-.037,1.621-.012.437-.025.857-.041,1.267l-.381-.751a.346.346,0,1,0-.617.314l.936,1.841-1.316-.917C216.436,222.837,216.439,222.741,216.441,222.641Zm-12.692-5.093c1.675-.851,5,.658,11.873,5.386.451.31.9.621,1.333.927.715.5,1.389.969,2.053,1.413a18.545,18.545,0,0,0,7.29,3.16l-1.077.548c-1.675.852-5-.658-11.873-5.385-.452-.312-.9-.622-1.335-.927-.714-.5-1.388-.969-2.052-1.414a18.515,18.515,0,0,0-7.291-3.159Zm-1.395,1.48,6.934,13.637a25.148,25.148,0,0,1-2.453-1.456l-.153-.1-5.076-9.983A14.073,14.073,0,0,1,202.354,219.028Zm-1,3.13,4.134,8.129c-.661-.46-1.339-.935-2.035-1.414-.259-.178-.511-.35-.761-.52l-1.739-3.421A22.143,22.143,0,0,1,201.356,222.158Zm-.48,4.146.639,1.259c-.226-.15-.448-.3-.667-.438Q200.859,226.708,200.876,226.3Zm-.3-3.791c-.075.406-.143.833-.2,1.286l-.38-.749A5.968,5.968,0,0,1,200.58,222.513Zm-1.394,1.586c.1-.15.2-.309.329-.473l.735,1.449c-.025.33-.046.669-.06,1.023-.008.195-.014.391-.022.588q-.617-.393-1.189-.742C199.04,225.276,199.11,224.663,199.187,224.1Z" transform="translate(-173.766 -169.902)" fill="#7e5ee3"/>
        <path id="Trazado_193157" data-name="Trazado 193157" d="M248.493,195.885c.515.351,1.036.71,1.549,1.083l1.537,1.108c.514.362,1.02.714,1.517,1.046s.984.641,1.45.93.913.55,1.331.785.8.444,1.15.616.652.323.9.44.454.206.592.262l.211.088-.753-.443c-.24-.142-.527-.316-.854-.525s-.7-.438-1.093-.7c-.8-.52-1.718-1.136-2.691-1.82s-2-1.422-3.045-2.154c-.516-.374-1.052-.721-1.578-1.065-.26-.176-.527-.337-.789-.5s-.52-.324-.781-.469l-.769-.433c-.253-.138-.5-.267-.749-.392s-.487-.237-.722-.347-.462-.212-.685-.3-.436-.176-.644-.245-.4-.142-.59-.194-.362-.107-.527-.143-.316-.069-.455-.093a3.49,3.49,0,0,0-.646-.051,1.177,1.177,0,0,0-.229.023,1.176,1.176,0,0,1,.227,0,3.744,3.744,0,0,1,.633.106c.135.033.283.067.442.122s.33.1.509.174.371.143.568.23.406.179.617.284.437.208.662.33.462.237.7.377.48.27.726.415l.745.456c.254.152.5.326.759.489S248.238,195.7,248.493,195.885Z" transform="translate(-163.057 -168.694)" fill="#7e5ee3"/>
        <path id="Trazado_193158" data-name="Trazado 193158" d="M234.5,204.076c.575.412,1.159.832,1.743,1.25s1.171.838,1.763,1.236,1.176.78,1.746,1.143l.852.521c.278.171.558.323.827.478.542.306,1.058.587,1.546.823.242.122.477.235.7.336s.44.2.645.278c.407.171.769.3,1.07.4a4.692,4.692,0,0,0,.966.231,2.488,2.488,0,0,1-.25-.067c-.161-.048-.393-.134-.684-.253s-.639-.274-1.028-.474c-.2-.1-.4-.2-.616-.323s-.444-.237-.676-.371-.478-.272-.726-.422-.509-.3-.769-.463c-.525-.323-1.07-.676-1.635-1.042l-.85-.573c-.29-.189-.578-.389-.866-.591-.582-.4-1.165-.82-1.752-1.236l-1.759-1.241c-.6-.388-1.174-.783-1.757-1.131s-1.15-.676-1.694-.977c-.276-.143-.545-.282-.805-.415l-.769-.357c-.249-.108-.491-.206-.721-.3l-.663-.235a9.376,9.376,0,0,0-1.108-.286,3.935,3.935,0,0,0-.73-.072,1.4,1.4,0,0,0-.259.024,1.454,1.454,0,0,1,.258,0,4.408,4.408,0,0,1,.715.132,9.043,9.043,0,0,1,1.07.355l.638.274.694.335.741.389.78.444c.528.315,1.084.651,1.644,1.023S233.92,203.679,234.5,204.076Z" transform="translate(-166.086 -167.154)" fill="#7e5ee3"/>
        <path id="Trazado_193159" data-name="Trazado 193159" d="M224.137,209.347c.575.412,1.159.832,1.743,1.25s1.171.838,1.762,1.236,1.177.78,1.747,1.143l.851.521c.278.171.56.323.828.478.542.306,1.058.587,1.546.823.242.122.477.235.7.336s.439.2.645.278c.406.171.769.3,1.07.4a4.629,4.629,0,0,0,.965.23,2.181,2.181,0,0,1-.249-.066c-.161-.049-.394-.134-.684-.253s-.639-.274-1.028-.474c-.2-.1-.4-.2-.616-.323s-.444-.237-.678-.371-.477-.272-.724-.422-.509-.3-.769-.463c-.525-.324-1.071-.676-1.635-1.042l-.85-.573c-.29-.189-.578-.389-.866-.591-.582-.4-1.165-.82-1.753-1.236s-1.178-.832-1.758-1.241c-.6-.388-1.174-.783-1.757-1.131s-1.15-.676-1.694-.977l-.805-.415-.769-.357c-.249-.108-.492-.206-.721-.3l-.663-.235a9.5,9.5,0,0,0-1.108-.286,3.946,3.946,0,0,0-.732-.072,1.394,1.394,0,0,0-.258.024,1.452,1.452,0,0,1,.258,0,4.377,4.377,0,0,1,.714.132,9.05,9.05,0,0,1,1.071.355l.638.274.694.335.741.389.779.444c.53.315,1.084.651,1.645,1.023C222.987,208.544,223.553,208.95,224.137,209.347Z" transform="translate(-168.195 -166.082)" fill="#7e5ee3"/>
        <path id="Trazado_193160" data-name="Trazado 193160" d="M209.328,216.876l1.743,1.25c.58.425,1.171.838,1.762,1.236s1.177.78,1.747,1.144l.851.521c.278.17.56.321.828.478.54.306,1.058.586,1.546.822.242.123.477.235.7.336s.44.2.645.278c.407.171.77.3,1.071.4a4.7,4.7,0,0,0,.965.231,2.181,2.181,0,0,1-.249-.066c-.161-.049-.393-.135-.684-.253s-.639-.276-1.028-.475c-.2-.1-.4-.2-.617-.323s-.443-.236-.676-.371-.477-.272-.724-.421-.509-.3-.769-.465c-.525-.323-1.071-.676-1.635-1.042l-.85-.572c-.29-.19-.578-.39-.868-.591-.582-.4-1.164-.821-1.752-1.237l-1.758-1.241c-.6-.387-1.175-.782-1.758-1.131s-1.149-.676-1.693-.977l-.806-.415-.768-.357c-.25-.108-.492-.2-.721-.3l-.664-.235a8.972,8.972,0,0,0-1.107-.286,3.862,3.862,0,0,0-.732-.073,1.571,1.571,0,0,0-.259.024,1.468,1.468,0,0,1,.259,0,4.374,4.374,0,0,1,.714.132,9.273,9.273,0,0,1,1.071.355l.638.276.694.333.741.39.779.443c.53.317,1.084.651,1.645,1.023S208.744,216.479,209.328,216.876Z" transform="translate(-171.207 -164.551)" fill="#7e5ee3"/>
        <path id="Trazado_193161" data-name="Trazado 193161" d="M204.438,225.426l-.85-.573c-.29-.189-.578-.389-.868-.591-.582-.4-1.165-.82-1.752-1.236l-1.759-1.241c-.6-.387-1.174-.782-1.757-1.131s-1.149-.676-1.693-.977l-.806-.415-.769-.357c-.249-.108-.491-.2-.721-.3l-.663-.236a9.158,9.158,0,0,0-1.107-.285,3.864,3.864,0,0,0-.732-.073,1.571,1.571,0,0,0-.259.024,1.453,1.453,0,0,1,.258,0,4.385,4.385,0,0,1,.715.132,9.053,9.053,0,0,1,1.071.355l.638.274.693.335.742.39.779.443c.528.315,1.084.651,1.645,1.023s1.135.762,1.717,1.159l1.744,1.25c.58.425,1.171.838,1.762,1.236s1.176.78,1.747,1.144l.851.52c.278.171.56.323.828.479.54.3,1.057.586,1.546.822q.363.184.7.336c.225.1.44.2.645.278.407.171.77.3,1.07.4a4.711,4.711,0,0,0,.966.231,2.23,2.23,0,0,1-.25-.066c-.161-.049-.392-.135-.684-.254s-.638-.274-1.026-.474c-.2-.1-.4-.2-.617-.322s-.443-.236-.676-.371-.477-.272-.726-.421-.508-.3-.769-.465C205.547,226.146,205,225.792,204.438,225.426Z" transform="translate(-173.315 -163.479)" fill="#7e5ee3"/>
        <path id="Trazado_193162" data-name="Trazado 193162" d="M234.958,242.767l-.649,1.117L233.661,245c-.9,1.555.221,4.526,3.981,10.709-7.234-.2-10.371.3-11.273,1.857l-.643,1.107-.643,1.107c-.653,1.125-.247,2.989,1.449,6.272-3.692.155-5.512.728-6.164,1.852l-1.267,2.187a8.051,8.051,0,0,1,3.422-1.422l8.414,4.883.035.059a20.532,20.532,0,0,1,1.437,2.893l1.342-2.309a59.515,59.515,0,0,0-3.206-5.814c7.244.2,10.385-.3,11.289-1.857.189-.326.409-.705.638-1.1l.64-1.1c.653-1.125.245-2.993-1.456-6.283,3.7-.155,5.525-.727,6.178-1.853.189-.326.409-.705.638-1.1l.64-1.1c.9-1.558-.225-4.537-4-10.743,7.261.2,10.408-.3,11.312-1.856.191-.329.412-.71.643-1.107l.643-1.107c.652-1.125.247-2.989-1.45-6.272,3.693-.156,5.513-.728,6.165-1.853.191-.327.412-.709.643-1.107l.643-1.106c.9-1.56-.225-4.538-4-10.747a46.509,46.509,0,0,0,8-.261l1.268-2.381a16.676,16.676,0,0,1-2.36.353l-11.01-6.39a6.179,6.179,0,0,1-.076-2.081c-.439.758-.91,1.566-1.27,2.185-.651,1.122-.248,2.98,1.438,6.248-3.674.158-5.487.73-6.138,1.852-.193.331-.416.717-.649,1.119l-.651,1.119c-.9,1.557.223,4.531,3.988,10.722-7.243-.2-10.384.3-11.287,1.856l-.649,1.118-.649,1.117c-.651,1.123-.248,2.982,1.439,6.253C237.424,241.073,235.609,241.644,234.958,242.767Zm9.871,4.537c.249.4.492.8.721,1.188.251.425.474.832.675,1.223l-10.173-5.9a14.088,14.088,0,0,1,1.98-.452Zm-5.83-4.07a21.543,21.543,0,0,1,2.495-.1h.1l1.1.637q.477.814,1.025,1.715c.153.252.307.5.458.747Zm7.685,7.433a16.3,16.3,0,0,1,.762,2.042l-12.3-7.14a10.3,10.3,0,0,1-.224-1.333c.123-.055.255-.111.4-.167Zm-8.657,1.152c-.278-.451-.55-.894-.805-1.325-.224-.379-.425-.744-.609-1.1l9.979,5.791a14.184,14.184,0,0,1-2.01.434Zm5.572,3.919a21.727,21.727,0,0,1-2.3.082c-.108,0-.22,0-.331-.007l-.8-.466q-.509-.874-1.1-1.848c-.125-.206-.25-.408-.375-.61Zm-7.455-7.3a16.322,16.322,0,0,1-.783-2.057l12.294,7.136a10.184,10.184,0,0,1,.2,1.208c-.155.07-.325.141-.513.211Zm-1.019,1.53a6.251,6.251,0,0,1,.091-1.382l.469.272c.283.606.621,1.252,1.026,1.937.078.132.158.265.237.4l-.445-.258a.3.3,0,1,0-.3.513l1.394.809c.075.122.149.243.226.366.24.389.485.785.729,1.185q.291.478.561.93l-.625-.362a.3.3,0,0,0-.3.513l1.532.889q-.675-.023-1.374-.046l-.132-.215C236.844,253.262,235.823,251.438,235.124,249.968Zm5.5,10.908a16.178,16.178,0,0,1,.786,2.057l-8.613-5h.107c.886.013,1.828.051,2.8.083Zm-3.679-2.822q1.148.027,2.156.031c.154.252.3.5.449.746.223.374.421.735.6,1.085Zm4.685,5.692a10.468,10.468,0,0,1,.224,1.32c-.128.057-.265.114-.414.172l-12.154-7.054a18.5,18.5,0,0,1,2.357-.233Zm-.93,1.749a13.924,13.924,0,0,1-1.987.448l-12.1-7.024a11.584,11.584,0,0,1,1.8-.56Zm-2.958.57a21.618,21.618,0,0,1-2.444.094c-.052,0-.106,0-.159,0l-8.3-4.82a11.942,11.942,0,0,1-.438-1.854Zm-9.6-1.682a19.224,19.224,0,0,1-1-2.184l6.762,3.924c-.69-.023-1.4-.049-2.123-.07l-.789-.019Zm1.628,1.631c-.232,0-.46,0-.684,0-.124-.2-.244-.4-.363-.6Zm-2.57-2.178-.623-.361a5.135,5.135,0,0,1,.168-.658C226.879,263.142,227.029,263.481,227.2,263.835Zm-.72.771c0-.153,0-.318.017-.493l1.2.7c.136.25.278.5.433.765.084.143.171.288.259.433-.419,0-.82.01-1.2.02C226.923,265.521,226.686,265.048,226.479,264.606Zm-3.064,3.9a19.12,19.12,0,0,1,2.382-.219l2.975,1.726q.177.294.362.6c.393.647.786,1.276,1.162,1.888Zm3.55-.226q.392.005.8.017c.125.219.254.44.388.669Zm3.826,1.669c.994,1.682,1.75,3.075,2.291,4.22l-.6,1.028c-.164-.347-.343-.7-.533-1.049l.326.189a.3.3,0,1,0,.3-.513l-1.208-.7c-.317-.529-.649-1.069-1-1.635-.173-.278-.348-.564-.523-.85l.4.232a.3.3,0,1,0,.3-.514l-.832-.483Zm10.7-3.617c-.809,1.394-3.907,1.858-11.054,1.657-.471-.013-.935-.03-1.392-.046-.745-.025-1.45-.051-2.135-.06A15.9,15.9,0,0,0,220.19,269l.52-.9c.809-1.394,3.909-1.857,11.054-1.656q.706.02,1.392.046c.746.025,1.45.049,2.135.06a15.865,15.865,0,0,0,6.72-1.124Zm.876-1.9c-.014-.089-.03-.182-.048-.277l.022.012a.3.3,0,0,0,.158.04Zm-.477-4.54c.824,1.841,1.081,3.065.838,3.842a.3.3,0,0,0-.089-.079l-.495-.288a15.667,15.667,0,0,0-.659-1.983l.13.076a.3.3,0,0,0,.3-.514l-.83-.481c-.1-.213-.206-.43-.32-.652Zm5.6-3.894c-.809,1.394-3.907,1.858-11.054,1.656-.471-.013-.935-.029-1.392-.045-.745-.026-1.45-.051-2.135-.061a15.911,15.911,0,0,0-6.72,1.124l.52-.9c.809-1.394,3.909-1.858,11.054-1.656.471.013.935.029,1.392.045.746.026,1.45.051,2.135.061a15.9,15.9,0,0,0,6.72-1.124Zm.876-1.9c-.01-.063-.022-.128-.034-.193a.294.294,0,0,0,.152-.011Zm-2.988-9.241c2.851,4.827,3.83,7.418,3.3,8.681a.3.3,0,0,0-.138-.18l-.367-.213a15,15,0,0,0-.637-1.97l.183.106a.3.3,0,1,0,.3-.514l-.872-.507a22.507,22.507,0,0,0-1.082-2.058l-.158-.262.212.123a.3.3,0,0,0,.3-.514l-1.156-.67-.31-.5c-.241-.389-.485-.783-.729-1.184-.09-.148-.177-.292-.264-.436Zm11.072-10.19c.969,2.143,1.183,3.463.742,4.221l-.231.4c-.051-.323-.124-.681-.224-1.07l.088.052a.3.3,0,0,0,.3-.514l-.623-.362a17.691,17.691,0,0,0-.826-2.079l.229.132a.3.3,0,0,0,.3-.514l-.554-.32ZM244.86,232.91a21.072,21.072,0,0,1,2.561-.116l8.585,4.982a11.819,11.819,0,0,1,.41,1.839Zm11.19,7.179a11.956,11.956,0,0,1-1.824.543l-12.281-7.126a13.568,13.568,0,0,1,1.957-.466Zm-1.3-5.331a18.708,18.708,0,0,1,.971,2.165l-7.065-4.1c.764.024,1.555.054,2.363.077.188.006.371.01.554.014Zm-1.956-1.821c.313,0,.619.006.913.007q.227.372.443.735l.039.066Zm7.139-13.324c3.014,5.094,3.964,7.717,3.265,8.922l-.231.4c-.046-.292-.111-.613-.2-.958l.16.093a.3.3,0,0,0,.3-.513l-.686-.4a17.48,17.48,0,0,0-.8-2.067l.147.087a.3.3,0,0,0,.3-.514l-.918-.533c-.184-.353-.385-.715-.608-1.091-.258-.434-.527-.875-.807-1.331l.475.276a.3.3,0,1,0,.3-.513l-1.431-.832c-.126-.2-.251-.4-.378-.613-.106-.173-.209-.345-.312-.514Zm-5.791,9.531c-.156-.26-.315-.525-.481-.8-.35-.575-.7-1.137-1.039-1.686l6.579,3.817a19.384,19.384,0,0,1-2.42.2Zm1.452,1.53c-.187,0-.372-.007-.562-.013-.088-.154-.179-.312-.272-.472Zm-3.619-5.073c-.051-.085-.1-.173-.154-.258a21.689,21.689,0,0,1-1.082-2.061l11.214,6.508a12.376,12.376,0,0,1-1.848.53Zm-1.621-3.229a14.278,14.278,0,0,1-.615-1.958l12.3,7.14a11.468,11.468,0,0,1,.387,1.827Zm8.411-1.295c.483.782.956,1.539,1.385,2.264.042.072.081.141.122.212l-8.818-5.118a16.1,16.1,0,0,1,2.146-.356ZM254.646,218c.455-.022.936-.031,1.446-.023.272,0,.548.011.829.018q.541.946,1.191,2.017Zm10.886-2.146c-.336.01-.681.014-1.045.008-.574-.008-1.171-.028-1.783-.049l-6.3-3.657a14.667,14.667,0,0,1-.639-1.971Zm-4.083-.082-.484-.016c-.847-.024-1.635-.039-2.374-.042l-.528-.307c-.082-.135-.165-.272-.243-.406a21.773,21.773,0,0,1-1.02-1.929Zm-6.678-5.964.087-.149.211.123a13.87,13.87,0,0,0,.525,1.9l-.124-.072a.3.3,0,0,0-.3.514l.758.44a20.964,20.964,0,0,0,1.09,2.233l-.4-.233a.3.3,0,0,0-.3.514l1.091.633q-.552.005-1.059.019C254.685,212.56,254.224,210.751,254.771,209.81Zm-4.873,8c.809-1.394,3.909-1.858,11.056-1.656.469.012.934.029,1.391.045.746.026,1.45.051,2.136.061a20.5,20.5,0,0,0,3.75-.265l-.783,1.469a48.424,48.424,0,0,1-7.822.224c-.469-.012-.935-.029-1.391-.045-.746-.026-1.451-.051-2.136-.061a15.913,15.913,0,0,0-6.72,1.124Zm-.385,1.272a10.4,10.4,0,0,1,1.136-.426l10.17,5.9a18.3,18.3,0,0,1,.942,2.149l-12.177-7.068C249.553,219.438,249.53,219.254,249.513,219.082Zm.144,5.6a5.692,5.692,0,0,1,.262-1.8A20.181,20.181,0,0,0,250.942,225l-.295-.171a.3.3,0,1,0-.3.514l1.193.692c.28.466.573.94.88,1.436.213.345.431.7.647,1.052l-.527-.306a.3.3,0,1,0-.3.514l1.463.85q.327.547.623,1.058c-.451-.016-.911-.031-1.377-.046-.047-.077-.094-.15-.141-.227A62.5,62.5,0,0,1,249.658,224.683Zm-8.358,7.944c.809-1.394,3.909-1.858,11.054-1.656q.706.02,1.392.045c.746.026,1.45.051,2.135.061a15.866,15.866,0,0,0,6.72-1.124l-.52.9c-.809,1.394-3.907,1.858-11.054,1.657-.471-.013-.935-.03-1.392-.046-.746-.026-1.45-.051-2.135-.06a15.889,15.889,0,0,0-6.72,1.123Zm-.383,1.272c.094-.043.194-.085.3-.129l12.111,7.029a19.1,19.1,0,0,1-2.39.214l-9.77-5.67A10.347,10.347,0,0,1,240.917,233.9Zm1.768,5.3,2.927,1.7c-.693-.016-1.345-.024-1.96-.025q-.22-.361-.43-.714Q242.929,239.661,242.685,239.2Zm.273,1.676h-.144l-.463-.268a.3.3,0,0,0-.444.285l-.148,0q-.354-.673-.635-1.266a6.319,6.319,0,0,1,.076-1.292l.546.318c.271.568.59,1.17.966,1.806C242.792,240.6,242.875,240.732,242.958,240.872Zm-.753-2.64a16.694,16.694,0,0,1-.81-2.071l8.368,4.856c-.923-.016-1.9-.055-2.911-.088Zm4.149,3.077c.471.013.935.03,1.392.046.746.025,1.45.051,2.135.06a15.889,15.889,0,0,0,6.72-1.123l-.52.9c-.809,1.394-3.907,1.857-11.054,1.656-.471-.013-.935-.029-1.392-.045-.746-.026-1.45-.052-2.135-.061a15.865,15.865,0,0,0-6.72,1.124l.52-.9C236.109,241.572,239.208,241.108,246.354,241.309Z" transform="translate(-167.539 -165.653)" fill="#7e5ee3"/>
        <path id="Trazado_193163" data-name="Trazado 193163" d="M251.838,215.594c.534.013,1.076.029,1.619.059l1.623.082c.538.02,1.066.037,1.579.044s1.007,0,1.478-.006.913-.03,1.323-.055.785-.054,1.116-.093.62-.072.857-.1.421-.064.548-.087l.194-.036-.75.032c-.238.01-.527.018-.859.02s-.705.01-1.112.006c-.816,0-1.767-.017-2.785-.055s-2.1-.093-3.195-.131c-.545-.029-1.093-.029-1.632-.031-.268,0-.537,0-.8.008s-.525.01-.781.026l-.755.046c-.247.019-.487.045-.722.067s-.461.058-.681.087-.431.064-.633.1-.395.076-.578.123-.355.084-.515.135-.309.093-.445.143-.26.1-.371.146a3.031,3.031,0,0,0-.489.265.957.957,0,0,0-.154.123,1.039,1.039,0,0,1,.162-.108,3.257,3.257,0,0,1,.505-.218c.111-.04.235-.083.373-.119s.286-.078.449-.111.333-.07.516-.1.374-.06.576-.083.41-.054.629-.071.443-.045.676-.053.471-.03.716-.04l.749-.019c.254-.008.513,0,.774,0S251.571,215.585,251.838,215.594Z" transform="translate(-162.289 -164.043)" fill="#7e5ee3"/>
        <path id="Trazado_193164" data-name="Trazado 193164" d="M245.586,228.064l1.836.088c.616.035,1.233.057,1.845.069s1.209.012,1.789.008l.856-.022c.279-.007.552-.029.818-.042.532-.031,1.034-.071,1.5-.129.231-.024.452-.053.662-.084s.409-.065.594-.1c.372-.066.693-.143.956-.212a4.064,4.064,0,0,0,.8-.284,2,2,0,0,1-.211.069c-.14.04-.345.087-.61.136s-.587.1-.96.137c-.187.023-.385.041-.594.055s-.43.036-.659.048-.469.028-.718.035-.505.023-.769.024c-.528.012-1.087.012-1.663.012l-.879-.016c-.3,0-.6-.011-.9-.022-.6-.014-1.22-.047-1.838-.073l-1.844-.072c-.61,0-1.211-.017-1.792,0s-1.143.049-1.674.087l-.774.076-.72.1c-.23.038-.449.082-.657.122l-.587.141a7.843,7.843,0,0,0-.93.309,3.36,3.36,0,0,0-.561.289,1.292,1.292,0,0,0-.174.138,1.257,1.257,0,0,1,.185-.122,3.653,3.653,0,0,1,.575-.237,7.713,7.713,0,0,1,.936-.244l.587-.1.655-.083.715-.065.768-.045c.527-.019,1.083-.036,1.659-.03S244.981,228.049,245.586,228.064Z" transform="translate(-163.751 -161.579)" fill="#7e5ee3"/>
        <path id="Trazado_193165" data-name="Trazado 193165" d="M233.484,237.22a7.743,7.743,0,0,1,.936-.243l.587-.1.655-.083.715-.065.768-.043c.527-.019,1.083-.037,1.659-.03.576-.01,1.172.018,1.777.032l1.836.088c.616.035,1.233.058,1.844.069s1.211.013,1.791.008l.856-.022c.279-.007.552-.028.818-.041.532-.032,1.034-.071,1.5-.129.231-.025.452-.053.662-.085s.408-.064.594-.1c.372-.066.693-.143.955-.212a4.065,4.065,0,0,0,.8-.284,2.01,2.01,0,0,1-.211.069c-.14.04-.347.087-.61.137s-.587.1-.96.137c-.187.022-.385.04-.594.055s-.43.036-.659.048-.471.026-.718.034-.505.023-.769.025c-.528.012-1.087.012-1.663.012l-.878-.017c-.3,0-.6-.011-.9-.022-.6-.013-1.22-.047-1.838-.072l-1.844-.073c-.61,0-1.211-.017-1.792,0s-1.143.048-1.674.085l-.774.077-.72.1c-.23.039-.449.081-.658.122l-.586.14a7.97,7.97,0,0,0-.93.31,3.271,3.271,0,0,0-.561.289,1.244,1.244,0,0,0-.174.137,1.229,1.229,0,0,1,.184-.12A3.708,3.708,0,0,1,233.484,237.22Z" transform="translate(-164.769 -159.825)" fill="#7e5ee3"/>
        <path id="Trazado_193166" data-name="Trazado 193166" d="M238.023,248.8c-.3,0-.6-.011-.9-.022-.6-.014-1.22-.047-1.838-.073l-1.844-.073c-.61,0-1.209-.016-1.792,0s-1.142.049-1.674.087l-.774.076-.72.1c-.23.039-.449.082-.657.122l-.587.141a7.837,7.837,0,0,0-.93.309,3.318,3.318,0,0,0-.561.289,1.369,1.369,0,0,0-.174.137,1.336,1.336,0,0,1,.185-.12,3.7,3.7,0,0,1,.575-.237,7.779,7.779,0,0,1,.936-.244l.587-.1.655-.083.715-.066.768-.043c.528-.019,1.084-.036,1.661-.03s1.171.019,1.776.032l1.836.089c.616.035,1.233.057,1.845.067s1.209.013,1.791.01l.854-.022c.28-.007.554-.029.818-.042.532-.032,1.035-.071,1.5-.129q.347-.036.662-.085c.209-.029.408-.064.593-.1.372-.066.693-.143.956-.213a3.984,3.984,0,0,0,.8-.283,1.872,1.872,0,0,1-.211.069c-.138.04-.345.085-.61.136s-.587.1-.96.137c-.185.023-.384.04-.594.055s-.428.036-.659.048-.469.026-.718.035-.5.023-.769.024c-.528.012-1.085.012-1.663.012Z" transform="translate(-166.223 -157.319)" fill="#7e5ee3"/>
        <path id="Trazado_193167" data-name="Trazado 193167" d="M233.017,257.424c-.3,0-.6-.011-.9-.022-.6-.014-1.22-.047-1.838-.073l-1.844-.072c-.61,0-1.211-.017-1.792,0s-1.142.048-1.674.085l-.774.077-.72.1c-.23.039-.449.081-.657.122s-.4.1-.587.14a8.058,8.058,0,0,0-.93.31,3.331,3.331,0,0,0-.561.288,1.292,1.292,0,0,0-.174.138,1.207,1.207,0,0,1,.185-.12,3.677,3.677,0,0,1,.575-.238,8.023,8.023,0,0,1,.936-.244l.587-.1.655-.083.715-.065.768-.043c.527-.021,1.084-.037,1.661-.031s1.171.02,1.776.034l1.836.088c.616.035,1.233.058,1.845.069s1.209.013,1.791.008l.854-.022c.279-.007.552-.029.818-.041.532-.032,1.035-.071,1.5-.129.232-.025.452-.053.663-.085s.408-.064.593-.1c.372-.066.693-.143.955-.212a4.024,4.024,0,0,0,.8-.284,1.889,1.889,0,0,1-.211.069c-.14.04-.345.087-.61.136s-.587.1-.96.138c-.185.022-.384.04-.594.054s-.428.037-.659.048-.469.028-.718.035-.5.023-.769.024c-.528.012-1.085.012-1.663.012Z" transform="translate(-167.241 -155.565)" fill="#7e5ee3"/>
        <path id="Trazado_193168" data-name="Trazado 193168" d="M277.36,195.546l.816,1.509c.294.525.58,1.089.865,1.687s.6,1.207.9,1.858c.282.662.576,1.345.891,2.042s.572,1.456.871,2.212a62.293,62.293,0,0,1,2.9,10.395q.235,1.44.479,2.941c.1,1.008.264,2.017.318,3.058a57.969,57.969,0,0,1,.183,6.392c.007.545-.059,1.1-.081,1.645s-.032,1.1-.1,1.659c-.108,1.11-.2,2.229-.385,3.35-.138,1.125-.389,2.244-.576,3.378-.108.566-.253,1.126-.377,1.692s-.259,1.131-.427,1.691a58.81,58.81,0,0,1-2.259,6.7q-.348.821-.7,1.647l-.782,1.619c-.253.544-.53,1.078-.815,1.609s-.538,1.078-.86,1.591a59.292,59.292,0,0,1-4.031,6.06c-.755.959-1.5,1.928-2.325,2.833-.4.462-.8.928-1.236,1.359l-.639.661-.319.331-.159.166-.081.082-.04.042c.019-.018-.007.008-.023.024l-1.4,1.343c-.242.226-.522.517-.73.69l-.647.558c-.446.373-.823.751-1.32,1.128l-1.438,1.132a60.4,60.4,0,0,1-6.064,4.027c-.511.322-1.063.57-1.59.86s-1.061.568-1.61.809l-1.619.782-1.646.7a58.079,58.079,0,0,1-6.7,2.255c-.56.168-1.124.307-1.691.427s-1.126.268-1.691.378c-1.132.189-2.254.43-3.378.573-1.12.188-2.24.278-3.349.387-.555.065-1.107.063-1.657.1-.55.016-1.1.085-1.645.078-1.089.016-2.172.052-3.236-.006-.532-.024-1.065-.018-1.588-.064s-1.046-.081-1.566-.113c-1.041-.053-2.049-.217-3.058-.315l-2.939-.479a62.252,62.252,0,0,1-10.394-2.9c-.757-.3-1.51-.563-2.213-.869s-1.379-.61-2.042-.891c-.651-.3-1.262-.613-1.858-.9s-1.163-.573-1.688-.865l-1.51-.814-1.312-.767-.72-.424a57.35,57.35,0,0,0,11.754,7.959,56.041,56.041,0,0,0,75.3-75.3,57.355,57.355,0,0,0-7.951-11.743c.136.229.276.466.421.716Q276.954,194.85,277.36,195.546Z" transform="translate(-172.019 -168.459)" fill="#7e5ee3"/>
        <path id="Trazado_193169" data-name="Trazado 193169" d="M259.961,294.209a54.7,54.7,0,0,0,8.4-3.49,58.43,58.43,0,0,0,7.9-4.845l1.856-1.418c.615-.457,1.252-1.037,1.874-1.555l.936-.8c.325-.276.528-.486.8-.733l1.521-1.431.176-.176.051-.053.1-.106.2-.213.4-.426.8-.853c.543-.56,1.045-1.156,1.546-1.753,1.03-1.17,1.969-2.415,2.907-3.655.9-1.267,1.806-2.53,2.579-3.871.393-.667.8-1.321,1.176-2l1.084-2.036a55.377,55.377,0,0,0,3.485-8.4c.593-1.858,1.112-3.721,1.526-5.586a59.216,59.216,0,1,0-39.317,43.4Zm-63.968-20.257a56.634,56.634,0,0,1-9.324-14.561,57.243,57.243,0,0,1-3.94-12.693,58.8,58.8,0,0,1-.881-8.486c0-1.966,0-3.016,0-3.016v0a56.91,56.91,0,0,1,56.91-56.91l3.013,0a58.89,58.89,0,0,1,8.489.883,57.235,57.235,0,0,1,12.692,3.94,56.661,56.661,0,0,1,14.56,9.324,57.625,57.625,0,0,1,12.7,16.112,56.946,56.946,0,0,1,6.483,22.015,58.064,58.064,0,0,1-3.122,24.387,57.895,57.895,0,0,1-35.06,35.061,58.026,58.026,0,0,1-24.372,3.125,56.94,56.94,0,0,1-22.032-6.484A57.61,57.61,0,0,1,195.993,273.952Z" transform="translate(-176.254 -172.696)" fill="#7e5ee3"/>
        <path id="Trazado_193170" data-name="Trazado 193170" d="M182.819,236.059l.055,1.022.107-1.017c.079-.659.129-1.644.32-2.865.085-.61.181-1.285.284-2.021.134-.73.279-1.521.434-2.365.341-1.68.8-3.556,1.372-5.573.29-1.007.656-2.039,1-3.11.422-1.048.767-2.161,1.258-3.255l.716-1.67c.253-.558.538-1.111.809-1.675.531-1.137,1.171-2.247,1.774-3.4a69.586,69.586,0,0,1,4.418-6.675,61.321,61.321,0,0,1,11.644-11.643,70.739,70.739,0,0,1,6.678-4.415c1.149-.605,2.261-1.242,3.4-1.773.566-.272,1.117-.557,1.676-.809l1.669-.717c1.094-.49,2.207-.836,3.255-1.258,1.071-.349,2.1-.715,3.11-1,2.017-.576,3.892-1.031,5.572-1.373l2.365-.434,2.025-.285c1.225-.193,2.2-.241,2.859-.321l1.018-.107-1.02-.057-1.229-.059c-.485-.035-1.042-.04-1.665-.022l-2.072.029-2.437.177c-.871.063-1.789.212-2.765.325s-1.982.354-3.047.539c-1.058.213-2.146.5-3.282.773l-1.7.515c-.578.173-1.162.354-1.742.575a54.368,54.368,0,0,0-7.184,3.081,59.114,59.114,0,0,0-7.12,4.413,54.972,54.972,0,0,0-12.207,12.208,59.936,59.936,0,0,0-4.412,7.123,54.662,54.662,0,0,0-3.079,7.183c-.221.58-.4,1.165-.575,1.742s-.345,1.144-.515,1.7c-.271,1.136-.56,2.224-.773,3.282-.185,1.064-.427,2.069-.539,3.046s-.262,1.894-.326,2.767-.122,1.684-.177,2.437c-.011.756-.022,1.449-.03,2.076s-.013,1.18.022,1.663S182.8,235.727,182.819,236.059Z" transform="translate(-174.937 -171.379)" fill="#7e5ee3"/>
      </g>
    </g>
  </g>
</svg>
