<svg xmlns="http://www.w3.org/2000/svg" xmlns:xlink="http://www.w3.org/1999/xlink" width="499" height="328" viewBox="0 0 499 328">
  <defs>
    <clipPath id="clip-path">
      <rect id="Rectángulo_32275" data-name="Rectángulo 32275" width="328" height="499" transform="translate(23)" fill="#fff" stroke="#707070" stroke-width="1" opacity="0.325"/>
    </clipPath>
  </defs>
  <g id="Grupo_163041" data-name="Grupo 163041" transform="translate(-180.287 -7206)">
    <g id="Grupo_59889" data-name="Grupo 59889" transform="translate(679.287 7183) rotate(90)">
      <g id="Grupo_67" data-name="Grupo 67" transform="translate(0)" clip-path="url(#clip-path)">
        <path id="Trazado_108698" data-name="Trazado 108698" d="M0,1035.8A383.464,383.464,0,0,1,76.727,906.87c103.217-114.323,268.576-156.3,422.1-143.865,79.169,6.413,158.251,25.595,237.16,16.516s161.224-56.234,178.958-133.659c8.97-39.164.357-80.719,9.109-119.932s48.294-77.8,85.274-62.088c30.061,12.778,42.259,55.037,74.324,61.266,28.681,5.57,54.073-23.939,56.959-53.012s-9.266-57.2-18.245-85.008c-23.428-72.52-25.737-153.04,1.263-224.306S1208.578,30.9,1281.264,8c24.453-7.7,50.99-11.134,75.73-4.409,46.653,12.678,77.465,59.286,87.135,106.656s2.5,96.3-2.249,144.415a1418.176,1418.176,0,0,0,17.042,397.852c13.1,70.423,31.44,143.889,10.263,212.317-28.136,90.925-118.512,147.706-207.721,180.89-188.856,70.25-396.411,70.117-597.114,52.2S263.707,1045.2,0,1035.8Z" transform="translate(-1075.306 46.757)" fill="#81d4fa" opacity="0.418"/>
      </g>
    </g>
    <g id="Grupo_160671" data-name="Grupo 160671" transform="translate(259.327 7227.321)">
      <g id="Grupo_160417" data-name="Grupo 160417" transform="translate(177.456 39.331)">
        <g id="Grupo_160416" data-name="Grupo 160416" transform="translate(0 0)">
          <g id="Grupo_160415" data-name="Grupo 160415">
            <g id="Grupo_160412" data-name="Grupo 160412">
              <path id="Trazado_197256" data-name="Trazado 197256" d="M284.978,49.2a21.875,21.875,0,0,1,5.34-2.321l1.1-5.286,8.931-.157,1.285,5.244a21.869,21.869,0,0,1,5.419,2.131l4.514-2.958,6.425,6.2-2.8,4.614a21.891,21.891,0,0,1,2.321,5.341l5.285,1.1.157,8.93-5.244,1.285a21.855,21.855,0,0,1-2.132,5.418l2.958,4.514-6.2,6.426-4.614-2.8a21.861,21.861,0,0,1-5.341,2.32l-1.1,5.286-8.93.157-1.285-5.244a21.913,21.913,0,0,1-5.419-2.132l-4.514,2.958-6.425-6.2,2.8-4.614a21.89,21.89,0,0,1-2.321-5.341l-5.285-1.1-.157-8.93,5.244-1.285a21.911,21.911,0,0,1,2.132-5.419l-2.958-4.514,6.2-6.426,4.616,2.8Zm4.76,11.9a9.582,9.582,0,1,0,13.548-.238A9.581,9.581,0,0,0,289.739,61.1Z" transform="translate(-269.742 -41.436)" fill="#e0e0e0"/>
            </g>
            <g id="Grupo_160414" data-name="Grupo 160414">
              <g id="Grupo_160413" data-name="Grupo 160413">
                <path id="Trazado_197257" data-name="Trazado 197257" d="M284.978,49.2a21.875,21.875,0,0,1,5.34-2.321l1.1-5.286,8.931-.157,1.285,5.244a21.869,21.869,0,0,1,5.419,2.131l4.514-2.958,6.425,6.2-2.8,4.614a21.891,21.891,0,0,1,2.321,5.341l5.285,1.1.157,8.93-5.244,1.285a21.855,21.855,0,0,1-2.132,5.418l2.958,4.514-6.2,6.426-4.614-2.8a21.861,21.861,0,0,1-5.341,2.32l-1.1,5.286-8.93.157-1.285-5.244a21.913,21.913,0,0,1-5.419-2.132l-4.514,2.958-6.425-6.2,2.8-4.614a21.89,21.89,0,0,1-2.321-5.341l-5.285-1.1-.157-8.93,5.244-1.285a21.911,21.911,0,0,1,2.132-5.419l-2.958-4.514,6.2-6.426,4.616,2.8Zm4.76,11.9a9.582,9.582,0,1,0,13.548-.238A9.581,9.581,0,0,0,289.739,61.1Z" transform="translate(-269.742 -41.436)" fill="none"/>
              </g>
            </g>
          </g>
        </g>
      </g>
      <g id="Grupo_160423" data-name="Grupo 160423" transform="translate(47.641 49.336)">
        <g id="Grupo_160422" data-name="Grupo 160422" transform="translate(0 0)">
          <g id="Grupo_160421" data-name="Grupo 160421">
            <g id="Grupo_160418" data-name="Grupo 160418">
              <path id="Trazado_197258" data-name="Trazado 197258" d="M75.568,64.949a20.937,20.937,0,0,1,5.107-2.22l1.052-5.055,8.54-.149L91.5,62.539a20.918,20.918,0,0,1,5.182,2.039L101,61.748l6.145,5.933-2.675,4.412a20.921,20.921,0,0,1,2.22,5.108l5.054,1.052.15,8.54-5.014,1.229a20.913,20.913,0,0,1-2.039,5.182l2.829,4.317-5.933,6.145-4.412-2.676a20.917,20.917,0,0,1-5.108,2.22l-1.052,5.055-8.54.15L81.39,103.4a20.923,20.923,0,0,1-5.182-2.039l-4.317,2.83-6.145-5.933,2.675-4.412a20.907,20.907,0,0,1-2.22-5.108l-5.055-1.052L61,79.146l5.015-1.23a20.933,20.933,0,0,1,2.039-5.182l-2.829-4.316,5.932-6.145,4.414,2.676Zm4.553,11.377A9.163,9.163,0,1,0,93.077,76.1,9.163,9.163,0,0,0,80.121,76.326Z" transform="translate(-60.998 -57.525)" fill="#f5f5f5"/>
            </g>
            <g id="Grupo_160420" data-name="Grupo 160420">
              <g id="Grupo_160419" data-name="Grupo 160419">
                <path id="Trazado_197259" data-name="Trazado 197259" d="M75.568,64.949a20.937,20.937,0,0,1,5.107-2.22l1.052-5.055,8.54-.149L91.5,62.539a20.918,20.918,0,0,1,5.182,2.039L101,61.748l6.145,5.933-2.675,4.412a20.921,20.921,0,0,1,2.22,5.108l5.054,1.052.15,8.54-5.014,1.229a20.913,20.913,0,0,1-2.039,5.182l2.829,4.317-5.933,6.145-4.412-2.676a20.917,20.917,0,0,1-5.108,2.22l-1.052,5.055-8.54.15L81.39,103.4a20.923,20.923,0,0,1-5.182-2.039l-4.317,2.83-6.145-5.933,2.675-4.412a20.907,20.907,0,0,1-2.22-5.108l-5.055-1.052L61,79.146l5.015-1.23a20.933,20.933,0,0,1,2.039-5.182l-2.829-4.316,5.932-6.145,4.414,2.676Zm4.553,11.377A9.163,9.163,0,1,0,93.077,76.1,9.163,9.163,0,0,0,80.121,76.326Z" transform="translate(-60.998 -57.525)" fill="#f5f5f5"/>
              </g>
            </g>
          </g>
        </g>
      </g>
      <g id="Grupo_160429" data-name="Grupo 160429" transform="translate(25.673 144.489)">
        <g id="Grupo_160428" data-name="Grupo 160428" transform="translate(0)">
          <g id="Grupo_160427" data-name="Grupo 160427">
            <g id="Grupo_160424" data-name="Grupo 160424">
              <path id="Trazado_197260" data-name="Trazado 197260" d="M40.031,217.848a20.625,20.625,0,0,1,5.033-2.187l1.037-4.981,8.416-.147,1.211,4.941a20.6,20.6,0,0,1,5.106,2.009l4.254-2.789,6.056,5.848-2.637,4.348a20.62,20.62,0,0,1,2.187,5.034l4.981,1.036.148,8.417-4.942,1.211a20.634,20.634,0,0,1-2.009,5.106l2.787,4.254L65.814,256l-4.349-2.636a20.629,20.629,0,0,1-5.034,2.187L55.4,260.534l-8.416.148-1.211-4.942a20.635,20.635,0,0,1-5.106-2.009l-4.254,2.788-6.055-5.847,2.636-4.348a20.625,20.625,0,0,1-2.187-5.033l-4.981-1.037-.147-8.416,4.942-1.212a20.634,20.634,0,0,1,2.009-5.106l-2.788-4.254,5.846-6.056,4.349,2.637Zm4.487,11.212a9.03,9.03,0,1,0,12.768-.224A9.029,9.029,0,0,0,44.518,229.06Z" transform="translate(-25.673 -210.532)" fill="#e0e0e0"/>
            </g>
            <g id="Grupo_160426" data-name="Grupo 160426">
              <g id="Grupo_160425" data-name="Grupo 160425">
                <path id="Trazado_197261" data-name="Trazado 197261" d="M40.031,217.848a20.625,20.625,0,0,1,5.033-2.187l1.037-4.981,8.416-.147,1.211,4.941a20.6,20.6,0,0,1,5.106,2.009l4.254-2.789,6.056,5.848-2.637,4.348a20.62,20.62,0,0,1,2.187,5.034l4.981,1.036.148,8.417-4.942,1.211a20.634,20.634,0,0,1-2.009,5.106l2.787,4.254L65.814,256l-4.349-2.636a20.629,20.629,0,0,1-5.034,2.187L55.4,260.534l-8.416.148-1.211-4.942a20.635,20.635,0,0,1-5.106-2.009l-4.254,2.788-6.055-5.847,2.636-4.348a20.625,20.625,0,0,1-2.187-5.033l-4.981-1.037-.147-8.416,4.942-1.212a20.634,20.634,0,0,1,2.009-5.106l-2.788-4.254,5.846-6.056,4.349,2.637Zm4.487,11.212a9.03,9.03,0,1,0,12.768-.224A9.029,9.029,0,0,0,44.518,229.06Z" transform="translate(-25.673 -210.532)" fill="none"/>
              </g>
            </g>
          </g>
        </g>
      </g>
      <g id="Grupo_160435" data-name="Grupo 160435" transform="translate(173.796 166.445)">
        <g id="Grupo_160434" data-name="Grupo 160434">
          <g id="Grupo_160433" data-name="Grupo 160433">
            <g id="Grupo_160430" data-name="Grupo 160430">
              <path id="Trazado_197262" data-name="Trazado 197262" d="M283.737,255.967a28.581,28.581,0,0,1,6.968-3.029l1.435-6.9,11.654-.2,1.677,6.843a28.533,28.533,0,0,1,7.072,2.782l5.889-3.861,8.385,8.1-3.651,6.02a28.559,28.559,0,0,1,3.029,6.97l6.9,1.435.2,11.654-6.842,1.678a28.582,28.582,0,0,1-2.782,7.07l3.86,5.89-8.1,8.385-6.021-3.65a28.568,28.568,0,0,1-6.969,3.028l-1.436,6.9-11.653.2-1.678-6.843a28.572,28.572,0,0,1-7.07-2.782l-5.89,3.861-8.385-8.1,3.65-6.021a28.56,28.56,0,0,1-3.029-6.969l-6.9-1.435-.2-11.654,6.843-1.678a28.578,28.578,0,0,1,2.781-7.07l-3.86-5.89,8.1-8.385,6.022,3.651Zm6.212,15.524a12.5,12.5,0,1,0,17.68-.311A12.5,12.5,0,0,0,289.949,271.492Z" transform="translate(-263.856 -245.837)" fill="#f5f5f5"/>
            </g>
            <g id="Grupo_160432" data-name="Grupo 160432">
              <g id="Grupo_160431" data-name="Grupo 160431">
                <path id="Trazado_197263" data-name="Trazado 197263" d="M283.737,255.967a28.581,28.581,0,0,1,6.968-3.029l1.435-6.9,11.654-.2,1.677,6.843a28.533,28.533,0,0,1,7.072,2.782l5.889-3.861,8.385,8.1-3.651,6.02a28.559,28.559,0,0,1,3.029,6.97l6.9,1.435.2,11.654-6.842,1.678a28.582,28.582,0,0,1-2.782,7.07l3.86,5.89-8.1,8.385-6.021-3.65a28.568,28.568,0,0,1-6.969,3.028l-1.436,6.9-11.653.2-1.678-6.843a28.572,28.572,0,0,1-7.07-2.782l-5.89,3.861-8.385-8.1,3.65-6.021a28.56,28.56,0,0,1-3.029-6.969l-6.9-1.435-.2-11.654,6.843-1.678a28.578,28.578,0,0,1,2.781-7.07l-3.86-5.89,8.1-8.385,6.022,3.651Zm6.212,15.524a12.5,12.5,0,1,0,17.68-.311A12.5,12.5,0,0,0,289.949,271.492Z" transform="translate(-263.856 -245.837)" fill="#f5f5f5"/>
              </g>
            </g>
          </g>
        </g>
      </g>
      <g id="Grupo_160441" data-name="Grupo 160441" transform="translate(34.812 113.817)">
        <g id="Grupo_160440" data-name="Grupo 160440">
          <g id="Grupo_160439" data-name="Grupo 160439">
            <g id="Grupo_160436" data-name="Grupo 160436">
              <path id="Trazado_197264" data-name="Trazado 197264" d="M46.653,164.413a9.013,9.013,0,0,1,2.2-.957l.453-2.18,3.683-.065.53,2.163a9.029,9.029,0,0,1,2.235.879l1.862-1.22,2.65,2.559-1.154,1.9a9.01,9.01,0,0,1,.957,2.2l2.18.454.065,3.683-2.163.53a9.027,9.027,0,0,1-.879,2.234l1.22,1.862-2.558,2.65-1.9-1.154a9.02,9.02,0,0,1-2.2.957l-.454,2.18-3.683.065L49.164,181a9.025,9.025,0,0,1-2.234-.879l-1.862,1.221-2.65-2.559,1.154-1.9a9.034,9.034,0,0,1-.957-2.2l-2.18-.454-.064-3.683,2.162-.53a9.055,9.055,0,0,1,.879-2.235l-1.22-1.862,2.559-2.65,1.9,1.154Zm1.963,4.907a3.952,3.952,0,1,0,5.588-.1A3.952,3.952,0,0,0,48.616,169.32Z" transform="translate(-40.369 -161.211)" fill="#f5f5f5"/>
            </g>
            <g id="Grupo_160438" data-name="Grupo 160438">
              <g id="Grupo_160437" data-name="Grupo 160437">
                <path id="Trazado_197265" data-name="Trazado 197265" d="M46.653,164.413a9.013,9.013,0,0,1,2.2-.957l.453-2.18,3.683-.065.53,2.163a9.029,9.029,0,0,1,2.235.879l1.862-1.22,2.65,2.559-1.154,1.9a9.01,9.01,0,0,1,.957,2.2l2.18.454.065,3.683-2.163.53a9.027,9.027,0,0,1-.879,2.234l1.22,1.862-2.558,2.65-1.9-1.154a9.02,9.02,0,0,1-2.2.957l-.454,2.18-3.683.065L49.164,181a9.025,9.025,0,0,1-2.234-.879l-1.862,1.221-2.65-2.559,1.154-1.9a9.034,9.034,0,0,1-.957-2.2l-2.18-.454-.064-3.683,2.162-.53a9.055,9.055,0,0,1,.879-2.235l-1.22-1.862,2.559-2.65,1.9,1.154Zm1.963,4.907a3.952,3.952,0,1,0,5.588-.1A3.952,3.952,0,0,0,48.616,169.32Z" transform="translate(-40.369 -161.211)" fill="#f5f5f5"/>
              </g>
            </g>
          </g>
        </g>
      </g>
      <g id="Grupo_160447" data-name="Grupo 160447" transform="translate(48.905 201.812)">
        <g id="Grupo_160446" data-name="Grupo 160446" transform="translate(0 0)">
          <g id="Grupo_160445" data-name="Grupo 160445">
            <g id="Grupo_160442" data-name="Grupo 160442">
              <path id="Trazado_197266" data-name="Trazado 197266" d="M72.919,307.746a14.2,14.2,0,0,1,3.466-1.506l.714-3.431,5.8-.1.834,3.4a14.223,14.223,0,0,1,3.517,1.384l2.93-1.92,4.17,4.027L92.53,312.6a14.17,14.17,0,0,1,1.506,3.466l3.43.714.1,5.8-3.4.834a14.209,14.209,0,0,1-1.384,3.517l1.92,2.93-4.026,4.17-2.995-1.815a14.186,14.186,0,0,1-3.466,1.506l-.714,3.431-5.8.1-.835-3.4a14.23,14.23,0,0,1-3.517-1.384l-2.93,1.92-4.17-4.027,1.816-2.995a14.172,14.172,0,0,1-1.506-3.466l-3.431-.714-.1-5.8,3.4-.835a14.231,14.231,0,0,1,1.384-3.517L65.9,310.1l4.026-4.17,3,1.816Zm3.09,7.722a6.219,6.219,0,1,0,8.793-.155A6.218,6.218,0,0,0,76.008,315.468Z" transform="translate(-63.03 -302.708)" fill="#f5f5f5"/>
            </g>
            <g id="Grupo_160444" data-name="Grupo 160444">
              <g id="Grupo_160443" data-name="Grupo 160443">
                <path id="Trazado_197267" data-name="Trazado 197267" d="M72.919,307.746a14.2,14.2,0,0,1,3.466-1.506l.714-3.431,5.8-.1.834,3.4a14.223,14.223,0,0,1,3.517,1.384l2.93-1.92,4.17,4.027L92.53,312.6a14.17,14.17,0,0,1,1.506,3.466l3.43.714.1,5.8-3.4.834a14.209,14.209,0,0,1-1.384,3.517l1.92,2.93-4.026,4.17-2.995-1.815a14.186,14.186,0,0,1-3.466,1.506l-.714,3.431-5.8.1-.835-3.4a14.23,14.23,0,0,1-3.517-1.384l-2.93,1.92-4.17-4.027,1.816-2.995a14.172,14.172,0,0,1-1.506-3.466l-3.431-.714-.1-5.8,3.4-.835a14.231,14.231,0,0,1,1.384-3.517L65.9,310.1l4.026-4.17,3,1.816Zm3.09,7.722a6.219,6.219,0,1,0,8.793-.155A6.218,6.218,0,0,0,76.008,315.468Z" transform="translate(-63.03 -302.708)" fill="#f5f5f5"/>
              </g>
            </g>
          </g>
        </g>
      </g>
      <g id="Grupo_160453" data-name="Grupo 160453" transform="translate(238.681 216.454)">
        <g id="Grupo_160452" data-name="Grupo 160452" transform="translate(0 0)">
          <g id="Grupo_160451" data-name="Grupo 160451">
            <g id="Grupo_160448" data-name="Grupo 160448">
              <path id="Trazado_197268" data-name="Trazado 197268" d="M375.989,330.226a11.211,11.211,0,0,1,2.733-1.188l.563-2.705,4.571-.08.658,2.683a11.194,11.194,0,0,1,2.773,1.091l2.31-1.514,3.289,3.175-1.432,2.361a11.213,11.213,0,0,1,1.188,2.734l2.7.563.08,4.57-2.683.658a11.2,11.2,0,0,1-1.091,2.773l1.514,2.31-3.175,3.289-2.362-1.432A11.194,11.194,0,0,1,384.9,350.7l-.563,2.705-4.57.08L379.1,350.8a11.193,11.193,0,0,1-2.773-1.091l-2.31,1.514-3.289-3.175,1.432-2.361a11.19,11.19,0,0,1-1.188-2.734l-2.705-.563-.08-4.571,2.683-.658a11.2,11.2,0,0,1,1.091-2.773l-1.514-2.31,3.175-3.289,2.362,1.432Zm2.437,6.089a4.9,4.9,0,1,0,6.934-.122A4.9,4.9,0,0,0,378.426,336.315Z" transform="translate(-368.192 -326.253)" fill="#ebebeb"/>
            </g>
            <g id="Grupo_160450" data-name="Grupo 160450">
              <g id="Grupo_160449" data-name="Grupo 160449">
                <path id="Trazado_197269" data-name="Trazado 197269" d="M375.989,330.226a11.211,11.211,0,0,1,2.733-1.188l.563-2.705,4.571-.08.658,2.683a11.194,11.194,0,0,1,2.773,1.091l2.31-1.514,3.289,3.175-1.432,2.361a11.213,11.213,0,0,1,1.188,2.734l2.7.563.08,4.57-2.683.658a11.2,11.2,0,0,1-1.091,2.773l1.514,2.31-3.175,3.289-2.362-1.432A11.194,11.194,0,0,1,384.9,350.7l-.563,2.705-4.57.08L379.1,350.8a11.193,11.193,0,0,1-2.773-1.091l-2.31,1.514-3.289-3.175,1.432-2.361a11.19,11.19,0,0,1-1.188-2.734l-2.705-.563-.08-4.571,2.683-.658a11.2,11.2,0,0,1,1.091-2.773l-1.514-2.31,3.175-3.289,2.362,1.432Zm2.437,6.089a4.9,4.9,0,1,0,6.934-.122A4.9,4.9,0,0,0,378.426,336.315Z" transform="translate(-368.192 -326.253)" fill="#ebebeb"/>
              </g>
            </g>
          </g>
        </g>
      </g>
      <g id="Grupo_160459" data-name="Grupo 160459" transform="translate(147.599 35.868)">
        <g id="Grupo_160458" data-name="Grupo 160458" transform="translate(0 0)">
          <g id="Grupo_160457" data-name="Grupo 160457">
            <g id="Grupo_160454" data-name="Grupo 160454">
              <path id="Trazado_197270" data-name="Trazado 197270" d="M229.529,39.841a11.187,11.187,0,0,1,2.733-1.188l.563-2.705,4.571-.08.657,2.683a11.187,11.187,0,0,1,2.774,1.091l2.31-1.514,3.289,3.176-1.432,2.361a11.183,11.183,0,0,1,1.188,2.733l2.705.563.08,4.57-2.684.658a11.192,11.192,0,0,1-1.091,2.773l1.514,2.31-3.175,3.289-2.361-1.432a11.194,11.194,0,0,1-2.733,1.187l-.563,2.705-4.57.08-.658-2.683a11.217,11.217,0,0,1-2.773-1.091l-2.31,1.514-3.289-3.175,1.432-2.361a11.185,11.185,0,0,1-1.188-2.733l-2.705-.563-.08-4.571,2.684-.658a11.192,11.192,0,0,1,1.091-2.773l-1.514-2.31,3.175-3.289,2.362,1.432Zm2.437,6.089a4.9,4.9,0,1,0,6.934-.123A4.9,4.9,0,0,0,231.965,45.93Z" transform="translate(-221.731 -35.868)" fill="#f5f5f5"/>
            </g>
            <g id="Grupo_160456" data-name="Grupo 160456">
              <g id="Grupo_160455" data-name="Grupo 160455">
                <path id="Trazado_197271" data-name="Trazado 197271" d="M229.529,39.841a11.187,11.187,0,0,1,2.733-1.188l.563-2.705,4.571-.08.657,2.683a11.187,11.187,0,0,1,2.774,1.091l2.31-1.514,3.289,3.176-1.432,2.361a11.183,11.183,0,0,1,1.188,2.733l2.705.563.08,4.57-2.684.658a11.192,11.192,0,0,1-1.091,2.773l1.514,2.31-3.175,3.289-2.361-1.432a11.194,11.194,0,0,1-2.733,1.187l-.563,2.705-4.57.08-.658-2.683a11.217,11.217,0,0,1-2.773-1.091l-2.31,1.514-3.289-3.175,1.432-2.361a11.185,11.185,0,0,1-1.188-2.733l-2.705-.563-.08-4.571,2.684-.658a11.192,11.192,0,0,1,1.091-2.773l-1.514-2.31,3.175-3.289,2.362,1.432Zm2.437,6.089a4.9,4.9,0,1,0,6.934-.123A4.9,4.9,0,0,0,231.965,45.93Z" transform="translate(-221.731 -35.868)" fill="#f5f5f5"/>
              </g>
            </g>
          </g>
        </g>
      </g>
      <g id="Grupo_160461" data-name="Grupo 160461" transform="translate(29.98 306.355)">
        <g id="Grupo_160460" data-name="Grupo 160460" transform="translate(-4.306)">
          <path id="Trazado_197272" data-name="Trazado 197272" d="M327.6,470.977c0,.09-66.043.162-147.493.162-81.478,0-147.507-.073-147.507-.162s66.029-.162,147.507-.162C261.555,470.815,327.6,470.887,327.6,470.977Z" transform="translate(-32.598 -470.815)" fill="#263238"/>
        </g>
      </g>
      <g id="Grupo_160462" data-name="Grupo 160462" transform="translate(173.754 194.234)">
        <path id="Trazado_197273" data-name="Trazado 197273" d="M311.581,316.26a11.97,11.97,0,0,0-14.2-6.843,8.531,8.531,0,0,0-12.58-8.894,7.61,7.61,0,0,0-8.44-9.907l-12.241,2.81a102.946,102.946,0,0,0,.679,22.711c.5,3.532,1.269,7.221,3.612,9.911s5.953,3.978,9.494,4.466,7.142.292,10.7.6c5.765.493,11.875,2.24,17.112-.218A11.97,11.97,0,0,0,311.581,316.26Z" transform="translate(-263.788 -290.522)" fill="#263238"/>
      </g>
      <g id="Grupo_160606" data-name="Grupo 160606" transform="translate(36.441 55.604)">
        <g id="Grupo_160465" data-name="Grupo 160465" transform="translate(22.768 14.661)">
          <g id="Grupo_160463" data-name="Grupo 160463">
            <path id="Trazado_197274" data-name="Trazado 197274" d="M155.922,225.463q-6.753-49.681-11.6-99.6L130.83,96.3c-5.058-10.081-20.387-3.03-20.387,2.093-6.594-.039-15.16,4.844-15.51,11.429-4.06.8-7.174,4.312-8.588,8.2s-1.4,8.138-1.207,12.272a8.1,8.1,0,0,1-.511,4.141,12.062,12.062,0,0,1-1.971,2.361c-4.495,4.964-3.634,13.05.006,18.671a8.923,8.923,0,0,1,1.407,2.691c.51,2.17-.932,4.247-1.953,6.228A18.384,18.384,0,0,0,83.551,183.2c.8,1.1,1.776,2.255,1.706,3.615-.06,1.188-.908,2.162-1.562,3.157-3.4,5.183-1.22,13.141,4.353,15.861a16.665,16.665,0,0,0,3.206,15.285A4.673,4.673,0,0,1,92.5,223.1c.215,1.111-.5,2.157-1.049,3.147-2.724,4.922-1.693,10.981-.586,16.5l1.429,7.126c.747,3.724,1.556,7.589,3.853,10.613,3.516,4.629,9.689,6.26,15.451,7.022,6.436.852,13.189.955,19.188-1.525,5.231-2.162,9.486-6.11,13.619-9.978,4.738-4.435,9.675-9.183,11.48-15.418C157.294,235.7,156.606,230.5,155.922,225.463Z" transform="translate(-79.598 -91.178)" fill="#263238"/>
          </g>
          <g id="Grupo_160464" data-name="Grupo 160464" transform="translate(28.004 5.101)">
            <path id="Trazado_197275" data-name="Trazado 197275" d="M141.788,100.887c-3.428,1.956-5.837,5.274-7.958,8.6-5.843,9.171-10.439,19.9-8.9,30.663a12.3,12.3,0,0,0,1.368,4.471c2.2,3.785,6.994,5,11.285,5.861a4.525,4.525,0,0,0,2.517.024,4.254,4.254,0,0,0,1.571-1.282,36.335,36.335,0,0,0,5.125-7.689l6.075-40.234C149.91,98.692,145.215,98.931,141.788,100.887Z" transform="translate(-124.629 -99.381)" fill="#00bcd4"/>
          </g>
        </g>
        <g id="Grupo_160597" data-name="Grupo 160597" transform="translate(55.582)">
          <g id="Grupo_160596" data-name="Grupo 160596">
            <g id="Grupo_160469" data-name="Grupo 160469" transform="translate(0.207 0.283)">
              <g id="Grupo_160468" data-name="Grupo 160468">
                <g id="Grupo_160467" data-name="Grupo 160467">
                  <g id="Grupo_160466" data-name="Grupo 160466">
                    <path id="Trazado_197276" data-name="Trazado 197276" d="M136.232,138.043a16.746,16.746,0,0,1,.733-21.458c-3.194-3.734-2.3-9.7.67-13.612s7.516-6.256,11.9-8.473c2.052-11.329,14.395-19.681,25.675-17.373,5.525-8.77,17.892-10.551,27.94-8,2.454.622,4.914,1.451,7.443,1.353a43.067,43.067,0,0,0,5.483-.956c10.07-1.717,20.364,5.053,24.64,14.33a18.721,18.721,0,0,0,2.3,4.307c1.372,1.646,3.4,2.572,5.141,3.82a16.172,16.172,0,0,1,6.61,11.73c.3,3.923-.8,8.138.979,11.648.892,1.759,2.441,3.151,3.153,4.991,2.061,5.332-3.729,11.061-2.423,16.627.266,1.136.819,2.183,1.176,3.294a9.979,9.979,0,0,1-.362,6.991c-.741,1.685-1.975,3.248-2.019,5.089-.034,1.4.634,2.7.961,4.06.8,3.321-5.965,16.477-8.79,18.4l-86.368,3.812A16.153,16.153,0,0,1,148.1,165.156a5.909,5.909,0,0,0-.917-3.149,6.922,6.922,0,0,0-2.412-1.45c-5.668-2.791-6.607-10.4-6.243-16.712a7.674,7.674,0,0,0-.141-2.636A9.658,9.658,0,0,0,136.232,138.043Z" transform="translate(-132.696 -68.059)" fill="#263238"/>
                  </g>
                </g>
              </g>
            </g>
            <g id="Grupo_160473" data-name="Grupo 160473" transform="translate(28.45 21.872)">
              <g id="Grupo_160472" data-name="Grupo 160472">
                <g id="Grupo_160471" data-name="Grupo 160471">
                  <g id="Grupo_160470" data-name="Grupo 160470">
                    <path id="Trazado_197277" data-name="Trazado 197277" d="M178.159,150.422c-.794-15.28,8.178-33.188,23.1-41.2,9.409-5.05,16.877-5.343,21.89-6.108a35.018,35.018,0,0,1,20.526,3.557c4.8.951,22.814,16.316,24.33,33.622,1.684,19.227,2.982,42.768,1.052,57.192-3.882,29-25.936,33.222-25.936,33.222,0-.044,3.75,47.854,3.75,47.854l-59.957-21.156Z" transform="translate(-178.111 -102.774)" fill="#ffbf9d"/>
                  </g>
                </g>
              </g>
            </g>
            <g id="Grupo_160477" data-name="Grupo 160477" transform="translate(78.27 108.351)">
              <g id="Grupo_160476" data-name="Grupo 160476">
                <g id="Grupo_160475" data-name="Grupo 160475">
                  <g id="Grupo_160474" data-name="Grupo 160474">
                    <path id="Trazado_197278" data-name="Trazado 197278" d="M258.228,247.187a5.666,5.666,0,0,1,1.677-3.64,5.791,5.791,0,0,1,6.972-.955c2.238,1.3,2.707,3.762,2.529,6.585h0c-1.061,1.732-1.81,3.423-3.813,3.759a8.39,8.39,0,0,1-.943.105,6.326,6.326,0,0,1-4.388-1.346A5.645,5.645,0,0,1,258.228,247.187Z" transform="translate(-258.222 -241.833)" fill="#ff9a6c"/>
                  </g>
                </g>
              </g>
            </g>
            <g id="Grupo_160486" data-name="Grupo 160486" transform="translate(98.798 79.023)">
              <g id="Grupo_160485" data-name="Grupo 160485">
                <g id="Grupo_160484" data-name="Grupo 160484">
                  <g id="Grupo_160483" data-name="Grupo 160483">
                    <g id="Grupo_160482" data-name="Grupo 160482">
                      <g id="Grupo_160481" data-name="Grupo 160481">
                        <g id="Grupo_160480" data-name="Grupo 160480">
                          <g id="Grupo_160479" data-name="Grupo 160479">
                            <g id="Grupo_160478" data-name="Grupo 160478">
                              <path id="Trazado_197279" data-name="Trazado 197279" d="M298.62,197.933a3.707,3.707,0,0,1-3.481,3.826,3.545,3.545,0,0,1-3.9-3.247,3.708,3.708,0,0,1,3.477-3.828A3.548,3.548,0,0,1,298.62,197.933Z" transform="translate(-291.231 -194.673)" fill="#263238"/>
                            </g>
                          </g>
                        </g>
                      </g>
                    </g>
                  </g>
                </g>
              </g>
            </g>
            <g id="Grupo_160496" data-name="Grupo 160496" transform="translate(97.336 66.924)">
              <g id="Grupo_160495" data-name="Grupo 160495">
                <g id="Grupo_160494" data-name="Grupo 160494">
                  <g id="Grupo_160493" data-name="Grupo 160493">
                    <g id="Grupo_160492" data-name="Grupo 160492">
                      <g id="Grupo_160491" data-name="Grupo 160491">
                        <g id="Grupo_160490" data-name="Grupo 160490">
                          <g id="Grupo_160489" data-name="Grupo 160489">
                            <g id="Grupo_160488" data-name="Grupo 160488">
                              <g id="Grupo_160487" data-name="Grupo 160487">
                                <path id="Trazado_197280" data-name="Trazado 197280" d="M303.531,178.938c-.447.5-3.305-1.513-7.293-1.406-3.984.05-6.86,2.174-7.3,1.7-.218-.211.23-1.094,1.48-2.053a10.174,10.174,0,0,1,5.833-1.956,9.779,9.779,0,0,1,5.82,1.723C303.315,177.853,303.752,178.716,303.531,178.938Z" transform="translate(-288.881 -175.217)" fill="#263238"/>
                              </g>
                            </g>
                          </g>
                        </g>
                      </g>
                    </g>
                  </g>
                </g>
              </g>
            </g>
            <g id="Grupo_160505" data-name="Grupo 160505" transform="translate(86.751 69.524)">
              <g id="Grupo_160504" data-name="Grupo 160504">
                <g id="Grupo_160503" data-name="Grupo 160503">
                  <g id="Grupo_160502" data-name="Grupo 160502">
                    <g id="Grupo_160501" data-name="Grupo 160501">
                      <g id="Grupo_160500" data-name="Grupo 160500">
                        <g id="Grupo_160499" data-name="Grupo 160499">
                          <g id="Grupo_160498" data-name="Grupo 160498">
                            <g id="Grupo_160497" data-name="Grupo 160497">
                              <path id="Trazado_197281" data-name="Trazado 197281" d="M274.537,212.576c-.024-.226,2.443-.715,6.447-1.326,1.015-.131,1.974-.356,2.129-1.055.222-.743-.23-1.829-.753-3q-1.526-3.66-3.2-7.68c-4.45-10.935-7.7-19.938-7.258-20.112s4.41,8.546,8.861,19.482q1.608,4.046,3.075,7.728c.414,1.148,1.108,2.445.626,3.984a2.559,2.559,0,0,1-1.638,1.53,6.922,6.922,0,0,1-1.723.282C277.064,212.723,274.557,212.8,274.537,212.576Z" transform="translate(-271.86 -179.399)" fill="#263238"/>
                            </g>
                          </g>
                        </g>
                      </g>
                    </g>
                  </g>
                </g>
              </g>
            </g>
            <g id="Grupo_160513" data-name="Grupo 160513" transform="translate(54.389 140.442)">
              <g id="Grupo_160512" data-name="Grupo 160512" transform="translate(0 0)">
                <g id="Grupo_160511" data-name="Grupo 160511">
                  <g id="Grupo_160510" data-name="Grupo 160510">
                    <g id="Grupo_160509" data-name="Grupo 160509">
                      <g id="Grupo_160508" data-name="Grupo 160508">
                        <g id="Grupo_160507" data-name="Grupo 160507">
                          <g id="Grupo_160506" data-name="Grupo 160506">
                            <path id="Trazado_197282" data-name="Trazado 197282" d="M258.9,302.8a73.811,73.811,0,0,1-39.074-9.365s10.8,20.112,39.649,16.7Z" transform="translate(-219.822 -293.435)" fill="#ff9a6c"/>
                          </g>
                        </g>
                      </g>
                    </g>
                  </g>
                </g>
              </g>
            </g>
            <g id="Grupo_160524" data-name="Grupo 160524" transform="translate(94.27 51.478)">
              <g id="Grupo_160523" data-name="Grupo 160523">
                <g id="Grupo_160522" data-name="Grupo 160522">
                  <g id="Grupo_160521" data-name="Grupo 160521">
                    <g id="Grupo_160520" data-name="Grupo 160520">
                      <g id="Grupo_160519" data-name="Grupo 160519">
                        <g id="Grupo_160518" data-name="Grupo 160518">
                          <g id="Grupo_160517" data-name="Grupo 160517">
                            <g id="Grupo_160516" data-name="Grupo 160516">
                              <g id="Grupo_160515" data-name="Grupo 160515">
                                <g id="Grupo_160514" data-name="Grupo 160514">
                                  <path id="Trazado_197283" data-name="Trazado 197283" d="M298.657,153.668c-.646.989-3.716.413-7.276.8-3.571.269-6.492,1.395-7.3.538-.36-.42.007-1.379,1.219-2.388a11.339,11.339,0,0,1,11.743-1.076C298.412,152.312,298.937,153.189,298.657,153.668Z" transform="translate(-283.951 -150.381)" fill="#263238"/>
                                </g>
                              </g>
                            </g>
                          </g>
                        </g>
                      </g>
                    </g>
                  </g>
                </g>
              </g>
            </g>
            <g id="Grupo_160533" data-name="Grupo 160533" transform="translate(62.906 80.961)">
              <g id="Grupo_160532" data-name="Grupo 160532">
                <g id="Grupo_160531" data-name="Grupo 160531">
                  <g id="Grupo_160530" data-name="Grupo 160530">
                    <g id="Grupo_160529" data-name="Grupo 160529">
                      <g id="Grupo_160528" data-name="Grupo 160528">
                        <g id="Grupo_160527" data-name="Grupo 160527">
                          <g id="Grupo_160526" data-name="Grupo 160526">
                            <g id="Grupo_160525" data-name="Grupo 160525">
                              <path id="Trazado_197284" data-name="Trazado 197284" d="M233.518,201.362a3.706,3.706,0,0,0,3.8,3.512,3.544,3.544,0,0,0,3.606-3.572,3.707,3.707,0,0,0-3.794-3.513A3.546,3.546,0,0,0,233.518,201.362Z" transform="translate(-233.517 -197.789)" fill="#263238"/>
                            </g>
                          </g>
                        </g>
                      </g>
                    </g>
                  </g>
                </g>
              </g>
            </g>
            <g id="Grupo_160543" data-name="Grupo 160543" transform="translate(57.402 69.188)">
              <g id="Grupo_160542" data-name="Grupo 160542">
                <g id="Grupo_160541" data-name="Grupo 160541">
                  <g id="Grupo_160540" data-name="Grupo 160540">
                    <g id="Grupo_160539" data-name="Grupo 160539">
                      <g id="Grupo_160538" data-name="Grupo 160538">
                        <g id="Grupo_160537" data-name="Grupo 160537">
                          <g id="Grupo_160536" data-name="Grupo 160536">
                            <g id="Grupo_160535" data-name="Grupo 160535">
                              <g id="Grupo_160534" data-name="Grupo 160534">
                                <path id="Trazado_197285" data-name="Trazado 197285" d="M224.736,183.214c.489.454,3.163-1.793,7.145-2.03,3.973-.293,7.022,1.575,7.423,1.06.2-.229-.323-1.07-1.651-1.919a10.187,10.187,0,0,0-5.981-1.445,9.771,9.771,0,0,0-5.649,2.218C224.857,182.114,224.5,183.012,224.736,183.214Z" transform="translate(-224.666 -178.858)" fill="#263238"/>
                              </g>
                            </g>
                          </g>
                        </g>
                      </g>
                    </g>
                  </g>
                </g>
              </g>
            </g>
            <g id="Grupo_160554" data-name="Grupo 160554" transform="translate(56.78 53.29)">
              <g id="Grupo_160553" data-name="Grupo 160553">
                <g id="Grupo_160552" data-name="Grupo 160552">
                  <g id="Grupo_160551" data-name="Grupo 160551">
                    <g id="Grupo_160550" data-name="Grupo 160550">
                      <g id="Grupo_160549" data-name="Grupo 160549">
                        <g id="Grupo_160548" data-name="Grupo 160548">
                          <g id="Grupo_160547" data-name="Grupo 160547">
                            <g id="Grupo_160546" data-name="Grupo 160546">
                              <g id="Grupo_160545" data-name="Grupo 160545">
                                <g id="Grupo_160544" data-name="Grupo 160544">
                                  <path id="Trazado_197286" data-name="Trazado 197286" d="M223.8,157.922c.84.855,3.854-.272,7.543-.546,3.681-.389,6.859.184,7.519-.805.287-.479-.262-1.354-1.681-2.125a11.41,11.41,0,0,0-6.228-1.1,11.279,11.279,0,0,0-5.908,2.19C223.8,156.544,223.431,157.5,223.8,157.922Z" transform="translate(-223.666 -153.294)" fill="#263238"/>
                                </g>
                              </g>
                            </g>
                          </g>
                        </g>
                      </g>
                    </g>
                  </g>
                </g>
              </g>
            </g>
            <g id="Grupo_160562" data-name="Grupo 160562" transform="translate(13.359 89.148)">
              <g id="Grupo_160561" data-name="Grupo 160561">
                <g id="Grupo_160560" data-name="Grupo 160560">
                  <g id="Grupo_160559" data-name="Grupo 160559">
                    <g id="Grupo_160558" data-name="Grupo 160558">
                      <g id="Grupo_160557" data-name="Grupo 160557">
                        <g id="Grupo_160556" data-name="Grupo 160556">
                          <g id="Grupo_160555" data-name="Grupo 160555">
                            <path id="Trazado_197287" data-name="Trazado 197287" d="M174.306,218.594c-.058-2.152-2.668-7.164-4.8-7.443-5.7-.745-15.912-.04-15.655,14.372.352,19.7,20.06,15.285,20.084,14.719C173.954,239.8,174.506,226.022,174.306,218.594Z" transform="translate(-153.845 -210.954)" fill="#ffbf9d"/>
                          </g>
                        </g>
                      </g>
                    </g>
                  </g>
                </g>
              </g>
            </g>
            <g id="Grupo_160571" data-name="Grupo 160571" transform="translate(18.955 95.814)">
              <g id="Grupo_160570" data-name="Grupo 160570">
                <g id="Grupo_160569" data-name="Grupo 160569">
                  <g id="Grupo_160568" data-name="Grupo 160568">
                    <g id="Grupo_160567" data-name="Grupo 160567">
                      <g id="Grupo_160566" data-name="Grupo 160566">
                        <g id="Grupo_160565" data-name="Grupo 160565">
                          <g id="Grupo_160564" data-name="Grupo 160564">
                            <g id="Grupo_160563" data-name="Grupo 160563">
                              <path id="Trazado_197288" data-name="Trazado 197288" d="M171.773,237.195c-.088-.061-.339.247-.914.523a3.436,3.436,0,0,1-2.566.1c-2.094-.727-3.906-4-4.065-7.55a11.334,11.334,0,0,1,.873-4.932,3.961,3.961,0,0,1,2.535-2.679,1.749,1.749,0,0,1,2.042.9c.275.547.156.943.261.974.056.049.417-.336.244-1.147a2.184,2.184,0,0,0-.8-1.222,2.593,2.593,0,0,0-1.907-.468c-1.518.133-2.859,1.555-3.53,3.119a11.656,11.656,0,0,0-1.091,5.513c.2,3.968,2.3,7.646,5.159,8.419a3.68,3.68,0,0,0,3.129-.578C171.747,237.672,171.841,237.229,171.773,237.195Z" transform="translate(-162.844 -221.673)" fill="#ff9a6c"/>
                            </g>
                          </g>
                        </g>
                      </g>
                    </g>
                  </g>
                </g>
              </g>
            </g>
            <g id="Grupo_160575" data-name="Grupo 160575" transform="translate(18.418 12.638)">
              <g id="Grupo_160574" data-name="Grupo 160574">
                <g id="Grupo_160573" data-name="Grupo 160573">
                  <g id="Grupo_160572" data-name="Grupo 160572">
                    <path id="Trazado_197289" data-name="Trazado 197289" d="M266.288,134.847c-4.042-2.387-6.667-5.708-6.537-10.4-2.619.852-5.384-2.479-6.98-4.724s-3.512-3.349-3.463-6.1a3.114,3.114,0,0,0-.238-1.594,3.336,3.336,0,0,0-2.183-1.2,13.2,13.2,0,0,1-8.921-8.952,27.919,27.919,0,0,1-13.443,2.567,10.671,10.671,0,0,1-18.074-.333,9.564,9.564,0,0,1-6.283,4.88,28.331,28.331,0,0,1-8.159.65,11.3,11.3,0,0,1-7.114,12.981c-.695.233-1.5.466-1.806,1.132a2.847,2.847,0,0,0,.359,2.187,8.9,8.9,0,0,1-5.671,11.471c3.285,2.417,3.1,8.2-.338,10.4-.7.451-1.627.995-1.5,1.822a1.88,1.88,0,0,0,.453.829c1.516,1.912,3.031,4,3.271,6.431s-1.336,5.2-3.77,5.367c1.308,1.106,2.539,2.54,2.612,4.252s-1.616,3.5-3.229,2.922c-.686-.246-10.543-1.927-10.989-2.5-5.764-7.426,1.036-15.962,1.351-25.357s3.363-18.561,7.846-26.824a44.676,44.676,0,0,1,6.756-9.669,59.536,59.536,0,0,1,10.63-8.247c4.9-3.222,9.94-6.441,15.612-7.93,10.566-2.775,21.709.808,31.738,5.14a46.319,46.319,0,0,1,10.859,6.039c3.874,3.117,6.77,7.274,9.312,11.547,3.672,6.174,6.761,12.856,7.637,19.986" transform="translate(-161.98 -87.926)" fill="#263238"/>
                  </g>
                </g>
              </g>
            </g>
            <g id="Grupo_160579" data-name="Grupo 160579">
              <g id="Grupo_160578" data-name="Grupo 160578">
                <g id="Grupo_160577" data-name="Grupo 160577">
                  <g id="Grupo_160576" data-name="Grupo 160576">
                    <path id="Trazado_197290" data-name="Trazado 197290" d="M258.779,120.174a7.516,7.516,0,0,0-1.117-2.086c-.434-.645-1.044-1.392-1.627-2.355a9.179,9.179,0,0,1-1.2-3.651,28.667,28.667,0,0,1-.042-4.874,21.606,21.606,0,0,0-.308-5.844,16.405,16.405,0,0,0-2.752-6.137,16.131,16.131,0,0,0-2.5-2.724,24.142,24.142,0,0,0-3.173-2.233,12.22,12.22,0,0,1-3.061-2.5,15.929,15.929,0,0,1-1.964-3.659,26.45,26.45,0,0,0-12.773-13.158,23.494,23.494,0,0,0-4.789-1.657,21.185,21.185,0,0,0-5.193-.449,24.384,24.384,0,0,0-2.647.281c-.878.16-1.741.369-2.608.547a12.7,12.7,0,0,1-5.264.145c-1.773-.3-3.519-.891-5.351-1.3a34.6,34.6,0,0,0-11.384-.739A29.984,29.984,0,0,0,185.281,69a19.425,19.425,0,0,0-9.742,6.807l-.7.989.31-.132a22.862,22.862,0,0,0-26.013,17.613l.15-.2a62.544,62.544,0,0,0-6.808,3.829,20.787,20.787,0,0,0-5.5,5.193,13.517,13.517,0,0,0-2.382,6.867,9.306,9.306,0,0,0,2.06,6.608l.009-.33a16.318,16.318,0,0,0-4.264,10.234,16.709,16.709,0,0,0,2.311,9.733,16.237,16.237,0,0,0,1.36,1.915,20.99,20.99,0,0,1,1.4,1.721,4.206,4.206,0,0,1,.753,1.912,12.017,12.017,0,0,1,0,2.046,32.29,32.29,0,0,0,.41,7.471,15.653,15.653,0,0,0,2.091,5.638,9.67,9.67,0,0,0,3.149,3.114c1.034.644,1.941.879,2.451,1.231a4.517,4.517,0,0,1,.733.575,2.282,2.282,0,0,0-.692-.639c-.507-.379-1.414-.642-2.414-1.294a9.618,9.618,0,0,1-3.042-3.1,15.552,15.552,0,0,1-2-5.572,32.316,32.316,0,0,1-.344-7.4,12.264,12.264,0,0,0,.013-2.108,4.583,4.583,0,0,0-.8-2.077,21.275,21.275,0,0,0-1.417-1.762A15.755,15.755,0,0,1,135.049,136a16.319,16.319,0,0,1-2.2-9.5,15.867,15.867,0,0,1,4.173-9.923l.154-.162-.145-.169a8.81,8.81,0,0,1-1.92-6.261,13.007,13.007,0,0,1,2.307-6.59,20.26,20.26,0,0,1,5.372-5.04,62.089,62.089,0,0,1,6.754-3.782l.126-.063.025-.139a22.3,22.3,0,0,1,25.336-17.133l.189.039.123-.171.68-.955a18.849,18.849,0,0,1,9.448-6.6,29.388,29.388,0,0,1,5.627-1.2,34.045,34.045,0,0,1,11.191.715c1.8.393,3.558.986,5.385,1.294a13.586,13.586,0,0,0,2.764.211,16.224,16.224,0,0,0,2.708-.369c.879-.182,1.739-.392,2.6-.549a23.659,23.659,0,0,1,2.572-.278,20.639,20.639,0,0,1,5.054.425,22.959,22.959,0,0,1,4.682,1.608,26,26,0,0,1,12.575,12.872,16.292,16.292,0,0,0,2.042,3.749,12.591,12.591,0,0,0,3.177,2.581,23.824,23.824,0,0,1,3.137,2.18,15.744,15.744,0,0,1,2.451,2.645,16.106,16.106,0,0,1,2.734,5.986,21.5,21.5,0,0,1,.35,5.761,28.36,28.36,0,0,0,.1,4.916,9.284,9.284,0,0,0,1.279,3.713c.609.969,1.232,1.7,1.68,2.332a11.565,11.565,0,0,1,.943,1.481C258.692,119.989,258.764,120.18,258.779,120.174Z" transform="translate(-132.363 -67.603)" fill="#455a64"/>
                  </g>
                </g>
              </g>
            </g>
            <g id="Grupo_160583" data-name="Grupo 160583" transform="translate(51.851 1.99)">
              <g id="Grupo_160582" data-name="Grupo 160582">
                <g id="Grupo_160581" data-name="Grupo 160581">
                  <g id="Grupo_160580" data-name="Grupo 160580">
                    <path id="Trazado_197291" data-name="Trazado 197291" d="M215.74,73.585c.032.044.512-.312,1.457-.808a13.249,13.249,0,0,1,4.26-1.369,12.454,12.454,0,0,1,6.5.767,12.855,12.855,0,0,1,6.037,5.177,10.923,10.923,0,0,1,1.04,2.2,2.46,2.46,0,0,1-.087,2.079l-.462.683.789-.246a8.159,8.159,0,0,1,6.111.559,7.869,7.869,0,0,1,3.44,3.555,8.611,8.611,0,0,1,.858,3.224c.049.788,0,1.223.043,1.228.017,0,.045-.1.081-.311a5.422,5.422,0,0,0,.076-.922,8.229,8.229,0,0,0-4.263-7.215,8.579,8.579,0,0,0-6.518-.668l.326.437a3.009,3.009,0,0,0,.171-2.575,11.3,11.3,0,0,0-1.1-2.336,13.2,13.2,0,0,0-6.341-5.376,12.576,12.576,0,0,0-6.77-.674,12.329,12.329,0,0,0-4.308,1.583,8.569,8.569,0,0,0-1.025.711C215.837,73.467,215.729,73.569,215.74,73.585Z" transform="translate(-215.74 -70.803)" fill="#455a64"/>
                  </g>
                </g>
              </g>
            </g>
            <g id="Grupo_160587" data-name="Grupo 160587" transform="translate(20.508 28.25)">
              <g id="Grupo_160586" data-name="Grupo 160586">
                <g id="Grupo_160585" data-name="Grupo 160585">
                  <g id="Grupo_160584" data-name="Grupo 160584">
                    <path id="Trazado_197292" data-name="Trazado 197292" d="M165.341,113.036c-.022.027.217.28.708.685a12.75,12.75,0,0,0,2.271,1.487,9.412,9.412,0,0,0,3.961,1.072,7.044,7.044,0,0,0,4.851-1.612l-.438-.055.6.793c.217.257.46.5.693.757a11.933,11.933,0,0,0,5,2.928,12.236,12.236,0,0,0,4.71.461,10.858,10.858,0,0,0,3.085-.792,3.9,3.9,0,0,0,1.012-.577,17.1,17.1,0,0,1-4.132.951,12.484,12.484,0,0,1-4.514-.567,11.762,11.762,0,0,1-4.746-2.825c-.22-.242-.45-.472-.656-.715l-.57-.746-.2-.264-.238.209a6.63,6.63,0,0,1-4.45,1.53,9.466,9.466,0,0,1-3.8-.9C166.452,113.894,165.4,112.948,165.341,113.036Z" transform="translate(-165.34 -113.03)" fill="#455a64"/>
                  </g>
                </g>
              </g>
            </g>
            <g id="Grupo_160591" data-name="Grupo 160591" transform="translate(10.59 44.623)">
              <g id="Grupo_160590" data-name="Grupo 160590">
                <g id="Grupo_160589" data-name="Grupo 160589">
                  <g id="Grupo_160588" data-name="Grupo 160588">
                    <path id="Trazado_197293" data-name="Trazado 197293" d="M149.4,141.542c-.02,0,0,.128.058.361a3.382,3.382,0,0,0,.465.941,5.256,5.256,0,0,0,3.231,2.023,10.034,10.034,0,0,0,5.609-.764,32.11,32.11,0,0,0,3.076-1.312,5.389,5.389,0,0,0,2.653-2.553l.114-.32-.46.154a22.57,22.57,0,0,0,5.938,3.348,10.147,10.147,0,0,0,5.547.42A7.317,7.317,0,0,0,179,142.2a4.491,4.491,0,0,0,.693-.749c.136-.19.2-.293.183-.306-.042-.035-.341.353-1.021.878a7.621,7.621,0,0,1-3.3,1.41,10,10,0,0,1-5.286-.525,23.089,23.089,0,0,1-5.765-3.313l-.321-.238-.14.392-.1.267a4.882,4.882,0,0,1-2.374,2.262c-.989.516-2.032.923-3,1.314a9.9,9.9,0,0,1-5.331.864,5.228,5.228,0,0,1-3.129-1.751A8.6,8.6,0,0,1,149.4,141.542Z" transform="translate(-149.392 -139.357)" fill="#455a64"/>
                  </g>
                </g>
              </g>
            </g>
            <g id="Grupo_160595" data-name="Grupo 160595" transform="translate(77.44 109.996)">
              <g id="Grupo_160594" data-name="Grupo 160594">
                <g id="Grupo_160593" data-name="Grupo 160593">
                  <g id="Grupo_160592" data-name="Grupo 160592">
                    <path id="Trazado_197294" data-name="Trazado 197294" d="M256.991,244.5c.471-.32,2.423,2.938,6.6,3.588s7.429-1.779,7.726-1.338c.168.177-.4,1.1-1.839,2.01a9.454,9.454,0,0,1-6.34,1.3,8.235,8.235,0,0,1-5.321-3.132C256.876,245.64,256.757,244.615,256.991,244.5Z" transform="translate(-256.888 -244.479)" fill="#263238"/>
                  </g>
                </g>
              </g>
            </g>
          </g>
        </g>
        <g id="Grupo_160605" data-name="Grupo 160605" transform="translate(0 164.172)">
          <g id="Grupo_160598" data-name="Grupo 160598" transform="translate(29.733 0)">
            <path id="Trazado_197295" data-name="Trazado 197295" d="M211.237,331.594l-57.683.292L90.8,355.527l12.981,62.688,160.713-.124,10.572-69.236Z" transform="translate(-90.799 -331.594)" fill="#ffbf9d"/>
          </g>
          <g id="Grupo_160599" data-name="Grupo 160599" transform="translate(0 22.861)">
            <path id="Trazado_197296" data-name="Trazado 197296" d="M43.137,432.114S38.9,382.388,75.565,368.355L85.7,432.114Z" transform="translate(-42.988 -368.355)" fill="#ffbf9d"/>
          </g>
          <g id="Grupo_160600" data-name="Grupo 160600" transform="translate(203.427 17.26)">
            <path id="Trazado_197297" data-name="Trazado 197297" d="M370.1,428.584l10.572-69.236s20.168,6.491,26.178,26.224c4.687,15.389,7.693,43.16,7.693,43.16h-18.3Z" transform="translate(-370.101 -359.348)" fill="#ffbf9d"/>
          </g>
          <g id="Grupo_160602" data-name="Grupo 160602" transform="translate(36.819 50.25)">
            <g id="Grupo_160601" data-name="Grupo 160601" transform="translate(0)">
              <path id="Trazado_197298" data-name="Trazado 197298" d="M102.2,412.4a1.675,1.675,0,0,1,.107.36l.246,1.046c.208.953.5,2.26.845,3.857.69,3.3,1.629,7.792,2.665,12.753.305,1.494.6,2.947.881,4.314l0,.02v.02c-.22,4-.412,7.485-.551,10.021-.079,1.215-.144,2.2-.191,2.925-.026.315-.047.573-.065.783a.993.993,0,0,1-.042.271,1.057,1.057,0,0,1-.014-.273c0-.21.007-.47.012-.786.024-.726.057-1.713.1-2.93.111-2.537.263-6.025.438-10.026l0,.039-.89-4.312c-1-4.969-1.907-9.466-2.573-12.772l-.743-3.879-.187-1.058A1.64,1.64,0,0,1,102.2,412.4Z" transform="translate(-102.192 -412.397)" fill="#ff9a6c"/>
            </g>
          </g>
          <g id="Grupo_160604" data-name="Grupo 160604" transform="translate(205.851 52.231)">
            <g id="Grupo_160603" data-name="Grupo 160603">
              <path id="Trazado_197299" data-name="Trazado 197299" d="M375.209,449.971a.922.922,0,0,1-.048-.252c-.023-.2-.052-.441-.085-.734-.067-.685-.157-1.607-.267-2.742-.206-2.382-.488-5.647-.81-9.39v-.014l0-.018c.127-1.293.261-2.663.4-4.074.487-4.724.927-9,1.252-12.146.172-1.519.313-2.764.416-3.677.052-.4.1-.734.129-1a1.4,1.4,0,0,1,.067-.345,1.484,1.484,0,0,1,0,.353c-.018.266-.041.6-.069,1.005-.078.916-.184,2.165-.314,3.688-.3,3.152-.707,7.429-1.157,12.157-.141,1.41-.279,2.78-.409,4.073v-.031c.278,3.747.521,7.015.7,9.4.072,1.138.13,2.063.174,2.749.013.295.024.538.032.738A.881.881,0,0,1,375.209,449.971Z" transform="translate(-373.998 -415.582)" fill="#ff9a6c"/>
            </g>
          </g>
        </g>
      </g>
      <g id="Grupo_160670" data-name="Grupo 160670" transform="translate(143.066 198.91)">
        <g id="Grupo_160607" data-name="Grupo 160607" transform="translate(10.292 0)">
          <path id="Trazado_197300" data-name="Trazado 197300" d="M246.709,303.01l-.529,5.643-.414,26.316.62,17.457-.6.955-5.859,1.675-6.571-1.907.188-12.995,0-6.415-.013-22.147-1.256-8.462-1.281-5.087,3.447,1.434s2.528,6,4.877,6.086,4.9-3.088,4.9-3.088Z" transform="translate(-230.991 -298.042)" fill="#ff725e"/>
        </g>
        <g id="Grupo_160609" data-name="Grupo 160609" transform="translate(11.851 25.808)" opacity="0.3">
          <g id="Grupo_160608" data-name="Grupo 160608">
            <path id="Trazado_197301" data-name="Trazado 197301" d="M248.227,342.53a19.754,19.754,0,0,1,.392,4.818q0,1.628,0,3.255a.356.356,0,0,1-.117.323.418.418,0,0,1-.221.04,4.092,4.092,0,0,1-1.776-.262,2.583,2.583,0,0,1-1.124-1.167,13.341,13.341,0,0,1-.591-1.494,10.437,10.437,0,0,0-1.062-2.068,3.649,3.649,0,0,0-1-1.084,3.875,3.875,0,0,0-1.408-.5,4.5,4.5,0,0,0-2.935.248,4.006,4.006,0,0,0-1.608,1.855,23.06,23.06,0,0,1-1.059,2.21,3.167,3.167,0,0,1-1.953,1.5l-.265-6.991,3.69-3.5,7.126-.164Z" transform="translate(-233.499 -339.542)"/>
          </g>
        </g>
        <g id="Grupo_160611" data-name="Grupo 160611" transform="translate(12.697 10.489)" opacity="0.3">
          <g id="Grupo_160610" data-name="Grupo 160610">
            <path id="Trazado_197302" data-name="Trazado 197302" d="M243.122,314.909l-4.253.524-4.011,1.5.132,1.031c1.56.342,3.389-.22,4.939-.6a6.65,6.65,0,0,1,1.234-.218c1.746-.088,3.4,1.152,5.115.845a10.3,10.3,0,0,0,1.322-.269l.021-1.335Z" transform="translate(-234.858 -314.909)"/>
          </g>
        </g>
        <g id="Grupo_160612" data-name="Grupo 160612" transform="translate(10.945 6.375)">
          <path id="Trazado_197303" data-name="Trazado 197303" d="M232.041,309.242a.921.921,0,0,1,.606-.858,1.429,1.429,0,0,1,.726-.073,22.391,22.391,0,0,1,3.862.982,6.966,6.966,0,0,0,3.4.555c.873-.085,3.356-.9,4.965-1.323a4.4,4.4,0,0,1,1.422-.162.96.96,0,0,1,.923.931v4.2a1.23,1.23,0,0,1-1.07,1.185,8.48,8.48,0,0,1-1.827.118c-1.333-.085-3.31-.726-4.413-.726a8.391,8.391,0,0,0-2.759.47,17.94,17.94,0,0,1-5.04.427l-.02-.008a1.194,1.194,0,0,1-.778-1.1Z" transform="translate(-232.041 -308.294)" fill="#f5f5f5"/>
        </g>
        <g id="Grupo_160613" data-name="Grupo 160613" transform="translate(12.817 43.269)" opacity="0.3">
          <path id="Trazado_197304" data-name="Trazado 197304" d="M235.051,368.553v-.934l12.483.094.022.84a30.135,30.135,0,0,1-6.491.668C239.139,369.169,235.051,368.553,235.051,368.553Z" transform="translate(-235.051 -367.619)"/>
        </g>
        <g id="Grupo_160614" data-name="Grupo 160614" transform="translate(12.723 49.765)" opacity="0.3">
          <path id="Trazado_197305" data-name="Trazado 197305" d="M234.9,379v-.934l12.807.094.023.84a31.677,31.677,0,0,1-6.659.668C239.094,379.615,234.9,379,234.9,379Z" transform="translate(-234.9 -378.065)"/>
        </g>
        <g id="Grupo_160615" data-name="Grupo 160615" transform="translate(11.852 39.233)">
          <path id="Trazado_197306" data-name="Trazado 197306" d="M241.192,362.125a14.824,14.824,0,0,0,5.145-.893,1.429,1.429,0,0,1,1.573.335.7.7,0,0,1,.2.474c-.016.523-.009,1.417,0,1.917a1.433,1.433,0,0,1-.97,1.4,20.255,20.255,0,0,1-6.333.849,21.34,21.34,0,0,1-6.333-.849,1.433,1.433,0,0,1-.97-1.4c.006-.5.014-1.394,0-1.917a.7.7,0,0,1,.2-.476,1.429,1.429,0,0,1,1.565-.337,15.871,15.871,0,0,0,5.356.883Z" transform="translate(-233.5 -361.129)" fill="#f5f5f5"/>
        </g>
        <g id="Grupo_160616" data-name="Grupo 160616" transform="translate(12.843 36.789)" opacity="0.3">
          <path id="Trazado_197307" data-name="Trazado 197307" d="M235.093,358.133V357.2l12.224.137v.8a28.829,28.829,0,0,1-6.345.668C239.089,358.749,235.093,358.133,235.093,358.133Z" transform="translate(-235.093 -357.199)"/>
        </g>
        <g id="Grupo_160617" data-name="Grupo 160617" transform="translate(11.852 32.744)">
          <path id="Trazado_197308" data-name="Trazado 197308" d="M241.192,351.691a14.824,14.824,0,0,0,5.145-.893,1.429,1.429,0,0,1,1.573.335.7.7,0,0,1,.2.475c-.016.523-.009,1.417,0,1.917a1.456,1.456,0,0,1-.5,1.129,1.433,1.433,0,0,1-.474.272,20.216,20.216,0,0,1-6.333.849,21.3,21.3,0,0,1-6.333-.849,1.434,1.434,0,0,1-.474-.272,1.456,1.456,0,0,1-.5-1.129c.006-.5.014-1.394,0-1.917a.7.7,0,0,1,.2-.476,1.429,1.429,0,0,1,1.565-.337,15.87,15.87,0,0,0,5.356.883Z" transform="translate(-233.5 -350.695)" fill="#f5f5f5"/>
        </g>
        <g id="Grupo_160618" data-name="Grupo 160618" transform="translate(11.725 15.088)">
          <path id="Trazado_197309" data-name="Trazado 197309" d="M240.989,323.3a14.833,14.833,0,0,0,5.144-.892,1.429,1.429,0,0,1,1.573.334.7.7,0,0,1,.2.475c-.017.523-.009,1.417,0,1.917a1.456,1.456,0,0,1-.5,1.13,1.438,1.438,0,0,1-.474.272,20.236,20.236,0,0,1-6.333.85,21.32,21.32,0,0,1-6.333-.85,1.428,1.428,0,0,1-.474-.272,1.454,1.454,0,0,1-.5-1.13c.006-.5.013-1.394,0-1.917a.7.7,0,0,1,.2-.477,1.43,1.43,0,0,1,1.565-.337,15.858,15.858,0,0,0,5.355.884Z" transform="translate(-233.296 -322.304)" fill="#f5f5f5"/>
        </g>
        <g id="Grupo_160619" data-name="Grupo 160619" transform="translate(11.852 45.722)">
          <path id="Trazado_197310" data-name="Trazado 197310" d="M241.192,372.559a14.823,14.823,0,0,0,5.145-.893,1.429,1.429,0,0,1,1.573.335.7.7,0,0,1,.2.474c-.016.524-.009,1.417,0,1.917a1.434,1.434,0,0,1-.97,1.4,20.238,20.238,0,0,1-6.333.85,21.321,21.321,0,0,1-6.333-.85,1.434,1.434,0,0,1-.97-1.4c.006-.5.014-1.394,0-1.917a.7.7,0,0,1,.2-.476,1.429,1.429,0,0,1,1.565-.337,15.868,15.868,0,0,0,5.356.883Z" transform="translate(-233.5 -371.563)" fill="#f5f5f5"/>
        </g>
        <g id="Grupo_160620" data-name="Grupo 160620" transform="translate(11.852 52.138)">
          <path id="Trazado_197311" data-name="Trazado 197311" d="M241.192,382.876a14.826,14.826,0,0,0,5.145-.893,1.429,1.429,0,0,1,1.573.335.7.7,0,0,1,.2.474c-.016.524-.009,1.417,0,1.917a1.434,1.434,0,0,1-.97,1.4,20.236,20.236,0,0,1-6.333.849,21.319,21.319,0,0,1-6.333-.849,1.434,1.434,0,0,1-.97-1.4c.006-.5.014-1.394,0-1.917a.7.7,0,0,1,.2-.476,1.429,1.429,0,0,1,1.565-.337,15.891,15.891,0,0,0,5.356.884Z" transform="translate(-233.5 -381.88)" fill="#f5f5f5"/>
        </g>
        <g id="Grupo_160669" data-name="Grupo 160669" transform="translate(0 6.958)">
          <g id="Grupo_160621" data-name="Grupo 160621" transform="translate(0.096 0.089)">
            <path id="Trazado_197312" data-name="Trazado 197312" d="M251.2,313.99a10.908,10.908,0,0,0-2.08-3.3,3.608,3.608,0,0,0-1.361-1.022,2.457,2.457,0,0,0-2.9.73c-.8.728-3.569,6.017-5.43,9.807-.656,1.335-3.367,3.621-5.744,3.657l0-.023c-.076.009-.154.008-.232.012s-.155,0-.232-.012l0,.023c-2.377-.037-4.776-2.767-5.432-4.1-1.731-3.526-3.363-7.121-4.391-8.913a2.71,2.71,0,0,0-.668-.807,3.719,3.719,0,0,0-4.98.691,13.108,13.108,0,0,0-3.048,7.45,28.727,28.727,0,0,0,.564,8.12,25.014,25.014,0,0,0,2.191,7.1,10.655,10.655,0,0,0,6.1,5.474,3.82,3.82,0,0,0,2.092.077c2.894-.778,2.489-4.565,4.442-6.412a5.106,5.106,0,0,1,6.737,0c1.953,1.846,1.547,5.634,4.442,6.412a3.82,3.82,0,0,0,2.092-.077,10.653,10.653,0,0,0,6.1-5.474,25.014,25.014,0,0,0,2.191-7.1C252.394,322.232,252.8,318.033,251.2,313.99Z" transform="translate(-214.597 -309.374)" fill="#ff725e"/>
          </g>
          <g id="Grupo_160623" data-name="Grupo 160623" transform="translate(0.1 10.205)" opacity="0.3">
            <g id="Grupo_160622" data-name="Grupo 160622">
              <path id="Trazado_197313" data-name="Trazado 197313" d="M251.643,331.051a25,25,0,0,1-2.191,7.1,10.652,10.652,0,0,1-6.1,5.475,3.83,3.83,0,0,1-2.09.077c-2.895-.777-2.489-4.565-4.443-6.412a4.525,4.525,0,0,0-2.094-1.059,5.4,5.4,0,0,0-2.548,0,4.53,4.53,0,0,0-2.094,1.059c-1.953,1.847-1.547,5.635-4.442,6.412a3.83,3.83,0,0,1-2.09-.077,10.653,10.653,0,0,1-6.1-5.475,25,25,0,0,1-2.191-7.1,36.156,36.156,0,0,1-.647-5.411,31.9,31.9,0,0,0,.647,6.813,25.016,25.016,0,0,0,2.191,7.1,10.653,10.653,0,0,0,6.1,5.475,3.835,3.835,0,0,0,2.09.077c2.894-.778,2.489-4.565,4.442-6.412a5.1,5.1,0,0,1,2.837-1.2,3.627,3.627,0,0,1,1.063,0,5.1,5.1,0,0,1,2.836,1.2c1.953,1.846,1.548,5.634,4.442,6.412a3.827,3.827,0,0,0,2.089-.077,10.655,10.655,0,0,0,6.1-5.475,25.015,25.015,0,0,0,2.191-7.1,31.983,31.983,0,0,0,.65-6.782A36.258,36.258,0,0,1,251.643,331.051Z" transform="translate(-214.602 -325.64)"/>
            </g>
          </g>
          <g id="Grupo_160625" data-name="Grupo 160625">
            <g id="Grupo_160624" data-name="Grupo 160624">
              <path id="Trazado_197314" data-name="Trazado 197314" d="M251.143,313.936s.049.112.133.335.208.555.341,1a16.548,16.548,0,0,1,.65,4.009,29.835,29.835,0,0,1-.529,6.407,25.39,25.39,0,0,1-2.518,8.116,11.874,11.874,0,0,1-3.24,3.738,8.816,8.816,0,0,1-2.338,1.243,3.858,3.858,0,0,1-2.725.1,3.582,3.582,0,0,1-2.014-1.962c-.429-.871-.7-1.812-1.1-2.708A4.392,4.392,0,0,0,235.937,332a5.442,5.442,0,0,0-2.937-.609,4.846,4.846,0,0,0-2.847,1.1,6.8,6.8,0,0,0-1.574,2.746,7.965,7.965,0,0,1-1.552,2.938,3.372,3.372,0,0,1-1.493.831A3.8,3.8,0,0,1,223.81,339a9.909,9.909,0,0,1-5.537-4.033,18.392,18.392,0,0,1-2.729-6.579,48.536,48.536,0,0,1-.978-5.816,20.69,20.69,0,0,1,.162-5.757,13.189,13.189,0,0,1,2.086-5.187,5.813,5.813,0,0,1,1.96-1.925,3.87,3.87,0,0,1,2.663-.386,3.255,3.255,0,0,1,1.23.559,2.94,2.94,0,0,1,.839,1.04c.425.762.807,1.534,1.185,2.3l2.163,4.5c.354.729.7,1.463,1.056,2.158a9.021,9.021,0,0,0,1.427,1.824,6.064,6.064,0,0,0,3.82,2.032l-.078.065,0-.023.011-.068.075,0,.226.011h-.007l.227-.011.074,0,.011.068,0,.022-.077-.065a5.869,5.869,0,0,0,2.588-.774,9.49,9.49,0,0,0,2.095-1.554,5.923,5.923,0,0,0,.809-.956c.221-.339.383-.727.57-1.086q.551-1.087,1.071-2.114,1.051-2.045,2.024-3.8c.328-.583.643-1.145.965-1.673a9.24,9.24,0,0,1,1.022-1.46l-.007.009a2.106,2.106,0,0,1,1.762-.929,2.918,2.918,0,0,1,1.714.461,5.5,5.5,0,0,1,1.1,1.055,11.156,11.156,0,0,1,.757,1.007,10.232,10.232,0,0,1,.828,1.486c.157.349.217.535.217.535s-.076-.18-.239-.524a10.879,10.879,0,0,0-.846-1.469,11.425,11.425,0,0,0-.763-1,5.519,5.519,0,0,0-1.1-1.035,2.847,2.847,0,0,0-1.672-.437,2.017,2.017,0,0,0-1.687.9v0l-.006.007a9.268,9.268,0,0,0-1,1.444c-.319.528-.632,1.089-.956,1.673q-.965,1.757-2.009,3.809l-1.063,2.116c-.187.362-.342.739-.575,1.1a5.968,5.968,0,0,1-.825.981,9.579,9.579,0,0,1-2.122,1.583,6.011,6.011,0,0,1-2.656.8l-.067,0-.011-.067,0-.022.085.064-.238.012h-.007l-.237-.012.085-.065,0,.023-.011.068-.067,0a6.212,6.212,0,0,1-3.934-2.071,9.182,9.182,0,0,1-1.456-1.858c-.37-.711-.707-1.433-1.065-2.165l-2.168-4.5c-.378-.762-.76-1.533-1.184-2.289a2.744,2.744,0,0,0-.79-.983,3.065,3.065,0,0,0-1.161-.525,3.686,3.686,0,0,0-2.534.371,5.625,5.625,0,0,0-1.893,1.869,12.992,12.992,0,0,0-2.053,5.114c-.68,3.726-.017,7.646.816,11.494a18.209,18.209,0,0,0,2.7,6.512,9.728,9.728,0,0,0,5.42,3.96,3.624,3.624,0,0,0,1.637.006,3.186,3.186,0,0,0,1.406-.781,7.826,7.826,0,0,0,1.51-2.869,6.962,6.962,0,0,1,1.626-2.817,5.016,5.016,0,0,1,2.956-1.147,5.612,5.612,0,0,1,3.034.634,3.9,3.9,0,0,1,1.173.994,6.536,6.536,0,0,1,.762,1.3c.4.912.675,1.852,1.094,2.7a3.416,3.416,0,0,0,1.919,1.884,3.7,3.7,0,0,0,2.62-.092,8.687,8.687,0,0,0,2.3-1.216,11.757,11.757,0,0,0,3.209-3.685,25.371,25.371,0,0,0,2.53-8.067,30.064,30.064,0,0,0,.56-6.386,16.886,16.886,0,0,0-.613-4c-.126-.446-.238-.782-.322-1.006S251.143,313.936,251.143,313.936Z" transform="translate(-214.442 -309.231)" fill="#263238"/>
            </g>
          </g>
          <g id="Grupo_160637" data-name="Grupo 160637" transform="translate(0.977 1.004)" opacity="0.2">
            <g id="Grupo_160626" data-name="Grupo 160626" transform="translate(0.547 12.924)">
              <path id="Trazado_197315" data-name="Trazado 197315" d="M222.572,333.332a4.077,4.077,0,0,0-1.863-1.54,1.924,1.924,0,0,0-.813-.165h0a1.681,1.681,0,0,0-.429.053,3.9,3.9,0,0,0-2.262,2.049,2.1,2.1,0,0,0-.309,1.119,1.952,1.952,0,0,0,.405.95,3.256,3.256,0,0,0,2.928,1.455,3.576,3.576,0,0,0,1.271-.466,3.3,3.3,0,0,0,1.023-.822A2.368,2.368,0,0,0,222.572,333.332Z" transform="translate(-216.892 -331.628)" fill="#fff"/>
            </g>
            <g id="Grupo_160627" data-name="Grupo 160627" transform="translate(3.89 2.66)">
              <path id="Trazado_197316" data-name="Trazado 197316" d="M227.349,316.839a3.837,3.837,0,0,0-1.677-1.548,1.583,1.583,0,0,0-.73-.169h0a1.351,1.351,0,0,0-.384.05,3.607,3.607,0,0,0-2.015,2.038,2.267,2.267,0,0,0-.271,1.116,2.1,2.1,0,0,0,.369.952,2.866,2.866,0,0,0,2.631,1.47,3.549,3.549,0,0,0,2.049-1.277A2.6,2.6,0,0,0,227.349,316.839Z" transform="translate(-222.268 -315.122)" fill="#fff"/>
            </g>
            <g id="Grupo_160628" data-name="Grupo 160628" transform="translate(6.892 16.088)">
              <path id="Trazado_197317" data-name="Trazado 197317" d="M231.395,338.209a2.366,2.366,0,0,0-.671-.966,2.138,2.138,0,0,0-1.452-.528l-.386,0a1.786,1.786,0,0,0-.914.237,1.993,1.993,0,0,0-.848,1.5,1.956,1.956,0,0,0,.237,1.317,2.207,2.207,0,0,0,4.079-.793A1.544,1.544,0,0,0,231.395,338.209Z" transform="translate(-227.095 -336.715)" fill="#fff"/>
            </g>
            <g id="Grupo_160629" data-name="Grupo 160629" transform="translate(12.432 14.435)">
              <path id="Trazado_197318" data-name="Trazado 197318" d="M241.924,335.6a1.963,1.963,0,0,0-2.107-1.525,4.317,4.317,0,0,0-1.43.509,4.991,4.991,0,0,0-1.836,1.386,3.47,3.47,0,0,0-.454,2.732.969.969,0,0,0,.195.466,1.121,1.121,0,0,0,.893.252,5.51,5.51,0,0,0,4.453-2.836A1.819,1.819,0,0,0,241.924,335.6Z" transform="translate(-236.004 -334.056)" fill="#fff"/>
            </g>
            <g id="Grupo_160630" data-name="Grupo 160630" transform="translate(6.334 21.693)">
              <path id="Trazado_197319" data-name="Trazado 197319" d="M227.689,345.824a6.324,6.324,0,0,0-1.324,1.871,2.025,2.025,0,0,0,.3,2.126,2.083,2.083,0,0,0,.711.469,2.429,2.429,0,0,0,1.124.19,2.307,2.307,0,0,0,1.255-.517,1.9,1.9,0,0,0,.5-.606,1.877,1.877,0,0,0,.056-1.412,4.492,4.492,0,0,0-.721-1.273,2.677,2.677,0,0,0-.8-.774,1.152,1.152,0,0,0-1.1-.051" transform="translate(-226.198 -345.728)" fill="#fff"/>
            </g>
            <g id="Grupo_160631" data-name="Grupo 160631" transform="translate(8.9 11.629)">
              <path id="Trazado_197320" data-name="Trazado 197320" d="M230.592,332.641a6.16,6.16,0,0,0,2,.775,1.746,1.746,0,0,0,1.782-.731,1.817,1.817,0,0,0,.216-.736,2.285,2.285,0,0,0-.143-1.045,2.316,2.316,0,0,0-.8-1.007,1.857,1.857,0,0,0-.67-.318,1.654,1.654,0,0,0-1.253.257,3.753,3.753,0,0,0-.918.921,2.25,2.25,0,0,0-.46.878,1.1,1.1,0,0,0,.258.994" transform="translate(-230.325 -329.545)" fill="#fff"/>
            </g>
            <g id="Grupo_160632" data-name="Grupo 160632" transform="translate(10.129 20.187)">
              <path id="Trazado_197321" data-name="Trazado 197321" d="M234.154,346.285a4.275,4.275,0,0,0,1.123-1.1,1.113,1.113,0,0,0-.073-1.356,1.536,1.536,0,0,0-.5-.338,2.085,2.085,0,0,0-.827-.188,1.968,1.968,0,0,0-.974.249,1.319,1.319,0,0,0-.42.351,1.02,1.02,0,0,0-.142.884,2.644,2.644,0,0,0,.449.845,1.807,1.807,0,0,0,.539.535,1,1,0,0,0,.82.1" transform="translate(-232.301 -343.307)" fill="#fff"/>
            </g>
            <g id="Grupo_160633" data-name="Grupo 160633" transform="translate(9.078 8.589)">
              <path id="Trazado_197322" data-name="Trazado 197322" d="M232.1,327.051a3.447,3.447,0,0,0,.9-.881.9.9,0,0,0-.059-1.09,1.259,1.259,0,0,0-.4-.272,1.678,1.678,0,0,0-.665-.15,1.584,1.584,0,0,0-.784.2,1.079,1.079,0,0,0-.337.282.821.821,0,0,0-.114.711,2.124,2.124,0,0,0,.361.679,1.462,1.462,0,0,0,.433.43.807.807,0,0,0,.659.079" transform="translate(-230.611 -324.657)" fill="#fff"/>
            </g>
            <g id="Grupo_160634" data-name="Grupo 160634" transform="translate(4.027 8.999)">
              <path id="Trazado_197323" data-name="Trazado 197323" d="M225.779,325.413a3.513,3.513,0,0,0-2.4.274,1.621,1.621,0,0,0-.626.5,1.712,1.712,0,0,0-.235.747,1.785,1.785,0,0,0,.326,1.516,2.17,2.17,0,0,0,.948.485q.483.148.978.261a2.684,2.684,0,0,0,2.111-.156,1.646,1.646,0,0,0,.411-2.028,3.135,3.135,0,0,0-1.572-1.617" transform="translate(-222.489 -325.316)" fill="#fff"/>
            </g>
            <g id="Grupo_160635" data-name="Grupo 160635" transform="translate(0 5.254)">
              <path id="Trazado_197324" data-name="Trazado 197324" d="M219.352,324.012a12.99,12.99,0,0,0-.685-3.971,1.065,1.065,0,0,0-.662-.724,1.093,1.093,0,0,0-1.027.424,3.475,3.475,0,0,0-.685,1.653,14.655,14.655,0,0,0-.253,3.728c.125,1.229.526,1.708,1.13,1.9a1.342,1.342,0,0,0,.933-.111,2.166,2.166,0,0,0,.95-.818A3.437,3.437,0,0,0,219.352,324.012Z" transform="translate(-216.013 -319.295)" fill="#fff"/>
            </g>
            <g id="Grupo_160636" data-name="Grupo 160636" transform="translate(1.422)">
              <path id="Trazado_197325" data-name="Trazado 197325" d="M218.637,314.709a2.167,2.167,0,0,0,.978.3,1.914,1.914,0,0,0,.978-.415c.652-.439,1.1-.921,1.76-1.352a1.992,1.992,0,0,0,.749-.72,1.163,1.163,0,0,0-.477-1.444,1.784,1.784,0,0,0-1.682-.05,3.762,3.762,0,0,0-1.05.864l-1.213,1.275S217.854,314.141,218.637,314.709Z" transform="translate(-218.3 -310.845)" fill="#fff"/>
            </g>
          </g>
          <g id="Grupo_160650" data-name="Grupo 160650" transform="translate(2.599 0.881)" opacity="0.2">
            <g id="Grupo_160638" data-name="Grupo 160638" transform="translate(27.499 13.691)">
              <path id="Trazado_197326" data-name="Trazado 197326" d="M263.3,334.226a4.136,4.136,0,0,1,1.954-1.439,1.937,1.937,0,0,1,.823-.121h0a1.724,1.724,0,0,1,.425.075,3.859,3.859,0,0,1,2.132,2.166,2.1,2.1,0,0,1,.24,1.133,1.98,1.98,0,0,1-.463.927,3.286,3.286,0,0,1-3.013,1.3,3.56,3.56,0,0,1-1.24-.532,3.246,3.246,0,0,1-.971-.876A2.369,2.369,0,0,1,263.3,334.226Z" transform="translate(-262.839 -332.662)" fill="#fff"/>
            </g>
            <g id="Grupo_160639" data-name="Grupo 160639" transform="translate(25.42 3.284)">
              <path id="Trazado_197327" data-name="Trazado 197327" d="M259.928,317.518a3.9,3.9,0,0,1,1.77-1.457,1.6,1.6,0,0,1,.739-.13h0a1.359,1.359,0,0,1,.38.071,3.566,3.566,0,0,1,1.886,2.141,2.261,2.261,0,0,1,.2,1.129,2.122,2.122,0,0,1-.427.931,2.894,2.894,0,0,1-2.718,1.327,3.515,3.515,0,0,1-1.966-1.383A2.6,2.6,0,0,1,259.928,317.518Z" transform="translate(-259.496 -315.928)" fill="#fff"/>
            </g>
            <g id="Grupo_160640" data-name="Grupo 160640" transform="translate(22.717 16.557)">
              <path id="Trazado_197328" data-name="Trazado 197328" d="M255.255,338.654a2.393,2.393,0,0,1,.729-.93,2.149,2.149,0,0,1,1.482-.45l.385.024a1.773,1.773,0,0,1,.9.285,2.25,2.25,0,0,1,.437,2.845,2.2,2.2,0,0,1-4.023-1.008A1.542,1.542,0,0,1,255.255,338.654Z" transform="translate(-255.151 -337.27)" fill="#fff"/>
            </g>
            <g id="Grupo_160641" data-name="Grupo 160641" transform="translate(27.477 19.99)">
              <path id="Trazado_197329" data-name="Trazado 197329" d="M267.58,344.819a5.046,5.046,0,0,0-1.6-1.484,3.767,3.767,0,0,0-1.23-.515,1.747,1.747,0,0,0-1.935,1.243,1.591,1.591,0,0,0,.2.879c.671,1.41,1.187,2.191,2.839,2.351A12.951,12.951,0,0,0,267.58,344.819Z" transform="translate(-262.804 -342.792)" fill="#fff"/>
            </g>
            <g id="Grupo_160642" data-name="Grupo 160642" transform="translate(0 19.51)">
              <path id="Trazado_197330" data-name="Trazado 197330" d="M220.046,346.073a7.36,7.36,0,0,0,2.448-.889,3.54,3.54,0,0,0,.992-.85,1.243,1.243,0,0,0,.2-1.2,1.511,1.511,0,0,0-.671-.943,1.934,1.934,0,0,0-.948-.175c-1.66.021-2.637.155-3.442,1.5A11.169,11.169,0,0,0,220.046,346.073Z" transform="translate(-218.621 -342.019)" fill="#fff"/>
            </g>
            <g id="Grupo_160643" data-name="Grupo 160643" transform="translate(23.018 22.196)">
              <path id="Trazado_197331" data-name="Trazado 197331" d="M258.541,346.462a6.254,6.254,0,0,1,1.207,1.937,2.033,2.033,0,0,1-.431,2.107,2.11,2.11,0,0,1-.738.43,2.443,2.443,0,0,1-1.134.131,2.288,2.288,0,0,1-1.221-.583,1.713,1.713,0,0,1-.435-2.045,4.532,4.532,0,0,1,.8-1.233,2.7,2.7,0,0,1,.841-.731,1.153,1.153,0,0,1,1.1.007" transform="translate(-255.634 -346.339)" fill="#fff"/>
            </g>
            <g id="Grupo_160644" data-name="Grupo 160644" transform="translate(21.066 11.992)">
              <path id="Trazado_197332" data-name="Trazado 197332" d="M256.448,333.134a6.244,6.244,0,0,1-2.048.667,1.732,1.732,0,0,1-1.734-.825,1.794,1.794,0,0,1-.17-.746,2.288,2.288,0,0,1,.206-1.035,2.349,2.349,0,0,1,.859-.963,1.886,1.886,0,0,1,.688-.281,1.647,1.647,0,0,1,1.236.323,3.69,3.69,0,0,1,.859.968,2.24,2.24,0,0,1,.4.9,1.107,1.107,0,0,1-.319.979" transform="translate(-252.495 -329.93)" fill="#fff"/>
            </g>
            <g id="Grupo_160645" data-name="Grupo 160645" transform="translate(20.48 20.512)">
              <path id="Trazado_197333" data-name="Trazado 197333" d="M252.762,346.59a4.22,4.22,0,0,1-1.054-1.154,1.115,1.115,0,0,1,.157-1.349,1.574,1.574,0,0,1,.518-.311,2.1,2.1,0,0,1,.837-.144,1.957,1.957,0,0,1,.958.3,1.305,1.305,0,0,1,.4.373,1.016,1.016,0,0,1,.088.891,2.663,2.663,0,0,1-.5.819,1.821,1.821,0,0,1-.571.506,1,1,0,0,1-.825.055" transform="translate(-251.554 -343.63)" fill="#fff"/>
            </g>
            <g id="Grupo_160646" data-name="Grupo 160646" transform="translate(22.879 9.005)">
              <path id="Trazado_197334" data-name="Trazado 197334" d="M256.381,327.507a3.4,3.4,0,0,1-.847-.928.9.9,0,0,1,.126-1.085,1.26,1.26,0,0,1,.416-.25,1.7,1.7,0,0,1,.673-.116,1.578,1.578,0,0,1,.77.241,1.058,1.058,0,0,1,.32.3.819.819,0,0,1,.07.716,2.138,2.138,0,0,1-.4.659,1.465,1.465,0,0,1-.46.407.806.806,0,0,1-.663.044" transform="translate(-255.41 -325.127)" fill="#fff"/>
            </g>
            <g id="Grupo_160647" data-name="Grupo 160647" transform="translate(25.371 9.615)">
              <path id="Trazado_197335" data-name="Trazado 197335" d="M261.259,326.167a3.5,3.5,0,0,1,2.376.4,1.611,1.611,0,0,1,.593.538,1.694,1.694,0,0,1,.189.758,1.8,1.8,0,0,1-.419,1.5,2.2,2.2,0,0,1-.977.434q-.492.122-.993.209a2.676,2.676,0,0,1-2.1-.267,1.639,1.639,0,0,1-.286-2.047,3.172,3.172,0,0,1,1.669-1.531" transform="translate(-259.417 -326.108)" fill="#fff"/>
            </g>
            <g id="Grupo_160648" data-name="Grupo 160648" transform="translate(31.05 6.129)">
              <path id="Trazado_197336" data-name="Trazado 197336" d="M268.63,325.132a13.081,13.081,0,0,1,.928-3.929.915.915,0,0,1,1.7-.21,3.442,3.442,0,0,1,.583,1.687,14.641,14.641,0,0,1,.024,3.736c-.2,1.22-.63,1.678-1.246,1.835a1.335,1.335,0,0,1-.924-.161,2.139,2.139,0,0,1-.9-.868A3.425,3.425,0,0,1,268.63,325.132Z" transform="translate(-268.55 -320.502)" fill="#fff"/>
            </g>
            <g id="Grupo_160649" data-name="Grupo 160649" transform="translate(28.41)">
              <path id="Trazado_197337" data-name="Trazado 197337" d="M269.186,315.988a2.422,2.422,0,0,1-1.192.25,2.1,2.1,0,0,1-1.068-.66c-.684-.645-1.119-1.318-1.818-1.955a2.382,2.382,0,0,1-.749-1.015,1.581,1.581,0,0,1,.806-1.766,1.944,1.944,0,0,1,1.969.166,4.436,4.436,0,0,1,1.074,1.239l1.193,1.783S270.2,315.376,269.186,315.988Z" transform="translate(-264.305 -310.647)" fill="#fff"/>
            </g>
          </g>
          <g id="Grupo_160652" data-name="Grupo 160652" transform="translate(20.049 16.794)" opacity="0.2">
            <g id="Grupo_160651" data-name="Grupo 160651">
              <path id="Trazado_197338" data-name="Trazado 197338" d="M250.99,337.813a2.11,2.11,0,0,0-.741-1.083,1.074,1.074,0,0,0-.68-.377l.023-.012a1.714,1.714,0,0,0-1.364.085,3.858,3.858,0,0,0-1.079.838,1.662,1.662,0,0,0-.427.6,1.31,1.31,0,0,0,.8,1.424,3.7,3.7,0,0,0,1.373.382,1.983,1.983,0,0,0,1.342-.236,1.722,1.722,0,0,0,.468-.557A1.646,1.646,0,0,0,250.99,337.813Z" transform="translate(-246.68 -336.235)" fill="#fff"/>
            </g>
          </g>
          <g id="Grupo_160654" data-name="Grupo 160654" transform="translate(1.452 8.051)" opacity="0.2">
            <g id="Grupo_160653" data-name="Grupo 160653">
              <path id="Trazado_197339" data-name="Trazado 197339" d="M217.062,327.039a7.466,7.466,0,0,1,.277-4.863c.092.025-.151,1.091-.223,2.427S217.156,327.024,217.062,327.039Z" transform="translate(-216.777 -322.176)" fill="#fff"/>
            </g>
          </g>
          <g id="Grupo_160656" data-name="Grupo 160656" transform="translate(2.358 16.309)" opacity="0.2">
            <g id="Grupo_160655" data-name="Grupo 160655">
              <path id="Trazado_197340" data-name="Trazado 197340" d="M219.2,337.491c-.047.07-.538-.229-.806-.858s-.14-1.195-.057-1.176.113.506.354,1.048S219.265,337.419,219.2,337.491Z" transform="translate(-218.233 -335.456)" fill="#fff"/>
            </g>
          </g>
          <g id="Grupo_160658" data-name="Grupo 160658" transform="translate(5.244 11.374)" opacity="0.2">
            <g id="Grupo_160657" data-name="Grupo 160657">
              <path id="Trazado_197341" data-name="Trazado 197341" d="M223.3,328.98c-.055.067-.4-.2-.428-.7s.287-.809.349-.748-.053.355-.026.729S223.375,328.919,223.3,328.98Z" transform="translate(-222.874 -327.52)" fill="#fff"/>
            </g>
          </g>
          <g id="Grupo_160660" data-name="Grupo 160660" transform="translate(3.147 2.492)" opacity="0.2">
            <g id="Grupo_160659" data-name="Grupo 160659">
              <path id="Trazado_197342" data-name="Trazado 197342" d="M219.537,315.041c-.085-.013-.027-.583.394-1.119s.942-.746.979-.67-.355.388-.723.868S219.627,315.065,219.537,315.041Z" transform="translate(-219.503 -313.237)" fill="#fff"/>
            </g>
          </g>
          <g id="Grupo_160662" data-name="Grupo 160662" transform="translate(24.186 13.556)" opacity="0.2">
            <g id="Grupo_160661" data-name="Grupo 160661">
              <path id="Trazado_197343" data-name="Trazado 197343" d="M253.451,332.878c-.083.032-.256-.547.088-1.144s.9-.768.92-.685c.044.083-.366.349-.637.844C253.534,332.382,253.543,332.866,253.451,332.878Z" transform="translate(-253.333 -331.03)" fill="#fff"/>
            </g>
          </g>
          <g id="Grupo_160664" data-name="Grupo 160664" transform="translate(25.902 10.465)" opacity="0.2">
            <g id="Grupo_160663" data-name="Grupo 160663">
              <path id="Trazado_197344" data-name="Trazado 197344" d="M256.206,326.625c-.041.01-.1-.034-.111-.136a.4.4,0,0,1,.157-.332.412.412,0,0,1,.348-.089c.095.026.132.084.12.125-.035.084-.159.123-.265.216S256.292,326.591,256.206,326.625Z" transform="translate(-256.093 -326.058)" fill="#fff"/>
            </g>
          </g>
          <g id="Grupo_160666" data-name="Grupo 160666" transform="translate(28.345 5.803)" opacity="0.2">
            <g id="Grupo_160665" data-name="Grupo 160665">
              <path id="Trazado_197345" data-name="Trazado 197345" d="M260.224,320.668c-.078.036-.321-.5-.133-1.164s.656-1,.706-.934c.067.066-.243.456-.394,1.021S260.315,320.644,260.224,320.668Z" transform="translate(-260.021 -318.562)" fill="#fff"/>
            </g>
          </g>
          <g id="Grupo_160668" data-name="Grupo 160668" transform="translate(31.38 1.504)" opacity="0.2">
            <g id="Grupo_160667" data-name="Grupo 160667">
              <path id="Trazado_197346" data-name="Trazado 197346" d="M265.156,313.257c-.072.049-.342-.346-.224-.881s.514-.786.562-.714c.063.068-.16.364-.246.782S265.241,313.219,265.156,313.257Z" transform="translate(-264.902 -311.65)" fill="#fff"/>
            </g>
          </g>
        </g>
      </g>
    </g>
  </g>
</svg>
