<svg xmlns="http://www.w3.org/2000/svg" xmlns:xlink="http://www.w3.org/1999/xlink" width="402.642" height="373.835" viewBox="0 0 402.642 373.835">
  <defs>
    <linearGradient id="linear-gradient" x1="-0.088" y1="1.297" x2="0.603" y2="0.362" gradientUnits="objectBoundingBox">
      <stop offset="0" stop-color="#81d4fa"/>
      <stop offset="0.424" stop-color="#81d4fa"/>
      <stop offset="1" stop-color="#7e5ee3"/>
    </linearGradient>
  </defs>
  <g id="Grupo_163041" data-name="Grupo 163041" transform="translate(-183.598 -490.999)">
    <g id="Grupo_162522" data-name="Grupo 162522" transform="translate(10329.598 2266.269)">
      <path id="Trazado_100532" data-name="Trazado 100532" d="M337.382,72.751c-19.689-20.583-90-88.337-235.326-69.469C3.878,16.029-4.008,73.4,1.209,109.284a118.834,118.834,0,0,0,11.546,35.976c5.1,10.192,13.7,30.9,11.485,50.991-1.792,16.278,33.752,113.209,210.011,95.2S368.38,105.158,337.382,72.751Z" transform="translate(-10146 -1692.248) rotate(-8)" fill="#81d4fa"/>
      <path id="Trazado_100534" data-name="Trazado 100534" d="M921.708,275.229c16.454-22.656,75.219-97.232,196.666-76.465,82.049,14.031,88.639,77.182,84.279,116.677a161.768,161.768,0,0,1-9.649,39.6c-4.258,11.218-11.446,34.009-9.6,56.126,1.5,17.917-28.207,124.609-175.51,104.785S895.8,310.9,921.708,275.229Z" transform="translate(-10994.971 -1925.117)" fill="url(#linear-gradient)"/>
      <g id="Grupo_53817" data-name="Grupo 53817" transform="translate(-10116.317 -1488.7)">
        <path id="Trazado_100506" data-name="Trazado 100506" d="M991.11,495.074,942.835,543a2.55,2.55,0,0,1-3.593-3.619l48.275-47.925a2.55,2.55,0,1,1,3.593,3.619Z" transform="translate(-918.245 -490.714)" fill="#fff"/>
        <path id="Trazado_100507" data-name="Trazado 100507" d="M928.181,569.219l-12.187,12.1A2.55,2.55,0,1,1,912.4,577.7l12.186-12.1a2.55,2.55,0,1,1,3.592,3.619Z" transform="translate(-911.649 -508.934)" fill="#fff"/>
      </g>
      <g id="Grupo_53818" data-name="Grupo 53818" transform="translate(-10087.768 -1467.949)">
        <path id="Trazado_100508" data-name="Trazado 100508" d="M997.584,520.853,968.353,549.41a1.532,1.532,0,1,1-2.14-2.191l29.231-28.557a1.532,1.532,0,0,1,2.141,2.191Z" transform="translate(-953.492 -518.226)" fill="#7e5ee3"/>
        <path id="Trazado_100509" data-name="Trazado 100509" d="M959.48,565.034l-7.38,7.209a1.532,1.532,0,0,1-2.141-2.192l7.379-7.208a1.532,1.532,0,1,1,2.141,2.191Z" transform="translate(-949.499 -529.083)" fill="#7e5ee3"/>
      </g>
      <path id="Trazado_100510" data-name="Trazado 100510" d="M1206.542,150.811l-36.71,32.069a1.827,1.827,0,0,0,2.4,2.752l36.71-32.069a1.827,1.827,0,1,0-2.4-2.752Z" transform="translate(-10988.913 -1869.706)" fill="#81d4fa"/>
      <path id="Trazado_100511" data-name="Trazado 100511" d="M1157.075,204.348l-9.267,8.1a1.827,1.827,0,1,0,2.4,2.752l9.267-8.1a1.827,1.827,0,0,0-2.4-2.752Z" transform="translate(-10982.282 -1885.82)" fill="#81d4fa"/>
      <circle id="Elipse_4060" data-name="Elipse 4060" cx="11.915" cy="11.915" r="11.915" transform="translate(-10091.136 -1519.829)" fill="#ff9d00"/>
      <circle id="Elipse_4061" data-name="Elipse 4061" cx="14.237" cy="14.237" r="14.237" transform="translate(-9801.098 -1676.811)" fill="#ff9d00"/>
    </g>
    <g id="Grupo_162853" data-name="Grupo 162853" transform="translate(175.341 382.314)">
      <g id="Grupo_162852" data-name="Grupo 162852" transform="translate(45.146 108.685)">
        <path id="Trazado_202502" data-name="Trazado 202502" d="M118.127,372.332l19.6-69.611,27.149-42.4,34.533,70.02,14.733,26.287s-17.833,13.446-26.978,20.577-16.088,21.082-16.088,21.082l-42.521-15.4Z" transform="translate(-52.103 -121.577)" fill="#ffdbb0"/>
        <path id="Trazado_202503" data-name="Trazado 202503" d="M152.291,356.868c.127,7.535.953,15.577,5.695,21.433,3.335,4.119,8.26,6.687,11.723,10.7,2.374,2.751,3.973,6.069,5.8,9.222,2.532-4.452,7.974-13.121,14.558-18.256,9.145-7.131,26.978-20.577,26.978-20.577L202.308,333.1l-19.9-40.344L162.568,295.9A169.5,169.5,0,0,0,152.291,356.868Z" transform="translate(-55.005 -124.334)" fill="#fccc9c"/>
        <path id="Trazado_202504" data-name="Trazado 202504" d="M352.4,116.993l-179.185-8.3a5.176,5.176,0,0,0-5.411,4.932l-10.962,236.59a5.178,5.178,0,0,0,4.933,5.411l179.185,8.3a5.176,5.176,0,0,0,5.411-4.932L357.328,122.4A5.177,5.177,0,0,0,352.4,116.993Z" transform="translate(-55.393 -108.685)" fill="#e3a45c"/>
        <path id="Trazado_202505" data-name="Trazado 202505" d="M350.825,119.267l-174.732-8.1a5.177,5.177,0,0,0-5.411,4.933L159.9,348.735a5.176,5.176,0,0,0,4.932,5.41l174.732,8.1a5.176,5.176,0,0,0,5.411-4.932l10.778-232.629A5.177,5.177,0,0,0,350.825,119.267Z" transform="translate(-55.654 -108.896)" fill="#d08e48"/>
        <path id="Trazado_202506" data-name="Trazado 202506" d="M335.229,356.39l-165.016-7.646a2.362,2.362,0,0,1-2.25-2.469L177.94,130.95a2.361,2.361,0,0,1,2.469-2.25l165.015,7.646a2.362,2.362,0,0,1,2.251,2.47L337.7,354.14A2.362,2.362,0,0,1,335.229,356.39Z" transform="translate(-56.34 -110.386)" fill="#fff"/>
        <path id="Trazado_202507" data-name="Trazado 202507" d="M117.435,372.368s6.544-23.5,5.459-42.892-.358-31.088,2.42-41.545c5.526-20.794,31.014-36.4,37.685-44.489s16.7,2.033,12.5,11.073-18.132,28.963-20.829,41.85" transform="translate(-52.044 -119.891)" fill="#ffdbb0"/>
        <path id="Trazado_202508" data-name="Trazado 202508" d="M300.9,252.747a27.682,27.682,0,0,0-2.058-6.208c-.975-1.964-3.269-3.066-3.623-4.646A87.112,87.112,0,0,1,293.33,230.5c-.867-7.362-3.717-11.83-3.753-14.106s-1.206-10.789-.427-16.866-.581-13.532-3.342-15.295-6.646-2.3-8.545-2.741-5.309-2.023-5.428-5.582a12.36,12.36,0,0,1,1.062-6.064,4.32,4.32,0,0,1,1.636-1.558c.587-.4.956-2.231,1.155-3.43a2.033,2.033,0,0,0-.7-1.88c.169-2.125.61-11.629-8.114-12.033s-9.164,9.1-9.192,11.231a2.032,2.032,0,0,0-.866,1.808c.086,1.212.284,3.07.832,3.522a4.317,4.317,0,0,1,1.485,1.7,12.36,12.36,0,0,1,.5,6.136c-.447,3.533-3.988,4.791-5.92,5.056s-5.849.44-8.762,1.94-4.957,8.8-4.743,14.921-1.738,14.491-1.985,16.754-3.5,6.449-5.042,13.7a87.083,87.083,0,0,1-2.934,11.166c-.5,1.541-2.884,2.426-4.037,4.291a27.7,27.7,0,0,0-2.623,5.991c-.185.916,1.089,1.046,1.469.5a13,13,0,0,1,2.492-3.155s-2.473,7.349-2.81,8.471.638,1.593,1.164.978,2.825-5.769,2.825-5.769-1.136,6.131-1.173,6.912,1.15,1.262,1.393.633,1.943-6.663,1.943-6.663.179,5.34.356,6.129,1.524.853,1.628.146.505-6.3.505-6.3.578,2.869.87,4.234,1.372,1.059,1.418.066-.311-5.559.126-7.315a23.4,23.4,0,0,0,.469-5.523c.027-2.131,3.88-8.563,4.819-10.439s3.55-7.582,4.536-10.452,2.859-14.155,3.69-16.746c0,0-.36,10.859-.485,16.611s-.3,9.51-1.262,11.883a49.086,49.086,0,0,0-2.634,7.768c-.463,2.324-1.791,16.407-.392,25.322a136.6,136.6,0,0,1,1.906,16.4,46.214,46.214,0,0,0,.1,4.7c.148,1.393-1.766,5.89-1.208,14.552s3.952,15.963,3.713,18.83-.309,4.357-.5,6.161-2.132,4.592-2.4,5.86.671,1.631,1.658,1.037a2.157,2.157,0,0,0,.376,1.083c.4.658,1.029.794,1.921-.017a3.213,3.213,0,0,0,1.329,1.234,1.566,1.566,0,0,0,1.4-.361,2.5,2.5,0,0,0,1.243.8c.841.253,1.1-.7,1.1-.7a1.931,1.931,0,0,0,2.012.306c1.195-.478.452-2.857.5-3.815s-.936-2.816-.924-5.375a39.528,39.528,0,0,0-.956-6.975c-.414-2.577-.015-11.2.536-16.181a62.5,62.5,0,0,0,.072-10.766c-.07-3.1,2.019-13.661,2.5-17.051s1.839-19.746,3.081-19.689,1.084,16.47,1.246,19.889,1.264,14.133.909,17.208a62.518,62.518,0,0,0-.923,10.726c.087,5.015-.312,13.633-.963,16.161a39.425,39.425,0,0,0-1.6,6.857c-.225,2.548-1.372,4.308-1.417,5.266s-1,3.258.142,3.845a1.93,1.93,0,0,0,2.031-.12s.168.968,1.029.794a2.494,2.494,0,0,0,1.311-.685,1.566,1.566,0,0,0,1.363.49,3.215,3.215,0,0,0,1.437-1.106c.812.89,1.455.813,1.91.195a2.155,2.155,0,0,0,.475-1.044c.928.683,1.9.408,1.747-.878s-1.829-4.243-1.852-6.056.047-3.3.073-6.181,4.081-9.833,5.438-18.407-.134-13.228.143-14.6a46.044,46.044,0,0,0,.536-4.666,136.732,136.732,0,0,1,3.414-16.154c2.218-8.747,2.2-22.893,1.953-25.25a49.139,49.139,0,0,0-1.9-7.979c-.74-2.451-.565-6.21-.157-11.949s1.052-16.584,1.052-16.584c.588,2.657,1.41,14.068,2.126,17.016s2.787,8.872,3.55,10.826,4,8.715,3.834,10.84a23.3,23.3,0,0,0-.044,5.542c.273,1.79-.505,6.3-.552,7.3s1,1.4,1.419.066,1.257-4.136,1.257-4.136-.117,5.61-.08,6.323,1.386.775,1.635,0,.92-6.07.92-6.07,1.136,6.165,1.319,6.814,1.409.278,1.445-.5-.529-6.99-.529-6.99,1.814,5.344,2.281,6.006,1.48.282,1.248-.866-2.014-8.694-2.014-8.694a12.982,12.982,0,0,1,2.19,3.372C299.719,253.687,301,253.675,300.9,252.747Z" transform="translate(-61.067 -112.277)" fill="#00bcd4"/>
        <rect id="Rect치ngulo_46748" data-name="Rect치ngulo 46748" width="18.329" height="62.021" rx="3.564" transform="translate(175.343 26.227) rotate(-87.347)" fill="#848e86"/>
        <rect id="Rect치ngulo_46749" data-name="Rect치ngulo 46749" width="18.329" height="62.021" rx="3.564" transform="translate(175.343 26.227) rotate(-87.347)" fill="#848e86"/>
        <path id="Trazado_202509" data-name="Trazado 202509" d="M297.2,120.071,241.758,117.5a3.261,3.261,0,0,0-3.409,3.106l-.189,4.084a3.261,3.261,0,0,1,3.409-3.107l55.439,2.569a3.26,3.26,0,0,1,3.106,3.408l.189-4.084A3.261,3.261,0,0,0,297.2,120.071Z" transform="translate(-62.308 -109.434)" fill="#707a73"/>
        <path id="Trazado_202510" data-name="Trazado 202510" d="M296.435,136.927,241,134.357a3.262,3.262,0,0,1-3.107-3.408l-.12,2.6a3.261,3.261,0,0,0,3.106,3.409l55.439,2.568a3.261,3.261,0,0,0,3.409-3.106l.12-2.6A3.261,3.261,0,0,1,296.435,136.927Z" transform="translate(-62.274 -110.578)" fill="#9baca2"/>
        <path id="Trazado_202511" data-name="Trazado 202511" d="M163.767,436.494l12.123-32.128-59.039-26.777-14.5,28.389Z" transform="translate(-50.762 -131.547)" fill="#fff"/>
        <path id="Trazado_202512" data-name="Trazado 202512" d="M130.517,506.782l39.113-81.441L96.184,394.076,45.968,503.057Z" transform="translate(-45.968 -132.948)" fill="#c7e1d6"/>
        <path id="Trazado_202513" data-name="Trazado 202513" d="M109.845,448.633c-10.374,3-21.031,4.908-31.506,7.538-3.5.879-6.973,1.839-10.438,2.836L45.968,505.661l84.55,3.726,39.113-81.442-7.605-3.237C145.543,434.584,128.28,443.3,109.845,448.633Z" transform="translate(-45.968 -135.553)" fill="#aad6c8"/>
        <path id="Trazado_202514" data-name="Trazado 202514" d="M105.924,406.671a5.586,5.586,0,1,0,5.321,5.838A5.637,5.637,0,0,0,105.924,406.671Z" transform="translate(-50.569 -134.019)" fill="#465d58"/>
        <path id="Trazado_202515" data-name="Trazado 202515" d="M168.8,240.868c-2.854,2.709-5.586,5.539-8.491,8.159a1.189,1.189,0,0,0,.429,2c2.351.49,3.872-.169,5.791-1.529a32.842,32.842,0,0,0,5.533-5.047C174.1,242.169,171.114,238.676,168.8,240.868Z" transform="translate(-55.658 -119.864)" fill="#fff"/>
        <path id="Trazado_202516" data-name="Trazado 202516" d="M287.556,184.237c-2.762-1.763-6.646-2.3-8.545-2.741s-5.309-2.023-5.428-5.582a12.361,12.361,0,0,1,1.062-6.064,4.313,4.313,0,0,1,1.636-1.558c.587-.4.956-2.231,1.155-3.43a2.03,2.03,0,0,0-.7-1.879c.169-2.126.61-11.629-8.114-12.034s-9.164,9.1-9.192,11.231a2.032,2.032,0,0,0-.866,1.808c.085,1.212.284,3.07.832,3.522a4.327,4.327,0,0,1,1.485,1.7,12.367,12.367,0,0,1,.5,6.137c-.447,3.533-3.988,4.791-5.92,5.056s-5.849.44-8.762,1.94a6.693,6.693,0,0,0-2.556,3.155c.626.084,1.251.17,1.874.274,9.68,1.609,18.8,5.567,28.3,8.037a105.347,105.347,0,0,0,16.785,2.881C291.226,191.32,289.9,185.732,287.556,184.237Z" transform="translate(-62.817 -112.277)" fill="#00bcd4"/>
        <g id="Grupo_162851" data-name="Grupo 162851" transform="translate(162.503 131.193)">
          <g id="Grupo_162850" data-name="Grupo 162850">
            <g id="Grupo_162847" data-name="Grupo 162847" transform="translate(20.345 9.868)">
              <path id="Trazado_202517" data-name="Trazado 202517" d="M251.993,344.565a3.213,3.213,0,0,0,1.329,1.234,1.566,1.566,0,0,0,1.4-.361,2.5,2.5,0,0,0,1.243.8c.841.253,1.1-.7,1.1-.7a1.931,1.931,0,0,0,2.012.306c1.195-.478.452-2.857.5-3.815s-.936-2.816-.924-5.375a39.525,39.525,0,0,0-.956-6.975c-.414-2.577-.015-11.2.536-16.181a62.5,62.5,0,0,0,.072-10.766c-.07-3.1,2.019-13.661,2.5-17.051.321-2.283,1.044-10.445,1.861-15.516a95.159,95.159,0,0,1-16.318-7.045c-.164-.09-.325-.186-.488-.277a76.1,76.1,0,0,0,.575,13.111,136.6,136.6,0,0,1,1.906,16.4,46.214,46.214,0,0,0,.1,4.7c.148,1.393-1.766,5.889-1.208,14.552s3.952,15.963,3.712,18.83-.308,4.357-.5,6.161-2.132,4.592-2.4,5.86.671,1.631,1.658,1.037a2.157,2.157,0,0,0,.376,1.083C250.469,345.241,251.1,345.377,251.993,344.565Z" transform="translate(-245.805 -262.853)" fill="#00bcd4"/>
            </g>
            <g id="Grupo_162848" data-name="Grupo 162848">
              <path id="Trazado_202518" data-name="Trazado 202518" d="M225.058,258.258a13,13,0,0,1,2.492-3.155s-2.473,7.349-2.81,8.471.638,1.593,1.164.978,2.825-5.769,2.825-5.769-1.136,6.131-1.173,6.912,1.15,1.262,1.393.633,1.943-6.663,1.943-6.663.179,5.34.356,6.129,1.524.853,1.628.146.505-6.3.505-6.3.578,2.869.87,4.234,1.372,1.059,1.418.066a61.342,61.342,0,0,1,.045-6.891,79.014,79.014,0,0,0-8.181-4.363c-.493-.22-1-.414-1.5-.617a27.874,27.874,0,0,0-2.446,5.695C223.4,258.679,224.677,258.809,225.058,258.258Z" transform="translate(-223.57 -252.068)" fill="#00bcd4"/>
            </g>
            <g id="Grupo_162849" data-name="Grupo 162849" transform="translate(35.255 17.85)">
              <path id="Trazado_202519" data-name="Trazado 202519" d="M273.966,344.342c-.154-1.286-1.829-4.243-1.852-6.056s.047-3.3.073-6.181,4.081-9.833,5.438-18.407-.134-13.228.143-14.6a46.063,46.063,0,0,0,.536-4.665,136.69,136.69,0,0,1,3.414-16.155c.238-.938.448-1.94.638-2.98a120.677,120.677,0,0,1-16.227-3.719c.307,5.142.277,12.837.382,15.057.161,3.419,1.264,14.133.909,17.208a62.515,62.515,0,0,0-.923,10.726c.087,5.015-.312,13.633-.963,16.161a39.447,39.447,0,0,0-1.6,6.857c-.225,2.548-1.372,4.308-1.417,5.266s-1,3.258.142,3.845a1.931,1.931,0,0,0,2.031-.12s.168.968,1.029.794a2.494,2.494,0,0,0,1.311-.685,1.566,1.566,0,0,0,1.363.49,3.215,3.215,0,0,0,1.437-1.106c.812.89,1.455.813,1.91.195a2.156,2.156,0,0,0,.475-1.044C273.147,345.9,274.119,345.628,273.966,344.342Z" transform="translate(-262.101 -271.577)" fill="#00bcd4"/>
            </g>
          </g>
        </g>
        <path id="Trazado_202520" data-name="Trazado 202520" d="M321.388,393.979s-35.625-25.006-42.633-37.591,5.252-41.2,6.023-45.253c0,0-15.393-50.648-18.986-61.324s13.446-18.406,18.864-2.484c3.212,9.435,22.958,48.076,22.958,48.076s19.851-7.406,24.27-1.946c0,0,8.372-4.284,14.037-.518,0,0,15.812-1.019,20.785,5.05s7.68,61.079,5.813,76.173S327.743,395.441,321.388,393.979Z" transform="translate(-64.615 -119.7)" fill="#ffdbb0"/>
        <path id="Trazado_202521" data-name="Trazado 202521" d="M371.62,391.861A130.86,130.86,0,0,1,289.388,378.5c12.914,12.568,34.048,27.4,34.048,27.4C328.909,407.163,361.485,402.75,371.62,391.861Z" transform="translate(-66.663 -131.624)" fill="#fccc9c"/>
        <path id="Trazado_202522" data-name="Trazado 202522" d="M328.5,437.226l-9.1-33.111,61.262-21.2,11.814,29.609Z" transform="translate(-69.215 -131.999)" fill="#fff"/>
        <path id="Trazado_202523" data-name="Trazado 202523" d="M344.163,495.644l-25.146-70.372,76.023-24.34,33.655,98.821Z" transform="translate(-69.182 -133.531)" fill="#c7e1d6"/>
        <path id="Trazado_202524" data-name="Trazado 202524" d="M349.326,450.279c-10.961-3.909-21.539-10.107-28.908-18.94l23.865,66.89,84.531,4.109-12.131-36.67c-7.993-1.824-15.964-3.868-23.962-5.538C378.186,457.095,363.311,455.267,349.326,450.279Z" transform="translate(-69.301 -136.116)" fill="#aad6c8"/>
        <path id="Trazado_202525" data-name="Trazado 202525" d="M393.852,410.378a5.585,5.585,0,1,0,5.321,5.838A5.637,5.637,0,0,0,393.852,410.378Z" transform="translate(-75.048 -134.334)" fill="#465d58"/>
        <path id="Trazado_202526" data-name="Trazado 202526" d="M314.615,309.1c-.781-.514-1.957.425-1.405,1.281a4.348,4.348,0,0,1,.638,1.511,6.2,6.2,0,0,0,.578,2.077,1.342,1.342,0,0,0,2.437-.2C317.668,311.936,316.066,310.05,314.615,309.1Z" transform="translate(-68.676 -125.711)" fill="#fccc9c"/>
        <path id="Trazado_202527" data-name="Trazado 202527" d="M342.892,305.832a6.639,6.639,0,0,0-2.5-2.643,2.023,2.023,0,0,0-2.585,3.048c.1.105.193.214.283.327.034.041.052.061.074.086a1.446,1.446,0,0,0,.094.177c.07.124.134.249.192.378.014.029.019.038.03.061s.016.082.04.176a8.258,8.258,0,0,1,.242,1.03,3.211,3.211,0,0,0,.866,1.453,1.961,1.961,0,0,0,2.776.129,3.206,3.206,0,0,0,1.015-1.995A5.354,5.354,0,0,0,342.892,305.832Z" transform="translate(-70.736 -125.193)" fill="#fccc9c"/>
        <path id="Trazado_202528" data-name="Trazado 202528" d="M363.821,307.129a12.121,12.121,0,0,0-1.021-2.509c-1.1-2.05-4.4-.89-3.841,1.414a7.442,7.442,0,0,1,.26,1.766,3.005,3.005,0,0,0,.4,1.7c.215.341.475.623.717.94a1.793,1.793,0,0,0,2.792-.229A3.133,3.133,0,0,0,363.821,307.129Z" transform="translate(-72.573 -125.253)" fill="#fccc9c"/>
        <path id="Trazado_202529" data-name="Trazado 202529" d="M280.213,246.689c-.714-2.106-1.938-3.927-4.257-4.367a6.09,6.09,0,0,0-6.636,2.954,1.557,1.557,0,0,0-.265.379,5.681,5.681,0,0,0-.46,3.355c.016.136.032.271.057.406a17.125,17.125,0,0,0,.632,2.324c.64,1.926,1.4,4.081,3.227,5.182,3.211,1.937,8.872-1.06,9.206-4.692C281.884,250.411,280.781,248.364,280.213,246.689Z" transform="translate(-64.889 -120.036)" fill="#fff"/>
        <path id="Trazado_202530" data-name="Trazado 202530" d="M323.03,417.979l65.575-14.153-63.968,20Z" transform="translate(-69.523 -133.777)" fill="#e1eef5"/>
        <path id="Trazado_202531" data-name="Trazado 202531" d="M108.183,397.2l61.636,26.238,1.692-4.484Z" transform="translate(-51.257 -133.214)" fill="#e1eef5"/>
        <path id="Trazado_202532" data-name="Trazado 202532" d="M151.8,260.321a1.61,1.61,0,0,0-2.176.464c.119-.14.118-.143,0-.008-.1.1-.2.2-.3.29-.072.064-.145.126-.221.187-.03.025-.169.125-.22.164a2.856,2.856,0,0,0-.954.8,3,3,0,0,0-.363,1.227c-.16.943.76,1.567,1.545,1.7a2.091,2.091,0,0,0,1.311-.187,3.618,3.618,0,0,0,1.081-1.1,7.353,7.353,0,0,0,.944-1.728A1.572,1.572,0,0,0,151.8,260.321Z" transform="translate(-54.603 -121.555)" fill="#fccc9c"/>
        <path id="Trazado_202533" data-name="Trazado 202533" d="M285.285,267.388a10.082,10.082,0,0,0-2.61.629c-.895.361-1.694.985-2.6,1.361-1.41.586-.528,2.814.909,2.47a20.645,20.645,0,0,0,2.516-.829,24.257,24.257,0,0,0,2.589-1.435A1.185,1.185,0,0,0,285.285,267.388Z" transform="translate(-65.811 -122.177)" fill="#fccc9c"/>
        <path id="Trazado_202534" data-name="Trazado 202534" d="M293.219,285.14a19.891,19.891,0,0,0-3.712,1.41c-1.06.44-2.534,1.006-3.126,2.04a.992.992,0,0,0,.52,1.469,7.761,7.761,0,0,0,4.035-.785,7.333,7.333,0,0,0,3.586-2.267C295.208,286.1,294.205,284.948,293.219,285.14Z" transform="translate(-66.396 -123.685)" fill="#fccc9c"/>
      </g>
      <path id="Trazado_202535" data-name="Trazado 202535" d="M281.333,192.194h.306" transform="translate(-20.832 -7.1)" fill="#bc2625"/>
      <path id="Trazado_202536" data-name="Trazado 202536" d="M215.361,156.494c-.631.41-1.246.83-1.85,1.259a.6.6,0,0,0-.479-.683,45.047,45.047,0,0,0-7.913-.936c-.751-1.009-1.5-2-2.229-2.969s-2.72-.429-2.156.909a68.81,68.81,0,0,0,5.6,9.94c-8.369,9.052-11.668,20.8-6.939,33.8.156.425.328.849.506,1.273a27.935,27.935,0,0,0-7.27,20.564c.314,7.323,3.736,14.1,7.316,20.444a34.208,34.208,0,0,0-6.527,7.153c-6.436,10.425,1.082,18.685,7.8,26.656-3.605,5.949-7.984,11.531-9.821,18.317a28.869,28.869,0,0,0,4.2,23.449,37.639,37.639,0,0,0-5.769,9.2c-.5,1.233,1.361,1.826,2.026.855,1.1-1.611,2.327-3.179,3.6-4.729a25.448,25.448,0,0,0,5.77,1.02c.66.564,1.352,1.088,2.059,1.593a25.3,25.3,0,0,0-9.53-.231c-.512.079-.329.8.114.843,3.576.344,7.174.888,10.751,1.147a.545.545,0,0,0,.617-.479c.716.428,1.443.837,2.2,1.2,1.232.595,2.29-1.145,1.082-1.851a28.67,28.67,0,0,1-8.879-8.134c7.077-8.114,14.117-16.322,12.715-27.832-.689-5.651-3.607-10.165-7.069-14.409a41.833,41.833,0,0,0,4.542-10.836c1.989-8.245-1.608-15.566-5.591-22.534l-.093-.166a48.009,48.009,0,0,0,6.9-7.014c5.709-7.8,2.766-16.717-1.7-24.232-1.853-3.12-3.678-6.209-5.206-9.375,2.287-2.418,4.744-4.714,6.882-7.13,8.415-9.508,5.084-19.686-.651-28.891,2.024-1.979,4.176-3.813,6.3-5.51C217.617,157.413,216.372,155.839,215.361,156.494Zm-7.558,9.877c.8,1.3,1.563,2.625,2.263,3.977-.9-.1-1.814-.145-2.707-.247-.766-.087-1.534-.192-2.3-.276A40,40,0,0,1,207.8,166.371ZM196.17,320.127q.726-.863,1.467-1.721c.576.687,1.187,1.343,1.821,1.977C198.363,320.289,197.259,320.236,196.17,320.127Zm1.565-7.047a32.059,32.059,0,0,1-1.6-3.38c1.319.216,2.652.431,3.987.565C199.327,311.2,198.528,312.141,197.734,313.08Zm3.444-4.066c-1.84-.2-3.684-.371-5.52-.6-.291-.816-.562-1.642-.79-2.488a23.873,23.873,0,0,1-.646-3.36c3.477.709,6.992,1.48,10.508,1.926C203.632,306.02,202.424,307.522,201.178,309.014Zm4.505-5.9c-3.811-.748-7.727-1.173-11.579-1.717a23.907,23.907,0,0,1,.561-6.979c4.9.232,9.738.714,14.618,1.113A25.561,25.561,0,0,1,205.684,303.11Zm4.041-13.811a16.1,16.1,0,0,1-.112,4.695c-4.673-1.275-9.817-.921-14.658-.735a32.035,32.035,0,0,1,1.691-4.676,47.19,47.19,0,0,0,13,.736C209.678,289.315,209.7,289.3,209.724,289.3Zm-.253-1.493c-4.084-.325-8.161-.04-12.233-.485.664-1.35,1.411-2.683,2.222-4,.259-.421.526-.839.788-1.258,1.273.243,2.6.3,3.878.566,1.291.267,2.584.721,3.89.947A19.769,19.769,0,0,1,209.472,287.806Zm-2.363-5.977a27.385,27.385,0,0,0-2.824-.379,17.72,17.72,0,0,0-3.512-.229c.935-1.485,1.877-2.969,2.794-4.466A40.613,40.613,0,0,1,207.108,281.829Zm-4.189-10.886c-.015.027-.03.054-.045.081a55.428,55.428,0,0,1-6.112-7.872c2.964.28,5.913.743,8.87,1.052A31.683,31.683,0,0,1,202.919,270.943Zm3.454-14.537a22.189,22.189,0,0,1-.4,6.356,77.194,77.194,0,0,0-9.631-.354,13.787,13.787,0,0,1-1.833-7.454c3.954.27,7.859.875,11.787,1.455A.538.538,0,0,0,206.374,256.405Zm-.132-1.193a47.129,47.129,0,0,0-11.588-1.5,13.142,13.142,0,0,1,.5-2.082,15.619,15.619,0,0,1,1.351-2.906c2.8.516,5.642.908,8.458,1.357A26.064,26.064,0,0,1,206.242,255.212Zm-1.81-6.555a46.888,46.888,0,0,0-7.245-1.01,30.874,30.874,0,0,1,4.282-4.873c.154.268.308.537.46.8A42.552,42.552,0,0,1,204.432,248.657Zm-1.782-10.983c-.919-1.675-1.79-3.366-2.584-5.075a27.48,27.48,0,0,0,6.982.519A39.072,39.072,0,0,1,202.65,237.674Zm7.251-9.685a15.277,15.277,0,0,1-1.832,3.709.618.618,0,0,0-.274-.143,44.929,44.929,0,0,0-8.515-.724,43.8,43.8,0,0,1-1.918-5.4c4.317.366,8.4,1.533,12.651,2.151C209.974,227.722,209.945,227.854,209.9,227.989Zm.057-9.414a16.207,16.207,0,0,1,.434,7.436c-4.057-1.7-9.019-1.885-13.361-1.871a29.3,29.3,0,0,1-.827-7.343c4.531.706,9.141,1.36,13.676,1.785A.7.7,0,0,0,209.958,218.575Zm-.5-1.551c-4.1-1.364-8.85-1.34-13.212-1.414a26.951,26.951,0,0,1,.361-3.051,17.58,17.58,0,0,1,.634-2.446,21.236,21.236,0,0,0,9.439,1.064A38.661,38.661,0,0,1,209.461,217.024Zm-3.815-7.63c-2.652-.083-5.319.2-7.922-.565a25.341,25.341,0,0,1,3.878-6.26C202.845,204.846,204.285,207.109,205.645,209.394Zm-3.038-13.145a37.388,37.388,0,0,1-1.38-4.19,22.549,22.549,0,0,0,4.934.531C205,193.843,203.783,195.059,202.607,196.249Zm4.953-5.223c-2.2-.473-4.469-.274-6.7-.543a29.444,29.444,0,0,1-.635-5.269,67.99,67.99,0,0,0,10.429,1.611A29.7,29.7,0,0,1,207.56,191.026Zm3.234-19.171a31.045,31.045,0,0,1,1.36,3.342,12.954,12.954,0,0,1-.473,9.627c-3.7-.705-7.817-.166-11.477-.88.011-.608.04-1.223.091-1.846a21.61,21.61,0,0,1,.709-3.928c3.674.328,7.253,1.464,10.933,1.521a.466.466,0,0,0,.124-.912,38.227,38.227,0,0,0-10.89-1.224,26.375,26.375,0,0,1,3.206-6.732c.94.167,1.88.328,2.815.506A20.586,20.586,0,0,0,210.794,171.856Zm-1.881-10.407c-.8-1.19-1.628-2.355-2.461-3.5a30.516,30.516,0,0,0,6.175.458A47.916,47.916,0,0,0,208.913,161.449Z" transform="translate(-13.045 -3.74)" fill="#b3e1e8"/>
      <path id="Trazado_202537" data-name="Trazado 202537" d="M347.467,162.29c-3.032-1.676-6.618-1.016-9.959-.891-4.31.16-8.571-.877-12.853-.242-.963.144-.885,1.658,0,1.862,7.315,1.684,14.771,1.624,22.216,1.469A1.188,1.188,0,0,0,347.467,162.29Z" transform="translate(-24.456 -4.443)" fill="#b3e1e8"/>
      <path id="Trazado_202538" data-name="Trazado 202538" d="M338.8,275.29c-3.032-1.676-6.618-1.016-9.958-.891-4.31.16-8.571-.877-12.854-.242-.963.144-.885,1.658,0,1.862,7.315,1.685,14.771,1.624,22.216,1.469A1.187,1.187,0,0,0,338.8,275.29Z" transform="translate(-23.72 -14.051)" fill="#b3e1e8"/>
      <path id="Trazado_202539" data-name="Trazado 202539" d="M346.076,179.014c-3.085-2.714-8.668-1.533-12.489-1.7-7.016-.314-13.957-1.259-20.992-1a.8.8,0,0,0,0,1.609c5.269.338,10.51.953,15.751,1.582,5.518.662,11.077.732,16.564,1.513C345.969,181.166,347.08,179.9,346.076,179.014Z" transform="translate(-23.424 -5.746)" fill="#b3e1e8"/>
      <path id="Trazado_202540" data-name="Trazado 202540" d="M343.241,197.692c-5.743-.793-11.846-1.351-17.641-1.632a.736.736,0,0,0-.195,1.439c5.528,1.189,12.179,3.088,17.836,2.054C344.148,199.388,344.184,197.822,343.241,197.692Z" transform="translate(-24.535 -7.428)" fill="#b3e1e8"/>
      <path id="Trazado_202541" data-name="Trazado 202541" d="M340.574,258.692c-5.743-.793-11.845-1.351-17.641-1.632a.736.736,0,0,0-.195,1.439c5.529,1.189,12.179,3.088,17.836,2.054C341.481,260.388,341.518,258.822,340.574,258.692Z" transform="translate(-24.308 -12.615)" fill="#b3e1e8"/>
      <path id="Trazado_202542" data-name="Trazado 202542" d="M342.97,217.74c-5.36-.135-10.632.07-15.991-.407s-10.657-1.242-16.033-1.136a.608.608,0,0,0,0,1.215c10.138.929,22.2,4.737,32.262,2.084A.9.9,0,0,0,342.97,217.74Z" transform="translate(-23.3 -9.14)" fill="#b3e1e8"/>
      <path id="Trazado_202543" data-name="Trazado 202543" d="M341.637,238.074c-5.361-.135-10.632.069-15.991-.408s-10.658-1.242-16.033-1.136a.608.608,0,0,0,0,1.215c10.138.929,22.2,4.737,32.261,2.084A.9.9,0,0,0,341.637,238.074Z" transform="translate(-23.187 -10.868)" fill="#b3e1e8"/>
    </g>
  </g>
</svg>
