<svg xmlns="http://www.w3.org/2000/svg" xmlns:xlink="http://www.w3.org/1999/xlink" width="265" height="683" viewBox="0 0 265 683">
  <defs>
    <linearGradient id="linear-gradient" x1="0.11" y1="0.519" x2="0.827" y2="0.465" gradientUnits="objectBoundingBox">
      <stop offset="0" stop-color="#b3e1fa"/>
      <stop offset="1" stop-color="#fff"/>
    </linearGradient>
    <linearGradient id="linear-gradient-2" x1="0.488" y1="1.085" x2="0.514" y2="0.041" xlink:href="#linear-gradient"/>
    <linearGradient id="linear-gradient-3" x1="0.503" y1="0.748" x2="0.535" y2="-0.029" xlink:href="#linear-gradient"/>
    <linearGradient id="linear-gradient-4" x1="0.165" y1="0.5" x2="1.236" y2="0.5" xlink:href="#linear-gradient"/>
    <linearGradient id="linear-gradient-5" x1="-0.035" y1="0.498" x2="1.261" y2="0.506" xlink:href="#linear-gradient"/>
    <linearGradient id="linear-gradient-6" x1="0.484" y1="0.97" x2="0.511" y2="0.065" xlink:href="#linear-gradient"/>
    <linearGradient id="linear-gradient-7" x1="0.051" y1="0.281" x2="0.843" y2="0.631" xlink:href="#linear-gradient"/>
    <linearGradient id="linear-gradient-8" x1="0.216" y1="0.444" x2="1.218" y2="0.601" xlink:href="#linear-gradient"/>
    <linearGradient id="linear-gradient-9" x1="0.135" y1="0.367" x2="1.479" y2="0.648" xlink:href="#linear-gradient"/>
    <linearGradient id="linear-gradient-10" x1="0.5" y1="1.004" x2="0.5" y2="-0.005" xlink:href="#linear-gradient"/>
    <linearGradient id="linear-gradient-11" x1="0.563" y1="0.923" x2="0.432" y2="0.008" xlink:href="#linear-gradient"/>
    <linearGradient id="linear-gradient-12" x1="0.642" y1="1.055" x2="0.368" y2="0.043" xlink:href="#linear-gradient"/>
    <linearGradient id="linear-gradient-13" x1="0.667" y1="1.024" x2="0.314" y2="-0.06" xlink:href="#linear-gradient"/>
    <linearGradient id="linear-gradient-14" x1="0.539" y1="0.932" x2="0.35" y2="-0.068" xlink:href="#linear-gradient"/>
    <linearGradient id="linear-gradient-15" x1="0.522" y1="0.999" x2="0.48" y2="0.085" xlink:href="#linear-gradient"/>
    <linearGradient id="linear-gradient-16" x1="0.588" y1="1.015" x2="0.444" y2="0.184" xlink:href="#linear-gradient"/>
    <linearGradient id="linear-gradient-17" x1="0.609" y1="1.019" x2="0.357" y2="0.08" xlink:href="#linear-gradient"/>
    <linearGradient id="linear-gradient-18" x1="0.646" y1="0.966" x2="0.338" y2="-0.049" xlink:href="#linear-gradient"/>
    <linearGradient id="linear-gradient-19" x1="0.569" y1="1.003" x2="0.299" y2="-0.049" xlink:href="#linear-gradient"/>
    <linearGradient id="linear-gradient-20" x1="0.809" y1="1.072" x2="0.25" y2="-0.134" xlink:href="#linear-gradient"/>
    <linearGradient id="linear-gradient-21" x1="0.487" y1="0.968" x2="0.512" y2="0.059" xlink:href="#linear-gradient"/>
    <linearGradient id="linear-gradient-22" x1="0.607" y1="0.996" x2="0.346" y2="0.194" xlink:href="#linear-gradient"/>
    <linearGradient id="linear-gradient-23" x1="0.633" y1="1.02" x2="0.364" y2="-0.026" xlink:href="#linear-gradient"/>
    <linearGradient id="linear-gradient-24" x1="0.514" y1="0.997" x2="0.379" y2="0.02" xlink:href="#linear-gradient"/>
    <linearGradient id="linear-gradient-25" x1="0.757" y1="1.079" x2="0.239" y2="-0.051" xlink:href="#linear-gradient"/>
    <linearGradient id="linear-gradient-26" x1="0.558" y1="0.913" x2="0.455" y2="-0.017" xlink:href="#linear-gradient"/>
    <linearGradient id="linear-gradient-27" x1="0.565" y1="1.007" x2="0.374" y2="-0.047" xlink:href="#linear-gradient"/>
    <linearGradient id="linear-gradient-28" x1="0.526" y1="1.081" x2="0.399" y2="-0.078" xlink:href="#linear-gradient"/>
    <linearGradient id="linear-gradient-29" x1="0.504" y1="0.969" x2="0.48" y2="0.084" xlink:href="#linear-gradient"/>
    <linearGradient id="linear-gradient-30" x1="0.273" y1="0.524" x2="1.493" y2="0.47" xlink:href="#linear-gradient"/>
    <linearGradient id="linear-gradient-31" x1="0.152" y1="0.538" x2="1.664" y2="0.407" xlink:href="#linear-gradient"/>
    <linearGradient id="linear-gradient-32" x1="0.41" y1="0.713" x2="0.673" y2="-0.114" xlink:href="#linear-gradient"/>
    <linearGradient id="linear-gradient-33" x1="0.131" y1="0.537" x2="1.184" y2="0.462" xlink:href="#linear-gradient"/>
    <linearGradient id="linear-gradient-34" x1="-0.289" y1="0.502" x2="1.154" y2="0.496" xlink:href="#linear-gradient"/>
    <linearGradient id="linear-gradient-35" x1="-0.141" y1="0.5" x2="1.68" y2="0.5" xlink:href="#linear-gradient"/>
    <linearGradient id="linear-gradient-36" x1="0.489" y1="1.108" x2="0.516" y2="-0.077" xlink:href="#linear-gradient"/>
    <linearGradient id="linear-gradient-37" x1="0.391" y1="0.768" x2="0.741" y2="-0.032" xlink:href="#linear-gradient"/>
    <linearGradient id="linear-gradient-38" x1="0.4" y1="0.804" x2="0.752" y2="-0.044" xlink:href="#linear-gradient"/>
    <linearGradient id="linear-gradient-39" x1="0.485" y1="0.923" x2="0.507" y2="0.263" xlink:href="#linear-gradient"/>
    <linearGradient id="linear-gradient-40" x1="0.377" y1="0.868" x2="0.731" y2="-0.083" xlink:href="#linear-gradient"/>
    <linearGradient id="linear-gradient-41" x1="0.352" y1="1.093" x2="0.577" y2="0.09" xlink:href="#linear-gradient"/>
    <linearGradient id="linear-gradient-42" x1="0.57" y1="0.383" x2="0.721" y2="0.016" xlink:href="#linear-gradient"/>
    <linearGradient id="linear-gradient-43" x1="0.444" y1="0.804" x2="0.595" y2="0.096" xlink:href="#linear-gradient"/>
    <linearGradient id="linear-gradient-44" x1="0.335" y1="1.237" x2="0.568" y2="0.332" xlink:href="#linear-gradient"/>
    <linearGradient id="linear-gradient-45" x1="0.489" y1="0.775" x2="0.509" y2="0.039" xlink:href="#linear-gradient"/>
    <linearGradient id="linear-gradient-46" x1="0.456" y1="1.051" x2="0.625" y2="-0.251" xlink:href="#linear-gradient"/>
    <linearGradient id="linear-gradient-47" x1="0.49" y1="0.836" x2="0.511" y2="0.078" xlink:href="#linear-gradient"/>
    <linearGradient id="linear-gradient-48" x1="0.425" y1="0.851" x2="0.737" y2="-0.054" xlink:href="#linear-gradient"/>
    <linearGradient id="linear-gradient-49" x1="0.485" y1="0.942" x2="0.516" y2="-0.048" xlink:href="#linear-gradient"/>
    <linearGradient id="linear-gradient-50" x1="0.496" y1="0.793" x2="0.527" y2="-0.165" xlink:href="#linear-gradient"/>
  </defs>
  <g id="Grupo_163042" data-name="Grupo 163042" transform="translate(234 2640)">
    <g id="Rectángulo_46372" data-name="Rectángulo 46372" transform="translate(-234 -2640)" fill="#00bcd4" stroke="#707070" stroke-width="1" opacity="0.11">
      <rect width="265" height="683" stroke="none"/>
      <rect x="0.5" y="0.5" width="264" height="682" fill="none"/>
    </g>
    <g id="Grupo_161626" data-name="Grupo 161626" transform="translate(-192.119 -3240.61)">
      <g id="Grupo_161614" data-name="Grupo 161614" transform="translate(22.22 629.851)">
        <path id="Rectángulo_46399" data-name="Rectángulo 46399" d="M19.628,0H120.889a19.629,19.629,0,0,1,19.629,19.629V120.89a19.628,19.628,0,0,1-19.628,19.628H19.628A19.628,19.628,0,0,1,0,120.89V19.628A19.628,19.628,0,0,1,19.628,0Z" transform="translate(0 0)" fill="#0c4260"/>
        <g id="Grupo_161613" data-name="Grupo 161613" transform="translate(5.91)">
          <path id="Trazado_200189" data-name="Trazado 200189" d="M30.371,632.563c-.6,26.527,4.949,24.15,4.827,43.012-.171,26.306,9.961,60.4,22.9,69.164,4.976,5.75,60.851,12.568,106.834,10.077V697.167c-26.776-7.434-52.157-18.362-61.239-14.455-.527-28.159,12.98-25.976,13.184-52.861H38.727A14.208,14.208,0,0,0,30.371,632.563Z" transform="translate(-30.325 -629.851)" fill="#00a5db" fill-rule="evenodd"/>
          <g id="Grupo_161612" data-name="Grupo 161612" transform="translate(23.455)">
            <path id="Trazado_200190" data-name="Trazado 200190" d="M87.517,629.851c-1.811,22.01-1.893,44.019,8.295,66.029,12.8,3.285,12.313,15.029,11.558,19.321-.97,5.52-12.452,15.009-23.425,6.93-11.259,2.838-12.056-10.682-12.4-17.388-.7-13.6-.9-33.234-3.294-39.743.979,9.184.967,39.555,2.435,48.547-6.587,1.538-8.831-3.266-8.04-12.781.322-3.879,2.575-6.51,3.1-13.85,1.423-19.854-1.051-38.108-1.813-57.065Z" transform="translate(-62.493 -629.851)" fill-rule="evenodd" fill="url(#linear-gradient)"/>
            <path id="Trazado_200191" data-name="Trazado 200191" d="M67.121,747.659c-4.8,4.306-4.769,9.749-1.436,15.97,4.031,4.578,4.243,10.747,9.331,11.664a100.348,100.348,0,0,0,13.593,1.042c4.316.179,8.829.985,13.095,1.385,17.2,1.611,34.337-.747,51.661-.848,6.826-.04,13.663.036,20.508.178V760.487a141.14,141.14,0,0,1-42.4-8.019c-2.512-.191-3.935.531-6.446,2.158-3.154,12.015-19.736,9.013-17.5-.807.639-1.485-.687-2.015-1.288-.776a23.845,23.845,0,0,1-10.788,5.328c-10.774,2.219-21.806-3.22-24.844-10.542A2.888,2.888,0,0,0,67.121,747.659Z" transform="translate(-62.72 -661.624)" fill-rule="evenodd" fill="url(#linear-gradient-2)"/>
            <path id="Trazado_200192" data-name="Trazado 200192" d="M152.2,744.482c-2.737.529-5.8.427-7.82,1a10.991,10.991,0,0,0-3.482,2.478c-1.3,1.366-1.633,2.865-2.488,3.918-3.066,3.777-8.15,4.321-11.657,0-1.653-2.036-.138-6.788.427-9.24a62.785,62.785,0,0,0,1.848-14.927c.611-3.261,3.4-3.683,6.682-3.412,2.156.179,4.5-.028,5.4,1.422,1.864,2.979,3.008,3.412,7.535,3.412,2.713,0,8.1.237,8.1-2.416,6.123,1.178,12.279.378,19.853,2.182a76.367,76.367,0,0,1,12.986,4.214q.629.293,1.263.572v16.573A231.371,231.371,0,0,0,152.2,744.482Z" transform="translate(-79.695 -655.414)" fill-rule="evenodd" fill="url(#linear-gradient-3)"/>
          </g>
        </g>
      </g>
      <g id="Grupo_161615" data-name="Grupo 161615" transform="translate(65.716 682.945)">
        <path id="Trazado_200193" data-name="Trazado 200193" d="M116.567,731.95a5.412,5.412,0,1,0,5.413,5.412A5.417,5.417,0,0,0,116.567,731.95Z" transform="translate(-89.806 -710.599)" fill="#dc0000"/>
        <path id="Trazado_200194" data-name="Trazado 200194" d="M114.4,746.444a11.251,11.251,0,1,1,11.253-11.251A11.264,11.264,0,0,1,114.4,746.444Zm0-19.6a8.352,8.352,0,1,0,8.354,8.352A8.361,8.361,0,0,0,114.4,726.84Z" transform="translate(-87.636 -708.43)" fill="#dc0000" opacity="0.8"/>
        <path id="Trazado_200195" data-name="Trazado 200195" d="M112.477,749.693A16.422,16.422,0,1,1,128.9,733.272,16.44,16.44,0,0,1,112.477,749.693Zm0-30.638a14.216,14.216,0,1,0,14.22,14.217A14.233,14.233,0,0,0,112.477,719.055Z" transform="translate(-85.716 -706.509)" fill="#dc0000" opacity="0.6"/>
        <path id="Trazado_200196" data-name="Trazado 200196" d="M110.556,752.943a21.592,21.592,0,1,1,21.593-21.592A21.616,21.616,0,0,1,110.556,752.943Zm0-41.09a19.5,19.5,0,1,0,19.5,19.5A19.52,19.52,0,0,0,110.556,711.853Z" transform="translate(-83.795 -704.589)" fill="#dc0000" opacity="0.4"/>
        <path id="Trazado_200197" data-name="Trazado 200197" d="M108.635,756.193A26.763,26.763,0,1,1,135.4,729.43,26.794,26.794,0,0,1,108.635,756.193Zm0-51.955a25.192,25.192,0,1,0,25.193,25.192A25.219,25.219,0,0,0,108.635,704.239Z" transform="translate(-81.874 -702.668)" fill="#dc0000" opacity="0.2"/>
      </g>
      <g id="Grupo_161618" data-name="Grupo 161618" transform="translate(22.22 952.289)">
        <path id="Rectángulo_46400" data-name="Rectángulo 46400" d="M19.628,0H120.889a19.629,19.629,0,0,1,19.629,19.629V120.89a19.628,19.628,0,0,1-19.628,19.628H19.629A19.629,19.629,0,0,1,0,120.889V19.628A19.628,19.628,0,0,1,19.628,0Z" transform="translate(0)" fill="#0c4260"/>
        <g id="Grupo_161617" data-name="Grupo 161617" transform="translate(43.493 7.869)">
          <path id="Trazado_200198" data-name="Trazado 200198" d="M86.856,1215.511c1.387-9.648,3.13-19.163,4.846-29.211.741-4.765,1.03-16.9-.238-18.568-4.157-5.459-6.2-14.425-8.2-22.993-1.562-6.694-.679-10.452-1.375-16.925.041-5.2-.242-10.1.6-15.121.844-5.058,4.934-4.354,5.5-.684,1.824,11.932,1.225,20.79,3.1,23.768.775-5.782-.938-21.3-2.061-32.3-1.358-9.213.735-12.669,2.794-13.215,2.324-.616,3.8.729,3.853,4.025,2.247,11.043,3.25,22.738,4.6,33.973.421-6.117-.661-13.174-1.326-19.9-.626-6.314-1.91-12.886-2.313-19.263-.494-7.816,7.433-8.385,8.38-1.161,1.5,11.467,3.043,23.274,5.49,34.684.5,2.339,2.35,2.139,2.088-.417-.886-8.608-2.9-17.078-5.011-25.47-3.129-12.473,5.218-15.2,7.309-4.067,1.281,6.835,3.757,11.38,5.484,18.116,1.611,6.278,3.224,13,4.656,19.857,1.283,6.147,3.127,17.781,8.013,10.225.927-1.433,2.689-5.022,3.559-6.761,1.142-9.633,11.279-14.831,9.081-3.713-.409,2.066-.251,5.768-.849,8.919-2.123,6.193-3.407,9.9-4.265,16.089-1.326,6.574-10.47,13.505-13.571,21.86-.695,2.435-1.464,4.5-2.086,6.951a199.434,199.434,0,0,0-5.159,31.3Z" transform="translate(-81.87 -1082.862)" fill="#00a5db" fill-rule="evenodd"/>
          <g id="Grupo_161616" data-name="Grupo 161616" transform="translate(0.895 2.417)">
            <path id="Trazado_200199" data-name="Trazado 200199" d="M124.077,1251.308c1.563-9.882,4.034-19.668,5.3-29.2,1.891-14.233-6.282-2.3-14.62-4.278-7.464-1.776-.015,10.483-.689,15.558a155.519,155.519,0,0,0-.976,17.92Z" transform="translate(-90.767 -1121.075)" fill-rule="evenodd" fill="url(#linear-gradient-4)"/>
            <path id="Trazado_200200" data-name="Trazado 200200" d="M98.553,1220.645c3.07,9.224-3.259,20.441-3.87,31.063H102.5c.043-.992.1-2.026.16-3.114.286-4.869,2.669-23.543,4.5-23.294-.637-.871-2.118-5.734-.91-6.516a2.169,2.169,0,0,1-1.91-.976,3.342,3.342,0,0,0-4.312-.875A2.757,2.757,0,0,0,98.553,1220.645Z" transform="translate(-86.236 -1121.476)" fill-rule="evenodd" fill="url(#linear-gradient-5)"/>
            <path id="Trazado_200201" data-name="Trazado 200201" d="M125.6,1207.771c.871-1.482.384-2.267,1.1-3.234,1.762-2.381,5.14-2.228,4.66-3.706-.6-1.849-3.16-2.8-4.419-3.628-2.01-1.324-3.473-2.068-3.983.712-.121.661-.858.413-1.122-.543s-.129-2.33-.483-2.668c-1.589-1.515-2.938-1.366-3.59.648-.181.558-1.019.567-1.639-.087s-.825-1.6-1.257-1.873c-1.555-.973-2.769,1.817-3.264,1.985-1.065.361-.48-1.916-2.5-2.051-1.407-.094-2.339.65-1.829,2.218.472,1.451-.446.777-1.172-.262-.5-.712-.5-1.569-1.161-1.763-1.753-.511-6.018,2.355-5.749,3.755.2,1.049,2.176,4.185,1.692,4.8-1.212,1.547-1.932.893-1.888,3.1.091,4.681,3.6,3.021,5.471,3.97.883.447.98,1.237,2.213,1.548a14.828,14.828,0,0,0,5.455.308c.957-.232.6-.8,1.366-.911a2.537,2.537,0,0,1,1.53.079c2.045,1.251,4.972-.995,5.849-1.31C122.744,1208.19,124.24,1208.462,125.6,1207.771Z" transform="translate(-87.401 -1115.162)" fill-rule="evenodd" fill="url(#linear-gradient-6)"/>
            <path id="Trazado_200202" data-name="Trazado 200202" d="M146.066,1193.414a35.255,35.255,0,0,0,3.422-6.435c1.234-3.546,6.628-5.915,3.6-10.347-1.253-1.834-4.756-2.135-7.129-.906-2.038,1.053.051,5.437-.783,6.8-1.249,2.038-2.9,5.717-5.064,7.331-1.449,1.081,1.358,3.293,2.052,3.742a12.1,12.1,0,0,1,1.457,1.292C144.825,1195.9,145.411,1194.353,146.066,1193.414Z" transform="translate(-98.43 -1110.232)" fill-rule="evenodd" fill="url(#linear-gradient-7)"/>
            <path id="Trazado_200203" data-name="Trazado 200203" d="M151.735,1165.3c-.593.213-1.289,2.632-.406,2.841.7.168,1.548-.22,2.4.033,1.336.394,3.633,2.2,3.794,3.886,1.4.26,1.975-7.029,2.492-8.5.4-1.135,2.327-6.1,1.209-6.31-2.419-.452-6.1-4.8-6.322.41a11.641,11.641,0,0,1-.619,4.233,7.246,7.246,0,0,1-1.206,2.024A12.393,12.393,0,0,1,151.735,1165.3Z" transform="translate(-101.466 -1104.851)" fill-rule="evenodd" fill="url(#linear-gradient-8)"/>
            <path id="Trazado_200204" data-name="Trazado 200204" d="M163.662,1152.642c.451-1.368.363-2.646.76-4.005.516-1.757,1.59-4.524,1.01-6.308-.594-1.826-2.447-.842-3.16.516-.782,1.487-.944,3.32-1.791,4.516-.927,1.308-2.936,2.894-.78,3.529.837.248,1.408.253,2.248.572C162.32,1151.6,163.148,1152.689,163.662,1152.642Z" transform="translate(-103.586 -1101.116)" fill-rule="evenodd" fill="url(#linear-gradient-9)"/>
            <path id="Trazado_200205" data-name="Trazado 200205" d="M134.525,1184.748c2.712-1.758-1.116-8.063-1.313-10.8-.347-4.849-.7-8.392.139-13.308.386-2.24,1.7-4.6,2.138-6.514,1.022-4.427-4.213,1.292-7.334-.3-2.981-1.525-.987,6.562-.39,8.39,1.043,3.21.717,7.635.444,10.741-.32,3.636-3.652,7.673.375,9.219,1.42.545,1.213,1.269,3.038,1.7.628.15,1.236-.669,1.821-.288C133.691,1183.754,134.429,1185.052,134.525,1184.748Z" transform="translate(-94.869 -1104.117)" fill-rule="evenodd" fill="url(#linear-gradient-10)"/>
            <path id="Trazado_200206" data-name="Trazado 200206" d="M135.02,1150.455a14.394,14.394,0,0,1-2.078.924c-1.232.445-2.435,1.167-3.576.5-1.625-.955.339-3.948,2.2-3.7.829.111,2.027-.141,2.766-.115C135.549,1148.105,135.528,1149.756,135.02,1150.455Z" transform="translate(-95.466 -1102.939)" fill-rule="evenodd" fill="url(#linear-gradient-11)"/>
            <path id="Trazado_200207" data-name="Trazado 200207" d="M133.933,1140.405c1.318-.856-2.74-11.724-3.22-13.555-.341-1.291.052-3.759-1.209-4.235-1.005-.381-6.266,2.038-6.309,3.065-.074,1.81,1.712,4.64,2,6.68.2,1.407-.481,9.777,1.809,8.953,1.031-.371,2.314-1.367,3.447-1.154C131.348,1140.328,133.881,1140.359,133.933,1140.405Z" transform="translate(-93.958 -1096.035)" fill-rule="evenodd" fill="url(#linear-gradient-12)"/>
            <path id="Trazado_200208" data-name="Trazado 200208" d="M125.128,1117.062c-1.369.686-3.51.829-3.253-1.119.325-2.458-.84-6.763-1.683-9.35-.832-2.559-.889-3.129,1.817-3.034.832.029,2.609-2.167,3.12-.594.426,1.311.332,2.714.826,3.843.7,1.6,1.342,3.6,1.871,5.23l.615,1.893C129.423,1116.946,127.63,1115.809,125.128,1117.062Z" transform="translate(-93.009 -1090.57)" fill-rule="evenodd" fill="url(#linear-gradient-13)"/>
            <path id="Trazado_200209" data-name="Trazado 200209" d="M123.842,1097.9c-.707-2.171-1.471-3.721-1.518-5.974-.05-2.279-2.068-2.518-3.559-1.274a4.377,4.377,0,0,0-1.128,3.843c.219,1.4-.293,5.657,1.539,5,.548-.2,1.382-.032,2.184-.238A6.166,6.166,0,0,0,123.842,1097.9Z" transform="translate(-92.437 -1087.187)" fill-rule="evenodd" fill="url(#linear-gradient-14)"/>
            <path id="Trazado_200210" data-name="Trazado 200210" d="M120.14,1183.591c3.274-.1-2.769-14.175-2.012-20.422.174-1.431,1.276-5.361.536-6.449-.456-.67-2.737,1.692-3.52,1.973-2.958,1.065-5.751-2.268-3.845,3.588,2.233,6.865,1.908,10.462,1.784,16.979-.06,3.222-.776,3.187,2.347,3.3a10.551,10.551,0,0,1,2.564.046C119.018,1182.848,119.313,1183.713,120.14,1183.591Z" transform="translate(-90.567 -1105.252)" fill-rule="evenodd" fill="url(#linear-gradient-15)"/>
            <path id="Trazado_200211" data-name="Trazado 200211" d="M117.947,1153.525c-2.382.859-4.451,4.222-7.227,1.546-.95-.914-.605-3.378-.244-4.142.581-1.226,6.823-2.45,7.484-1.021C118.393,1150.844,118.952,1153.339,117.947,1153.525Z" transform="translate(-90.413 -1103.265)" fill-rule="evenodd" fill="url(#linear-gradient-16)"/>
            <path id="Trazado_200212" data-name="Trazado 200212" d="M116.293,1141.66c1.358-.153.287-3.824-.12-5.068-.864-2.66-1.215-11.617-2.758-12.4-.705-.356-5.743.94-6.035,1.558-.556,1.169.89,4.563,1.341,5.949a20.4,20.4,0,0,1,.529,6.33c-.07,1.948-1.764,5.57,1.591,4.362a10.02,10.02,0,0,1,3.016-.911A23.764,23.764,0,0,0,116.293,1141.66Z" transform="translate(-89.641 -1096.458)" fill-rule="evenodd" fill="url(#linear-gradient-17)"/>
            <path id="Trazado_200213" data-name="Trazado 200213" d="M111.929,1117.261c2.271-.448,1.2-2.316.722-3.785-.849-2.614-1.962-7.448-1.861-9.9s-3.67.109-5.154-.17c-2.841-.535-.294,3.027.142,4.354a17.824,17.824,0,0,1,.7,4.241c.127,1.6-.49,5.792.681,6.011A42.4,42.4,0,0,0,111.929,1117.261Z" transform="translate(-88.844 -1090.599)" fill-rule="evenodd" fill="url(#linear-gradient-18)"/>
            <path id="Trazado_200214" data-name="Trazado 200214" d="M110.385,1096.278a7.171,7.171,0,0,0-.367-3.48c-.429-1.321-.912-5.424-1.646-6.1a2.442,2.442,0,0,0-3.6.68c-1.33,2.418-.319,6.257-.426,8.876-.074,1.843,1.766,1.8,3.435,1.387C109.077,1097.317,110.275,1096.884,110.385,1096.278Z" transform="translate(-88.78 -1086.177)" fill-rule="evenodd" fill="url(#linear-gradient-19)"/>
            <path id="Trazado_200215" data-name="Trazado 200215" d="M108.2,1182.956c1.292-4.663-1.306-9.3-2.489-14.963a19.3,19.3,0,0,1-.448-4.773c.2-4.96-2.171-2.173-5.31-1.436-1.094.257-1.756-.686-2.307.479-.7,1.479,4.89,10.642,5.277,13.871C103.513,1181.017,102.775,1186.96,108.2,1182.956Z" transform="translate(-87.022 -1106.264)" fill-rule="evenodd" fill="url(#linear-gradient-20)"/>
            <path id="Trazado_200216" data-name="Trazado 200216" d="M104.31,1156.811a8.961,8.961,0,0,0-.111-2.428,1.755,1.755,0,0,0-1.678-.982c-.871-.028-1.779.543-2.992.726-.769.116-2.249,1.462-2.227,2.036.079,2.174.462,3.248,2.751,2.71C100.712,1158.717,104.471,1157.829,104.31,1156.811Z" transform="translate(-86.945 -1104.385)" fill-rule="evenodd" fill="url(#linear-gradient-21)"/>
            <path id="Trazado_200217" data-name="Trazado 200217" d="M100.241,1146.977c-2.327.465-4.658,1.192-4.127-1.722.578-3.176.988-5.843-.107-9.213a8.544,8.544,0,0,1-.568-2.791c.249-1.377,2.931-.616,4.614-1.221.54-.2,1.108-1.028,1.42-.335.979,2.171-1.031,5.448-.1,8.318.432,1.326.817,2.251,1.256,3.6C103.906,1147.528,102.931,1146.439,100.241,1146.977Z" transform="translate(-86.436 -1098.433)" fill-rule="evenodd" fill="url(#linear-gradient-22)"/>
            <path id="Trazado_200218" data-name="Trazado 200218" d="M100.751,1124.428c-1.33.479-3.63,1.636-4.792,1.2-2.828-1.068-.783-5.8-1.783-8.874-.53-1.63-2.147-6.1-.48-6.7a46.4,46.4,0,0,1,4.615-.957c1.164-.275.376,2.989.316,3.322-.4,2.2.4,4.1,1.165,6.453l.95,2.919C100.985,1122.533,101.014,1124.434,100.751,1124.428Z" transform="translate(-85.77 -1092.38)" fill-rule="evenodd" fill="url(#linear-gradient-23)"/>
            <path id="Trazado_200219" data-name="Trazado 200219" d="M98.2,1102.176a15.366,15.366,0,0,1-1.128-3.207c-.147-1.215-.544-5.176-2.424-3.533-1.253,1.094-1.473,2.144-1.864,3.932-.242,1.1-.242,2.064-.4,3.226-.392,2.98-.4,2.284,2.2,2.281C97.242,1104.871,99.231,1105.1,98.2,1102.176Z" transform="translate(-85.561 -1088.578)" fill-rule="evenodd" fill="url(#linear-gradient-24)"/>
            <path id="Trazado_200220" data-name="Trazado 200220" d="M99.672,1185.639c1.444-.941-3.424-5.9-4.954-11.863-.393-1.535-.554-8.612-3.052-6.434a12.366,12.366,0,0,1-2.528,1.906c-2.667,1.376-1.762,2.134-.145,4.6,2.118,3.229,3.027,6.781,4.337,10.806.555,1.709.7,4.634,2.588,3.332C97.192,1187.1,97.516,1186.415,99.672,1185.639Z" transform="translate(-84.275 -1108.05)" fill-rule="evenodd" fill="url(#linear-gradient-25)"/>
            <path id="Trazado_200221" data-name="Trazado 200221" d="M91.736,1164.133c-2.112,1.474-4.6,6.044-6.129,1.355-.44-1.355-.433-1.477.36-2.262a5.624,5.624,0,0,1,4.164-1.5A2,2,0,0,1,91.736,1164.133Z" transform="translate(-83.698 -1106.638)" fill-rule="evenodd" fill="url(#linear-gradient-26)"/>
            <path id="Trazado_200222" data-name="Trazado 200222" d="M90.633,1156.371a9.5,9.5,0,0,0-3.755.787c-1.038.373-1.739,1.354-2.211-.093-.616-1.9.795-4.5.043-6.809-.387-1.191-1.464-4.265.426-4.2a22.088,22.088,0,0,1,3.163-.088c2.195.416.925,3.561,1.487,5.287C90.171,1152.441,91.615,1155.855,90.633,1156.371Z" transform="translate(-83.356 -1102.357)" fill-rule="evenodd" fill="url(#linear-gradient-27)"/>
            <path id="Trazado_200223" data-name="Trazado 200223" d="M85.733,1141.375c-1.249-.166-1.358.448-2.4-.43-.808-.682.7-4.133.583-5.385-.138-1.43-.276-2.651,1.221-3.19,2.474-.89,3.511,1.1,3.411,3.544a20.07,20.07,0,0,0,.526,3.288C89.591,1142.5,88.189,1141.7,85.733,1141.375Z" transform="translate(-83.098 -1098.63)" fill-rule="evenodd" fill="url(#linear-gradient-28)"/>
            <path id="Trazado_200224" data-name="Trazado 200224" d="M86.13,1128.383c-1.127-.032-2.322-.048-2.694-.884-.408-.913.889-7.079,2.44-6.378,1.256.565,1.207,2.508,1.6,3.711C88.329,1127.459,88.538,1128.453,86.13,1128.383Z" transform="translate(-83.169 -1095.627)" fill-rule="evenodd" fill="url(#linear-gradient-29)"/>
          </g>
        </g>
      </g>
      <g id="Grupo_161619" data-name="Grupo 161619" transform="translate(65.716 1018.503)">
        <path id="Trazado_200225" data-name="Trazado 200225" d="M116.568,1192.164a5.412,5.412,0,1,0,5.413,5.412A5.419,5.419,0,0,0,116.568,1192.164Z" transform="translate(-89.806 -1170.813)" fill="#dc0000"/>
        <path id="Trazado_200226" data-name="Trazado 200226" d="M114.4,1206.658a11.251,11.251,0,1,1,11.252-11.251A11.264,11.264,0,0,1,114.4,1206.658Zm0-19.6a8.353,8.353,0,1,0,8.353,8.352A8.362,8.362,0,0,0,114.4,1187.055Z" transform="translate(-87.637 -1168.645)" fill="#dc0000" opacity="0.8"/>
        <path id="Trazado_200227" data-name="Trazado 200227" d="M112.478,1209.907a16.421,16.421,0,1,1,16.422-16.422A16.44,16.44,0,0,1,112.478,1209.907Zm0-30.638a14.217,14.217,0,1,0,14.219,14.217A14.233,14.233,0,0,0,112.478,1179.269Z" transform="translate(-85.716 -1166.724)" fill="#dc0000" opacity="0.6"/>
        <path id="Trazado_200228" data-name="Trazado 200228" d="M110.557,1213.157a21.592,21.592,0,1,1,21.593-21.593A21.616,21.616,0,0,1,110.557,1213.157Zm0-41.09a19.5,19.5,0,1,0,19.5,19.5A19.519,19.519,0,0,0,110.557,1172.068Z" transform="translate(-83.796 -1164.803)" fill="#dc0000" opacity="0.4"/>
        <path id="Trazado_200229" data-name="Trazado 200229" d="M108.636,1216.407a26.763,26.763,0,1,1,26.763-26.763A26.793,26.793,0,0,1,108.636,1216.407Zm0-51.954a25.191,25.191,0,1,0,25.192,25.191A25.219,25.219,0,0,0,108.636,1164.453Z" transform="translate(-81.875 -1162.882)" fill="#dc0000" opacity="0.2"/>
      </g>
      <g id="Grupo_161621" data-name="Grupo 161621" transform="translate(22.22 791.413)">
        <path id="Rectángulo_46401" data-name="Rectángulo 46401" d="M19.628,0H120.889a19.629,19.629,0,0,1,19.629,19.629v101.26a19.629,19.629,0,0,1-19.629,19.629H19.628A19.628,19.628,0,0,1,0,120.89V19.628A19.628,19.628,0,0,1,19.628,0Z" fill="#0c4260"/>
        <g id="Grupo_161620" data-name="Grupo 161620" transform="translate(0 0)">
          <path id="Trazado_200230" data-name="Trazado 200230" d="M22.22,920.167c20.056,1.074,33.845-3.46,44.1-2.652,7.373.58,13.327-.939,15.934,2.945,4.963,7.393-6.437,17.325-5.891,38.1.276,10.488,2.312,22.274,4.886,33.388h59.5c-1.875-21.55-1.792-40.862-2.363-59.556a116.421,116.421,0,0,1,.378-16.692,23.313,23.313,0,0,0-13.436-23.613c-16.817-7.859-.221-12.673-47.012-32.982-5.894-2.558-12-5.143-18.244-7.674H36.531A14.353,14.353,0,0,0,22.22,865.743Z" transform="translate(-22.22 -851.431)" fill="#00a5db" fill-rule="evenodd"/>
          <path id="Trazado_200231" data-name="Trazado 200231" d="M144.46,1016.472c-1.972-8.409-3.972-16.809-5.45-25.391-.819-4.75-5.288-31.982-9.883-32.637-3.171-.453-4.752-4.188-4.44-7.555a19.909,19.909,0,0,0,4.437,2.465,10.369,10.369,0,0,0,3.544.676,18.456,18.456,0,0,0,8.254-1.7,12.837,12.837,0,0,0,6.589-6.571v0a12.87,12.87,0,0,0,.933-3.792c1.975.688,5.549,1.574,6.02,4.3,5.45,2.578,5.019,10.817,3.7,17.2-3.374,19.416,1.556,37.444,4.626,53Z" transform="translate(-49.964 -875.954)" fill-rule="evenodd" fill="url(#linear-gradient-30)"/>
          <path id="Trazado_200232" data-name="Trazado 200232" d="M138.609,1022.829q-2.638-14.577-5.313-29.268c.156-1.078,1.615-2.435,1.468-4.575a47.935,47.935,0,0,0-.332-5.345A51.924,51.924,0,0,0,131,972.247a12.219,12.219,0,0,0-1.485-4.066c-1.169-1.584-3.272-2.319-5.181-2.742-1.938,2.526-.31,4.741-.864,7.516-.472,2.357,1.014,2.019-1.027,4.3-3.439,3.854,1.8,13.055,2.782,16.713q2.96,14.475,5.963,28.86Z" transform="translate(-49.054 -882.312)" fill-rule="evenodd" fill="url(#linear-gradient-31)"/>
          <path id="Trazado_200233" data-name="Trazado 200233" d="M22.22,875.655c25.62,9.287,49.793,20.387,69.651,33.044.954,12.62,1.418,17.214,10.642,19.956,4.756,1.415,17.884-2.141,17.041-13.6,6.7-14.807,2.65-24.678-19.074-25.655-24.188-9.43-47.66-21.765-74.155-32.062a14.263,14.263,0,0,0-4.1,10.007Z" transform="translate(-22.22 -853.03)" fill-rule="evenodd" fill="url(#linear-gradient-32)"/>
          <path id="Trazado_200234" data-name="Trazado 200234" d="M163.708,922.512c-1.813,3.913-2.8,8.052.548,11.8,1.087,1.218,5.315,7.648,6.459,7.315,2.06-.6.74-12.824.273-15.661C169.968,919.775,165.082,918.075,163.708,922.512Z" transform="translate(-60.093 -870.01)" fill-rule="evenodd" fill="url(#linear-gradient-33)"/>
        </g>
      </g>
      <g id="Grupo_161622" data-name="Grupo 161622" transform="translate(65.716 827.593)">
        <path id="Trazado_200235" data-name="Trazado 200235" d="M116.567,930.332a5.412,5.412,0,1,0,5.413,5.412A5.419,5.419,0,0,0,116.567,930.332Z" transform="translate(-89.806 -908.982)" fill="#dc0000"/>
        <path id="Trazado_200236" data-name="Trazado 200236" d="M114.4,944.827a11.251,11.251,0,1,1,11.253-11.251A11.264,11.264,0,0,1,114.4,944.827Zm0-19.6a8.353,8.353,0,1,0,8.354,8.352A8.361,8.361,0,0,0,114.4,925.224Z" transform="translate(-87.636 -906.814)" fill="#dc0000" opacity="0.8"/>
        <path id="Trazado_200237" data-name="Trazado 200237" d="M112.477,948.076A16.422,16.422,0,1,1,128.9,931.654,16.441,16.441,0,0,1,112.477,948.076Zm0-30.639a14.217,14.217,0,1,0,14.22,14.217A14.234,14.234,0,0,0,112.477,917.437Z" transform="translate(-85.716 -904.892)" fill="#dc0000" opacity="0.6"/>
        <path id="Trazado_200238" data-name="Trazado 200238" d="M110.556,951.326a21.592,21.592,0,1,1,21.593-21.592A21.616,21.616,0,0,1,110.556,951.326Zm0-41.09a19.5,19.5,0,1,0,19.5,19.5A19.52,19.52,0,0,0,110.556,910.236Z" transform="translate(-83.795 -902.972)" fill="#dc0000" opacity="0.4"/>
        <path id="Trazado_200239" data-name="Trazado 200239" d="M108.635,954.575A26.762,26.762,0,1,1,135.4,927.813,26.793,26.793,0,0,1,108.635,954.575Zm0-51.954a25.192,25.192,0,1,0,25.193,25.192A25.219,25.219,0,0,0,108.635,902.622Z" transform="translate(-81.874 -901.051)" fill="#dc0000" opacity="0.2"/>
      </g>
      <g id="Grupo_161624" data-name="Grupo 161624" transform="translate(22.22 1113.85)">
        <rect id="Rectángulo_46402" data-name="Rectángulo 46402" width="140.518" height="140.518" rx="19.629" transform="translate(0 0)" fill="#0c4260"/>
        <g id="Grupo_161623" data-name="Grupo 161623" transform="translate(20.418 0)">
          <path id="Trazado_200240" data-name="Trazado 200240" d="M170.323,1417.1c-22.024,2.392-54.786-12.252-90.632-7.1-21.7,3.117-28.88-5.3-29.443-13.958-.641-9.817,11.217-19.157,14.8-35.6,1.794-8.249,5.156-19.15,2.445-33.957-2.026-11.057-4.163-21.98-6.488-32.83h49.51a182.25,182.25,0,0,0,.1,30.244c2.841,27.774,23.9,52.308,49.737,61.917a107.414,107.414,0,0,1,9.975,4.456Z" transform="translate(-50.223 -1293.65)" fill="#00a5db" fill-rule="evenodd"/>
          <path id="Trazado_200241" data-name="Trazado 200241" d="M107.513,1345.641c.47-17.237.525-34.582.427-51.991h14.067c-.547,11.721-1.237,23.5-1.1,35.033.069,5.927,1.115,11.538,1.372,17.42,9.464,21.424,1.226,24.317-1.156,25.552C113.228,1375.745,105.493,1368.286,107.513,1345.641Z" transform="translate(-65.653 -1293.65)" fill-rule="evenodd" fill="url(#linear-gradient-34)"/>
          <path id="Trazado_200242" data-name="Trazado 200242" d="M100.013,1347.316c-1.077-18.064-1.8-35.913-2.316-53.666H91.18c.5,19.8.859,39.717.946,59.883.79,7.705-6.088,11.905.365,18.357,2.514,2.513,5.525,6.393,8.473,9.361,1.81,1.821,4.9-3.751,5.845-5.264,1.488-2.382-1.488-4.151-2.63-5.558-1.9-2.339-3.428-7.45-3.8-11.117C100.154,1357.062,100.555,1356.387,100.013,1347.316Z" transform="translate(-60.916 -1293.65)" fill-rule="evenodd" fill="url(#linear-gradient-35)"/>
          <path id="Trazado_200243" data-name="Trazado 200243" d="M83.258,1403.989c0,12.654-13.506,2.45-18.536,4.493-3.24,1.317-7.021,6.7-7.021,10.532,0,1.877-.809,4-.421,5.9,1,4.9,3.364,5.905,6.46,9.69,1.466,0,2.034,1.426,3.931,1.263,5.826-.5,11.907-5.6,17.975-3.511,4.257,1.469,11.949-.208,16.71.281,4.957.509,5.193-13.1,3.511-14.463-2.633-2.139-6.171,1.685-8.987,1.685-4.66,0-1.4-4.758-1.4-7.021-1.21-1.732-2.074.121-3.652-.421a8.776,8.776,0,0,1-5.055-4.634C86.4,1406.81,84.251,1402.571,83.258,1403.989Z" transform="translate(-52.106 -1323.459)" fill-rule="evenodd" fill="url(#linear-gradient-36)"/>
          <path id="Trazado_200244" data-name="Trazado 200244" d="M129.942,1396.192c-1.3.092-2.631,2.349-3.652,3.371-1.276,1.276-4.775,1.544-4.775,3.509,0,2.01,2.686,2.648.282,4.775-1.349,1.194-3.16,2.33-4.073,3.792-1.431,2.288,6.029,2.239,7.163,2.949,3.626,2.268,3.894-1.892,5.054-4.213,1.064-2.131,9.007-8.624,7.864-10.11-1.1-1.424-3.39-.648-4.494-1.545A31.5,31.5,0,0,0,129.942,1396.192Z" transform="translate(-68.457 -1321.42)" fill-rule="evenodd" fill="url(#linear-gradient-37)"/>
          <path id="Trazado_200245" data-name="Trazado 200245" d="M143.909,1402.86c-1.4.751-3.446,4.8-4.212,5.9-1.258,1.809-7.343,6.682-4.633,8.564,1.243.863,6.817,1.607,8,.422,2.334-2.335,4.125-5.046,6.6-7.021,1.838-1.471,4.9-3.236,1.966-5.617-.974-.79-2.728-.924-4.213-1.264C146.788,1403.7,143.769,1402.069,143.909,1402.86Z" transform="translate(-73.017 -1323.173)" fill-rule="evenodd" fill="url(#linear-gradient-38)"/>
          <path id="Trazado_200246" data-name="Trazado 200246" d="M133.212,1425.055c-3.8,0-5.186.507-6.037,4.213-.537,2.329-1.423,5.412-1.125,8,.59,5.135,5.295,1.41,8.566,2.667,3.4,1.309,4.094,2.271,6.74-.982,1.63-2-2.588-3.289-2.386-5.055.39-3.411,7.113-2.76,2.386-6.6-1.011-.824-2.2-.778-3.791-.983C137.218,1426.274,133.653,1424.572,133.212,1425.055Z" transform="translate(-70.746 -1329.219)" fill-rule="evenodd" fill="url(#linear-gradient-39)"/>
          <path id="Trazado_200247" data-name="Trazado 200247" d="M162.931,1407.936c-1.635,0-6.268,2.049-4.916,4.212.661,1.058-2.966,2.327-4.212,2.949-4.569,2.284-4.174,7.583,1.545,7.583,3.347,0,6.125-.1,7.3-3.51.954-2.766-2.249-2.963,2.527-3.511,2.193-.252,8.962-.779,5.758-4.354-1.428-1.591-2.434-.932-4.212-1.544C165.988,1409.508,162.841,1407.634,162.931,1407.936Z" transform="translate(-77.434 -1324.597)" fill-rule="evenodd" fill="url(#linear-gradient-40)"/>
          <path id="Trazado_200248" data-name="Trazado 200248" d="M149.95,1434.33c-3.423,0-3.142,3.542-2.106,5.2,1.2,1.913.042,2.7-1.125,4.213-.953,1.24-.061,2.605.7,3.37,1.555,1.554,5.547-3.212,7.583-2.949.605.077,1.961-.637,2.81-.7,1.709-.129,3.633.876,4.632-1.124C165.978,1435.271,154.239,1434.611,149.95,1434.33Z" transform="translate(-76.248 -1331.755)" fill-rule="evenodd" fill="url(#linear-gradient-41)"/>
          <path id="Trazado_200249" data-name="Trazado 200249" d="M181.843,1415.073c-6.208,3.618,5.621,10.905,9.268,12.217l14.043,5.054c.111.041.223.076.34.108v-3.36C200.045,1426.205,186.163,1418.684,181.843,1415.073Z" transform="translate(-85.395 -1326.539)" fill-rule="evenodd" fill="url(#linear-gradient-42)"/>
          <path id="Trazado_200250" data-name="Trazado 200250" d="M158.479,1429.489c-1.038,0-1.894.6-1.124,1.545.69.85,2.871,1.083,4.073,1.545,2.787,1.071,5.686,4.212,9.267,4.212.849,0,6.726,1.119,4.493-1.4-1.318-1.488-3.744-.647-5.2-1.825-1.041-.847-3.759-3.854-4.493-4.073C164.557,1429.209,159.15,1428.309,158.479,1429.489Z" transform="translate(-79.161 -1330.284)" fill-rule="evenodd" fill="url(#linear-gradient-43)"/>
          <path id="Trazado_200251" data-name="Trazado 200251" d="M175.519,1422.2c-1.385.319-7.342,2.282-5.475,3.931,3.011,2.666,8.986,5.758,13.2,5.758,3.654,0,7.051,3.479,10.532,3.931,10.783,1.4-.875-3.748-4.494-5.054C185.6,1429.435,176.251,1424.831,175.519,1422.2Z" transform="translate(-82.581 -1328.469)" fill-rule="evenodd" fill="url(#linear-gradient-44)"/>
          <path id="Trazado_200252" data-name="Trazado 200252" d="M174.222,1442.158c-3.441,0-5.522,5.078-1.122,5.477,2.238.2,3.072,3.37,5.337,3.37,2.469,0,4.568-4.57,3.932-7.022-.435-1.67-2.2-1.25-4.073-1.4a5.278,5.278,0,0,1-1.965-.562C176.037,1441.906,174.069,1442.018,174.222,1442.158Z" transform="translate(-82.829 -1333.825)" fill-rule="evenodd" fill="url(#linear-gradient-45)"/>
          <path id="Trazado_200253" data-name="Trazado 200253" d="M189.936,1446.276c-1.56,0-2.37,1.747-2.527,2.949-.161,1.246-.919,2.528,1.124,2.528,1.447,0,2-.523,3.229-.842,2.209-.573,3.078-.5,5.476.42,1.708.656,2.851.814,3.09-1.264.424-3.694-1.589-4.072-4.774-4.072C194.186,1446,189.973,1445.336,189.936,1446.276Z" transform="translate(-87.308 -1334.854)" fill-rule="evenodd" fill="url(#linear-gradient-46)"/>
          <path id="Trazado_200254" data-name="Trazado 200254" d="M187.456,1438.31c-.677-.155-2.718.427-2.106,1.405.478.76.906.583,1.544.983,1.152.719,6.107,3.5,7.021,1.124.289-.752-.391-1.3-.7-1.686a2.145,2.145,0,0,0-1.122-.7C190.034,1439.243,189.455,1437.6,187.456,1438.31Z" transform="translate(-86.793 -1332.785)" fill-rule="evenodd" fill="url(#linear-gradient-47)"/>
          <path id="Trazado_200255" data-name="Trazado 200255" d="M207.291,1447.621c-.68,1.472-1.131,3.041.139,4.071a5.509,5.509,0,0,0,1.406.421c.548.172,1.128.068,1.685.281a4.739,4.739,0,0,0,1.124.141,1.839,1.839,0,0,0,1.042-.235v-1.358a3.244,3.244,0,0,0-1.183-1.074c-.669-.336-1.167-.892-1.826-1.265A7.061,7.061,0,0,0,207.291,1447.621Z" transform="translate(-92.586 -1335.355)" fill-rule="evenodd" fill="url(#linear-gradient-48)"/>
          <path id="Trazado_200256" data-name="Trazado 200256" d="M201.506,1442.42c-1.124,0-2.545.695-1.124,1.4a17.394,17.394,0,0,0,5.337,1.544,7.34,7.34,0,0,1,2.949,1.4c.786.638,1.736-1.286.7-1.684a12.319,12.319,0,0,1-3.793-1.825C204.437,1442.335,203.366,1442.561,201.506,1442.42Z" transform="translate(-90.734 -1333.947)" fill-rule="evenodd" fill="url(#linear-gradient-49)"/>
          <path id="Trazado_200257" data-name="Trazado 200257" d="M213.051,1440.106c-1.541,1.284-.308,2.53,1.183,3.5v-3.245A2.819,2.819,0,0,0,213.051,1440.106Z" transform="translate(-94.135 -1333.316)" fill-rule="evenodd" fill="url(#linear-gradient-50)"/>
        </g>
      </g>
      <g id="Grupo_161625" data-name="Grupo 161625" transform="translate(65.716 1166.56)">
        <path id="Trazado_200258" data-name="Trazado 200258" d="M116.568,1395.221a5.412,5.412,0,1,0,5.413,5.413A5.42,5.42,0,0,0,116.568,1395.221Z" transform="translate(-89.806 -1373.871)" fill="#dc0000"/>
        <path id="Trazado_200259" data-name="Trazado 200259" d="M114.4,1409.718a11.251,11.251,0,1,1,11.252-11.252A11.265,11.265,0,0,1,114.4,1409.718Zm0-19.6a8.352,8.352,0,1,0,8.353,8.352A8.361,8.361,0,0,0,114.4,1390.113Z" transform="translate(-87.637 -1371.703)" fill="#dc0000" opacity="0.8"/>
        <path id="Trazado_200260" data-name="Trazado 200260" d="M112.478,1412.965a16.422,16.422,0,1,1,16.422-16.421A16.441,16.441,0,0,1,112.478,1412.965Zm0-30.639a14.217,14.217,0,1,0,14.219,14.218A14.234,14.234,0,0,0,112.478,1382.326Z" transform="translate(-85.716 -1369.781)" fill="#dc0000" opacity="0.6"/>
        <path id="Trazado_200261" data-name="Trazado 200261" d="M110.557,1416.216a21.592,21.592,0,1,1,21.593-21.592A21.616,21.616,0,0,1,110.557,1416.216Zm0-41.091a19.5,19.5,0,1,0,19.5,19.5A19.521,19.521,0,0,0,110.557,1375.125Z" transform="translate(-83.796 -1367.861)" fill="#dc0000" opacity="0.4"/>
        <path id="Trazado_200262" data-name="Trazado 200262" d="M108.636,1419.464A26.762,26.762,0,1,1,135.4,1392.7,26.792,26.792,0,0,1,108.636,1419.464Zm0-51.953a25.192,25.192,0,1,0,25.192,25.191A25.219,25.219,0,0,0,108.636,1367.512Z" transform="translate(-81.875 -1365.94)" fill="#dc0000" opacity="0.2"/>
      </g>
    </g>
  </g>
</svg>
