<svg xmlns="http://www.w3.org/2000/svg" width="85" height="85" viewBox="0 0 85 85">
  <g id="Grupo_155295" data-name="Grupo 155295" transform="translate(-390 -2851.756)">
    <circle id="Elipse_4087" data-name="Elipse 4087" cx="42.5" cy="42.5" r="42.5" transform="translate(390 2851.756)" fill="#00bcd4"/>
    <g id="Grupo_157051" data-name="Grupo 157051" transform="translate(396.5 2859.367)">
      <path id="Trazado_193178" data-name="Trazado 193178" d="M100.04,83.646c.67,0,1.355-.015,2.04-.062a35.512,35.512,0,0,0-4.049-70.909,35.515,35.515,0,0,0,2.009,70.972ZM98.218,15.773a32.4,32.4,0,0,1,26.019,53.922A32.4,32.4,0,1,1,98.218,15.773Z" transform="translate(-64.54 -12.614)" fill="#fff"/>
      <path id="Trazado_193179" data-name="Trazado 193179" d="M100.393,74.355c.3,0,.607-.016.919-.047a12.2,12.2,0,0,0,6.711-3.067c4.235-3.737,5.356-9.436,2.491-12.675s-8.641-2.834-12.893.9a12.078,12.078,0,0,0-3.877,6.275,7.076,7.076,0,0,0,1.386,6.4A6.8,6.8,0,0,0,100.393,74.355ZM96.78,66.429a8.966,8.966,0,0,1,2.9-4.625,8.768,8.768,0,0,1,5.559-2.335,3.779,3.779,0,0,1,2.927,1.152c1.7,1.931.685,5.715-2.211,8.284a8.888,8.888,0,0,1-4.951,2.3,4.027,4.027,0,0,1-3.535-1.137A3.982,3.982,0,0,1,96.78,66.429Z" transform="translate(-81.71 -38.544)" fill="#fff"/>
    </g>
  </g>
</svg>
