<svg xmlns="http://www.w3.org/2000/svg" xmlns:xlink="http://www.w3.org/1999/xlink" width="715" height="493" viewBox="0 0 715 493">
  <defs>
    <clipPath id="clip-path">
      <path id="Trazado_193542" data-name="Trazado 193542" d="M-1342.87-712.641s9.5-3.376,8.018,6.331c0,0-2.743,10.973,2.111,10.34,0,0,5.064-.633,4.009-9.707,0,0-4.431-7.6,5.908-7.175,0,0,8.652-.211,4.221,10.551,0,0-5.7,9.707-3.166,24.478l4.432,19.624s3.165,12.028-5.487,12.661c0,0-6.436,1.372-3.587-17.514,0,0,1.055-22.157-3.376-24.689,0,0-8.23-7.385-7.175,7.386l2.321,26.588s2.533,8.018-5.908,8.018c0,0-7.386,1.266-5.064-13.927,0,0,.844-16.881,2.321-25.744,0,0,1.9-9.284-1.266-13.716C-1344.558-699.136-1353.526-709.793-1342.87-712.641Z" transform="translate(1348.087 713.21)" fill="none"/>
    </clipPath>
    <clipPath id="clip-path-2">
      <path id="Trazado_193545" data-name="Trazado 193545" d="M-1301.063-704.864s7.447-2.648,6.289,4.965c0,0-2.151,8.606,1.655,8.109,0,0,3.972-.5,3.144-7.613,0,0-3.475-5.958,4.634-5.627,0,0,6.785-.166,3.31,8.275,0,0-4.468,7.613-2.482,19.2l3.475,15.391s2.482,9.433-4.3,9.93c0,0-5.047.827-2.813-13.736,0,0,.827-17.377-2.648-19.363,0,0-6.454-5.792-5.627,5.792l1.82,20.852s1.986,6.289-4.634,6.289c0,0-5.792.993-3.972-10.923,0,0,.662-13.239,1.82-20.19,0,0,1.49-7.282-.993-10.757C-1302.387-694.272-1310.166-702.713-1301.063-704.864Z" transform="translate(1305.483 705.31)" fill="none"/>
    </clipPath>
    <clipPath id="clip-path-3">
      <path id="Trazado_193548" data-name="Trazado 193548" d="M-1561.292-845.179s7.447-2.648,6.289,4.965c0,0-2.151,8.606,1.655,8.109,0,0,3.972-.5,3.144-7.613,0,0-3.475-5.958,4.634-5.627,0,0,6.785-.166,3.31,8.275,0,0-4.468,7.613-2.482,19.2l3.475,15.391s2.482,9.433-4.3,9.93c0,0-5.048,1.076-2.813-13.736,0,0,.828-17.377-2.648-19.363,0,0-6.454-5.792-5.627,5.792l1.82,20.852s1.986,6.289-4.634,6.289c0,0-5.792.993-3.972-10.923,0,0,.662-13.239,1.82-20.19,0,0,1.49-7.282-.993-10.757C-1562.616-834.587-1569.65-842.945-1561.292-845.179Z" transform="translate(1565.384 845.625)" fill="none"/>
    </clipPath>
    <clipPath id="clip-path-4">
      <path id="Trazado_193551" data-name="Trazado 193551" d="M-1471.467-851.757s9.5-3.376,8.019,6.331c0,0-2.743,10.972,2.11,10.339,0,0,5.065-.633,4.009-9.706,0,0-4.431-7.6,5.909-7.175,0,0,8.652-.211,4.22,10.551,0,0-5.7,9.707-3.165,24.478l4.431,19.624s3.166,12.028-5.486,12.661c0,0-6.436,1.372-3.587-17.514,0,0,1.055-22.157-3.377-24.689,0,0-8.229-7.386-7.174,7.386l2.321,26.587s2.532,8.019-5.908,8.019c0,0-7.386,1.266-5.065-13.927,0,0,.844-16.881,2.321-25.744,0,0,1.9-9.285-1.266-13.716C-1473.155-838.251-1482.123-848.908-1471.467-851.757Z" transform="translate(1476.684 852.325)" fill="none"/>
    </clipPath>
    <clipPath id="clip-path-5">
      <path id="Trazado_193554" data-name="Trazado 193554" d="M-1521.461-883.879s7.447-2.648,6.289,4.965c0,0-2.151,8.606,1.655,8.109,0,0,3.972-.5,3.144-7.613,0,0-3.475-5.958,4.634-5.627,0,0,6.785-.165,3.31,8.275,0,0-4.468,7.613-2.482,19.2l3.475,15.391s2.482,9.433-4.3,9.93c0,0-5.048.828-2.813-13.736,0,0,.828-17.377-2.648-19.363,0,0-6.454-5.792-5.627,5.792l1.82,20.852s1.986,6.289-4.634,6.289c0,0-5.792.993-3.972-10.923,0,0,.662-13.239,1.821-20.19,0,0,1.489-7.282-.993-10.757C-1522.785-873.287-1530.563-881.728-1521.461-883.879Z" transform="translate(1525.88 884.325)" fill="none"/>
    </clipPath>
    <clipPath id="clip-path-6">
      <path id="Trazado_193557" data-name="Trazado 193557" d="M-1522.631-814.365s9.349-3.325,7.9,6.233c0,0-2.7,10.8,2.078,10.18,0,0,4.986-.623,3.947-9.557,0,0-4.363-7.48,5.818-7.064,0,0,8.519-.208,4.156,10.388,0,0-5.609,9.558-3.116,24.1l4.363,19.323s3.116,11.844-5.4,12.467c0,0-6.337,1.039-3.532-17.245,0,0,1.038-21.817-3.325-24.31,0,0-8.1-7.272-7.064,7.273l2.286,26.179s2.493,7.9-5.818,7.9c0,0-7.272,1.246-4.986-13.714,0,0,.831-16.622,2.286-25.349,0,0,1.87-9.142-1.247-13.505C-1524.293-801.067-1534.059-811.664-1522.631-814.365Z" transform="translate(1528.18 814.924)" fill="none"/>
    </clipPath>
    <clipPath id="clip-path-7">
      <path id="Trazado_193560" data-name="Trazado 193560" d="M-1301.55-953.906s7.287-2.591,6.154,4.859c0,0-2.105,8.421,1.619,7.935,0,0,3.887-.486,3.077-7.45,0,0-3.4-5.83,4.535-5.507,0,0,6.64-.161,3.239,8.1,0,0-4.372,7.45-2.429,18.786l3.4,15.061s2.429,9.231-4.21,9.717c0,0-4.94,1.053-2.753-13.441,0,0,.809-17.005-2.592-18.948,0,0-6.316-5.668-5.506,5.668l1.781,20.405s1.943,6.154-4.534,6.154c0,0-5.669.972-3.887-10.688,0,0,.648-12.956,1.781-19.757,0,0,1.458-7.126-.971-10.527C-1302.846-943.541-1309.729-951.72-1301.55-953.906Z" transform="translate(1305.554 954.342)" fill="none"/>
    </clipPath>
    <clipPath id="clip-path-8">
      <path id="Trazado_193563" data-name="Trazado 193563" d="M-1343.7-962.283s9.35-3.324,7.9,6.233c0,0-2.7,10.8,2.078,10.181,0,0,4.986-.623,3.948-9.557,0,0-4.363-7.48,5.818-7.065,0,0,8.519-.208,4.155,10.389,0,0-5.61,9.558-3.117,24.1l4.363,19.323s3.117,11.843-5.4,12.467c0,0-6.338,1.039-3.533-17.246,0,0,1.039-21.816-3.325-24.309,0,0-8.1-7.273-7.064,7.272l2.286,26.18s2.493,7.9-5.818,7.9c0,0-7.272,1.246-4.986-13.714,0,0,.831-16.622,2.285-25.349,0,0,1.87-9.142-1.247-13.505C-1345.364-948.984-1355.129-959.581-1343.7-962.283Z" transform="translate(1349.251 962.842)" fill="none"/>
    </clipPath>
    <clipPath id="clip-path-9">
      <path id="Trazado_193565" data-name="Trazado 193565" d="M-1130.836-1014.347a10.4,10.4,0,0,0-11.914.831s5.819,18.564.554,27.984c0,0-5.819,17.733.831,24.1,0,0,11.36,7.481,11.083-19.948Z" transform="translate(1144.552 1015.849)" fill="none"/>
    </clipPath>
    <clipPath id="clip-path-10">
      <path id="Trazado_193568" data-name="Trazado 193568" d="M-1130.836-640.547a10.4,10.4,0,0,0-11.914.831s5.819,18.564.554,27.984c0,0-5.819,17.733.831,24.1,0,0,11.36,7.481,11.083-19.949Z" transform="translate(1144.552 642.049)" fill="none"/>
    </clipPath>
    <clipPath id="clip-path-11">
      <path id="Trazado_193571" data-name="Trazado 193571" d="M-1153.549-908.294a12.5,12.5,0,0,0-14.317,1s6.992,22.308.666,33.629c0,0-6.993,21.309,1,28.967,0,0,13.651,8.99,13.318-23.973Z" transform="translate(1170.031 910.099)" fill="none"/>
    </clipPath>
    <clipPath id="clip-path-12">
      <path id="Trazado_193574" data-name="Trazado 193574" d="M-1153.549-761.594a12.5,12.5,0,0,0-14.317,1s6.992,22.308.666,33.629c0,0-6.993,21.309,1,28.967,0,0,13.651,8.99,13.318-23.972Z" transform="translate(1170.031 763.399)" fill="none"/>
    </clipPath>
  </defs>
  <g id="Grupo_163044" data-name="Grupo 163044" transform="translate(5754 922)">
    <path id="Trazado_193578" data-name="Trazado 193578" d="M0,0H715V493H0Z" transform="translate(-5754 -922)" fill="#f8fdff"/>
    <path id="Trazado_203049" data-name="Trazado 203049" d="M69.673,0A69.673,69.673,0,1,1,0,69.673,69.673,69.673,0,0,1,69.673,0Z" transform="translate(-5698 -737.262)" fill="#d9f5fc"/>
    <path id="Trazado_203050" data-name="Trazado 203050" d="M69.673,0A69.673,69.673,0,1,1,0,69.673,69.673,69.673,0,0,1,69.673,0Z" transform="translate(-5517.623 -737.262)" fill="#d9f5fc"/>
    <path id="Trazado_203051" data-name="Trazado 203051" d="M55.955,0A55.955,55.955,0,1,1,0,55.955,55.955,55.955,0,0,1,55.955,0Z" transform="translate(-5347.322 -817.227)" fill="#d9f5fc"/>
    <path id="Trazado_203052" data-name="Trazado 203052" d="M55.955,0A55.955,55.955,0,1,1,0,55.955,55.955,55.955,0,0,1,55.955,0Z" transform="translate(-5346.385 -610.14)" fill="#d9f5fc"/>
    <path id="Trazado_203053" data-name="Trazado 203053" d="M41.509,0A41.509,41.509,0,1,1,0,41.509,41.509,41.509,0,0,1,41.509,0Z" transform="translate(-5197.842 -544.604)" fill="#d9f5fc"/>
    <path id="Trazado_203054" data-name="Trazado 203054" d="M41.509,0A41.509,41.509,0,1,1,0,41.509,41.509,41.509,0,0,1,41.509,0Z" transform="translate(-5197.842 -638.439)" fill="#d9f5fc"/>
    <path id="Trazado_203055" data-name="Trazado 203055" d="M41.509,0A41.509,41.509,0,1,1,0,41.509,41.509,41.509,0,0,1,41.509,0Z" transform="translate(-5197.842 -759.083)" fill="#d9f5fc"/>
    <path id="Trazado_203056" data-name="Trazado 203056" d="M41.509,0A41.509,41.509,0,1,1,0,41.509,41.509,41.509,0,0,1,41.509,0Z" transform="translate(-5197.842 -853.414)" fill="#d9f5fc"/>
    <path id="Trazado_193535" data-name="Trazado 193535" d="M-1155.266-1021.373a12.429,12.429,0,0,0-14.232.993s6.951,22.176.662,33.43c0,0-6.951,21.183.993,28.8,0,0,13.57,8.937,13.239-23.831Z" transform="translate(-4002.854 178.656)" fill="#7e5ee3"/>
    <g id="Grupo_157302" data-name="Grupo 157302" transform="translate(-5671.939 -702.104)">
      <path id="Trazado_193536" data-name="Trazado 193536" d="M-1659.718-847.673a12.429,12.429,0,0,0-14.232.993s6.951,22.176.662,33.43c0,0-6.951,21.183.993,28.8,0,0,13.57,8.937,13.24-23.831Z" transform="translate(1746.272 850.791)" fill="#00bcd4"/>
      <path id="Trazado_193537" data-name="Trazado 193537" d="M-1692.228-814.435a9.919,9.919,0,0,0-11.357.793s5.547,17.7.528,26.675c0,0-5.547,16.9.793,22.979,0,0,10.829,7.131,10.564-19.017Z" transform="translate(1751.31 844.994)" fill="#00bcd4"/>
      <path id="Trazado_193538" data-name="Trazado 193538" d="M-1719.318-844.073a12.429,12.429,0,0,0-14.232.993s6.951,22.176.662,33.43c0,0-6.951,21.183.993,28.8,0,0,13.57,8.937,13.24-23.831Z" transform="translate(1756.555 850.17)" fill="#7e5ee3"/>
      <path id="Trazado_193539" data-name="Trazado 193539" d="M-1747.828-849.635a9.918,9.918,0,0,0-11.357.793s5.547,17.7.528,26.675c0,0-5.547,16.9.793,22.979,0,0,10.829,7.131,10.564-19.017Z" transform="translate(1760.903 851.067)" fill="#7e5ee3"/>
    </g>
    <g id="Grupo_157309" data-name="Grupo 157309" transform="translate(-5320.5 -588.032)">
      <g id="Grupo_157305" data-name="Grupo 157305">
        <path id="Trazado_193540" data-name="Trazado 193540" d="M-1342.87-712.641s9.5-3.376,8.018,6.331c0,0-2.743,10.973,2.111,10.34,0,0,5.064-.633,4.009-9.707,0,0-4.431-7.6,5.908-7.175,0,0,8.652-.211,4.221,10.551,0,0-5.7,9.707-3.166,24.478l4.432,19.624s3.165,12.028-5.487,12.661c0,0-6.436,1.372-3.587-17.514,0,0,1.055-22.157-3.376-24.689,0,0-8.23-7.385-7.175,7.386l2.321,26.588s2.533,8.018-5.908,8.018c0,0-7.386,1.266-5.064-13.927,0,0,.844-16.881,2.321-25.744,0,0,1.9-9.284-1.266-13.716C-1344.558-699.136-1353.526-709.793-1342.87-712.641Z" transform="translate(1348.087 713.21)" fill="#7e5ee3"/>
        <g id="Grupo_157304" data-name="Grupo 157304">
          <g id="Grupo_157303" data-name="Grupo 157303" clip-path="url(#clip-path)">
            <path id="Trazado_193541" data-name="Trazado 193541" d="M-1354.111-682.942s13.716-13.716,20.046-17.936.844.211.844.211l-6.541-28.065-20.047,14.349Z" transform="translate(1350.109 715.888)" fill="#00bcd4"/>
          </g>
        </g>
      </g>
      <g id="Grupo_157308" data-name="Grupo 157308" transform="translate(35.253 6.537)">
        <path id="Trazado_193543" data-name="Trazado 193543" d="M-1301.063-704.864s7.447-2.648,6.289,4.965c0,0-2.151,8.606,1.655,8.109,0,0,3.972-.5,3.144-7.613,0,0-3.475-5.958,4.634-5.627,0,0,6.785-.166,3.31,8.275,0,0-4.468,7.613-2.482,19.2l3.475,15.391s2.482,9.433-4.3,9.93c0,0-5.047.827-2.813-13.736,0,0,.827-17.377-2.648-19.363,0,0-6.454-5.792-5.627,5.792l1.82,20.852s1.986,6.289-4.634,6.289c0,0-5.792.993-3.972-10.923,0,0,.662-13.239,1.82-20.19,0,0,1.49-7.282-.993-10.757C-1302.387-694.272-1310.166-702.713-1301.063-704.864Z" transform="translate(1305.483 705.31)" fill="#7e5ee3"/>
        <g id="Grupo_157307" data-name="Grupo 157307">
          <g id="Grupo_157306" data-name="Grupo 157306" clip-path="url(#clip-path-2)">
            <path id="Trazado_193544" data-name="Trazado 193544" d="M-1307.023-685.044l.333-.246,13.32-9.849-1.655-16.632,17.294.5.166,59.081-14.729,1.655-21.349-1.82Z" transform="translate(1306.891 706.424)" fill="#00bcd4"/>
          </g>
        </g>
      </g>
    </g>
    <g id="Grupo_157322" data-name="Grupo 157322" transform="translate(-5500.306 -729.624)">
      <g id="Grupo_157312" data-name="Grupo 157312" transform="translate(0 32.023)">
        <path id="Trazado_193546" data-name="Trazado 193546" d="M-1561.292-845.179s7.447-2.648,6.289,4.965c0,0-2.151,8.606,1.655,8.109,0,0,3.972-.5,3.144-7.613,0,0-3.475-5.958,4.634-5.627,0,0,6.785-.166,3.31,8.275,0,0-4.468,7.613-2.482,19.2l3.475,15.391s2.482,9.433-4.3,9.93c0,0-5.048,1.076-2.813-13.736,0,0,.828-17.377-2.648-19.363,0,0-6.454-5.792-5.627,5.792l1.82,20.852s1.986,6.289-4.634,6.289c0,0-5.792.993-3.972-10.923,0,0,.662-13.239,1.82-20.19,0,0,1.49-7.282-.993-10.757C-1562.616-834.587-1569.65-842.945-1561.292-845.179Z" transform="translate(1565.384 845.625)" fill="#7e5ee3"/>
        <g id="Grupo_157311" data-name="Grupo 157311">
          <g id="Grupo_157310" data-name="Grupo 157310" clip-path="url(#clip-path-3)">
            <path id="Trazado_193547" data-name="Trazado 193547" d="M-1570.108-821.886s10.757-10.757,15.722-14.067.662.165.662.165l-5.13-22.01-15.722,11.253Z" transform="translate(1566.97 847.725)" fill="#00bcd4"/>
          </g>
        </g>
      </g>
      <g id="Grupo_157315" data-name="Grupo 157315" transform="translate(73.396 26.479)">
        <path id="Trazado_193549" data-name="Trazado 193549" d="M-1471.467-851.757s9.5-3.376,8.019,6.331c0,0-2.743,10.972,2.11,10.339,0,0,5.065-.633,4.009-9.706,0,0-4.431-7.6,5.909-7.175,0,0,8.652-.211,4.22,10.551,0,0-5.7,9.707-3.165,24.478l4.431,19.624s3.166,12.028-5.486,12.661c0,0-6.436,1.372-3.587-17.514,0,0,1.055-22.157-3.377-24.689,0,0-8.229-7.386-7.174,7.386l2.321,26.587s2.532,8.019-5.908,8.019c0,0-7.386,1.266-5.065-13.927,0,0,.844-16.881,2.321-25.744,0,0,1.9-9.285-1.266-13.716C-1473.155-838.251-1482.123-848.908-1471.467-851.757Z" transform="translate(1476.684 852.325)" fill="#7e5ee3"/>
        <g id="Grupo_157314" data-name="Grupo 157314">
          <g id="Grupo_157313" data-name="Grupo 157313" clip-path="url(#clip-path-4)">
            <path id="Trazado_193550" data-name="Trazado 193550" d="M-1482.708-822.057s13.716-13.716,20.047-17.936.844.211.844.211l-6.542-28.065-20.046,14.349Z" transform="translate(1478.706 855.003)" fill="#00bcd4"/>
          </g>
        </g>
      </g>
      <g id="Grupo_157318" data-name="Grupo 157318" transform="translate(32.688)">
        <path id="Trazado_193552" data-name="Trazado 193552" d="M-1521.461-883.879s7.447-2.648,6.289,4.965c0,0-2.151,8.606,1.655,8.109,0,0,3.972-.5,3.144-7.613,0,0-3.475-5.958,4.634-5.627,0,0,6.785-.165,3.31,8.275,0,0-4.468,7.613-2.482,19.2l3.475,15.391s2.482,9.433-4.3,9.93c0,0-5.048.828-2.813-13.736,0,0,.828-17.377-2.648-19.363,0,0-6.454-5.792-5.627,5.792l1.82,20.852s1.986,6.289-4.634,6.289c0,0-5.792.993-3.972-10.923,0,0,.662-13.239,1.821-20.19,0,0,1.489-7.282-.993-10.757C-1522.785-873.287-1530.563-881.728-1521.461-883.879Z" transform="translate(1525.88 884.325)" fill="#7e5ee3"/>
        <g id="Grupo_157317" data-name="Grupo 157317">
          <g id="Grupo_157316" data-name="Grupo 157316" clip-path="url(#clip-path-5)">
            <path id="Trazado_193553" data-name="Trazado 193553" d="M-1527.419-864.059l.333-.246,13.321-9.849-1.655-16.632,17.294.5.166,59.081-14.729,1.655-21.349-1.82Z" transform="translate(1527.288 885.439)" fill="#00bcd4"/>
          </g>
        </g>
      </g>
      <g id="Grupo_157321" data-name="Grupo 157321" transform="translate(30.785 57.426)">
        <path id="Trazado_193555" data-name="Trazado 193555" d="M-1522.631-814.365s9.349-3.325,7.9,6.233c0,0-2.7,10.8,2.078,10.18,0,0,4.986-.623,3.947-9.557,0,0-4.363-7.48,5.818-7.064,0,0,8.519-.208,4.156,10.388,0,0-5.609,9.558-3.116,24.1l4.363,19.323s3.116,11.844-5.4,12.467c0,0-6.337,1.039-3.532-17.245,0,0,1.038-21.817-3.325-24.31,0,0-8.1-7.272-7.064,7.273l2.286,26.179s2.493,7.9-5.818,7.9c0,0-7.272,1.246-4.986-13.714,0,0,.831-16.622,2.286-25.349,0,0,1.87-9.142-1.247-13.505C-1524.293-801.067-1534.059-811.664-1522.631-814.365Z" transform="translate(1528.18 814.924)" fill="#7e5ee3"/>
        <g id="Grupo_157320" data-name="Grupo 157320">
          <g id="Grupo_157319" data-name="Grupo 157319" clip-path="url(#clip-path-6)">
            <path id="Trazado_193556" data-name="Trazado 193556" d="M-1530.112-789.481l.418-.309,16.724-12.365-2.078-20.881,21.712.623.208,74.176-18.492,2.078-26.8-2.286Z" transform="translate(1529.948 816.324)" fill="#00bcd4"/>
          </g>
        </g>
      </g>
    </g>
    <g id="Grupo_157329" data-name="Grupo 157329" transform="translate(-5321.463 -794.594)">
      <g id="Grupo_157325" data-name="Grupo 157325" transform="translate(36.157 7.034)">
        <path id="Trazado_193558" data-name="Trazado 193558" d="M-1301.55-953.906s7.287-2.591,6.154,4.859c0,0-2.105,8.421,1.619,7.935,0,0,3.887-.486,3.077-7.45,0,0-3.4-5.83,4.535-5.507,0,0,6.64-.161,3.239,8.1,0,0-4.372,7.45-2.429,18.786l3.4,15.061s2.429,9.231-4.21,9.717c0,0-4.94,1.053-2.753-13.441,0,0,.809-17.005-2.592-18.948,0,0-6.316-5.668-5.506,5.668l1.781,20.405s1.943,6.154-4.534,6.154c0,0-5.669.972-3.887-10.688,0,0,.648-12.956,1.781-19.757,0,0,1.458-7.126-.971-10.527C-1302.846-943.541-1309.729-951.72-1301.55-953.906Z" transform="translate(1305.554 954.342)" fill="#7e5ee3"/>
        <g id="Grupo_157324" data-name="Grupo 157324">
          <g id="Grupo_157323" data-name="Grupo 157323" clip-path="url(#clip-path-7)">
            <path id="Trazado_193559" data-name="Trazado 193559" d="M-1310.178-931.113s10.527-10.526,15.385-13.765.648.161.648.161l-5.02-21.539-15.385,11.013Z" transform="translate(1307.106 956.397)" fill="#00bcd4"/>
          </g>
        </g>
      </g>
      <g id="Grupo_157328" data-name="Grupo 157328">
        <path id="Trazado_193561" data-name="Trazado 193561" d="M-1343.7-962.283s9.35-3.324,7.9,6.233c0,0-2.7,10.8,2.078,10.181,0,0,4.986-.623,3.948-9.557,0,0-4.363-7.48,5.818-7.065,0,0,8.519-.208,4.155,10.389,0,0-5.61,9.558-3.117,24.1l4.363,19.323s3.117,11.843-5.4,12.467c0,0-6.338,1.039-3.533-17.246,0,0,1.039-21.816-3.325-24.309,0,0-8.1-7.273-7.064,7.272l2.286,26.18s2.493,7.9-5.818,7.9c0,0-7.272,1.246-4.986-13.714,0,0,.831-16.622,2.285-25.349,0,0,1.87-9.142-1.247-13.505C-1345.364-948.984-1355.129-959.581-1343.7-962.283Z" transform="translate(1349.251 962.842)" fill="#7e5ee3"/>
        <g id="Grupo_157327" data-name="Grupo 157327">
          <g id="Grupo_157326" data-name="Grupo 157326" clip-path="url(#clip-path-8)">
            <path id="Trazado_193562" data-name="Trazado 193562" d="M-1351.183-937.4l.418-.309,16.724-12.365-2.078-20.881,21.713.623.208,74.176-18.492,2.078-26.8-2.286Z" transform="translate(1351.018 964.242)" fill="#00bcd4"/>
          </g>
        </g>
      </g>
    </g>
    <g id="Grupo_157332" data-name="Grupo 157332" transform="translate(-5152.165 -838.456)">
      <path id="Trazado_193564" data-name="Trazado 193564" d="M-1130.936-1014.047a10.4,10.4,0,0,0-11.914.831s5.819,18.564.554,27.984c0,0-5.819,17.733.831,24.1,0,0,11.36,7.481,11.083-19.948Z" transform="translate(1144.652 1015.797)" fill="#7e5ee3"/>
      <g id="Grupo_157331" data-name="Grupo 157331" transform="translate(0.083)">
        <g id="Grupo_157330" data-name="Grupo 157330" clip-path="url(#clip-path-9)">
          <rect id="Rectángulo_46277" data-name="Rectángulo 46277" width="20.107" height="15.887" transform="translate(-1.116 -4.427)" fill="#00bcd4"/>
        </g>
      </g>
    </g>
    <path id="Trazado_193566" data-name="Trazado 193566" d="M-1155.266-647.573a12.429,12.429,0,0,0-14.232.993s6.951,22.176.662,33.43c0,0-6.951,21.183.993,28.8,0,0,13.57,8.937,13.239-23.831Z" transform="translate(-4002.854 114.163)" fill="#00bcd4"/>
    <g id="Grupo_157335" data-name="Grupo 157335" transform="translate(-5152.165 -529.149)">
      <path id="Trazado_193567" data-name="Trazado 193567" d="M-1130.936-640.247a10.4,10.4,0,0,0-11.914.831s5.819,18.564.554,27.984c0,0-5.819,17.733.831,24.1,0,0,11.36,7.481,11.083-19.949Z" transform="translate(1144.652 641.997)" fill="#7e5ee3"/>
      <g id="Grupo_157334" data-name="Grupo 157334" transform="translate(0.083)">
        <g id="Grupo_157333" data-name="Grupo 157333" clip-path="url(#clip-path-10)">
          <rect id="Rectángulo_46278" data-name="Rectángulo 46278" width="20.107" height="15.887" transform="translate(-1.116 -4.427)" fill="#00bcd4"/>
        </g>
      </g>
    </g>
    <g id="Grupo_157338" data-name="Grupo 157338" transform="translate(-5152.165 -744.993)">
      <g id="Grupo_157337" data-name="Grupo 157337">
        <g id="Grupo_157336" data-name="Grupo 157336">
          <path id="Trazado_193569" data-name="Trazado 193569" d="M-1130.936-901.4a10.4,10.4,0,0,0-11.914.831s5.819,18.564.554,27.984c0,0-5.819,17.733.831,24.1,0,0,11.36,7.481,11.083-19.948Z" transform="translate(1144.652 902.899)" fill="#00bcd4"/>
        </g>
      </g>
    </g>
    <g id="Grupo_157341" data-name="Grupo 157341" transform="translate(-5173.265 -750.951)">
      <path id="Trazado_193570" data-name="Trazado 193570" d="M-1153.669-907.933a12.5,12.5,0,0,0-14.317,1s6.992,22.308.665,33.628c0,0-6.992,21.31,1,28.968,0,0,13.651,8.99,13.319-23.973Z" transform="translate(1170.152 910.037)" fill="#7e5ee3"/>
      <g id="Grupo_157340" data-name="Grupo 157340" transform="translate(0.1)">
        <g id="Grupo_157339" data-name="Grupo 157339" clip-path="url(#clip-path-11)">
          <rect id="Rectángulo_46279" data-name="Rectángulo 46279" width="24.163" height="19.092" transform="translate(-1.341 -5.32)" fill="#00bcd4"/>
        </g>
      </g>
    </g>
    <g id="Grupo_157344" data-name="Grupo 157344" transform="translate(-5152.165 -623.604)">
      <g id="Grupo_157343" data-name="Grupo 157343">
        <g id="Grupo_157342" data-name="Grupo 157342">
          <path id="Trazado_193572" data-name="Trazado 193572" d="M-1130.936-754.7a10.4,10.4,0,0,0-11.914.831s5.819,18.564.554,27.984c0,0-5.819,17.733.831,24.1,0,0,11.36,7.481,11.083-19.949Z" transform="translate(1144.652 756.199)" fill="#7e5ee3"/>
        </g>
      </g>
    </g>
    <g id="Grupo_157347" data-name="Grupo 157347" transform="translate(-5173.265 -629.562)">
      <path id="Trazado_193573" data-name="Trazado 193573" d="M-1153.669-761.233a12.5,12.5,0,0,0-14.317,1s6.992,22.308.665,33.628c0,0-6.992,21.31,1,28.968,0,0,13.651,8.99,13.319-23.973Z" transform="translate(1170.152 763.337)" fill="#00bcd4"/>
      <g id="Grupo_157346" data-name="Grupo 157346" transform="translate(0.1)">
        <g id="Grupo_157345" data-name="Grupo 157345" clip-path="url(#clip-path-12)">
          <rect id="Rectángulo_46280" data-name="Rectángulo 46280" width="24.163" height="19.092" transform="translate(-1.341 -5.32)" fill="#7e5ee3"/>
        </g>
      </g>
    </g>
    <g id="Grupo_157283" data-name="Grupo 157283" transform="translate(-5548.655 -668.063)">
      <path id="Trazado_193529" data-name="Trazado 193529" d="M63.983,145.118H86.261v3.191l5.281-5.279-5.281-5.282v3.19H63.983Z" transform="translate(-63.983 -137.747)" fill="#7e5ee3"/>
    </g>
    <g id="Grupo_157283-2" data-name="Grupo 157283" transform="matrix(0.848, 0.53, -0.53, 0.848, -5370.322, -622.563)">
      <path id="Trazado_193529-2" data-name="Trazado 193529" d="M63.983,145.118H86.261v3.191l5.281-5.279-5.281-5.282v3.19H63.983Z" transform="translate(-63.983 -137.747)" fill="#7e5ee3"/>
    </g>
    <g id="Grupo_157283-3" data-name="Grupo 157283" transform="matrix(0.848, 0.53, -0.53, 0.848, -5228.059, -744.123)">
      <path id="Trazado_193529-3" data-name="Trazado 193529" d="M63.983,145.118H86.261v3.191l5.281-5.279-5.281-5.282v3.19H63.983Z" transform="translate(-63.983 -137.747)" fill="#7e5ee3"/>
    </g>
    <g id="Grupo_157283-4" data-name="Grupo 157283" transform="matrix(0.848, 0.53, -0.53, 0.848, -5228.059, -531.563)">
      <path id="Trazado_193529-4" data-name="Trazado 193529" d="M63.983,145.118H86.261v3.191l5.281-5.279-5.281-5.282v3.19H63.983Z" transform="translate(-63.983 -137.747)" fill="#7e5ee3"/>
    </g>
    <g id="Grupo_157283-5" data-name="Grupo 157283" transform="matrix(0.848, -0.53, 0.53, 0.848, -5375.919, -705.958)">
      <path id="Trazado_193529-5" data-name="Trazado 193529" d="M0,3.191H22.278V0l5.281,5.279-5.281,5.282V7.371H0Z" transform="translate(0 0)" fill="#7e5ee3"/>
    </g>
    <g id="Grupo_157283-6" data-name="Grupo 157283" transform="matrix(0.848, -0.53, 0.53, 0.848, -5233.655, -796.958)">
      <path id="Trazado_193529-6" data-name="Trazado 193529" d="M0,3.191H22.278V0l5.281,5.279-5.281,5.282V7.371H0Z" transform="translate(0 0)" fill="#7e5ee3"/>
    </g>
    <g id="Grupo_157283-7" data-name="Grupo 157283" transform="matrix(0.848, -0.53, 0.53, 0.848, -5233.655, -584.397)">
      <path id="Trazado_193529-7" data-name="Trazado 193529" d="M0,3.191H22.278V0l5.281,5.279-5.281,5.282V7.371H0Z" transform="translate(0 0)" fill="#7e5ee3"/>
    </g>
    <path id="Trazado_203057" data-name="Trazado 203057" d="M0,0H97V30H0Z" transform="translate(-5586.655 -611)" fill="#e0d9f6"/>
    <path id="Trazado_203058" data-name="Trazado 203058" d="M7.73,15H6.23V3.625h1.5Zm3.883-8.453.047,1.063a3.08,3.08,0,0,1,2.531-1.219q2.68,0,2.7,3.023V15H15.449V9.406a1.946,1.946,0,0,0-.418-1.352,1.675,1.675,0,0,0-1.277-.437,2.086,2.086,0,0,0-1.234.375,2.546,2.546,0,0,0-.828.984V15H10.246V6.547ZM21.035,4.5V6.547h1.578V7.664H21.035v5.249a1.173,1.173,0,0,0,.211.763.888.888,0,0,0,.719.254,3.5,3.5,0,0,0,.688-.094V15a4.215,4.215,0,0,1-1.109.155,1.8,1.8,0,0,1-1.461-.586,2.517,2.517,0,0,1-.492-1.664V7.664H18.051V6.547H19.59V4.5Zm6.773,10.656a3.693,3.693,0,0,1-2.8-1.129,4.19,4.19,0,0,1-1.078-3.02v-.266a5.073,5.073,0,0,1,.48-2.246,3.748,3.748,0,0,1,1.344-1.547,3.378,3.378,0,0,1,1.871-.559,3.166,3.166,0,0,1,2.563,1.086,4.7,4.7,0,0,1,.914,3.109v.6H25.379a3,3,0,0,0,.73,2.02,2.3,2.3,0,0,0,1.777.77,2.517,2.517,0,0,0,1.3-.312,3.259,3.259,0,0,0,.93-.828l.883.688A3.55,3.55,0,0,1,27.809,15.156Zm-.18-7.578a1.928,1.928,0,0,0-1.469.637A3.1,3.1,0,0,0,25.426,10H29.66V9.891a2.753,2.753,0,0,0-.594-1.707A1.815,1.815,0,0,0,27.629,7.578Zm9.234.266a4.331,4.331,0,0,0-.711-.055A1.9,1.9,0,0,0,34.223,9v6H32.777V6.547h1.406l.023.977a2.251,2.251,0,0,1,2.016-1.133,1.477,1.477,0,0,1,.641.109ZM39.02,15V7.664H37.684V6.547H39.02V5.68a2.878,2.878,0,0,1,.727-2.1A2.745,2.745,0,0,1,41.8,2.836a3.816,3.816,0,0,1,.992.132l-.078,1.165a4.151,4.151,0,0,0-.781-.07,1.41,1.41,0,0,0-1.086.411,1.669,1.669,0,0,0-.383,1.18v.893h1.8V7.664h-1.8V15Zm10.063,0a3.036,3.036,0,0,1-.2-.891,3.225,3.225,0,0,1-2.406,1.047,2.984,2.984,0,0,1-2.051-.707,2.287,2.287,0,0,1-.8-1.793,2.39,2.39,0,0,1,1-2.051,4.733,4.733,0,0,1,2.824-.73h1.406V9.211A1.623,1.623,0,0,0,48.4,8a1.821,1.821,0,0,0-1.336-.449,2.107,2.107,0,0,0-1.3.391,1.151,1.151,0,0,0-.523.945H43.793a2,2,0,0,1,.449-1.223,3.066,3.066,0,0,1,1.219-.934,4.1,4.1,0,0,1,1.691-.344,3.342,3.342,0,0,1,2.289.73A2.635,2.635,0,0,1,50.3,9.133v3.891a4.757,4.757,0,0,0,.3,1.852V15Zm-2.4-1.1a2.54,2.54,0,0,0,1.289-.352,2.127,2.127,0,0,0,.883-.914V10.9H47.723q-2.656,0-2.656,1.555a1.316,1.316,0,0,0,.453,1.063A1.742,1.742,0,0,0,46.684,13.9Zm10.8-1.141a1.064,1.064,0,0,0-.441-.91,4.249,4.249,0,0,0-1.539-.559,7.277,7.277,0,0,1-1.742-.562,2.479,2.479,0,0,1-.953-.781A1.869,1.869,0,0,1,52.5,8.867a2.193,2.193,0,0,1,.879-1.758,3.432,3.432,0,0,1,2.246-.719,3.532,3.532,0,0,1,2.332.742,2.357,2.357,0,0,1,.895,1.9H57.4a1.3,1.3,0,0,0-.5-1.023,1.888,1.888,0,0,0-1.27-.43,1.976,1.976,0,0,0-1.234.344,1.082,1.082,0,0,0-.445.9.877.877,0,0,0,.414.789,5.1,5.1,0,0,0,1.5.508,7.8,7.8,0,0,1,1.754.578,2.558,2.558,0,0,1,1,.809,1.988,1.988,0,0,1,.324,1.152,2.163,2.163,0,0,1-.906,1.816,3.8,3.8,0,0,1-2.352.684,4.257,4.257,0,0,1-1.8-.359,2.922,2.922,0,0,1-1.223-1,2.42,2.42,0,0,1-.441-1.395H53.66a1.5,1.5,0,0,0,.582,1.152,2.258,2.258,0,0,0,1.434.426,2.331,2.331,0,0,0,1.316-.332A1.02,1.02,0,0,0,57.488,12.758Zm6.836,2.4a3.693,3.693,0,0,1-2.8-1.129,4.19,4.19,0,0,1-1.078-3.02v-.266A5.073,5.073,0,0,1,60.93,8.5a3.748,3.748,0,0,1,1.344-1.547,3.378,3.378,0,0,1,1.871-.559,3.166,3.166,0,0,1,2.563,1.086,4.7,4.7,0,0,1,.914,3.109v.6H61.895a3,3,0,0,0,.73,2.02,2.3,2.3,0,0,0,1.777.77,2.517,2.517,0,0,0,1.3-.312,3.259,3.259,0,0,0,.93-.828l.883.688A3.55,3.55,0,0,1,64.324,15.156Zm-.18-7.578a1.928,1.928,0,0,0-1.469.637A3.1,3.1,0,0,0,61.941,10h4.234V9.891a2.753,2.753,0,0,0-.594-1.707A1.815,1.815,0,0,0,64.145,7.578Z" transform="translate(-5571.655 -604)" fill="#12263f"/>
    <path id="Trazado_203059" data-name="Trazado 203059" d="M0,0H97V30H0Z" transform="translate(-5455.655 -575)" fill="#e0d9f6"/>
    <path id="Trazado_203060" data-name="Trazado 203060" d="M5.84,3.625l3.719,9.281,3.719-9.281h1.945V15h-1.5V10.57l.141-4.781L10.129,15H8.98L5.254,5.813,5.4,10.57V15H3.9V3.625ZM21.152,15.156a3.693,3.693,0,0,1-2.8-1.129,4.19,4.19,0,0,1-1.078-3.02v-.266a5.073,5.073,0,0,1,.48-2.246A3.748,3.748,0,0,1,19.1,6.949a3.378,3.378,0,0,1,1.871-.559,3.166,3.166,0,0,1,2.563,1.086,4.7,4.7,0,0,1,.914,3.109v.6H18.723a3,3,0,0,0,.73,2.02,2.3,2.3,0,0,0,1.777.77,2.517,2.517,0,0,0,1.3-.312,3.259,3.259,0,0,0,.93-.828l.883.688A3.55,3.55,0,0,1,21.152,15.156Zm-.18-7.578a1.928,1.928,0,0,0-1.469.637A3.1,3.1,0,0,0,18.77,10H23V9.891a2.753,2.753,0,0,0-.594-1.707A1.815,1.815,0,0,0,20.973,7.578ZM27.691,15H26.246V6.547h1.445ZM26.129,4.3a.863.863,0,0,1,.215-.594.807.807,0,0,1,.637-.242.819.819,0,0,1,.641.242.854.854,0,0,1,.219.594.826.826,0,0,1-.219.586.834.834,0,0,1-.641.234.821.821,0,0,1-.637-.234A.834.834,0,0,1,26.129,4.3ZM29.621,10.7a4.993,4.993,0,0,1,.488-2.234A3.643,3.643,0,0,1,31.469,6.93a3.7,3.7,0,0,1,1.988-.539,3.565,3.565,0,0,1,2.793,1.2,4.6,4.6,0,0,1,1.066,3.18v.1a5.036,5.036,0,0,1-.473,2.215,3.589,3.589,0,0,1-1.352,1.527,3.743,3.743,0,0,1-2.02.547,3.556,3.556,0,0,1-2.785-1.2A4.575,4.575,0,0,1,29.621,10.8Zm1.453.172a3.616,3.616,0,0,0,.652,2.258,2.211,2.211,0,0,0,3.5-.012,3.955,3.955,0,0,0,.648-2.418,3.61,3.61,0,0,0-.66-2.254,2.1,2.1,0,0,0-1.754-.863,2.075,2.075,0,0,0-1.727.852A3.925,3.925,0,0,0,31.074,10.867Zm12.977,1.891a1.064,1.064,0,0,0-.441-.91,4.249,4.249,0,0,0-1.539-.559,7.277,7.277,0,0,1-1.742-.562,2.479,2.479,0,0,1-.953-.781,1.869,1.869,0,0,1-.309-1.078,2.193,2.193,0,0,1,.879-1.758,3.432,3.432,0,0,1,2.246-.719,3.532,3.532,0,0,1,2.332.742,2.357,2.357,0,0,1,.895,1.9H43.965a1.3,1.3,0,0,0-.5-1.023,1.888,1.888,0,0,0-1.27-.43,1.976,1.976,0,0,0-1.234.344,1.082,1.082,0,0,0-.445.9.877.877,0,0,0,.414.789,5.1,5.1,0,0,0,1.5.508,7.8,7.8,0,0,1,1.754.578,2.558,2.558,0,0,1,1,.809,1.988,1.988,0,0,1,.324,1.152,2.163,2.163,0,0,1-.906,1.816,3.8,3.8,0,0,1-2.352.684,4.257,4.257,0,0,1-1.8-.359,2.922,2.922,0,0,1-1.223-1,2.42,2.42,0,0,1-.441-1.395h1.445a1.5,1.5,0,0,0,.582,1.152,2.258,2.258,0,0,0,1.434.426,2.331,2.331,0,0,0,1.316-.332A1.02,1.02,0,0,0,44.051,12.758ZM48.949,15H47.5V6.547h1.445ZM47.387,4.3a.863.863,0,0,1,.215-.594.807.807,0,0,1,.637-.242.819.819,0,0,1,.641.242A.854.854,0,0,1,49.1,4.3a.826.826,0,0,1-.219.586.834.834,0,0,1-.641.234.821.821,0,0,1-.637-.234A.834.834,0,0,1,47.387,4.3Zm8.8,8.453a1.064,1.064,0,0,0-.441-.91,4.249,4.249,0,0,0-1.539-.559,7.277,7.277,0,0,1-1.742-.562,2.479,2.479,0,0,1-.953-.781A1.869,1.869,0,0,1,51.2,8.867a2.193,2.193,0,0,1,.879-1.758,3.432,3.432,0,0,1,2.246-.719,3.532,3.532,0,0,1,2.332.742,2.357,2.357,0,0,1,.895,1.9H56.1a1.3,1.3,0,0,0-.5-1.023,1.888,1.888,0,0,0-1.27-.43,1.976,1.976,0,0,0-1.234.344,1.082,1.082,0,0,0-.445.9.877.877,0,0,0,.414.789,5.1,5.1,0,0,0,1.5.508,7.8,7.8,0,0,1,1.754.578,2.558,2.558,0,0,1,1,.809,1.988,1.988,0,0,1,.324,1.152,2.163,2.163,0,0,1-.906,1.816,3.8,3.8,0,0,1-2.352.684,4.257,4.257,0,0,1-1.8-.359,2.922,2.922,0,0,1-1.223-1A2.42,2.42,0,0,1,50.91,12.4h1.445a1.5,1.5,0,0,0,.582,1.152,2.258,2.258,0,0,0,1.434.426,2.331,2.331,0,0,0,1.316-.332A1.02,1.02,0,0,0,56.184,12.758Z" transform="translate(-5437.655 -568)" fill="#12263f"/>
    <path id="Trazado_203061" data-name="Trazado 203061" d="M0,0H97V30H0Z" transform="translate(-5297.655 -477)" fill="#e0d9f6"/>
    <path id="Trazado_203062" data-name="Trazado 203062" d="M5.008,3.625l3.719,9.281,3.719-9.281h1.945V15h-1.5V10.57l.141-4.781L9.3,15H8.148L4.422,5.813,4.57,10.57V15H3.07V3.625ZM20.32,15.156a3.693,3.693,0,0,1-2.8-1.129,4.19,4.19,0,0,1-1.078-3.02v-.266a5.073,5.073,0,0,1,.48-2.246A3.748,3.748,0,0,1,18.27,6.949a3.378,3.378,0,0,1,1.871-.559A3.166,3.166,0,0,1,22.7,7.477a4.7,4.7,0,0,1,.914,3.109v.6H17.891a3,3,0,0,0,.73,2.02,2.3,2.3,0,0,0,1.777.77,2.517,2.517,0,0,0,1.3-.312,3.259,3.259,0,0,0,.93-.828l.883.688A3.55,3.55,0,0,1,20.32,15.156Zm-.18-7.578a1.928,1.928,0,0,0-1.469.637A3.1,3.1,0,0,0,17.938,10h4.234V9.891a2.753,2.753,0,0,0-.594-1.707A1.815,1.815,0,0,0,20.141,7.578ZM26.859,15H25.414V6.547h1.445ZM25.3,4.3a.863.863,0,0,1,.215-.594.807.807,0,0,1,.637-.242.819.819,0,0,1,.641.242.854.854,0,0,1,.219.594.826.826,0,0,1-.219.586.834.834,0,0,1-.641.234.821.821,0,0,1-.637-.234A.834.834,0,0,1,25.3,4.3ZM28.789,10.7a4.993,4.993,0,0,1,.488-2.234A3.643,3.643,0,0,1,30.637,6.93a3.7,3.7,0,0,1,1.988-.539,3.565,3.565,0,0,1,2.793,1.2,4.6,4.6,0,0,1,1.066,3.18v.1a5.036,5.036,0,0,1-.473,2.215,3.589,3.589,0,0,1-1.352,1.527,3.743,3.743,0,0,1-2.02.547,3.556,3.556,0,0,1-2.785-1.2A4.575,4.575,0,0,1,28.789,10.8Zm1.453.172a3.616,3.616,0,0,0,.652,2.258,2.211,2.211,0,0,0,3.5-.012,3.955,3.955,0,0,0,.648-2.418,3.61,3.61,0,0,0-.66-2.254,2.1,2.1,0,0,0-1.754-.863A2.075,2.075,0,0,0,30.9,8.43,3.925,3.925,0,0,0,30.242,10.867Zm12.977,1.891a1.064,1.064,0,0,0-.441-.91,4.249,4.249,0,0,0-1.539-.559,7.277,7.277,0,0,1-1.742-.562,2.479,2.479,0,0,1-.953-.781,1.869,1.869,0,0,1-.309-1.078,2.193,2.193,0,0,1,.879-1.758,3.432,3.432,0,0,1,2.246-.719,3.532,3.532,0,0,1,2.332.742,2.357,2.357,0,0,1,.895,1.9H43.133a1.3,1.3,0,0,0-.5-1.023,1.888,1.888,0,0,0-1.27-.43,1.976,1.976,0,0,0-1.234.344,1.082,1.082,0,0,0-.445.9.877.877,0,0,0,.414.789,5.1,5.1,0,0,0,1.5.508,7.8,7.8,0,0,1,1.754.578,2.558,2.558,0,0,1,1,.809,1.988,1.988,0,0,1,.324,1.152,2.163,2.163,0,0,1-.906,1.816,3.8,3.8,0,0,1-2.352.684,4.257,4.257,0,0,1-1.8-.359,2.922,2.922,0,0,1-1.223-1,2.42,2.42,0,0,1-.441-1.395h1.445a1.5,1.5,0,0,0,.582,1.152,2.258,2.258,0,0,0,1.434.426,2.331,2.331,0,0,0,1.316-.332A1.02,1.02,0,0,0,43.219,12.758ZM48.117,15H46.672V6.547h1.445ZM46.555,4.3a.863.863,0,0,1,.215-.594.807.807,0,0,1,.637-.242.819.819,0,0,1,.641.242.854.854,0,0,1,.219.594.826.826,0,0,1-.219.586.834.834,0,0,1-.641.234.821.821,0,0,1-.637-.234A.834.834,0,0,1,46.555,4.3Zm8.8,8.453a1.064,1.064,0,0,0-.441-.91,4.249,4.249,0,0,0-1.539-.559,7.277,7.277,0,0,1-1.742-.562,2.479,2.479,0,0,1-.953-.781,1.869,1.869,0,0,1-.309-1.078,2.193,2.193,0,0,1,.879-1.758,3.432,3.432,0,0,1,2.246-.719,3.532,3.532,0,0,1,2.332.742,2.357,2.357,0,0,1,.895,1.9H55.266a1.3,1.3,0,0,0-.5-1.023,1.888,1.888,0,0,0-1.27-.43,1.976,1.976,0,0,0-1.234.344,1.082,1.082,0,0,0-.445.9.877.877,0,0,0,.414.789,5.1,5.1,0,0,0,1.5.508,7.8,7.8,0,0,1,1.754.578,2.558,2.558,0,0,1,1,.809,1.988,1.988,0,0,1,.324,1.152,2.163,2.163,0,0,1-.906,1.816,3.8,3.8,0,0,1-2.352.684,4.257,4.257,0,0,1-1.8-.359,2.922,2.922,0,0,1-1.223-1,2.42,2.42,0,0,1-.441-1.395h1.445a1.5,1.5,0,0,0,.582,1.152,2.258,2.258,0,0,0,1.434.426,2.331,2.331,0,0,0,1.316-.332A1.02,1.02,0,0,0,55.352,12.758ZM64.477,15h-1.5V3.625h1.5Zm4.352,0h-1.5V3.625h1.5Z" transform="translate(-5285.655 -470)" fill="#12263f"/>
    <path id="Trazado_203063" data-name="Trazado 203063" d="M0,0H125V57H0Z" transform="translate(-5502.655 -823)" fill="#e0d9f6"/>
    <path id="Trazado_203064" data-name="Trazado 203064" d="M19.539,11.391a4.185,4.185,0,0,1-1.332,2.785,4.365,4.365,0,0,1-2.98.98A4.008,4.008,0,0,1,12,13.711a5.815,5.815,0,0,1-1.215-3.867V8.75a6.481,6.481,0,0,1,.566-2.789,4.231,4.231,0,0,1,1.605-1.848,4.47,4.47,0,0,1,2.406-.645A4.11,4.11,0,0,1,18.266,4.48a4.235,4.235,0,0,1,1.273,2.8H18.031a3.268,3.268,0,0,0-.848-1.975A2.565,2.565,0,0,0,15.359,4.7a2.684,2.684,0,0,0-2.254,1.063,4.882,4.882,0,0,0-.816,3.026v1.1a5.018,5.018,0,0,0,.773,2.948,2.5,2.5,0,0,0,2.164,1.095,2.886,2.886,0,0,0,1.918-.566,3.143,3.143,0,0,0,.887-1.973Zm5.906-3.547a4.331,4.331,0,0,0-.711-.055A1.9,1.9,0,0,0,22.8,9v6H21.359V6.547h1.406l.023.977A2.251,2.251,0,0,1,24.8,6.391a1.477,1.477,0,0,1,.641.109Zm.789,2.852a4.993,4.993,0,0,1,.488-2.234A3.643,3.643,0,0,1,28.082,6.93a3.7,3.7,0,0,1,1.988-.539,3.565,3.565,0,0,1,2.793,1.2,4.6,4.6,0,0,1,1.066,3.18v.1a5.036,5.036,0,0,1-.473,2.215,3.589,3.589,0,0,1-1.352,1.527,3.743,3.743,0,0,1-2.02.547,3.556,3.556,0,0,1-2.785-1.2A4.575,4.575,0,0,1,26.234,10.8Zm1.453.172a3.616,3.616,0,0,0,.652,2.258,2.211,2.211,0,0,0,3.5-.012,3.955,3.955,0,0,0,.648-2.418,3.61,3.61,0,0,0-.66-2.254,2.1,2.1,0,0,0-1.754-.863,2.075,2.075,0,0,0-1.727.852A3.925,3.925,0,0,0,27.688,10.867ZM37.1,6.547l.039.938a3.122,3.122,0,0,1,2.508-1.094A2.417,2.417,0,0,1,42.063,7.75a3.2,3.2,0,0,1,1.1-.984,3.242,3.242,0,0,1,1.6-.375q2.781,0,2.828,2.945V15H46.141V9.422a1.941,1.941,0,0,0-.414-1.355,1.823,1.823,0,0,0-1.391-.449A1.917,1.917,0,0,0,43,8.1a1.949,1.949,0,0,0-.617,1.293V15H40.93V9.461a1.613,1.613,0,0,0-1.8-1.844A1.934,1.934,0,0,0,37.18,8.828V15H35.734V6.547ZM49.383,10.7a4.993,4.993,0,0,1,.488-2.234A3.643,3.643,0,0,1,51.23,6.93a3.7,3.7,0,0,1,1.988-.539,3.565,3.565,0,0,1,2.793,1.2,4.6,4.6,0,0,1,1.066,3.18v.1a5.036,5.036,0,0,1-.473,2.215,3.589,3.589,0,0,1-1.352,1.527,3.743,3.743,0,0,1-2.02.547,3.556,3.556,0,0,1-2.785-1.2A4.575,4.575,0,0,1,49.383,10.8Zm1.453.172a3.616,3.616,0,0,0,.652,2.258,2.211,2.211,0,0,0,3.5-.012,3.955,3.955,0,0,0,.648-2.418,3.61,3.61,0,0,0-.66-2.254,2.1,2.1,0,0,0-1.754-.863,2.075,2.075,0,0,0-1.727.852A3.925,3.925,0,0,0,50.836,10.867Zm12.977,1.891a1.064,1.064,0,0,0-.441-.91,4.249,4.249,0,0,0-1.539-.559,7.277,7.277,0,0,1-1.742-.562,2.479,2.479,0,0,1-.953-.781,1.869,1.869,0,0,1-.309-1.078,2.193,2.193,0,0,1,.879-1.758,3.432,3.432,0,0,1,2.246-.719,3.532,3.532,0,0,1,2.332.742,2.357,2.357,0,0,1,.895,1.9H63.727a1.3,1.3,0,0,0-.5-1.023,1.888,1.888,0,0,0-1.27-.43,1.976,1.976,0,0,0-1.234.344,1.082,1.082,0,0,0-.445.9.877.877,0,0,0,.414.789,5.1,5.1,0,0,0,1.5.508,7.8,7.8,0,0,1,1.754.578,2.558,2.558,0,0,1,1,.809,1.988,1.988,0,0,1,.324,1.152,2.163,2.163,0,0,1-.906,1.816A3.8,3.8,0,0,1,62,15.156a4.257,4.257,0,0,1-1.8-.359,2.922,2.922,0,0,1-1.223-1,2.42,2.42,0,0,1-.441-1.395h1.445a1.5,1.5,0,0,0,.582,1.152A2.258,2.258,0,0,0,62,13.977a2.331,2.331,0,0,0,1.316-.332A1.02,1.02,0,0,0,63.813,12.758ZM66.758,10.7a4.993,4.993,0,0,1,.488-2.234A3.643,3.643,0,0,1,68.605,6.93a3.7,3.7,0,0,1,1.988-.539,3.565,3.565,0,0,1,2.793,1.2,4.6,4.6,0,0,1,1.066,3.18v.1a5.036,5.036,0,0,1-.473,2.215,3.589,3.589,0,0,1-1.352,1.527,3.743,3.743,0,0,1-2.02.547,3.556,3.556,0,0,1-2.785-1.2A4.575,4.575,0,0,1,66.758,10.8Zm1.453.172a3.616,3.616,0,0,0,.652,2.258,2.211,2.211,0,0,0,3.5-.012,3.955,3.955,0,0,0,.648-2.418,3.61,3.61,0,0,0-.66-2.254,2.1,2.1,0,0,0-1.754-.863,2.075,2.075,0,0,0-1.727.852A3.925,3.925,0,0,0,68.211,10.867Zm9.414-4.32.039.938a3.122,3.122,0,0,1,2.508-1.094A2.417,2.417,0,0,1,82.586,7.75a3.2,3.2,0,0,1,1.1-.984,3.242,3.242,0,0,1,1.6-.375q2.781,0,2.828,2.945V15H86.664V9.422a1.941,1.941,0,0,0-.414-1.355,1.823,1.823,0,0,0-1.391-.449,1.916,1.916,0,0,0-1.336.48,1.949,1.949,0,0,0-.617,1.293V15H81.453V9.461a1.613,1.613,0,0,0-1.8-1.844A1.934,1.934,0,0,0,77.7,8.828V15H76.258V6.547ZM95.508,15a3.036,3.036,0,0,1-.2-.891A3.225,3.225,0,0,1,92.9,15.156a2.984,2.984,0,0,1-2.051-.707,2.288,2.288,0,0,1-.8-1.793,2.39,2.39,0,0,1,1-2.051,4.733,4.733,0,0,1,2.824-.73h1.406V9.211A1.623,1.623,0,0,0,94.828,8a1.821,1.821,0,0,0-1.336-.449,2.108,2.108,0,0,0-1.3.391,1.151,1.151,0,0,0-.523.945H90.219a2,2,0,0,1,.449-1.223,3.066,3.066,0,0,1,1.219-.934,4.1,4.1,0,0,1,1.691-.344,3.342,3.342,0,0,1,2.289.73,2.635,2.635,0,0,1,.859,2.012v3.891a4.757,4.757,0,0,0,.3,1.852V15Zm-2.4-1.1a2.54,2.54,0,0,0,1.289-.352,2.127,2.127,0,0,0,.883-.914V10.9H94.148q-2.656,0-2.656,1.555a1.316,1.316,0,0,0,.453,1.063A1.742,1.742,0,0,0,93.109,13.9Zm10.8-1.141a1.064,1.064,0,0,0-.441-.91,4.249,4.249,0,0,0-1.539-.559,7.277,7.277,0,0,1-1.742-.562,2.479,2.479,0,0,1-.953-.781,1.869,1.869,0,0,1-.309-1.078,2.193,2.193,0,0,1,.879-1.758,3.432,3.432,0,0,1,2.246-.719,3.532,3.532,0,0,1,2.332.742,2.357,2.357,0,0,1,.895,1.9h-1.453a1.3,1.3,0,0,0-.5-1.023,1.888,1.888,0,0,0-1.27-.43,1.976,1.976,0,0,0-1.234.344,1.082,1.082,0,0,0-.445.9.877.877,0,0,0,.414.789,5.1,5.1,0,0,0,1.5.508,7.8,7.8,0,0,1,1.754.578,2.558,2.558,0,0,1,1,.809,1.988,1.988,0,0,1,.324,1.152,2.163,2.163,0,0,1-.906,1.816,3.8,3.8,0,0,1-2.352.684,4.257,4.257,0,0,1-1.8-.359,2.922,2.922,0,0,1-1.223-1,2.42,2.42,0,0,1-.441-1.395h1.445a1.5,1.5,0,0,0,.582,1.152,2.258,2.258,0,0,0,1.434.426,2.331,2.331,0,0,0,1.316-.332A1.02,1.02,0,0,0,103.914,12.758ZM20.316,31.57a3.073,3.073,0,0,1,2.5-1.18q2.68,0,2.7,3.023V39H24.074V33.406a1.946,1.946,0,0,0-.418-1.352,1.675,1.675,0,0,0-1.277-.437,2.086,2.086,0,0,0-1.234.375,2.546,2.546,0,0,0-.828.984V39H18.871V27h1.445ZM27.3,34.7a4.993,4.993,0,0,1,.488-2.234,3.643,3.643,0,0,1,1.359-1.531,3.7,3.7,0,0,1,1.988-.539,3.565,3.565,0,0,1,2.793,1.2A4.6,4.6,0,0,1,35,34.766v.1a5.036,5.036,0,0,1-.473,2.215,3.589,3.589,0,0,1-1.352,1.527,3.743,3.743,0,0,1-2.02.547,3.556,3.556,0,0,1-2.785-1.2A4.575,4.575,0,0,1,27.3,34.8Zm1.453.172a3.616,3.616,0,0,0,.652,2.258,2.211,2.211,0,0,0,3.5-.012,3.955,3.955,0,0,0,.648-2.418,3.61,3.61,0,0,0-.66-2.254,2.1,2.1,0,0,0-1.754-.863,2.075,2.075,0,0,0-1.727.852A3.925,3.925,0,0,0,28.754,34.867Zm9.414-4.32.039.938a3.122,3.122,0,0,1,2.508-1.094,2.417,2.417,0,0,1,2.414,1.359,3.2,3.2,0,0,1,1.1-.984,3.242,3.242,0,0,1,1.6-.375q2.781,0,2.828,2.945V39H47.207V33.422a1.941,1.941,0,0,0-.414-1.355,1.823,1.823,0,0,0-1.391-.449,1.916,1.916,0,0,0-1.336.48,1.949,1.949,0,0,0-.617,1.293V39H42V33.461a1.613,1.613,0,0,0-1.8-1.844,1.934,1.934,0,0,0-1.945,1.211V39H36.8V30.547ZM50.449,34.7a4.993,4.993,0,0,1,.488-2.234A3.643,3.643,0,0,1,52.3,30.93a3.7,3.7,0,0,1,1.988-.539,3.565,3.565,0,0,1,2.793,1.2,4.6,4.6,0,0,1,1.066,3.18v.1a5.036,5.036,0,0,1-.473,2.215,3.589,3.589,0,0,1-1.352,1.527,3.743,3.743,0,0,1-2.02.547,3.556,3.556,0,0,1-2.785-1.2A4.575,4.575,0,0,1,50.449,34.8Zm1.453.172a3.616,3.616,0,0,0,.652,2.258,2.211,2.211,0,0,0,3.5-.012A3.955,3.955,0,0,0,56.7,34.7a3.61,3.61,0,0,0-.66-2.254,2.1,2.1,0,0,0-1.754-.863,2.075,2.075,0,0,0-1.727.852A3.925,3.925,0,0,0,51.9,34.867Zm3.039-7.852h1.75l-2.094,2.3-1.164,0ZM61.527,39H60.082V27h1.445Zm1.93-4.3a4.993,4.993,0,0,1,.488-2.234A3.643,3.643,0,0,1,65.3,30.93a3.7,3.7,0,0,1,1.988-.539,3.565,3.565,0,0,1,2.793,1.2,4.6,4.6,0,0,1,1.066,3.18v.1a5.036,5.036,0,0,1-.473,2.215,3.589,3.589,0,0,1-1.352,1.527,3.743,3.743,0,0,1-2.02.547,3.556,3.556,0,0,1-2.785-1.2A4.575,4.575,0,0,1,63.457,34.8Zm1.453.172a3.616,3.616,0,0,0,.652,2.258,2.211,2.211,0,0,0,3.5-.012,3.955,3.955,0,0,0,.648-2.418,3.61,3.61,0,0,0-.66-2.254,2.1,2.1,0,0,0-1.754-.863,2.075,2.075,0,0,0-1.727.852A3.925,3.925,0,0,0,64.91,34.867Zm7.711-.164a4.968,4.968,0,0,1,.914-3.145,3.151,3.151,0,0,1,4.836-.074l.07-.937h1.32V38.8a3.439,3.439,0,0,1-.973,2.586,3.589,3.589,0,0,1-2.613.945,4.348,4.348,0,0,1-1.789-.391,3.08,3.08,0,0,1-1.336-1.07L73.8,40a2.826,2.826,0,0,0,2.273,1.148,2.214,2.214,0,0,0,1.645-.594,2.269,2.269,0,0,0,.59-1.672v-.727a2.971,2.971,0,0,1-2.367,1,2.887,2.887,0,0,1-2.4-1.2A5.224,5.224,0,0,1,72.621,34.7Zm1.453.164a3.79,3.79,0,0,0,.586,2.246,1.9,1.9,0,0,0,1.641.816,2.117,2.117,0,0,0,2.008-1.242V32.828a2.142,2.142,0,0,0-1.992-1.211,1.921,1.921,0,0,0-1.648.82A4.128,4.128,0,0,0,74.074,34.867Zm7.484-.172a4.993,4.993,0,0,1,.488-2.234,3.643,3.643,0,0,1,1.359-1.531,3.7,3.7,0,0,1,1.988-.539,3.565,3.565,0,0,1,2.793,1.2,4.6,4.6,0,0,1,1.066,3.18v.1a5.036,5.036,0,0,1-.473,2.215,3.589,3.589,0,0,1-1.352,1.527,3.743,3.743,0,0,1-2.02.547,3.556,3.556,0,0,1-2.785-1.2A4.575,4.575,0,0,1,81.559,34.8Zm1.453.172a3.616,3.616,0,0,0,.652,2.258,2.211,2.211,0,0,0,3.5-.012,3.955,3.955,0,0,0,.648-2.418,3.61,3.61,0,0,0-.66-2.254,2.1,2.1,0,0,0-1.754-.863,2.075,2.075,0,0,0-1.727.852A3.925,3.925,0,0,0,83.012,34.867Zm12.977,1.891a1.064,1.064,0,0,0-.441-.91,4.249,4.249,0,0,0-1.539-.559,7.277,7.277,0,0,1-1.742-.562,2.479,2.479,0,0,1-.953-.781A1.869,1.869,0,0,1,91,32.867a2.193,2.193,0,0,1,.879-1.758,3.432,3.432,0,0,1,2.246-.719,3.532,3.532,0,0,1,2.332.742,2.357,2.357,0,0,1,.895,1.9H95.9a1.3,1.3,0,0,0-.5-1.023,1.888,1.888,0,0,0-1.27-.43,1.976,1.976,0,0,0-1.234.344,1.082,1.082,0,0,0-.445.9.877.877,0,0,0,.414.789,5.1,5.1,0,0,0,1.5.508,7.8,7.8,0,0,1,1.754.578,2.558,2.558,0,0,1,1,.809,1.988,1.988,0,0,1,.324,1.152,2.163,2.163,0,0,1-.906,1.816,3.8,3.8,0,0,1-2.352.684,4.257,4.257,0,0,1-1.8-.359,2.922,2.922,0,0,1-1.223-1,2.42,2.42,0,0,1-.441-1.395H92.16a1.5,1.5,0,0,0,.582,1.152,2.258,2.258,0,0,0,1.434.426,2.331,2.331,0,0,0,1.316-.332A1.02,1.02,0,0,0,95.988,36.758Z" transform="translate(-5499.655 -816)" fill="#12263f"/>
    <path id="Trazado_203065" data-name="Trazado 203065" d="M0,0H125V37H0Z" transform="translate(-5358.655 -862)" fill="#e0d9f6"/>
    <path id="Trazado_203066" data-name="Trazado 203066" d="M19.969,15H18.461L12.734,6.234V15H11.227V3.625h1.508l5.742,8.8v-8.8h1.492Zm7.656-.836a3.07,3.07,0,0,1-2.477.992,2.628,2.628,0,0,1-2.059-.785,3.4,3.4,0,0,1-.715-2.324v-5.5H23.82v5.461q0,1.922,1.563,1.922a2.163,2.163,0,0,0,2.2-1.234V6.547h1.445V15H27.656ZM26.453,3.016H28.2l-2.094,2.3-1.164,0Zm8.164,10.961a2.082,2.082,0,0,0,1.352-.469,1.649,1.649,0,0,0,.641-1.172h1.367a2.621,2.621,0,0,1-.5,1.383,3.293,3.293,0,0,1-1.23,1.047,3.55,3.55,0,0,1-1.629.391A3.482,3.482,0,0,1,31.871,14a4.59,4.59,0,0,1-1.02-3.152v-.242a5.089,5.089,0,0,1,.453-2.2,3.451,3.451,0,0,1,1.3-1.492,3.7,3.7,0,0,1,2-.531,3.39,3.39,0,0,1,2.363.852,3.043,3.043,0,0,1,1,2.211H36.609a1.992,1.992,0,0,0-.621-1.348,1.932,1.932,0,0,0-1.379-.527,2.023,2.023,0,0,0-1.707.793,3.724,3.724,0,0,0-.605,2.293v.273a3.65,3.65,0,0,0,.6,2.25A2.033,2.033,0,0,0,34.617,13.977ZM41.172,15H39.727V3h1.445Zm5.82.156a3.693,3.693,0,0,1-2.8-1.129,4.19,4.19,0,0,1-1.078-3.02v-.266A5.073,5.073,0,0,1,43.6,8.5a3.748,3.748,0,0,1,1.344-1.547,3.378,3.378,0,0,1,1.871-.559,3.166,3.166,0,0,1,2.563,1.086,4.7,4.7,0,0,1,.914,3.109v.6H44.563a3,3,0,0,0,.73,2.02,2.3,2.3,0,0,0,1.777.77,2.517,2.517,0,0,0,1.3-.312,3.259,3.259,0,0,0,.93-.828l.883.688A3.55,3.55,0,0,1,46.992,15.156Zm-.18-7.578a1.928,1.928,0,0,0-1.469.637A3.1,3.1,0,0,0,44.609,10h4.234V9.891a2.753,2.753,0,0,0-.594-1.707A1.815,1.815,0,0,0,46.813,7.578ZM51.578,10.7a4.993,4.993,0,0,1,.488-2.234A3.643,3.643,0,0,1,53.426,6.93a3.7,3.7,0,0,1,1.988-.539,3.565,3.565,0,0,1,2.793,1.2,4.6,4.6,0,0,1,1.066,3.18v.1a5.036,5.036,0,0,1-.473,2.215,3.589,3.589,0,0,1-1.352,1.527,3.743,3.743,0,0,1-2.02.547,3.556,3.556,0,0,1-2.785-1.2A4.575,4.575,0,0,1,51.578,10.8Zm1.453.172a3.616,3.616,0,0,0,.652,2.258,2.211,2.211,0,0,0,3.5-.012,3.955,3.955,0,0,0,.648-2.418,3.61,3.61,0,0,0-.66-2.254,2.1,2.1,0,0,0-1.754-.863,2.075,2.075,0,0,0-1.727.852A3.925,3.925,0,0,0,53.031,10.867Zm12.977,1.891a1.064,1.064,0,0,0-.441-.91,4.249,4.249,0,0,0-1.539-.559,7.277,7.277,0,0,1-1.742-.562,2.479,2.479,0,0,1-.953-.781,1.869,1.869,0,0,1-.309-1.078A2.193,2.193,0,0,1,61.9,7.109a3.432,3.432,0,0,1,2.246-.719,3.532,3.532,0,0,1,2.332.742,2.357,2.357,0,0,1,.895,1.9H65.922a1.3,1.3,0,0,0-.5-1.023,1.888,1.888,0,0,0-1.27-.43,1.976,1.976,0,0,0-1.234.344,1.082,1.082,0,0,0-.445.9.877.877,0,0,0,.414.789,5.1,5.1,0,0,0,1.5.508,7.8,7.8,0,0,1,1.754.578,2.558,2.558,0,0,1,1,.809,1.988,1.988,0,0,1,.324,1.152,2.163,2.163,0,0,1-.906,1.816,3.8,3.8,0,0,1-2.352.684,4.257,4.257,0,0,1-1.8-.359,2.922,2.922,0,0,1-1.223-1,2.42,2.42,0,0,1-.441-1.395H62.18a1.5,1.5,0,0,0,.582,1.152,2.258,2.258,0,0,0,1.434.426,2.331,2.331,0,0,0,1.316-.332A1.02,1.02,0,0,0,66.008,12.758ZM74.742,7.57a3.073,3.073,0,0,1,2.5-1.18q2.68,0,2.7,3.023V15H78.5V9.406a1.946,1.946,0,0,0-.418-1.352A1.675,1.675,0,0,0,76.8,7.617a2.086,2.086,0,0,0-1.234.375,2.546,2.546,0,0,0-.828.984V15H73.3V3h1.445ZM83.68,15H82.234V6.547H83.68ZM82.117,4.3a.863.863,0,0,1,.215-.594.807.807,0,0,1,.637-.242.819.819,0,0,1,.641.242.854.854,0,0,1,.219.594.826.826,0,0,1-.219.586.834.834,0,0,1-.641.234.821.821,0,0,1-.637-.234A.834.834,0,0,1,82.117,4.3Zm5.367,2.242v9.43q0,2.438-2.211,2.438a2.7,2.7,0,0,1-.883-.14V17.125a2.794,2.794,0,0,0,.656.063.982.982,0,0,0,.738-.262,1.3,1.3,0,0,0,.254-.911V6.547ZM85.891,4.3a.867.867,0,0,1,.215-.59.79.79,0,0,1,.629-.246.819.819,0,0,1,.641.242.854.854,0,0,1,.219.594.826.826,0,0,1-.219.586.834.834,0,0,1-.641.234.808.808,0,0,1-.633-.234A.843.843,0,0,1,85.891,4.3ZM89.43,10.7a4.993,4.993,0,0,1,.488-2.234A3.643,3.643,0,0,1,91.277,6.93a3.7,3.7,0,0,1,1.988-.539,3.565,3.565,0,0,1,2.793,1.2,4.6,4.6,0,0,1,1.066,3.18v.1a5.036,5.036,0,0,1-.473,2.215A3.589,3.589,0,0,1,95.3,14.609a3.743,3.743,0,0,1-2.02.547,3.556,3.556,0,0,1-2.785-1.2A4.575,4.575,0,0,1,89.43,10.8Zm1.453.172a3.616,3.616,0,0,0,.652,2.258,2.211,2.211,0,0,0,3.5-.012A3.955,3.955,0,0,0,95.68,10.7a3.61,3.61,0,0,0-.66-2.254,2.1,2.1,0,0,0-1.754-.863,2.075,2.075,0,0,0-1.727.852A3.925,3.925,0,0,0,90.883,10.867Zm12.977,1.891a1.064,1.064,0,0,0-.441-.91,4.249,4.249,0,0,0-1.539-.559,7.277,7.277,0,0,1-1.742-.562,2.479,2.479,0,0,1-.953-.781,1.869,1.869,0,0,1-.309-1.078,2.193,2.193,0,0,1,.879-1.758A3.432,3.432,0,0,1,102,6.391a3.532,3.532,0,0,1,2.332.742,2.357,2.357,0,0,1,.895,1.9h-1.453a1.3,1.3,0,0,0-.5-1.023,1.888,1.888,0,0,0-1.27-.43,1.976,1.976,0,0,0-1.234.344,1.082,1.082,0,0,0-.445.9.877.877,0,0,0,.414.789,5.1,5.1,0,0,0,1.5.508,7.8,7.8,0,0,1,1.754.578,2.558,2.558,0,0,1,1,.809,1.988,1.988,0,0,1,.324,1.152,2.163,2.163,0,0,1-.906,1.816,3.8,3.8,0,0,1-2.352.684,4.257,4.257,0,0,1-1.8-.359,2.922,2.922,0,0,1-1.223-1,2.42,2.42,0,0,1-.441-1.395h1.445a1.5,1.5,0,0,0,.582,1.152,2.258,2.258,0,0,0,1.434.426,2.331,2.331,0,0,0,1.316-.332A1.02,1.02,0,0,0,103.859,12.758Z" transform="translate(-5355.655 -855)" fill="#12263f"/>
    <path id="Trazado_203067" data-name="Trazado 203067" d="M0,0H125V37H0Z" transform="translate(-5220.655 -904)" fill="#e0d9f6"/>
    <path id="Trazado_203068" data-name="Trazado 203068" d="M13.637,15H12.129L6.4,6.234V15H4.895V3.625H6.4l5.742,8.8v-8.8h1.492Zm7.656-.836a3.07,3.07,0,0,1-2.477.992,2.628,2.628,0,0,1-2.059-.785,3.4,3.4,0,0,1-.715-2.324v-5.5h1.445v5.461q0,1.922,1.563,1.922a2.163,2.163,0,0,0,2.2-1.234V6.547H22.7V15H21.324ZM20.121,3.016h1.75l-2.094,2.3-1.164,0Zm8.164,10.961a2.082,2.082,0,0,0,1.352-.469,1.649,1.649,0,0,0,.641-1.172h1.367a2.621,2.621,0,0,1-.5,1.383,3.293,3.293,0,0,1-1.23,1.047,3.55,3.55,0,0,1-1.629.391A3.482,3.482,0,0,1,25.539,14a4.59,4.59,0,0,1-1.02-3.152v-.242a5.089,5.089,0,0,1,.453-2.2,3.451,3.451,0,0,1,1.3-1.492,3.7,3.7,0,0,1,2-.531,3.39,3.39,0,0,1,2.363.852,3.043,3.043,0,0,1,1,2.211H30.277a1.992,1.992,0,0,0-.621-1.348,1.932,1.932,0,0,0-1.379-.527,2.023,2.023,0,0,0-1.707.793,3.724,3.724,0,0,0-.605,2.293v.273a3.65,3.65,0,0,0,.6,2.25A2.033,2.033,0,0,0,28.285,13.977ZM34.84,15H33.395V3H34.84Zm5.82.156a3.693,3.693,0,0,1-2.8-1.129,4.19,4.19,0,0,1-1.078-3.02v-.266a5.073,5.073,0,0,1,.48-2.246,3.748,3.748,0,0,1,1.344-1.547,3.378,3.378,0,0,1,1.871-.559,3.166,3.166,0,0,1,2.563,1.086,4.7,4.7,0,0,1,.914,3.109v.6H38.23a3,3,0,0,0,.73,2.02,2.3,2.3,0,0,0,1.777.77,2.517,2.517,0,0,0,1.3-.312,3.259,3.259,0,0,0,.93-.828l.883.688A3.55,3.55,0,0,1,40.66,15.156Zm-.18-7.578a1.928,1.928,0,0,0-1.469.637A3.1,3.1,0,0,0,38.277,10h4.234V9.891a2.753,2.753,0,0,0-.594-1.707A1.815,1.815,0,0,0,40.48,7.578ZM45.246,10.7a4.993,4.993,0,0,1,.488-2.234A3.643,3.643,0,0,1,47.094,6.93a3.7,3.7,0,0,1,1.988-.539,3.565,3.565,0,0,1,2.793,1.2,4.6,4.6,0,0,1,1.066,3.18v.1a5.036,5.036,0,0,1-.473,2.215,3.589,3.589,0,0,1-1.352,1.527,3.743,3.743,0,0,1-2.02.547,3.556,3.556,0,0,1-2.785-1.2A4.575,4.575,0,0,1,45.246,10.8Zm1.453.172a3.616,3.616,0,0,0,.652,2.258,2.211,2.211,0,0,0,3.5-.012A3.955,3.955,0,0,0,51.5,10.7a3.61,3.61,0,0,0-.66-2.254,2.1,2.1,0,0,0-1.754-.863,2.075,2.075,0,0,0-1.727.852A3.925,3.925,0,0,0,46.7,10.867Zm12.977,1.891a1.064,1.064,0,0,0-.441-.91,4.249,4.249,0,0,0-1.539-.559,7.277,7.277,0,0,1-1.742-.562A2.479,2.479,0,0,1,55,9.945a1.869,1.869,0,0,1-.309-1.078,2.193,2.193,0,0,1,.879-1.758,3.432,3.432,0,0,1,2.246-.719,3.532,3.532,0,0,1,2.332.742,2.357,2.357,0,0,1,.895,1.9H59.59a1.3,1.3,0,0,0-.5-1.023,1.888,1.888,0,0,0-1.27-.43,1.976,1.976,0,0,0-1.234.344,1.082,1.082,0,0,0-.445.9.877.877,0,0,0,.414.789,5.1,5.1,0,0,0,1.5.508A7.8,7.8,0,0,1,59.8,10.7a2.558,2.558,0,0,1,1,.809,1.988,1.988,0,0,1,.324,1.152,2.163,2.163,0,0,1-.906,1.816,3.8,3.8,0,0,1-2.352.684,4.257,4.257,0,0,1-1.8-.359,2.922,2.922,0,0,1-1.223-1A2.42,2.42,0,0,1,54.4,12.4h1.445a1.5,1.5,0,0,0,.582,1.152,2.258,2.258,0,0,0,1.434.426,2.331,2.331,0,0,0,1.316-.332A1.02,1.02,0,0,0,59.676,12.758ZM68.41,7.57a3.073,3.073,0,0,1,2.5-1.18q2.68,0,2.7,3.023V15H72.168V9.406a1.946,1.946,0,0,0-.418-1.352,1.675,1.675,0,0,0-1.277-.437,2.086,2.086,0,0,0-1.234.375,2.546,2.546,0,0,0-.828.984V15H66.965V3H68.41ZM77.348,15H75.9V6.547h1.445ZM75.785,4.3A.863.863,0,0,1,76,3.711a.807.807,0,0,1,.637-.242.819.819,0,0,1,.641.242A.854.854,0,0,1,77.5,4.3a.826.826,0,0,1-.219.586.834.834,0,0,1-.641.234A.821.821,0,0,1,76,4.891.834.834,0,0,1,75.785,4.3Zm5.367,2.242v9.43q0,2.438-2.211,2.438a2.7,2.7,0,0,1-.883-.14V17.125a2.794,2.794,0,0,0,.656.063.982.982,0,0,0,.738-.262,1.3,1.3,0,0,0,.254-.911V6.547ZM79.559,4.3a.867.867,0,0,1,.215-.59.79.79,0,0,1,.629-.246.819.819,0,0,1,.641.242.854.854,0,0,1,.219.594.826.826,0,0,1-.219.586.834.834,0,0,1-.641.234.808.808,0,0,1-.633-.234A.843.843,0,0,1,79.559,4.3ZM83.1,10.7a4.993,4.993,0,0,1,.488-2.234A3.643,3.643,0,0,1,84.945,6.93a3.7,3.7,0,0,1,1.988-.539,3.565,3.565,0,0,1,2.793,1.2,4.6,4.6,0,0,1,1.066,3.18v.1a5.036,5.036,0,0,1-.473,2.215,3.589,3.589,0,0,1-1.352,1.527,3.743,3.743,0,0,1-2.02.547,3.556,3.556,0,0,1-2.785-1.2A4.575,4.575,0,0,1,83.1,10.8Zm1.453.172a3.616,3.616,0,0,0,.652,2.258,2.211,2.211,0,0,0,3.5-.012,3.955,3.955,0,0,0,.648-2.418,3.61,3.61,0,0,0-.66-2.254,2.1,2.1,0,0,0-1.754-.863,2.075,2.075,0,0,0-1.727.852A3.925,3.925,0,0,0,84.551,10.867Zm12.977,1.891a1.064,1.064,0,0,0-.441-.91,4.249,4.249,0,0,0-1.539-.559,7.277,7.277,0,0,1-1.742-.562,2.479,2.479,0,0,1-.953-.781,1.869,1.869,0,0,1-.309-1.078,2.193,2.193,0,0,1,.879-1.758,3.432,3.432,0,0,1,2.246-.719A3.532,3.532,0,0,1,98,7.133a2.357,2.357,0,0,1,.895,1.9H97.441a1.3,1.3,0,0,0-.5-1.023,1.888,1.888,0,0,0-1.27-.43,1.976,1.976,0,0,0-1.234.344,1.082,1.082,0,0,0-.445.9.877.877,0,0,0,.414.789,5.1,5.1,0,0,0,1.5.508,7.8,7.8,0,0,1,1.754.578,2.558,2.558,0,0,1,1,.809,1.988,1.988,0,0,1,.324,1.152,2.163,2.163,0,0,1-.906,1.816,3.8,3.8,0,0,1-2.352.684,4.257,4.257,0,0,1-1.8-.359,2.922,2.922,0,0,1-1.223-1,2.42,2.42,0,0,1-.441-1.395H93.7a1.5,1.5,0,0,0,.582,1.152,2.258,2.258,0,0,0,1.434.426,2.331,2.331,0,0,0,1.316-.332A1.02,1.02,0,0,0,97.527,12.758ZM106.652,15h-1.5V3.625h1.5ZM111,15h-1.5V3.625H111Z" transform="translate(-5217.655 -897)" fill="#12263f"/>
    <path id="Trazado_193575" data-name="Trazado 193575" d="M-6954,292" transform="translate(1510.345 -905)" fill="none" stroke="#ff9d00" stroke-width="1.5"/>
    <path id="Trazado_193576" data-name="Trazado 193576" d="M-6954,242.218l41.066-103.152v72" transform="translate(1510.345 -905)" fill="none" stroke="#ff9d00" stroke-width="1.5"/>
  </g>
</svg>
