<svg xmlns="http://www.w3.org/2000/svg" xmlns:xlink="http://www.w3.org/1999/xlink" width="505.287" height="403.15" viewBox="0 0 505.287 403.15">
  <defs>
    <clipPath id="clip-path">
      <rect id="Rectángulo_32275" data-name="Rectángulo 32275" width="288" height="505" fill="#fff" stroke="#707070" stroke-width="1" opacity="0.325"/>
    </clipPath>
  </defs>
  <g id="Grupo_158743" data-name="Grupo 158743" transform="translate(-915 -1125.85)">
    <g id="Grupo_74057" data-name="Grupo 74057" transform="translate(1420.287 1105) rotate(90)">
      <g id="Grupo_67" data-name="Grupo 67" transform="translate(136)" clip-path="url(#clip-path)">
        <path id="Trazado_108698" data-name="Trazado 108698" d="M0,61.6c16.752,40.514,43,78.151,76.727,110.042,103.216,97.578,268.575,133.4,422.1,122.792,79.169-5.474,158.251-21.846,237.16-14.1s161.224,48,178.958,114.081c8.97,33.428.357,68.9,9.109,102.365s48.294,66.407,85.274,52.993c30.061-10.906,42.259-46.975,74.324-52.292,28.681-4.754,54.073,20.432,56.959,45.247s-9.266,48.825-18.245,72.557c-23.428,61.9-25.737,130.624,1.263,191.451s84.951,112.565,157.637,132.11c24.453,6.575,50.99,9.5,75.73,3.763,46.653-10.821,77.465-50.6,87.135-91.033s2.5-82.2-2.249-123.262a1036.105,1036.105,0,0,1,17.042-339.577c13.1-60.108,31.44-122.813,10.263-181.218-28.136-77.607-118.512-126.071-207.721-154.394C1072.609-6.835,865.054-6.721,664.351,8.57S263.707,53.567,0,61.6Z" transform="translate(-975.302 -672.144) rotate(8)" fill="#81d4fa" opacity="0.418"/>
      </g>
    </g>
    <g id="Grupo_158742" data-name="Grupo 158742" transform="translate(791.687 1091.622)">
      <g id="Background_Complete" data-name="Background Complete">
        <g id="Grupo_158529" data-name="Grupo 158529">
          <g id="Grupo_158524" data-name="Grupo 158524">
            <circle id="Elipse_5027" data-name="Elipse 5027" cx="5.93" cy="5.93" r="5.93" transform="translate(238.941 421.99)" fill="#ebebeb"/>
          </g>
          <g id="Grupo_158525" data-name="Grupo 158525">
            <circle id="Elipse_5028" data-name="Elipse 5028" cx="3.418" cy="3.418" r="3.418" transform="translate(278.671 427.92)" fill="#ebebeb"/>
          </g>
          <g id="Grupo_158526" data-name="Grupo 158526">
            <circle id="Elipse_5029" data-name="Elipse 5029" cx="3.418" cy="3.418" r="3.418" transform="translate(254.943 404.147)" fill="#ebebeb"/>
          </g>
          <g id="Grupo_158527" data-name="Grupo 158527">
            <circle id="Elipse_5030" data-name="Elipse 5030" cx="1.709" cy="1.709" r="1.709" transform="translate(212.425 433.96)" fill="#ebebeb"/>
          </g>
          <g id="Grupo_158528" data-name="Grupo 158528">
            <circle id="Elipse_5031" data-name="Elipse 5031" cx="1.709" cy="1.709" r="1.709" transform="translate(243.162 401.19)" fill="#ebebeb"/>
          </g>
        </g>
        <g id="Grupo_158535" data-name="Grupo 158535">
          <g id="Grupo_158530" data-name="Grupo 158530">
            <path id="Trazado_194819" data-name="Trazado 194819" d="M220.585,88.345A23.428,23.428,0,0,0,205.612,90.9a1.6,1.6,0,0,0-.464.382,20.476,20.476,0,0,0-9.749-3.27c-1.161-.494-2.094-1.156-2.155-2q-.206-1.008-.5-1.979a32.4,32.4,0,0,0,2.6-4.87,27.1,27.1,0,0,0,2.963-4.605,2.013,2.013,0,0,0,.822.267,32.966,32.966,0,0,0,13.75-1.517,1.618,1.618,0,0,0,1.1-1.946,1.6,1.6,0,0,0-1.946-1.1,30.636,30.636,0,0,1-12.47,1.437,27.417,27.417,0,0,0,1.643-7.38,25.513,25.513,0,0,0-.394-6.75,1.6,1.6,0,0,0-1.946-1.1,1.615,1.615,0,0,0-1.1,1.946A23.606,23.606,0,0,1,193.579,76.3,6.781,6.781,0,0,1,189.7,77.88a21.391,21.391,0,0,0-12.934-8.5,6.737,6.737,0,0,1-3.755-3.924,38.044,38.044,0,0,0,.379-4.907,2.257,2.257,0,0,0,.229-.258,18.61,18.61,0,0,1,11.575-6.916,1.6,1.6,0,0,0,1.1-1.947,1.619,1.619,0,0,0-1.946-1.1,21.449,21.449,0,0,0-11.172,5.789,37.092,37.092,0,0,0-2.226-9.355,1.627,1.627,0,0,0-1.946-1.1,1.594,1.594,0,0,0-1.105,1.946,34.979,34.979,0,0,1,1.878,18.12,31.782,31.782,0,0,1-3.612,4.08,21.489,21.489,0,0,0-2.056.728c-2.79.283-6-.9-8.653-2.135-.093-.06-.186-.119-.281-.178-.013-.035-.023-.071-.039-.106a15.465,15.465,0,0,1,.841-14.021,1.584,1.584,0,0,0-2.733-1.6,18.652,18.652,0,0,0-2.031,13.679,28.691,28.691,0,0,0-12.072-2.269,26.685,26.685,0,0,0-7.248,1.25c-1.93.622-1.1,3.679.842,3.052a25.221,25.221,0,0,1,20.83,2.733c1.765,2.336,1.576,4.973.739,7.781a21.275,21.275,0,0,0-3.41,11.579c0,.071,0,.141,0,.212-.171,1.3-.843,3.428-3.365,3.628a22.524,22.524,0,0,1-15.562-8.375,1.635,1.635,0,0,0-2.164-.568,1.592,1.592,0,0,0-.568,2.165,25.952,25.952,0,0,0,11.981,8.586,19.092,19.092,0,0,1-16.329,7,1.6,1.6,0,0,0-1.582,1.582,1.614,1.614,0,0,0,1.582,1.583,22.253,22.253,0,0,0,19.228-8.771,1.135,1.135,0,0,0,.214-.524,25.821,25.821,0,0,0,3.083.477v.026c4.339.427,6.814,4.454,6.814,4.454l-.005-.017a21.48,21.48,0,0,0,4.281,4.9c.559.926,1.021,1.854.468,2.809-.045.079-.081.156-.114.23a20.9,20.9,0,0,1-22.225,6.1c-1.94-.634-2.772,2.421-.841,3.052a23.871,23.871,0,0,0,15.794-.324c.191-.074.373-.163.561-.24a18.2,18.2,0,0,1-3.113,14.975,1.593,1.593,0,0,0,.568,2.165,1.62,1.62,0,0,0,2.165-.567,21.225,21.225,0,0,0,3.3-17.949c-.005-.017-.013-.031-.019-.048a24.3,24.3,0,0,0,5.6-4.461c0,.012.013.025.014.038a14.933,14.933,0,0,1,3.194-2.469,21.4,21.4,0,0,0,17.293-.2l-.015.013c1.65-.42,3.452-.736,4.949-.037a18.157,18.157,0,0,0,2.457,2.351,21.371,21.371,0,0,0,6.167,19.453c1.482,1.4,3.724-.837,2.238-2.237A18.207,18.207,0,0,1,191.433,114a24.564,24.564,0,0,0,3.212,1.5c5.479,2.091,11.523,2.077,17.3,1.956,2.034-.042,2.041-3.207,0-3.164-5.367.112-10.891.155-16.014-1.679a17.287,17.287,0,0,1-7.792-5.4l0-.08a8.459,8.459,0,0,1,1.141-3.864,21.28,21.28,0,0,0,4.2-10.149,4.386,4.386,0,0,1,1.232-2.012,17.991,17.991,0,0,1,9.255,3.178,17.809,17.809,0,0,1,6.92,10.137c.506,1.972,3.559,1.136,3.051-.841a21.1,21.1,0,0,0-6.166-10.23A19.848,19.848,0,0,1,219.744,91.4a1.633,1.633,0,0,0,1.947-1.105A1.6,1.6,0,0,0,220.585,88.345Z" fill="#ebebeb"/>
          </g>
          <g id="Grupo_158534" data-name="Grupo 158534">
            <g id="Grupo_158533" data-name="Grupo 158533">
              <g id="Grupo_158532" data-name="Grupo 158532">
                <g id="Grupo_158531" data-name="Grupo 158531">
                  <circle id="Elipse_5032" data-name="Elipse 5032" cx="7.525" cy="7.525" r="7.525" transform="translate(164.617 81.923)" fill="#e0e0e0"/>
                </g>
              </g>
            </g>
          </g>
        </g>
        <g id="Grupo_158541" data-name="Grupo 158541">
          <g id="Grupo_158536" data-name="Grupo 158536">
            <path id="Trazado_194820" data-name="Trazado 194820" d="M534.35,63.252a23.434,23.434,0,0,0,9.7,11.689,1.606,1.606,0,0,0,.563.211,20.491,20.491,0,0,0,2.042,10.078c.153,1.252.046,2.391-.653,2.866q-.771.681-1.462,1.425a32.456,32.456,0,0,0-5.52.18,27.04,27.04,0,0,0-5.468-.263,2.036,2.036,0,0,0-.181-.846,32.953,32.953,0,0,0-8.188-11.149,1.619,1.619,0,0,0-2.239.016,1.6,1.6,0,0,0,.017,2.238,30.664,30.664,0,0,1,7.48,10.081,27.419,27.419,0,0,0-7.214,2.267,25.5,25.5,0,0,0-5.648,3.716A1.6,1.6,0,0,0,517.6,98a1.616,1.616,0,0,0,2.238-.016,23.6,23.6,0,0,1,17.588-5.32,6.787,6.787,0,0,1,3.309,2.571,21.387,21.387,0,0,0-.9,15.453,6.735,6.735,0,0,1-1.521,5.214,38.21,38.21,0,0,0-4.439,2.125,2.327,2.327,0,0,0-.338-.07,18.607,18.607,0,0,1-11.777-6.565,1.6,1.6,0,0,0-2.238.016,1.618,1.618,0,0,0,.016,2.238,21.455,21.455,0,0,0,10.6,6.781,37.128,37.128,0,0,0-6.989,6.6,1.628,1.628,0,0,0,.016,2.238,1.6,1.6,0,0,0,2.239-.016,34.973,34.973,0,0,1,14.753-10.687,31.831,31.831,0,0,1,5.34,1.089,21.345,21.345,0,0,0,1.658,1.416c1.64,2.275,2.221,5.645,2.477,8.561-.005.111-.01.221-.013.332-.024.03-.05.056-.073.087a15.465,15.465,0,0,1-12.563,6.283,1.583,1.583,0,0,0-.017,3.165,18.652,18.652,0,0,0,12.862-5.081,28.7,28.7,0,0,0,4.07,11.59,26.7,26.7,0,0,0,4.707,5.652c1.5,1.36,3.739-.883,2.222-2.255A25.222,25.222,0,0,1,552.776,130c1.141-2.7,3.519-3.852,6.369-4.53a21.28,21.28,0,0,0,11.733-2.837c.062-.035.12-.074.181-.11,1.213-.5,3.39-.985,4.824,1.1a22.518,22.518,0,0,1,.528,17.664,1.635,1.635,0,0,0,.591,2.159,1.594,1.594,0,0,0,2.159-.591,25.966,25.966,0,0,0,1.445-14.669,19.089,19.089,0,0,1,14.225,10.642,1.6,1.6,0,0,0,2.162.579,1.615,1.615,0,0,0,.579-2.162,22.251,22.251,0,0,0-17.209-12.266,1.138,1.138,0,0,0-.562.077,25.875,25.875,0,0,0-1.127-2.909l.023-.012c-1.8-3.971.45-8.128.45-8.128l-.013.013a21.484,21.484,0,0,0,2.1-6.157c.522-.947,1.095-1.811,2.2-1.81a2.529,2.529,0,0,0,.256-.016,20.9,20.9,0,0,1,16.393,16.2c.422,2,3.483,1.19,3.063-.8a23.868,23.868,0,0,0-8.177-13.516c-.159-.128-.327-.242-.489-.366a18.2,18.2,0,0,1,14.526-4.792,1.593,1.593,0,0,0,1.591-1.574,1.619,1.619,0,0,0-1.574-1.591,21.224,21.224,0,0,0-17.2,6.113c-.013.013-.02.027-.032.04a24.3,24.3,0,0,0-6.663-2.617c.01-.008.016-.024.027-.031a14.913,14.913,0,0,1-3.736-1.532A21.4,21.4,0,0,0,572.6,86.7l.018.007c-1.188-1.22-2.362-2.622-2.506-4.268a18.121,18.121,0,0,0,.808-3.3,21.374,21.374,0,0,0,13.764-15.068c.468-1.981-2.588-2.806-3.057-.819a18.208,18.208,0,0,1-10.479,12.423,24.586,24.586,0,0,0-.309-3.53c-.929-5.791-3.963-11.018-6.956-15.962-1.054-1.74-3.8-.163-2.741,1.583,2.781,4.592,5.581,9.354,6.553,14.708a17.28,17.28,0,0,1-.779,9.448l-.067.043a8.463,8.463,0,0,1-3.917.944,21.273,21.273,0,0,0-10.891,1.434,4.379,4.379,0,0,1-2.358-.06,17.991,17.991,0,0,1-1.876-9.605,17.8,17.8,0,0,1,5.32-11.061c1.453-1.424-.8-3.65-2.255-2.222A21.1,21.1,0,0,0,545.1,71.844a19.849,19.849,0,0,1-7.683-9.389,1.632,1.632,0,0,0-1.93-1.133A1.6,1.6,0,0,0,534.35,63.252Z" fill="#ebebeb"/>
          </g>
          <g id="Grupo_158540" data-name="Grupo 158540">
            <g id="Grupo_158539" data-name="Grupo 158539">
              <g id="Grupo_158538" data-name="Grupo 158538">
                <g id="Grupo_158537" data-name="Grupo 158537">
                  <circle id="Elipse_5033" data-name="Elipse 5033" cx="7.525" cy="7.525" r="7.525" transform="translate(549.248 101.899) rotate(-30)" fill="#e0e0e0"/>
                </g>
              </g>
            </g>
          </g>
        </g>
        <g id="Grupo_158547" data-name="Grupo 158547">
          <g id="Grupo_158542" data-name="Grupo 158542">
            <path id="Trazado_194821" data-name="Trazado 194821" d="M431.243,292.343a27.257,27.257,0,0,0,11.289,13.6,1.839,1.839,0,0,0,.654.246,23.853,23.853,0,0,0,2.377,11.728c.178,1.458.054,2.783-.76,3.336q-.9.792-1.7,1.658a37.88,37.88,0,0,0-6.423.21,31.513,31.513,0,0,0-6.364-.307,2.363,2.363,0,0,0-.21-.984,38.363,38.363,0,0,0-9.529-12.975,1.884,1.884,0,0,0-2.605.019,1.86,1.86,0,0,0,.019,2.6,35.664,35.664,0,0,1,8.7,11.731,31.923,31.923,0,0,0-8.395,2.638,29.7,29.7,0,0,0-6.573,4.324,1.858,1.858,0,0,0,.019,2.6,1.88,1.88,0,0,0,2.6-.019,27.468,27.468,0,0,1,20.468-6.19,7.905,7.905,0,0,1,3.851,2.991,24.893,24.893,0,0,0-1.045,17.984,7.838,7.838,0,0,1-1.77,6.067,44.584,44.584,0,0,0-5.166,2.473,2.791,2.791,0,0,0-.393-.08,21.66,21.66,0,0,1-13.705-7.641,1.857,1.857,0,0,0-2.6.019,1.881,1.881,0,0,0,.019,2.6,24.962,24.962,0,0,0,12.334,7.891,43.207,43.207,0,0,0-8.133,7.687,1.893,1.893,0,0,0,.019,2.6,1.854,1.854,0,0,0,2.6-.018A40.712,40.712,0,0,1,438,356.714a36.868,36.868,0,0,1,6.214,1.267,25.03,25.03,0,0,0,1.93,1.648c1.909,2.647,2.585,6.569,2.883,9.963-.006.129-.012.257-.016.386-.027.034-.058.065-.084.1a18,18,0,0,1-14.621,7.312c-2.375-.021-2.39,3.662-.019,3.683a21.7,21.7,0,0,0,14.967-5.912,33.42,33.42,0,0,0,4.737,13.487,31.113,31.113,0,0,0,5.478,6.577c1.751,1.584,4.351-1.027,2.586-2.624a29.346,29.346,0,0,1-9.366-22.583c1.328-3.139,4.1-4.483,7.412-5.272a24.77,24.77,0,0,0,13.654-3.3c.072-.042.139-.087.21-.129,1.412-.586,3.946-1.145,5.614,1.28a26.209,26.209,0,0,1,.615,20.557,1.9,1.9,0,0,0,.688,2.512,1.853,1.853,0,0,0,2.512-.687,30.211,30.211,0,0,0,1.682-17.071,22.213,22.213,0,0,1,16.554,12.384,1.858,1.858,0,0,0,2.516.674,1.88,1.88,0,0,0,.674-2.516,25.9,25.9,0,0,0-20.027-14.275,1.324,1.324,0,0,0-.653.09,30.067,30.067,0,0,0-1.313-3.384l.027-.015c-2.1-4.621.524-9.459.524-9.459l-.015.015a25.023,25.023,0,0,0,2.447-7.165c.608-1.1,1.274-2.107,2.558-2.106a2.763,2.763,0,0,0,.3-.019,24.321,24.321,0,0,1,19.077,18.851c.491,2.324,4.053,1.385,3.565-.928a27.771,27.771,0,0,0-9.517-15.729c-.184-.15-.38-.281-.568-.426a21.178,21.178,0,0,1,16.9-5.576,1.855,1.855,0,0,0,1.852-1.832,1.885,1.885,0,0,0-1.832-1.852,24.7,24.7,0,0,0-20.011,7.114c-.015.015-.024.031-.038.047a28.258,28.258,0,0,0-7.754-3.046c.012-.01.019-.028.031-.036a17.336,17.336,0,0,1-4.347-1.783,24.9,24.9,0,0,0-10.268-17.309l.022.007c-1.384-1.419-2.75-3.05-2.917-4.966a21.148,21.148,0,0,0,.94-3.844,24.868,24.868,0,0,0,16.017-17.535c.545-2.3-3.011-3.265-3.557-.953a21.188,21.188,0,0,1-12.195,14.457,28.566,28.566,0,0,0-.359-4.108c-1.081-6.739-4.612-12.822-8.1-18.575-1.226-2.025-4.42-.19-3.19,1.841,3.236,5.345,6.495,10.887,7.627,17.117a20.117,20.117,0,0,1-.908,10.995l-.078.05a9.853,9.853,0,0,1-4.558,1.1,24.754,24.754,0,0,0-12.674,1.669,5.111,5.111,0,0,1-2.745-.071,20.936,20.936,0,0,1-2.182-11.177,20.716,20.716,0,0,1,6.19-12.872c1.692-1.658-.926-4.248-2.623-2.586a24.549,24.549,0,0,0-6.722,12.167,23.1,23.1,0,0,1-8.942-10.927,1.9,1.9,0,0,0-2.246-1.319A1.855,1.855,0,0,0,431.243,292.343Z" fill="#ebebeb"/>
          </g>
          <g id="Grupo_158546" data-name="Grupo 158546">
            <g id="Grupo_158545" data-name="Grupo 158545">
              <g id="Grupo_158544" data-name="Grupo 158544">
                <g id="Grupo_158543" data-name="Grupo 158543">
                  <circle id="Elipse_5034" data-name="Elipse 5034" cx="8.757" cy="8.757" r="8.757" transform="translate(448.579 337.318) rotate(-30)" fill="#e0e0e0"/>
                </g>
              </g>
            </g>
          </g>
        </g>
        <g id="Grupo_158553" data-name="Grupo 158553">
          <g id="Grupo_158548" data-name="Grupo 158548">
            <path id="Trazado_194822" data-name="Trazado 194822" d="M208.024,347.973a11.447,11.447,0,0,0,4.738,5.708.756.756,0,0,0,.275.1,10,10,0,0,0,1,4.922c.075.612.023,1.168-.319,1.4-.251.222-.488.454-.714.7a15.833,15.833,0,0,0-2.7.088,13.177,13.177,0,0,0-2.67-.129,1,1,0,0,0-.088-.413,16.1,16.1,0,0,0-4-5.445.79.79,0,0,0-1.093.008.78.78,0,0,0,.008,1.093,14.989,14.989,0,0,1,3.653,4.923,13.389,13.389,0,0,0-3.523,1.107,12.479,12.479,0,0,0-2.759,1.815.78.78,0,0,0,.008,1.093.788.788,0,0,0,1.093-.008,11.527,11.527,0,0,1,8.589-2.6,3.311,3.311,0,0,1,1.616,1.256,10.449,10.449,0,0,0-.438,7.547,3.288,3.288,0,0,1-.743,2.546,18.816,18.816,0,0,0-2.168,1.037,1.242,1.242,0,0,0-.165-.033,9.093,9.093,0,0,1-5.751-3.207.779.779,0,0,0-1.093.008.79.79,0,0,0,.008,1.093,10.477,10.477,0,0,0,5.176,3.312,18.107,18.107,0,0,0-3.413,3.225.794.794,0,0,0,.008,1.093.778.778,0,0,0,1.093-.008,17.083,17.083,0,0,1,7.2-5.219,15.52,15.52,0,0,1,2.608.532,10.567,10.567,0,0,0,.81.691,8.711,8.711,0,0,1,1.21,4.181c0,.054,0,.108-.007.163-.011.014-.024.027-.035.042a7.553,7.553,0,0,1-6.135,3.068.773.773,0,0,0-.009,1.546,9.1,9.1,0,0,0,6.281-2.481,14.027,14.027,0,0,0,1.988,5.66,13.038,13.038,0,0,0,2.3,2.76c.735.664,1.826-.431,1.085-1.1a12.317,12.317,0,0,1-3.93-9.477,4.012,4.012,0,0,1,3.11-2.213,10.394,10.394,0,0,0,5.73-1.385c.03-.017.059-.036.088-.054a1.82,1.82,0,0,1,2.356.537,11,11,0,0,1,.258,8.627.8.8,0,0,0,.289,1.054.778.778,0,0,0,1.054-.288,12.686,12.686,0,0,0,.706-7.164,9.322,9.322,0,0,1,6.947,5.2.779.779,0,0,0,1.055.282.787.787,0,0,0,.283-1.055,10.868,10.868,0,0,0-8.4-5.991.564.564,0,0,0-.274.038,12.667,12.667,0,0,0-.551-1.42l.011-.006a4.907,4.907,0,0,1,.22-3.97l-.006.007a10.5,10.5,0,0,0,1.027-3.007c.255-.463.534-.885,1.073-.884a1.234,1.234,0,0,0,.126-.008,10.207,10.207,0,0,1,8.005,7.911c.206.975,1.7.581,1.5-.39a11.65,11.65,0,0,0-3.994-6.6c-.077-.063-.159-.118-.238-.179a8.887,8.887,0,0,1,7.094-2.34.778.778,0,0,0,.777-.769.792.792,0,0,0-.769-.777,10.366,10.366,0,0,0-8.4,2.985c-.006.007-.01.014-.016.02a11.859,11.859,0,0,0-3.253-1.278c.005,0,.007-.012.013-.015a7.315,7.315,0,0,1-1.825-.748,10.448,10.448,0,0,0-4.309-7.264l.009,0a3.67,3.67,0,0,1-1.223-2.084,8.9,8.9,0,0,0,.394-1.613,10.439,10.439,0,0,0,6.722-7.359c.228-.967-1.264-1.37-1.493-.4a8.89,8.89,0,0,1-5.118,6.067,11.938,11.938,0,0,0-.151-1.724,22.307,22.307,0,0,0-3.4-7.795c-.514-.85-1.854-.08-1.338.773a21.7,21.7,0,0,1,3.2,7.183,8.431,8.431,0,0,1-.381,4.614l-.032.021a4.145,4.145,0,0,1-1.913.461,10.392,10.392,0,0,0-5.319.7,2.141,2.141,0,0,1-1.151-.029,8.556,8.556,0,0,1,1.681-10.093c.71-.7-.388-1.782-1.1-1.085a10.3,10.3,0,0,0-2.821,5.106,9.7,9.7,0,0,1-3.753-4.585.8.8,0,0,0-.942-.554A.78.78,0,0,0,208.024,347.973Z" fill="#ebebeb"/>
          </g>
          <g id="Grupo_158552" data-name="Grupo 158552">
            <g id="Grupo_158551" data-name="Grupo 158551">
              <g id="Grupo_158550" data-name="Grupo 158550">
                <g id="Grupo_158549" data-name="Grupo 158549">
                  <circle id="Elipse_5035" data-name="Elipse 5035" cx="3.675" cy="3.675" r="3.675" transform="translate(215.3 366.847) rotate(-30)" fill="#e0e0e0"/>
                </g>
              </g>
            </g>
          </g>
        </g>
        <g id="Grupo_158559" data-name="Grupo 158559">
          <g id="Grupo_158554" data-name="Grupo 158554">
            <path id="Trazado_194823" data-name="Trazado 194823" d="M409.367,39.543a11.437,11.437,0,0,0,4.738,5.708.759.759,0,0,0,.274.1,10.006,10.006,0,0,0,1,4.922c.074.611.022,1.168-.319,1.4q-.377.333-.715.7a15.848,15.848,0,0,0-2.695.087,13.259,13.259,0,0,0-2.671-.128.978.978,0,0,0-.088-.413,16.1,16.1,0,0,0-4-5.445.79.79,0,0,0-1.093.008.781.781,0,0,0,.008,1.093,14.955,14.955,0,0,1,3.653,4.923,13.4,13.4,0,0,0-3.523,1.107,12.414,12.414,0,0,0-2.758,1.815.779.779,0,0,0,.008,1.093.79.79,0,0,0,1.093-.008,11.527,11.527,0,0,1,8.589-2.6,3.32,3.32,0,0,1,1.616,1.255,10.449,10.449,0,0,0-.439,7.547,3.286,3.286,0,0,1-.742,2.546,18.668,18.668,0,0,0-2.168,1.038,1.15,1.15,0,0,0-.165-.034,9.09,9.09,0,0,1-5.752-3.206.779.779,0,0,0-1.093.008.79.79,0,0,0,.008,1.093,10.48,10.48,0,0,0,5.176,3.311,18.112,18.112,0,0,0-3.413,3.226.8.8,0,0,0,.008,1.093A.778.778,0,0,0,405,71.775a17.083,17.083,0,0,1,7.2-5.219,15.518,15.518,0,0,1,2.608.531,10,10,0,0,0,.81.692,8.71,8.71,0,0,1,1.209,4.181l-.006.162a.473.473,0,0,0-.035.043,7.555,7.555,0,0,1-6.136,3.068.773.773,0,0,0-.008,1.546,9.113,9.113,0,0,0,6.281-2.481,14.017,14.017,0,0,0,1.988,5.659,13.008,13.008,0,0,0,2.3,2.76c.734.665,1.825-.431,1.085-1.1a12.316,12.316,0,0,1-3.931-9.477,4.013,4.013,0,0,1,3.11-2.212,10.4,10.4,0,0,0,5.731-1.385c.03-.018.058-.037.088-.054a1.82,1.82,0,0,1,2.356.537,11,11,0,0,1,.258,8.627.8.8,0,0,0,.288,1.054.778.778,0,0,0,1.054-.289,12.667,12.667,0,0,0,.706-7.164,9.323,9.323,0,0,1,6.947,5.2.779.779,0,0,0,1.056.283.788.788,0,0,0,.283-1.055,10.866,10.866,0,0,0-8.4-5.991.556.556,0,0,0-.274.038,12.558,12.558,0,0,0-.55-1.421l.011-.006a4.905,4.905,0,0,1,.22-3.969l-.006.006a10.5,10.5,0,0,0,1.026-3.007c.255-.462.535-.884,1.074-.884a1.222,1.222,0,0,0,.125-.007,10.207,10.207,0,0,1,8.006,7.91c.205.976,1.7.582,1.5-.389a11.661,11.661,0,0,0-3.994-6.6c-.078-.062-.16-.118-.239-.178a8.889,8.889,0,0,1,7.094-2.341.777.777,0,0,0,.777-.768.79.79,0,0,0-.768-.777,10.361,10.361,0,0,0-8.4,2.985c-.006.006-.01.013-.016.02a11.888,11.888,0,0,0-3.254-1.279c.005,0,.008-.011.013-.015a7.272,7.272,0,0,1-1.824-.748,10.453,10.453,0,0,0-4.309-7.264l.009,0a3.675,3.675,0,0,1-1.224-2.084,8.9,8.9,0,0,0,.395-1.614,10.438,10.438,0,0,0,6.721-7.358c.229-.968-1.263-1.37-1.493-.4a8.893,8.893,0,0,1-5.117,6.067,11.942,11.942,0,0,0-.151-1.724,22.326,22.326,0,0,0-3.4-7.795c-.515-.85-1.855-.08-1.339.773a21.689,21.689,0,0,1,3.2,7.183,8.445,8.445,0,0,1-.381,4.613l-.033.021a4.132,4.132,0,0,1-1.913.462,10.386,10.386,0,0,0-5.318.7,2.145,2.145,0,0,1-1.152-.029,8.79,8.79,0,0,1-.916-4.691,8.7,8.7,0,0,1,2.6-5.4c.71-.695-.389-1.783-1.1-1.085a10.3,10.3,0,0,0-2.821,5.106,9.689,9.689,0,0,1-3.752-4.586.8.8,0,0,0-.943-.553A.779.779,0,0,0,409.367,39.543Z" fill="#ebebeb"/>
          </g>
          <g id="Grupo_158558" data-name="Grupo 158558">
            <g id="Grupo_158557" data-name="Grupo 158557">
              <g id="Grupo_158556" data-name="Grupo 158556">
                <g id="Grupo_158555" data-name="Grupo 158555">
                  <circle id="Elipse_5036" data-name="Elipse 5036" cx="3.675" cy="3.675" r="3.675" transform="translate(416.642 58.416) rotate(-30)" fill="#e0e0e0"/>
                </g>
              </g>
            </g>
          </g>
        </g>
      </g>
      <g id="Brain">
        <g id="Grupo_158578" data-name="Grupo 158578">
          <g id="Grupo_158561" data-name="Grupo 158561">
            <g id="Grupo_158560" data-name="Grupo 158560">
              <path id="Trazado_194824" data-name="Trazado 194824" d="M432.505,109.051a1.736,1.736,0,0,1-.438-.214l-1.2-.7-4.367-2.655L412.19,96.568l-14.251-9.012-4.3-2.756-1.163-.755a1.865,1.865,0,0,1-.4-.285,1.68,1.68,0,0,1,.446.192c.291.143.692.377,1.219.675,1.047.6,2.547,1.5,4.391,2.617,3.689,2.239,8.757,5.38,14.334,8.883s10.6,6.7,14.228,9.043l4.279,2.795,1.149.783A1.719,1.719,0,0,1,432.505,109.051Z" fill="#263238"/>
            </g>
          </g>
          <g id="Grupo_158577" data-name="Grupo 158577">
            <g id="Grupo_158563" data-name="Grupo 158563">
              <g id="Grupo_158562" data-name="Grupo 158562">
                <path id="Trazado_194825" data-name="Trazado 194825" d="M557.649,108.15c0,.143-10.183.587-22.75.99s-22.765.613-22.769.469,10.18-.587,22.752-.99S557.644,108.006,557.649,108.15Z" fill="#263238"/>
              </g>
            </g>
            <g id="Grupo_158565" data-name="Grupo 158565">
              <g id="Grupo_158564" data-name="Grupo 158564">
                <path id="Trazado_194826" data-name="Trazado 194826" d="M511.194,154.268s-.219.146-.671.416l-2.017,1.193-7.8,4.562-28.76,16.712-.1.056-.1-.056-39.371-22.67-.122-.071v-.142c-.005-14.044-.01-29.412-.015-45.424v-.157l.13-.075,39.352-22.7.123-.071.122.071,39.319,22.761.1.056v.112c-.039,14.016-.071,25.383-.093,33.264-.022,3.909-.039,6.95-.051,9.035l-.024,2.343c-.009.526-.025.788-.025.788s-.017-.281-.025-.816l-.025-2.368c-.011-2.091-.028-5.141-.05-9.063-.022-7.862-.054-19.2-.094-33.183l.1.167-39.37-22.67h.245l-39.337,22.728.13-.225v.006c-.005,16.012-.01,31.38-.015,45.424l-.122-.212,39.318,22.76h-.193l28.783-16.51,7.875-4.488,2.063-1.163C510.942,154.4,511.194,154.268,511.194,154.268Z" fill="#263238"/>
              </g>
            </g>
            <g id="Grupo_158566" data-name="Grupo 158566">
              <circle id="Elipse_5037" data-name="Elipse 5037" cx="4.011" cy="4.011" r="4.011" transform="translate(389.429 80.879)" fill="#455a64"/>
            </g>
            <g id="Grupo_158567" data-name="Grupo 158567">
              <circle id="Elipse_5038" data-name="Elipse 5038" cx="6.201" cy="6.201" r="6.201" transform="translate(426.304 102.85)" fill="#455a64"/>
            </g>
            <g id="Grupo_158568" data-name="Grupo 158568">
              <circle id="Elipse_5039" data-name="Elipse 5039" cx="6.201" cy="6.201" r="6.201" transform="translate(504.446 102.85)" fill="#455a64"/>
            </g>
            <g id="Grupo_158569" data-name="Grupo 158569">
              <circle id="Elipse_5040" data-name="Elipse 5040" cx="6.201" cy="6.201" r="6.201" transform="translate(504.446 149.634)" fill="#455a64"/>
            </g>
            <g id="Grupo_158570" data-name="Grupo 158570">
              <circle id="Elipse_5041" data-name="Elipse 5041" cx="4.636" cy="4.636" r="4.636" transform="translate(553.012 103.03)" fill="#455a64"/>
            </g>
            <g id="Grupo_158571" data-name="Grupo 158571">
              <circle id="Elipse_5042" data-name="Elipse 5042" cx="6.201" cy="6.201" r="6.201" transform="translate(465.588 171.129)" fill="#455a64"/>
            </g>
            <g id="Grupo_158572" data-name="Grupo 158572">
              <circle id="Elipse_5043" data-name="Elipse 5043" cx="6.201" cy="6.201" r="6.201" transform="translate(427.144 147.429)" fill="#455a64"/>
            </g>
            <g id="Grupo_158574" data-name="Grupo 158574">
              <g id="Grupo_158573" data-name="Grupo 158573">
                <path id="Trazado_194827" data-name="Trazado 194827" d="M471.849,41c.144,0,.261,9.826.261,21.945s-.117,21.947-.261,21.947-.26-9.824-.26-21.947S471.706,41,471.849,41Z" fill="#263238"/>
              </g>
            </g>
            <g id="Grupo_158575" data-name="Grupo 158575">
              <circle id="Elipse_5044" data-name="Elipse 5044" cx="6.201" cy="6.201" r="6.201" transform="translate(465.649 79.921)" fill="#455a64"/>
            </g>
            <g id="Grupo_158576" data-name="Grupo 158576">
              <circle id="Elipse_5045" data-name="Elipse 5045" cx="5.048" cy="5.048" r="5.048" transform="translate(466.802 34.228)" fill="#455a64"/>
            </g>
          </g>
        </g>
        <g id="Grupo_158597" data-name="Grupo 158597">
          <g id="Grupo_158580" data-name="Grupo 158580">
            <g id="Grupo_158579" data-name="Grupo 158579">
              <path id="Trazado_194828" data-name="Trazado 194828" d="M199.614,152.6c-.081.119-5.039-3.126-11.072-7.246s-10.86-7.559-10.779-7.678,5.038,3.125,11.073,7.247S199.7,152.485,199.614,152.6Z" fill="#263238"/>
            </g>
          </g>
          <g id="Grupo_158596" data-name="Grupo 158596">
            <g id="Grupo_158582" data-name="Grupo 158582">
              <g id="Grupo_158581" data-name="Grupo 158581">
                <path id="Trazado_194829" data-name="Trazado 194829" d="M317.906,220.883c-.068.126-9.111-4.583-20.2-10.518s-20.021-10.851-19.953-10.978,9.109,4.582,20.2,10.519S317.974,220.756,317.906,220.883Z" fill="#263238"/>
              </g>
            </g>
            <g id="Grupo_158584" data-name="Grupo 158584">
              <g id="Grupo_158583" data-name="Grupo 158583">
                <path id="Trazado_194830" data-name="Trazado 194830" d="M278.3,197.821s-.219.145-.671.416l-2.017,1.193-7.8,4.561L239.055,220.7l-.1.056-.1-.056-39.37-22.67-.123-.071v-.142c-.005-14.045-.01-29.412-.015-45.425v-.156l.13-.076,39.352-22.7.123-.071.122.071,39.319,22.76.1.057v.111c-.04,14.016-.072,25.383-.094,33.264-.022,3.91-.039,6.951-.051,9.035q-.015,1.527-.024,2.343c-.009.526-.025.789-.025.789s-.017-.282-.025-.817l-.024-2.367c-.012-2.091-.029-5.142-.051-9.064-.022-7.861-.054-19.2-.094-33.183l.1.167-39.37-22.67h.245l-39.337,22.728.131-.225v.006c-.006,16.013-.011,31.38-.015,45.425l-.123-.213,39.318,22.761h-.193l28.784-16.51,7.874-4.489,2.063-1.162C278.051,197.947,278.3,197.821,278.3,197.821Z" fill="#263238"/>
              </g>
            </g>
            <g id="Grupo_158585" data-name="Grupo 158585">
              <circle id="Elipse_5046" data-name="Elipse 5046" cx="4.011" cy="4.011" r="4.011" transform="translate(173.751 133.668)" fill="#455a64"/>
            </g>
            <g id="Grupo_158586" data-name="Grupo 158586">
              <circle id="Elipse_5047" data-name="Elipse 5047" cx="6.201" cy="6.201" r="6.201" transform="translate(193.414 146.403)" fill="#455a64"/>
            </g>
            <g id="Grupo_158587" data-name="Grupo 158587">
              <circle id="Elipse_5048" data-name="Elipse 5048" cx="6.201" cy="6.201" r="6.201" transform="translate(271.555 146.403)" fill="#455a64"/>
            </g>
            <g id="Grupo_158588" data-name="Grupo 158588">
              <circle id="Elipse_5049" data-name="Elipse 5049" cx="6.201" cy="6.201" r="6.201" transform="translate(271.555 193.186)" fill="#455a64"/>
            </g>
            <g id="Grupo_158589" data-name="Grupo 158589">
              <circle id="Elipse_5050" data-name="Elipse 5050" cx="4.636" cy="4.636" r="4.636" transform="translate(313.27 216.246)" fill="#455a64"/>
            </g>
            <g id="Grupo_158590" data-name="Grupo 158590">
              <circle id="Elipse_5051" data-name="Elipse 5051" cx="6.201" cy="6.201" r="6.201" transform="translate(232.697 214.682)" fill="#455a64"/>
            </g>
            <g id="Grupo_158591" data-name="Grupo 158591">
              <circle id="Elipse_5052" data-name="Elipse 5052" cx="6.201" cy="6.201" r="6.201" transform="translate(194.253 190.982)" fill="#455a64"/>
            </g>
            <g id="Grupo_158593" data-name="Grupo 158593">
              <g id="Grupo_158592" data-name="Grupo 158592">
                <path id="Trazado_194831" data-name="Trazado 194831" d="M238.959,84.551c.143,0,.26,9.826.26,21.944s-.117,21.947-.26,21.947-.261-9.824-.261-21.947S238.815,84.551,238.959,84.551Z" fill="#263238"/>
              </g>
            </g>
            <g id="Grupo_158594" data-name="Grupo 158594">
              <circle id="Elipse_5053" data-name="Elipse 5053" cx="6.201" cy="6.201" r="6.201" transform="translate(232.758 123.474)" fill="#455a64"/>
            </g>
            <g id="Grupo_158595" data-name="Grupo 158595">
              <circle id="Elipse_5054" data-name="Elipse 5054" cx="5.048" cy="5.048" r="5.048" transform="translate(233.911 77.78)" fill="#455a64"/>
            </g>
          </g>
        </g>
        <g id="Grupo_158613" data-name="Grupo 158613">
          <g id="Grupo_158599" data-name="Grupo 158599">
            <g id="Grupo_158598" data-name="Grupo 158598">
              <path id="Trazado_194832" data-name="Trazado 194832" d="M363.481,390.254a1.692,1.692,0,0,1,.438.214l1.2.7,4.367,2.655,14.31,8.914,14.25,9.011,4.3,2.756,1.162.756a1.809,1.809,0,0,1,.4.284,1.692,1.692,0,0,1-.446-.191c-.291-.143-.692-.377-1.219-.676-1.047-.6-2.547-1.5-4.391-2.616-3.689-2.24-8.757-5.38-14.333-8.884s-10.6-6.7-14.229-9.043l-4.279-2.8-1.149-.782A1.752,1.752,0,0,1,363.481,390.254Z" fill="#263238"/>
            </g>
          </g>
          <g id="Grupo_158612" data-name="Grupo 158612">
            <g id="Grupo_158601" data-name="Grupo 158601">
              <g id="Grupo_158600" data-name="Grupo 158600">
                <path id="Trazado_194833" data-name="Trazado 194833" d="M245.189,321.974c.068-.127,9.112,4.583,20.2,10.518s20.022,10.851,19.954,10.978-9.11-4.582-20.2-10.519S245.121,322.1,245.189,321.974Z" fill="#263238"/>
              </g>
            </g>
            <g id="Grupo_158603" data-name="Grupo 158603">
              <g id="Grupo_158602" data-name="Grupo 158602">
                <path id="Trazado_194834" data-name="Trazado 194834" d="M284.792,345.036s.219-.146.671-.416l2.017-1.193,7.8-4.561,28.76-16.713.1-.056.1.056,39.37,22.67.122.071v.142c0,14.045.009,29.412.015,45.424v.157l-.131.076-39.351,22.7-.123.071-.123-.071L284.7,390.635l-.1-.057v-.111c.039-14.016.071-25.383.094-33.264.021-3.91.038-6.951.05-9.035l.025-2.343c.008-.527.024-.789.024-.789s.017.282.025.817l.025,2.367c.011,2.091.028,5.142.05,9.064.022,7.861.054,19.2.094,33.183l-.1-.168,39.37,22.671h-.245l39.337-22.728-.13.225v-.007c.005-16.012.01-31.379.015-45.424l.122.212-39.318-22.76h.193L295.45,339l-7.875,4.489-2.063,1.162C285.044,344.909,284.792,345.036,284.792,345.036Z" fill="#263238"/>
              </g>
            </g>
            <g id="Grupo_158604" data-name="Grupo 158604">
              <circle id="Elipse_5055" data-name="Elipse 5055" cx="4.011" cy="4.011" r="4.011" transform="translate(398.535 410.403)" fill="#455a64"/>
            </g>
            <g id="Grupo_158605" data-name="Grupo 158605">
              <circle id="Elipse_5056" data-name="Elipse 5056" cx="6.201" cy="6.201" r="6.201" transform="translate(357.28 384.053)" fill="#455a64"/>
            </g>
            <g id="Grupo_158606" data-name="Grupo 158606">
              <circle id="Elipse_5057" data-name="Elipse 5057" cx="6.201" cy="6.201" r="6.201" transform="translate(279.139 384.053)" fill="#455a64"/>
            </g>
            <g id="Grupo_158607" data-name="Grupo 158607">
              <circle id="Elipse_5058" data-name="Elipse 5058" cx="6.201" cy="6.201" r="6.201" transform="translate(279.139 337.269)" fill="#455a64"/>
            </g>
            <g id="Grupo_158608" data-name="Grupo 158608">
              <circle id="Elipse_5059" data-name="Elipse 5059" cx="4.636" cy="4.636" r="4.636" transform="translate(240.553 317.338)" fill="#455a64"/>
            </g>
            <g id="Grupo_158609" data-name="Grupo 158609">
              <circle id="Elipse_5060" data-name="Elipse 5060" cx="6.201" cy="6.201" r="6.201" transform="translate(317.997 315.774)" fill="#455a64"/>
            </g>
            <g id="Grupo_158610" data-name="Grupo 158610">
              <circle id="Elipse_5061" data-name="Elipse 5061" cx="6.201" cy="6.201" r="6.201" transform="translate(356.441 339.474)" fill="#455a64"/>
            </g>
            <g id="Grupo_158611" data-name="Grupo 158611">
              <circle id="Elipse_5062" data-name="Elipse 5062" cx="6.201" cy="6.201" r="6.201" transform="translate(317.936 406.982)" fill="#455a64"/>
            </g>
          </g>
        </g>
        <g id="Grupo_158741" data-name="Grupo 158741">
          <g id="Grupo_158711" data-name="Grupo 158711">
            <g id="Grupo_158706" data-name="Grupo 158706">
              <g id="Grupo_158616" data-name="Grupo 158616">
                <g id="Grupo_158614" data-name="Grupo 158614">
                  <path id="Trazado_194835" data-name="Trazado 194835" d="M351.186,299.938c-1.414,1.436,10.837,9.376,15.97,16.007s23.671,40.932,33.652,38.416,2.567-29.041,2.567-29.041,4.442-29.04,2.649-28.812S355.464,295.594,351.186,299.938Z" fill="#d28710"/>
                </g>
              </g>
              <g id="Grupo_158617" data-name="Grupo 158617">
                <path id="Trazado_194837" data-name="Trazado 194837" d="M222.9,238.1s.728,25.1,30.559,30.559l26.194,2.547s.727,36.016,43.292,36.743l33.1-4s50.931-1.442,83.674,1.455c9.332.825,22.937,2.155,36.4-2.574S535.4,254.84,489.2,201c0,0,4-24.375-20.737-30.2,0,0-10.914-33.469-47.294-33.1,0,0-12.005-14.916-30.2-8.731,0,0-34.925-15.737-61.482-1.5,0,0-31.65-6.866-55.3,18.964,0,0-25.466,8-32.015,27.285,0,0-31.286,20.194-21.828,43.567a13.131,13.131,0,0,0-4.365,12.094C217.079,237.378,222.9,238.1,222.9,238.1Z" fill="#ff9d00"/>
              </g>
              <g id="Grupo_158619" data-name="Grupo 158619">
                <g id="Grupo_158618" data-name="Grupo 158618">
                  <path id="Trazado_194838" data-name="Trazado 194838" d="M411.364,211.31a9.872,9.872,0,0,0-3.569,2.02,10.609,10.609,0,0,0-2.766,4.037,9.412,9.412,0,0,0-.179,6.5l.094.264-.273-.073a84.278,84.278,0,0,0-12.283-2.4A79.5,79.5,0,0,0,341.6,233.242l-.1.065-.117-.038a53.279,53.279,0,0,0-7.831-1.813,70.8,70.8,0,0,0-17.965-.627,32.013,32.013,0,0,0-8.3,1.914,46.033,46.033,0,0,0-7.454,3.4,38.5,38.5,0,0,0-6.19,4.724,62.5,62.5,0,0,0-5.256,5.165,42.336,42.336,0,0,0-6.932,11.193,31.666,31.666,0,0,0-1.719,5.489,24.641,24.641,0,0,0-.495,5.1,36.413,36.413,0,0,0,1.069,8.159c.529,2.2,1.079,3.88,1.463,5.011l.448,1.283c.1.289.141.442.141.442a40.565,40.565,0,0,1-2.249-6.688,35.86,35.86,0,0,1-1.163-8.2,24.794,24.794,0,0,1,.461-5.17,31.8,31.8,0,0,1,1.7-5.562,42.5,42.5,0,0,1,6.945-11.336,62.66,62.66,0,0,1,5.277-5.222,38.773,38.773,0,0,1,6.252-4.8,46.147,46.147,0,0,1,7.524-3.455,32.406,32.406,0,0,1,8.416-1.956,71.021,71.021,0,0,1,18.1.619,53.709,53.709,0,0,1,7.91,1.835l-.22.028a79.374,79.374,0,0,1,51.106-11.515,83.005,83.005,0,0,1,12.321,2.489l-.179.191a9.626,9.626,0,0,1,.243-6.685,10.663,10.663,0,0,1,2.875-4.071,9.384,9.384,0,0,1,2.65-1.6C411.01,211.388,411.364,211.31,411.364,211.31Z" fill="#263238"/>
                </g>
              </g>
              <g id="Grupo_158621" data-name="Grupo 158621">
                <g id="Grupo_158620" data-name="Grupo 158620">
                  <path id="Trazado_194839" data-name="Trazado 194839" d="M456.825,207.926s-.035.159-.128.461l-.424,1.338c-.35,1.185-1,2.887-1.87,5.065a71.79,71.79,0,0,1-3.8,7.651c-.8,1.465-1.787,2.95-2.8,4.544-1.091,1.544-2.236,3.184-3.566,4.81a72.432,72.432,0,0,1-22.567,18.7,73.332,73.332,0,0,1-16.29,6.1A74.405,74.405,0,0,1,386.81,258.6a72.421,72.421,0,0,1-10.338-.933,75.425,75.425,0,0,1-9.75-2.309l.23-.041a37.2,37.2,0,0,1-34.732,5.234l.2-.03a26.405,26.405,0,0,1-6.916,3.751,27.2,27.2,0,0,1-6.863,1.58,13.04,13.04,0,0,1-1.622.124c-.533.016-1.056.046-1.569.049-1.026-.058-2.019-.034-2.958-.179l-1.383-.162-1.306-.253a21.683,21.683,0,0,1-2.4-.593,27.008,27.008,0,0,1-6.565-2.934c-.7-.438-1.195-.835-1.543-1.076s-.51-.391-.51-.391.192.108.546.341.863.6,1.57,1.023a28.024,28.024,0,0,0,6.567,2.814,21.79,21.79,0,0,0,2.384.563l1.3.238,1.372.148c.931.137,1.914.1,2.929.155.508-.007,1.026-.042,1.553-.061a12.575,12.575,0,0,0,1.6-.134,26.979,26.979,0,0,0,6.769-1.6,26.166,26.166,0,0,0,6.795-3.727l.089-.069.107.039a36.856,36.856,0,0,0,34.282-5.252l.1-.079.128.038a74.92,74.92,0,0,0,9.681,2.283,72.424,72.424,0,0,0,10.264.924,74.251,74.251,0,0,0,18.432-1.99,70.337,70.337,0,0,0,38.69-24.529c1.332-1.611,2.482-3.235,3.578-4.766,1.024-1.579,2.02-3.05,2.827-4.5a74.625,74.625,0,0,0,3.869-7.586c.9-2.159,1.576-3.846,1.957-5.019l.473-1.32C456.756,208.074,456.825,207.926,456.825,207.926Z" fill="#263238"/>
                </g>
              </g>
              <g id="Grupo_158623" data-name="Grupo 158623">
                <g id="Grupo_158622" data-name="Grupo 158622">
                  <path id="Trazado_194840" data-name="Trazado 194840" d="M304.246,286.45a3.436,3.436,0,0,1-.079-.971c-.015-.625-.017-1.529.024-2.647a25.4,25.4,0,0,1,1.626-8.6,13.172,13.172,0,0,1,5.682-6.594,8.6,8.6,0,0,1,2.514-.908,2.871,2.871,0,0,1,.974-.08,14.813,14.813,0,0,0-3.307,1.309,13.5,13.5,0,0,0-5.381,6.472,28.211,28.211,0,0,0-1.74,8.42A33.311,33.311,0,0,1,304.246,286.45Z" fill="#263238"/>
                </g>
              </g>
              <g id="Grupo_158625" data-name="Grupo 158625">
                <g id="Grupo_158624" data-name="Grupo 158624">
                  <path id="Trazado_194841" data-name="Trazado 194841" d="M447.792,279.741a1.381,1.381,0,0,1-.308-.057l-.888-.216-3.4-.879c-.739-.187-1.553-.422-2.456-.633L437.8,277.3l-3.383-.758-3.823-.7a177.265,177.265,0,0,0-42.381-2.531,175.019,175.019,0,0,0-29.075,4.16A193.923,193.923,0,0,0,338.7,283.48l.09-.113a10.128,10.128,0,0,1-1.187,3.883,8.208,8.208,0,0,1-1.967,2.263,11.02,11.02,0,0,1-2.08,1.358,4.065,4.065,0,0,1,.518-.364,16.988,16.988,0,0,0,1.467-1.108,8.231,8.231,0,0,0,1.874-2.255,10.014,10.014,0,0,0,1.1-3.812l.009-.084.081-.03a180.577,180.577,0,0,1,20.423-6.192,170.75,170.75,0,0,1,29.147-4.237,166.183,166.183,0,0,1,23.474.175,164.139,164.139,0,0,1,19.005,2.514l3.824.741,3.38.8,2.94.7c.9.225,1.712.476,2.448.679l3.377.974.874.265A1.39,1.39,0,0,1,447.792,279.741Z" fill="#263238"/>
                </g>
              </g>
              <g id="Grupo_158627" data-name="Grupo 158627">
                <g id="Grupo_158626" data-name="Grupo 158626">
                  <path id="Trazado_194842" data-name="Trazado 194842" d="M474.659,265.249a1.54,1.54,0,0,1,.267-.194l.809-.523c.707-.465,1.749-1.153,3.032-2.121a41.564,41.564,0,0,0,9.41-9.708,32.356,32.356,0,0,0,4.133-8.356,30,30,0,0,0,1.431-10.567,24.411,24.411,0,0,0-3.276-11.236,22.89,22.89,0,0,0-9.089-8.593,19.547,19.547,0,0,0-7.492-2.143l-.385-.032.172-.342a21.5,21.5,0,0,0,2.542-10.859,20.87,20.87,0,0,0-3.26-9.782,20.564,20.564,0,0,0-13.9-9.747,28.7,28.7,0,0,0-6.646-.538c-1.966.051-3.651.221-5.026.345l-3.162.289-.821.057a1.249,1.249,0,0,1-.281,0,1.223,1.223,0,0,1,.276-.052l.817-.1,3.152-.38c1.373-.153,3.058-.352,5.036-.429a28.5,28.5,0,0,1,6.723.47,22.176,22.176,0,0,1,17.584,19.841,21.941,21.941,0,0,1-2.575,11.118l-.213-.374a20.012,20.012,0,0,1,7.694,2.2,23.334,23.334,0,0,1,9.29,8.8,24.816,24.816,0,0,1,3.316,11.473,30.258,30.258,0,0,1-1.5,10.723,32.426,32.426,0,0,1-4.24,8.431,40.555,40.555,0,0,1-9.593,9.663A32.825,32.825,0,0,1,474.659,265.249Z" fill="#263238"/>
                </g>
              </g>
              <g id="Grupo_158629" data-name="Grupo 158629">
                <g id="Grupo_158628" data-name="Grupo 158628">
                  <path id="Trazado_194843" data-name="Trazado 194843" d="M383.744,219.991a2.274,2.274,0,0,1-.779-.1,4.892,4.892,0,0,1-.89-.241,8.2,8.2,0,0,1-1.142-.442,12.536,12.536,0,0,1-2.712-1.679,13.849,13.849,0,0,1-4.4-6.367,12.544,12.544,0,0,1-.614-3.13,8.27,8.27,0,0,1-.01-1.224,4.907,4.907,0,0,1,.089-.918,2.246,2.246,0,0,1,.179-.765c.1.012-.085,1.117.109,2.874a13.725,13.725,0,0,0,.7,3.007,14.443,14.443,0,0,0,4.256,6.154,13.719,13.719,0,0,0,2.566,1.716C382.668,219.677,383.769,219.89,383.744,219.991Z" fill="#263238"/>
                </g>
              </g>
              <g id="Grupo_158631" data-name="Grupo 158631">
                <g id="Grupo_158630" data-name="Grupo 158630">
                  <path id="Trazado_194844" data-name="Trazado 194844" d="M346.882,217.546a6.789,6.789,0,0,1,.557,2.429,14.372,14.372,0,0,1-3.863,11.117,6.773,6.773,0,0,1-1.942,1.56c-.058-.072.687-.661,1.669-1.807A15.82,15.82,0,0,0,347.071,220C347.011,218.491,346.792,217.567,346.882,217.546Z" fill="#263238"/>
                </g>
              </g>
              <g id="Grupo_158633" data-name="Grupo 158633">
                <g id="Grupo_158632" data-name="Grupo 158632">
                  <path id="Trazado_194845" data-name="Trazado 194845" d="M314.987,230.536a1.156,1.156,0,0,1-.4.056,4.853,4.853,0,0,1-1.159-.06,7.118,7.118,0,0,1-3.728-2.021,10.667,10.667,0,0,1-2.928-5.57,26.86,26.86,0,0,1-.068-7.706,46.726,46.726,0,0,0,.3-7.614,38.115,38.115,0,0,0-.853-6.158c-.388-1.73-.815-3.1-1.126-4.048a11.09,11.09,0,0,1-.463-1.478c.017-.007.084.115.2.352s.274.591.456,1.057a31.907,31.907,0,0,1,1.295,4.032,35.414,35.414,0,0,1,.973,6.214,44.236,44.236,0,0,1-.259,7.691,27.478,27.478,0,0,0,.021,7.569,10.507,10.507,0,0,0,2.718,5.4,7.232,7.232,0,0,0,3.507,2.081C314.427,230.541,314.987,230.476,314.987,230.536Z" fill="#263238"/>
                </g>
              </g>
              <g id="Grupo_158635" data-name="Grupo 158635">
                <g id="Grupo_158634" data-name="Grupo 158634">
                  <path id="Trazado_194846" data-name="Trazado 194846" d="M291.509,242.51a10.972,10.972,0,0,0,1.525-3.818,12.517,12.517,0,0,0-2.565-9.325,26.327,26.327,0,0,0-7.752-6.268l-2.668-1.509a4.8,4.8,0,0,1-.957-.6,4.659,4.659,0,0,1,1.049.42c.66.3,1.607.758,2.755,1.369a24.567,24.567,0,0,1,7.985,6.271,12.462,12.462,0,0,1,2.515,9.709,7.937,7.937,0,0,1-1.16,2.88A3.475,3.475,0,0,1,291.509,242.51Z" fill="#263238"/>
                </g>
              </g>
              <g id="Grupo_158637" data-name="Grupo 158637">
                <g id="Grupo_158636" data-name="Grupo 158636">
                  <path id="Trazado_194847" data-name="Trazado 194847" d="M279.754,261.131a4.075,4.075,0,0,1-.754.039l-2.167.008c-.938-.063-2.089-.156-3.418-.307a41.054,41.054,0,0,1-15.328-5.515,42.088,42.088,0,0,1-10.92-9.468,39.019,39.019,0,0,1-6.834-12.736,22.5,22.5,0,0,1-1.007-6.266,14.621,14.621,0,0,1,.253-2.883,18.218,18.218,0,0,1,.746-2.555,24.374,24.374,0,0,1,3.866-6.962,10.125,10.125,0,0,1,1.546-1.529,3.664,3.664,0,0,1,.644-.4,4.535,4.535,0,0,1-.578.482,11.734,11.734,0,0,0-1.454,1.574,25.479,25.479,0,0,0-3.678,6.959,18.27,18.27,0,0,0-.7,2.509,14.432,14.432,0,0,0-.216,2.8,22.355,22.355,0,0,0,1.036,6.131,39.123,39.123,0,0,0,6.779,12.547,42.325,42.325,0,0,0,10.764,9.386,41.777,41.777,0,0,0,10.719,4.662,43.062,43.062,0,0,0,4.4.975c1.316.177,2.456.3,3.387.393l2.156.089A4.167,4.167,0,0,1,279.754,261.131Z" fill="#263238"/>
                </g>
              </g>
              <g id="Grupo_158639" data-name="Grupo 158639">
                <g id="Grupo_158638" data-name="Grupo 158638">
                  <path id="Trazado_194848" data-name="Trazado 194848" d="M254.9,189.8a2.044,2.044,0,0,1-.533-.033l-1.517-.174a45.484,45.484,0,0,0-5.583-.323,23.624,23.624,0,0,0-8.09,1.4,15.084,15.084,0,0,0-7.728,6.093,11.08,11.08,0,0,0-1.017,9.578,10.769,10.769,0,0,0,5.664,5.6,20.275,20.275,0,0,0,5.336,1.54c1.307.192,2.041.229,2.039.275a2.053,2.053,0,0,1-.535.021c-.351,0-.867-.031-1.53-.1a18.847,18.847,0,0,1-5.462-1.4,12.632,12.632,0,0,1-3.321-2.092,10.023,10.023,0,0,1-2.636-3.666A11.481,11.481,0,0,1,231,196.5a15.4,15.4,0,0,1,8.008-6.275,23.285,23.285,0,0,1,8.256-1.321,38.073,38.073,0,0,1,5.612.49c.656.1,1.163.2,1.505.271A2.076,2.076,0,0,1,254.9,189.8Z" fill="#263238"/>
                </g>
              </g>
              <g id="Grupo_158641" data-name="Grupo 158641">
                <g id="Grupo_158640" data-name="Grupo 158640">
                  <path id="Trazado_194849" data-name="Trazado 194849" d="M339.19,152.662a1.262,1.262,0,0,1-.242-.169l-.676-.534c-.6-.468-1.468-1.166-2.633-2.006a31.76,31.76,0,0,0-10.851-5.262,36.267,36.267,0,0,0-8.286-1.045,33.2,33.2,0,0,0-9.49,1.176,33.672,33.672,0,0,0-9.57,4.44,30.991,30.991,0,0,0-7.936,8.05c-.482.709-.932,1.433-1.335,2.116l-.078.133-.154,0a30.812,30.812,0,0,0-19.6,6.6,29.223,29.223,0,0,0-6.214,6.689,31.246,31.246,0,0,0-5.162,18.489c.014.681.071,1.283.124,1.8s.1.963.154,1.316l.11.808a1.219,1.219,0,0,1,.021.279,22.341,22.341,0,0,1-.606-4.2,30.512,30.512,0,0,1,1.509-11.474,31.22,31.22,0,0,1,3.5-7.259,29.468,29.468,0,0,1,6.273-6.826,31.153,31.153,0,0,1,19.906-6.748l-.232.129c.409-.693.865-1.429,1.355-2.149a31.359,31.359,0,0,1,8.077-8.176,33.9,33.9,0,0,1,9.731-4.482,33.322,33.322,0,0,1,9.626-1.145,36.272,36.272,0,0,1,8.372,1.119,31.14,31.14,0,0,1,10.877,5.456c1.152.869,2.005,1.594,2.58,2.089l.644.574A1.18,1.18,0,0,1,339.19,152.662Z" fill="#263238"/>
                </g>
              </g>
              <g id="Grupo_158643" data-name="Grupo 158643">
                <g id="Grupo_158642" data-name="Grupo 158642">
                  <path id="Trazado_194850" data-name="Trazado 194850" d="M276.077,173.7a1.445,1.445,0,0,1,.449.025,10.306,10.306,0,0,1,1.269.228,14.55,14.55,0,0,1,4.353,1.873,15.181,15.181,0,0,1,4.878,5.057,15.028,15.028,0,0,1-1.017,16.42,15.182,15.182,0,0,1-5.465,4.417,14.535,14.535,0,0,1-4.551,1.321,10.3,10.3,0,0,1-1.288.07,1.532,1.532,0,0,1-.448-.03c0-.054.616-.06,1.707-.24a15.7,15.7,0,0,0,4.418-1.452,15.181,15.181,0,0,0,5.244-4.375,14.762,14.762,0,0,0,.984-15.891,15.181,15.181,0,0,0-4.664-4.989,15.678,15.678,0,0,0-4.2-1.985C276.681,173.83,276.068,173.748,276.077,173.7Z" fill="#263238"/>
                </g>
              </g>
              <g id="Grupo_158645" data-name="Grupo 158645">
                <g id="Grupo_158644" data-name="Grupo 158644">
                  <path id="Trazado_194851" data-name="Trazado 194851" d="M308.656,164.848a4.955,4.955,0,0,1,.429,1.212,15.348,15.348,0,0,1,.508,3.473,16.891,16.891,0,0,1-12.979,17.176,15.342,15.342,0,0,1-3.48.458,4.93,4.93,0,0,1-1.283-.081,27.647,27.647,0,0,0,4.669-.734,17.056,17.056,0,0,0,12.705-16.812A27.732,27.732,0,0,0,308.656,164.848Z" fill="#263238"/>
                </g>
              </g>
              <g id="Grupo_158647" data-name="Grupo 158647">
                <g id="Grupo_158646" data-name="Grupo 158646">
                  <path id="Trazado_194852" data-name="Trazado 194852" d="M331.229,210.173a12.609,12.609,0,0,1,.107-1.62,28.08,28.08,0,0,0-.023-4.4,26.276,26.276,0,0,0-16.119-22.318,27.942,27.942,0,0,0-4.169-1.4,12.55,12.55,0,0,1-1.572-.409,1.292,1.292,0,0,1,.422.024c.273.041.682.074,1.194.187a23.611,23.611,0,0,1,4.265,1.261,25.807,25.807,0,0,1,16.347,22.633,23.642,23.642,0,0,1-.144,4.446c-.054.522-.151.92-.2,1.192A1.287,1.287,0,0,1,331.229,210.173Z" fill="#263238"/>
                </g>
              </g>
              <g id="Grupo_158649" data-name="Grupo 158649">
                <g id="Grupo_158648" data-name="Grupo 158648">
                  <path id="Trazado_194853" data-name="Trazado 194853" d="M320.512,156.153a5.327,5.327,0,0,1,1.175.646,14.907,14.907,0,0,1,2.785,2.379,16.656,16.656,0,0,1,2.99,4.544,15.851,15.851,0,0,1,.08,13.031,16.662,16.662,0,0,1-2.935,4.581,14.881,14.881,0,0,1-2.755,2.413,5.318,5.318,0,0,1-1.168.66,24.645,24.645,0,0,0,3.646-3.316,16.31,16.31,0,0,0-.132-21.667A24.691,24.691,0,0,0,320.512,156.153Z" fill="#263238"/>
                </g>
              </g>
              <g id="Grupo_158651" data-name="Grupo 158651">
                <g id="Grupo_158650" data-name="Grupo 158650">
                  <path id="Trazado_194854" data-name="Trazado 194854" d="M334.63,156.916a18.524,18.524,0,0,1-6.12,10.336c-.117-.111,1.79-2.056,3.473-4.923C333.687,159.476,334.476,156.868,334.63,156.916Z" fill="#263238"/>
                </g>
              </g>
              <g id="Grupo_158653" data-name="Grupo 158653">
                <g id="Grupo_158652" data-name="Grupo 158652">
                  <path id="Trazado_194855" data-name="Trazado 194855" d="M353.966,121.853a5.664,5.664,0,0,1,.81.369l.965.487,1.258.771a25.5,25.5,0,0,1,6.771,6.478,26.778,26.778,0,0,1,5.015,12.913,25.449,25.449,0,0,1-4.09,16.359,26.56,26.56,0,0,1-13.548,10.717l.152-.3a45.648,45.648,0,0,1,1.642,18.834,42.577,42.577,0,0,1-1,5.328c-.151.611-.3,1.071-.393,1.385a2.3,2.3,0,0,1-.164.468,2.473,2.473,0,0,1,.089-.489l.319-1.4a50.016,50.016,0,0,0,.859-5.326,46.6,46.6,0,0,0-1.811-18.66l-.069-.222.22-.075a26.254,26.254,0,0,0,13.264-10.547,25.125,25.125,0,0,0,4.05-16.028,26.7,26.7,0,0,0-4.837-12.746,26.264,26.264,0,0,0-6.584-6.524l-1.224-.806-.936-.528A5.743,5.743,0,0,1,353.966,121.853Z" fill="#263238"/>
                </g>
              </g>
              <g id="Grupo_158655" data-name="Grupo 158655">
                <g id="Grupo_158654" data-name="Grupo 158654">
                  <path id="Trazado_194856" data-name="Trazado 194856" d="M336.842,125.14a3.908,3.908,0,0,1,.918.668,11.389,11.389,0,0,1,2.024,2.349,12.933,12.933,0,0,1,1.8,4.24,12.16,12.16,0,0,1-2.526,10.69,12.916,12.916,0,0,1-3.509,2.986,11.353,11.353,0,0,1-2.861,1.194,3.9,3.9,0,0,1-1.119.187,19.561,19.561,0,0,0,3.79-1.7,12.473,12.473,0,0,0,4.112-17.4A19.539,19.539,0,0,0,336.842,125.14Z" fill="#263238"/>
                </g>
              </g>
              <g id="Grupo_158657" data-name="Grupo 158657">
                <g id="Grupo_158656" data-name="Grupo 158656">
                  <path id="Trazado_194857" data-name="Trazado 194857" d="M420.806,136.239a4.844,4.844,0,0,1-.814.075c-.532.034-1.318.089-2.325.205a40.279,40.279,0,0,0-8.349,1.858,32.386,32.386,0,0,0-5.4,2.367,46.41,46.41,0,0,0-5.6,3.813,40.81,40.81,0,0,0-10.375,11.418c-2.71,4.822-5.168,9.5-7.142,13.864a80.9,80.9,0,0,0-4.38,11.933,57.473,57.473,0,0,0-1.665,8.408c-.149,1-.172,1.792-.24,2.323a4.744,4.744,0,0,1-.108.81,4.838,4.838,0,0,1,0-.817c.034-.533.025-1.327.144-2.337a52.076,52.076,0,0,1,1.51-8.482,77.7,77.7,0,0,1,4.3-12.034c1.961-4.4,4.408-9.087,7.129-13.928a40.727,40.727,0,0,1,10.532-11.538,45.915,45.915,0,0,1,5.687-3.812,32.161,32.161,0,0,1,5.491-2.338,37.8,37.8,0,0,1,8.445-1.71c1.015-.085,1.806-.108,2.342-.108A4.89,4.89,0,0,1,420.806,136.239Z" fill="#263238"/>
                </g>
              </g>
              <g id="Grupo_158659" data-name="Grupo 158659">
                <g id="Grupo_158658" data-name="Grupo 158658">
                  <path id="Trazado_194858" data-name="Trazado 194858" d="M388.916,128.15c0,.1-1.4.077-3.6.47a24.191,24.191,0,0,0-3.784,1.012,24.137,24.137,0,0,0-8.167,4.915,24.149,24.149,0,0,0-2.667,2.869c-1.379,1.762-2.014,3.012-2.1,2.964a3.547,3.547,0,0,1,.394-.9,8.679,8.679,0,0,1,.566-1.007,14.567,14.567,0,0,1,.849-1.276,21.506,21.506,0,0,1,2.635-3,22.756,22.756,0,0,1,8.335-5.016,21.411,21.411,0,0,1,3.884-.922,14.262,14.262,0,0,1,1.524-.153,8.725,8.725,0,0,1,1.155-.029A3.569,3.569,0,0,1,388.916,128.15Z" fill="#263238"/>
                </g>
              </g>
              <g id="Grupo_158661" data-name="Grupo 158661">
                <g id="Grupo_158660" data-name="Grupo 158660">
                  <path id="Trazado_194859" data-name="Trazado 194859" d="M397.341,195.94c-.006-.049.415-.071,1.109-.325a6.593,6.593,0,0,0,2.544-1.731,10.705,10.705,0,0,0,2.215-4.013,52.051,52.051,0,0,0,1.393-5.562,66.2,66.2,0,0,0,1.2-10.363c.056-1.337.051-2.42.065-3.17a5.092,5.092,0,0,1,.052-1.167,5.028,5.028,0,0,1,.151,1.161c.048.75.109,1.838.1,3.184a55.082,55.082,0,0,1-1.06,10.456,46.278,46.278,0,0,1-1.449,5.617,10.662,10.662,0,0,1-2.4,4.113,6.309,6.309,0,0,1-2.748,1.668,4.185,4.185,0,0,1-.864.15C397.446,195.964,397.342,195.958,397.341,195.94Z" fill="#263238"/>
                </g>
              </g>
              <g id="Grupo_158663" data-name="Grupo 158663">
                <g id="Grupo_158662" data-name="Grupo 158662">
                  <path id="Trazado_194860" data-name="Trazado 194860" d="M427.916,211.079a17.126,17.126,0,0,0,1.037-5.787,16.64,16.64,0,0,0-1.341-6.2,17.992,17.992,0,0,0-4.486-6.314,21.528,21.528,0,0,0-6.7-3.97A26.935,26.935,0,0,0,410.2,187.3a34.1,34.1,0,0,0-4.332-.257,11.327,11.327,0,0,1-1.6-.019,1.257,1.257,0,0,1,.409-.077c.271-.027.669-.086,1.185-.107a27.606,27.606,0,0,1,4.379.094,25.821,25.821,0,0,1,6.348,1.423,21.389,21.389,0,0,1,6.878,4.031,18.035,18.035,0,0,1,4.583,6.519,16.459,16.459,0,0,1,1.266,6.386,13.1,13.1,0,0,1-.738,4.326,8.291,8.291,0,0,1-.464,1.1C428,210.962,427.932,211.087,427.916,211.079Z" fill="#263238"/>
                </g>
              </g>
              <g id="Grupo_158665" data-name="Grupo 158665">
                <g id="Grupo_158664" data-name="Grupo 158664">
                  <path id="Trazado_194861" data-name="Trazado 194861" d="M404.55,157.35a3.159,3.159,0,0,1,.624-.208c.411-.129,1.029-.279,1.83-.451a30.331,30.331,0,0,1,6.9-.6,27.08,27.08,0,0,1,10.032,2.21,22.744,22.744,0,0,1,9.644,8,19.356,19.356,0,0,1,3.479,12,18.073,18.073,0,0,1-3.584,9.586,15.886,15.886,0,0,1-5.254,4.506,11.8,11.8,0,0,1-1.739.737,3.082,3.082,0,0,1-.63.186,3.094,3.094,0,0,1,.593-.284,15.145,15.145,0,0,0,1.679-.818,16.34,16.34,0,0,0,5.055-4.547,17.921,17.921,0,0,0,3.4-9.4,19.044,19.044,0,0,0-3.431-11.679,22.517,22.517,0,0,0-9.408-7.856,27.3,27.3,0,0,0-9.85-2.28,33,33,0,0,0-6.855.436C405.436,157.162,404.563,157.4,404.55,157.35Z" fill="#263238"/>
                </g>
              </g>
              <g id="Grupo_158667" data-name="Grupo 158667">
                <g id="Grupo_158666" data-name="Grupo 158666">
                  <path id="Trazado_194862" data-name="Trazado 194862" d="M434.814,167.521c-.108-.023.313-1.561.4-4.1a17.413,17.413,0,0,0-.039-2.069,23.079,23.079,0,0,0-.262-2.358,23.773,23.773,0,0,0-4.13-9.958,22.834,22.834,0,0,0-1.484-1.852,17.371,17.371,0,0,0-1.436-1.49c-1.852-1.732-3.238-2.521-3.178-2.614a4.521,4.521,0,0,1,.984.526,8.566,8.566,0,0,1,1.087.73,14.325,14.325,0,0,1,1.355,1.086,16.356,16.356,0,0,1,1.509,1.472,21.879,21.879,0,0,1,1.552,1.859,22.846,22.846,0,0,1,4.215,10.166,21.532,21.532,0,0,1,.219,2.411,16.219,16.219,0,0,1-.024,2.108,14.162,14.162,0,0,1-.189,1.726,8.582,8.582,0,0,1-.251,1.285A4.528,4.528,0,0,1,434.814,167.521Z" fill="#263238"/>
                </g>
              </g>
              <g id="Grupo_158669" data-name="Grupo 158669">
                <g id="Grupo_158668" data-name="Grupo 158668">
                  <path id="Trazado_194863" data-name="Trazado 194863" d="M467.708,169.1c-.016.1-1.562-.2-4.076-.181a26.009,26.009,0,0,0-4.38.424,26.28,26.28,0,0,0-9.915,4.041,26.023,26.023,0,0,0-3.429,2.759c-1.812,1.742-2.7,3.041-2.788,2.978a4.526,4.526,0,0,1,.588-.935,9.614,9.614,0,0,1,.791-1.027,16,16,0,0,1,1.15-1.278,23.469,23.469,0,0,1,3.418-2.893,24.927,24.927,0,0,1,10.1-4.117,23.544,23.544,0,0,1,4.466-.32,16.258,16.258,0,0,1,1.716.11,9.542,9.542,0,0,1,1.284.182A4.5,4.5,0,0,1,467.708,169.1Z" fill="#263238"/>
                </g>
              </g>
              <g id="Grupo_158671" data-name="Grupo 158671">
                <g id="Grupo_158670" data-name="Grupo 158670">
                  <path id="Trazado_194864" data-name="Trazado 194864" d="M487.125,254.465a1.578,1.578,0,0,1,.228.476,11.392,11.392,0,0,1,.425,1.447,18.364,18.364,0,0,1,.343,5.529,23.7,23.7,0,0,1-2.139,7.933,32.938,32.938,0,0,1-5.62,8.342,25.734,25.734,0,0,1-8.052,6.02,23.937,23.937,0,0,1-7.937,2.123,41.89,41.89,0,0,1-5.531.107c-.651-.022-1.154-.022-1.494-.011a2.087,2.087,0,0,1-.523.019,2,2,0,0,1,.513-.124,13.535,13.535,0,0,1,1.5-.086,52.168,52.168,0,0,0,5.491-.271,24.3,24.3,0,0,0,7.773-2.192,25.778,25.778,0,0,0,7.872-5.937,33.346,33.346,0,0,0,5.569-8.192,24.071,24.071,0,0,0,2.207-7.764,19.7,19.7,0,0,0-.175-5.455c-.113-.638-.239-1.125-.326-1.456A2.909,2.909,0,0,1,487.125,254.465Z" fill="#263238"/>
                </g>
              </g>
              <g id="Grupo_158673" data-name="Grupo 158673" opacity="0.3">
                <g id="Grupo_158672" data-name="Grupo 158672">
                  <path id="Trazado_194865" data-name="Trazado 194865" d="M408.879,211.984a32.108,32.108,0,0,0-11.4,6.948,64.035,64.035,0,0,0-50.068,3.693c-2.688,1.406-5.313,3.021-8.245,3.8-3.647.969-7.494.575-11.262.365-8.505-.475-17.167.047-25.266,2.685S287.007,237,282.185,244.023s-6.656,16.284-3.847,24.326l.95,1.4c-.742-8.7,3.026-17.322,9.445-24.412s15.274-13.337,24.749-14.643,18.58.569,27.982,2.324c19.306-10.539,41.66-14.111,63.01-8.823A9.862,9.862,0,0,1,408.879,211.984Z"/>
                </g>
              </g>
              <g id="Grupo_158675" data-name="Grupo 158675" opacity="0.3">
                <g id="Grupo_158674" data-name="Grupo 158674">
                  <path id="Trazado_194866" data-name="Trazado 194866" d="M366.8,255.118a40.977,40.977,0,0,1-34.277,5.229c-16.655,8.6-21.66,5.291-29.383,2.751,3.819,4.684,10.9,7.217,16.935,7.507a21.911,21.911,0,0,0,16.4-6.387c8.327,3.032,17.511,2.025,26.311.978l22.031-2.622c8.114-.966,16.283-1.943,24.076-4.4s15.275-6.507,20.572-12.728C411,257.929,388.266,261.1,366.8,255.118Z"/>
                </g>
              </g>
              <g id="Grupo_158677" data-name="Grupo 158677" opacity="0.3">
                <g id="Grupo_158676" data-name="Grupo 158676">
                  <path id="Trazado_194867" data-name="Trazado 194867" d="M275.089,203.037c3.53,1.141,8.644.116,11.9-1.661a13.884,13.884,0,0,0,6.686-8.517,4.728,4.728,0,0,1,1.221-2.636,4.876,4.876,0,0,1,3.028-.6,11.712,11.712,0,0,0,11.181-14.22c-2.948,7.882-12.43,12.649-20.515,10.315-.267,6.963-2.355,15.243-13.5,17.315"/>
                </g>
              </g>
              <g id="Grupo_158679" data-name="Grupo 158679" opacity="0.3">
                <g id="Grupo_158678" data-name="Grupo 158678">
                  <path id="Trazado_194868" data-name="Trazado 194868" d="M340.8,149.693a29.9,29.9,0,0,0-28.146-11.837,38.234,38.234,0,0,0-26.794,17.179,43.207,43.207,0,0,0-16.157,3.229,25.049,25.049,0,0,0-12.2,10.773,27.554,27.554,0,0,0-.129,26.505c-1.624-10.073.456-18.506,5.922-24.987s16.956-11.8,25.437-11.363A23.7,23.7,0,0,1,304.7,145.316a40.877,40.877,0,0,1,23.047.027c7.312,2.332,17.743,13.373,17.755,15C345.909,156.719,344.191,154.309,340.8,149.693Z"/>
                </g>
              </g>
              <g id="Grupo_158681" data-name="Grupo 158681" opacity="0.3">
                <g id="Grupo_158680" data-name="Grupo 158680">
                  <path id="Trazado_194869" data-name="Trazado 194869" d="M417.1,136.167c-13.427-2-27.179,5.378-34.992,16.479s-8.73,23.824-7.7,37.36c0,0,4.969-22.934,13.074-33.757C397.341,143.084,413.868,134.19,417.1,136.167Z"/>
                </g>
              </g>
              <g id="Grupo_158683" data-name="Grupo 158683" opacity="0.3">
                <g id="Grupo_158682" data-name="Grupo 158682">
                  <path id="Trazado_194870" data-name="Trazado 194870" d="M406.132,172.974a19.963,19.963,0,0,1,1.476,10.688c6.949-.056,13.317,4.471,17.083,10.312a23.55,23.55,0,0,0-9.935-5.944c-3.72-1.12-7.08-1.687-10.483-.556.838-5.2,2.2-10.183,1.729-14.859"/>
                </g>
              </g>
              <g id="Grupo_158685" data-name="Grupo 158685" opacity="0.3">
                <g id="Grupo_158684" data-name="Grupo 158684">
                  <path id="Trazado_194871" data-name="Trazado 194871" d="M498.52,230.554a21.207,21.207,0,0,0-9.926-12.083c7.456,10.941,6.3,25.477-1.469,35.994,2.336,8.226.568,18.459-13.078,28.566,8.192-1.366,17.075-10.273,18.129-18.511.438-3.427-.03-6.987.975-10.293.883-2.907,2.827-5.358,4.172-8.082A21.211,21.211,0,0,0,498.52,230.554Z"/>
                </g>
              </g>
              <g id="Grupo_158690" data-name="Grupo 158690">
                <g id="Grupo_158687" data-name="Grupo 158687" opacity="0.3">
                  <g id="Grupo_158686" data-name="Grupo 158686">
                    <path id="Trazado_194872" data-name="Trazado 194872" d="M229.27,202.683c.029.13.068.249.1.377.045-.207.084-.414.136-.617Z"/>
                  </g>
                </g>
                <g id="Grupo_158689" data-name="Grupo 158689" opacity="0.3">
                  <g id="Grupo_158688" data-name="Grupo 158688">
                    <path id="Trazado_194873" data-name="Trazado 194873" d="M243.278,238.221a21.721,21.721,0,0,1-3.426-6.939c-1.431-5.962,1.6-11.992,4.531-17.377-7.056.714-13.056-2.816-15.014-10.845-1.175,5.476.33,11.94,4.838,15.21a30.906,30.906,0,0,0,25.468,37.721A80.554,80.554,0,0,1,243.278,238.221Z"/>
                  </g>
                </g>
              </g>
              <g id="Grupo_158699" data-name="Grupo 158699">
                <g id="Grupo_158691" data-name="Grupo 158691">
                  <path id="Trazado_194874" data-name="Trazado 194874" d="M391.628,301.485c-.818,1.452-11.065,10.078-7.714,20.685,4.36,13.8,25.218,14.274,41.628,11.081,24.112-4.692,35.535-15,35.535-28.79C461.077,293.347,391.628,301.485,391.628,301.485Z" fill="#ff9d00"/>
                </g>
                <g id="Grupo_158693" data-name="Grupo 158693">
                  <g id="Grupo_158692" data-name="Grupo 158692">
                    <path id="Trazado_194875" data-name="Trazado 194875" d="M461.077,304.461a4.715,4.715,0,0,1-.808-.111l-2.294-.419c-.992-.2-2.214-.4-3.636-.619-1.418-.236-3.036-.483-4.833-.7-3.585-.493-7.879-.871-12.652-1.189-4.775-.3-10.036-.436-15.558-.454-11.05-.014-21.047.524-28.278.924l-8.564.506-2.33.123a4.848,4.848,0,0,1-.815.008,4.772,4.772,0,0,1,.807-.113l2.323-.22c2.018-.183,4.941-.416,8.555-.671,7.229-.494,17.233-1.091,28.3-1.078,5.532.019,10.8.174,15.588.5,4.782.346,9.083.762,12.67,1.3,1.8.236,3.416.509,4.833.773,1.42.244,2.639.474,3.626.707l2.278.515A4.889,4.889,0,0,1,461.077,304.461Z" fill="#263238"/>
                  </g>
                </g>
                <g id="Grupo_158698" data-name="Grupo 158698">
                  <g id="Grupo_158695" data-name="Grupo 158695" opacity="0.3">
                    <g id="Grupo_158694" data-name="Grupo 158694">
                      <path id="Trazado_194876" data-name="Trazado 194876" d="M385.75,302.3l.172-.007h0Z"/>
                    </g>
                  </g>
                  <g id="Grupo_158697" data-name="Grupo 158697" opacity="0.3">
                    <g id="Grupo_158696" data-name="Grupo 158696">
                      <path id="Trazado_194877" data-name="Trazado 194877" d="M461.077,304.667c-24.386-6.022-50.061-3.536-75.155-2.369C412.458,304.749,437.8,304.789,461.077,304.667Z"/>
                    </g>
                  </g>
                </g>
              </g>
              <g id="Grupo_158701" data-name="Grupo 158701" opacity="0.3">
                <g id="Grupo_158700" data-name="Grupo 158700">
                  <path id="Trazado_194878" data-name="Trazado 194878" d="M354.438,278.319c-4.224,1.24-11.968,3.587-15.782,5.03-.578,3.172-1.844,5.829-4.644,7.34a19.335,19.335,0,0,1-10.457,1.554c4.207.807,8.571,1.527,12.738.538s8.119-4.118,8.76-8.353a193.585,193.585,0,0,1,74.419-9.827C398.062,270.238,375.4,272.162,354.438,278.319Z"/>
                </g>
              </g>
              <g id="Grupo_158703" data-name="Grupo 158703" opacity="0.3">
                <g id="Grupo_158702" data-name="Grupo 158702">
                  <path id="Trazado_194879" data-name="Trazado 194879" d="M432.859,188.246l.2-.109a13.972,13.972,0,0,0,6.215-16.342,10.784,10.784,0,0,1-.879-3.042,10.808,10.808,0,0,1,.643-3.181,13.773,13.773,0,0,0-7.56-15.632c1.395,1.6,5.819,8.073,3.012,18.775,0,0,3.481,6.236,2.088,11.635"/>
                </g>
              </g>
              <g id="Grupo_158705" data-name="Grupo 158705" opacity="0.3">
                <g id="Grupo_158704" data-name="Grupo 158704">
                  <path id="Trazado_194880" data-name="Trazado 194880" d="M331.327,209.526c3.035-2.834,3.107-8.79,1.985-12.788s-3.749-7.393-6.548-10.461a13.012,13.012,0,0,0,1.832-19.222c-.44,3.433-.467,7.7-1.984,10.806a13.45,13.45,0,0,1-6.3,6.546c7.857,3.924,11.549,15.1,11.254,22.38Z"/>
                </g>
              </g>
            </g>
            <g id="Grupo_158708" data-name="Grupo 158708">
              <g id="Grupo_158707" data-name="Grupo 158707">
                <path id="Trazado_194881" data-name="Trazado 194881" d="M463.675,259.842a14.883,14.883,0,0,0,.172-5.517,15.215,15.215,0,0,0-2.166-5.551,18.493,18.493,0,0,0-5.14-5.18,27.529,27.529,0,0,0-6.6-3.242,43.835,43.835,0,0,0-5.839-1.582c-1.693-.331-3.081-.527-4.036-.685a8.5,8.5,0,0,1-1.48-.288,8.3,8.3,0,0,1,1.505.087c.965.1,2.362.236,4.077.524a39.783,39.783,0,0,1,5.925,1.489,26.879,26.879,0,0,1,6.748,3.268,18.472,18.472,0,0,1,5.252,5.354,15.064,15.064,0,0,1,2.122,5.748,11.98,11.98,0,0,1-.088,4.129,7.628,7.628,0,0,1-.294,1.084C463.744,259.723,463.692,259.847,463.675,259.842Z" fill="#263238"/>
              </g>
            </g>
            <g id="Grupo_158710" data-name="Grupo 158710" opacity="0.3">
              <g id="Grupo_158709" data-name="Grupo 158709">
                <path id="Trazado_194882" data-name="Trazado 194882" d="M451.056,233.478a38.18,38.18,0,0,0,2.518-16.776,70.661,70.661,0,0,1-15.119,21.361c8.123.465,16.406,3.507,22.219,9.2A15.539,15.539,0,0,0,451.056,233.478Z"/>
              </g>
            </g>
          </g>
          <g id="Grupo_158714" data-name="Grupo 158714">
            <g id="Grupo_158712" data-name="Grupo 158712">
              <path id="Trazado_194883" data-name="Trazado 194883" d="M208.326,297.726c-10.483,0-16.8-1.686-17.92-5.233-2.6-8.254,22.312-22.143,43.673-32.34l.431.9c-29.259,13.968-44.986,25.317-43.15,31.137,3.971,12.585,86.993-1.921,181.294-31.677S543.267,194.989,539.3,182.4c-1.852-5.867-21.545-6.085-54.029-.6l-.166-.986c23.707-4.007,52.523-7.039,55.148,1.28,4.277,13.554-69.208,48.415-167.3,79.365C300.545,284.317,237.887,297.724,208.326,297.726Z" fill="#ff725e"/>
            </g>
            <g id="Grupo_158713" data-name="Grupo 158713" opacity="0.6">
              <path id="Trazado_194884" data-name="Trazado 194884" d="M208.326,297.726c-10.483,0-16.8-1.686-17.92-5.233-2.594-8.221,22.318-22.125,43.673-32.34l.431.9c-29.251,13.993-44.979,25.342-43.15,31.137,3.971,12.586,86.994-1.921,181.294-31.677S543.267,194.989,539.3,182.4c-1.848-5.85-21.542-6.068-54.029-.6l-.166-.986c23.715-3.995,52.53-7.016,55.148,1.28,4.277,13.554-69.208,48.415-167.3,79.365C300.545,284.317,237.887,297.724,208.326,297.726Z"/>
            </g>
          </g>
          <g id="Grupo_158740" data-name="Grupo 158740">
            <g id="Grupo_158715" data-name="Grupo 158715">
              <circle id="Elipse_5063" data-name="Elipse 5063" cx="3.718" cy="3.718" r="3.718" transform="translate(314.279 348.157)" fill="#00bcd4"/>
            </g>
            <g id="Grupo_158716" data-name="Grupo 158716">
              <circle id="Elipse_5064" data-name="Elipse 5064" cx="3.718" cy="3.718" r="3.718" transform="translate(481.398 309.868)" fill="#00bcd4"/>
            </g>
            <g id="Grupo_158717" data-name="Grupo 158717">
              <circle id="Elipse_5065" data-name="Elipse 5065" cx="2.456" cy="2.456" r="2.456" transform="translate(481.847 137.722)" fill="#00bcd4"/>
            </g>
            <g id="Grupo_158718" data-name="Grupo 158718">
              <circle id="Elipse_5066" data-name="Elipse 5066" cx="3.718" cy="3.718" r="3.718" transform="translate(473.241 337.315)" fill="#00bcd4"/>
            </g>
            <g id="Grupo_158719" data-name="Grupo 158719">
              <circle id="Elipse_5067" data-name="Elipse 5067" cx="6.269" cy="6.269" r="6.269" transform="translate(329.592 348.224)" fill="#00bcd4"/>
            </g>
            <g id="Grupo_158720" data-name="Grupo 158720">
              <circle id="Elipse_5068" data-name="Elipse 5068" cx="6.269" cy="6.269" r="6.269" transform="translate(520.05 319.975)" fill="#00bcd4"/>
            </g>
            <g id="Grupo_158721" data-name="Grupo 158721">
              <circle id="Elipse_5069" data-name="Elipse 5069" cx="4.142" cy="4.142" r="4.142" transform="translate(464.716 134.408)" fill="#00bcd4"/>
            </g>
            <g id="Grupo_158731" data-name="Grupo 158731">
              <g id="Grupo_158722" data-name="Grupo 158722">
                <circle id="Elipse_5070" data-name="Elipse 5070" cx="5.93" cy="5.93" r="5.93" transform="translate(360.03 98.76)" fill="#00bcd4"/>
              </g>
              <g id="Grupo_158723" data-name="Grupo 158723">
                <circle id="Elipse_5071" data-name="Elipse 5071" cx="5.035" cy="5.035" r="5.035" transform="translate(190.744 237.846)" fill="#00bcd4"/>
              </g>
              <g id="Grupo_158724" data-name="Grupo 158724">
                <circle id="Elipse_5072" data-name="Elipse 5072" cx="5.035" cy="5.035" r="5.035" transform="translate(285.059 79.238)" fill="#00bcd4"/>
              </g>
              <g id="Grupo_158725" data-name="Grupo 158725">
                <circle id="Elipse_5073" data-name="Elipse 5073" cx="3.418" cy="3.418" r="3.418" transform="translate(341.662 100.83)" fill="#00bcd4"/>
              </g>
              <g id="Grupo_158726" data-name="Grupo 158726">
                <circle id="Elipse_5074" data-name="Elipse 5074" cx="3.418" cy="3.418" r="3.418" transform="translate(407.239 105.461)" fill="#00bcd4"/>
              </g>
              <g id="Grupo_158727" data-name="Grupo 158727">
                <circle id="Elipse_5075" data-name="Elipse 5075" cx="3.418" cy="3.418" r="3.418" transform="translate(275.674 95.342)" fill="#00bcd4"/>
              </g>
              <g id="Grupo_158728" data-name="Grupo 158728">
                <circle id="Elipse_5076" data-name="Elipse 5076" cx="1.709" cy="1.709" r="1.709" transform="translate(364.25 87.012)" fill="#00bcd4"/>
              </g>
              <g id="Grupo_158729" data-name="Grupo 158729">
                <circle id="Elipse_5077" data-name="Elipse 5077" cx="1.709" cy="1.709" r="1.709" transform="translate(328.695 69.078)" fill="#00bcd4"/>
              </g>
              <g id="Grupo_158730" data-name="Grupo 158730">
                <circle id="Elipse_5078" data-name="Elipse 5078" cx="1.709" cy="1.709" r="1.709" transform="translate(300.635 105.957)" fill="#00bcd4"/>
              </g>
            </g>
            <g id="Grupo_158732" data-name="Grupo 158732">
              <circle id="Elipse_5079" data-name="Elipse 5079" cx="3.135" cy="3.135" r="3.135" transform="translate(529.454 227.416)" fill="#00bcd4"/>
            </g>
            <g id="Grupo_158735" data-name="Grupo 158735">
              <g id="Grupo_158733" data-name="Grupo 158733">
                <circle id="Elipse_5080" data-name="Elipse 5080" cx="3.718" cy="3.718" r="3.718" transform="translate(516.008 241.344)" fill="#00bcd4"/>
              </g>
              <g id="Grupo_158734" data-name="Grupo 158734">
                <circle id="Elipse_5081" data-name="Elipse 5081" cx="1.567" cy="1.567" r="1.567" transform="translate(516.334 214.729)" fill="#00bcd4"/>
              </g>
            </g>
            <g id="Grupo_158736" data-name="Grupo 158736">
              <circle id="Elipse_5082" data-name="Elipse 5082" cx="1.257" cy="1.257" r="1.257" transform="translate(466.344 149.248)" fill="#00bcd4"/>
            </g>
            <g id="Grupo_158737" data-name="Grupo 158737">
              <circle id="Elipse_5083" data-name="Elipse 5083" cx="1.902" cy="1.902" r="1.902" transform="translate(499.031 305.185)" fill="#00bcd4"/>
            </g>
            <g id="Grupo_158738" data-name="Grupo 158738">
              <circle id="Elipse_5084" data-name="Elipse 5084" cx="5.467" cy="5.467" r="5.467" transform="translate(286.236 310.267)" fill="#00bcd4"/>
            </g>
            <g id="Grupo_158739" data-name="Grupo 158739">
              <circle id="Elipse_5085" data-name="Elipse 5085" cx="2.073" cy="2.073" r="2.073" transform="translate(282.089 327.974)" fill="#00bcd4"/>
            </g>
          </g>
        </g>
      </g>
    </g>
  </g>
</svg>
