<svg xmlns="http://www.w3.org/2000/svg" width="85" height="85" viewBox="0 0 85 85">
  <g id="Grupo_155295" data-name="Grupo 155295" transform="translate(-390 -2851.756)">
    <circle id="Elipse_4087" data-name="Elipse 4087" cx="42.5" cy="42.5" r="42.5" transform="translate(390 2851.756)" fill="#7e5ee3"/>
    <path id="Trazado_191676" data-name="Trazado 191676" d="M46.269,27.944a16.631,16.631,0,0,0-11.264,4.409.152.152,0,0,1-.209,0,16.631,16.631,0,0,0-11.263-4.409A17.106,17.106,0,0,0,6.651,45.228a16,16,0,0,0,2.23,7.417A11.093,11.093,0,0,0,.866,67.832l.823,1.951A47.469,47.469,0,0,0,7.782,80.3q.236.307.478.611l.7.884a6.877,6.877,0,0,0,5.415,2.615,6.957,6.957,0,0,0,4.788-1.926,6.955,6.955,0,0,0,4.788,1.926A6.878,6.878,0,0,0,29.369,81.8l.7-.884q.241-.3.478-.611,1.182-1.535,2.241-3.189a4.821,4.821,0,0,0,5.067-.526A139.651,139.651,0,0,0,52.82,63.236C59.675,56.009,63.15,49.95,63.15,45.228A17.105,17.105,0,0,0,46.269,27.944ZM28.594,78.8q-.226.293-.455.582l-.7.884a4.424,4.424,0,0,1-3.483,1.682,4.472,4.472,0,0,1-3.182-1.341,2.226,2.226,0,0,0-1.605-.676h0a2.228,2.228,0,0,0-1.606.676,4.472,4.472,0,0,1-3.182,1.341,4.426,4.426,0,0,1-3.483-1.682l-.7-.884q-.23-.289-.455-.582a44.97,44.97,0,0,1-5.776-9.974l-.823-1.951a8.631,8.631,0,0,1,13.274-10.15l1.52,1.19v.937a8.652,8.652,0,0,0,8.643,8.643h1.653a1.234,1.234,0,0,0,1.233-1.234V64.605a8.656,8.656,0,0,0-6.753-8.432,8.576,8.576,0,0,1,10.446,1.059,8.667,8.667,0,0,1,2.038,9.641l-.823,1.951A45.01,45.01,0,0,1,28.594,78.8ZM20.4,58.43h.419a6.182,6.182,0,0,1,6.176,6.175v.419h-.419A6.182,6.182,0,0,1,20.4,58.849ZM51.03,61.538a137.143,137.143,0,0,1-14.685,13.1,2.353,2.353,0,0,1-2.267.344,49.066,49.066,0,0,0,2.564-5.2l.823-1.951A11.1,11.1,0,0,0,20.4,54.779l-.168.131A8.263,8.263,0,0,0,17.961,50.7L16.647,49.39A1.234,1.234,0,0,0,14.9,51.135l1.314,1.314a5.85,5.85,0,0,1,1.326,2.038,11.107,11.107,0,0,0-5.948-2.056,14.8,14.8,0,0,1-2.477-7.2A14.637,14.637,0,0,1,23.533,30.411a14.17,14.17,0,0,1,9.6,3.76,2.607,2.607,0,0,0,3.545,0,14.171,14.171,0,0,1,9.6-3.76A14.637,14.637,0,0,1,60.684,45.228C60.684,49.24,57.346,54.88,51.03,61.538Z" transform="translate(400.925 2840.62)" fill="#fff"/>
  </g>
</svg>
