<svg xmlns="http://www.w3.org/2000/svg" width="288.693" height="332" viewBox="0 0 288.693 332">
  <g id="Grupo_158503" data-name="Grupo 158503" transform="translate(-150.24 -93.826)">
    <g id="Grupo_158478" data-name="Grupo 158478" transform="translate(209.969 313.823)">
      <path id="Trazado_194083" data-name="Trazado 194083" d="M308.66,500.333a4.2,4.2,0,0,1-.876.246,71.743,71.743,0,0,0-27.205,7.331c-1.391.671-1.763.455-2.556-1.157-.629-1.28.241-1.713,1.145-2.02,5.874-2,11.745-4.019,17.661-5.893a11.017,11.017,0,0,1,3.59-.074c2.085.075,4.173.164,6.249.355a9.344,9.344,0,0,1,2.089.7Z" transform="translate(-271.929 -498.295)" fill="#afafaf" stroke="#d27955" stroke-miterlimit="10" stroke-width="1.522" fill-rule="evenodd"/>
      <path id="Trazado_194084" data-name="Trazado 194084" d="M325.556,520.066a19.92,19.92,0,0,1-9.108,2.686c-4.889.4-9.8.637-14.495,2.248-.831.285-1.646.621-2.488.866a2.4,2.4,0,0,1-1.468.157,6.763,6.763,0,0,1-1.467-1.312c.411-.364.762-.894,1.242-1.067a90.963,90.963,0,0,1,18.918-4.233c1.743-.232,3.477-.524,5.219-.762C323.334,518.455,324.685,518.507,325.556,520.066Z" transform="translate(-282.002 -509.012)" fill="#afafaf" stroke="#d27955" stroke-miterlimit="10" stroke-width="1.522" fill-rule="evenodd"/>
      <path id="Trazado_194085" data-name="Trazado 194085" d="M341.244,525.537c-3.715,1.953-7.422,3.966-11.675,4.521-5.6.732-11.207,1.365-16.813,2.022-.932.109-2.209.443-2.442-.791s1.132-1.249,1.96-1.494c5.238-1.548,10.662-1.8,16.06-2.2a26.2,26.2,0,0,0,7.69-1.659,28.183,28.183,0,0,1,5.055-1.005Z" transform="translate(-289.405 -512.437)" fill="#afafaf" stroke="#d27955" stroke-miterlimit="10" stroke-width="1.522" fill-rule="evenodd"/>
      <path id="Trazado_194086" data-name="Trazado 194086" d="M444.657,522.964c-1.3,4.04-8.926,9.308-14.246,9.711.3-.476.522-.847.767-1.2q2.963-4.28,5.936-8.553c1.15-1.652,1.8-1.877,3.771-1.281,1.151.348,2.293.723,3.436,1.1A1.449,1.449,0,0,1,444.657,522.964Z" transform="translate(-354.034 -510.503)" fill="#afafaf" stroke="#d27955" stroke-miterlimit="10" stroke-width="1.522" fill-rule="evenodd"/>
      <path id="Trazado_194087" data-name="Trazado 194087" d="M316.376,510.122c-1.863.33-3.665.649-5.466.969-4.558.812-9.153,1.461-13.659,2.5a79.849,79.849,0,0,0-8.388,2.867,4.4,4.4,0,0,1-1.16.434c-.4.014-1.105-.169-1.141-.363a2.37,2.37,0,0,1,.289-1.456c.146-.268.608-.411.956-.515,5.9-1.746,11.78-3.578,17.727-5.157a45.59,45.59,0,0,1,6.751-.79,7.425,7.425,0,0,0,.959-.117C315.046,508.05,315.428,508.223,316.376,510.122Z" transform="translate(-276.626 -503.481)" fill="#afafaf" stroke="#d27955" stroke-miterlimit="10" stroke-width="1.522" fill-rule="evenodd"/>
      <path id="Trazado_194088" data-name="Trazado 194088" d="M375.316,522.91c-.976,1.564-1.833,3.22-2.95,4.677-4.267,5.555-8.625,11.04-12.93,16.566-.885,1.135-1.829,1.993-3.662,1.324a13.991,13.991,0,0,1,1.146-1.969c4.246-5.157,8.536-10.278,12.784-15.434,1.207-1.465,2.277-3.044,3.494-4.5a8.393,8.393,0,0,1,1.685-1.225Z" transform="translate(-313.877 -511.045)" fill="#afafaf" stroke="#d27955" stroke-miterlimit="10" stroke-width="1.522" fill-rule="evenodd"/>
      <path id="Trazado_194089" data-name="Trazado 194089" d="M392.292,546.575c.343-.659.522-1.529,1.056-1.945a23.879,23.879,0,0,0,9.263-15.312c.386-2.283.938-4.537,1.4-6.807.129-.639.324-1.311,1.107-.991a1.461,1.461,0,0,1,.628,1.253c-.788,3.9-1.447,7.848-2.568,11.656-1.494,5.074-5.159,8.7-9.013,12.094a4.042,4.042,0,0,1-1.355.486Z" transform="translate(-333.525 -510.556)" fill="#afafaf" stroke="#d27955" stroke-miterlimit="10" stroke-width="1.522" fill-rule="evenodd"/>
      <path id="Trazado_194090" data-name="Trazado 194090" d="M380.838,547.169c4.165-4.09,6.815-9.146,9.4-14.235,1.11-2.19,2.023-4.48,3.075-6.7a12.11,12.11,0,0,1,1.118-1.633l.545.12a6.884,6.884,0,0,1-.018,1.722c-2.147,8.024-6.436,14.842-11.91,20.981C382.284,548.274,381.576,548.217,380.838,547.169Z" transform="translate(-327.362 -512.257)" fill="#afafaf" stroke="#d27955" stroke-miterlimit="10" stroke-width="1.522" fill-rule="evenodd"/>
      <path id="Trazado_194091" data-name="Trazado 194091" d="M444.446,536.677c.806-.447,1.616-.884,2.416-1.341a20.009,20.009,0,0,0,7.553-7.018c.868-1.446,2.1-1.491,3.8-.265.958.693.92,1.608-.155,2.853C454.49,535.031,450.055,537.2,444.446,536.677Z" transform="translate(-361.585 -513.645)" fill="#afafaf" stroke="#d27955" stroke-miterlimit="10" stroke-width="1.522" fill-rule="evenodd"/>
      <path id="Trazado_194092" data-name="Trazado 194092" d="M432.543,518.277a7.759,7.759,0,0,1-.646,1.462c-1.223,1.848-2.494,3.666-3.775,5.475a2.382,2.382,0,0,1-.98.928c-.525.177-1.306.321-1.661.056-.306-.229-.357-1.112-.2-1.6.843-2.542,1.786-5.05,2.7-7.567.389-1.074.794-2.16,2.276-1.915A3.223,3.223,0,0,1,432.543,518.277Z" transform="translate(-351.228 -507.136)" fill="#afafaf" stroke="#d27955" stroke-miterlimit="10" stroke-width="1.522" fill-rule="evenodd"/>
      <path id="Trazado_194093" data-name="Trazado 194093" d="M384.7,529.035c-.188.5-.337,1.021-.572,1.5a74.417,74.417,0,0,1-12.453,18.495,2.86,2.86,0,0,1-.591.579c-.216.121-.6.239-.739.134a1,1,0,0,1-.386-.786,3.553,3.553,0,0,1,.573-1.387q6.668-9.157,13.373-18.287c.132-.179.249-.368.373-.552Z" transform="translate(-321.505 -514.478)" fill="#afafaf" stroke="#d27955" stroke-miterlimit="10" stroke-width="1.522" fill-rule="evenodd"/>
      <path id="Trazado_194094" data-name="Trazado 194094" d="M359.3,535.291c-.792.7-1.608,1.371-2.374,2.1a49.424,49.424,0,0,0-9.3,12.547,6.328,6.328,0,0,1-1.1,1.745c-.366.328-1.039.315-1.576.455-.113-.525-.48-1.174-.294-1.553a37.759,37.759,0,0,1,2.717-4.821,44.293,44.293,0,0,1,10.483-10.425,6.17,6.17,0,0,1,1.244-.55Z" transform="translate(-307.862 -517.736)" fill="#afafaf" stroke="#d27955" stroke-miterlimit="10" stroke-width="1.522" fill-rule="evenodd"/>
      <path id="Trazado_194095" data-name="Trazado 194095" d="M330.277,542.821l-9.265,11.835-2.188-1.19C320.1,550.047,327.635,542.955,330.277,542.821Z" transform="translate(-293.997 -522.06)" fill="#afafaf" stroke="#d27955" stroke-miterlimit="10" stroke-width="1.522" fill-rule="evenodd"/>
      <path id="Trazado_194096" data-name="Trazado 194096" d="M366.078,507.669c-3.641.1-12.046-6.295-12.87-9.7a3.735,3.735,0,0,1,3.415.864q4.391,4.04,8.76,8.1C365.576,507.117,365.747,507.319,366.078,507.669Z" transform="translate(-312.497 -497.882)" fill="#afafaf" stroke="#d27955" stroke-miterlimit="10" stroke-width="1.522" fill-rule="evenodd"/>
      <path id="Trazado_194097" data-name="Trazado 194097" d="M342.344,543.288q-4.189,6.139-8.416,12.332c-.846,1.237-1.043,1.27-2.85.456A33.9,33.9,0,0,1,342.344,543.288Z" transform="translate(-300.59 -522.311)" fill="#afafaf" stroke="#d27955" stroke-miterlimit="10" stroke-width="1.522" fill-rule="evenodd"/>
      <path id="Trazado_194098" data-name="Trazado 194098" d="M379.184,501.591a12.777,12.777,0,0,1,3.282,1.43c2.1,1.737,4.01,3.705,5.99,5.587a11.548,11.548,0,0,1,.747.933,9.125,9.125,0,0,1-2.243-.132,15.007,15.007,0,0,1-8.024-7.247Z" transform="translate(-326.338 -499.877)" fill="#afafaf" stroke="#d27955" stroke-miterlimit="10" stroke-width="1.522" fill-rule="evenodd"/>
      <path id="Trazado_194099" data-name="Trazado 194099" d="M290.552,547.486a3.142,3.142,0,0,1-2.86,2.891,1.8,1.8,0,0,1-2.074-1.731,3.354,3.354,0,0,1,2.949-3A1.821,1.821,0,0,1,290.552,547.486Z" transform="translate(-276.132 -523.579)" fill="#afafaf" stroke="#d27955" stroke-miterlimit="10" stroke-width="1.522" fill-rule="evenodd"/>
      <path id="Trazado_194100" data-name="Trazado 194100" d="M314.506,550.722c-1.49,1.761-2.809,3.488-4.331,5.012-.437.438-1.461.288-2.365.432C308.721,552.992,311.666,550.637,314.506,550.722Z" transform="translate(-288.071 -526.31)" fill="#afafaf" stroke="#d27955" stroke-miterlimit="10" stroke-width="1.522" fill-rule="evenodd"/>
      <path id="Trazado_194101" data-name="Trazado 194101" d="M299.732,550.059l-2.23,4.92c-2.182-.761-2.437-1.548-1.123-3.195A3.758,3.758,0,0,1,299.732,550.059Z" transform="translate(-281.49 -525.952)" fill="#afafaf" stroke="#d27955" stroke-miterlimit="10" stroke-width="1.522" fill-rule="evenodd"/>
      <path id="Trazado_194102" data-name="Trazado 194102" d="M281.357,539.922c-.055,1.21-2.247,2.9-3.278,2.641a1.049,1.049,0,0,1-.66-1.7,9.977,9.977,0,0,1,2.564-1.833C280.732,538.671,281.308,539.143,281.357,539.922Z" transform="translate(-271.577 -519.954)" fill="#afafaf" stroke="#d27955" stroke-miterlimit="10" stroke-width="1.522" fill-rule="evenodd"/>
      <path id="Trazado_194103" data-name="Trazado 194103" d="M265.083,523.393a20.3,20.3,0,0,1,3.54-.711c.4-.011.83.8,1.246,1.234-.418.294-.806.773-1.26.846A3.375,3.375,0,0,1,265.083,523.393Z" transform="translate(-265.083 -511.225)" fill="#afafaf" stroke="#d27955" stroke-miterlimit="10" stroke-width="1.522" fill-rule="evenodd"/>
      <path id="Trazado_194104" data-name="Trazado 194104" d="M400.512,509.964c-1.191-1.3-2.154-2.342-3.106-3.394-.206-.228-.375-.492-.6-.789C399.2,505.689,400.46,507.027,400.512,509.964Z" transform="translate(-335.955 -502.129)" fill="#afafaf" stroke="#d27955" stroke-miterlimit="10" stroke-width="1.522" fill-rule="evenodd"/>
      <path id="Trazado_194105" data-name="Trazado 194105" d="M417.078,509.652c.615.308,1.4.482,1.785.971.248.316.008,1.138-.212,1.647a1.266,1.266,0,0,1-1,.553c-.223,0-.561-.468-.645-.78a16.973,16.973,0,0,1-.313-2.01Z" transform="translate(-346.654 -504.214)" fill="#afafaf" stroke="#d27955" stroke-miterlimit="10" stroke-width="1.522" fill-rule="evenodd"/>
      <path id="Trazado_194106" data-name="Trazado 194106" d="M272.61,534.687c.8-1.225,1.582-2.335,3.165-2.39a1.279,1.279,0,0,1,.7.245.505.505,0,0,1-.028.468c-1.063.7-2.139,1.39-3.236,2.04C273.122,535.1,272.854,534.841,272.61,534.687Z" transform="translate(-269.133 -516.398)" fill="#afafaf" stroke="#d27955" stroke-miterlimit="10" stroke-width="1.522" fill-rule="evenodd"/>
      <path id="Trazado_194107" data-name="Trazado 194107" d="M409.253,508.931c1.553.747,1.294,2.056.941,3.4Q409.723,510.633,409.253,508.931Z" transform="translate(-342.65 -503.826)" fill="#afafaf" stroke="#d27955" stroke-miterlimit="10" stroke-width="1.522" fill-rule="evenodd"/>
    </g>
    <path id="Trazado_194108" data-name="Trazado 194108" d="M591.833,186.759c-3.144-.786,20.386,46.046,21.089,47.8s31.986,11.248,34.8,11.6,8.084-4.569,6.678-9.49S643.15,220.5,642.8,219.447s-1.757-6.678-5.975-9.49S608.7,191.328,606.6,190.274,593.238,187.11,591.833,186.759Z" transform="translate(-230.759 -16.66)" fill="#ff9d00" fill-rule="evenodd"/>
    <path id="Trazado_194109" data-name="Trazado 194109" d="M246.814,305.255c1.33-2.736,2.634-5.2,5.278-6.518-.745-1.212-1.54-1.347-2.592-.5-2.209,1.767-2.639,1.8-5,.3-3.8-2.41-7.592-4.836-11.4-7.228a2.155,2.155,0,0,0-1.567-.28c1.859,1.842,3.776,3.629,5.564,5.538,3.014,3.218,2.208,7.016-1.845,8.693-1.967.814-4.011,1.443-6.028,2.133-.733.25-1.263.583-.951,1.628,1.779-.171,3.576-.285,5.354-.533a4.023,4.023,0,0,1,4.08,1.8,11.686,11.686,0,0,1,2.029,9.112,3.046,3.046,0,0,1-1.391,1.921c-7.483,4-15.294,5.55-23.606,2.861-3.969-1.284-6.4-3.492-7.352-6.726,1.733-1.922,3.638-2.55,6.2-1.452,2.847,1.221,5.847,2.093,8.8,3.068,2.138.707,3.4.492,4.586-.787-8.09-1.288-13.762-6.008-18.181-12.535l-.423.056c-.067.6-.149,1.2-.191,1.8-.012.175.134.357.134.535,0,.839,1.18,1.685.067,2.5a3.585,3.585,0,0,1-3.923.537,4.681,4.681,0,0,1-1.938-1.886,41.29,41.29,0,0,1-4.383-22.916c.249-2.438,1.088-3.043,3.521-2.7a14.4,14.4,0,0,1,3.249.726,7.786,7.786,0,0,1,1.832,1.455c.293.243.583.491.874.737.243-.346.678-.68.7-1.039q.234-3.75.3-7.508a4.536,4.536,0,0,0-.486-1.425l-.369.025-1.271,3.744c-2.758-.876-5.5-1.573-8.094-2.624a4.955,4.955,0,0,1-3.087-5.042c.219-5.433.731-10.832,3.057-15.876.529-1.146,1.3-1.553,2.45-1.035,2.905,1.314,5.947,2.393,7.882,5.242.311.459,1.409.569,2.129.535a42.271,42.271,0,0,1,12.982,1.112c.492.132.979.286,1.471.423a5.378,5.378,0,0,1,4.232,4.927c.11.917.375,1.815.569,2.721l.52-.059c0-.419.017-.838,0-1.255a6.205,6.205,0,0,1,2.665-5.816c5.119-3.34,10.191-6.855,16.357-8.072,3.438-.678,6.67-.316,9.273,2.372q3.772,3.9,7.535,7.8c1.09,1.139,2.108,2.348,3.212,3.472a5.747,5.747,0,0,1,1.4,6.39,8.913,8.913,0,0,1-6.6,5.989c-4.178,1.06-8.381,2.02-12.565,3.054-.693.171-1.639.218-1.383,1.554,8.024-.781,16.065-3.282,23.972.646q.079-.21.157-.42c-.692-.884-1.337-1.809-2.085-2.643a3.741,3.741,0,0,1-.766-4.583c.336-.658.57-1.369.893-2.034,1.4-2.879,2.683-3.562,5.9-2.982,3.1.559,6.212,1.1,9.267,1.862,6.379,1.59,12.726,3.313,19.08,5a15.257,15.257,0,0,1,1.943.746,3.766,3.766,0,0,1,2.533,4.167c-.045.483-.007.973-.007,1.753,1.121-.923,2.067-1.644,2.945-2.442a2.46,2.46,0,0,1,2.693-.546c10.029,3.593,20.09,7.1,30.068,10.823a78.711,78.711,0,0,1,9.1,4.459,19.042,19.042,0,0,1,9.213,11.055c.219.63.481,1.246.723,1.868l.406-.038c0-.894-.015-1.788,0-2.682a5.505,5.505,0,0,1,3.8-5.43c1.512-.586,3.028-1.161,4.537-1.755.393-.154.768-.357,1.151-.538l-.109-.45a12.157,12.157,0,0,0-2.084.227,15.766,15.766,0,0,1-12.457-1.634c-4.82-2.677-9.8-5.066-14.623-7.738a32.892,32.892,0,0,0-11.091-3.793,24.963,24.963,0,0,1-13.849-6.584c-.457-.438-1.115-.659-1.616-1.059-1.068-.854-2.079-1.778-3.145-2.635-.474-.381-1.085-1.022-1.53-.946-5.774,1-11.237-.588-16.74-1.876-7.079-1.657-14.18-3.226-21.218-5.038a13.739,13.739,0,0,1-4.828-2.6A64.573,64.573,0,0,1,260.1,254.538a18.407,18.407,0,0,1-3.238-11.965c.095-2.039.245-4.076.359-6.114a2.21,2.21,0,0,0-.321-1.408,11.857,11.857,0,0,0-.677,1.537c-1,3.477-2,6.952-2.923,10.448a7.505,7.505,0,0,1-4.3,5.138c-6.038,2.85-12.047,5.764-18.091,8.6a4.292,4.292,0,0,1-2.261.407c-4.778-.644-9.541-1.4-14.314-2.081a2.292,2.292,0,0,1-2.215-2.239,13.573,13.573,0,0,0-.944-3.821l-1.331,3.664c-2.541-.235-5.4-3.09-5.919-6.115a8.991,8.991,0,0,1,.064-3.848,61.611,61.611,0,0,1,2.969-8.648c2.007-4.441,10.046-6.866,14.161-1.391a1.944,1.944,0,0,1,.15,2.513c-.93,1.507-1.76,3.077-2.632,4.62l.314.2a2.873,2.873,0,0,0,.419-.305c3.781-3.945,8.488-4.615,13.6-3.852a5.98,5.98,0,0,1,3.8,2.386,9.328,9.328,0,0,0,1.757,1.829c-.041-.713-.064-1.429-.125-2.14-.477-5.608,1.045-10.844,3.079-15.953,2.991-7.512,7.405-13.986,14.012-18.84a4.04,4.04,0,0,1,3.92-.63,55.413,55.413,0,0,0,7.258.984c1.305.171,2.6.406,4,.626-.238.85-.393,1.407-.546,1.952.148.063.247.144.3.121,6.571-3.019,13.589-3.041,20.59-2.937,2.977.044,5.1,1.739,6.378,4.458a18.492,18.492,0,0,1,1.745,8.23c-.012.832,0,1.664,0,2.239,1.524-.77,3.068-1.92,4.787-2.316,1.782-.411,3.733-.091,6-.091-1.458-.62-2.6-1.2-3.794-1.591a7.1,7.1,0,0,1-3.763-3.091c-2.421-3.62-4.956-7.167-7.566-10.653-1.04-1.389-2.284-2.591-1.859-4.716l-1.613.277c-.28,3.792-1.413,4.85-5.274,5.31a87.248,87.248,0,0,1-27.675-1.424,52.988,52.988,0,0,1-6.65-2.284l1.753,3.219a40.173,40.173,0,0,0-9.151,9.093,50.2,50.2,0,0,0-8.723,19.833,2.349,2.349,0,0,1-1.987,2.126c-3.24.7-6.455.862-9.55-.556-3.748-1.717-4.849-4.728-3.166-8.472.33-.735.714-1.447,1.073-2.17l-.384-.229c-.975,1.572-2.039,3.1-2.9,4.731a2.818,2.818,0,0,1-2.867,1.714c-3.338-.076-4.9-2.418-3.091-5.193,4.763-7.321,10.7-13.291,19.463-15.717,2.587-.716,2.584-.724,4.495,1.22a18.288,18.288,0,0,1,7.35-6.717l-.227-.567-5.175.951c-.757-1.4-.527-2.731,1.032-3.906a81.685,81.685,0,0,1,7.845-5.511c4.761-2.781,9.63-5.389,14.546-7.89a12.773,12.773,0,0,1,11.061-.244c1.557.654,2.863,1.9,4.589,3.09l2.607-1.224-8.527-5.323a6.014,6.014,0,0,1,.864-.978c5.73-4.061,12.012-6.385,19.136-5.863a9.45,9.45,0,0,1,6.794,3.646c6.036,7.35,12.185,14.616,17.127,22.787a11.615,11.615,0,0,0,3.8,3.548,30.5,30.5,0,0,1,4.8,4.322,2.58,2.58,0,0,1,.038,3.631c5.479,2.23,6.548,7.227,7.85,12.038a28.02,28.02,0,0,1,.382,3.311,9.871,9.871,0,0,1-.744,5.7,6.876,6.876,0,0,0-.312,1.145l.359.237c.306-.413.791-.787.889-1.244a18,18,0,0,1,4.165-8.338c-6.313-7.726-6.882-9.468-5.631-17.515-2.124.633-3.341-.875-4.773-1.917-2.437-1.776-4.894-3.526-7.307-5.335-4.188-3.141-6.853-7.516-9.373-11.952a5.18,5.18,0,0,1,.729-6.447,21.324,21.324,0,0,0,2.3-3.116c-2.462.448-4.179,2.229-6.188,3.394-2.216-1.493-2.746-3.618-1.347-5.931a16.44,16.44,0,0,1,9.31-7.336c6.8-2.147,13.789-3.2,20.865-1.956,4.235.743,8.346,2.112,12.639,2.765,2.1.319,4.033,1.743,6.214,2.746l-1.563,1.743a11.312,11.312,0,0,1,2.618.235c6.536,2.324,11.744,6.1,13.892,13.089a6.381,6.381,0,0,1-.467,5.134c-1.479,2.619-3.016,5.216-4.7,7.7a4.346,4.346,0,0,1-5.295,1.688c-2.436-.761-4.909-1.421-7.291-2.325a6.245,6.245,0,0,1-2.73-1.968c-3.1-4.226-6.056-8.555-9.063-12.847a12.125,12.125,0,0,1-1.971-7.675,1.819,1.819,0,0,0-.528-1.321c-.19,1.257-.3,2.533-.588,3.768A3.044,3.044,0,0,1,333.638,185c-3.138.227-6.268.555-9.442.845.032,1.392.725,1.771,1.986,1.6,1.561-.208,3.136-.34,4.709-.431a11.339,11.339,0,0,1,10.192,4.653c2.488,3.272,4.591,6.77,4.891,11.036.065.932.547,1.32,1.474,1.517q4.278.911,8.512,2.027a4.607,4.607,0,0,1,3.53,3.917c1.381,8.7,1.261,17.208-3.75,24.965-.754,1.168-1.54,2.323-2.2,3.543a5.924,5.924,0,0,1-4.956,3.114c-1.322.142-2.646.258-3.628.353l13.734,3.853c-.965-.882-1.646-1.516-2.339-2.136-1.617-1.444-1.779-2.265-.739-4.113.931-1.657,1.858-3.317,2.849-4.938a2.987,2.987,0,0,1,3.769-1.592c10.449,2.727,20.939,5.313,31.073,9.119a7.149,7.149,0,0,1,4.81,5.152,35.578,35.578,0,0,1,.912,4.489c.444,3.825-.338,7.265-3.287,10.03a18.023,18.023,0,0,0-2.929,3.74c1.286-.688,2.616-1.307,3.849-2.079a9.351,9.351,0,0,1,7.08-1.222q3.269.662,6.506,1.476c2.308.581,3.032,1.536,3.119,3.943a17.5,17.5,0,0,0,.153,2.475c2.752-3.031,5.6-5.936,6.293-10.113l-.381-.343a6.03,6.03,0,0,0-1.13.923,4.043,4.043,0,0,1-4.53,1.639c-3.1-.76-6.215-1.5-9.292-2.353a2.649,2.649,0,0,1-1.493-1.3,24.538,24.538,0,0,1-2.15-13.281,7.194,7.194,0,0,1,2.819-4.933q1.111-.9,2.218-1.81l-.151-.34a9.743,9.743,0,0,0-1.419.45,12.9,12.9,0,0,1-9.478.771q-13.464-3.769-26.943-7.483c-1.16-.322-2.336-.591-3.5-.915a2.24,2.24,0,0,1-1.832-2.315c.067-6.072.107-12.145.293-18.214a6.872,6.872,0,0,1,1.137-3.09c2.409-4.017,4.854-8.016,7.4-11.95a13.1,13.1,0,0,1,12.226-6.353,27.659,27.659,0,0,1,5.632.7,8.383,8.383,0,0,1,5.6,4.853c-1.7,0-3.429-.008-5.153.018-.112,0-.22.265-.475.595.54.215.97.412,1.415.56,1.672.555,3.4.978,5.015,1.662A15.814,15.814,0,0,1,403.9,206a5.012,5.012,0,0,1-.1,4.69c-.924,1.713-1.834,3.437-2.8,5.126a2.78,2.78,0,0,1-3.333,1.571c-1.85-.417-3.753-.608-5.637-.866a15.239,15.239,0,0,1-7.033-2.422,9.466,9.466,0,0,0-1.209-.558,9.859,9.859,0,0,1,1.018,8.6l.346.194c.639-.713,1.288-1.416,1.914-2.14a5.131,5.131,0,0,1,4.868-1.758A33.09,33.09,0,0,1,408.25,225c1.547,1.2,2.293,1.259,3.881.106a18.5,18.5,0,0,1,6.9-3.167,8.774,8.774,0,0,1,8.488,2.271c3.549,3.411,7.045,6.87,9.247,11.394a24.167,24.167,0,0,0,1.95,2.9l.633-.206c-.112-1.288-.3-2.576-.316-3.866a18.492,18.492,0,0,1,.251-3.821,1.216,1.216,0,0,1,2.12-.723,10.439,10.439,0,0,1,2.381,2.633c2.93,4.964,4.135,10.46,4.836,16.117.462,3.724,1.189,7.415,1.688,11.136a43.868,43.868,0,0,1-1.165,17.653,90.467,90.467,0,0,1-3.606,10.661c-3.1,7.431-13.2,12.272-20.564,9.944.117-1.153.237-2.344.358-3.535l-.3-.077c-.323.591-.634,1.19-.972,1.772a5.778,5.778,0,0,1-6.307,3.046c-2.343-.322-4.726-.458-7.02-.986a9.193,9.193,0,0,1-3.72-1.916c-1.4-1.187-1.379-2.062-.479-3.818-1.834.207-3.593.365-5.339.616a4.282,4.282,0,0,1-3.821-1.215c-2.636-2.591-5.253-5.2-7.891-7.819l2.628-1.136c-2.4-.291-4.4-.5-6.4-.786a9.646,9.646,0,0,1-7.113-4.6c-1.016-1.607-2.09-3.178-3.072-4.805-1.262-2.09-1.07-3.111.764-4.7.381-.331.768-.656,1.434-1.224-2.108.43-3.861.848-5.635,1.137-3.812.621-5.673-.328-7.5-3.724-.326-.6-.638-1.216-1.112-2.119-.24,1.141-.414,1.974-.644,3.065-4.037-.707-8.081-1.209-12.014-2.171a65.744,65.744,0,0,1-9.156-3.2q-10.864-4.447-21.637-9.117c-3.011-1.3-5.911-2.862-8.857-4.314-1.622-.8-2.91-1.862-2.819-4.229-2.7,3.066-5.977,2.793-9.273,2.456-1.983-.2-3.982-.3-5.95-.6a14.586,14.586,0,0,1-12.659-12.7,42.53,42.53,0,0,1-.161-5.4c-.016-.811,0-1.622,0-2.433l-.36-.053c-.747,2.782-1.425,5.586-2.269,8.338a4.656,4.656,0,0,0,1.02,4.629c1.57,1.951,2.971,4.042,4.583,5.955a2.438,2.438,0,0,1,.119,3.46c-1.481,2.076-2.833,4.243-4.236,6.375a2.624,2.624,0,0,0-.513,1.409,6.171,6.171,0,0,0,.965-.493c1.412-1.057,2.852-2.081,4.194-3.222,3.123-2.655,6.748-3.239,10.749-3.339,7.851-.2,14.669,3.138,21.778,5.616,8.776,3.059,17.1,7.127,25.466,11.1,2.843,1.348,4.605,3.4,4.3,6.764a1.362,1.362,0,0,0,.034.414,1.514,1.514,0,0,0,.186.316,2.3,2.3,0,0,0,.548-.293c3.349-3.194,7.357-3.844,11.64-2.7a37.379,37.379,0,0,1,17.6,9.907A18.7,18.7,0,0,1,380.915,286a33.7,33.7,0,0,0,1.524,3.832l.364-.05c.154-.957.308-1.914.493-3.064a16.609,16.609,0,0,1,2.656,1.249,37.467,37.467,0,0,1,4,3.21c2.608,2.434,3.887,5.217,2.787,8.963-1.094,3.723-1.566,7.626-2.606,11.368-3.384,12.171-11.123,19.963-23.43,23.3-17.567,4.761-34.242,2.439-50.022-6.264a39.153,39.153,0,0,0-12.646-4.286c-11.29-1.915-22.56-3.95-33.864-5.766-3.281-.527-6.666-.375-9.985-.721a71.012,71.012,0,0,1-9.606-1.437c-5.157-1.27-8.551-4.55-9.52-9.91a9.43,9.43,0,0,1,.293-3.815c.322-1.295,1.258-1.58,2.517-1.06A5.022,5.022,0,0,1,246.814,305.255Zm80.923,1.543a3.69,3.69,0,0,1-.481.089,99.684,99.684,0,0,1-33.264-4.836c-4.413-1.38-8.476-3.538-11.365-7.387a4.026,4.026,0,0,0-.79-.633l-.388.238c.5,1.194.981,2.4,1.5,3.581.928,2.112.719,3.144-1.014,4.665-.668.586-1.357,1.147-2.036,1.719a1.836,1.836,0,0,0,1.319.176,31.732,31.732,0,0,1,16.62.515A152.554,152.554,0,0,0,322,309.386a41.3,41.3,0,0,1,9.631,1.878c5.521,1.99,10.845,4.525,16.268,6.795a9.207,9.207,0,0,1,4.957,4.012,1.924,1.924,0,0,0,.47.526l2.623-6.081a10.819,10.819,0,0,1-6.875-.862c-4.6-2.065-9.18-4.191-13.879-6.008a13.129,13.129,0,0,1-6.8-5.419c-.236-.382-.476-.762-.733-1.173C327.055,303.831,327.055,303.831,327.737,306.8Zm107.273-40.466c.752-.475,1.229-.832,1.753-1.1a1.7,1.7,0,0,0,.881-2.676,11.75,11.75,0,0,1-.7-2.533,26.144,26.144,0,0,0-5.792-11.4,2.658,2.658,0,0,1-.582-3.149c.513-1.211.955-2.451,1.428-3.678l-.276-.192-4.831,3.972C432.118,251.444,435.241,258.082,435.009,266.333Z" transform="translate(-17.56 -7.21)" fill="#ff9d00" fill-rule="evenodd"/>
    <path id="Trazado_194110" data-name="Trazado 194110" d="M447.429,385.43c-1.054-1.757-7.732-8.084-8.787-10.193s-5.624.351-6.327-2.812-9.139-11.248-9.842-12.3-10.9-4.218-12.653-4.569-13.357-2.812-13.656-3.608-30.281-13.263-34.5-13.966-19.332-7.03-29.174,2.109-24.253-1.758-22.5,3.163c1.715,4.8,4.435,6.6,7.412,11.454.512.49,1.057.972,1.65,1.443a11.55,11.55,0,0,1,3.564,4.412c1.26,1.023,1.928,1.5,1.082,1.671a2.315,2.315,0,0,0-.531.186,7.516,7.516,0,0,1-4.488,8.217c-2.042.743-15.423,3.5-12.26,4.032.905.151-4.187-.786-6.415,5.229-1.757,4.745,2.429,8,1.725,8.523-3.508,2.631-7,1.833-9.974-.038a14.1,14.1,0,0,1-.726,2.868c-.221,2.254-.4,4.458-.552,5.982a13.078,13.078,0,0,0,2.466,5,9.389,9.389,0,0,1,2.635,2.181l63.269,12.3,16.521,8.047s4.217-2.423,4.568-1.368-2.46,4.569,1.406,4.921,10.9,1.406,16.872,1.757,32.689-6.678,35.149-9.139,9.138-13.357,10.9-18.629S448.483,387.187,447.429,385.43Z" transform="translate(-68.781 -96.527)" fill="#81d4fa"/>
    <path id="Trazado_194111" data-name="Trazado 194111" d="M339.082,237.758s-5.976-12.888-8.787-16.52a92.82,92.82,0,0,0-7.733-7.733s-11.6-16.169-13.005-17.926-5.624-6.327-6.678-8.436-8.085-4.745-21.441-1.23c-.856.225-13.382,6.754-14.938,7.205-9.1,2.642-10.9,7.381-25.307,14.763-2.606,1.334-.387,5.607-2.46,7.205-5.335,4.112-13.488,5.894-15.466,8.436-7.381,9.49-9.49,7.732-10.9,16.52s-7.733,9.842-9.372,11.25c-.97.833,1.548,1.958,2.491,2.719,1.336-3.5,4.142-9.179,4.142-9.179,2.116-3.063,3.493-4.008,5.44-4.063s11.314.779,11.9,3.526,11.661,1.692,13.242,4.328,6.854,7.908,6.327,15.816c0,0,3.32-2.605,9.024-1.511,7.912,1.517,9.479,6.973,14.692,11.569q-.383-.338-.742-.681c-2.977-4.853-5.7-6.652-7.412-11.454-1.757-4.921,12.654,5.976,22.5-3.163s24.956-2.812,29.174-2.109c2.5.416,14.028,4.957,23.081,8.758.073-.623-3.163-2.43-3.163-2.43-3.911-2.07-.937-17.692,2.46-18.512C336.153,244.9,337.625,240.793,339.082,237.758Z" transform="translate(-21.593 -15.287)" fill="#00bcd4" fill-rule="evenodd"/>
    <g id="ZdJeyv" transform="translate(173.972 172.149)" opacity="0.3" style="mix-blend-mode: multiply;isolation: isolate">
      <g id="Grupo_158479" data-name="Grupo 158479" transform="translate(0 0)">
        <path id="Trazado_194112" data-name="Trazado 194112" d="M451.836,295.921c-1.768-1.094-2.663-.59-2.8,1.519-.077,1.23-.342,2.452-.354,3.679-.017,1.876.524,2.434,2.6,2.781-.2,1.622-.41,3.26-.6,4.9a33.523,33.523,0,0,1-7.568,17.985c-4.508,5.394-10.365,7.39-17.306,6.782-7.011-.614-14.04-1.028-21.063-1.515-1.857-.129-3.719-.175-5.575-.311-1.929-.142-2.617.195-3.3,2.089-1.394,3.873-2.71,7.773-4.052,11.663-1.752,5.078-3.629,10.089-6.924,14.432-5.326,7.018-12.568,10.912-20.987,12.817a70.118,70.118,0,0,1-23.657,1c-2.976-.345-5.839-1.725-8.733-2.694-1.751-.587-3.463-1.293-5.33-2-.391,2.527-1.963,3.681-4.228,4.09a1.265,1.265,0,0,0-.682.388c-1.261,1.464-2.935,1.466-4.652,1.375s-3.446-.209-5.17-.224c-5.847-.05-11.518-1.324-17.18-2.547a98.581,98.581,0,0,0-25.363-1.843c-8.1.359-15.957,2.132-23.9,3.449-4.627.768-9.229,1.678-13.859,2.423-2.97.477-5.784-1.114-5.863-4.378a4.328,4.328,0,0,0-1.443-3.15,7.912,7.912,0,0,1-2.239-6.96,3.129,3.129,0,0,1,4.714-2.346c.379.215.729.482,1.24.824l1.8-4.355c-1.137.541-2.41-.01-3.064,1.3-.073.146-.268.348-.387.336-1.612-.17-2.707,1.249-4.127,1.388a7.56,7.56,0,0,1-3.426-.706c-.426-.176-.544-1.1-.765-1.6-2.782-.322-5.726-.551-8.625-1.044a28.109,28.109,0,0,1-4.937-1.534c-4.924-1.822-5.9-4.97-2.828-9.271-3.825-2.8-7.574-5.739-10.012-9.916a40.409,40.409,0,0,1-2.084-4.931c2.364-.057,2.727-.6,2.061-2.691-.119-.372-.014-.836-.188-1.165-.331-.625-.669-1.482-1.22-1.7a1.235,1.235,0,0,1-.9-1.609c.322-1.646.689-3.281,1.044-4.92.083-.385.4-.932.246-1.123-1.019-1.293-.285-2.856-.742-4.2a3.113,3.113,0,0,1,1.187-3.616,4.738,4.738,0,0,0,.385-.419l-3.815-4.47v-1.6c.294-1.961.575-3.923.888-5.88a14.612,14.612,0,0,1,.79-3.085c.062.31.124.62.206,1.031.159-.142.273-.2.316-.289,1.427-2.994,2.828-6,4.286-8.977.213-.435.7-1.053,1.048-1.048,1.348.016,1.195-.823,1.4-1.731a10.754,10.754,0,0,1,1.437-3.181c.257-.414.972-.542,1.715-.921a38.114,38.114,0,0,1,.735-4c.661-2.333,1.116-4.848,2.357-6.854,1.029-1.665,3.057-2.717,4.668-4.008.167-.134.516-.088.772-.055,2.158.272,4.314.56,6.471.843l.15-.421c-.537-.207-1.077-.408-1.612-.62a31.615,31.615,0,0,1-3.766-1.542,2.54,2.54,0,0,1-1.241-2.905,10.8,10.8,0,0,0,8.442-1.027c.182.141.3.185.31.25.695,3.505,3.61,5.591,7.8,5.164a33.231,33.231,0,0,1,3.325-.061,1.847,1.847,0,0,0,1.981-1.4c.723-2.186,1.538-4.341,2.306-6.512,1.53-4.326,3.347-8.468,6.546-11.905,1.6-1.714,2.91-3.691,4.335-5.562a31.936,31.936,0,0,1,7.787-7.192,2.4,2.4,0,0,1,1.809-.235,49.913,49.913,0,0,0,30.487-.065c1.087-.34,2.255-.408,3.361-.7a4.678,4.678,0,0,0,1.133-.747c1.069-.686,2.144-1.362,3.555-2.257,1.623,8.544,5.359,15.958,10.126,23.015a2.453,2.453,0,0,1-3.033-.2,6.993,6.993,0,0,1-2.11-3.105,18.623,18.623,0,0,0-2.665-4.2c-.742-1.039-1.606-1.992-2.421-2.978-.166-.2-.362-.549-.534-.544-2.193.073-3.87-1.942-6.3-1.3-2.115.561-4.416.388-6.578.823a46.486,46.486,0,0,1-19.507-.45,15.908,15.908,0,0,0-7.43.276c-2.131.516-3.156,1.8-4.386,3.132-5.243,5.674-8.248,12.545-10.505,19.805-.51,1.64-.938,3.3-1.446,4.945a4.731,4.731,0,0,1-4.214,2.762c-1.145-.07-2.3-.039-3.438-.146-2.276-.213-4.545-.489-6.83-.741.079.354.249.934.335,1.526.188,1.3-.747,2.091-1.953,1.574a4.134,4.134,0,0,1-1.621-1.293c-2.534-3.442-5.653-3.7-9.744-2.286a3.2,3.2,0,0,0-1.617,1.295,20.373,20.373,0,0,0-2.274,4.745,60.817,60.817,0,0,0-1.341,7.849c-.195,1.547,1.147,2.457,2.676,1.992,2.591-.788,3.649-.365,5.1,1.861a3.828,3.828,0,0,0,1.46,1.237c4.349,2.183,8.92,1.934,13.533,1.154a63.2,63.2,0,0,0,14.5-4.3,19.3,19.3,0,0,0,10.312-10.083c.96-2.133,1.861-4.293,3.007-6.411-.142,1.771-.2,3.552-.443,5.31a13.93,13.93,0,0,0,1.864,9.337A42.762,42.762,0,0,0,271.8,297.369a59.26,59.26,0,0,0,19.4,5.317c4.129.488,8.241,1.127,12.364,1.668,1.4.184,2.82.3,4.234.4a11.591,11.591,0,0,1,6.7,2.618,85.14,85.14,0,0,0,11.812,8.143,57.024,57.024,0,0,0,15.948,5.752c7.78,1.773,15.127,4.446,21.677,9.107,1.544,1.1,3.194,2.049,4.808,3.075-1.9.976-3.711,1.939-5.561,2.823a1.457,1.457,0,0,1-1.085-.2c-8.55-4.664-15.192-9.74-24.385-12.915-5.308-1.834-12.841-3.833-18.043-5.975-1.719-.708-3.337-1.247-5.038-1.992-1.124-.492-2.213-.206-3.34-.687q-5.009-2.136-10.088-4.113c-6.752-2.633-13.834-3.75-21-4.458-2.116-.209-4.233-.412-6.343-.663a6.87,6.87,0,0,1-4.592-2.555c-1.579-1.825-3.621-3.241-5.388-4.914-1.665-1.576-3.243-3.244-4.841-4.891-1.2-1.238-2.419-2.465-3.543-3.771-1.309-1.521-2.524-3.124-3.631-4.506-1.262.3-2.421.579-3.584.837a63.175,63.175,0,0,0-16.052,5.845c-.131-.514-.243-.955-.382-1.5a3.167,3.167,0,0,0-2.069,2.353c-.093.3-.146.688-.359.85a70.845,70.845,0,0,1-5.828,4.045l3.068-3.477a59.539,59.539,0,0,0-7.167-1.948c-3.5-.5-7.05-.586-10.573-.91a7.791,7.791,0,0,1-2.38-.627c-2.635-1.157-5.24-2.384-7.852-3.594a1.289,1.289,0,0,0-1.956.654c-2.17,4.284-3.81,8.677-3.278,13.621a3.225,3.225,0,0,0,1.874,2.951c2.462,1.1,4.878,2.325,7.4,3.261a2.034,2.034,0,0,1,1.548,2.407,27.826,27.826,0,0,0-.734,10.534c.01.068-.078.151-.206.382-1.054,0-2.2.046-3.335-.016-.8-.042-1.339.207-1.44,1-.21,1.661-.447,3.328-.492,5a2.979,2.979,0,0,0,1.942,2.88,59.181,59.181,0,0,0,15.223,5.447,31.34,31.34,0,0,0,14.321-1.1,1.4,1.4,0,0,0,.794-1.091,9.393,9.393,0,0,0-.93-2.947c-1.4-2.5-2.936-4.934-4.508-7.541,1.329-.6,2.388-1.128,3.493-1.531.257-.093.748.162,1,.4a26.058,26.058,0,0,0,15.082,7.225c1.055.119,1.418.485,1.493,1.64.228,3.543,2.323,5.848,5.445,7.268a38.224,38.224,0,0,0,10.922,2.72c2.537.34,5.039.942,7.571,1.332,5.206.8,10.449,1.388,15.625,2.343,6.263,1.154,12.51,2.449,18.7,3.96,5.628,1.375,11.16,3.139,16.743,4.7,5.489,1.534,10.99,3.025,16.483,4.543a19.818,19.818,0,0,1,3.03.927c12.453,5.732,24.672,5.427,36.43-1.742,3.887-2.37,6.4-6.2,8.349-10.313.413-.873.688-1.318,1.831-1,2.3.638,4.287-.823,5.177-3.25,1.65-4.5.73-8.641-1.558-12.6a17.935,17.935,0,0,0-2.838-3.991,3.384,3.384,0,0,1-.861-4.069c.342-.885.128-1.332-.669-1.819-1.89-1.154-3.57-2.789-5.591-3.56-2.948-1.124-4.44-3.723-6.638-5.581a44.537,44.537,0,0,0-11.263-7.469,2.61,2.61,0,0,1-.8-.456c-3.468-3.331-7.875-4.434-12.4-5.249a6.881,6.881,0,0,0-1.974-.237c-2.675.325-4.815-.9-7.113-2.016-6.816-3.308-13.658-6.593-20.655-9.488a75.1,75.1,0,0,0-11.62-3.268,143.31,143.31,0,0,0-15.341-3.125c-4.548-.551-8.182-2.645-11.789-5.081-1.176-.794-2.4-1.528-3.532-2.376a20.939,20.939,0,0,1-2.7-2.351c-1.584-1.674-2.389-3.554-1.494-5.933.716-1.9,1.186-3.9,1.841-5.828.13-.384.609-.65.927-.971.258.312.632.583.757.942A22.157,22.157,0,0,0,290.2,270.7a24.991,24.991,0,0,0,10.97,1.531,3.313,3.313,0,0,1,1.751.322,180.477,180.477,0,0,0,24.758,11.31,112.826,112.826,0,0,0,24.341,5.943,7.068,7.068,0,0,0,2.351-.259c3.392-.708,5.8.212,7.7,3.054,1.268,1.9,3.22,2.177,5.227,2.234,1.233.035,2.472-.238,3.707-.23,2.523.016,4.165,1.288,4.552,3.771a16.492,16.492,0,0,0,4.621,8.654A5.175,5.175,0,0,0,384,308.81c1.192.054,2.378.245,3.567.366,2.8.285,4.845,2.132,6.669,3.874,2.32,2.215,5,2.736,7.876,2.879,5.446.271,10.9.5,16.351.532a66.157,66.157,0,0,0,15.666-1.863,4.013,4.013,0,0,0,1.912-1.293,99.611,99.611,0,0,0,14.547-23.121c.055-.118.118-.234.323-.635.127.911.221,1.559.305,2.207.091.7.151,1.409.265,2.106.083.514.231,1.018.351,1.526Zm-188.016,53.9c.27.335.292.393.326.4,7.3,1.6,14.6,3.215,21.9,4.783a4.684,4.684,0,0,0,1.627-.178,10.946,10.946,0,0,1,2.675-.438c1.622.159,3.214.607,4.827.887,5.624.979,10.891,3.109,16.236,4.989,2.488.875,4.97,1.763,7.455,2.646l.1-.393C301.668,354.054,282.9,351.925,263.82,349.817Z" transform="translate(-187.163 -210.153)" fill="#bd6456" fill-rule="evenodd" style="mix-blend-mode: multiply;isolation: isolate"/>
        <path id="Trazado_194113" data-name="Trazado 194113" d="M556.942,275.815l-7.255-2.059a76.224,76.224,0,0,0,.991-7.685c.171-4.821.055-9.653.05-14.481a5.489,5.489,0,0,0-.129-.65c-.092-.707-.88-1.447.209-2.085,1.259-.739,2.64-1.185,3.888-.424a2.7,2.7,0,0,1,.727,2.309c-.868,4.416.254,8.535,1.666,12.619a7.3,7.3,0,0,0,1.156,1.917c4.055,5.362,9.593,8.492,15.95,10.183a150.57,150.57,0,0,0,15.787,3.554c2.707.415,5.6-.382,8.407-.64a6.678,6.678,0,0,1,.906-.163c.905.052,1.177.689.669,1.448a22.036,22.036,0,0,0-2.29,3.56c-1.646,3.971-1.6,7.874,1.176,11.4a8.211,8.211,0,0,0,6.267,3.268,35.053,35.053,0,0,1,4.243.224,8.953,8.953,0,0,1,3.154,1.209,2.007,2.007,0,0,1,.673,2.82,54.66,54.66,0,0,1-2.932,5.043,8.512,8.512,0,0,1-2.4,2.225c-1.009.65-1.728.264-2.151-.85-.1-.26-.238-.611-.453-.7-2.809-1.2-5.259-3.251-8.473-3.514a2.659,2.659,0,0,1-1.447-.864,37.27,37.27,0,0,1-2.915-3.268c-1.155-1.5-2.106-2.905-1.219-5.14a7.152,7.152,0,0,0-1.241-6.81,14.728,14.728,0,0,0-3.425-3.663c-1.134-.775-2.731-.848-4.089-1.328-2.379-.841-4.734-1.752-7.094-2.646-.286-.109-.526-.339-.813-.437-5.237-1.783-10.473-3.569-15.722-5.313C558.021,274.616,557.065,274.32,556.942,275.815Z" transform="translate(-382.211 -221.784)" fill="#bd6456" fill-rule="evenodd"/>
        <path id="Trazado_194114" data-name="Trazado 194114" d="M381.057,445.466a5.367,5.367,0,0,0,1.118-6.255c-.873-1.913-1.928-3.742-2.972-5.739a35.307,35.307,0,0,1,3.4,1.341c6.808,3.512,14.092,5.42,21.586,6.807a91.9,91.9,0,0,0,18.076,1.806,8.255,8.255,0,0,0,2.9-.68c1.585-.645,2.191-.672,3.239.642,3.363,4.216,7.731,6.806,12.682,8.869,4.247,1.77,8.676,2.757,13,4.156,1.355.438,2.494,1.028,2.707,2.569a4.076,4.076,0,0,1-1.7,4.2c-.617.433-1.212.9-1.816,1.348a1.9,1.9,0,0,1-2.855-.694,26.807,26.807,0,0,0-2.476-3.546c-.34-.407-1.08-.467-1.623-.718-2.051-.946-4.114-1.868-6.14-2.867-2.74-1.351-5.424-2.7-8.561-3.1a29.054,29.054,0,0,1-5.786-1.907c-4.016-1.426-8.232-1.6-12.41-2.043-4.614-.492-9.225-.882-13.606-2.743a51.928,51.928,0,0,0-7.544-2.061,1.749,1.749,0,0,0-1.158.047,3.9,3.9,0,0,1-3.573.007,2.538,2.538,0,0,0-2.194.052C384.16,445.473,382.677,445.312,381.057,445.466Z" transform="translate(-290.486 -321.553)" fill="#bd6456" fill-rule="evenodd"/>
        <path id="Trazado_194115" data-name="Trazado 194115" d="M509.669,207.815l1.7.65c-1.353-1.8-2.645-3.341-3.735-5.013-1.977-3.032-4.272-5.9-5.193-9.517-.109-.428-.383-.912-.271-1.275a6.137,6.137,0,0,1,.93-1.45c.31.309.736.563.912.936,3.248,6.871,7.221,13.254,13.038,18.247,2.537,2.177,5.694,2.655,9.028,2a12.847,12.847,0,0,0,6.679-3.321l.319.269c-1.366,2.132-2.608,4.359-4.137,6.368-1.3,1.713-2.729,1.821-4.749,1.085-1.28-.467-2.666-.637-3.959-1.076-2.108-.717-4.185-1.527-6.255-2.347a2.45,2.45,0,0,1-.868-.805c-.991-1.252-1.434-2.935-3-3.742C509.914,208.727,509.878,208.318,509.669,207.815Z" transform="translate(-356.634 -191.21)" fill="#bd6456" fill-rule="evenodd"/>
        <path id="Trazado_194116" data-name="Trazado 194116" d="M608.709,256.507c1.007,0,1.931-.055,2.846.012q3.169.231,6.331.559c4.377.453,7.1-3.56,7.314-6.692a5.455,5.455,0,0,1,.224-1.7c.222-.531.678-1.329,1.07-1.352.941-.055,1.193.83,1.129,1.615a10.622,10.622,0,0,1-.566,3.523c-.9,1.947-1.739,4.217-3.307,5.477-1.644,1.322-4.07,1.818-6.238,2.291a4.642,4.642,0,0,1-4.493-.971,3.363,3.363,0,0,0-2.144-.535C609.419,258.726,608.811,258,608.709,256.507Z" transform="translate(-413.966 -221.403)" fill="#bd6456" fill-rule="evenodd"/>
        <path id="Trazado_194117" data-name="Trazado 194117" d="M538.908,324.676c-1.235-1.021-1.183-2,.066-3.751C540.128,322.216,538.574,323.342,538.908,324.676Z" transform="translate(-375.927 -261)" fill="#bd6456" fill-rule="evenodd"/>
      </g>
    </g>
    <g id="RSgvg2" transform="translate(262.34 165.473)">
      <g id="Grupo_158480" data-name="Grupo 158480" transform="translate(0 0)">
        <path id="Trazado_194118" data-name="Trazado 194118" d="M542.738,176.959c.805-.082,1.426-.2,2.047-.2a62.284,62.284,0,0,1,18.768,2.9,22.7,22.7,0,0,1,10.734,7.423,10.664,10.664,0,0,1,1.466,3.353c.245.721-.189,1.142-.964,1.125a7.741,7.741,0,0,1-1.525-.078,18.84,18.84,0,0,0-8.134.181,8.347,8.347,0,0,1-7.638-1.9c-4.688-4.08-9.465-8.056-14.2-12.081A5.431,5.431,0,0,1,542.738,176.959Z" transform="translate(-466.84 -176.759)" fill="#ff9d00" fill-rule="evenodd"/>
        <path id="Trazado_194119" data-name="Trazado 194119" d="M426.283,452.2c-.681-2.967-.681-2.967-.079-3.744.257.411.5.791.733,1.173a13.13,13.13,0,0,0,6.8,5.419c4.7,1.817,9.28,3.942,13.879,6.008a10.819,10.819,0,0,0,6.875.862L451.871,468a1.922,1.922,0,0,1-.47-.526,9.207,9.207,0,0,0-4.957-4.012c-5.423-2.269-10.746-4.8-16.268-6.795a41.3,41.3,0,0,0-9.631-1.878,152.562,152.562,0,0,1-24.158-4.46,31.731,31.731,0,0,0-16.619-.515,1.836,1.836,0,0,1-1.319-.176c.679-.572,1.368-1.133,2.036-1.719,1.733-1.521,1.942-2.553,1.014-4.665-.521-1.185-1-2.387-1.5-3.581l.389-.238a4.027,4.027,0,0,1,.79.633c2.889,3.849,6.952,6.007,11.365,7.387a99.682,99.682,0,0,0,33.264,4.836A3.682,3.682,0,0,0,426.283,452.2Z" transform="translate(-378.447 -318.083)" fill="#8c504d" fill-rule="evenodd"/>
        <path id="Trazado_194120" data-name="Trazado 194120" d="M704.746,350.684c.232-8.25-2.892-14.889-8.118-20.749l4.831-3.972.276.192c-.473,1.227-.915,2.467-1.428,3.678a2.658,2.658,0,0,0,.582,3.149,26.145,26.145,0,0,1,5.792,11.4,11.745,11.745,0,0,0,.7,2.533,1.7,1.7,0,0,1-.881,2.676C705.975,349.852,705.5,350.208,704.746,350.684Z" transform="translate(-549.637 -257.035)" fill="#bd6456" fill-rule="evenodd"/>
      </g>
    </g>
    <path id="Trazado_194121" data-name="Trazado 194121" d="M404.743,192.478a1.215,1.215,0,0,1-.128-.039,2.209,2.209,0,0,1-.19-.114,1.229,1.229,0,0,0-1.723,1.754,2.887,2.887,0,0,0,1.808.829,1.225,1.225,0,0,0,.233-2.429Z" transform="translate(-128.965 -19.477)" fill="#ffb8d8"/>
    <path id="Trazado_194122" data-name="Trazado 194122" d="M201.455,309.954c2.116-3.063,3.492-4.008,5.44-4.063s11.314.78,11.9,3.526,11.66,1.692,13.242,4.328,6.854,7.908,6.327,15.817c0,0,3.32-2.606,9.024-1.512,8.354,1.6,9.631,7.6,15.6,12.332,7.224,5.732,3.885,12.938-.372,14.486-2.042.743-15.643,3.636-12.48,4.163.9.151-4.1-.918-6.327,5.1-1.757,4.745,2.561,8,1.858,8.523-8.849,6.637-17.617-8.54-18.1-7.733-.527.879,6.037,2.9,7.557,5.272,2.711,4.226-5.272,8.26,2.812,17.575,4.434,5.109,15.872,4.905,13.122,4.218-6.327-1.582-14.8,2.952-16.382,5.061s-13.146,8.1-13.954,7.212-12.407-2.994-13.989-3.522-7.755-11.27-7.755-11.27-5.952-11.4-7.007-12.981-1.582-13.708-1.582-13.708l-1.872-7.781-2.243-10.1s2.534-13.75,4.115-15.331,6.716-6.693,6.257-7.828S201.455,309.954,201.455,309.954Z" transform="translate(-12.714 -80.761)" fill="#f7ca81"/>
    <g id="Grupo_158482" data-name="Grupo 158482" transform="translate(183.93 171.891)">
      <g id="Grupo_158481" data-name="Grupo 158481" transform="translate(0 0)">
        <path id="Trazado_194123" data-name="Trazado 194123" d="M493.676,444.056a16.4,16.4,0,0,0-7-8.112c-3.645-2.14-7.912-3.317-11.8-4.935-4.813-2-9.451-4.249-14.411-5.89-3.728-1.234-8.088-3.357-11.614-.625-1.61,1.249.646,3.471,2.237,2.237,1.336-1.036,3.4-.227,4.811.225,1.858.6,3.714,1.2,5.561,1.829,4.107,1.4,7.978,3.342,11.973,5.021,6.272,2.636,14.269,4.163,17.19,11.09C491.405,446.747,494.468,445.935,493.676,444.056Z" transform="translate(-337.619 -315.749)" fill="#d2e1f1"/>
        <path id="Trazado_194124" data-name="Trazado 194124" d="M342.061,427.6c-4.629-5.209-13.983-5.3-20.168-3.453-1.95.581-1.119,3.635.841,3.05,5.133-1.53,13.214-1.723,17.09,2.64C341.182,431.365,343.411,429.12,342.061,427.6Z" transform="translate(-269.012 -315.691)" fill="#d2e1f1"/>
        <path id="Trazado_194125" data-name="Trazado 194125" d="M320.321,367.891c-2.308-2.152-4.812-4.344-7.781-5.512a14.231,14.231,0,0,0-9.9.073c-1.926.639-1.1,3.695.841,3.051a11.738,11.738,0,0,1,7.357-.395c2.466.748,4.5,2.589,6.4,4.252,2.38,2.088,8.254,7.147,5.442,10.721-1.246,1.584.976,3.839,2.237,2.237C328.977,377.153,324.184,371.492,320.321,367.891Z" transform="translate(-258.659 -282.584)" fill="#d2e1f1"/>
        <path id="Trazado_194126" data-name="Trazado 194126" d="M247.745,378.43c-2.3-4.951-8.024-4.4-12.544-5.3-1.992-.393-2.842,2.656-.841,3.05,3.514.693,8.864,0,10.654,3.842C245.873,381.874,248.6,380.267,247.745,378.43Z" transform="translate(-221.9 -288.813)" fill="#d2e1f1"/>
        <path id="Trazado_194127" data-name="Trazado 194127" d="M267.573,329.024c-4.19-3.976-9.721-4.024-14.57-1.184a1.583,1.583,0,0,0,1.6,2.731c3.6-2.108,7.578-2.307,10.737.69C266.814,332.664,269.055,330.431,267.573,329.024Z" transform="translate(-232.133 -263.395)" fill="#d2e1f1"/>
        <path id="Trazado_194128" data-name="Trazado 194128" d="M326.137,257.566c-7.655-2.235-15.271,1.731-17.06,9.658-.449,1.986,2.6,2.83,3.05.841,1.417-6.278,7.1-9.22,13.169-7.448C327.259,261.19,328.091,258.137,326.137,257.566Z" transform="translate(-262.69 -226.321)" fill="#d2e1f1"/>
        <path id="Trazado_194129" data-name="Trazado 194129" d="M363.4,261.215a11.959,11.959,0,0,0-8.717,1.331c-1.788.983-.192,3.715,1.6,2.732a8.6,8.6,0,0,1,6.28-1.012C364.541,264.739,365.383,261.689,363.4,261.215Z" transform="translate(-286.83 -228.446)" fill="#d2e1f1"/>
        <path id="Trazado_194130" data-name="Trazado 194130" d="M341.419,288.4a1.591,1.591,0,0,0-1.581-1.582,2.6,2.6,0,0,0-1.7.7,1.731,1.731,0,1,0,3.286.884Z" transform="translate(-278.1 -242.392)" fill="#d2e1f1"/>
        <path id="Trazado_194131" data-name="Trazado 194131" d="M372.385,325.685a1.626,1.626,0,0,0-2.164-.567,1.878,1.878,0,0,0-.82.736,1.221,1.221,0,0,0-.492.8q-.019.134-.032.268a1.407,1.407,0,0,0-.016.182,3.389,3.389,0,0,0,1.041,2.963,1.606,1.606,0,0,0,2.484-.32A3.944,3.944,0,0,0,372.385,325.685Z" transform="translate(-294.87 -262.898)" fill="#d2e1f1"/>
        <path id="Trazado_194132" data-name="Trazado 194132" d="M556.29,405.007a29.633,29.633,0,0,1-2.262-4.171,17.221,17.221,0,0,0-3.36-4.35,34.228,34.228,0,0,0-9.038-5.821c-5.445-2.706-12.369-5.178-17.7-.975-1.6,1.262.654,3.485,2.237,2.237,4.342-3.422,11-.013,15.147,2.116a29.829,29.829,0,0,1,7.546,5.1c2.2,2.162,2.931,5.035,4.7,7.46C554.748,408.234,557.495,406.658,556.29,405.007Z" transform="translate(-378.015 -296.527)" fill="#d2e1f1"/>
        <path id="Trazado_194133" data-name="Trazado 194133" d="M580.949,462.831a7.54,7.54,0,0,0-6.638,4.532c-.858,1.836,1.869,3.444,2.732,1.6a4.494,4.494,0,0,1,3.906-2.965C582.985,465.938,582.99,462.774,580.949,462.831Z" transform="translate(-405.328 -337.091)" fill="#d2e1f1"/>
        <path id="Trazado_194134" data-name="Trazado 194134" d="M477.368,278.449c-1.076-2.641-3.213-6.475-6.479-7.591-1.408-.481-2.318,1.306-.906,1.788,2.57.878,4.112,4.032,5.06,6.058,1.261,2.7,1.221,6.408-.74,8.711-.859,1.009.972,2.306,1.833,1.3C478.5,285.932,478.722,281.77,477.368,278.449Z" transform="translate(-348.906 -233.761)" fill="#d2e1f1"/>
        <path id="Trazado_194135" data-name="Trazado 194135" d="M385.5,190.674a10.061,10.061,0,0,0-7.328,2.807c-1.487,1.4.754,3.634,2.237,2.237a6.909,6.909,0,0,1,5.091-1.88C387.533,194,387.517,190.835,385.5,190.674Z" transform="translate(-299.625 -190.651)" fill="#d2e1f1"/>
        <path id="Trazado_194136" data-name="Trazado 194136" d="M443.773,364.93c-1.3-1.8-2.407-3.731-3.84-5.432-1.768-2.1-4.358-3.23-6.741-4.464A165.828,165.828,0,0,0,415.3,347.08a79.44,79.44,0,0,0-18.065-4.918c-6.017-.74-10.9,1.415-15.957,4.4a1.231,1.231,0,0,0,1.242,2.125,38.194,38.194,0,0,1,6.654-3.37,18.27,18.27,0,0,1,8.061-.694c5.938.6,11.851,2.768,17.411,4.83a158.057,158.057,0,0,1,16.117,7.1c2.31,1.163,4.9,2.23,6.8,4.017,1.673,1.572,2.748,3.755,4.083,5.6C442.569,367.444,444.7,366.218,443.773,364.93Z" transform="translate(-301.243 -272.089)" fill="#d2e1f1"/>
        <path id="Trazado_194137" data-name="Trazado 194137" d="M401.882,411.47c-3.566-6.51-12.58-7.13-18.994-8.73-3.135-.782-6.052-2.165-9.263-2.728-2.691-.472-6.2-.5-7.611,2.319-.707,1.415,1.415,2.661,2.125,1.242,1.148-2.3,4.951-1.227,6.866-.758,2.588.633,5.029,1.749,7.608,2.392,5.577,1.391,14.038,1.833,17.145,7.5C400.52,414.1,402.645,412.862,401.882,411.47Z" transform="translate(-293.272 -303.164)" fill="#d2e1f1"/>
        <path id="Trazado_194138" data-name="Trazado 194138" d="M213.815,366.763a7.9,7.9,0,0,0-3.253-2.9,1.258,1.258,0,0,0-1.683.442,1.233,1.233,0,0,0,.441,1.683A5.542,5.542,0,0,1,211.691,368a1.251,1.251,0,0,0,1.683.441A1.235,1.235,0,0,0,213.815,366.763Z" transform="translate(-208.719 -283.764)" fill="#d2e1f1"/>
        <path id="Trazado_194139" data-name="Trazado 194139" d="M423.255,280.777a1.2,1.2,0,0,0-.831-1.019,7.9,7.9,0,0,0-5.249.255c-.828.282-1.621.671-2.422,1.019a1.7,1.7,0,0,0-.425.3c-.056.028-.109.061-.165.091a14.01,14.01,0,0,0-1.373-6.2c-.674-1.436-2.794-.186-2.125,1.242a10.074,10.074,0,0,1,.755,6.785,1.279,1.279,0,0,0-.049.391,8.365,8.365,0,0,0-.881,1.249,1.231,1.231,0,0,0,2.125,1.242,6.3,6.3,0,0,1,1.535-1.786c.71.065,1.12-.552,1.611-.983a9.6,9.6,0,0,1,6.536-.357C423.7,283.44,424.357,281.447,423.255,280.777Z" transform="translate(-317.185 -235.814)" fill="#d2e1f1"/>
        <path id="Trazado_194140" data-name="Trazado 194140" d="M350.434,211.433a10.509,10.509,0,0,0-13.193,0c-1.24.953-.017,3.092,1.242,2.124a8.249,8.249,0,0,1,10.709,0C350.451,214.524,351.674,212.385,350.434,211.433Z" transform="translate(-277.59 -200.58)" fill="#d2e1f1"/>
        <path id="Trazado_194141" data-name="Trazado 194141" d="M265.072,260.457c-5.134-.657-10.535,2-13.7,5.984-.976,1.229.754,2.982,1.74,1.74a13.5,13.5,0,0,1,11.96-5.264C266.642,263.118,266.623,260.655,265.072,260.457Z" transform="translate(-231.512 -228.155)" fill="#d2e1f1"/>
      </g>
      <path id="Trazado_194142" data-name="Trazado 194142" d="M598.19,463.29c-.027,0-.135-.015-.179-.02-.138-.028-.273-.064-.409-.1-.324-.088-.642-.2-.96-.3a1.231,1.231,0,1,0-.654,2.373,7.827,7.827,0,0,0,2.2.512,1.23,1.23,0,0,0,0-2.46Z" transform="translate(-416.594 -337.081)" fill="#d2e1f1"/>
      <path id="Trazado_194143" data-name="Trazado 194143" d="M383.564,263.81a2.562,2.562,0,0,0-1.807-.829,1.227,1.227,0,0,0-.061,2.453h0c.042.039.086.075.127.115a1.231,1.231,0,0,0,1.74-1.74Z" transform="translate(-301.156 -229.567)" fill="#d2e1f1"/>
    </g>
    <g id="Grupo_158483" data-name="Grupo 158483" transform="translate(249.488 258.962)">
      <path id="Trazado_194144" data-name="Trazado 194144" d="M354.357,382.307c.1.091.2.18.29.271C354.555,382.487,354.454,382.4,354.357,382.307Z" transform="translate(-352.634 -380.838)" fill="#bd6456" fill-rule="evenodd"/>
      <path id="Trazado_194145" data-name="Trazado 194145" d="M351.417,379.786c-.273-.217-.534-.437-.789-.659C350.883,379.349,351.143,379.569,351.417,379.786Z" transform="translate(-350.628 -379.127)" fill="#bd6456" fill-rule="evenodd"/>
      <path id="Trazado_194146" data-name="Trazado 194146" d="M355.939,383.9c-.048-.054-.1-.106-.152-.159C355.837,383.789,355.891,383.842,355.939,383.9Z" transform="translate(-353.404 -381.607)" fill="#bd6456" fill-rule="evenodd"/>
      <path id="Trazado_194147" data-name="Trazado 194147" d="M352.977,381.091q-.306-.271-.642-.538Q352.671,380.82,352.977,381.091Z" transform="translate(-351.546 -379.894)" fill="#bd6456" fill-rule="evenodd"/>
      <path id="Trazado_194148" data-name="Trazado 194148" d="M357.04,385.174c-.023-.029-.05-.058-.073-.087C356.991,385.117,357.017,385.146,357.04,385.174Z" transform="translate(-354.039 -382.334)" fill="#bd6456" fill-rule="evenodd"/>
      <path id="Trazado_194149" data-name="Trazado 194149" d="M357.993,386.44l-.024-.032Z" transform="translate(-354.578 -383.044)" fill="#bd6456" fill-rule="evenodd"/>
    </g>
    <g id="Grupo_158484" data-name="Grupo 158484" transform="translate(296.803 163.529)">
      <path id="Trazado_194150" data-name="Trazado 194150" d="M643.94,380.919c-.821-3.594-4.889-4.8-8.09-5.26-3.5-.5-7.809.028-9.564,3.593-.9,1.823,1.831,3.427,2.732,1.6,1.166-2.368,4.113-2.408,6.372-2.085,1.877.268,5,.806,5.5,3C641.343,383.748,644.393,382.9,643.94,380.919Z" transform="translate(-546.158 -281.742)" fill="#ffda88"/>
      <path id="Trazado_194151" data-name="Trazado 194151" d="M579.37,320.408c-3.7-1.237-7.327-2.626-11-3.946-3.483-1.253-7.019-2.676-10.6-3.615-3.181-.834-6.655-.868-9.169,1.52-1.482,1.407.759,3.641,2.237,2.237,2.01-1.909,5.128-1.022,7.474-.316,2.893.87,5.733,2.017,8.59,3,3.226,1.114,6.356,2.545,9.616,3.553,1.1.34,5.2,1.169,5.129,2.484-.109,2.04,3.056,2.029,3.163,0C584.968,322.4,581.632,321.165,579.37,320.408Z" transform="translate(-504.197 -247.757)" fill="#ffda88"/>
      <path id="Trazado_194152" data-name="Trazado 194152" d="M530.437,333.851c-3.982-.949-7.921-2.076-11.95-2.812-1.994-.365-2.846,2.684-.841,3.05,4.03.736,7.969,1.863,11.951,2.812C531.579,337.374,532.421,334.323,530.437,333.851Z" transform="translate(-487.187 -257.805)" fill="#ffda88"/>
      <path id="Trazado_194153" data-name="Trazado 194153" d="M623.431,235.583A10.568,10.568,0,0,0,615.27,230c-2.021-.255-2,2.912,0,3.163,2.554.321,4.158,1.892,5.43,4.02A1.583,1.583,0,0,0,623.431,235.583Z" transform="translate(-539.516 -203.45)" fill="#ffda88"/>
      <path id="Trazado_194154" data-name="Trazado 194154" d="M578.636,186.27a8.787,8.787,0,0,0-6.508-2.924c-2.042-.05-2.036,3.114,0,3.163a5.688,5.688,0,0,1,4.271,2C577.7,190.083,579.921,187.832,578.636,186.27Z" transform="translate(-516.293 -178.359)" fill="#ffda88"/>
      <path id="Trazado_194155" data-name="Trazado 194155" d="M504.426,231.764c-1.905-2.969-5-3.53-8.279-3.829a1.583,1.583,0,0,0-.463.028c-.478-2.053-.854-4.13-1.478-6.148a18.632,18.632,0,0,0-4.082-6.973c-3.292-3.629-8.434-5.852-13.26-4.307-1.935.619-1.107,3.675.841,3.05,4.244-1.359,8.182,1.117,10.869,4.277,3.056,3.594,3.3,8.432,4.525,12.779a1.611,1.611,0,0,0,2.865.423,1.758,1.758,0,0,0,.183.035c2.056.188,4.329.365,5.547,2.263C502.792,235.072,505.532,233.487,504.426,231.764Z" transform="translate(-465.268 -192.719)" fill="#ffda88"/>
      <path id="Trazado_194156" data-name="Trazado 194156" d="M487.153,178.177c-3.932-3.171-8.985-4.491-13.879-5.327-6.3-1.077-12.418,1.1-18.7,1.173a1.583,1.583,0,0,0,0,3.164c5.488-.068,10.824-1.75,16.33-1.457,4.605.246,10.378,1.755,14.01,4.684C486.488,181.682,488.742,179.458,487.153,178.177Z" transform="translate(-453.046 -172.551)" fill="#ffda88"/>
      <path id="Trazado_194157" data-name="Trazado 194157" d="M551,200.99c-1.928-3.344-4.809-6.288-8.923-6.232-2.038.028-2.041,3.192,0,3.164,2.96-.041,4.832,2.307,6.191,4.665A1.583,1.583,0,0,0,551,200.99Z" transform="translate(-500.122 -184.498)" fill="#ffda88"/>
      <path id="Trazado_194158" data-name="Trazado 194158" d="M678.664,324.285c-1.74-1.075-3.328,1.662-1.6,2.732,6.61,4.085,10.379,11.7,10.464,19.372a1.583,1.583,0,0,0,3.164,0C690.6,337.589,686.225,328.957,678.664,324.285Z" transform="translate(-573.173 -254.055)" fill="#ffda88"/>
      <path id="Trazado_194159" data-name="Trazado 194159" d="M629.731,285.5a34.871,34.871,0,0,0-10.722-5.1,9.551,9.551,0,0,0-9.266,1.823c-1.251.941-.028,3.079,1.242,2.124a10.648,10.648,0,0,1,3.427-1.955c1.467-.416,3.121.148,4.527.545a31.4,31.4,0,0,1,9.55,4.69C629.787,288.543,631.014,286.408,629.731,285.5Z" transform="translate(-537.072 -230.314)" fill="#ffda88"/>
      <path id="Trazado_194160" data-name="Trazado 194160" d="M685.449,293.336c-2.2-1.861-4.049-4.416-6.832-5.46-3.43-1.287-6.729.053-9.539,2.1-1.268.925-.042,3.062,1.242,2.124,2.287-1.67,4.972-3.06,7.782-1.783,2.22,1.009,3.78,3.21,5.607,4.754C684.912,296.093,686.662,294.361,685.449,293.336Z" transform="translate(-568.99 -234.327)" fill="#ffda88"/>
      <path id="Trazado_194161" data-name="Trazado 194161" d="M676.886,252.636a28.465,28.465,0,0,1-4.2-4.433,54.765,54.765,0,0,0-4.454-4.282,27.078,27.078,0,0,0-4.947-3.862c-2.136-1.225-4.385-2.208-6.431-3.591-1.318-.891-2.548,1.242-1.242,2.125a64.542,64.542,0,0,0,5.89,3.293,25.928,25.928,0,0,1,5.428,4.184,53.815,53.815,0,0,1,4.373,4.29,28.342,28.342,0,0,0,4.344,4.4C676.912,255.717,678.136,253.579,676.886,252.636Z" transform="translate(-561.731 -206.825)" fill="#ffda88"/>
      <path id="Trazado_194162" data-name="Trazado 194162" d="M664.242,259.059c-1.731-.5-3.734-.735-5.181.551-1.188,1.057.558,2.79,1.74,1.74.663-.589,2.055-.131,2.787.082A1.231,1.231,0,0,0,664.242,259.059Z" transform="translate(-563.674 -218.879)" fill="#ffda88"/>
      <path id="Trazado_194163" data-name="Trazado 194163" d="M728.987,309.082c-1.234-.966-2.988.763-1.74,1.74,2.125,1.664,1.786,4.913,1.983,7.332.128,1.57,2.589,1.582,2.46,0C731.44,315.081,731.687,311.2,728.987,309.082Z" transform="translate(-600.343 -245.856)" fill="#ffda88"/>
      <path id="Trazado_194164" data-name="Trazado 194164" d="M468.545,213.857a4.307,4.307,0,0,1-.624.531,1.842,1.842,0,0,1-.949.3,1.235,1.235,0,0,1-1.23-1.23,1.2,1.2,0,0,1,.864-1.154c.066-.061.134-.121.2-.185a1.23,1.23,0,1,1,1.74,1.74Z" transform="translate(-459.877 -193.647)" fill="#ffda88"/>
      <path id="Trazado_194165" data-name="Trazado 194165" d="M606.385,228.392a2.247,2.247,0,0,0-1.573-.536,1.23,1.23,0,0,0,0,2.46c.038,0,.077.005.115.006a1.212,1.212,0,0,0,1.458-.191A1.237,1.237,0,0,0,606.385,228.392Z" transform="translate(-534.039 -202.306)" fill="#ffda88"/>
      <path id="Trazado_194166" data-name="Trazado 194166" d="M554.772,340.081H554.6a1.23,1.23,0,0,0,0,2.46h.176a1.23,1.23,0,0,0,0-2.46Z" transform="translate(-507.021 -262.686)" fill="#ffda88"/>
    </g>
    <path id="Trazado_194167" data-name="Trazado 194167" d="M451.777,266.467c-.46,3.391-.824,6.8-1.4,10.17a33.975,33.975,0,0,1-5.79,13.735c-4.378,6.3-10.677,9.036-18.063,9.461a89.416,89.416,0,0,1-26.5-2.5c-2.473-.605-3.291-.294-4.185,2.126-1.587,4.3-2.981,8.668-4.476,13-.438,1.27-.936,2.518-1.42,3.771-5.237,13.559-15.578,20.43-29.535,22.658-9.557,1.525-19.068.791-28.563-.44-2.5-.324-4.36.052-6.192,2a23.864,23.864,0,0,1-15.119,7.271,11.5,11.5,0,0,0-9.112,5.757,227,227,0,0,0-16.1,31.736c-.233.556-.473,1.11-.73,1.655a3.032,3.032,0,0,1-3.223,1.945c-2.628-.274-5.263-.543-7.862-1-2.1-.37-3.172-2.5-2.652-4.915,1.133-5.261,2.17-10.548,3.481-15.765.719-2.861.31-5.1-2.132-6.872a11.983,11.983,0,0,1-1.8-1.737,7.548,7.548,0,0,0-5.037-2.369c-4.972-.57-9.941-1.165-14.911-1.752a1.777,1.777,0,0,1-.409-.079c-4.854-1.8-9.852-3.3-14.509-5.515-3.258-1.549-6.062-4.062-9.038-6.188a5.425,5.425,0,0,1-1.421-1.513,75.534,75.534,0,0,1-4.229-7.171,17.288,17.288,0,0,1-1.222-5.08c-.3-2.226-.205-2.223-2.4-2.487-4.2-.5-8.436-.974-12.1-3.327a39.1,39.1,0,0,1-5.138-4.005,11.136,11.136,0,0,1-3.016-5.991,6.783,6.783,0,0,0-1.6-3.115,12.906,12.906,0,0,1-4.157-8.4,7.1,7.1,0,0,0-.806-2.781c-2.837-5.295-2.935-10.827-1.6-16.511.053-.226.083-.458.151-.679a8.056,8.056,0,0,0-.449-6.384c-1.773-3.563-1.44-7.461-.947-11.335a51.573,51.573,0,0,1,5.15-17.083,46.767,46.767,0,0,0,2.593-7.608,26.381,26.381,0,0,1,6.744-11.522,7.783,7.783,0,0,0,2.267-4.365,5.881,5.881,0,0,1,1.242-2.726c3.106-3.568,6.256-7.1,9.513-10.534a21.405,21.405,0,0,1,11.395-6.3,2.664,2.664,0,0,0,2.353-2.46,10.7,10.7,0,0,1,4.475-6.843C239.1,190.34,244.94,186.3,251,182.621c2.387-1.45,5.382-1.888,8.084-2.831a8.462,8.462,0,0,0,2.734-1.221c5.655-4.829,12.309-7.294,19.535-8.436a50.248,50.248,0,0,1,15.65-.269c1.288.2,2.776-.513,4.1-1.005,4.683-1.743,9.257-3.816,14.016-5.3a32.694,32.694,0,0,1,15.712-.586c1.169.213,2.249.888,3.416,1.145a44,44,0,0,0,4.882.734c1.417.148,2.849.2,4.275.217,2.128.024,4.267.108,6.384-.059,9.236-.724,17.98,1.267,26.492,4.63,2.478,2.319,5.572,2.656,8.766,3.206a19.233,19.233,0,0,1,6.855,3.24c8.838,5.812,17.629,11.7,26.314,17.736a45.753,45.753,0,0,1,6.169,5.791c.657.67,4.866,7.025,5.886,8.463,3.035,4.273,3.937,7.266,6.958,11.549,1.145,1.623,2.361,3.2,3.657,4.709a22.982,22.982,0,0,1,4.72,9.5,7.189,7.189,0,0,0,.479,1.591c3.063,5.771,4.012,12.1,4.874,18.445.317,2.337.55,4.686.821,7.029ZM242.445,301.548a5.022,5.022,0,0,0-2.944-3.709c-1.259-.521-2.2-.235-2.517,1.06a9.43,9.43,0,0,0-.293,3.815c.969,5.36,4.363,8.64,9.52,9.91a71.022,71.022,0,0,0,9.606,1.437c3.318.346,6.7.194,9.985.721,11.3,1.816,22.575,3.851,33.864,5.766a39.153,39.153,0,0,1,12.646,4.286c15.78,8.7,32.454,11.025,50.022,6.264,12.306-3.335,20.045-11.127,23.43-23.3,1.04-3.742,1.512-7.645,2.606-11.368,1.1-3.746-.179-6.529-2.787-8.963a37.467,37.467,0,0,0-4-3.21,16.606,16.606,0,0,0-2.656-1.249c-.185,1.151-.339,2.108-.493,3.064l-.364.05a33.69,33.69,0,0,1-1.524-3.832,18.7,18.7,0,0,0-4.821-8.328,37.379,37.379,0,0,0-17.6-9.907c-4.283-1.142-8.291-.491-11.64,2.7a2.3,2.3,0,0,1-.548.293,1.51,1.51,0,0,1-.186-.316,1.363,1.363,0,0,1-.034-.414c.308-3.361-1.455-5.416-4.3-6.764-8.37-3.968-16.691-8.037-25.466-11.1-7.109-2.478-13.928-5.811-21.778-5.616-4,.1-7.626.684-10.749,3.339-1.342,1.141-2.767,2.31-4.179,3.367-.285.213-1.216.911-1.581.673.038-.646.867-1.359,1.114-1.734,1.4-2.132,2.756-4.3,4.236-6.375a2.438,2.438,0,0,0-.119-3.46c-1.613-1.913-3.013-4-4.583-5.955a4.656,4.656,0,0,1-1.021-4.629c.844-2.752,1.521-5.556,2.269-8.338l.36.053c0,.811-.013,1.622,0,2.433a42.53,42.53,0,0,0,.161,5.4,14.586,14.586,0,0,0,12.659,12.7c1.968.3,3.967.4,5.95.6,3.3.336,6.577.61,9.273-2.456-.091,2.367,1.2,3.43,2.818,4.229,2.946,1.451,5.847,3.01,8.857,4.314q10.771,4.667,21.637,9.117a65.755,65.755,0,0,0,9.156,3.2c3.932.962,7.977,1.464,12.014,2.171.23-1.092.4-1.924.644-3.065.474.9.786,1.515,1.112,2.119,1.832,3.4,3.693,4.345,7.5,3.724,1.774-.289,3.527-.707,5.635-1.137-.667.569-1.053.893-1.434,1.224-1.834,1.593-2.026,2.614-.764,4.7.982,1.627,2.056,3.2,3.072,4.805a9.646,9.646,0,0,0,7.113,4.6c2,.281,4.01.495,6.4.786l-2.628,1.136c2.638,2.617,5.255,5.228,7.891,7.819a4.282,4.282,0,0,0,3.821,1.215c1.746-.251,3.5-.409,5.339-.616-.9,1.755-.923,2.63.479,3.818a9.193,9.193,0,0,0,3.72,1.916c2.294.528,4.677.665,7.02.986a5.778,5.778,0,0,0,6.307-3.046c.339-.582.649-1.181.972-1.772l.3.077c-.121,1.191-.241,2.383-.358,3.535,7.368,2.328,17.469-2.514,20.564-9.944a90.45,90.45,0,0,0,3.606-10.661,43.866,43.866,0,0,0,1.165-17.653c-.5-3.721-1.226-7.411-1.688-11.136-.7-5.658-1.907-11.153-4.836-16.117a10.44,10.44,0,0,0-2.381-2.633,1.216,1.216,0,0,0-2.12.723,18.494,18.494,0,0,0-.251,3.82c.018,1.29.2,2.578.316,3.866l-.633.206a24.168,24.168,0,0,1-1.95-2.9c-2.2-4.524-5.7-7.983-9.247-11.394a8.774,8.774,0,0,0-8.488-2.271,18.5,18.5,0,0,0-6.9,3.167c-1.587,1.153-2.333,1.089-3.881-.106a33.09,33.09,0,0,0-16.321-6.56,5.131,5.131,0,0,0-4.868,1.758c-.626.723-1.275,1.427-1.914,2.14l-.347-.194a9.859,9.859,0,0,0-1.018-8.6,9.469,9.469,0,0,1,1.209.558,15.24,15.24,0,0,0,7.033,2.422c1.884.257,3.787.449,5.637.866a2.78,2.78,0,0,0,3.333-1.571c.966-1.689,1.876-3.413,2.8-5.126a5.012,5.012,0,0,0,.1-4.69,15.814,15.814,0,0,0-8.259-8.28c-1.616-.685-3.342-1.107-5.015-1.662-.446-.148-.875-.345-1.415-.56.255-.329.364-.593.475-.595,1.724-.026,3.448-.018,5.153-.018a8.383,8.383,0,0,0-5.6-4.853,27.66,27.66,0,0,0-5.632-.7,13.1,13.1,0,0,0-12.226,6.353c-2.541,3.935-4.986,7.933-7.4,11.95a6.872,6.872,0,0,0-1.137,3.09c-.186,6.068-.226,12.142-.293,18.214a2.24,2.24,0,0,0,1.832,2.315c1.16.324,2.335.594,3.5.915q13.475,3.732,26.943,7.483a12.9,12.9,0,0,0,9.478-.771,9.744,9.744,0,0,1,1.419-.45l.151.34q-1.109.905-2.218,1.81a7.194,7.194,0,0,0-2.819,4.933,24.539,24.539,0,0,0,2.15,13.281,2.649,2.649,0,0,0,1.493,1.3c3.077.857,6.189,1.593,9.292,2.353a4.043,4.043,0,0,0,4.53-1.639,6.029,6.029,0,0,1,1.13-.923l.381.343c-.694,4.176-3.541,7.082-6.293,10.113a17.511,17.511,0,0,1-.153-2.475c-.087-2.406-.812-3.362-3.119-3.943q-3.235-.814-6.506-1.476a9.351,9.351,0,0,0-7.08,1.222c-1.233.772-2.563,1.391-3.849,2.079a18.023,18.023,0,0,1,2.929-3.74c2.949-2.766,3.732-6.205,3.287-10.03a35.59,35.59,0,0,0-.912-4.489,7.149,7.149,0,0,0-4.81-5.152c-10.134-3.807-20.624-6.392-31.073-9.119a2.988,2.988,0,0,0-3.769,1.592c-.991,1.621-1.918,3.281-2.849,4.938-1.039,1.849-.878,2.67.739,4.113.693.62,1.374,1.254,2.339,2.136l-13.735-3.853c.982-.095,2.306-.211,3.628-.353a5.924,5.924,0,0,0,4.956-3.114c.662-1.221,1.447-2.375,2.2-3.543,5.012-7.757,5.131-16.261,3.75-24.965a4.608,4.608,0,0,0-3.53-3.917q-4.229-1.118-8.512-2.027c-.927-.2-1.409-.585-1.474-1.517-.3-4.266-2.4-7.764-4.891-11.036a11.339,11.339,0,0,0-10.192-4.653c-1.573.091-3.148.223-4.709.431-1.26.168-1.954-.211-1.986-1.6,3.174-.29,6.3-.618,9.442-.845a3.044,3.044,0,0,0,3.043-2.544c.284-1.236.4-2.511.588-3.768a1.819,1.819,0,0,1,.528,1.321,12.125,12.125,0,0,0,1.971,7.675c3.007,4.292,5.965,8.621,9.063,12.847a6.245,6.245,0,0,0,2.73,1.968c2.381.9,4.855,1.563,7.291,2.325a4.346,4.346,0,0,0,5.295-1.688c1.687-2.488,3.224-5.085,4.7-7.7a6.381,6.381,0,0,0,.467-5.134c-2.149-6.991-7.357-10.765-13.892-13.089a11.312,11.312,0,0,0-2.618-.235L350,171.52c-2.181-1-4.114-2.428-6.214-2.746-4.292-.653-8.4-2.022-12.639-2.765-7.077-1.242-14.068-.191-20.865,1.956a16.44,16.44,0,0,0-9.31,7.336c-1.4,2.313-.869,4.438,1.347,5.931,2.009-1.165,3.726-2.946,6.188-3.394a21.319,21.319,0,0,1-2.3,3.116,5.18,5.18,0,0,0-.729,6.447c2.52,4.436,5.185,8.811,9.373,11.952,2.412,1.809,4.869,3.56,7.307,5.335,1.431,1.043,2.649,2.55,4.773,1.917-1.251,8.048-.682,9.789,5.631,17.515a18,18,0,0,0-4.165,8.338c-.1.457-.583.832-.889,1.244l-.359-.237a6.882,6.882,0,0,1,.312-1.145,9.87,9.87,0,0,0,.744-5.7,28.032,28.032,0,0,0-.382-3.311c-1.3-4.811-2.37-9.808-7.85-12.038a2.58,2.58,0,0,0-.038-3.631,30.5,30.5,0,0,0-4.8-4.322,11.615,11.615,0,0,1-3.8-3.548c-4.942-8.171-11.091-15.437-17.127-22.787a9.449,9.449,0,0,0-6.794-3.646c-7.124-.522-13.406,1.8-19.136,5.863a6.012,6.012,0,0,0-.864.978l8.527,5.323-2.607,1.224c-1.725-1.188-3.032-2.436-4.589-3.09a12.773,12.773,0,0,0-11.061.244c-4.916,2.5-9.785,5.109-14.546,7.89a81.679,81.679,0,0,0-7.845,5.511c-1.558,1.175-1.788,2.5-1.032,3.906l5.175-.951.227.567a18.288,18.288,0,0,0-7.35,6.717c-1.91-1.944-1.908-1.936-4.495-1.22-8.759,2.426-14.7,8.4-19.463,15.717-1.805,2.775-.247,5.116,3.091,5.193a2.819,2.819,0,0,0,2.867-1.714c.858-1.634,1.922-3.159,2.9-4.731l.384.229c-.359.723-.742,1.434-1.073,2.17-1.683,3.744-.582,6.755,3.166,8.472,3.1,1.417,6.311,1.252,9.55.556a2.349,2.349,0,0,0,1.987-2.126,50.2,50.2,0,0,1,8.723-19.833,40.173,40.173,0,0,1,9.151-9.093l-1.753-3.219a52.986,52.986,0,0,0,6.65,2.284,87.249,87.249,0,0,0,27.675,1.424c3.861-.46,4.994-1.518,5.274-5.31l1.613-.277c-.425,2.125.82,3.327,1.859,4.716,2.61,3.486,5.145,7.034,7.566,10.653a7.1,7.1,0,0,0,3.763,3.091c1.2.394,2.336.971,3.794,1.591-2.264,0-4.215-.319-6,.091-1.719.4-3.263,1.547-4.787,2.316,0-.575-.01-1.407,0-2.239a18.493,18.493,0,0,0-1.745-8.23c-1.274-2.719-3.4-4.413-6.378-4.458-7-.1-14.019-.082-20.59,2.937-.051.024-.15-.058-.3-.121.153-.546.308-1.1.546-1.952-1.393-.22-2.691-.455-4-.626a55.41,55.41,0,0,1-7.258-.984,4.04,4.04,0,0,0-3.92.63c-6.607,4.854-11.021,11.328-14.012,18.84-2.034,5.109-3.556,10.345-3.079,15.953.061.711.084,1.427.125,2.14a9.328,9.328,0,0,1-1.757-1.829,5.98,5.98,0,0,0-3.8-2.386c-5.113-.763-9.82-.093-13.6,3.852a2.873,2.873,0,0,1-.419.305l-.314-.2c.872-1.543,1.7-3.112,2.632-4.62a1.944,1.944,0,0,0-.15-2.513c-4.115-5.475-12.154-3.05-14.161,1.391a61.609,61.609,0,0,0-2.969,8.648,8.99,8.99,0,0,0-.064,3.848c.523,3.025,3.377,5.88,5.919,6.115l1.331-3.664a13.571,13.571,0,0,1,.944,3.821,2.292,2.292,0,0,0,2.215,2.239c4.774.681,9.536,1.437,14.314,2.081a4.292,4.292,0,0,0,2.261-.407c6.044-2.836,12.053-5.749,18.091-8.6a7.505,7.505,0,0,0,4.3-5.138c.922-3.5,1.927-6.971,2.923-10.448a11.861,11.861,0,0,1,.677-1.537,2.21,2.21,0,0,1,.321,1.408c-.115,2.038-.265,4.075-.359,6.114a18.407,18.407,0,0,0,3.238,11.965,64.573,64.573,0,0,0,12.613,13.833,13.739,13.739,0,0,0,4.828,2.6c7.039,1.812,14.14,3.382,21.218,5.038,5.5,1.288,10.965,2.873,16.74,1.876.445-.077,1.056.565,1.53.946,1.066.857,2.077,1.781,3.145,2.635.5.4,1.159.621,1.616,1.059A24.963,24.963,0,0,0,331.27,285.4a32.894,32.894,0,0,1,11.091,3.793c4.823,2.672,9.8,5.06,14.623,7.738a15.765,15.765,0,0,0,12.457,1.634,12.157,12.157,0,0,1,2.084-.227l.109.45c-.383.181-.758.383-1.151.538-1.509.594-3.025,1.169-4.537,1.755a5.505,5.505,0,0,0-3.8,5.43c-.018.894,0,1.788,0,2.682l-.406.038c-.242-.622-.5-1.238-.723-1.868a19.042,19.042,0,0,0-9.213-11.055,78.716,78.716,0,0,0-9.1-4.459c-9.979-3.726-20.04-7.23-30.068-10.823a2.459,2.459,0,0,0-2.693.546c-.878.8-1.824,1.519-2.945,2.442,0-.779-.038-1.27.007-1.753a3.766,3.766,0,0,0-2.533-4.167,15.267,15.267,0,0,0-1.943-.746c-6.354-1.689-12.7-3.412-19.08-5-3.055-.761-6.166-1.3-9.267-1.862-3.219-.58-4.5.1-5.9,2.982-.323.665-.557,1.376-.893,2.034a3.741,3.741,0,0,0,.766,4.583c.748.834,1.394,1.759,2.085,2.643q-.078.21-.157.42c-7.907-3.928-15.948-1.427-23.972-.646-.256-1.336.69-1.383,1.383-1.554,4.185-1.033,8.388-1.994,12.565-3.054a8.913,8.913,0,0,0,6.6-5.989,5.747,5.747,0,0,0-1.4-6.39c-1.1-1.124-2.122-2.333-3.212-3.472q-3.75-3.917-7.535-7.8c-2.6-2.689-5.835-3.05-9.273-2.372-6.166,1.216-11.238,4.732-16.357,8.072a6.205,6.205,0,0,0-2.665,5.816c.019.418,0,.837,0,1.255l-.52.059c-.194-.906-.459-1.8-.569-2.721a5.378,5.378,0,0,0-4.232-4.927c-.492-.137-.978-.291-1.471-.423a42.272,42.272,0,0,0-12.982-1.112c-.72.033-1.817-.077-2.129-.535-1.935-2.849-4.976-3.928-7.882-5.242-1.146-.518-1.922-.111-2.45,1.035-2.326,5.043-2.838,10.443-3.057,15.876a4.955,4.955,0,0,0,3.087,5.042c2.6,1.052,5.336,1.749,8.094,2.624l1.271-3.744.369-.025a4.536,4.536,0,0,1,.486,1.425q-.065,3.757-.3,7.508c-.022.359-.456.693-.7,1.039-.291-.246-.581-.494-.874-.737a7.787,7.787,0,0,0-1.832-1.455,14.4,14.4,0,0,0-3.249-.726c-2.432-.341-3.272.263-3.521,2.7a41.29,41.29,0,0,0,4.383,22.916,4.681,4.681,0,0,0,1.938,1.886,3.585,3.585,0,0,0,3.923-.537c1.113-.817-.07-1.664-.067-2.5,0-.179-.145-.361-.133-.535.042-.6.125-1.2.191-1.8l.423-.056c4.419,6.527,10.091,11.247,18.181,12.535-1.19,1.279-2.448,1.494-4.586.787-2.949-.976-5.949-1.847-8.8-3.068-2.561-1.1-4.466-.471-6.2,1.452.956,3.234,3.383,5.443,7.352,6.726,8.312,2.689,16.122,1.143,23.606-2.861a3.046,3.046,0,0,0,1.391-1.921,11.687,11.687,0,0,0-2.029-9.112,4.023,4.023,0,0,0-4.08-1.8c-1.778.248-3.575.361-5.354.533-.312-1.044.218-1.377.951-1.628,2.017-.69,4.061-1.319,6.028-2.133,4.052-1.677,4.859-5.475,1.845-8.693-1.788-1.908-3.705-3.7-5.564-5.538a2.155,2.155,0,0,1,1.567.28c3.813,2.391,7.6,4.817,11.4,7.228,2.362,1.5,2.791,1.469,5-.3,1.052-.843,1.847-.708,2.592.5C245.078,296.353,243.775,298.812,242.445,301.548Zm189.849-77.835c2.038-2.842,2.077-3.179.1-5.692-1.747-2.224-3.526-4.43-5.4-6.546-4.96-5.589-10.476-10.5-17.266-13.819-1.708-.835-3.407-1.694-5.068-2.617a7.31,7.31,0,0,1-1.321-1.23l.2-.5a5.215,5.215,0,0,1,1.867.183c4.971,2.587,10.139,4.878,14.177,8.944.66.666,1.219.765,1.777-.143a17.992,17.992,0,0,0-5.286-5.79c-3.145-1.967-6.169-4.126-9.233-6.22a138.209,138.209,0,0,0-22.189-12.7c-.49-.216-1-.389-1.5-.583a1.789,1.789,0,0,0,.582.984,34.056,34.056,0,0,1,6.815,8.914,12.978,12.978,0,0,0,.968,1.52c3.244,4.407,6.623,8.722,9.7,13.245,1.5,2.2,2.941,3.676,5.815,2.93a7.886,7.886,0,0,1,2.523.192c0,.164,0,.328-.007.492-.518.152-1.038.3-1.555.456-1.687.505-3.406.927-5.053,1.539A7.092,7.092,0,0,0,398.654,214a2.135,2.135,0,0,0,.62,1.342c2.531,2.184,5.38,3.529,8.794,2.542,3.382-.978,6.726-2.091,10.067-3.206A4.219,4.219,0,0,1,422.7,215.7C425.81,218.468,429.081,221.05,432.294,223.713Zm-80.864-54.536a5.434,5.434,0,0,0,.553.723c4.736,4.025,9.513,8,14.2,12.081a8.347,8.347,0,0,0,7.638,1.9,18.84,18.84,0,0,1,8.134-.181,7.741,7.741,0,0,0,1.525.078c.775.018,1.209-.4.964-1.125a10.662,10.662,0,0,0-1.466-3.353,22.7,22.7,0,0,0-10.734-7.423,62.285,62.285,0,0,0-18.768-2.9C352.855,168.976,352.235,169.095,351.429,169.176ZM259.89,319.364l.1-.516a9.344,9.344,0,0,0-2.089-.7c-2.076-.191-4.164-.28-6.249-.355a11.018,11.018,0,0,0-3.59.074c-5.916,1.875-11.786,3.892-17.661,5.893-.9.307-1.774.74-1.145,2.02.793,1.612,1.166,1.828,2.556,1.157a71.743,71.743,0,0,1,27.205-7.331A4.2,4.2,0,0,0,259.89,319.364Zm6.824,9.017c-.871-1.559-2.222-1.612-3.647-1.417-1.742.237-3.476.529-5.219.762a90.959,90.959,0,0,0-18.918,4.233c-.48.173-.831.7-1.242,1.067a6.765,6.765,0,0,0,1.467,1.312,2.4,2.4,0,0,0,1.468-.157c.842-.245,1.657-.582,2.488-.866,4.7-1.61,9.606-1.85,14.495-2.248A19.92,19.92,0,0,0,266.714,328.381ZM275,330.428l-.164-.6a28.181,28.181,0,0,0-5.055,1.005,26.2,26.2,0,0,1-7.69,1.659c-5.4.4-10.821.648-16.06,2.2-.828.245-2.191.269-1.96,1.494s1.51.9,2.442.791c5.606-.657,11.216-1.29,16.813-2.022C267.577,334.393,271.284,332.381,275,330.428Zm38.785-.64a1.448,1.448,0,0,0-.336-.227c-1.142-.373-2.285-.748-3.436-1.1-1.967-.6-2.621-.372-3.771,1.281q-2.974,4.272-5.936,8.553c-.245.354-.464.725-.767,1.2C304.857,339.1,312.484,333.828,313.784,329.788Zm-50.873-5.82c-.948-1.9-1.33-2.072-3.132-1.631a7.43,7.43,0,0,1-.959.117,45.579,45.579,0,0,0-6.751.79c-5.947,1.58-11.826,3.412-17.727,5.157-.348.1-.809.247-.956.515a2.37,2.37,0,0,0-.289,1.456c.035.194.745.376,1.141.363a4.4,4.4,0,0,0,1.16-.434,79.857,79.857,0,0,1,8.389-2.867c4.506-1.036,9.1-1.685,13.659-2.5C259.245,324.617,261.047,324.3,262.91,323.968Zm21.689,5.224-.432-.562a8.393,8.393,0,0,0-1.685,1.225c-1.217,1.457-2.287,3.036-3.494,4.5-4.248,5.156-8.538,10.277-12.784,15.434a13.989,13.989,0,0,0-1.146,1.969c1.832.669,2.777-.189,3.662-1.324,4.3-5.527,8.663-11.011,12.93-16.566C282.766,332.412,283.623,330.756,284.6,329.192Zm-2.672,24.155.514.435a4.04,4.04,0,0,0,1.355-.486c3.854-3.4,7.52-7.02,9.013-12.094,1.121-3.809,1.78-7.756,2.568-11.657a1.461,1.461,0,0,0-.628-1.253c-.783-.32-.978.352-1.107.991-.459,2.27-1.011,4.525-1.4,6.807a23.879,23.879,0,0,1-9.263,15.312C282.449,351.818,282.27,352.688,281.927,353.347Zm-5.291-1.108c.738,1.047,1.446,1.105,2.205.254,5.474-6.139,9.763-12.957,11.91-20.981a6.884,6.884,0,0,0,.018-1.722l-.545-.12a12.116,12.116,0,0,0-1.118,1.633c-1.052,2.221-1.965,4.511-3.075,6.7C283.451,343.093,280.8,348.149,276.636,352.239Zm29.385-11.88c5.609.521,10.044-1.646,13.609-5.771,1.075-1.245,1.113-2.16.155-2.853-1.694-1.227-2.928-1.182-3.8.265a20.009,20.009,0,0,1-7.553,7.018C307.637,339.475,306.827,339.913,306.021,340.359Zm-1.546-11.892a3.223,3.223,0,0,0-2.281-3.159c-1.482-.245-1.886.842-2.276,1.915-.914,2.517-1.858,5.025-2.7,7.567-.161.486-.11,1.37.2,1.6.355.265,1.136.121,1.661-.056a2.382,2.382,0,0,0,.98-.928c1.281-1.809,2.552-3.627,3.775-5.475A7.76,7.76,0,0,0,304.475,328.468Zm-18.12,3.416-.422-.306c-.124.185-.242.374-.373.553q-6.691,9.14-13.373,18.287a3.552,3.552,0,0,0-.573,1.387,1,1,0,0,0,.386.786c.139.105.523-.013.739-.134a2.861,2.861,0,0,0,.591-.579,74.42,74.42,0,0,0,12.453-18.495C286.018,332.9,286.166,332.385,286.354,331.884Zm-11.761,3-.206-.507a6.173,6.173,0,0,0-1.244.55,44.293,44.293,0,0,0-10.483,10.425,37.754,37.754,0,0,0-2.717,4.821c-.186.379.182,1.028.294,1.553.537-.139,1.21-.126,1.576-.455a6.328,6.328,0,0,0,1.1-1.745,49.424,49.424,0,0,1,9.3-12.547C272.985,336.253,273.8,335.579,274.593,334.882Zm-15.153,3.206c-2.642.134-10.173,7.226-11.453,10.645l2.188,1.19Zm17.3-10.974c-.331-.35-.5-.552-.695-.731q-4.376-4.054-8.76-8.1a3.735,3.735,0,0,0-3.415-.864C264.7,320.819,273.1,327.214,276.742,327.114ZM264.914,338.3a33.9,33.9,0,0,0-11.266,12.788c1.807.814,2,.78,2.85-.456Q260.72,344.459,264.914,338.3Zm11.092-19.263-.249.571a15.007,15.007,0,0,0,8.024,7.247,9.127,9.127,0,0,0,2.243.132,11.553,11.553,0,0,0-.747-.933c-1.98-1.882-3.889-3.85-5.99-5.587A12.779,12.779,0,0,0,276.006,319.041Zm-38.425,22.193a1.821,1.821,0,0,0-1.985-1.84,3.354,3.354,0,0,0-2.949,3,1.8,1.8,0,0,0,2.074,1.731A3.142,3.142,0,0,0,237.581,341.234Zm12.014.505c-2.841-.085-5.785,2.27-6.7,5.443.9-.143,1.928.006,2.365-.431C246.786,345.227,248.1,343.5,249.6,341.739Zm-8.193-.3a3.758,3.758,0,0,0-3.353,1.725c-1.314,1.647-1.059,2.433,1.123,3.195ZM232.94,337.3c-.049-.779-.625-1.252-1.374-.9A9.979,9.979,0,0,0,229,338.232a1.05,1.05,0,0,0,.66,1.7C230.693,340.192,232.884,338.505,232.94,337.3Zm-9.78-7.8a3.375,3.375,0,0,0,3.526,1.369c.454-.073.842-.553,1.26-.846-.416-.435-.842-1.245-1.246-1.234A20.3,20.3,0,0,0,223.16,329.5Zm64.557-4.334c-.052-2.937-1.31-4.274-3.7-4.183.223.3.391.56.6.789C285.563,322.819,286.526,323.861,287.717,325.161Zm5.867-2.4-.384.381a16.971,16.971,0,0,0,.313,2.01c.084.312.422.78.645.78a1.266,1.266,0,0,0,1-.553c.22-.509.46-1.331.213-1.647C294.985,323.246,294.2,323.072,293.584,322.765Zm-66.947,12.852c.244.154.512.413.6.363,1.1-.65,2.173-1.335,3.236-2.04a.505.505,0,0,0,.028-.468,1.279,1.279,0,0,0-.7-.245C228.22,333.281,227.433,334.391,226.637,335.616Zm63.125-13.185q.47,1.7.941,3.4C291.057,324.488,291.316,323.178,289.763,322.431Z" transform="translate(-13.191 -3.503)" fill="#12263f" fill-rule="evenodd"/>
    <g id="Grupo_158499" data-name="Grupo 158499" transform="translate(313.011 311.226) rotate(-40)">
      <g id="Grupo_158497" data-name="Grupo 158497" transform="translate(1.673 1.619)">
        <path id="Trazado_194174" data-name="Trazado 194174" d="M0,0H1.43L-33.843,57.9Z" transform="translate(0 1.064) rotate(-48.081)" stroke="#7e5ee3" stroke-width="2"/>
      </g>
      <g id="Grupo_158498" data-name="Grupo 158498">
        <path id="Trazado_194172" data-name="Trazado 194172" d="M528.868,461.926a2.151,2.151,0,1,1,3.037-.164A2.152,2.152,0,0,1,528.868,461.926Z" transform="translate(-528.154 -458.175)" stroke="#7e5ee3" stroke-width="2"/>
      </g>
    </g>
    <g id="Grupo_158504" data-name="Grupo 158504" transform="translate(356.958 203.977) rotate(-132)">
      <g id="Grupo_158497-2" data-name="Grupo 158497" transform="translate(1.673 1.619)">
        <path id="Trazado_194174-2" data-name="Trazado 194174" d="M0,0H1.43L-33.843,57.9Z" transform="translate(0 1.064) rotate(-48.081)" stroke="#7e5ee3" stroke-width="2"/>
      </g>
      <g id="Grupo_158498-2" data-name="Grupo 158498">
        <path id="Trazado_194172-2" data-name="Trazado 194172" d="M528.868,461.926a2.151,2.151,0,1,1,3.037-.164A2.152,2.152,0,0,1,528.868,461.926Z" transform="translate(-528.154 -458.175)" stroke="#7e5ee3" stroke-width="2"/>
      </g>
    </g>
    <g id="Grupo_158505" data-name="Grupo 158505" transform="translate(281.374 188.763) rotate(168)">
      <g id="Grupo_158497-3" data-name="Grupo 158497" transform="translate(1.673 1.619)">
        <path id="Trazado_194174-3" data-name="Trazado 194174" d="M0,0H1.43L-33.843,57.9Z" transform="translate(0 1.064) rotate(-48.081)" stroke="#7e5ee3" stroke-width="2"/>
      </g>
      <g id="Grupo_158498-3" data-name="Grupo 158498">
        <path id="Trazado_194172-3" data-name="Trazado 194172" d="M528.868,461.926a2.151,2.151,0,1,1,3.037-.164A2.152,2.152,0,0,1,528.868,461.926Z" transform="translate(-528.154 -458.175)" stroke="#7e5ee3" stroke-width="2"/>
      </g>
    </g>
    <g id="Grupo_158506" data-name="Grupo 158506" transform="translate(190.792 264.319) rotate(-171)">
      <g id="Grupo_158497-4" data-name="Grupo 158497" transform="translate(1.673 1.619)">
        <path id="Trazado_194174-4" data-name="Trazado 194174" d="M0,0H1.43L-33.843,57.9Z" transform="translate(0 1.064) rotate(-48.081)" stroke="#7e5ee3" stroke-width="2"/>
      </g>
      <g id="Grupo_158498-4" data-name="Grupo 158498">
        <path id="Trazado_194172-4" data-name="Trazado 194172" d="M528.868,461.926a2.151,2.151,0,1,1,3.037-.164A2.152,2.152,0,0,1,528.868,461.926Z" transform="translate(-528.154 -458.175)" stroke="#7e5ee3" stroke-width="2"/>
      </g>
    </g>
    <g id="Grupo_158507" data-name="Grupo 158507" transform="matrix(0.819, 0.574, -0.574, 0.819, 237.899, 325.832)">
      <g id="Grupo_158497-5" data-name="Grupo 158497" transform="translate(1.673 1.619)">
        <path id="Trazado_194174-5" data-name="Trazado 194174" d="M0,0H1.43L-33.843,57.9Z" transform="translate(0 1.064) rotate(-48.081)" stroke="#7e5ee3" stroke-width="2"/>
      </g>
      <g id="Grupo_158498-5" data-name="Grupo 158498">
        <path id="Trazado_194172-5" data-name="Trazado 194172" d="M528.868,461.926a2.151,2.151,0,1,1,3.037-.164A2.152,2.152,0,0,1,528.868,461.926Z" transform="translate(-528.154 -458.175)" stroke="#7e5ee3" stroke-width="2"/>
      </g>
    </g>
    <g id="Grupo_158508" data-name="Grupo 158508" transform="matrix(0.602, -0.799, 0.799, 0.602, 261.245, 374.749)">
      <g id="Grupo_158497-6" data-name="Grupo 158497" transform="translate(1.673 1.619)">
        <path id="Trazado_194174-6" data-name="Trazado 194174" d="M0,0H1.43L-33.843,57.9Z" transform="translate(0 1.064) rotate(-48.081)" stroke="#7e5ee3" stroke-width="2"/>
      </g>
      <g id="Grupo_158498-6" data-name="Grupo 158498">
        <path id="Trazado_194172-6" data-name="Trazado 194172" d="M528.868,461.926a2.151,2.151,0,1,1,3.037-.164A2.152,2.152,0,0,1,528.868,461.926Z" transform="translate(-528.154 -458.175)" stroke="#7e5ee3" stroke-width="2"/>
      </g>
    </g>
    <text id="Lbulo_parietal_" data-name="Lbulo parietal
" transform="translate(201.932 93.826)" fill="#12263f" font-size="13" font-family="Roboto-Regular, Roboto"><tspan x="19.281" y="12">Lbulo </tspan><tspan x="17.361" y="30">parietal</tspan></text>
    <text id="Lbulo_frontal" data-name="Lbulo frontal" transform="translate(353.932 109.826)" fill="#12263f" font-size="13" font-family="Roboto-Regular, Roboto"><tspan x="19.281" y="12">Lbulo </tspan><tspan x="20.078" y="30">frontal</tspan></text>
    <text id="Lbulo_temporal" data-name="Lbulo temporal" transform="translate(360.932 339.826)" fill="#12263f" font-size="13" font-family="Roboto-Regular, Roboto"><tspan x="19.281" y="12">Lbulo </tspan><tspan x="13.197" y="30">temporal</tspan></text>
    <text id="Medula_espinal" data-name="Medula espinal" transform="translate(313.932 385.826)" fill="#12263f" font-size="13" font-family="Roboto-Regular, Roboto"><tspan x="17.52" y="12">Medula </tspan><tspan x="18.281" y="30">espinal</tspan></text>
    <text id="Cerebelo" transform="translate(170.932 394.826)" fill="#12263f" font-size="13" font-family="Roboto-Regular, Roboto"><tspan x="13.368" y="12">Cerebelo</tspan></text>
    <text id="Lbulo_occipital._" data-name="Lbulo occipital.
" transform="translate(151.932 157.826)" fill="#12263f" font-size="13" font-family="Roboto-Regular, Roboto"><tspan x="11.781" y="12">Lbulo </tspan><tspan x="5.24" y="30">occipital.</tspan></text>
  </g>
</svg>
