<svg xmlns="http://www.w3.org/2000/svg" width="476.513" height="282.879" viewBox="0 0 476.513 282.879">
  <g id="Grupo_163044" data-name="Grupo 163044" transform="translate(-917.773 -1276)">
    <path id="Trazado_202975" data-name="Trazado 202975" d="M7.594,9.977H2.82V15H1.32V3.625H8.367V4.852H2.82v3.9H7.594ZM11.508,15H10.063V3h1.445Zm7.531,0a3.036,3.036,0,0,1-.2-.891,3.225,3.225,0,0,1-2.406,1.047,2.984,2.984,0,0,1-2.051-.707,2.287,2.287,0,0,1-.8-1.793,2.39,2.39,0,0,1,1-2.051,4.733,4.733,0,0,1,2.824-.73h1.406V9.211A1.623,1.623,0,0,0,18.359,8a1.821,1.821,0,0,0-1.336-.449,2.108,2.108,0,0,0-1.3.391,1.151,1.151,0,0,0-.523.945H13.75A2,2,0,0,1,14.2,7.668a3.066,3.066,0,0,1,1.219-.934,4.1,4.1,0,0,1,1.691-.344,3.342,3.342,0,0,1,2.289.73,2.635,2.635,0,0,1,.859,2.012v3.891a4.757,4.757,0,0,0,.3,1.852V15Zm-2.4-1.1a2.54,2.54,0,0,0,1.289-.352,2.127,2.127,0,0,0,.883-.914V10.9H17.68q-2.656,0-2.656,1.555a1.316,1.316,0,0,0,.453,1.063A1.742,1.742,0,0,0,16.641,13.9Zm8.555-.859,2.094-6.492h1.477L25.734,15h-1.1L21.57,6.547h1.477ZM29.656,10.7a4.993,4.993,0,0,1,.488-2.234A3.643,3.643,0,0,1,31.5,6.93a3.7,3.7,0,0,1,1.988-.539,3.565,3.565,0,0,1,2.793,1.2,4.6,4.6,0,0,1,1.066,3.18v.1a5.036,5.036,0,0,1-.473,2.215,3.589,3.589,0,0,1-1.352,1.527,3.743,3.743,0,0,1-2.02.547,3.556,3.556,0,0,1-2.785-1.2A4.575,4.575,0,0,1,29.656,10.8Zm1.453.172a3.616,3.616,0,0,0,.652,2.258,2.211,2.211,0,0,0,3.5-.012,3.955,3.955,0,0,0,.648-2.418,3.61,3.61,0,0,0-.66-2.254,2.1,2.1,0,0,0-1.754-.863,2.075,2.075,0,0,0-1.727.852A3.925,3.925,0,0,0,31.109,10.867Zm9.422-4.32.047,1.063a3.08,3.08,0,0,1,2.531-1.219q2.68,0,2.7,3.023V15H44.367V9.406a1.946,1.946,0,0,0-.418-1.352,1.675,1.675,0,0,0-1.277-.437,2.086,2.086,0,0,0-1.234.375,2.546,2.546,0,0,0-.828.984V15H39.164V6.547ZM47.609,10.7A4.993,4.993,0,0,1,48.1,8.461,3.643,3.643,0,0,1,49.457,6.93a3.7,3.7,0,0,1,1.988-.539,3.565,3.565,0,0,1,2.793,1.2,4.6,4.6,0,0,1,1.066,3.18v.1a5.036,5.036,0,0,1-.473,2.215,3.589,3.589,0,0,1-1.352,1.527,3.743,3.743,0,0,1-2.02.547,3.556,3.556,0,0,1-2.785-1.2A4.575,4.575,0,0,1,47.609,10.8Zm1.453.172a3.616,3.616,0,0,0,.652,2.258,2.211,2.211,0,0,0,3.5-.012,3.955,3.955,0,0,0,.648-2.418,3.61,3.61,0,0,0-.66-2.254,2.1,2.1,0,0,0-1.754-.863,2.075,2.075,0,0,0-1.727.852A3.925,3.925,0,0,0,49.063,10.867ZM58.688,15H57.242V3h1.445Zm2.266,2.266-.82-.562a3.77,3.77,0,0,0,.766-2.109v-1.3h1.414v1.133A3.559,3.559,0,0,1,61.926,16,3.7,3.7,0,0,1,60.953,17.266ZM6.375,28.219a10.282,10.282,0,0,0-1.562-.156q-1.563,0-1.562,1.646v.839h1.8v1.117H3.25V39H1.8V31.664H.469V30.547H1.8v-.922a2.757,2.757,0,0,1,.758-2.07A2.96,2.96,0,0,1,4.7,26.836a19.688,19.688,0,0,1,3.125.477V39H6.375ZM15.4,39a3.036,3.036,0,0,1-.2-.891,3.225,3.225,0,0,1-2.406,1.047,2.984,2.984,0,0,1-2.051-.707,2.287,2.287,0,0,1-.8-1.793,2.39,2.39,0,0,1,1-2.051,4.733,4.733,0,0,1,2.824-.73h1.406v-.664A1.623,1.623,0,0,0,14.719,32a1.821,1.821,0,0,0-1.336-.449,2.108,2.108,0,0,0-1.3.391,1.151,1.151,0,0,0-.523.945H10.109a2,2,0,0,1,.449-1.223,3.066,3.066,0,0,1,1.219-.934,4.1,4.1,0,0,1,1.691-.344,3.342,3.342,0,0,1,2.289.73,2.635,2.635,0,0,1,.859,2.012v3.891a4.757,4.757,0,0,0,.3,1.852V39ZM13,37.9a2.54,2.54,0,0,0,1.289-.352,2.127,2.127,0,0,0,.883-.914V34.9H14.039q-2.656,0-2.656,1.555a1.316,1.316,0,0,0,.453,1.063A1.742,1.742,0,0,0,13,37.9Zm8.555-.859,2.094-6.492h1.477L22.094,39h-1.1L17.93,30.547h1.477ZM26.016,34.7a4.993,4.993,0,0,1,.488-2.234,3.643,3.643,0,0,1,1.359-1.531,3.7,3.7,0,0,1,1.988-.539,3.565,3.565,0,0,1,2.793,1.2,4.6,4.6,0,0,1,1.066,3.18v.1a5.036,5.036,0,0,1-.473,2.215,3.589,3.589,0,0,1-1.352,1.527,3.743,3.743,0,0,1-2.02.547,3.556,3.556,0,0,1-2.785-1.2A4.575,4.575,0,0,1,26.016,34.8Zm1.453.172a3.616,3.616,0,0,0,.652,2.258,2.211,2.211,0,0,0,3.5-.012,3.955,3.955,0,0,0,.648-2.418,3.61,3.61,0,0,0-.66-2.254,2.1,2.1,0,0,0-1.754-.863,2.075,2.075,0,0,0-1.727.852A3.925,3.925,0,0,0,27.469,34.867Zm9.422-4.32.047,1.063a3.08,3.08,0,0,1,2.531-1.219q2.68,0,2.7,3.023V39H40.727V33.406a1.946,1.946,0,0,0-.418-1.352,1.675,1.675,0,0,0-1.277-.437,2.086,2.086,0,0,0-1.234.375,2.546,2.546,0,0,0-.828.984V39H35.523V30.547ZM49.57,39a3.036,3.036,0,0,1-.2-.891,3.225,3.225,0,0,1-2.406,1.047,2.984,2.984,0,0,1-2.051-.707,2.287,2.287,0,0,1-.8-1.793,2.39,2.39,0,0,1,1-2.051,4.733,4.733,0,0,1,2.824-.73h1.406v-.664A1.623,1.623,0,0,0,48.891,32a1.821,1.821,0,0,0-1.336-.449,2.107,2.107,0,0,0-1.3.391,1.151,1.151,0,0,0-.523.945H44.281a2,2,0,0,1,.449-1.223,3.066,3.066,0,0,1,1.219-.934,4.1,4.1,0,0,1,1.691-.344,3.342,3.342,0,0,1,2.289.73,2.635,2.635,0,0,1,.859,2.012v3.891a4.757,4.757,0,0,0,.3,1.852V39Zm-2.4-1.1a2.54,2.54,0,0,0,1.289-.352,2.127,2.127,0,0,0,.883-.914V34.9H48.211q-2.656,0-2.656,1.555a1.316,1.316,0,0,0,.453,1.063A1.742,1.742,0,0,0,47.172,37.9Zm5.836,3.367-.82-.562a3.77,3.77,0,0,0,.766-2.109v-1.3h1.414v1.133A3.559,3.559,0,0,1,53.98,40,3.7,3.7,0,0,1,53.008,41.266ZM2.664,63H1.219V54.547H2.664ZM1.1,52.3a.863.863,0,0,1,.215-.594.807.807,0,0,1,.637-.242.819.819,0,0,1,.641.242.854.854,0,0,1,.219.594.826.826,0,0,1-.219.586.834.834,0,0,1-.641.234.821.821,0,0,1-.637-.234A.834.834,0,0,1,1.1,52.3Zm8.8,8.453a1.064,1.064,0,0,0-.441-.91,4.249,4.249,0,0,0-1.539-.559,7.277,7.277,0,0,1-1.742-.562,2.479,2.479,0,0,1-.953-.781,1.869,1.869,0,0,1-.309-1.078,2.193,2.193,0,0,1,.879-1.758,3.432,3.432,0,0,1,2.246-.719,3.532,3.532,0,0,1,2.332.742,2.357,2.357,0,0,1,.895,1.9H9.813a1.3,1.3,0,0,0-.5-1.023,1.888,1.888,0,0,0-1.27-.43,1.976,1.976,0,0,0-1.234.344,1.082,1.082,0,0,0-.445.9.877.877,0,0,0,.414.789,5.1,5.1,0,0,0,1.5.508,7.8,7.8,0,0,1,1.754.578,2.558,2.558,0,0,1,1,.809,1.988,1.988,0,0,1,.324,1.152,2.163,2.163,0,0,1-.906,1.816,3.8,3.8,0,0,1-2.352.684,4.257,4.257,0,0,1-1.8-.359,2.922,2.922,0,0,1-1.223-1A2.42,2.42,0,0,1,4.625,60.4H6.07a1.5,1.5,0,0,0,.582,1.152,2.258,2.258,0,0,0,1.434.426A2.331,2.331,0,0,0,9.4,61.645,1.02,1.02,0,0,0,9.9,60.758ZM12.844,58.7a4.993,4.993,0,0,1,.488-2.234,3.643,3.643,0,0,1,1.359-1.531,3.7,3.7,0,0,1,1.988-.539,3.565,3.565,0,0,1,2.793,1.2,4.6,4.6,0,0,1,1.066,3.18v.1a5.036,5.036,0,0,1-.473,2.215,3.589,3.589,0,0,1-1.352,1.527,3.743,3.743,0,0,1-2.02.547,3.556,3.556,0,0,1-2.785-1.2A4.575,4.575,0,0,1,12.844,58.8Zm1.453.172a3.616,3.616,0,0,0,.652,2.258,2.211,2.211,0,0,0,3.5-.012,3.955,3.955,0,0,0,.648-2.418,3.61,3.61,0,0,0-.66-2.254,2.1,2.1,0,0,0-1.754-.863,2.075,2.075,0,0,0-1.727.852A3.925,3.925,0,0,0,14.3,58.867Zm13.336-6.648a10.282,10.282,0,0,0-1.562-.156q-1.562,0-1.562,1.646v.839h1.8v1.117h-1.8V63H23.063V55.664H21.727V54.547h1.336v-.922a2.757,2.757,0,0,1,.758-2.07,2.96,2.96,0,0,1,2.133-.719,19.688,19.688,0,0,1,3.125.477V63H27.633ZM36.656,63a3.036,3.036,0,0,1-.2-.891,3.225,3.225,0,0,1-2.406,1.047A2.984,2.984,0,0,1,32,62.449a2.287,2.287,0,0,1-.8-1.793,2.39,2.39,0,0,1,1-2.051,4.733,4.733,0,0,1,2.824-.73H36.43v-.664A1.623,1.623,0,0,0,35.977,56a1.821,1.821,0,0,0-1.336-.449,2.107,2.107,0,0,0-1.3.391,1.151,1.151,0,0,0-.523.945H31.367a2,2,0,0,1,.449-1.223,3.066,3.066,0,0,1,1.219-.934,4.1,4.1,0,0,1,1.691-.344,3.342,3.342,0,0,1,2.289.73,2.635,2.635,0,0,1,.859,2.012v3.891a4.757,4.757,0,0,0,.3,1.852V63Zm-2.4-1.1a2.54,2.54,0,0,0,1.289-.352,2.127,2.127,0,0,0,.883-.914V58.9H35.3q-2.656,0-2.656,1.555a1.316,1.316,0,0,0,.453,1.063A1.742,1.742,0,0,0,34.258,61.9Zm8.555-.859,2.094-6.492h1.477L43.352,63h-1.1l-3.062-8.453h1.477ZM47.273,58.7a4.993,4.993,0,0,1,.488-2.234,3.643,3.643,0,0,1,1.359-1.531,3.7,3.7,0,0,1,1.988-.539,3.565,3.565,0,0,1,2.793,1.2,4.6,4.6,0,0,1,1.066,3.18v.1a5.036,5.036,0,0,1-.473,2.215,3.589,3.589,0,0,1-1.352,1.527,3.743,3.743,0,0,1-2.02.547,3.556,3.556,0,0,1-2.785-1.2A4.575,4.575,0,0,1,47.273,58.8Zm1.453.172a3.616,3.616,0,0,0,.652,2.258,2.211,2.211,0,0,0,3.5-.012,3.955,3.955,0,0,0,.648-2.418,3.61,3.61,0,0,0-.66-2.254,2.1,2.1,0,0,0-1.754-.863,2.075,2.075,0,0,0-1.727.852A3.925,3.925,0,0,0,48.727,58.867Zm9.422-4.32.047,1.063a3.08,3.08,0,0,1,2.531-1.219q2.68,0,2.7,3.023V63H61.984V57.406a1.946,1.946,0,0,0-.418-1.352,1.675,1.675,0,0,0-1.277-.437,2.086,2.086,0,0,0-1.234.375,2.546,2.546,0,0,0-.828.984V63H56.781V54.547ZM70.828,63a3.036,3.036,0,0,1-.2-.891,3.225,3.225,0,0,1-2.406,1.047,2.984,2.984,0,0,1-2.051-.707,2.288,2.288,0,0,1-.8-1.793,2.39,2.39,0,0,1,1-2.051,4.733,4.733,0,0,1,2.824-.73H70.6v-.664A1.623,1.623,0,0,0,70.148,56a1.821,1.821,0,0,0-1.336-.449,2.107,2.107,0,0,0-1.3.391,1.151,1.151,0,0,0-.523.945H65.539a2,2,0,0,1,.449-1.223,3.066,3.066,0,0,1,1.219-.934,4.1,4.1,0,0,1,1.691-.344,3.342,3.342,0,0,1,2.289.73,2.635,2.635,0,0,1,.859,2.012v3.891a4.757,4.757,0,0,0,.3,1.852V63Zm-2.4-1.1a2.54,2.54,0,0,0,1.289-.352,2.127,2.127,0,0,0,.883-.914V58.9H69.469q-2.656,0-2.656,1.555a1.316,1.316,0,0,0,.453,1.063A1.742,1.742,0,0,0,68.43,61.9Zm5.836,3.367-.82-.562a3.77,3.77,0,0,0,.766-2.109v-1.3h1.414v1.133A3.559,3.559,0,0,1,75.238,64,3.7,3.7,0,0,1,74.266,65.266ZM6.313,87a3.036,3.036,0,0,1-.2-.891A3.225,3.225,0,0,1,3.7,87.156a2.984,2.984,0,0,1-2.051-.707,2.287,2.287,0,0,1-.8-1.793,2.39,2.39,0,0,1,1-2.051,4.733,4.733,0,0,1,2.824-.73H6.086v-.664A1.623,1.623,0,0,0,5.633,80,1.821,1.821,0,0,0,4.3,79.555a2.108,2.108,0,0,0-1.3.391,1.151,1.151,0,0,0-.523.945H1.023a2,2,0,0,1,.449-1.223,3.066,3.066,0,0,1,1.219-.934,4.1,4.1,0,0,1,1.691-.344,3.342,3.342,0,0,1,2.289.73,2.635,2.635,0,0,1,.859,2.012v3.891a4.757,4.757,0,0,0,.3,1.852V87Zm-2.4-1.1A2.54,2.54,0,0,0,5.2,85.547a2.127,2.127,0,0,0,.883-.914V82.9H4.953Q2.3,82.9,2.3,84.453a1.316,1.316,0,0,0,.453,1.063A1.742,1.742,0,0,0,3.914,85.9Zm7.25-7.352.047,1.063a3.08,3.08,0,0,1,2.531-1.219q2.68,0,2.7,3.023V87H15V81.406a1.946,1.946,0,0,0-.418-1.352,1.675,1.675,0,0,0-1.277-.437,2.086,2.086,0,0,0-1.234.375,2.546,2.546,0,0,0-.828.984V87H9.8V78.547ZM20.586,76.5v2.047h1.578v1.117H20.586v5.249a1.173,1.173,0,0,0,.211.763.888.888,0,0,0,.719.254,3.5,3.5,0,0,0,.688-.094V87a4.215,4.215,0,0,1-1.109.155,1.8,1.8,0,0,1-1.461-.586,2.517,2.517,0,0,1-.492-1.664V79.664H17.6V78.547h1.539V76.5Zm2.727,6.2a4.993,4.993,0,0,1,.488-2.234A3.643,3.643,0,0,1,25.16,78.93a3.7,3.7,0,0,1,1.988-.539,3.565,3.565,0,0,1,2.793,1.2,4.6,4.6,0,0,1,1.066,3.18v.1a5.036,5.036,0,0,1-.473,2.215,3.589,3.589,0,0,1-1.352,1.527,3.743,3.743,0,0,1-2.02.547,3.556,3.556,0,0,1-2.785-1.2A4.575,4.575,0,0,1,23.313,82.8Zm1.453.172a3.616,3.616,0,0,0,.652,2.258,2.211,2.211,0,0,0,3.5-.012,3.955,3.955,0,0,0,.648-2.418,3.61,3.61,0,0,0-.66-2.254,2.1,2.1,0,0,0-1.754-.863,2.075,2.075,0,0,0-1.727.852A3.925,3.925,0,0,0,24.766,82.867Zm11.445,3.109a2.082,2.082,0,0,0,1.352-.469,1.649,1.649,0,0,0,.641-1.172H39.57a2.621,2.621,0,0,1-.5,1.383,3.293,3.293,0,0,1-1.23,1.047,3.55,3.55,0,0,1-1.629.391A3.482,3.482,0,0,1,33.465,86a4.59,4.59,0,0,1-1.02-3.152v-.242a5.089,5.089,0,0,1,.453-2.2,3.451,3.451,0,0,1,1.3-1.492,3.7,3.7,0,0,1,2-.531,3.39,3.39,0,0,1,2.363.852,3.043,3.043,0,0,1,1,2.211H38.2a1.992,1.992,0,0,0-.621-1.348,1.932,1.932,0,0,0-1.379-.527,2.023,2.023,0,0,0-1.707.793,3.724,3.724,0,0,0-.605,2.293v.273a3.65,3.65,0,0,0,.6,2.25A2.033,2.033,0,0,0,36.211,85.977ZM42.766,87H41.32V78.547h1.445ZM41.2,76.3a.863.863,0,0,1,.215-.594.807.807,0,0,1,.637-.242.819.819,0,0,1,.641.242.854.854,0,0,1,.219.594.826.826,0,0,1-.219.586.834.834,0,0,1-.641.234.821.821,0,0,1-.637-.234A.834.834,0,0,1,41.2,76.3ZM50.3,87a3.036,3.036,0,0,1-.2-.891,3.225,3.225,0,0,1-2.406,1.047,2.984,2.984,0,0,1-2.051-.707,2.287,2.287,0,0,1-.8-1.793,2.39,2.39,0,0,1,1-2.051,4.733,4.733,0,0,1,2.824-.73H50.07v-.664A1.623,1.623,0,0,0,49.617,80a1.821,1.821,0,0,0-1.336-.449,2.108,2.108,0,0,0-1.3.391,1.151,1.151,0,0,0-.523.945H45.008a2,2,0,0,1,.449-1.223,3.066,3.066,0,0,1,1.219-.934,4.1,4.1,0,0,1,1.691-.344,3.342,3.342,0,0,1,2.289.73,2.635,2.635,0,0,1,.859,2.012v3.891a4.757,4.757,0,0,0,.3,1.852V87Zm-2.4-1.1a2.54,2.54,0,0,0,1.289-.352,2.127,2.127,0,0,0,.883-.914V82.9H48.938q-2.656,0-2.656,1.555a1.316,1.316,0,0,0,.453,1.063A1.742,1.742,0,0,0,47.9,85.9Zm7.25-7.352.047,1.063a3.08,3.08,0,0,1,2.531-1.219q2.68,0,2.7,3.023V87H58.984V81.406a1.946,1.946,0,0,0-.418-1.352,1.675,1.675,0,0,0-1.277-.437,2.086,2.086,0,0,0-1.234.375,2.546,2.546,0,0,0-.828.984V87H53.781V78.547ZM64.18,87H62.734V78.547H64.18ZM62.617,76.3a.863.863,0,0,1,.215-.594.807.807,0,0,1,.637-.242.819.819,0,0,1,.641.242.854.854,0,0,1,.219.594.826.826,0,0,1-.219.586.834.834,0,0,1-.641.234.821.821,0,0,1-.637-.234A.834.834,0,0,1,62.617,76.3Zm5.242,2.242.047,1.063a3.08,3.08,0,0,1,2.531-1.219q2.68,0,2.7,3.023V87H71.7V81.406a1.946,1.946,0,0,0-.418-1.352A1.675,1.675,0,0,0,70,79.617a2.086,2.086,0,0,0-1.234.375,2.546,2.546,0,0,0-.828.984V87H66.492V78.547ZM80.539,87a3.036,3.036,0,0,1-.2-.891,3.225,3.225,0,0,1-2.406,1.047,2.984,2.984,0,0,1-2.051-.707,2.287,2.287,0,0,1-.8-1.793,2.39,2.39,0,0,1,1-2.051,4.733,4.733,0,0,1,2.824-.73h1.406v-.664A1.623,1.623,0,0,0,79.859,80a1.821,1.821,0,0,0-1.336-.449,2.108,2.108,0,0,0-1.3.391,1.151,1.151,0,0,0-.523.945H75.25a2,2,0,0,1,.449-1.223,3.066,3.066,0,0,1,1.219-.934,4.1,4.1,0,0,1,1.691-.344,3.342,3.342,0,0,1,2.289.73,2.635,2.635,0,0,1,.859,2.012v3.891a4.757,4.757,0,0,0,.3,1.852V87Zm-2.4-1.1a2.54,2.54,0,0,0,1.289-.352,2.127,2.127,0,0,0,.883-.914V82.9H79.18q-2.656,0-2.656,1.555a1.316,1.316,0,0,0,.453,1.063A1.742,1.742,0,0,0,78.141,85.9Zm5.836,3.367-.82-.562a3.77,3.77,0,0,0,.766-2.109v-1.3h1.414v1.133A3.559,3.559,0,0,1,84.949,88,3.7,3.7,0,0,1,83.977,89.266Zm-77.6,10.953a10.282,10.282,0,0,0-1.562-.156q-1.563,0-1.562,1.646v.839h1.8v1.117H3.25V111H1.8v-7.336H.469v-1.117H1.8v-.922a2.757,2.757,0,0,1,.758-2.07A2.96,2.96,0,0,1,4.7,98.836a19.688,19.688,0,0,1,3.125.477V111H6.375ZM15.4,111a3.036,3.036,0,0,1-.2-.891,3.225,3.225,0,0,1-2.406,1.047,2.984,2.984,0,0,1-2.051-.707,2.287,2.287,0,0,1-.8-1.793,2.39,2.39,0,0,1,1-2.051,4.733,4.733,0,0,1,2.824-.73h1.406v-.664A1.623,1.623,0,0,0,14.719,104a1.821,1.821,0,0,0-1.336-.449,2.108,2.108,0,0,0-1.3.391,1.151,1.151,0,0,0-.523.945H10.109a2,2,0,0,1,.449-1.223,3.066,3.066,0,0,1,1.219-.934,4.1,4.1,0,0,1,1.691-.344,3.342,3.342,0,0,1,2.289.73,2.635,2.635,0,0,1,.859,2.012v3.891a4.757,4.757,0,0,0,.3,1.852V111ZM13,109.9a2.54,2.54,0,0,0,1.289-.352,2.127,2.127,0,0,0,.883-.914V106.9H14.039q-2.656,0-2.656,1.555a1.316,1.316,0,0,0,.453,1.063A1.742,1.742,0,0,0,13,109.9Zm8.555-.859,2.094-6.492h1.477L22.094,111h-1.1l-3.062-8.453h1.477ZM31.617,111a3.036,3.036,0,0,1-.2-.891,3.225,3.225,0,0,1-2.406,1.047,2.984,2.984,0,0,1-2.051-.707,2.287,2.287,0,0,1-.8-1.793,2.39,2.39,0,0,1,1-2.051,4.733,4.733,0,0,1,2.824-.73h1.406v-.664A1.623,1.623,0,0,0,30.938,104a1.821,1.821,0,0,0-1.336-.449,2.108,2.108,0,0,0-1.3.391,1.151,1.151,0,0,0-.523.945H26.328a2,2,0,0,1,.449-1.223A3.066,3.066,0,0,1,28,102.734a4.1,4.1,0,0,1,1.691-.344,3.342,3.342,0,0,1,2.289.73,2.635,2.635,0,0,1,.859,2.012v3.891a4.757,4.757,0,0,0,.3,1.852V111Zm-2.4-1.1a2.54,2.54,0,0,0,1.289-.352,2.127,2.127,0,0,0,.883-.914V106.9H30.258q-2.656,0-2.656,1.555a1.316,1.316,0,0,0,.453,1.063A1.742,1.742,0,0,0,29.219,109.9Zm7.25-7.352.047,1.063a3.08,3.08,0,0,1,2.531-1.219q2.68,0,2.7,3.023V111H40.3v-5.594a1.946,1.946,0,0,0-.418-1.352,1.675,1.675,0,0,0-1.277-.437,2.086,2.086,0,0,0-1.234.375,2.546,2.546,0,0,0-.828.984V111H35.1v-8.453Zm7.078,4.148a4.993,4.993,0,0,1,.488-2.234,3.642,3.642,0,0,1,1.359-1.531,3.7,3.7,0,0,1,1.988-.539,3.565,3.565,0,0,1,2.793,1.2,4.6,4.6,0,0,1,1.066,3.18v.1a5.036,5.036,0,0,1-.473,2.215,3.589,3.589,0,0,1-1.352,1.527,3.743,3.743,0,0,1-2.02.547,3.556,3.556,0,0,1-2.785-1.2,4.575,4.575,0,0,1-1.066-3.164Zm1.453.172a3.616,3.616,0,0,0,.652,2.258,2.211,2.211,0,0,0,3.5-.012A3.955,3.955,0,0,0,49.8,106.7a3.61,3.61,0,0,0-.66-2.254,2.1,2.1,0,0,0-1.754-.863,2.075,2.075,0,0,0-1.727.852A3.925,3.925,0,0,0,45,106.867Zm9.422-4.32.047,1.063A3.08,3.08,0,0,1,57,102.391q2.68,0,2.7,3.023V111H58.258v-5.594a1.946,1.946,0,0,0-.418-1.352,1.675,1.675,0,0,0-1.277-.437,2.086,2.086,0,0,0-1.234.375,2.546,2.546,0,0,0-.828.984V111H53.055v-8.453ZM67.1,111a3.036,3.036,0,0,1-.2-.891,3.225,3.225,0,0,1-2.406,1.047,2.984,2.984,0,0,1-2.051-.707,2.287,2.287,0,0,1-.8-1.793,2.39,2.39,0,0,1,1-2.051,4.733,4.733,0,0,1,2.824-.73h1.406v-.664A1.623,1.623,0,0,0,66.422,104a1.821,1.821,0,0,0-1.336-.449,2.108,2.108,0,0,0-1.3.391,1.151,1.151,0,0,0-.523.945H61.813a2,2,0,0,1,.449-1.223,3.066,3.066,0,0,1,1.219-.934,4.1,4.1,0,0,1,1.691-.344,3.342,3.342,0,0,1,2.289.73,2.635,2.635,0,0,1,.859,2.012v3.891a4.757,4.757,0,0,0,.3,1.852V111Zm-2.4-1.1a2.54,2.54,0,0,0,1.289-.352,2.127,2.127,0,0,0,.883-.914V106.9H65.742q-2.656,0-2.656,1.555a1.316,1.316,0,0,0,.453,1.063A1.742,1.742,0,0,0,64.7,109.9Zm5.836,3.367-.82-.562a3.77,3.77,0,0,0,.766-2.109v-1.3H71.9v1.133A3.559,3.559,0,0,1,71.512,112,3.7,3.7,0,0,1,70.539,113.266ZM6.375,124.219a10.282,10.282,0,0,0-1.562-.156q-1.563,0-1.562,1.646v.839h1.8v1.117H3.25V135H1.8v-7.336H.469v-1.117H1.8v-.922a2.757,2.757,0,0,1,.758-2.07,2.96,2.96,0,0,1,2.133-.719,19.688,19.688,0,0,1,3.125.477V135H6.375ZM15.4,135a3.036,3.036,0,0,1-.2-.891,3.225,3.225,0,0,1-2.406,1.047,2.984,2.984,0,0,1-2.051-.707,2.288,2.288,0,0,1-.8-1.793,2.39,2.39,0,0,1,1-2.051,4.733,4.733,0,0,1,2.824-.73h1.406v-.664A1.623,1.623,0,0,0,14.719,128a1.821,1.821,0,0,0-1.336-.449,2.108,2.108,0,0,0-1.3.391,1.151,1.151,0,0,0-.523.945H10.109a2,2,0,0,1,.449-1.223,3.066,3.066,0,0,1,1.219-.934,4.1,4.1,0,0,1,1.691-.344,3.342,3.342,0,0,1,2.289.73,2.635,2.635,0,0,1,.859,2.012v3.891a4.757,4.757,0,0,0,.3,1.852V135ZM13,133.9a2.54,2.54,0,0,0,1.289-.352,2.127,2.127,0,0,0,.883-.914V130.9H14.039q-2.656,0-2.656,1.555a1.316,1.316,0,0,0,.453,1.063A1.742,1.742,0,0,0,13,133.9Zm8.555-.859,2.094-6.492h1.477L22.094,135h-1.1l-3.062-8.453h1.477ZM31.617,135a3.036,3.036,0,0,1-.2-.891,3.225,3.225,0,0,1-2.406,1.047,2.984,2.984,0,0,1-2.051-.707,2.288,2.288,0,0,1-.8-1.793,2.39,2.39,0,0,1,1-2.051,4.733,4.733,0,0,1,2.824-.73h1.406v-.664A1.623,1.623,0,0,0,30.938,128a1.821,1.821,0,0,0-1.336-.449,2.108,2.108,0,0,0-1.3.391,1.151,1.151,0,0,0-.523.945H26.328a2,2,0,0,1,.449-1.223A3.066,3.066,0,0,1,28,126.734a4.1,4.1,0,0,1,1.691-.344,3.342,3.342,0,0,1,2.289.73,2.635,2.635,0,0,1,.859,2.012v3.891a4.757,4.757,0,0,0,.3,1.852V135Zm-2.4-1.1a2.54,2.54,0,0,0,1.289-.352,2.127,2.127,0,0,0,.883-.914V130.9H30.258q-2.656,0-2.656,1.555a1.316,1.316,0,0,0,.453,1.063A1.742,1.742,0,0,0,29.219,133.9Zm7.25-7.352.047,1.063a3.08,3.08,0,0,1,2.531-1.219q2.68,0,2.7,3.023V135H40.3v-5.594a1.946,1.946,0,0,0-.418-1.352,1.675,1.675,0,0,0-1.277-.437,2.086,2.086,0,0,0-1.234.375,2.546,2.546,0,0,0-.828.984V135H35.1v-8.453Zm10.469,4.211H43.125v-1.18h3.813Zm3.359-2.148h1.086a2.387,2.387,0,0,0,1.609-.539,1.8,1.8,0,0,0,.586-1.414,1.764,1.764,0,0,0-1.992-2,2.072,2.072,0,0,0-1.5.535,1.873,1.873,0,0,0-.559,1.418H48.086a2.9,2.9,0,0,1,.988-2.246,3.6,3.6,0,0,1,2.512-.895,3.558,3.558,0,0,1,2.523.852,3.076,3.076,0,0,1,.914,2.367,2.5,2.5,0,0,1-.48,1.438,2.9,2.9,0,0,1-1.309,1.039,2.8,2.8,0,0,1,1.449.984,2.734,2.734,0,0,1,.512,1.68,3.1,3.1,0,0,1-1,2.43,3.745,3.745,0,0,1-2.6.9,3.844,3.844,0,0,1-2.605-.867,2.877,2.877,0,0,1-1-2.289h1.453a1.859,1.859,0,0,0,.586,1.438,2.229,2.229,0,0,0,1.57.539,2.187,2.187,0,0,0,1.6-.547,2.108,2.108,0,0,0,.555-1.57,1.912,1.912,0,0,0-.609-1.523,2.655,2.655,0,0,0-1.758-.547H50.3Zm10.039,2.148H56.523v-1.18h3.813Zm1.023-.062a4.993,4.993,0,0,1,.488-2.234,3.642,3.642,0,0,1,1.359-1.531,3.7,3.7,0,0,1,1.988-.539,3.565,3.565,0,0,1,2.793,1.2,4.6,4.6,0,0,1,1.066,3.18v.1a5.036,5.036,0,0,1-.473,2.215,3.589,3.589,0,0,1-1.352,1.527,3.743,3.743,0,0,1-2.02.547,3.556,3.556,0,0,1-2.785-1.2,4.575,4.575,0,0,1-1.066-3.164Zm1.453.172a3.616,3.616,0,0,0,.652,2.258,2.211,2.211,0,0,0,3.5-.012,3.955,3.955,0,0,0,.648-2.418,3.61,3.61,0,0,0-.66-2.254,2.1,2.1,0,0,0-1.754-.863,2.075,2.075,0,0,0-1.727.852A3.925,3.925,0,0,0,62.813,130.867ZM72.438,135H70.992V123h1.445Zm2.344-.758a.905.905,0,0,1,.223-.625.848.848,0,0,1,.668-.25.874.874,0,0,1,.676.25.887.887,0,0,1,.23.625.839.839,0,0,1-.23.6.89.89,0,0,1-.676.242.8.8,0,0,1-.891-.844Z" transform="translate(1125.287 1273)" fill="#12263f"/>
    <path id="Trazado_202979" data-name="Trazado 202979" d="M9.688,11.391a4.185,4.185,0,0,1-1.332,2.785,4.365,4.365,0,0,1-2.98.98,4.008,4.008,0,0,1-3.23-1.445A5.815,5.815,0,0,1,.93,9.844V8.75A6.481,6.481,0,0,1,1.5,5.961,4.231,4.231,0,0,1,3.1,4.113a4.47,4.47,0,0,1,2.406-.645A4.11,4.11,0,0,1,8.414,4.48a4.235,4.235,0,0,1,1.273,2.8H8.18a3.268,3.268,0,0,0-.848-1.975A2.565,2.565,0,0,0,5.508,4.7,2.684,2.684,0,0,0,3.254,5.759a4.882,4.882,0,0,0-.816,3.026v1.1a5.018,5.018,0,0,0,.773,2.948A2.5,2.5,0,0,0,5.375,13.93a2.887,2.887,0,0,0,1.918-.566,3.143,3.143,0,0,0,.887-1.973Zm1.438-.7a4.993,4.993,0,0,1,.488-2.234A3.643,3.643,0,0,1,12.973,6.93a3.7,3.7,0,0,1,1.988-.539,3.565,3.565,0,0,1,2.793,1.2,4.6,4.6,0,0,1,1.066,3.18v.1a5.036,5.036,0,0,1-.473,2.215A3.589,3.589,0,0,1,17,14.609a3.743,3.743,0,0,1-2.02.547,3.556,3.556,0,0,1-2.785-1.2A4.575,4.575,0,0,1,11.125,10.8Zm1.453.172a3.616,3.616,0,0,0,.652,2.258,2.211,2.211,0,0,0,3.5-.012,3.955,3.955,0,0,0,.648-2.418,3.61,3.61,0,0,0-.66-2.254,2.1,2.1,0,0,0-1.754-.863,2.075,2.075,0,0,0-1.727.852A3.925,3.925,0,0,0,12.578,10.867Zm9.414-4.32.039.938a3.122,3.122,0,0,1,2.508-1.094A2.417,2.417,0,0,1,26.953,7.75a3.2,3.2,0,0,1,1.1-.984,3.242,3.242,0,0,1,1.6-.375q2.781,0,2.828,2.945V15H31.031V9.422a1.941,1.941,0,0,0-.414-1.355,1.823,1.823,0,0,0-1.391-.449,1.916,1.916,0,0,0-1.336.48,1.949,1.949,0,0,0-.617,1.293V15H25.82V9.461a1.613,1.613,0,0,0-1.8-1.844A1.934,1.934,0,0,0,22.07,8.828V15H20.625V6.547Zm19.8,4.32a5.062,5.062,0,0,1-.883,3.109,2.829,2.829,0,0,1-2.391,1.18A3.1,3.1,0,0,1,36.1,14.18v4.07H34.656V6.547h1.32l.07.938A2.977,2.977,0,0,1,38.5,6.391a2.882,2.882,0,0,1,2.41,1.148,5.117,5.117,0,0,1,.887,3.2ZM40.352,10.7a3.735,3.735,0,0,0-.609-2.258,1.963,1.963,0,0,0-1.672-.828A2.125,2.125,0,0,0,36.1,8.781V12.82a2.129,2.129,0,0,0,1.984,1.156,1.954,1.954,0,0,0,1.652-.824A4.077,4.077,0,0,0,40.352,10.7Zm8.5,3.461a3.07,3.07,0,0,1-2.477.992,2.628,2.628,0,0,1-2.059-.785,3.4,3.4,0,0,1-.715-2.324v-5.5h1.445v5.461q0,1.922,1.563,1.922a2.163,2.163,0,0,0,2.2-1.234V6.547h1.445V15H48.883Zm7.109.992a3.693,3.693,0,0,1-2.8-1.129,4.19,4.19,0,0,1-1.078-3.02v-.266a5.073,5.073,0,0,1,.48-2.246A3.748,3.748,0,0,1,53.91,6.949a3.378,3.378,0,0,1,1.871-.559,3.166,3.166,0,0,1,2.563,1.086,4.7,4.7,0,0,1,.914,3.109v.6H53.531a3,3,0,0,0,.73,2.02,2.3,2.3,0,0,0,1.777.77,2.517,2.517,0,0,0,1.3-.312,3.259,3.259,0,0,0,.93-.828l.883.688A3.55,3.55,0,0,1,55.961,15.156Zm-.18-7.578a1.928,1.928,0,0,0-1.469.637A3.1,3.1,0,0,0,53.578,10h4.234V9.891a2.753,2.753,0,0,0-.594-1.707A1.815,1.815,0,0,0,55.781,7.578Zm10.07,5.18a1.064,1.064,0,0,0-.441-.91,4.249,4.249,0,0,0-1.539-.559,7.277,7.277,0,0,1-1.742-.562,2.479,2.479,0,0,1-.953-.781,1.869,1.869,0,0,1-.309-1.078,2.193,2.193,0,0,1,.879-1.758,3.432,3.432,0,0,1,2.246-.719,3.532,3.532,0,0,1,2.332.742,2.357,2.357,0,0,1,.895,1.9H65.766a1.3,1.3,0,0,0-.5-1.023,1.888,1.888,0,0,0-1.27-.43,1.976,1.976,0,0,0-1.234.344,1.082,1.082,0,0,0-.445.9.877.877,0,0,0,.414.789,5.1,5.1,0,0,0,1.5.508,7.8,7.8,0,0,1,1.754.578,2.558,2.558,0,0,1,1,.809,1.988,1.988,0,0,1,.324,1.152,2.163,2.163,0,0,1-.906,1.816,3.8,3.8,0,0,1-2.352.684,4.257,4.257,0,0,1-1.8-.359,2.922,2.922,0,0,1-1.223-1,2.42,2.42,0,0,1-.441-1.395h1.445a1.5,1.5,0,0,0,.582,1.152,2.258,2.258,0,0,0,1.434.426,2.331,2.331,0,0,0,1.316-.332A1.02,1.02,0,0,0,65.852,12.758ZM71.141,4.5V6.547h1.578V7.664H71.141v5.249a1.173,1.173,0,0,0,.211.763.888.888,0,0,0,.719.254,3.5,3.5,0,0,0,.688-.094V15a4.215,4.215,0,0,1-1.109.155,1.8,1.8,0,0,1-1.461-.586,2.517,2.517,0,0,1-.492-1.664V7.664H68.156V6.547H69.7V4.5Zm2.727,6.2a4.993,4.993,0,0,1,.488-2.234A3.643,3.643,0,0,1,75.715,6.93,3.7,3.7,0,0,1,77.7,6.391a3.565,3.565,0,0,1,2.793,1.2,4.6,4.6,0,0,1,1.066,3.18v.1a5.036,5.036,0,0,1-.473,2.215,3.589,3.589,0,0,1-1.352,1.527,3.743,3.743,0,0,1-2.02.547,3.556,3.556,0,0,1-2.785-1.2A4.575,4.575,0,0,1,73.867,10.8Zm1.453.172a3.616,3.616,0,0,0,.652,2.258,2.211,2.211,0,0,0,3.5-.012,3.955,3.955,0,0,0,.648-2.418,3.61,3.61,0,0,0-.66-2.254A2.1,2.1,0,0,0,77.7,7.578a2.075,2.075,0,0,0-1.727.852A3.925,3.925,0,0,0,75.32,10.867ZM88.3,12.758a1.064,1.064,0,0,0-.441-.91,4.249,4.249,0,0,0-1.539-.559,7.277,7.277,0,0,1-1.742-.562,2.479,2.479,0,0,1-.953-.781,1.869,1.869,0,0,1-.309-1.078,2.193,2.193,0,0,1,.879-1.758,3.432,3.432,0,0,1,2.246-.719,3.532,3.532,0,0,1,2.332.742,2.357,2.357,0,0,1,.895,1.9H88.211a1.3,1.3,0,0,0-.5-1.023,1.888,1.888,0,0,0-1.27-.43,1.976,1.976,0,0,0-1.234.344,1.082,1.082,0,0,0-.445.9.877.877,0,0,0,.414.789,5.1,5.1,0,0,0,1.5.508,7.8,7.8,0,0,1,1.754.578,2.558,2.558,0,0,1,1,.809,1.988,1.988,0,0,1,.324,1.152,2.163,2.163,0,0,1-.906,1.816,3.8,3.8,0,0,1-2.352.684,4.257,4.257,0,0,1-1.8-.359,2.922,2.922,0,0,1-1.223-1,2.42,2.42,0,0,1-.441-1.395h1.445a1.5,1.5,0,0,0,.582,1.152,2.258,2.258,0,0,0,1.434.426,2.331,2.331,0,0,0,1.316-.332A1.02,1.02,0,0,0,88.3,12.758ZM2.461,30.547l.047,1.063a3.08,3.08,0,0,1,2.531-1.219q2.68,0,2.7,3.023V39H6.3V33.406a1.946,1.946,0,0,0-.418-1.352A1.675,1.675,0,0,0,4.6,31.617a2.086,2.086,0,0,0-1.234.375,2.546,2.546,0,0,0-.828.984V39H1.094V30.547ZM11.492,39H10.047V30.547h1.445ZM9.93,28.3a.863.863,0,0,1,.215-.594.807.807,0,0,1,.637-.242.819.819,0,0,1,.641.242.854.854,0,0,1,.219.594.826.826,0,0,1-.219.586.834.834,0,0,1-.641.234.821.821,0,0,1-.637-.234A.834.834,0,0,1,9.93,28.3Zm5.836.2v2.047h1.578v1.117H15.766v5.249a1.173,1.173,0,0,0,.211.763.888.888,0,0,0,.719.254,3.5,3.5,0,0,0,.688-.094V39a4.215,4.215,0,0,1-1.109.155,1.8,1.8,0,0,1-1.461-.586,2.517,2.517,0,0,1-.492-1.664V31.664H12.781V30.547H14.32V28.5Zm7.352,3.344a4.331,4.331,0,0,0-.711-.055A1.9,1.9,0,0,0,20.477,33v6H19.031V30.547h1.406l.023.977a2.251,2.251,0,0,1,2.016-1.133,1.477,1.477,0,0,1,.641.109Zm.789,2.852a4.993,4.993,0,0,1,.488-2.234,3.643,3.643,0,0,1,1.359-1.531,3.7,3.7,0,0,1,1.988-.539,3.565,3.565,0,0,1,2.793,1.2,4.6,4.6,0,0,1,1.066,3.18v.1a5.036,5.036,0,0,1-.473,2.215,3.589,3.589,0,0,1-1.352,1.527,3.743,3.743,0,0,1-2.02.547,3.556,3.556,0,0,1-2.785-1.2A4.575,4.575,0,0,1,23.906,34.8Zm1.453.172a3.616,3.616,0,0,0,.652,2.258,2.211,2.211,0,0,0,3.5-.012,3.955,3.955,0,0,0,.648-2.418,3.61,3.61,0,0,0-.66-2.254,2.1,2.1,0,0,0-1.754-.863,2.075,2.075,0,0,0-1.727.852A3.925,3.925,0,0,0,25.359,34.867ZM33.07,34.7a4.968,4.968,0,0,1,.914-3.145,3.151,3.151,0,0,1,4.836-.074l.07-.937h1.32V38.8a3.439,3.439,0,0,1-.973,2.586,3.589,3.589,0,0,1-2.613.945,4.348,4.348,0,0,1-1.789-.391,3.08,3.08,0,0,1-1.336-1.07L34.25,40a2.826,2.826,0,0,0,2.273,1.148,2.214,2.214,0,0,0,1.645-.594,2.269,2.269,0,0,0,.59-1.672v-.727a2.971,2.971,0,0,1-2.367,1,2.887,2.887,0,0,1-2.4-1.2A5.224,5.224,0,0,1,33.07,34.7Zm1.453.164a3.79,3.79,0,0,0,.586,2.246,1.9,1.9,0,0,0,1.641.816,2.117,2.117,0,0,0,2.008-1.242V32.828a2.142,2.142,0,0,0-1.992-1.211,1.921,1.921,0,0,0-1.648.82A4.128,4.128,0,0,0,34.523,34.867ZM45.9,39.156a3.693,3.693,0,0,1-2.8-1.129,4.19,4.19,0,0,1-1.078-3.02v-.266A5.073,5.073,0,0,1,42.5,32.5a3.748,3.748,0,0,1,1.344-1.547,3.378,3.378,0,0,1,1.871-.559,3.166,3.166,0,0,1,2.563,1.086,4.7,4.7,0,0,1,.914,3.109v.6H43.469a3,3,0,0,0,.73,2.02,2.3,2.3,0,0,0,1.777.77,2.517,2.517,0,0,0,1.3-.312,3.258,3.258,0,0,0,.93-.828l.883.688A3.55,3.55,0,0,1,45.9,39.156Zm-.18-7.578a1.928,1.928,0,0,0-1.469.637A3.1,3.1,0,0,0,43.516,34H47.75v-.109a2.753,2.753,0,0,0-.594-1.707A1.815,1.815,0,0,0,45.719,31.578Zm6.516-1.031.047,1.063a3.08,3.08,0,0,1,2.531-1.219q2.68,0,2.7,3.023V39H56.07V33.406a1.946,1.946,0,0,0-.418-1.352,1.675,1.675,0,0,0-1.277-.437,2.086,2.086,0,0,0-1.234.375,2.546,2.546,0,0,0-.828.984V39H50.867V30.547ZM64.914,39a3.036,3.036,0,0,1-.2-.891A3.225,3.225,0,0,1,62.3,39.156a2.984,2.984,0,0,1-2.051-.707,2.287,2.287,0,0,1-.8-1.793,2.39,2.39,0,0,1,1-2.051,4.733,4.733,0,0,1,2.824-.73h1.406v-.664A1.623,1.623,0,0,0,64.234,32a1.821,1.821,0,0,0-1.336-.449,2.107,2.107,0,0,0-1.3.391,1.151,1.151,0,0,0-.523.945H59.625a2,2,0,0,1,.449-1.223,3.066,3.066,0,0,1,1.219-.934,4.1,4.1,0,0,1,1.691-.344,3.342,3.342,0,0,1,2.289.73,2.635,2.635,0,0,1,.859,2.012v3.891a4.757,4.757,0,0,0,.3,1.852V39Zm-2.4-1.1a2.54,2.54,0,0,0,1.289-.352,2.127,2.127,0,0,0,.883-.914V34.9H63.555q-2.656,0-2.656,1.555a1.316,1.316,0,0,0,.453,1.063A1.742,1.742,0,0,0,62.516,37.9Zm5.531-3.2a4.952,4.952,0,0,1,.922-3.129,3.137,3.137,0,0,1,4.766-.168V27H75.18V39H73.852l-.07-.906a2.943,2.943,0,0,1-2.414,1.063,2.887,2.887,0,0,1-2.395-1.2,5.008,5.008,0,0,1-.926-3.141Zm1.445.164a3.749,3.749,0,0,0,.594,2.25,1.92,1.92,0,0,0,1.641.813A2.108,2.108,0,0,0,73.734,36.7V32.813a2.125,2.125,0,0,0-1.992-1.2,1.929,1.929,0,0,0-1.656.82A4.128,4.128,0,0,0,69.492,34.867Zm7.547-.172a4.993,4.993,0,0,1,.488-2.234,3.643,3.643,0,0,1,1.359-1.531,3.7,3.7,0,0,1,1.988-.539,3.565,3.565,0,0,1,2.793,1.2,4.6,4.6,0,0,1,1.066,3.18v.1a5.036,5.036,0,0,1-.473,2.215,3.589,3.589,0,0,1-1.352,1.527,3.743,3.743,0,0,1-2.02.547,3.556,3.556,0,0,1-2.785-1.2A4.575,4.575,0,0,1,77.039,34.8Zm1.453.172a3.616,3.616,0,0,0,.652,2.258,2.211,2.211,0,0,0,3.5-.012,3.955,3.955,0,0,0,.648-2.418,3.61,3.61,0,0,0-.66-2.254,2.1,2.1,0,0,0-1.754-.863,2.075,2.075,0,0,0-1.727.852A3.925,3.925,0,0,0,78.492,34.867Zm12.977,1.891a1.064,1.064,0,0,0-.441-.91,4.249,4.249,0,0,0-1.539-.559,7.277,7.277,0,0,1-1.742-.562,2.479,2.479,0,0,1-.953-.781,1.869,1.869,0,0,1-.309-1.078,2.193,2.193,0,0,1,.879-1.758,3.432,3.432,0,0,1,2.246-.719,3.532,3.532,0,0,1,2.332.742,2.357,2.357,0,0,1,.895,1.9H91.383a1.3,1.3,0,0,0-.5-1.023,1.888,1.888,0,0,0-1.27-.43,1.976,1.976,0,0,0-1.234.344,1.082,1.082,0,0,0-.445.9.877.877,0,0,0,.414.789,5.1,5.1,0,0,0,1.5.508,7.8,7.8,0,0,1,1.754.578,2.558,2.558,0,0,1,1,.809,1.988,1.988,0,0,1,.324,1.152,2.163,2.163,0,0,1-.906,1.816,3.8,3.8,0,0,1-2.352.684,4.257,4.257,0,0,1-1.8-.359,2.922,2.922,0,0,1-1.223-1A2.42,2.42,0,0,1,86.2,36.4h1.445a1.5,1.5,0,0,0,.582,1.152,2.258,2.258,0,0,0,1.434.426,2.331,2.331,0,0,0,1.316-.332A1.02,1.02,0,0,0,91.469,36.758ZM3.859,60.883l1.969-6.336H7.375L3.977,64.3q-.789,2.109-2.508,2.109L1.2,66.391l-.539-.1V65.117l.391.031a1.923,1.923,0,0,0,1.145-.3,2.148,2.148,0,0,0,.676-1.086l.32-.859L.172,54.547H1.75ZM17.844,63a3.036,3.036,0,0,1-.2-.891,3.225,3.225,0,0,1-2.406,1.047,2.984,2.984,0,0,1-2.051-.707,2.287,2.287,0,0,1-.8-1.793,2.39,2.39,0,0,1,1-2.051,4.733,4.733,0,0,1,2.824-.73h1.406v-.664A1.623,1.623,0,0,0,17.164,56a1.821,1.821,0,0,0-1.336-.449,2.107,2.107,0,0,0-1.3.391,1.151,1.151,0,0,0-.523.945H12.555A2,2,0,0,1,13,55.668a3.066,3.066,0,0,1,1.219-.934,4.1,4.1,0,0,1,1.691-.344,3.342,3.342,0,0,1,2.289.73,2.635,2.635,0,0,1,.859,2.012v3.891a4.757,4.757,0,0,0,.3,1.852V63Zm-2.4-1.1a2.54,2.54,0,0,0,1.289-.352,2.127,2.127,0,0,0,.883-.914V58.9H16.484q-2.656,0-2.656,1.555a1.316,1.316,0,0,0,.453,1.063A1.742,1.742,0,0,0,15.445,61.9Zm7.242-.078h4.945V63H20.922V61.938l4.664-6.2H20.992v-1.2H27.4V55.57Zm11.789.344A3.07,3.07,0,0,1,32,63.156a2.628,2.628,0,0,1-2.059-.785,3.4,3.4,0,0,1-.715-2.324v-5.5h1.445v5.461q0,1.922,1.563,1.922a2.163,2.163,0,0,0,2.2-1.234V54.547h1.445V63H34.508ZM38.789,63V55.664H37.453V54.547h1.336V53.68a2.878,2.878,0,0,1,.727-2.1,2.745,2.745,0,0,1,2.055-.742,3.816,3.816,0,0,1,.992.132l-.078,1.165a4.151,4.151,0,0,0-.781-.07,1.41,1.41,0,0,0-1.086.411,1.669,1.669,0,0,0-.383,1.18v.893h1.8v1.117h-1.8V63Zm8.93-7.156a4.331,4.331,0,0,0-.711-.055A1.9,1.9,0,0,0,45.078,57v6H43.633V54.547h1.406l.023.977a2.251,2.251,0,0,1,2.016-1.133,1.477,1.477,0,0,1,.641.109ZM53.953,63a3.036,3.036,0,0,1-.2-.891,3.225,3.225,0,0,1-2.406,1.047,2.984,2.984,0,0,1-2.051-.707,2.287,2.287,0,0,1-.8-1.793,2.39,2.39,0,0,1,1-2.051,4.733,4.733,0,0,1,2.824-.73h1.406v-.664A1.623,1.623,0,0,0,53.273,56a1.821,1.821,0,0,0-1.336-.449,2.107,2.107,0,0,0-1.3.391,1.151,1.151,0,0,0-.523.945H48.664a2,2,0,0,1,.449-1.223,3.066,3.066,0,0,1,1.219-.934,4.1,4.1,0,0,1,1.691-.344,3.342,3.342,0,0,1,2.289.73,2.635,2.635,0,0,1,.859,2.012v3.891a4.757,4.757,0,0,0,.3,1.852V63Zm-2.4-1.1a2.54,2.54,0,0,0,1.289-.352,2.127,2.127,0,0,0,.883-.914V58.9H52.594q-2.656,0-2.656,1.555a1.316,1.316,0,0,0,.453,1.063A1.742,1.742,0,0,0,51.555,61.9Zm5.531-3.2a4.952,4.952,0,0,1,.922-3.129,3.137,3.137,0,0,1,4.766-.168V51h1.445V63H62.891l-.07-.906a2.943,2.943,0,0,1-2.414,1.063,2.887,2.887,0,0,1-2.395-1.2,5.008,5.008,0,0,1-.926-3.141Zm1.445.164a3.749,3.749,0,0,0,.594,2.25,1.919,1.919,0,0,0,1.641.813A2.108,2.108,0,0,0,62.773,60.7V56.813a2.125,2.125,0,0,0-1.992-1.2,1.929,1.929,0,0,0-1.656.82A4.128,4.128,0,0,0,58.531,58.867Zm7.547-.172a4.993,4.993,0,0,1,.488-2.234,3.643,3.643,0,0,1,1.359-1.531,3.7,3.7,0,0,1,1.988-.539,3.565,3.565,0,0,1,2.793,1.2,4.6,4.6,0,0,1,1.066,3.18v.1a5.036,5.036,0,0,1-.473,2.215,3.589,3.589,0,0,1-1.352,1.527,3.743,3.743,0,0,1-2.02.547,3.556,3.556,0,0,1-2.785-1.2A4.575,4.575,0,0,1,66.078,58.8Zm1.453.172a3.616,3.616,0,0,0,.652,2.258,2.211,2.211,0,0,0,3.5-.012,3.955,3.955,0,0,0,.648-2.418,3.61,3.61,0,0,0-.66-2.254,2.1,2.1,0,0,0-1.754-.863,2.075,2.075,0,0,0-1.727.852A3.925,3.925,0,0,0,67.531,58.867Zm12.977,1.891a1.064,1.064,0,0,0-.441-.91,4.249,4.249,0,0,0-1.539-.559,7.277,7.277,0,0,1-1.742-.562,2.479,2.479,0,0,1-.953-.781,1.869,1.869,0,0,1-.309-1.078,2.193,2.193,0,0,1,.879-1.758,3.432,3.432,0,0,1,2.246-.719,3.532,3.532,0,0,1,2.332.742,2.357,2.357,0,0,1,.895,1.9H80.422a1.3,1.3,0,0,0-.5-1.023,1.888,1.888,0,0,0-1.27-.43,1.976,1.976,0,0,0-1.234.344,1.082,1.082,0,0,0-.445.9.877.877,0,0,0,.414.789,5.1,5.1,0,0,0,1.5.508,7.8,7.8,0,0,1,1.754.578,2.558,2.558,0,0,1,1,.809,1.988,1.988,0,0,1,.324,1.152,2.163,2.163,0,0,1-.906,1.816,3.8,3.8,0,0,1-2.352.684,4.257,4.257,0,0,1-1.8-.359,2.922,2.922,0,0,1-1.223-1,2.42,2.42,0,0,1-.441-1.395H76.68a1.5,1.5,0,0,0,.582,1.152,2.258,2.258,0,0,0,1.434.426,2.331,2.331,0,0,0,1.316-.332A1.02,1.02,0,0,0,80.508,60.758Zm3.359,1.484a.905.905,0,0,1,.223-.625.848.848,0,0,1,.668-.25.874.874,0,0,1,.676.25.887.887,0,0,1,.23.625.839.839,0,0,1-.23.6.89.89,0,0,1-.676.242.8.8,0,0,1-.891-.844Z" transform="translate(1146.287 1480)" fill="#12263f"/>
    <path id="Trazado_202974" data-name="Trazado 202974" d="M7.594,9.977H2.82V15H1.32V3.625H8.367V4.852H2.82v3.9H7.594Zm5.688,5.18a3.693,3.693,0,0,1-2.8-1.129,4.19,4.19,0,0,1-1.078-3.02v-.266A5.073,5.073,0,0,1,9.887,8.5,3.748,3.748,0,0,1,11.23,6.949,3.378,3.378,0,0,1,13.1,6.391a3.166,3.166,0,0,1,2.563,1.086,4.7,4.7,0,0,1,.914,3.109v.6H10.852a3,3,0,0,0,.73,2.02,2.3,2.3,0,0,0,1.777.77,2.517,2.517,0,0,0,1.3-.312,3.259,3.259,0,0,0,.93-.828l.883.688A3.55,3.55,0,0,1,13.281,15.156ZM13.1,7.578a1.928,1.928,0,0,0-1.469.637A3.1,3.1,0,0,0,10.9,10h4.234V9.891a2.753,2.753,0,0,0-.594-1.707A1.815,1.815,0,0,0,13.1,7.578Zm6.516-1.031.047,1.063A3.08,3.08,0,0,1,22.2,6.391q2.68,0,2.7,3.023V15H23.453V9.406a1.946,1.946,0,0,0-.418-1.352,1.675,1.675,0,0,0-1.277-.437,2.086,2.086,0,0,0-1.234.375,2.546,2.546,0,0,0-.828.984V15H18.25V6.547ZM26.7,10.7a4.993,4.993,0,0,1,.488-2.234A3.643,3.643,0,0,1,28.543,6.93a3.7,3.7,0,0,1,1.988-.539,3.565,3.565,0,0,1,2.793,1.2,4.6,4.6,0,0,1,1.066,3.18v.1a5.036,5.036,0,0,1-.473,2.215,3.589,3.589,0,0,1-1.352,1.527,3.743,3.743,0,0,1-2.02.547,3.556,3.556,0,0,1-2.785-1.2A4.575,4.575,0,0,1,26.7,10.8Zm1.453.172a3.616,3.616,0,0,0,.652,2.258,2.211,2.211,0,0,0,3.5-.012,3.955,3.955,0,0,0,.648-2.418,3.61,3.61,0,0,0-.66-2.254,2.1,2.1,0,0,0-1.754-.863A2.075,2.075,0,0,0,28.8,8.43,3.925,3.925,0,0,0,28.148,10.867Zm3.039-7.852h1.75l-2.094,2.3-1.164,0ZM37.773,15H36.328V3h1.445Zm3.883,0H40.211V6.547h1.445ZM40.094,4.3a.863.863,0,0,1,.215-.594.807.807,0,0,1,.637-.242.819.819,0,0,1,.641.242A.854.854,0,0,1,41.8,4.3a.826.826,0,0,1-.219.586.834.834,0,0,1-.641.234.821.821,0,0,1-.637-.234A.834.834,0,0,1,40.094,4.3Zm7.266,9.672a2.082,2.082,0,0,0,1.352-.469,1.649,1.649,0,0,0,.641-1.172h1.367a2.621,2.621,0,0,1-.5,1.383,3.293,3.293,0,0,1-1.23,1.047,3.55,3.55,0,0,1-1.629.391A3.482,3.482,0,0,1,44.613,14a4.59,4.59,0,0,1-1.02-3.152v-.242a5.089,5.089,0,0,1,.453-2.2,3.451,3.451,0,0,1,1.3-1.492,3.7,3.7,0,0,1,2-.531,3.39,3.39,0,0,1,2.363.852,3.043,3.043,0,0,1,1,2.211H49.352a1.992,1.992,0,0,0-.621-1.348,1.932,1.932,0,0,0-1.379-.527,2.023,2.023,0,0,0-1.707.793,3.724,3.724,0,0,0-.605,2.293v.273a3.65,3.65,0,0,0,.6,2.25A2.033,2.033,0,0,0,47.359,13.977Zm4.6-3.281a4.993,4.993,0,0,1,.488-2.234A3.643,3.643,0,0,1,53.809,6.93,3.7,3.7,0,0,1,55.8,6.391a3.565,3.565,0,0,1,2.793,1.2,4.6,4.6,0,0,1,1.066,3.18v.1a5.036,5.036,0,0,1-.473,2.215,3.589,3.589,0,0,1-1.352,1.527,3.743,3.743,0,0,1-2.02.547,3.556,3.556,0,0,1-2.785-1.2A4.575,4.575,0,0,1,51.961,10.8Zm1.453.172a3.616,3.616,0,0,0,.652,2.258,2.211,2.211,0,0,0,3.5-.012,3.955,3.955,0,0,0,.648-2.418,3.61,3.61,0,0,0-.66-2.254A2.1,2.1,0,0,0,55.8,7.578a2.075,2.075,0,0,0-1.727.852A3.925,3.925,0,0,0,53.414,10.867Zm12.977,1.891a1.064,1.064,0,0,0-.441-.91,4.249,4.249,0,0,0-1.539-.559,7.277,7.277,0,0,1-1.742-.562,2.479,2.479,0,0,1-.953-.781,1.869,1.869,0,0,1-.309-1.078,2.193,2.193,0,0,1,.879-1.758,3.432,3.432,0,0,1,2.246-.719,3.532,3.532,0,0,1,2.332.742,2.357,2.357,0,0,1,.895,1.9H66.3a1.3,1.3,0,0,0-.5-1.023,1.888,1.888,0,0,0-1.27-.43,1.976,1.976,0,0,0-1.234.344,1.082,1.082,0,0,0-.445.9.877.877,0,0,0,.414.789,5.1,5.1,0,0,0,1.5.508,7.8,7.8,0,0,1,1.754.578,2.558,2.558,0,0,1,1,.809,1.988,1.988,0,0,1,.324,1.152,2.163,2.163,0,0,1-.906,1.816,3.8,3.8,0,0,1-2.352.684,4.257,4.257,0,0,1-1.8-.359,2.922,2.922,0,0,1-1.223-1,2.42,2.42,0,0,1-.441-1.395h1.445a1.5,1.5,0,0,0,.582,1.152,2.258,2.258,0,0,0,1.434.426,2.331,2.331,0,0,0,1.316-.332A1.02,1.02,0,0,0,66.391,12.758Zm3.359,1.484a.905.905,0,0,1,.223-.625.848.848,0,0,1,.668-.25.874.874,0,0,1,.676.25.887.887,0,0,1,.23.625.839.839,0,0,1-.23.6.89.89,0,0,1-.676.242.8.8,0,0,1-.891-.844Z" transform="translate(963.287 1338)" fill="#12263f"/>
    <path id="Trazado_202980" data-name="Trazado 202980" d="M9.18,4.852H5.523V15H4.031V4.852H.383V3.625h8.8Zm4.2,10.3a3.693,3.693,0,0,1-2.8-1.129A4.19,4.19,0,0,1,9.5,11.008v-.266A5.073,5.073,0,0,1,9.98,8.5a3.748,3.748,0,0,1,1.344-1.547A3.378,3.378,0,0,1,13.2,6.391a3.166,3.166,0,0,1,2.563,1.086,4.7,4.7,0,0,1,.914,3.109v.6H10.945a3,3,0,0,0,.73,2.02,2.3,2.3,0,0,0,1.777.77,2.517,2.517,0,0,0,1.3-.312,3.259,3.259,0,0,0,.93-.828l.883.688A3.55,3.55,0,0,1,13.375,15.156ZM13.2,7.578a1.928,1.928,0,0,0-1.469.637A3.1,3.1,0,0,0,10.992,10h4.234V9.891a2.753,2.753,0,0,0-.594-1.707A1.815,1.815,0,0,0,13.2,7.578Zm9.234.266a4.331,4.331,0,0,0-.711-.055A1.9,1.9,0,0,0,19.789,9v6H18.344V6.547H19.75l.023.977a2.251,2.251,0,0,1,2.016-1.133,1.477,1.477,0,0,1,.641.109ZM30.9,10.867a5.062,5.062,0,0,1-.883,3.109,2.829,2.829,0,0,1-2.391,1.18A3.1,3.1,0,0,1,25.2,14.18v4.07H23.758V6.547h1.32l.07.938A2.977,2.977,0,0,1,27.6,6.391a2.882,2.882,0,0,1,2.41,1.148,5.117,5.117,0,0,1,.887,3.2ZM29.453,10.7a3.735,3.735,0,0,0-.609-2.258,1.963,1.963,0,0,0-1.672-.828A2.125,2.125,0,0,0,25.2,8.781V12.82a2.129,2.129,0,0,0,1.984,1.156,1.954,1.954,0,0,0,1.652-.824A4.077,4.077,0,0,0,29.453,10.7Zm6.789,4.453a3.693,3.693,0,0,1-2.8-1.129,4.19,4.19,0,0,1-1.078-3.02v-.266a5.073,5.073,0,0,1,.48-2.246,3.748,3.748,0,0,1,1.344-1.547,3.378,3.378,0,0,1,1.871-.559,3.166,3.166,0,0,1,2.563,1.086,4.7,4.7,0,0,1,.914,3.109v.6H33.813a3,3,0,0,0,.73,2.02,2.3,2.3,0,0,0,1.777.77,2.517,2.517,0,0,0,1.3-.312,3.259,3.259,0,0,0,.93-.828l.883.688A3.55,3.55,0,0,1,36.242,15.156Zm-.18-7.578a1.928,1.928,0,0,0-1.469.637A3.1,3.1,0,0,0,33.859,10h4.234V9.891A2.753,2.753,0,0,0,37.5,8.184,1.815,1.815,0,0,0,36.063,7.578Zm6.516-1.031.047,1.063a3.08,3.08,0,0,1,2.531-1.219q2.68,0,2.7,3.023V15H46.414V9.406A1.946,1.946,0,0,0,46,8.055a1.675,1.675,0,0,0-1.277-.437,2.086,2.086,0,0,0-1.234.375,2.546,2.546,0,0,0-.828.984V15H41.211V6.547ZM49.656,10.7a4.993,4.993,0,0,1,.488-2.234A3.643,3.643,0,0,1,51.5,6.93a3.7,3.7,0,0,1,1.988-.539,3.565,3.565,0,0,1,2.793,1.2,4.6,4.6,0,0,1,1.066,3.18v.1a5.036,5.036,0,0,1-.473,2.215,3.589,3.589,0,0,1-1.352,1.527,3.743,3.743,0,0,1-2.02.547,3.556,3.556,0,0,1-2.785-1.2A4.575,4.575,0,0,1,49.656,10.8Zm1.453.172a3.616,3.616,0,0,0,.652,2.258,2.211,2.211,0,0,0,3.5-.012,3.955,3.955,0,0,0,.648-2.418,3.61,3.61,0,0,0-.66-2.254,2.1,2.1,0,0,0-1.754-.863,2.075,2.075,0,0,0-1.727.852A3.925,3.925,0,0,0,51.109,10.867ZM60.734,15H59.289V6.547h1.445ZM59.172,4.3a.863.863,0,0,1,.215-.594.807.807,0,0,1,.637-.242.819.819,0,0,1,.641.242.854.854,0,0,1,.219.594.826.826,0,0,1-.219.586.834.834,0,0,1-.641.234.821.821,0,0,1-.637-.234A.834.834,0,0,1,59.172,4.3ZM62.7,10.7a4.952,4.952,0,0,1,.922-3.129,3.137,3.137,0,0,1,4.766-.168V3h1.445V15H68.5l-.07-.906a2.943,2.943,0,0,1-2.414,1.063,2.887,2.887,0,0,1-2.395-1.2,5.008,5.008,0,0,1-.926-3.141Zm1.445.164a3.749,3.749,0,0,0,.594,2.25,1.92,1.92,0,0,0,1.641.813A2.108,2.108,0,0,0,68.383,12.7V8.813a2.125,2.125,0,0,0-1.992-1.2,1.929,1.929,0,0,0-1.656.82A4.128,4.128,0,0,0,64.141,10.867Zm11.438,4.289a3.693,3.693,0,0,1-2.8-1.129,4.19,4.19,0,0,1-1.078-3.02v-.266a5.073,5.073,0,0,1,.48-2.246,3.748,3.748,0,0,1,1.344-1.547A3.378,3.378,0,0,1,75.4,6.391a3.166,3.166,0,0,1,2.563,1.086,4.7,4.7,0,0,1,.914,3.109v.6H73.148a3,3,0,0,0,.73,2.02,2.3,2.3,0,0,0,1.777.77,2.517,2.517,0,0,0,1.3-.312,3.259,3.259,0,0,0,.93-.828l.883.688A3.55,3.55,0,0,1,75.578,15.156ZM75.4,7.578a1.928,1.928,0,0,0-1.469.637A3.1,3.1,0,0,0,73.2,10H77.43V9.891a2.753,2.753,0,0,0-.594-1.707A1.815,1.815,0,0,0,75.4,7.578Zm10.07,5.18a1.064,1.064,0,0,0-.441-.91,4.249,4.249,0,0,0-1.539-.559,7.277,7.277,0,0,1-1.742-.562,2.479,2.479,0,0,1-.953-.781,1.869,1.869,0,0,1-.309-1.078,2.193,2.193,0,0,1,.879-1.758,3.432,3.432,0,0,1,2.246-.719,3.532,3.532,0,0,1,2.332.742,2.357,2.357,0,0,1,.895,1.9H85.383a1.3,1.3,0,0,0-.5-1.023,1.888,1.888,0,0,0-1.27-.43,1.976,1.976,0,0,0-1.234.344,1.082,1.082,0,0,0-.445.9.877.877,0,0,0,.414.789,5.1,5.1,0,0,0,1.5.508,7.8,7.8,0,0,1,1.754.578,2.558,2.558,0,0,1,1,.809,1.988,1.988,0,0,1,.324,1.152,2.163,2.163,0,0,1-.906,1.816,3.8,3.8,0,0,1-2.352.684,4.257,4.257,0,0,1-1.8-.359,2.922,2.922,0,0,1-1.223-1A2.42,2.42,0,0,1,80.2,12.4h1.445a1.5,1.5,0,0,0,.582,1.152,2.258,2.258,0,0,0,1.434.426,2.331,2.331,0,0,0,1.316-.332A1.02,1.02,0,0,0,85.469,12.758Zm3.359,1.484a.905.905,0,0,1,.223-.625.848.848,0,0,1,.668-.25.874.874,0,0,1,.676.25.887.887,0,0,1,.23.625.839.839,0,0,1-.23.6.89.89,0,0,1-.676.242.8.8,0,0,1-.891-.844Z" transform="translate(969.287 1538.879)" fill="#12263f"/>
    <g id="Grupo_162250" data-name="Grupo 162250" transform="translate(1321.314 1485.941)">
      <path id="Trazado_201509" data-name="Trazado 201509" d="M305.468,118.479l13.285-13.285-.214-.214-13.3,13.3a1.8,1.8,0,0,1,.219.186Z" transform="translate(-246.042 -104.98)" fill="#dcdee0"/>
      <path id="Trazado_201510" data-name="Trazado 201510" d="M283.615,155.188A1.8,1.8,0,0,0,283.4,155a1.189,1.189,0,0,0-1.092-.228l-6.656,6.656.875.875,6.022-6.022,1.082-1.082Z" transform="translate(-224.2 -141.701)" fill="#abafb2"/>
      <path id="Trazado_201511" data-name="Trazado 201511" d="M188.241,167.966l-4.384-4.384L157.235,190.2l4.347,4.347,3.733-3.733-3.511-3.511,1.69-1.69.009.009,20.319-20.319,3.539,3.539.874.874.88-.88Z" transform="translate(-136.793 -148.237)" fill="#dcdee0"/>
      <path id="Trazado_201512" data-name="Trazado 201512" d="M205.031,173.71l-3.539-3.539L181.173,190.49l4.413,4.414,18.769-18.769,1.549-1.549Z" transform="translate(-154.463 -153.101)" fill="#00bcd4"/>
      <path id="Trazado_201513" data-name="Trazado 201513" d="M102.054,289.117,85.469,305.7l-4.612-4.612-1.69,1.69,5.523,5.523.739-.739.951-.951,16.586-16.586Z" transform="translate(-79.167 -240.902)" fill="#4d4d4d"/>
      <path id="Trazado_201514" data-name="Trazado 201514" d="M175.759,247.744l-.009-.009-1.69,1.69,3.511,3.511-3.733,3.733.911.911,3.733-3.733,1.127-1.127.2-.2.361-.361Z" transform="translate(-149.049 -210.355)" fill="#4d4d4d"/>
      <path id="Trazado_201515" data-name="Trazado 201515" d="M149.521,262.9l-4.347-4.347-2.377-2.377-1.9,1.9,6.724,6.724.911.911,1.62-1.62.282-.282Z" transform="translate(-124.732 -216.585)" fill="#abafb2"/>
      <path id="Trazado_201516" data-name="Trazado 201516" d="M306.355,119.368l13.309-13.309-.261-.261-13.285,13.285A2.12,2.12,0,0,1,306.355,119.368Z" transform="translate(-246.692 -105.584)" fill="#abafb2"/>
      <path id="Trazado_201517" data-name="Trazado 201517" d="M286.329,156.819a2.123,2.123,0,0,0-.237-.285l-1.082,1.082-6.022,6.022.921.921,6.656-6.656A1.254,1.254,0,0,0,286.329,156.819Z" transform="translate(-226.666 -143.035)" fill="#939393"/>
      <path id="Trazado_201518" data-name="Trazado 201518" d="M207.43,184.586l-.921-.921-.88.88.921.921,3.539,3.539L189.77,209.324l.009.009-1.69,1.69-3.558-3.558L180.8,211.2l4.394,4.394,26.622-26.622Z" transform="translate(-154.186 -163.061)" fill="#abafb2"/>
      <path id="Trazado_201519" data-name="Trazado 201519" d="M219.268,187.948l-.921-.921-1.549,1.549-18.769,18.769,4.46,4.46,20.319-20.319Z" transform="translate(-166.905 -165.543)" fill="#00bcd4"/>
      <path id="Trazado_201520" data-name="Trazado 201520" d="M102.86,310.094l16.586-16.586-.911-.911-16.586,16.586-.951.951-.739.739,5.534,5.534,1.69-1.69Z" transform="translate(-94.736 -243.47)" fill="#333"/>
      <path id="Trazado_201521" data-name="Trazado 201521" d="M187.2,269.085l-4.46-4.46-.361.361-.2.2-1.127,1.127-3.733,3.733.911.911,3.733-3.733,3.558,3.558,1.69-1.69Z" transform="translate(-151.617 -222.822)" fill="#333"/>
      <path id="Trazado_201522" data-name="Trazado 201522" d="M177.263,290.64l-4.394-4.394-.911-.911-.282.282-1.62,1.62.911.911,6.771,6.771,1.9-1.9Z" transform="translate(-146.257 -238.11)" fill="#939393"/>
      <rect id="Rectángulo_46451" data-name="Rectángulo 46451" width="0.548" height="5.354" transform="translate(49.822 23.103) rotate(-45)" fill="#fff"/>
      <rect id="Rectángulo_46452" data-name="Rectángulo 46452" width="0.548" height="5.354" transform="translate(47.709 25.216) rotate(-45)" fill="#fff"/>
      <rect id="Rectángulo_46453" data-name="Rectángulo 46453" width="0.548" height="5.354" transform="translate(45.596 27.329) rotate(-45)" fill="#fff"/>
      <rect id="Rectángulo_46454" data-name="Rectángulo 46454" width="0.548" height="5.354" transform="translate(43.484 29.442) rotate(-45)" fill="#fff"/>
      <rect id="Rectángulo_46455" data-name="Rectángulo 46455" width="0.548" height="5.354" transform="translate(41.371 31.555) rotate(-45)" fill="#fff"/>
      <rect id="Rectángulo_46456" data-name="Rectángulo 46456" width="0.548" height="5.354" transform="translate(39.258 33.668) rotate(-45)" fill="#fff"/>
      <rect id="Rectángulo_46457" data-name="Rectángulo 46457" width="0.548" height="5.354" transform="translate(37.145 35.78) rotate(-45)" fill="#fff"/>
      <rect id="Rectángulo_46458" data-name="Rectángulo 46458" width="0.548" height="5.354" transform="translate(35.032 37.893) rotate(-45)" fill="#fff"/>
      <rect id="Rectángulo_46459" data-name="Rectángulo 46459" width="0.548" height="5.354" transform="translate(32.919 40.006) rotate(-45)" fill="#fff"/>
    </g>
    <path id="Trazado_201523" data-name="Trazado 201523" d="M196.706,366.219c-1.378.479-2.5.926-3.646,1.258a11.051,11.051,0,0,0-7.121,6.072c-.58,1.185-1.133,2.389-1.81,3.518a9.28,9.28,0,0,1-7.441,4.467,1.9,1.9,0,0,1-1.4-.724,6.536,6.536,0,0,1-.759-6.6c2.157-5.748,9.636-11.011,15.782-11.1A7.114,7.114,0,0,1,196.706,366.219Z" transform="translate(1087.501 1156.613)" fill="#603813"/>
    <path id="Trazado_201524" data-name="Trazado 201524" d="M224.115,208.284c-.219,1.372-.334,2.519-.593,3.632a11.469,11.469,0,0,0,2.59,10.355c2.579,3.134,3.459,6.565,2.1,10.495a1.815,1.815,0,0,1-1.813,1.4c-3.132.236-5.332-1.339-6.815-3.807a19.12,19.12,0,0,1-1.766-16.752A7.4,7.4,0,0,1,224.115,208.284Z" transform="translate(1053.72 1279.188)" fill="#603813"/>
    <path id="Trazado_201525" data-name="Trazado 201525" d="M342.2,296.669a23.426,23.426,0,0,1-1.845,2.122,11.977,11.977,0,0,0-3.965,10.389,19.1,19.1,0,0,1-.111,4.413,8.965,8.965,0,0,1-4.095,5.969,2.059,2.059,0,0,1-1.7.078,6.124,6.124,0,0,1-3.8-5.6A18.552,18.552,0,0,1,335.118,297,6.573,6.573,0,0,1,342.2,296.669Z" transform="translate(966.635 1209.904)" fill="#603813"/>
    <path id="Trazado_201526" data-name="Trazado 201526" d="M262.449,231.06c.248-1.24.412-2.168.621-3.087a7.908,7.908,0,0,0-1.845-7.681c-3.86-3.937-4.158-8.517-3.034-13.534.268-1.2.8-1.42,1.845-1.275a7.762,7.762,0,0,1,5.379,3.313,17.019,17.019,0,0,1,1.825,17.682A8.21,8.21,0,0,1,262.449,231.06Z" transform="translate(1021.287 1281.436)" fill="#603813"/>
    <path id="Trazado_201527" data-name="Trazado 201527" d="M359.273,327.644c.974-.843,1.659-1.4,2.306-2a8.458,8.458,0,0,0,2.749-8.311c-1.093-5.412,1.6-9.235,5.243-12.641a1.709,1.709,0,0,1,1.587.127,7.979,7.979,0,0,1,3.032,6.982,17.176,17.176,0,0,1-8.015,14.635A8.547,8.547,0,0,1,359.273,327.644Z" transform="translate(940.807 1202.977)" fill="#603813"/>
    <path id="Trazado_201528" data-name="Trazado 201528" d="M191.324,401.562c1.314-.381,2.376-.67,3.425-1a7.9,7.9,0,0,0,5.554-5.406c1.615-5.4,5.774-7.662,10.747-8.94a1.682,1.682,0,0,1,1.389.772,7.5,7.5,0,0,1,.026,6.151c-2.2,5.881-9.02,10.579-15.294,10.531A7.958,7.958,0,0,1,191.324,401.562Z" transform="translate(1073.771 1138.328)" fill="#603813"/>
    <g id="Grupo_162249" data-name="Grupo 162249" transform="translate(1237.195 1286.504)">
      <g id="Grupo_162244" data-name="Grupo 162244" transform="translate(32.939 0)">
        <path id="Trazado_201489" data-name="Trazado 201489" d="M443.568,209.091l2.683-2.415,1.359,2.769s2.427-.125,2.628.145-.753,2.94-.753,2.94a39.773,39.773,0,0,1,4.392,2.894c.4.541-.345,1.8-.345,1.8l3.74,2.959-4.415,2.723S445.986,211.213,443.568,209.091Z" transform="translate(-414.349 -203.686)" fill="#f9a43f"/>
        <path id="Trazado_201490" data-name="Trazado 201490" d="M400.943,241.493s-3.283.481-2.881,1.022,1.88,1.962,2.148,2.323-1.628,2.33-.8,2.693,3.858,1.611,4.26,2.152-.728,2.221.215,2.36,2.45-.283,3.12.619-1.017,6.916.176,6.449S411,255.576,411,255.576,401.7,242.327,400.943,241.493Z" transform="translate(-394.036 -219.216)" fill="#f9a43f"/>
        <path id="Trazado_201491" data-name="Trazado 201491" d="M404.911,226.923c-.881.364,3.747,6.733,4.73,8.243s3.791,6.98,4.376,6.825,8.728-8.03,11.342-9.974,10.207-7.17,10.207-7.17-2.85-6.28-4.773-8.49-4.516-5.321-4.516-5.321S415.511,222.541,404.911,226.923Z" transform="translate(-397.057 -205.631)" fill="#00bcd4"/>
        <path id="Trazado_201492" data-name="Trazado 201492" d="M438.826,233.173s-.727-1.6-1.693-3.469a94.147,94.147,0,0,1-14.941,9.163,47.6,47.6,0,0,1-10.083,3.46c.341.5.621.9.791,1.166.982,1.509,3.791,6.98,4.375,6.825s8.728-8.03,11.343-9.974S438.826,233.173,438.826,233.173Z" transform="translate(-400.317 -213.957)" fill="#00bcd4"/>
        <path id="Trazado_201493" data-name="Trazado 201493" d="M459.75,226.172q-1.477,1.085-2.968,2.156c1.161,1.894,1.97,3.27,1.97,3.27l4.415-2.723Z" transform="translate(-420.243 -212.382)" fill="#f4832c"/>
        <path id="Trazado_201494" data-name="Trazado 201494" d="M403.684,253.266a9.926,9.926,0,0,1,2.511,1.39c.4.541-.728,2.221.215,2.36s2.45-.283,3.12.619-1.017,6.916.176,6.449,3.811-3.534,3.811-3.534-2.887-4.117-5.575-7.906A37.258,37.258,0,0,1,403.684,253.266Z" transform="translate(-396.559 -224.19)" fill="#f4832c"/>
        <g id="Grupo_162241" data-name="Grupo 162241">
          <path id="Trazado_201495" data-name="Trazado 201495" d="M422.477,201.993a88.854,88.854,0,0,1-31.32,22.033.554.554,0,0,0-.017,1.011c.958.506,1.9,1.038,2.843,1.571,1.7.962.555,2.722-.027,3.956a.492.492,0,0,0,.25.645,19.344,19.344,0,0,0,4.772,1.265l-.409-.55a19.512,19.512,0,0,0-.5,3.549c-.012.25.133.573.431.579l4.011.093-.433-.583a21.469,21.469,0,0,0-.191,7.075.529.529,0,0,0,.832.356,84.171,84.171,0,0,0,7.557-6.653c2.511-2.343,5.11-4.592,7.773-6.759a145.169,145.169,0,0,1,17.4-12.113.614.614,0,0,0,.017-.967c-1.149-.919-2.315-1.816-3.476-2.719l.088.791c.441-.6.888-1.194,1.334-1.789a.567.567,0,0,0-.211-.861q-2.806-1.368-5.481-2.968.106.433.212.866a11.454,11.454,0,0,0,1.7-3.6c.091-.322-.212-.573-.479-.645a30.606,30.606,0,0,0-3.665-.748c-.719-.1-1.378-2.59-1.649-3.2a.59.59,0,0,0-1.095.44c.476,1.173.98,2.332,1.486,3.492a.6.6,0,0,0,.465.366,29.36,29.36,0,0,1,4.292.769l-.479-.645a9.532,9.532,0,0,1-1.455,3.065.575.575,0,0,0,.212.866q2.681,1.6,5.484,2.963l-.211-.861c-.445.6-.89,1.193-1.34,1.784a.571.571,0,0,0,.088.792c1.136.935,2.268,1.875,3.417,2.794q.008-.484.017-.967A146.564,146.564,0,0,0,417.8,228.232q-4.016,3.23-7.773,6.766a96.054,96.054,0,0,1-7.933,7.156l.831.355a20.392,20.392,0,0,1,.169-6.8.512.512,0,0,0-.433-.583l-4.012-.087.432.579a19.37,19.37,0,0,1,.449-3.556.486.486,0,0,0-.409-.55,17.107,17.107,0,0,1-4.518-1.2l.251.646c.47-1,1.5-2.891,1.03-4.052a2,2,0,0,0-.934-.887c-1.086-.629-2.177-1.253-3.245-1.913q-.069.468-.137.937A77.948,77.948,0,0,0,423,202.414c.281-.337-.237-.739-.526-.421Z" transform="translate(-390.822 -201.279)" fill="#231f20"/>
        </g>
        <g id="Grupo_162242" data-name="Grupo 162242" transform="translate(6.058 20.879)">
          <path id="Trazado_201496" data-name="Trazado 201496" d="M401.8,239.278a148.114,148.114,0,0,1,10.7,15.633c.2.347.81.007.615-.345a81.479,81.479,0,0,0-10.99-15.527c-.171-.186-.482.03-.321.239Z" transform="translate(-401.757 -238.968)" fill="#9c1d2e"/>
        </g>
        <g id="Grupo_162243" data-name="Grupo 162243" transform="translate(28.524 4.227)">
          <path id="Trazado_201497" data-name="Trazado 201497" d="M442.347,209.173c1.658,2.39,3.4,4.715,4.99,7.151.8,1.217,1.563,2.454,2.316,3.7a23.645,23.645,0,0,0,2.311,3.687.31.31,0,0,0,.533-.3c-.81-2.472-2.817-4.832-4.279-6.966a82.688,82.688,0,0,0-5.6-7.472.169.169,0,0,0-.27.2Z" transform="translate(-442.313 -208.909)" fill="#9c1d2e"/>
        </g>
      </g>
      <g id="Grupo_162248" data-name="Grupo 162248" transform="translate(0 9.303)">
        <path id="Trazado_201498" data-name="Trazado 201498" d="M381.672,256.2l2.366,1.823-2.05,1.52s.464,1.956.274,2.16a9.721,9.721,0,0,1-2.505-.174,32.888,32.888,0,0,1-1.7,4.006c-.38.408-1.513-.012-1.513-.012L374.7,269l-2.875-3.186S380.306,258.48,381.672,256.2Z" transform="translate(-349.408 -235.077)" fill="#00bcd4"/>
        <path id="Trazado_201499" data-name="Trazado 201499" d="M347.982,226.172s-.881-2.6-1.261-2.19-1.316,1.822-1.569,2.094-2.139-.976-2.31-.247a17.872,17.872,0,0,1-1.115,3.788c-.38.408-1.916-.261-1.888.527s.6,1.951-.038,2.631-5.779.206-5.221,1.106,3.445,2.574,3.445,2.574S347.416,226.916,347.982,226.172Z" transform="translate(-332.778 -220.689)" fill="#00bcd4"/>
        <path id="Trazado_201500" data-name="Trazado 201500" d="M351.725,229.047c-.428-.663-4.919,4.054-6,5.079s-5.114,4.127-4.9,4.58,7.837,5.9,9.81,7.739,7.358,7.234,7.358,7.234,4.684-3.257,6.195-5.151,3.655-4.47,3.655-4.47S356.874,237.017,351.725,229.047Z" transform="translate(-335.579 -222.94)" fill="#f9a43f"/>
        <path id="Trazado_201501" data-name="Trazado 201501" d="M357.992,257.161s1.194-.83,2.57-1.9a77.847,77.847,0,0,1-9.687-10.788,39.36,39.36,0,0,1-4.321-7.687c-.352.351-.643.64-.83.818-1.081,1.025-5.114,4.127-4.9,4.58s7.837,5.9,9.81,7.739S357.992,257.161,357.992,257.161Z" transform="translate(-335.579 -226.422)" fill="#f4832c"/>
        <path id="Trazado_201502" data-name="Trazado 201502" d="M376.386,271.881q-1.1-1.04-2.2-2.093c-1.368,1.228-2.367,2.091-2.367,2.091l2.875,3.186Z" transform="translate(-349.408 -241.14)" fill="#00bcd4"/>
        <path id="Trazado_201503" data-name="Trazado 201503" d="M342.482,230.125a8.225,8.225,0,0,1-.756,2.251c-.38.408-1.916-.261-1.888.527s.6,1.951-.038,2.631-5.779.2-5.221,1.106,3.445,2.574,3.445,2.574,2.919-2.964,5.6-5.717A30.712,30.712,0,0,1,342.482,230.125Z" transform="translate(-332.778 -223.449)" fill="#00bcd4"/>
        <g id="Grupo_162245" data-name="Grupo 162245">
          <path id="Trazado_201504" data-name="Trazado 201504" d="M367.805,240.473a73.507,73.507,0,0,1-22.6-22.193.458.458,0,0,0-.825.138c-.269.855-.561,1.7-.854,2.548-.529,1.527-2.132.858-3.222.568a.408.408,0,0,0-.488.3,16,16,0,0,0-.316,4.072l.386-.415a16.046,16.046,0,0,0-2.962.122c-.206.027-.446.194-.407.437q.262,1.639.524,3.277l.409-.439a17.746,17.746,0,0,0-5.785.9.437.437,0,0,0-.165.73,69.453,69.453,0,0,0,6.542,5.155c2.281,1.693,4.5,3.472,6.66,5.316a120.19,120.19,0,0,1,12.453,12.345.508.508,0,0,0,.789-.13c.576-1.072,1.132-2.155,1.693-3.235l-.63.19c.553.269,1.1.544,1.655.818a.469.469,0,0,0,.669-.3q.694-2.487,1.6-4.9l-.673.3a9.477,9.477,0,0,0,3.185.846c.276.025.434-.258.453-.486a25.272,25.272,0,0,0,.062-3.093c-.025-.6,1.9-1.508,2.354-1.819a.488.488,0,0,0-.522-.825c-.883.563-1.75,1.146-2.619,1.731a.493.493,0,0,0-.228.433,24.348,24.348,0,0,1,.015,3.607l.453-.486a7.881,7.881,0,0,1-2.711-.727.475.475,0,0,0-.673.3q-.9,2.42-1.591,4.9l.669-.3c-.552-.274-1.1-.546-1.652-.824a.472.472,0,0,0-.63.189c-.591,1.064-1.188,2.125-1.764,3.2l.79-.13a121.258,121.258,0,0,0-12.082-12.009q-3.228-2.785-6.665-5.314a79.521,79.521,0,0,1-7.008-5.386q-.082.365-.165.729a16.862,16.862,0,0,1,5.556-.877.424.424,0,0,0,.409-.439l-.529-3.277-.407.437a16.047,16.047,0,0,1,2.961-.165.4.4,0,0,0,.386-.415,14.141,14.141,0,0,1,.3-3.856l-.488.3c.88.233,2.576.788,3.45.233a1.651,1.651,0,0,0,.583-.892c.35-.978.695-1.958,1.072-2.926l-.783.028a64.485,64.485,0,0,0,23.107,22.2c.316.178.566-.3.264-.491Z" transform="translate(-331.362 -218.073)" fill="#231f20"/>
        </g>
        <g id="Grupo_162246" data-name="Grupo 162246" transform="translate(4.763 4.61)">
          <path id="Trazado_201505" data-name="Trazado 201505" d="M351.166,226.452a122.591,122.591,0,0,1-11.122,11.038c-.253.217.115.66.372.449a67.423,67.423,0,0,0,10.992-11.261c.126-.167-.1-.387-.242-.225Z" transform="translate(-339.959 -226.395)" fill="#9c1d2e"/>
        </g>
        <g id="Grupo_162247" data-name="Grupo 162247" transform="translate(22.456 20.399)">
          <path id="Trazado_201506" data-name="Trazado 201506" d="M382.351,254.942c-1.7,1.706-3.329,3.466-5.073,5.127-.871.83-1.763,1.638-2.663,2.436a19.5,19.5,0,0,0-2.655,2.431.256.256,0,0,0,.323.389c1.89-1.029,3.51-3.014,5.029-4.521a68.4,68.4,0,0,0,5.243-5.672.139.139,0,0,0-.2-.19Z" transform="translate(-371.899 -254.898)" fill="#9c1d2e"/>
        </g>
      </g>
      <path id="Trazado_201507" data-name="Trazado 201507" d="M430.557,232.4c-.823.153-1.228,1.112-1.61,1.769-.08.138-.16.276-.239.414l-.382-.022a6.2,6.2,0,0,0-2.091.008,1.275,1.275,0,0,0-.3,2.31,12.86,12.86,0,0,0,1.741.934l.124.051c-.061-.024.169.075.228.1.186.088.373.185.551.286a1.88,1.88,0,0,0,2.543-.667,1.853,1.853,0,0,0,.1-.223C432.08,235.989,432.793,231.989,430.557,232.4Z" transform="translate(-373.272 -215.148)" fill="#fff"/>
      <path id="Trazado_201508" data-name="Trazado 201508" d="M365.532,250.031c-.312-.693-1.245-.844-1.908-1.039-.138-.041-.278-.082-.417-.121-.02-.116-.042-.23-.063-.342a5.629,5.629,0,0,0-.458-1.843,1.158,1.158,0,0,0-2.1.232,11.732,11.732,0,0,0-.449,1.738c-.006.04-.012.08-.018.12.008-.059-.03.166-.042.224-.037.182-.083.369-.134.548a1.639,1.639,0,0,0,1.356,2.142C362.7,252.149,366.38,251.915,365.532,250.031Z" transform="translate(-344.08 -221.276)" fill="#fff"/>
    </g>
    <g id="Grupo_162323" data-name="Grupo 162323" transform="translate(1240.556 1331.206)">
      <g id="Grupo_162321" data-name="Grupo 162321" transform="translate(4.849 0)">
        <g id="Grupo_162314" data-name="Grupo 162314">
          <g id="Grupo_162312" data-name="Grupo 162312" transform="translate(3.08 3.44)">
            <path id="Trazado_201763" data-name="Trazado 201763" d="M367.013,234.815V279.1a5.159,5.159,0,0,1-10.319,0V234.815" transform="translate(-356.694 -234.815)" fill="#81d4fa" opacity="0.33"/>
          </g>
          <g id="Grupo_162313" data-name="Grupo 162313">
            <path id="Trazado_201764" data-name="Trazado 201764" d="M366.687,232.929H353.644a1.72,1.72,0,0,1,0-3.44h13.042a1.72,1.72,0,0,1,0,3.44Z" transform="translate(-351.925 -229.489)" fill="#fff"/>
          </g>
          <path id="Trazado_201765" data-name="Trazado 201765" d="M366.366,253.878v31.984a3.726,3.726,0,0,1-7.453,0V253.878" transform="translate(-354.399 -238.124)" fill="#7e58cf"/>
        </g>
        <g id="Grupo_162317" data-name="Grupo 162317" transform="translate(19.142)">
          <g id="Grupo_162315" data-name="Grupo 162315" transform="translate(3.081 3.44)">
            <path id="Trazado_201766" data-name="Trazado 201766" d="M396.648,234.815V279.1a5.16,5.16,0,0,1-10.32,0V234.815" transform="translate(-386.329 -234.815)" fill="#81d4fa" opacity="0.33"/>
          </g>
          <g id="Grupo_162316" data-name="Grupo 162316">
            <path id="Trazado_201767" data-name="Trazado 201767" d="M396.321,232.929H383.279a1.72,1.72,0,1,1,0-3.44h13.042a1.72,1.72,0,0,1,0,3.44Z" transform="translate(-381.559 -229.489)" fill="#fff"/>
          </g>
          <path id="Trazado_201768" data-name="Trazado 201768" d="M396,274.754v18.5a3.727,3.727,0,0,1-7.454,0v-18.5" transform="translate(-384.033 -245.516)" fill="#f7a01d"/>
        </g>
        <g id="Grupo_162320" data-name="Grupo 162320" transform="translate(38.283)">
          <g id="Grupo_162318" data-name="Grupo 162318" transform="translate(3.083 3.44)" opacity="0.33">
            <path id="Trazado_201769" data-name="Trazado 201769" d="M426.283,234.815V279.1a5.159,5.159,0,0,1-10.318,0V234.815" transform="translate(-415.965 -234.815)" fill="#81d4fa"/>
          </g>
          <g id="Grupo_162319" data-name="Grupo 162319">
            <path id="Trazado_201770" data-name="Trazado 201770" d="M425.955,232.929H412.912a1.72,1.72,0,1,1,0-3.44h13.043a1.72,1.72,0,0,1,0,3.44Z" transform="translate(-411.192 -229.489)" fill="#fff"/>
          </g>
          <path id="Trazado_201771" data-name="Trazado 201771" d="M425.636,242.951v39.043a3.726,3.726,0,0,1-7.453,0V242.951" transform="translate(-413.667 -234.255)" fill="#00bcd4"/>
        </g>
      </g>
      <g id="Grupo_162322" data-name="Grupo 162322" transform="translate(3.731 23.311)">
        <line id="Línea_1890" data-name="Línea 1890" x2="57.001" transform="translate(0 0.134)" fill="none" stroke="#4f4773" stroke-linecap="round" stroke-linejoin="round" stroke-width="4.022"/>
        <line id="Línea_1891" data-name="Línea 1891" y2="40.149" fill="none" stroke="#4f4773" stroke-linecap="round" stroke-linejoin="round" stroke-width="4.022"/>
        <line id="Línea_1892" data-name="Línea 1892" y2="40.149" transform="translate(57.001)" fill="none" stroke="#4f4773" stroke-linecap="round" stroke-linejoin="round" stroke-width="4.022"/>
      </g>
      <line id="Línea_1893" data-name="Línea 1893" x2="64.462" transform="translate(0 66.29)" fill="none" stroke="#a3a1bf" stroke-linecap="round" stroke-linejoin="round" stroke-width="10.128"/>
    </g>
    <g id="Background" transform="translate(935.149 1464.379)">
      <path id="Trazado_201772" data-name="Trazado 201772" d="M151.55,108.869c0,20.246-19.017,35.154-38.9,35.154s-32.613-25.5-32.613-45.741,12.726-27.574,32.613-27.574S151.55,88.623,151.55,108.869Z" transform="translate(-80.033 -70.708)" fill="#d5efff" opacity="0.5"/>
    </g>
    <g id="Objects" transform="translate(917.773 1468.837)">
      <path id="Trazado_201773" data-name="Trazado 201773" d="M295.071,106.09a10.016,10.016,0,0,0-15.1-8.628,9.042,9.042,0,0,0-17.359.616,4.084,4.084,0,0,0-4.511,6.458c-2.264.508-5.9.692-11.4-.612l-.379.923a30.329,30.329,0,0,1,10.521,7.064,7.085,7.085,0,0,0,4.4,12.643c.136,0,.271,0,.405-.012a14.384,14.384,0,1,0,27.154-9.161A10.018,10.018,0,0,0,295.071,106.09Z" transform="translate(-192.844 -91.24)" fill="#a1dcff"/>
      <g id="Grupo_162329" data-name="Grupo 162329" transform="translate(70.531 11.359)">
        <g id="Grupo_162324" data-name="Grupo 162324" transform="translate(0 0.153)">
          <path id="Trazado_201774" data-name="Trazado 201774" d="M329.116,147.617s-.276-3.472.281-3.347c.465.1.221.916.166,1.574C329.485,146.78,329.4,147.681,329.116,147.617Z" transform="translate(-328.138 -144.267)" fill="#fff"/>
          <path id="Trazado_201775" data-name="Trazado 201775" d="M328.329,159.731c-.086.251-1.13-.417-1.585-.574s-.893-.083-.806-.335.525-.328.98-.171S328.416,159.48,328.329,159.731Z" transform="translate(-325.695 -155.465)" fill="#1d262d"/>
          <path id="Trazado_201776" data-name="Trazado 201776" d="M329.932,151.939s2.525-3.09,2.731-1.955c.061.338-.548.6-1.044.956C330.848,151.5,330.028,152.073,329.932,151.939Z" transform="translate(-328.831 -148.547)" fill="#fff"/>
          <path id="Trazado_201777" data-name="Trazado 201777" d="M325.382,158.8s-.168-.163-.291-.115-.232.878-.232.878a2.188,2.188,0,0,1,.261-.492c.064-.02.105.05.214-.107s.013-.123.013-.123" transform="translate(-324.859 -155.551)" fill="#1d262d"/>
          <path id="Trazado_201778" data-name="Trazado 201778" d="M325.341,157.75c0,.132-.075.239-.167.239s-.167-.107-.167-.239.075-.239.167-.239S325.341,157.618,325.341,157.75Z" transform="translate(-324.974 -154.636)" fill="#1d262d"/>
          <path id="Trazado_201779" data-name="Trazado 201779" d="M326.416,158.193a.219.219,0,1,1-.058-.341A.249.249,0,0,1,326.416,158.193Z" transform="translate(-325.754 -154.887)" fill="#1d262d"/>
        </g>
        <g id="Grupo_162325" data-name="Grupo 162325" transform="translate(4.097 13.477)">
          <path id="Trazado_201780" data-name="Trazado 201780" d="M346.366,213.65s-3.015-1.744-2.6-2.132c.35-.324.879.338,1.39.757C345.886,212.871,346.58,213.452,346.366,213.65Z" transform="translate(-343.731 -210.173)" fill="#fff"/>
          <path id="Trazado_201781" data-name="Trazado 201781" d="M355.879,217.572c.157.213-.985.693-1.373.979s-.576.687-.733.474.028-.618.416-.9S355.721,217.358,355.879,217.572Z" transform="translate(-351.549 -214.939)" fill="#1d262d"/>
          <path id="Trazado_201782" data-name="Trazado 201782" d="M354.509,209.035s-1.11-3.833-.058-3.358c.313.141.182.792.194,1.4C354.664,208.028,354.674,209.032,354.509,209.035Z" transform="translate(-351.769 -205.635)" fill="#fff"/>
          <path id="Trazado_201783" data-name="Trazado 201783" d="M353.368,223.122s-.229.045-.26.174.591.69.591.69a2.179,2.179,0,0,1-.256-.494c.02-.065.1-.058.033-.237s-.094-.081-.094-.081" transform="translate(-351.071 -219.325)" fill="#1d262d"/>
          <path id="Trazado_201784" data-name="Trazado 201784" d="M352.245,223.149c.109.075.154.2.1.273a.213.213,0,0,1-.292,0c-.108-.075-.154-.2-.1-.274A.213.213,0,0,1,352.245,223.149Z" transform="translate(-350.151 -219.303)" fill="#1d262d"/>
          <path id="Trazado_201785" data-name="Trazado 201785" d="M353.382,222.138a.219.219,0,1,1-.314-.146A.25.25,0,0,1,353.382,222.138Z" transform="translate(-350.963 -218.426)" fill="#1d262d"/>
        </g>
        <g id="Grupo_162326" data-name="Grupo 162326" transform="translate(16.148)">
          <path id="Trazado_201786" data-name="Trazado 201786" d="M401.818,146.178s-.51-2.665-.067-2.616c.369.041.249.691.262,1.2C402.033,145.5,402.044,146.2,401.818,146.178Z" transform="translate(-401.063 -143.561)" fill="#fff"/>
          <path id="Trazado_201787" data-name="Trazado 201787" d="M402.006,155.544c-.046.2-.911-.227-1.276-.309s-.7.011-.653-.191.379-.3.745-.216S402.052,155.342,402.006,155.544Z" transform="translate(-399.891 -152.358)" fill="#1d262d"/>
          <path id="Trazado_201788" data-name="Trazado 201788" d="M403.168,148.789s1.693-2.608,1.949-1.746c.076.256-.374.511-.728.829C403.84,148.367,403.254,148.885,403.168,148.789Z" transform="translate(-402.314 -146.15)" fill="#fff"/>
          <path id="Trazado_201789" data-name="Trazado 201789" d="M399.823,155.171s-.144-.112-.235-.065-.105.7-.105.7a1.688,1.688,0,0,1,.161-.4c.048-.021.085.029.156-.1s0-.1,0-.1" transform="translate(-399.429 -152.591)" fill="#1d262d"/>
          <path id="Trazado_201790" data-name="Trazado 201790" d="M399.5,154.394c.011.1-.037.192-.109.2s-.139-.069-.15-.171.038-.191.109-.2S399.486,154.292,399.5,154.394Z" transform="translate(-399.236 -151.908)" fill="#1d262d"/>
          <path id="Trazado_201791" data-name="Trazado 201791" d="M400.393,154.611a.17.17,0,1,1-.074-.259A.194.194,0,0,1,400.393,154.611Z" transform="translate(-399.887 -152.002)" fill="#1d262d"/>
        </g>
        <g id="Grupo_162327" data-name="Grupo 162327" transform="translate(14.742 22.811)">
          <path id="Trazado_201792" data-name="Trazado 201792" d="M394.91,250.8s-.424-2.219-.056-2.178c.307.034.207.575.218,1C395.089,250.239,395.1,250.826,394.91,250.8Z" transform="translate(-394.282 -248.626)" fill="#fff"/>
          <path id="Trazado_201793" data-name="Trazado 201793" d="M395.068,258.6c-.038.168-.758-.189-1.063-.258s-.581.009-.543-.159.315-.249.62-.18S395.105,258.433,395.068,258.6Z" transform="translate(-393.307 -255.95)" fill="#1d262d"/>
          <path id="Trazado_201794" data-name="Trazado 201794" d="M396.034,252.978s1.409-2.171,1.623-1.454c.063.213-.311.425-.606.69C396.593,252.627,396.105,253.058,396.034,252.978Z" transform="translate(-395.324 -250.782)" fill="#fff"/>
          <path id="Trazado_201795" data-name="Trazado 201795" d="M393.25,258.291s-.12-.093-.2-.054-.087.583-.087.583a1.4,1.4,0,0,1,.134-.335c.04-.018.071.024.13-.084s0-.081,0-.081" transform="translate(-392.922 -256.143)" fill="#1d262d"/>
          <path id="Trazado_201796" data-name="Trazado 201796" d="M392.979,257.644c.009.085-.031.16-.091.166s-.116-.057-.125-.142.031-.16.091-.166S392.97,257.56,392.979,257.644Z" transform="translate(-392.762 -255.575)" fill="#1d262d"/>
          <path id="Trazado_201797" data-name="Trazado 201797" d="M393.724,257.825a.142.142,0,1,1-.062-.216A.162.162,0,0,1,393.724,257.825Z" transform="translate(-393.303 -255.653)" fill="#1d262d"/>
        </g>
        <g id="Grupo_162328" data-name="Grupo 162328" transform="translate(16.59 9.129)">
          <path id="Trazado_201798" data-name="Trazado 201798" d="M404.167,187.1s.8-1.675,1.02-1.469c.187.172-.142.481-.342.77C404.56,186.807,404.281,187.2,404.167,187.1Z" transform="translate(-403.538 -185.609)" fill="#fff"/>
          <path id="Trazado_201799" data-name="Trazado 201799" d="M403.356,192.488c-.107.093-.41-.493-.578-.687s-.39-.276-.283-.369.329-.012.5.182S403.463,192.4,403.356,192.488Z" transform="translate(-402.207 -190.138)" fill="#1d262d"/>
          <path id="Trazado_201800" data-name="Trazado 201800" d="M404.169,192.336s2.1.317,1.637.72c-.138.12-.423-.088-.722-.218C404.621,192.635,404.134,192.417,404.169,192.336Z" transform="translate(-403.539 -190.875)" fill="#fff"/>
          <path id="Trazado_201801" data-name="Trazado 201801" d="M401.716,191.22s-.034-.12-.1-.13-.341.343-.341.343.216-.165.252-.157.035.051.127.007.039-.053.039-.053" transform="translate(-401.272 -189.9)" fill="#1d262d"/>
          <path id="Trazado_201802" data-name="Trazado 201802" d="M402.517,190.616c-.035.061-.1.09-.141.066s-.049-.094-.014-.155.1-.09.141-.065S402.552,190.555,402.517,190.616Z" transform="translate(-402.108 -189.401)" fill="#1d262d"/>
          <path id="Trazado_201803" data-name="Trazado 201803" d="M402.837,191.187a.116.116,0,1,1,.064-.173A.133.133,0,0,1,402.837,191.187Z" transform="translate(-402.343 -189.805)" fill="#1d262d"/>
        </g>
      </g>
      <g id="Grupo_162334" data-name="Grupo 162334" transform="translate(0 3.152)">
        <path id="Trazado_201804" data-name="Trazado 201804" d="M52.817,108.163a4.878,4.878,0,0,1-1.342,3.415c-.864.79-2.31,1.34-4.733,1.114a39.686,39.686,0,0,1-4.533-.547c-.766.86-5.842,6.565-7.208,8.841-1.281,2.134.276,5.628.712,6.52.067.137.109.213.109.213l-2.662,2.692L21.618,142.085l-2.295,3.932L17.2,149.653,0,179.143V148.116a63.6,63.6,0,0,1,5.938-7.59c5.417-5.419,18.472-19.95,19.375-20.771s8.209-11.034,9.605-11.592,7.471-2.7,9.525-2.369S52.9,107.49,52.817,108.163Z" transform="translate(0 -105.76)" fill="#f5ac89"/>
        <path id="Trazado_201805" data-name="Trazado 201805" d="M140.587,127.229c-.864.79-2.31,1.34-4.733,1.114a39.689,39.689,0,0,1-4.533-.547c-.766.86-6.049,8.856-7.414,11.132-1.281,2.134.482,3.337.918,4.229-2.145,1.813-3.593,3.02-3.593,3.02L113.826,148s4.338-3.554,5.78-7.041c0,0,3.841-3.6,3.374-6.042,0,0,6.589-5.293,6.865-9.171C129.844,125.75,136.245,127.815,140.587,127.229Z" transform="translate(-89.113 -121.41)" fill="#f59d73"/>
        <path id="Trazado_201806" data-name="Trazado 201806" d="M151.333,172.5s7.874-5.515,11.888-2.693,11.839,11.281,11.121,14.1-4.385,2.348-4.791,1.741-14.459-6.095-18.218-12.717" transform="translate(-118.477 -155.273)" fill="#f59d73"/>
        <path id="Trazado_201807" data-name="Trazado 201807" d="M128.061,207.144s7.665-3.468,11.679-.646,11.839,11.281,11.122,14.1-4.385,2.348-4.791,1.741-15.787-6.913-19.546-13.534" transform="translate(-99.054 -183.761)" fill="#f59d73"/>
        <rect id="Rectángulo_46462" data-name="Rectángulo 46462" width="7.439" height="8.463" transform="translate(43.427 12.66) rotate(-67.696)" fill="#1d262d"/>
        <g id="Grupo_162330" data-name="Grupo 162330" transform="translate(37.368 36.056)">
          <path id="Trazado_201808" data-name="Trazado 201808" d="M180.783,276.881s1.171-6.2,2.488-4.861c.544.551-.233,1.514-.722,2.47C181.855,275.849,181.172,277.153,180.783,276.881Z" transform="translate(-178.901 -271.831)" fill="#fff"/>
          <path id="Trazado_201809" data-name="Trazado 201809" d="M177.562,294.312c-.285.324-.535-.352-1.124-.868s-1.291-.677-1.007-1,.992-.169,1.581.347S177.846,293.987,177.562,294.312Z" transform="translate(-174.661 -287.835)" fill="#1d262d"/>
          <path id="Trazado_201810" data-name="Trazado 201810" d="M181.517,289.108s5.705-3.09,5.315-1.255C186.536,289.247,181.619,289.536,181.517,289.108Z" transform="translate(-179.476 -283.918)" fill="#fff"/>
          <path id="Trazado_201811" data-name="Trazado 201811" d="M173.372,291.849s-.151-.348-.366-.353-.89,1.178-.89,1.178.587-.587.7-.578.128.139.388-.03.1-.177.1-.177" transform="translate(-172.116 -287.227)" fill="#1d262d"/>
          <path id="Trazado_201812" data-name="Trazado 201812" d="M175.257,290c-.081.2-.26.314-.4.256s-.186-.264-.1-.463.261-.314.4-.256S175.338,289.8,175.257,290Z" transform="translate(-174.149 -285.679)" fill="#1d262d"/>
          <path id="Trazado_201813" data-name="Trazado 201813" d="M176.456,291.531a.355.355,0,1,1,.123-.549A.406.406,0,0,1,176.456,291.531Z" transform="translate(-175.022 -286.743)" fill="#1d262d"/>
        </g>
        <rect id="Rectángulo_46463" data-name="Rectángulo 46463" width="49.774" height="20.94" transform="matrix(0.378, -0.926, 0.926, 0.378, 17.184, 60.613)" fill="#52beff"/>
        <path id="Trazado_201814" data-name="Trazado 201814" d="M183.167,178.964a.55.55,0,0,0-.3-.718l-19.449-7.979a.55.55,0,0,0-.718.3h0a.55.55,0,0,0,.3.718l19.449,7.979a.55.55,0,0,0,.718-.3Z" transform="translate(-127.343 -156.229)" fill="#1d262d"/>
        <path id="Trazado_201815" data-name="Trazado 201815" d="M95.031,391.665a.55.55,0,0,0-.3-.718l-19.449-7.979a.55.55,0,0,0-.718.3h0a.551.551,0,0,0,.3.718l19.449,7.978a.55.55,0,0,0,.718-.3Z" transform="translate(-58.342 -322.751)" fill="#1d262d"/>
        <rect id="Rectángulo_46464" data-name="Rectángulo 46464" width="1.807" height="13.039" transform="translate(40.731 13.291) rotate(-67.694)" fill="#1d262d"/>
        <path id="Trazado_201816" data-name="Trazado 201816" d="M183.374,170.065l-12.064-4.949-4.729,1.188,19.325,7.928Z" transform="translate(-130.415 -152.229)" fill="#2b3842"/>
        <g id="Grupo_162331" data-name="Grupo 162331" transform="translate(28.457 30.379)">
          <path id="Trazado_201817" data-name="Trazado 201817" d="M149.492,259.6a8.251,8.251,0,1,1-4.5-10.765A8.252,8.252,0,0,1,149.492,259.6Z" transform="translate(-133.055 -247.667)" fill="none"/>
          <path id="Trazado_201818" data-name="Trazado 201818" d="M136.536,262.627a8.8,8.8,0,1,1,6.734-.023A8.743,8.743,0,0,1,136.536,262.627ZM142.8,247.36a7.7,7.7,0,1,0,4.2,10.051A7.713,7.713,0,0,0,142.8,247.36Z" transform="translate(-131.072 -245.684)" fill="#db2323"/>
        </g>
        <g id="Grupo_162332" data-name="Grupo 162332" transform="translate(33.509 34.637)">
          <path id="Trazado_201819" data-name="Trazado 201819" d="M162.282,270.949s1.311-6.936,2.785-5.44c.609.617-.261,1.695-.808,2.764C163.482,269.794,162.717,271.253,162.282,270.949Z" transform="translate(-160.557 -265.297)" fill="#1d262d"/>
          <path id="Trazado_201820" data-name="Trazado 201820" d="M162.069,291.54c-.319.363-2.233-.755-2.891-1.333s-1.445-.757-1.126-1.12,1.11-.189,1.769.388S162.388,291.177,162.069,291.54Z" transform="translate(-157.188 -283.774)" fill="#1d262d"/>
          <path id="Trazado_201821" data-name="Trazado 201821" d="M162.133,284.235s6.386-3.459,5.949-1.405C167.75,284.391,162.247,284.715,162.133,284.235Z" transform="translate(-160.441 -278.514)" fill="#1d262d"/>
          <path id="Trazado_201822" data-name="Trazado 201822" d="M155.745,288.424s-.17-.39-.41-.395-1,1.319-1,1.319.657-.658.779-.647.143.156.434-.033.108-.2.108-.2" transform="translate(-154.339 -283.094)" fill="#1d262d"/>
          <path id="Trazado_201823" data-name="Trazado 201823" d="M157.855,286.349c-.091.222-.291.351-.447.287s-.208-.3-.117-.519.291-.35.447-.287S157.946,286.128,157.855,286.349Z" transform="translate(-156.615 -281.36)" fill="#1d262d"/>
          <path id="Trazado_201824" data-name="Trazado 201824" d="M159.2,288.066a.4.4,0,1,1,.138-.615A.454.454,0,0,1,159.2,288.066Z" transform="translate(-157.593 -282.551)" fill="#1d262d"/>
        </g>
        <rect id="Rectángulo_46465" data-name="Rectángulo 46465" width="1.083" height="16.381" transform="translate(33.866 32.038) rotate(-20.649)" fill="#db2323"/>
        <path id="Trazado_201825" data-name="Trazado 201825" d="M218.426,108.683s-.4.5.507.937,4.831,1.42,4.818,1.194.042-.431-.092-.529S222.8,109.663,218.426,108.683Z" transform="translate(-170.935 -108.048)" fill="#f5b89a"/>
        <path id="Trazado_201826" data-name="Trazado 201826" d="M110.172,185.1,95.2,190.226l5.389-13.9-2.968-1.218L79.148,220.568l3.659,1.628,7.843-20.233a52.456,52.456,0,0,0,6.637-6.906s13.81-4.32,14.248-6.828S110.172,185.1,110.172,185.1Z" transform="translate(-61.964 -160.05)" fill="#2b3842" opacity="0.2" style="mix-blend-mode: multiply;isolation: isolate"/>
        <g id="Grupo_162333" data-name="Grupo 162333" transform="translate(0 22.558)">
          <path id="Trazado_201827" data-name="Trazado 201827" d="M90.692,213.7s0,.007,0,.009a4.141,4.141,0,0,1-.986,1.828c-2.347,2.5-12.888,5.1-12.888,5.1s-2.872,4.271-9.85,8.211a17.108,17.108,0,0,1-8.519,2.149,19.84,19.84,0,0,1-4.214-.465,13.115,13.115,0,0,1-1.552-.426v-.356L65.956,213.7s4.883-1.172,8.446-1.943c1.485-.321,2.742-.573,3.317-.64,2.933-.345,6.287-1.388,9.353-1.451C90.613,209.585,91.1,211.989,90.692,213.7Z" transform="translate(-41.243 -209.659)" fill="#f5ac89"/>
          <path id="Trazado_201828" data-name="Trazado 201828" d="M192.208,215.184l.525,2.727a1.041,1.041,0,0,0,1.16.892c1.475-.3,4.179-.99,4.58-2.165.556-1.628-.073-3.175-1.934-3.175a19.943,19.943,0,0,0-3.587.451A1.059,1.059,0,0,0,192.208,215.184Z" transform="translate(-150.461 -212.637)" fill="#f5b89a"/>
          <path id="Trazado_201829" data-name="Trazado 201829" d="M159.162,230.833a9.448,9.448,0,0,0-1.584-3.621S159.3,227.743,159.162,230.833Z" transform="translate(-123.366 -223.401)" fill="#f59d73"/>
          <path id="Trazado_201830" data-name="Trazado 201830" d="M147.535,232.583a9.452,9.452,0,0,0,1.075,3.8S146.979,235.626,147.535,232.583Z" transform="translate(-115.413 -227.606)" fill="#f59d73"/>
          <path id="Trazado_201831" data-name="Trazado 201831" d="M154.339,232.583a21.547,21.547,0,0,0,1.285,3.022S154.539,235.008,154.339,232.583Z" transform="translate(-120.83 -227.606)" fill="#f59d73"/>
          <path id="Trazado_201832" data-name="Trazado 201832" d="M49.447,228.29a4.141,4.141,0,0,1-.986,1.828c-2.347,2.5-12.888,5.1-12.888,5.1s-2.872,4.271-9.85,8.211a17.108,17.108,0,0,1-8.519,2.149L0,275.071v-8.283l12.99-21.672,1.122-1.874s2.282-.473,5.211-1.3c3.828-1.075,8.763-2.749,11.168-4.753l5.243-3.085S48.574,231.236,49.447,228.29Z" transform="translate(0 -224.245)" fill="#f59d73"/>
        </g>
      </g>
    </g>
    <path id="Trazado_202976" data-name="Trazado 202976" d="M16.5,0A16.5,16.5,0,1,1,0,16.5,16.5,16.5,0,0,1,16.5,0Z" transform="translate(976.133 1363.746)" fill="#e55959" opacity="0.65"/>
    <path id="Trazado_202977" data-name="Trazado 202977" d="M8.5,0A8.5,8.5,0,1,1,0,8.5,8.5,8.5,0,0,1,8.5,0Z" transform="translate(984.133 1371.746)" fill="#a12424"/>
    <path id="Trazado_201965" data-name="Trazado 201965" d="M4491.713-10318l12.687,19.533h32l12.467-19.533" transform="translate(-3528.867 11704.746)" fill="none" stroke="#c0bbbb" stroke-width="3"/>
    <path id="Trazado_202978" data-name="Trazado 202978" d="M5,0,0,25" transform="translate(987.633 1406.246)" fill="none" stroke="#c0bbbb" stroke-width="3"/>
  </g>
</svg>
