<svg xmlns="http://www.w3.org/2000/svg" xmlns:xlink="http://www.w3.org/1999/xlink" width="402.642" height="341.657" viewBox="0 0 402.642 341.657">
  <defs>
    <linearGradient id="linear-gradient" x1="-0.088" y1="1.297" x2="0.603" y2="0.362" gradientUnits="objectBoundingBox">
      <stop offset="0" stop-color="#81d4fa"/>
      <stop offset="0.424" stop-color="#81d4fa"/>
      <stop offset="1" stop-color="#7e5ee3"/>
    </linearGradient>
    <linearGradient id="linear-gradient-2" x1="0.431" y1="0.917" x2="0.431" y2="0.009" gradientUnits="objectBoundingBox">
      <stop offset="0" stop-color="#f7941d"/>
      <stop offset="0.752" stop-color="#f7941d"/>
      <stop offset="0.876" stop-color="#f7941d"/>
      <stop offset="0.935" stop-color="#f5921d"/>
      <stop offset="0.956" stop-color="#f08b1d"/>
      <stop offset="0.971" stop-color="#e77f1d"/>
      <stop offset="0.984" stop-color="#db6e1d"/>
      <stop offset="0.994" stop-color="#ca591d"/>
      <stop offset="0.994" stop-color="#ca581d"/>
    </linearGradient>
    <linearGradient id="linear-gradient-3" x1="0.53" y1="-1.336" x2="0.53" y2="-0.335" gradientUnits="objectBoundingBox">
      <stop offset="0" stop-color="#f7941d"/>
      <stop offset="0.225" stop-color="#f7941d"/>
      <stop offset="0.262" stop-color="#f7941d"/>
      <stop offset="0.535" stop-color="#e8801d"/>
      <stop offset="0.994" stop-color="#ca581d"/>
    </linearGradient>
    <linearGradient id="linear-gradient-4" x1="0.539" y1="-1.348" x2="0.539" y2="-0.348" xlink:href="#linear-gradient-3"/>
    <linearGradient id="linear-gradient-5" x1="0.548" y1="-1.36" x2="0.548" y2="-0.36" xlink:href="#linear-gradient-3"/>
    <linearGradient id="linear-gradient-6" x1="0.713" y1="0.387" x2="0.713" y2="-0.088" gradientUnits="objectBoundingBox">
      <stop offset="0" stop-color="#ccc"/>
      <stop offset="0.113" stop-color="#d9d9d9"/>
      <stop offset="0.257" stop-color="#e3e3e3"/>
      <stop offset="0.454" stop-color="#e6e6e6"/>
      <stop offset="0.525" stop-color="#e6e6e6"/>
      <stop offset="1" stop-color="#e6e6e6"/>
    </linearGradient>
  </defs>
  <g id="Grupo_163043" data-name="Grupo 163043" transform="translate(-183.598 -2393.493)">
    <g id="Grupo_162522" data-name="Grupo 162522" transform="translate(10329.598 4136.585)">
      <path id="Trazado_100532" data-name="Trazado 100532" d="M337.382,72.751c-19.689-20.583-90-88.337-235.326-69.469C3.878,16.029-4.008,73.4,1.209,109.284a118.834,118.834,0,0,0,11.546,35.976c5.1,10.192,13.7,30.9,11.485,50.991-1.792,16.278,33.752,113.209,210.011,95.2S368.38,105.158,337.382,72.751Z" transform="translate(-10146 -1692.248) rotate(-8)" fill="#81d4fa"/>
      <path id="Trazado_100534" data-name="Trazado 100534" d="M921.708,275.229c16.454-22.656,75.219-97.232,196.666-76.465,82.049,14.031,88.639,77.182,84.279,116.677a161.768,161.768,0,0,1-9.649,39.6c-4.258,11.218-11.446,34.009-9.6,56.126,1.5,17.917-28.207,124.609-175.51,104.785S895.8,310.9,921.708,275.229Z" transform="translate(-10994.971 -1925.117)" fill="url(#linear-gradient)"/>
      <g id="Grupo_53817" data-name="Grupo 53817" transform="translate(-10116.317 -1488.7)">
        <path id="Trazado_100506" data-name="Trazado 100506" d="M991.11,495.074,942.835,543a2.55,2.55,0,0,1-3.593-3.619l48.275-47.925a2.55,2.55,0,1,1,3.593,3.619Z" transform="translate(-918.245 -490.714)" fill="#fff"/>
        <path id="Trazado_100507" data-name="Trazado 100507" d="M928.181,569.219l-12.187,12.1A2.55,2.55,0,1,1,912.4,577.7l12.186-12.1a2.55,2.55,0,1,1,3.592,3.619Z" transform="translate(-911.649 -508.934)" fill="#fff"/>
      </g>
      <g id="Grupo_53818" data-name="Grupo 53818" transform="translate(-10087.768 -1467.949)">
        <path id="Trazado_100508" data-name="Trazado 100508" d="M997.584,520.853,968.353,549.41a1.532,1.532,0,1,1-2.14-2.191l29.231-28.557a1.532,1.532,0,0,1,2.141,2.191Z" transform="translate(-953.492 -518.226)" fill="#7e5ee3"/>
        <path id="Trazado_100509" data-name="Trazado 100509" d="M959.48,565.034l-7.38,7.209a1.532,1.532,0,0,1-2.141-2.192l7.379-7.208a1.532,1.532,0,1,1,2.141,2.191Z" transform="translate(-949.499 -529.083)" fill="#7e5ee3"/>
      </g>
      <path id="Trazado_100510" data-name="Trazado 100510" d="M1206.542,150.811l-36.71,32.069a1.827,1.827,0,0,0,2.4,2.752l36.71-32.069a1.827,1.827,0,1,0-2.4-2.752Z" transform="translate(-10988.913 -1869.706)" fill="#81d4fa"/>
      <path id="Trazado_100511" data-name="Trazado 100511" d="M1157.075,204.348l-9.267,8.1a1.827,1.827,0,1,0,2.4,2.752l9.267-8.1a1.827,1.827,0,0,0-2.4-2.752Z" transform="translate(-10982.282 -1885.82)" fill="#81d4fa"/>
      <circle id="Elipse_4060" data-name="Elipse 4060" cx="11.915" cy="11.915" r="11.915" transform="translate(-10091.136 -1519.829)" fill="#ff9d00"/>
      <circle id="Elipse_4061" data-name="Elipse 4061" cx="14.237" cy="14.237" r="14.237" transform="translate(-9801.098 -1676.811)" fill="#ff9d00"/>
    </g>
    <g id="Grupo_162534" data-name="Grupo 162534" transform="translate(-444.992 1817.415)">
      <path id="Trazado_201994" data-name="Trazado 201994" d="M985.5,927.713a155.02,155.02,0,0,1-39.859,104q-4.171,4.637-8.7,8.93a155.041,155.041,0,0,1-93.115,42.05q-4.535.4-9.142.541-2.38.074-4.777.073a155.591,155.591,0,1,1,0-311.181,157.192,157.192,0,0,1,18.9,1.136h0A155.617,155.617,0,0,1,985.5,927.713Z" transform="translate(0 -172.646)" fill="#85d1ff" opacity="0.32"/>
      <path id="Trazado_201995" data-name="Trazado 201995" d="M1308.818,788.021l-115.645,18.24-.313-1.986a154.913,154.913,0,0,1,94.731-32.153,157.194,157.194,0,0,1,18.9,1.136h0Z" transform="translate(-457.681 -172.646)" fill="#ccc" style="mix-blend-mode: multiply;isolation: isolate"/>
      <path id="Trazado_201996" data-name="Trazado 201996" d="M1875.02,1180.59a8.128,8.128,0,0,0-3.428-4.768l-9.606-6.283-9.6-6.283a8.159,8.159,0,0,0-12.527,8.1c.042.263.1.524.163.781a.043.043,0,0,0,0,.008,8.131,8.131,0,0,0,3.429,4.769l9.6,6.283,9.605,6.284a8.159,8.159,0,0,0,12.524-8.111s0,0,0,0C1875.141,1181.1,1875.087,1180.845,1875.02,1180.59Z" transform="translate(-1028.652 -516.699)" fill="#ccc" style="mix-blend-mode: multiply;isolation: isolate"/>
      <path id="Trazado_201997" data-name="Trazado 201997" d="M1431.84,1319.235h0c-.24-.112-.484-.213-.733-.3a8.129,8.129,0,0,0-5.87.163l-10.591,4.426-10.59,4.425a8.159,8.159,0,0,0-.325,14.912c.241.113.487.214.738.3l.008,0a8.13,8.13,0,0,0,5.871-.163l10.59-4.426,10.59-4.426a8.159,8.159,0,0,0,.313-14.917Z" transform="translate(-639.662 -654.866)" fill="#ccc" style="mix-blend-mode: multiply;isolation: isolate"/>
      <path id="Trazado_201998" data-name="Trazado 201998" d="M1504.232,1026.631a8.159,8.159,0,0,0-8.14-7.762c-.266,0-.532.013-.8.038h-.008a8.13,8.13,0,0,0-5.247,2.639l-7.711,8.5-7.711,8.5a8.159,8.159,0,0,0,6.047,13.64h0c.265,0,.529-.013.791-.039a8.128,8.128,0,0,0,5.246-2.638l7.711-8.5,7.711-8.5A8.134,8.134,0,0,0,1504.232,1026.631Z" transform="translate(-704.501 -390.433)" fill="#ccc" style="mix-blend-mode: multiply;isolation: isolate"/>
      <path id="Trazado_201999" data-name="Trazado 201999" d="M1432.881,1635.614q-1.394,1.549-2.83,3.062a155.041,155.041,0,0,1-93.115,42.05q-4.535.4-9.142.541l-1.865-3.035a10.194,10.194,0,0,1,3.349-14.021l1.975-1.214-3.257-5.3a7.81,7.81,0,0,1,2.566-10.741l1.263-.776h0c-.894-.946-1.744-1.817-2.556-2.624q-.59-.588-1.157-1.131c-.572-.549-1.124-1.066-1.663-1.554-.013-.013-.026-.024-.039-.035l-.168-.151-.043-.041c-.226-.2-.452-.4-.674-.6-5.711-5-9.79-6.848-16.121-10.684-1.205-.729-2.777-1.752-4.584-2.969-2.534-1.708-5.533-3.8-8.645-6-1.181-.836-2.379-1.689-3.573-2.541-1.793-1.284-3.577-2.568-5.291-3.807l-8.776,1.385a9.38,9.38,0,0,1-10.726-7.8l-1.611-10.218c-2.866-.43-6.052-2.047-9.337-3.746-4.695-2.428-9.515-9.421-6-15.207.129-.216.272-.43.426-.642.032-.042.062-.085.1-.126a8.69,8.69,0,0,1,1.226-1.328c-.744-.462-1.5-.929-2.272-1.394-6.482-3.9-10.988-16.126-6.118-21.581a8.649,8.649,0,0,1,1.186-1.106,7.809,7.809,0,0,1,1.3-.809c.123-.061.246-.116.372-.17.154-.066.31-.126.467-.182l.121-.042c.127-.042.255-.08.384-.116a8.722,8.722,0,0,1,1.762-.295c.055,0,.109-.008.164-.01l-.917-.732c-5.246-4.193-9.949-13.984-4.165-19.478,2.772-2.633,6.49-2.944,10.5-1.6l-3.014-19.116c-.2-.054-.406-.113-.61-.177-.72-.222-1.454-.493-2.2-.8-.245-.1-.493-.208-.742-.319q-.7-.31-1.421-.658c-1.728-.838-3.513-1.818-5.323-2.82-5.876-3.252-12.16-12.111-7.384-18.5a8.452,8.452,0,0,1,4.442-3.1,10.528,10.528,0,0,1,2.059-.392c.177-.016.357-.027.536-.036a3.894,3.894,0,0,1,2.888-2.125l53.972-8.513-46.038,7.26-1.613-10.225-.806-5.114,92.075-14.522.806,5.114,1.613,10.225,7.935-1.251a3.9,3.9,0,0,1,1.214,7.7l-3.116.492,2.257,14.316s0,0,0,0l.616,3.91h0a12.206,12.206,0,0,1,1.932-3.007,9.425,9.425,0,0,1,4.982-3.129l.019,0c.075-.016.149-.035.224-.051l-.036.009.036-.008c.055-.014.112-.025.167-.033l.2-.034c.083-.014.168-.026.256-.038a7.052,7.052,0,0,1,5.7,2.387h0a9.578,9.578,0,0,1,2.35,4.552c.064.29.121.59.165.9.093.643.2,1.295.312,1.952.513,2.935,1.239,6.016,2.123,9.3q.245.912.5,1.843c.563,2.019,1.179,4.114,1.833,6.3,2.19,7.314,10.4,25.489,13.9,33a36.34,36.34,0,0,1,3.853,17.344,184.971,184.971,0,0,1-2.012,25.193c-1.376,9.293.877,21.012,1.275,22.968l1.271-.781a7.808,7.808,0,0,1,10.741,2.564l3.256,5.3h0l1.974-1.212a10.193,10.193,0,0,1,14.022,3.349Z" transform="translate(-493.107 -770.682)" fill="#ccc" style="mix-blend-mode: multiply;isolation: isolate"/>
      <g id="Grupo_162533" data-name="Grupo 162533" transform="translate(738.732 576.518)">
        <path id="Trazado_202000" data-name="Trazado 202000" d="M1849.863,1768.472a184.919,184.919,0,0,1-2.012,25.192c-1.376,9.294.877,21.014,1.275,22.968.039.182.059.282.059.282l-59.358,36.472-.191-.2c-.895-.946-1.744-1.818-2.556-2.625q-.591-.588-1.157-1.131c-.572-.549-1.124-1.066-1.663-1.554l-.039-.035-.168-.151-.044-.04c-.227-.2-.452-.4-.673-.6-5.712-5-9.79-6.849-16.122-10.684-1.205-.729-2.776-1.753-4.584-2.969-2.534-1.707-5.532-3.8-8.644-6-1.182-.836-2.379-1.689-3.573-2.542-1.823-1.3-3.638-2.61-5.376-3.868l31.19-4.919-7.994-50.687,47.969-7.566-2.3-14.605,4.317-2.382-.288-1.536-6.559-35.047a19.606,19.606,0,0,1,.185-5.7,9.3,9.3,0,0,1,.813-2.395c1.533-2.939,3.571-4.624,6.131-5.149.055-.014.112-.024.167-.033s.132-.024.2-.034c.083-.014.168-.025.255-.037a7.056,7.056,0,0,1,5.7,2.388,9.83,9.83,0,0,1,2.518,5.452,104.462,104.462,0,0,0,2.94,13.1c.563,2.019,1.178,4.113,1.833,6.3,2.19,7.315,10.4,25.489,13.9,33A36.339,36.339,0,0,1,1849.863,1768.472Z" transform="translate(-1683.783 -1560.072)" fill="#fcb89d"/>
        <path id="Trazado_202001" data-name="Trazado 202001" d="M1823.973,2293.375l3.233,20.5a10.161,10.161,0,0,1-2.582,8.5l-.359.37a.009.009,0,0,0-.005.005l-40,41.2-.039-.035-.168-.152-.044-.041c-.227-.2-.452-.4-.673-.6-5.712-5-9.79-6.849-16.122-10.685-1.205-.729-2.776-1.753-4.584-2.969-2.534-1.707-5.532-3.795-8.644-6-1.182-.836-2.379-1.689-3.573-2.542-1.823-1.3-3.638-2.61-5.376-3.867l31.19-4.919-7.994-50.687,37.392-5.9Z" transform="translate(-1683.783 -2076.15)" fill="#e6e6e6" style="mix-blend-mode: multiply;isolation: isolate"/>
        <path id="Trazado_202002" data-name="Trazado 202002" d="M1311.92,1706.433a8.646,8.646,0,0,1-2.167,2.335,6.648,6.648,0,0,1-2.558,1.122,10.333,10.333,0,0,1-4.742-.3h-.005l-.051-.015c-.212-.056-.424-.118-.638-.185-.719-.223-1.454-.493-2.2-.8-.245-.1-.493-.207-.742-.319q-.7-.31-1.42-.658c-1.728-.838-3.514-1.818-5.323-2.82-5.877-3.252-12.16-12.111-7.383-18.5a8.46,8.46,0,0,1,4.443-3.1,10.559,10.559,0,0,1,2.059-.392,13.263,13.263,0,0,1,1.706-.042,15.975,15.975,0,0,1,1.927.193,20.5,20.5,0,0,1,2.382.529q.563.159,1.134.35c.017,0,.035.011.052.017l.006,0a29.442,29.442,0,0,1,2.913,1.162q.472.217.945.451.593.292,1.188.615.7.376,1.392.789a18.865,18.865,0,0,1,1.64,1.094C1312.952,1692.793,1315.386,1701.136,1311.92,1706.433Z" transform="translate(-1275.971 -1552.914)" fill="#fcb89d"/>
        <path id="Trazado_202003" data-name="Trazado 202003" d="M1387.3,1685.383l4.06,25.742h-.005l-.051-.015c-.212-.056-.424-.118-.638-.185-.719-.223-1.454-.493-2.2-.8-.245-.1-.493-.207-.742-.319l-3.993-25.317a20.507,20.507,0,0,1,2.382.529q.563.159,1.134.35c.017,0,.035.011.052.017Z" transform="translate(-1364.877 -1554.446)" fill="#ccc" style="mix-blend-mode: multiply;isolation: isolate"/>
        <g id="Grupo_162532" data-name="Grupo 162532" transform="translate(0 0)">
          <path id="Trazado_202004" data-name="Trazado 202004" d="M1520.562,1589.51l-101.711,16.042,18.867,119.623a9.38,9.38,0,0,0,10.726,7.8l83.18-13.119a9.38,9.38,0,0,0,7.8-10.726Z" transform="translate(-1395.88 -1470.619)" fill="url(#linear-gradient-2)"/>
          <path id="Trazado_202005" data-name="Trazado 202005" d="M1539.54,1822.106a9.383,9.383,0,0,1-7.921,9.258l-83.18,13.119a9.38,9.38,0,0,1-10.727-7.8l-18.867-119.624,7.7-1.215,17.652,111.922a9.374,9.374,0,0,0,10.727,7.8l83.179-13.119A9.257,9.257,0,0,0,1539.54,1822.106Z" transform="translate(-1395.875 -1582.124)" fill="#f2f2f2" style="mix-blend-mode: multiply;isolation: isolate"/>
          <path id="Trazado_202006" data-name="Trazado 202006" d="M1465.14,1519.35,1357.2,1536.375a3.9,3.9,0,0,0-3.243,4.457h0a3.9,3.9,0,0,0,4.458,3.243l107.944-17.025a3.9,3.9,0,0,0,3.243-4.457h0A3.9,3.9,0,0,0,1465.14,1519.35Z" transform="translate(-1338.556 -1408.65)" fill="#f7941d"/>
          <rect id="Rectángulo_46529" data-name="Rectángulo 46529" width="93.213" height="5.176" transform="translate(25.768 121.36) rotate(-8.963)" fill="url(#linear-gradient-3)"/>
          <rect id="Rectángulo_46530" data-name="Rectángulo 46530" width="93.213" height="5.176" transform="matrix(0.988, -0.156, 0.156, 0.988, 24.961, 116.247)" fill="url(#linear-gradient-4)"/>
          <rect id="Rectángulo_46531" data-name="Rectángulo 46531" width="93.213" height="5.176" transform="translate(24.155 111.134) rotate(-8.963)" fill="url(#linear-gradient-5)"/>
          <path id="Trazado_202007" data-name="Trazado 202007" d="M1886.582,1802.828l-50.893,8.027a7.84,7.84,0,0,0-6.523,8.966l9.988,63.326a7.841,7.841,0,0,0,8.966,6.523l50.893-8.027Z" transform="translate(-1757.952 -1658.9)" fill="#fff"/>
          <path id="Rectángulo_46532" data-name="Rectángulo 46532" d="M3,0h43.98a0,0,0,0,1,0,0V6a0,0,0,0,1,0,0H3A3,3,0,0,1,0,3V3A3,3,0,0,1,3,0Z" transform="translate(84.263 163.586) rotate(-8.963)" fill="#ff754a"/>
          <path id="Trazado_202008" data-name="Trazado 202008" d="M2110.533,2088.071l-32.08,5.06a1.939,1.939,0,0,0-1.613,2.217h0a1.939,1.939,0,0,0,2.217,1.613l32.079-5.06Z" transform="translate(-1976.623 -1910.665)" fill="#48c2ed"/>
          <path id="Trazado_202009" data-name="Trazado 202009" d="M2123.039,2167.364l-32.079,5.059a1.939,1.939,0,0,0-1.613,2.217h0a1.939,1.939,0,0,0,2.217,1.613l32.079-5.06Z" transform="translate(-1987.661 -1980.652)" fill="#48c2ed"/>
          <path id="Trazado_202010" data-name="Trazado 202010" d="M2135.545,2246.656l-32.079,5.06a1.939,1.939,0,0,0-1.613,2.217h0a1.939,1.939,0,0,0,2.217,1.613l32.079-5.06Z" transform="translate(-1998.699 -2050.637)" fill="#48c2ed"/>
          <path id="Trazado_202011" data-name="Trazado 202011" d="M2148.051,2325.949l-32.079,5.06a1.938,1.938,0,0,0-1.613,2.217h0a1.938,1.938,0,0,0,2.217,1.613l32.079-5.06Z" transform="translate(-2009.737 -2120.624)" fill="#48c2ed"/>
          <g id="Grupo_162524" data-name="Grupo 162524">
            <path id="Trazado_202012" data-name="Trazado 202012" d="M1329.081,659.757l-98.712,15.569a8.571,8.571,0,0,0-7.131,9.8l2.522,15.994,115.645-18.239-2.523-15.994A8.571,8.571,0,0,0,1329.081,659.757Z" transform="translate(-1223.132 -649.894)" fill="#e6e6e6"/>
            <path id="Trazado_202013" data-name="Trazado 202013" d="M1403.217,576.589l-76.731,12.1a5.743,5.743,0,0,0-4.778,6.567l.923,5.853,88.075-13.891-.923-5.853A5.742,5.742,0,0,0,1403.217,576.589Z" transform="translate(-1310.076 -576.518)" fill="url(#linear-gradient-6)"/>
            <path id="Trazado_202014" data-name="Trazado 202014" d="M1289.868,829.561h0a.875.875,0,0,0-.728,1l2.208,14a.875.875,0,0,0,1,.728h0a.875.875,0,0,0,.728-1l-2.208-14A.875.875,0,0,0,1289.868,829.561Z" transform="translate(-1281.383 -799.852)" fill="#e6e6e6" style="mix-blend-mode: multiply;isolation: isolate"/>
            <path id="Trazado_202015" data-name="Trazado 202015" d="M1345.3,820.818h0a.875.875,0,0,0-.728,1l2.208,14a.876.876,0,0,0,1,.728h0a.876.876,0,0,0,.728-1l-2.208-14A.875.875,0,0,0,1345.3,820.818Z" transform="translate(-1330.312 -792.135)" fill="#e6e6e6" style="mix-blend-mode: multiply;isolation: isolate"/>
            <path id="Trazado_202016" data-name="Trazado 202016" d="M1400.738,812.075h0a.875.875,0,0,0-.728,1l2.208,14a.876.876,0,0,0,1,.728h0a.876.876,0,0,0,.728-1l-2.208-14A.875.875,0,0,0,1400.738,812.075Z" transform="translate(-1379.241 -784.419)" fill="#e6e6e6" style="mix-blend-mode: multiply;isolation: isolate"/>
            <path id="Trazado_202017" data-name="Trazado 202017" d="M1456.172,803.332h0a.876.876,0,0,0-.728,1l2.208,14a.876.876,0,0,0,1,.728h0a.876.876,0,0,0,.728-1l-2.208-14A.875.875,0,0,0,1456.172,803.332Z" transform="translate(-1428.169 -776.702)" fill="#e6e6e6" style="mix-blend-mode: multiply;isolation: isolate"/>
            <path id="Trazado_202018" data-name="Trazado 202018" d="M1511.607,794.589h0a.875.875,0,0,0-.728,1l2.208,14a.875.875,0,0,0,1,.728h0a.875.875,0,0,0,.728-1l-2.208-14A.875.875,0,0,0,1511.607,794.589Z" transform="translate(-1477.097 -768.985)" fill="#e6e6e6" style="mix-blend-mode: multiply;isolation: isolate"/>
            <path id="Trazado_202019" data-name="Trazado 202019" d="M1567.042,785.846h0a.876.876,0,0,0-.728,1l2.208,14a.876.876,0,0,0,1,.728h0a.876.876,0,0,0,.729-1l-2.208-14A.875.875,0,0,0,1567.042,785.846Z" transform="translate(-1526.026 -761.268)" fill="#e6e6e6" style="mix-blend-mode: multiply;isolation: isolate"/>
            <path id="Trazado_202020" data-name="Trazado 202020" d="M1622.476,777.1h0a.876.876,0,0,0-.728,1l2.208,14a.875.875,0,0,0,1,.728h0a.875.875,0,0,0,.728-1l-2.208-14A.875.875,0,0,0,1622.476,777.1Z" transform="translate(-1574.954 -753.551)" fill="#e6e6e6" style="mix-blend-mode: multiply;isolation: isolate"/>
            <path id="Trazado_202021" data-name="Trazado 202021" d="M1677.911,768.36h0a.875.875,0,0,0-.728,1l2.208,14a.876.876,0,0,0,1,.728h0a.875.875,0,0,0,.728-1l-2.208-14A.875.875,0,0,0,1677.911,768.36Z" transform="translate(-1623.883 -745.834)" fill="#e6e6e6" style="mix-blend-mode: multiply;isolation: isolate"/>
            <path id="Trazado_202022" data-name="Trazado 202022" d="M1733.346,759.617h0a.875.875,0,0,0-.728,1l2.208,14a.875.875,0,0,0,1,.728h0a.875.875,0,0,0,.728-1l-2.208-14A.875.875,0,0,0,1733.346,759.617Z" transform="translate(-1672.811 -738.117)" fill="#e6e6e6" style="mix-blend-mode: multiply;isolation: isolate"/>
            <path id="Trazado_202023" data-name="Trazado 202023" d="M1788.781,750.873h0a.875.875,0,0,0-.728,1l2.208,14a.875.875,0,0,0,1,.728h0a.875.875,0,0,0,.728-1l-2.208-14A.875.875,0,0,0,1788.781,750.873Z" transform="translate(-1721.74 -730.4)" fill="#e6e6e6" style="mix-blend-mode: multiply;isolation: isolate"/>
            <path id="Trazado_202024" data-name="Trazado 202024" d="M1844.215,742.13h0a.875.875,0,0,0-.728,1l2.208,14a.876.876,0,0,0,1,.728h0a.875.875,0,0,0,.728-1l-2.208-14A.876.876,0,0,0,1844.215,742.13Z" transform="translate(-1770.668 -722.683)" fill="#e6e6e6" style="mix-blend-mode: multiply;isolation: isolate"/>
            <path id="Trazado_202025" data-name="Trazado 202025" d="M1899.65,733.387h0a.875.875,0,0,0-.728,1l2.208,14a.876.876,0,0,0,1,.728h0a.876.876,0,0,0,.728-1l-2.208-14A.875.875,0,0,0,1899.65,733.387Z" transform="translate(-1819.597 -714.966)" fill="#e6e6e6" style="mix-blend-mode: multiply;isolation: isolate"/>
            <path id="Trazado_202026" data-name="Trazado 202026" d="M1955.085,724.644h0a.875.875,0,0,0-.728,1l2.208,14a.876.876,0,0,0,1,.728h0a.876.876,0,0,0,.728-1l-2.208-14A.875.875,0,0,0,1955.085,724.644Z" transform="translate(-1868.526 -707.249)" fill="#e6e6e6" style="mix-blend-mode: multiply;isolation: isolate"/>
            <path id="Trazado_202027" data-name="Trazado 202027" d="M2010.519,715.9h0a.876.876,0,0,0-.728,1l2.208,14a.875.875,0,0,0,1,.728h0a.875.875,0,0,0,.729-1l-2.208-14A.875.875,0,0,0,2010.519,715.9Z" transform="translate(-1917.454 -699.532)" fill="#e6e6e6" style="mix-blend-mode: multiply;isolation: isolate"/>
            <path id="Trazado_202028" data-name="Trazado 202028" d="M2065.954,707.158h0a.876.876,0,0,0-.729,1l2.208,14a.875.875,0,0,0,1,.728h0a.875.875,0,0,0,.729-1l-2.208-14A.875.875,0,0,0,2065.954,707.158Z" transform="translate(-1966.382 -691.815)" fill="#e6e6e6" style="mix-blend-mode: multiply;isolation: isolate"/>
            <path id="Trazado_202029" data-name="Trazado 202029" d="M2121.389,698.415h0a.875.875,0,0,0-.728,1l2.208,14a.875.875,0,0,0,1,.728h0a.875.875,0,0,0,.728-1l-2.208-14A.875.875,0,0,0,2121.389,698.415Z" transform="translate(-2015.311 -684.098)" fill="#e6e6e6" style="mix-blend-mode: multiply;isolation: isolate"/>
          </g>
          <g id="Grupo_162525" data-name="Grupo 162525" transform="translate(46.792 221.36)">
            <path id="Trazado_202030" data-name="Trazado 202030" d="M1635.09,2483.8l-9.586-6.271a8.143,8.143,0,0,1-2.357-11.272h0a8.143,8.143,0,0,1,11.272-2.357l9.586,6.271Z" transform="translate(-1621.818 -2462.573)" fill="#4d4d4d" style="mix-blend-mode: screen;isolation: isolate"/>
            <path id="Trazado_202031" data-name="Trazado 202031" d="M1744.489,2547.229l-9.586-6.271,8.915-13.629,9.586,6.271a8.143,8.143,0,0,1,2.357,11.272h0A8.143,8.143,0,0,1,1744.489,2547.229Z" transform="translate(-1721.63 -2519.729)" fill="#ccc" style="mix-blend-mode: color-burn;isolation: isolate"/>
          </g>
          <g id="Grupo_162526" data-name="Grupo 162526" transform="translate(85.96 226.68)">
            <path id="Trazado_202032" data-name="Trazado 202032" d="M1976.264,2540.047l-11.315,1.785a8.143,8.143,0,0,1-9.312-6.775h0a8.143,8.143,0,0,1,6.775-9.312l11.315-1.784Z" transform="translate(-1955.536 -2522.075)" fill="#4d4d4d" style="mix-blend-mode: screen;isolation: isolate"/>
            <path id="Trazado_202033" data-name="Trazado 202033" d="M2124.378,2524.085l-11.315,1.785-2.537-16.087,11.315-1.785a8.143,8.143,0,0,1,9.312,6.775h0A8.143,8.143,0,0,1,2124.378,2524.085Z" transform="translate(-2092.335 -2507.897)" fill="#ccc" style="mix-blend-mode: color-burn;isolation: isolate"/>
          </g>
          <g id="Grupo_162527" data-name="Grupo 162527" transform="translate(66.725 201.809)">
            <path id="Trazado_202034" data-name="Trazado 202034" d="M1910.286,2302.89l9.89-5.781a8.143,8.143,0,0,1,11.139,2.921h0a8.143,8.143,0,0,1-2.921,11.139l-9.889,5.781Z" transform="translate(-1896.362 -2295.995)" fill="#4d4d4d" style="mix-blend-mode: screen;isolation: isolate"/>
            <path id="Trazado_202035" data-name="Trazado 202035" d="M1795.68,2360.521l9.889-5.78,8.218,14.06-9.89,5.781a8.143,8.143,0,0,1-11.139-2.921h0A8.143,8.143,0,0,1,1795.68,2360.521Z" transform="translate(-1791.645 -2347.846)" fill="#ccc" style="mix-blend-mode: color-burn;isolation: isolate"/>
          </g>
          <g id="Grupo_162528" data-name="Grupo 162528" transform="translate(45.509 182.266)">
            <path id="Trazado_202036" data-name="Trazado 202036" d="M1658.33,2144.594l4.813-10.395a8.143,8.143,0,0,1,10.811-3.968h0a8.143,8.143,0,0,1,3.967,10.811l-4.813,10.395Z" transform="translate(-1652.761 -2129.476)" fill="#4d4d4d" style="mix-blend-mode: screen;isolation: isolate"/>
            <path id="Trazado_202037" data-name="Trazado 202037" d="M1611.636,2268.681l4.813-10.395,14.778,6.843-4.813,10.395a8.143,8.143,0,0,1-10.811,3.968h0A8.143,8.143,0,0,1,1611.636,2268.681Z" transform="translate(-1610.881 -2243.168)" fill="#ccc" style="mix-blend-mode: color-burn;isolation: isolate"/>
          </g>
          <g id="Grupo_162529" data-name="Grupo 162529" transform="translate(78.239 62.839)">
            <path id="Trazado_202038" data-name="Trazado 202038" d="M1911.987,1119.539l-8.933,13.656-9.6-6.283a8.13,8.13,0,0,1-3.429-4.769.035.035,0,0,1,0-.008c-.067-.257-.121-.519-.163-.781a8.159,8.159,0,0,1,12.526-8.1Z" transform="translate(-1889.755 -1111.924)" fill="#fff"/>
            <path id="Trazado_202039" data-name="Trazado 202039" d="M2023.964,1194.384a8.158,8.158,0,0,1-11.294,2.361l-9.605-6.283,8.933-13.656,9.605,6.283a8.129,8.129,0,0,1,3.428,4.768c.067.255.121.514.163.776,0,0,0,0,0,0A8.128,8.128,0,0,1,2023.964,1194.384Z" transform="translate(-1989.766 -1169.191)" fill="#e5285d"/>
          </g>
          <g id="Grupo_162530" data-name="Grupo 162530" transform="translate(26.514 81.211)">
            <path id="Trazado_202040" data-name="Trazado 202040" d="M1464.645,1311.565l6.292,15.056-10.59,4.426a8.13,8.13,0,0,1-5.871.163l-.008,0q-.376-.134-.738-.3a8.159,8.159,0,0,1,.325-14.912Z" transform="translate(-1449.04 -1306.506)" fill="#fff"/>
            <path id="Trazado_202041" data-name="Trazado 202041" d="M1603.266,1273.479a8.157,8.157,0,0,1-4.382,10.674l-10.59,4.426L1582,1273.522l10.59-4.426a8.128,8.128,0,0,1,5.87-.162c.249.088.493.188.733.3h0A8.129,8.129,0,0,1,1603.266,1273.479Z" transform="translate(-1566.397 -1268.464)" fill="#e5285d"/>
          </g>
          <g id="Grupo_162531" data-name="Grupo 162531" transform="translate(35.136 46.049)">
            <path id="Trazado_202042" data-name="Trazado 202042" d="M1618.319,991.011l-12.087-10.963,7.711-8.5a8.131,8.131,0,0,1,5.247-2.639h.008c.265-.026.531-.038.8-.038a8.159,8.159,0,0,1,6.034,13.641Z" transform="translate(-1596.405 -968.869)" fill="#fff"/>
            <path id="Trazado_202043" data-name="Trazado 202043" d="M1525.179,1084.147a8.157,8.157,0,0,1-.562-11.524l7.711-8.5,12.087,10.963-7.711,8.5a8.129,8.129,0,0,1-5.246,2.638c-.262.026-.527.039-.791.039h0A8.128,8.128,0,0,1,1525.179,1084.147Z" transform="translate(-1522.501 -1052.942)" fill="#e5285d"/>
          </g>
        </g>
        <path id="Trazado_202044" data-name="Trazado 202044" d="M2162.311,2754.995l-75.33,46.284-3.256-5.3a7.809,7.809,0,0,1,2.565-10.741l62.023-38.108a7.809,7.809,0,0,1,10.741,2.566Z" transform="translate(-1981.699 -2491.351)" fill="#fff"/>
        <path id="Trazado_202045" data-name="Trazado 202045" d="M2170.409,2821.261a155.232,155.232,0,0,1-101.813,50.98l-5.139-8.362a10.194,10.194,0,0,1,3.349-14.021l1.975-1.213,75.331-46.286,1.974-1.213a10.193,10.193,0,0,1,14.021,3.349Z" transform="translate(-1963.499 -2538.717)" fill="#4a6684"/>
        <path id="Trazado_202046" data-name="Trazado 202046" d="M1448.9,2480.536a8.044,8.044,0,0,1-2.8,2.762,7.1,7.1,0,0,1-4.589.706c-2.885-.411-6.1-2.043-9.414-3.758-4.7-2.429-9.516-9.422-6-15.208.129-.216.272-.43.426-.641.031-.042.063-.085.094-.126a8.718,8.718,0,0,1,1.227-1.327c2.583-2.266,6.2-2.621,10.1-1.58a24.122,24.122,0,0,1,5.018,2.014q.325.171.65.353a13.56,13.56,0,0,1,4.588,4.207c.179.264.349.532.507.805C1450.9,2472.512,1451.119,2477.105,1448.9,2480.536Z" transform="translate(-1401.213 -2239.654)" fill="#fcb89d"/>
        <path id="Trazado_202047" data-name="Trazado 202047" d="M1545.254,2449.052l-.075-.112a16.39,16.39,0,0,0-1.323-1.694q-.2-.226-.411-.442a16.3,16.3,0,0,0-3.765-2.908q-1.249-.7-2.486-1.254-.757-.34-1.508-.624t-1.505-.515q-.541-.166-1.076-.3-.438-.111-.87-.2l.455,2.882q.935.25,1.889.6l.077.029h0q.419.156.84.333.472.2.947.419.317.147.632.305t.633.325q.163.085.325.174c.109.058.217.118.325.179a13.542,13.542,0,0,1,4.588,4.207c.071.105.141.211.21.319l.084.133c.035.056.069.112.1.168s.075.124.11.187.09.156.133.234c.031.054.061.111.091.166.021.039.041.077.062.115.031.06.062.119.091.178.019.038.037.074.056.112q.205.414.379.839c.036.089.072.177.105.266s.074.194.108.292c.016.043.032.087.046.13s.031.091.046.137a12.514,12.514,0,0,1,.386,1.433c.008.036.015.072.022.107s.016.083.024.125.012.066.018.1.011.068.018.1a10.1,10.1,0,0,1-2.124,8.459c-.055.068-.112.134-.169.2a7.147,7.147,0,0,1-1.895,1.56c-.125.07-.251.135-.378.2a6.136,6.136,0,0,1-.909.344,6.613,6.613,0,0,1-.808.18c-.2.032-.408.055-.615.069q-.378.026-.764.016c-.1,0-.209-.007-.314-.014s-.212-.015-.319-.025-.213-.022-.32-.036l-.161-.022.436,2.762a10.772,10.772,0,0,0,1.865-.007c.207-.019.412-.044.614-.076a9.078,9.078,0,0,0,2.114-.6,10.321,10.321,0,0,0,4.625-4.084,12.837,12.837,0,0,0,1.963-7.854A15.527,15.527,0,0,0,1545.254,2449.052Z" transform="translate(-1495.957 -2222.175)" fill="#ccc" style="mix-blend-mode: multiply;isolation: isolate"/>
        <path id="Trazado_202048" data-name="Trazado 202048" d="M1490.148,2514.043c-.68-1.859-3.217-4.417-5.245-4.589s-4.578.447-5.387,2.436a9.241,9.241,0,0,0-.448,3.537c.01,1.49.09,3.1,1.133,4.168a18.876,18.876,0,0,0,3.657,2.579c2.75,1.182,3.93,1.809,5.257-.681C1490.093,2519.659,1490.827,2515.9,1490.148,2514.043Z" transform="translate(-1449.027 -2282.568)" fill="#666" style="mix-blend-mode: screen;isolation: isolate"/>
        <path id="Trazado_202049" data-name="Trazado 202049" d="M1391.234,2288.664a8.453,8.453,0,0,1-3.746,2.777,8.067,8.067,0,0,1-4.692.052c-3.977-1.008-8.471-4.217-13.55-7.274-6.481-3.9-10.988-16.126-6.118-21.581a8.115,8.115,0,0,1,2.484-1.915,7.668,7.668,0,0,1,.96-.395,8.579,8.579,0,0,1,2.311-.421c2.8-.139,6.006.9,9.355,2.69a48.82,48.82,0,0,1,5.216,3.268q.328.232.656.472.5.365,1,.745.309.233.607.473.391.315.764.639C1393.5,2274.3,1395.791,2283.129,1391.234,2288.664Z" transform="translate(-1344.887 -2062.323)" fill="#fcb89d"/>
        <path id="Trazado_202050" data-name="Trazado 202050" d="M1457.479,2363.209c-.772-2.112-4.592-5.34-6.9-5.535s-5.261.032-6.182,2.291a12.047,12.047,0,0,0-.623,4.288,6.539,6.539,0,0,0,1.833,4.543q.072.073.146.145a14,14,0,0,0,4.01,2.785c3.124,1.343,4.484,2.125,6.438-.417A8.987,8.987,0,0,0,1457.479,2363.209Z" transform="translate(-1417.88 -2148.577)" fill="#666" style="mix-blend-mode: screen;isolation: isolate"/>
        <path id="Trazado_202051" data-name="Trazado 202051" d="M1384.067,2073.863c6.815,5.792,8.351,15.467,3.7,20.478-5.5,5.921-12.187.721-19.291-4.959-5.246-4.194-9.949-13.985-4.166-19.478C1369.167,2065.288,1376.939,2067.8,1384.067,2073.863Z" transform="translate(-1345.392 -1892.53)" fill="#fcb89d"/>
        <path id="Trazado_202052" data-name="Trazado 202052" d="M1458.874,2309.269a25.307,25.307,0,0,0-4.8-5.819q-.613-.556-1.269-1.083c-.222-.179-.45-.356-.673-.525l-.161-.121a7.7,7.7,0,0,1-2.469,1.534q.5.365,1,.745.309.233.607.473.391.315.764.639c7.011,6.1,9.305,14.934,4.748,20.469q-.23.28-.463.531a8.043,8.043,0,0,1-3.283,2.246,6.69,6.69,0,0,1-1.15.286,8.791,8.791,0,0,1-3.542-.234c-3.373-.855-7.119-3.293-11.277-5.88a8.725,8.725,0,0,0-1.227,1.327c-.032.041-.063.083-.094.126-.154.212-.3.426-.426.642q.633.393,1.25.78a70.378,70.378,0,0,0,7.734,4.4,18.369,18.369,0,0,0,4.491,1.458,10.74,10.74,0,0,0,3.512.045,9.409,9.409,0,0,0,1.155-.257,10.42,10.42,0,0,0,4.468-2.724q.482-.48.937-1.032a12.851,12.851,0,0,0,2.488-4.808,14.478,14.478,0,0,0,.4-5.318A19.6,19.6,0,0,0,1458.874,2309.269Z" transform="translate(-1410.277 -2099.239)" fill="#ccc" style="mix-blend-mode: multiply;isolation: isolate"/>
        <path id="Trazado_202053" data-name="Trazado 202053" d="M1424.632,2062.213a21.119,21.119,0,0,0-4.154-5.64q-.511-.494-1.057-.958a36.513,36.513,0,0,0-6.381-4.42q-1.086-.58-2.162-1.036-.448-.189-.891-.355c-.186-.07-.371-.137-.555-.2q-.632-.218-1.254-.385c-.082-.021-.026-.007-.155-.038l.466,2.956.01,0c.1.033.2.068.294.1l.014,0c.1.035.2.072.294.11l.043.016c.095.036.188.073.284.11.071.028.142.058.214.087l.184.076q.326.138.655.291l.156.073c.352.164.705.342,1.058.529.071.038.143.075.212.115q.216.115.431.239c.088.05.178.1.267.153l.025.015.31.183c.213.128.429.261.643.4.085.053.171.109.256.164l.257.168c.085.057.172.114.256.172q.256.174.514.354l.257.181.171.124c.057.04.113.082.17.124.093.068.186.136.279.206.073.054.147.11.219.165s.165.124.245.188q.736.566,1.464,1.186a18.7,18.7,0,0,1,3.475,3.913c.052.077.1.154.152.232l.009.014.056.089c.052.08.1.16.149.24.23.375.444.758.644,1.142q.107.207.207.415c.045.093.09.187.133.28s.078.171.116.257.079.178.116.269a16.038,16.038,0,0,1,1.316,6.141c0,.281-.005.559-.022.836h0a12.034,12.034,0,0,1-.507,2.871c-.046.152-.1.3-.15.451l-.007.019q-.1.288-.224.567c-.081.194-.169.382-.264.569s-.192.368-.3.547-.215.354-.332.527c-.059.086-.118.171-.18.254a9.3,9.3,0,0,1-.693.844h0c-.044.047-.087.094-.132.139-.088.092-.175.18-.264.264l-.133.127-.125.114c-.008.009-.017.016-.026.024l-.116.1-.1.082-.094.078c-.039.032-.08.065-.12.1s-.066.053-.1.079-.086.066-.13.1l-.135.1c-.136.1-.272.188-.41.273-.046.029-.091.056-.136.083-.028.018-.055.033-.082.048s-.071.042-.108.061c-.061.034-.122.066-.183.1l-.077.04-.1.05-.13.061c-.068.03-.135.061-.2.088s-.152.062-.229.09a.045.045,0,0,1-.017.007l-.08.028c-.157.057-.316.108-.474.15l-.185.048-.156.036q-.184.04-.371.069c-.071.011-.14.021-.213.031l-.086.01-.143.015-.09.006c-.156.013-.313.019-.471.021h-.264l-.126-.005c-.036,0-.073,0-.108,0-.063,0-.124-.007-.186-.012-.1-.007-.2-.018-.3-.03l-.111-.015a.035.035,0,0,1-.016,0l-.127-.017c-.129-.019-.26-.041-.389-.066l-.117-.023-.131-.028c-.042-.009-.085-.02-.127-.029l-.146-.035q-.183-.045-.368-.1-.129-.037-.259-.078l-.157-.05-.092-.031-.01,0-.122-.041a.179.179,0,0,0-.027-.009c-.142-.051-.284-.1-.427-.159l-.016-.006c-.146-.057-.292-.118-.439-.18-.251-.106-.5-.222-.756-.346l-.151-.074-.011,0-.231-.117-.116-.06c-.083-.044-.165-.087-.247-.132-.659-.355-1.323-.756-1.995-1.193l-.222-.146c-.1-.065-.2-.129-.293-.2-.061-.04-.121-.081-.182-.122-.324-.221-.65-.451-.978-.686-.074-.054-.149-.107-.222-.161q-.242-.174-.483-.354-.123-.09-.243-.181l-.243-.181q-.245-.183-.487-.371c-.082-.062-.162-.123-.243-.187q-.489-.375-.981-.763c-.271-.212-.541-.426-.813-.643a8.619,8.619,0,0,0-2.31.421,7.847,7.847,0,0,0-.961.395c.221.194.444.383.668.562a66.755,66.755,0,0,0,8.073,5.834,19.023,19.023,0,0,0,4.271,1.874c.218.062.434.117.649.167l.01,0a11.386,11.386,0,0,0,1.9.272,9.753,9.753,0,0,0,2.084-.1c.24-.038.478-.085.713-.142a9.362,9.362,0,0,0,2.506-1,11.146,11.146,0,0,0,2.2-1.66c.188-.178.372-.365.554-.562q.366-.394.694-.82a13.915,13.915,0,0,0,2.674-9.429A19.364,19.364,0,0,0,1424.632,2062.213Z" transform="translate(-1378.996 -1876.339)" fill="#ccc" style="mix-blend-mode: multiply;isolation: isolate"/>
        <path id="Trazado_202054" data-name="Trazado 202054" d="M1433.111,2156.78c-.549-2.181-4.015-5.787-6.287-6.219s-5.237-.513-6.386,1.64a12.041,12.041,0,0,0-1.063,4.2,6.538,6.538,0,0,0,1.353,4.708c.043.054.086.106.13.159a14,14,0,0,0,3.7,3.186c2.969,1.659,4.24,2.578,6.446.252A8.986,8.986,0,0,0,1433.111,2156.78Z" transform="translate(-1396.313 -1965.604)" fill="#666" style="mix-blend-mode: screen;isolation: isolate"/>
        <path id="Trazado_202055" data-name="Trazado 202055" d="M2389.466,1730.013a14.516,14.516,0,0,1-3.164-.093c-1.916-.257-2.968-1.367-4.425-3.013s-2.437-6.6-2.921-8.4a6.446,6.446,0,0,1,.284-5.032c.883-1.735,4.708-2.019,4.708-2.019l.061.007a9.811,9.811,0,0,1,2.516,5.451A104.992,104.992,0,0,0,2389.466,1730.013Z" transform="translate(-2242.973 -1578.256)" fill="#666" style="mix-blend-mode: screen;isolation: isolate"/>
        <path id="Trazado_202056" data-name="Trazado 202056" d="M2300.755,1692.05c-.96.2-1.943,2.086-2.8,4.368a30.832,30.832,0,0,0-1.63,14.963l3.963,29.03c-3.3-2.209-6.791-10.122-8.317-19.8a56.733,56.733,0,0,1,.758-19.75,12.523,12.523,0,0,1,2.8-5.631A9.366,9.366,0,0,1,2300.755,1692.05Z" transform="translate(-2166.041 -1561.124)" fill="#fcb89d"/>
        <path id="Trazado_202057" data-name="Trazado 202057" d="M2273.6,1718.019a12.966,12.966,0,0,1,.864-2.625l-.616-3.909a15.215,15.215,0,0,0-2.738,6c-.158.734-.356,1.736-.551,2.95a58.048,58.048,0,0,0-.232,17.732,57.286,57.286,0,0,0,3.666,13.3,30.954,30.954,0,0,0,2.114,4.144q.232.372.467.719a12.221,12.221,0,0,0,3.168,3.353l1.91,1.279-.541-3.428c-2.4-1.649-4.9-6.311-6.666-12.465a61.253,61.253,0,0,1-1.6-7.3,46.646,46.646,0,0,1-.541-6.289A60.146,60.146,0,0,1,2273.6,1718.019Z" transform="translate(-2146.906 -1578.277)" fill="#ccc" style="mix-blend-mode: multiply;isolation: isolate"/>
      </g>
    </g>
  </g>
</svg>
