<svg xmlns="http://www.w3.org/2000/svg" xmlns:xlink="http://www.w3.org/1999/xlink" width="295" height="334" viewBox="0 0 295 334">
  <defs>
    <clipPath id="clip-path">
      <rect id="Rect치ngulo_46341" data-name="Rect치ngulo 46341" width="222.848" height="330.61" fill="none"/>
    </clipPath>
  </defs>
  <g id="Grupo_158520" data-name="Grupo 158520" transform="translate(-285.287 -2777)">
    <rect id="Rect치ngulo_46342" data-name="Rect치ngulo 46342" width="295" height="334" transform="translate(285.287 2777)" fill="none"/>
    <g id="Grupo_158518" data-name="Grupo 158518" transform="translate(319.782 2617.912)">
      <g id="Grupo_158517" data-name="Grupo 158517" transform="translate(0.505 162.477)" clip-path="url(#clip-path)">
        <g id="Grupo_158516" data-name="Grupo 158516" transform="translate(4.673 4.389)">
          <g id="Grupo_158514" data-name="Grupo 158514">
            <path id="Trazado_194785" data-name="Trazado 194785" d="M114.312,227.156c4.216,10.533,19.473,12.554,30.156,11.443s14.246-6.856,14.129-14.3c-.107-6.769,1.439-8.469,5.908-10.071,0,0-5.108,2.331-4.513,8.021s-.279,9.048-1.361,10.4a8.922,8.922,0,0,0,5.292-5.557,11.307,11.307,0,0,1,4.51-5.977c3.183-2.065,6.567-2.226,8.515-1.342,0,0-7.123.035-10.189,5.584,0,0,3.509-1.582,5.553.614a6.992,6.992,0,0,0-7.412,3.085c-2.881,4.31-4.945,6.633-9.6,8.172a30.866,30.866,0,0,1,13.438.874c6.859,2.263,10.3,6.123,19.906.233a13.252,13.252,0,0,1-10.449,5.45c-4.066.21-9.187-4.086-16.719-4.329A23.248,23.248,0,0,0,149.1,242.3a26.617,26.617,0,0,1,5.145,6.24c2.654,4.241,7,5.081,9.941,1.932,2.722-2.911,5.834-5.2,9.875-4.069a10.916,10.916,0,0,0-7.289,3.535c-3.129,3.466-5.253,4.265-5.253,4.265A48.048,48.048,0,0,0,181.3,249.46s-10.839,8.119-22.242,6.138a11.772,11.772,0,0,0,8.306,6.387c7.653,1.715,9.19,7.6,9.19,7.6s-3.628-5.369-9.774-5.431c0,0,3.946,6.955,1.5,11.516,0,0,.613-8.432-5.538-13.741-3.555-3.069-5.755-3.7-10.441-11.3-4.77-7.734-8.493-9.474-16.7-7.7s-16.882,8.962-10.064,23.455c8.586,18.254,18.372,15.434,24.672,11.815a13.437,13.437,0,0,0,6.081-7.444s.779,5.064-5.2,9.061c0,0,12.63-4.388,19.617,4.121a18.393,18.393,0,0,0-12.625-3.266c-7.253.924-8.092,2.489-12.111,2.463,0,0,6.614,1.924,7.9,8.04a14.821,14.821,0,0,0-7.16-5.861c-4.6-1.615-7.671-1.712-9.5-2.7,0,0,2.811,2.118,6.173,10.438a16.67,16.67,0,0,0,13.913,10.5s-7,1.6-11.547-3.409c0,0,2.518,6-4.073,9.647,0,0,5.166-5.337-1.149-16.851s-16.261-20.259-24.611-18.443-16.879,17.5-10.791,32.568,18.55,33.9,33.387,46.713a61.66,61.66,0,0,1,21.66,46.622c.2,16.774,11.6,35.266,21.222,37.6,4.772,1.159,12.763-1.973,14.552-3.051.447-.269-.044-1.807,2.341-2.6s4.249,1.151,4.02,3.591-3.529,3.112-5.326,1.183c-.386-.414-2.5.641-6.1,1.877s-5.194,1.668-5.111,2.8,2.86,3.979,7.672,5.425,10.351-.311,15.539,1.548a11.858,11.858,0,0,1,6.75,6.059c.128.268,1.625-.175,2.634.945s.438,3.084-.881,3.879c-1.341.809-2.974.676-3.623-.69a3.441,3.441,0,0,1,.346-3.294c.291-.389-1.619-3.939-6.395-5.32s-12.458.088-12.458.088,6.367,3.346,9.75,8.838,3.383,10.84,3.745,11.355,2.334,1.206,2,3.47-3.589,2.588-4.827.7.6-3.561.917-3.815-.138-7.206-4.861-12.316c-8.513-9.209-28.9-16.187-39.959-37.244,0,0-1.086,18.2,6.591,30.906a25.646,25.646,0,0,0,26.792,12.5c.655-.121.589-1.856,2.634-2.608,2.3-.846,3.953,1.916,2.825,3.971-.97,1.767-3.536,1.308-4.355.79-.367-.232-7.973,1.973-13.449-.963,0,0,3.805,2.654,7.531,9.7,3.885,7.344,3.7,8.731,4.3,9.162s2.79,1.25,2.382,3.033-2.693,1.992-4.291.754-.511-2.573.087-3.107-5.344-13.083-12.186-19.062c-4.38-3.828-7.624-4.7-7.624-4.7a53.442,53.442,0,0,1,3.378,13.907c.671,7.619-1.132,10.838-1.236,11.479s.982,2.186-.323,3.542-3.424.809-3.818-1.343c-.389-2.123,2.009-2.18,2.47-2.675s2.787-7.125-2.7-21.63-10.9-21.731-11.344-29.524a29.788,29.788,0,0,0-1.59,12.021c.453,8.459,4.313,15.946-.337,24.052-.3.528,1.435,1.261,1.447,3.286.011,1.687-1.378,2.937-3.6,1.924a2.813,2.813,0,0,1-.281-5.013c.741-.423,3.047-4.317,2.015-11s-2.724-15.811-1.319-20.705a39.216,39.216,0,0,0-1.9,4.7c-1.232,3.677-3.59,5.877-8.614,9.132-4.57,2.961-8.563,8.307-8.339,10.562.1.977.949,1.86-.071,3.028a2.41,2.41,0,0,1-3.693-.058c-.974-1.129-1.3-2.936.171-3.891s2-.431,2.394-1.039a18.822,18.822,0,0,1,7.982-9.8c8.175-5.225,10.83-13.523,10.684-22.288a21.385,21.385,0,0,1-8.97,10.288c-6.937,4.219-11.245,2.712-16.693,7.012s-.673,10.955-4.153,16.208a2.6,2.6,0,0,1,.613,3.492,2.674,2.674,0,0,1-4.97-.659c-.571-2.52,2.1-3.4,3.341-3.3,0,0,1.421-2.019.349-5.7a14.281,14.281,0,0,1-.408-6.577,9.954,9.954,0,0,0-4.224,6.345,7.481,7.481,0,0,1-4.154,5.51,2.376,2.376,0,0,1-.7,2.947c-2.013,1.5-4.316-1.321-3.208-3.375a2.453,2.453,0,0,1,2.955-1.024s2.329-1.412,3.506-6.545c1.464-6.385,8.136-10.335,13.4-12.487,0,0-5.339-3.383-12.364.3s-8.775,8.469-8.775,8.469a2.988,2.988,0,0,1-.268,3.119c-1.154,1.5-3.294,1-3.743-1.065s1.58-2.8,2.913-2.684c0,0,2.218-6.913,10.665-10.134,9.426-3.594,14.829,1.266,23.69-4.154,14.723-9,17.538-44.129,2.328-66-13.207-18.985-20.238-17.2-36.642-43.1C91.3,299.068,99.694,285.6,90.409,277.732c-6.348-5.381-20.864-.554-23.394,6.7-3.261,9.354,4.8,13.744-.947,20.651,0,0,2.033-4.711-.768-10.936s-1.154-9.2-.246-10.781c0,0-6.6,3.022-10.53,8.573-4.62,6.528-2.3,17.563-9,21.087,0,0,2.815-2.935,2.587-9.1-.207-5.59,1.332-7.044,1.332-7.044s-2.579,3.366-6.273,3.814a14,14,0,0,0-8.4,3.948s.823-3.956,5.929-5.061,6.679-2.7,9.281-7.084a24.573,24.573,0,0,1,6.969-7.182s-4.789-2.659-9.079-1.219-5.4,7.817-11.35,8.7a13.694,13.694,0,0,0,6.436-7.093,40.864,40.864,0,0,1-7.293.639c-6.586.168-10.135-3.885-14.262-4.1s-5.512,1.047-5.512,1.047,3.8-3.871,10-1.149,11.151,3.753,16.735,1.094A14.486,14.486,0,0,1,49.2,281.63s-2.6-7.672-14.506-7.195a13.955,13.955,0,0,1,13.392,2.537c6.193,5.307,10.66,7.81,18.607,2.314s12.846-8.811,5.642-19.211c-5.979-8.633-9.658-11.156-15.69-12.391-10.934-2.239-13.276-5.263-17.12-3s-1.862,5.464-6.527,7.786a6.775,6.775,0,0,0,2.079-5.076c.025-3.406,1.917-4.03,1.917-4.03a13.139,13.139,0,0,0-7.74,2.487c-4.094,2.781-8.576,5.778-14.293,2.368,0,0,4.69,2.3,10.773-2.194s13.529-6.006,18.28-3.895c0,0-22.919-20.629-38.083-13.252,0,0,5.418-4.959,14.653-3.226,4.926.923,11.024,5.037,11.024,5.037s-3.412-9.849-11.206-12.566c0,0,6.543-.808,11.973,8.271s12.067,13,15.471,12.673c0,0-2.565-8.369-10.026-10.953,0,0,7.119.225,12.18,9.032s12.139,9.156,17.512,6.363,8.438-11.519,4.091-20.685c-1.9-4.016-3.8-8.258-11.7-7.529s-8.935,2.123-12.505,4.576-9.116,1.728-9.116,1.728,7.033-.643,10.525-5.3A30.149,30.149,0,0,0,38.6,210.671s3.606-1.57,9.653,3.229c2.257,1.791,4.1.1,10.029-1.058s7.233-.176,7.233-.176-3.859-9.579-7.568-10.654-5.145.206-7.982.974a7.926,7.926,0,0,1-8.215-2.9,9.368,9.368,0,0,0,7.312,1.213c4.172-1.056,7.175-2.316,8.771-1.633,0,0-7.117-9.921-18.646-9.584,0,0,8.505-5.352,15.349,2.082,0,0-3.2-9.609,4.766-15.037,0,0-6.619,9.3-2.247,16.657a135.508,135.508,0,0,0,8.583,12.757s1.946-8.968,5.808-13.387c5.445-6.231,11.189-6.969,11.189-6.969s-9.322,4.531-10.579,11.41c0,0,6.653,1.243,13.009-4.638,0,0-2.044,4.736-9.521,6.815-10.64,2.958-8.2,11.542,1.952,21.462,5.356,5.235,22.211,2.059,29.49-3.31,6.688-4.933,9.69-16.431,2.146-20.707-2.405-1.363-10.237,3.731-16.538-4.443,0,0,3.939,3.89,11,2.219,4.328-1.024,6.515.464,6.515.464a14.269,14.269,0,0,0-3.4-4.056,11.048,11.048,0,0,1-4.42-8.908c.019-4.314-5.073-11.2-10.208-14.916,0,0,5.3.588,9.36,7.122,1.581,2.545,6.155.784,10.677-6.384,0,0,.834,5.895-7.247,9.171-2.209.895-2.761,8.178,4.112,12.7s6.562,13.528,6.562,13.528,13.2-17.1,9.329-31.654A13.936,13.936,0,0,1,127.15,184.6s.471-2.873,7.633-6.376a30.128,30.128,0,0,0,8.337-6.4c.129-.141.2-.22.2-.22s-.318,4.377-8.69,9.264-9.524,8.654-13.854,19.411a30.181,30.181,0,0,1,6.683-1.866c3.487-.5,10.511-4.186,10.387-14.516a13.091,13.091,0,0,1,.266,7.561s5.638-9.217,15.089-7.654c0,0-8.574.3-12.5,6.934s-7.536,7.837-7.536,7.837,4.92,2.53,9.476-2.865,8.636-4.049,8.636-4.049-5.107.343-7.184,4.472-5.618,5.311-11.007,4.618-12.877.739-17.033,7.883A21.788,21.788,0,0,0,114.312,227.156Z" transform="translate(-5.935 -167.577)" fill="#e5989e" stroke="#b25b66" stroke-linecap="round" stroke-linejoin="round" stroke-width="1"/>
            <path id="Trazado_194786" data-name="Trazado 194786" d="M154.5,509.536a2.334,2.334,0,0,1,.583-2.942c.736-.739,1.764-.151,2.267-1.2,1.509-3.163,2.28-4.83,4.456-6.822,2.045-1.87,4.405-3.191,6.608-4.847a17.7,17.7,0,0,0,2.917-2.728,16.824,16.824,0,0,0,2.815-5.148,32.1,32.1,0,0,0,2.021-6.257,18.813,18.813,0,0,0,.564-4.6,5.077,5.077,0,0,0-.575-2.341c-.3-.385-.617-.069-.887.435.124,8.727-2.539,16.982-10.683,22.187a18.822,18.822,0,0,0-7.982,9.8c-.392.608-.925.083-2.394,1.039s-1.145,2.762-.171,3.891a2.484,2.484,0,0,0,2.19.862A3.856,3.856,0,0,1,154.5,509.536Z" transform="translate(-26.474 -210.102)" fill="#e5989e" style="mix-blend-mode: multiply;isolation: isolate"/>
            <path id="Trazado_194787" data-name="Trazado 194787" d="M178.688,519.765a2.866,2.866,0,0,1,.583-2.728,2.818,2.818,0,0,1,1.843-.841c.418-1.822,1.415-4.658,1.481-4.951a29.33,29.33,0,0,0,.621-5.169c-.126-.856-.282-1.691-.429-2.459-.579-3.024-1.02-6.046-1.353-9.106a54.436,54.436,0,0,1,.5-13.579c-.4.722-.786,1.48-1.3,2.267a6.461,6.461,0,0,0-.86,2.286c-.717,5.109.731,13.047,1.655,19.036,1.032,6.686-1.274,10.58-2.015,11a2.819,2.819,0,0,0-.712,4.287C178.7,519.8,178.692,519.781,178.688,519.765Z" transform="translate(-29.935 -211.281)" fill="#e5989e" style="mix-blend-mode: multiply;isolation: isolate"/>
            <path id="Trazado_194788" data-name="Trazado 194788" d="M218.9,531.817a1.426,1.426,0,0,1,.518-2.478c.084-.016.17-.021.254-.032-.253-.463-.55-.916-.731-1.313-.805-1.779-1.36-3.752-2.305-5.457-1.219-2.2-2.825-4.186-3.915-6.443a42.591,42.591,0,0,0-3.056-4.019.6.6,0,0,1-.144-.26,12.4,12.4,0,0,0-1.8-1.508.56.56,0,0,1-.2-.235,1.415,1.415,0,0,1-.165-.157.663.663,0,0,1-.057-.091.576.576,0,0,1-.287-.151,11.127,11.127,0,0,0-2.9-2.238,9.356,9.356,0,0,1-2.394-1.674,17.352,17.352,0,0,1-6.336-4.935,40.341,40.341,0,0,1-5.776-10.284c-1.921-3.152-3.029-7.554-3.958-10.943-.276-1.01-.6-.818-.879-.215.6,7.637,5.91,14.863,11.3,29.109,5.49,14.505,3.163,21.135,2.7,21.63s-2.859.552-2.47,2.675a3.259,3.259,0,0,0,.132.488,1.727,1.727,0,0,1,1.957-1.788,2.086,2.086,0,0,1,1.608-.408c1.141-3.123.731-9.594.565-11.09-.534-4.75-2.13-9.271-2.949-13.967-.1-.569.375-.692.8-.53-.073-.188-.115-.29-.115-.29s3.244.867,7.624,4.7c6.842,5.978,12.784,18.528,12.186,19.062s-1.685,1.868-.087,3.107a3.391,3.391,0,0,0,2.846.685A3.234,3.234,0,0,1,218.9,531.817Z" transform="translate(-30.876 -210.996)" fill="#e5989e" style="mix-blend-mode: multiply;isolation: isolate"/>
            <path id="Trazado_194789" data-name="Trazado 194789" d="M229.69,513.965a2.914,2.914,0,0,0-.9-3.822,3.78,3.78,0,0,1,.312.58,2.757,2.757,0,0,1,.143,1.827,2.15,2.15,0,0,1-3.383,1.078c-.091-.019-.176-.043-.259-.069a6.065,6.065,0,0,1-.792.157,6.45,6.45,0,0,1-1.514.359,22.709,22.709,0,0,1-3.306-.123,14.585,14.585,0,0,1-7.721-.585c-.112.015-.224.035-.335.058a.567.567,0,0,1,.212.489c5.453,2.734,12.824.613,13.186.841C226.154,515.273,228.72,515.731,229.69,513.965Z" transform="translate(-34.666 -215.355)" fill="#e5989e" style="mix-blend-mode: multiply;isolation: isolate"/>
            <path id="Trazado_194790" data-name="Trazado 194790" d="M233.732,516.475a3.047,3.047,0,0,1-.493-.616c-.773-.765-1.18-1.914-.552-2.418.031-.025.061-.037.092-.059.107-.082,0-1.027,0-1.186,0-.4-.008-.792-.021-1.187a23.765,23.765,0,0,0-.191-2.371,20.656,20.656,0,0,0-1.22-4.669,21.369,21.369,0,0,0-2.2-4.267,15.049,15.049,0,0,0-3.213-3.452,28.173,28.173,0,0,0-4.377-2.665c-.187-.1-.392-.182-.567-.3-.355-.229-1.789-1.33-.928-1.757a1.42,1.42,0,0,1,.57-.136c.294-.055,7.748-1.435,12.429-.083,4.776,1.38,6.685,4.931,6.395,5.32a3.441,3.441,0,0,0-.346,3.294,2.312,2.312,0,0,0,3.229.889c-.12-.013-.234-.021-.361-.039a2.549,2.549,0,0,1-2.109-3.441c1.06-2.513-4.188-6.62-6.1-7.072a42.243,42.243,0,0,0-6.871-.656c-5.755.107-11.5.553-15.887-4.019a2.612,2.612,0,0,1-.573-.891,2.048,2.048,0,0,1,1.079-2.894,20.845,20.845,0,0,1,4.612-1.84c3.6-1.236,5.718-2.291,6.1-1.877,1.8,1.928,5.1,1.257,5.326-1.183a3.684,3.684,0,0,0-.858-2.826,3.369,3.369,0,0,1-.1,1.912c-.636,1.891-2.512,1.9-3.781.833a3.994,3.994,0,0,1-.989-.343c-.071.027-.157.055-.273.087-.047.023-.1.042-.143.064a2.168,2.168,0,0,1-.2.138,34.211,34.211,0,0,1-7.135,2.792c-2.518,1.011-5.378,1.954-7.814,1.544-3.01-.507-5.1-2.792-7.171-4.88a3.037,3.037,0,0,1-.484-.645,33.688,33.688,0,0,1-5.241-5.885c-1.675-2.454-3.916-4.926-5.3-7.578-.356-.262-.715-.515-1.068-.78-.009.083-.023.163-.032.245a2.841,2.841,0,0,1,.423.855c11.067,21.016,31.425,27.99,39.93,37.192,4.723,5.11,5.182,12.062,4.861,12.316s-2.155,1.921-.917,3.815a2.88,2.88,0,0,0,3.187,1.118A1.635,1.635,0,0,1,233.732,516.475Z" transform="translate(-31.184 -208.548)" fill="#e5989e" style="mix-blend-mode: multiply;isolation: isolate"/>
            <g id="Grupo_158513" data-name="Grupo 158513" transform="translate(37.652 30.031)">
              <path id="Trazado_194791" data-name="Trazado 194791" d="M57.867,293.769c2.6,2.193,7.571,2.852,12.489.85s10.652-6.34,13.291-10.176S81.74,273.7,78.664,268.52,71.452,260,66.453,259.236,53.209,257.6,53.209,257.6h0a75.384,75.384,0,0,0,9.541,2.641c6.032,1.235,9.711,3.758,15.69,12.391,7.2,10.4,2.305,13.715-5.642,19.211s-12.414,2.993-18.607-2.314a13.329,13.329,0,0,0-4.5-2.56C53.564,289,56.213,292.375,57.867,293.769Z" transform="translate(-49.689 -210.163)" fill="#e5989e" style="mix-blend-mode: multiply;isolation: isolate"/>
              <path id="Trazado_194792" data-name="Trazado 194792" d="M78.795,216.652c1.483,4.65,7.474,11.124,12.117,13.731s13.815,1.086,23.443-3.9,10.384-13.289,9.9-18.655-4.461-5.352-4.461-5.352l0,0c6.734,4.547,3.717,15.525-2.776,20.314-7.279,5.369-24.134,8.545-29.49,3.31-8.7-8.506-11.73-16.027-5.71-19.864l0,0C77.123,208.526,77.312,212,78.795,216.652Z" transform="translate(-53.618 -202.475)" fill="#e5989e" style="mix-blend-mode: multiply;isolation: isolate"/>
              <path id="Trazado_194793" data-name="Trazado 194793" d="M74.377,253.312c3.446-1.268,9.649-4.286,7.892-15.289s-7.283-12.96-7.283-12.96l-.012,0c1.885,1.482,2.9,3.657,3.9,5.778,4.347,9.166,1.281,17.892-4.091,20.685-5.1,2.651-11.735,2.457-16.725-5.1l-.005.005C63.037,256.069,70.931,254.581,74.377,253.312Z" transform="translate(-50.856 -205.625)" fill="#e5989e" style="mix-blend-mode: multiply;isolation: isolate"/>
              <path id="Trazado_194794" data-name="Trazado 194794" d="M155.513,252.77c-8.727.694-15.792,5.059-15.358,16.532s7.95,19.467,11.7,21.794,8.332,4,13.941,1.683c4.164-1.717,7.792-4.507,8.535-8.471a13.63,13.63,0,0,1-5.4,5.766c-6.3,3.619-16.086,6.438-24.672-11.815-6.818-14.494,1.853-21.677,10.064-23.455s11.933-.039,16.7,7.7a32.9,32.9,0,0,0,6.119,7.779c-.024-.047-2.392-4.474-5.658-9.576C168.2,255.574,164.24,252.077,155.513,252.77Z" transform="translate(-62.304 -209.477)" fill="#e5989e" style="mix-blend-mode: multiply;isolation: isolate"/>
              <path id="Trazado_194795" data-name="Trazado 194795" d="M118.343,471.305a2.1,2.1,0,0,1,2.568-2.253c.772-1.4,1.219-3.094,2.528-4.587a20.433,20.433,0,0,1,3.407-3.176c1.182-1.291,3.125-1.831,4.673-2.551a1.312,1.312,0,0,1,.392-.109,14.15,14.15,0,0,1,4.466-.864,15.375,15.375,0,0,1,1.569.016,42.316,42.316,0,0,1,7.24.225,1.54,1.54,0,0,1,.412.1,48.546,48.546,0,0,0,6.259-.867,31.487,31.487,0,0,0,5-2.47,30.437,30.437,0,0,0,5.391-5.291,28.1,28.1,0,0,0,5.382-11.175,68.939,68.939,0,0,0,1.062-13.124c.063-2.978.02-5.957.188-8.931a2.1,2.1,0,0,1,2.488-2.1,62.22,62.22,0,0,0-6.305-23.63,2.632,2.632,0,0,1-4.046-1.466,1.966,1.966,0,0,1,1.762-2.717,62.8,62.8,0,0,0-12.934-15.311c-1.063-.917-2.109-1.872-3.145-2.847a2.58,2.58,0,0,1-4.354-1.147,1.981,1.981,0,0,1,.771-2.4,132.7,132.7,0,0,1-13.694-16.773c-.963,1.4-3.79,1.09-4.384-1.1a1.97,1.97,0,0,1,1.837-2.719,121.187,121.187,0,0,1-10.418-19.724c-.145-.358-.273-.716-.4-1.073-2.245.94-4.042-.585-5.266-6.271-1.723-8-1.613-22.408-9.426-24.92a17.218,17.218,0,0,0-14.239,2.061c5.1-1.952,11.1-2.1,14.613.874,9.285,7.87.891,21.336,18.806,49.619,16.4,25.9,23.436,24.111,36.642,43.1,15.211,21.868,12.4,56.993-2.328,66-8.861,5.42-14.263.559-23.689,4.154-8.447,3.22-10.665,10.134-10.665,10.134-1.333-.113-3.363.614-2.913,2.684a2.856,2.856,0,0,0,.329.849C118.043,471.458,118.191,471.382,118.343,471.305Z" transform="translate(-54.909 -214.864)" fill="#e5989e" style="mix-blend-mode: multiply;isolation: isolate"/>
              <path id="Trazado_194796" data-name="Trazado 194796" d="M134.472,288.948c-9.922-1.658-16.706,10.321-17.088,18.784a32.98,32.98,0,0,0,2.732,14.75h0c-4.976-14.6,3.266-29.326,11.342-31.082,5.878-1.28,12.548,2.681,18.186,9.154h0S144.394,290.605,134.472,288.948Z" transform="translate(-59.126 -214.514)" fill="#e5989e" style="mix-blend-mode: multiply;isolation: isolate"/>
            </g>
            <path id="Trazado_194797" data-name="Trazado 194797" d="M105.435,244.913c-11.8,2.639-12.719,15.141-7.8,25.483,5.243,11.035,26.111,14.168,26.19-7.1C123.875,249.05,110.467,243.787,105.435,244.913Z" transform="translate(-18.333 -178.343)" fill="#e5989e" style="mix-blend-mode: multiply;isolation: isolate"/>
            <path id="Trazado_194798" data-name="Trazado 194798" d="M107.014,244.513c-11.082,2.48-11.948,14.225-7.332,23.942,4.927,10.367,24.531,13.311,24.606-6.667C124.338,248.4,111.742,243.455,107.014,244.513Z" transform="translate(-18.643 -178.288)" fill="#a35a66" stroke="#6d4658" stroke-miterlimit="10" stroke-width="1"/>
            <path id="Trazado_194799" data-name="Trazado 194799" d="M124.288,261.787a18.383,18.383,0,0,0-.936-5.986,13.535,13.535,0,0,1,.242,2.634c-.053,14.086-13.876,12.01-17.349,4.7-3.256-6.852-2.644-15.132,5.169-16.881a9.156,9.156,0,0,1,5.618,1.186c-3.636-2.549-7.739-3.438-10.017-2.928-11.082,2.48-11.948,14.225-7.332,23.942C104.609,278.821,124.213,281.765,124.288,261.787Z" transform="translate(-18.643 -178.288)" fill="#a35a66" opacity="0.5" style="mix-blend-mode: multiply;isolation: isolate"/>
            <path id="Trazado_194800" data-name="Trazado 194800" d="M123.891,327.733c-.736-.468-11.278,4.988-11.621,7.012s8.524,17.75,10.4,19.174,11.248-5.723,11.738-6.895S127.661,330.13,123.891,327.733Z" transform="translate(-20.764 -189.91)" fill="#efbf48" stroke="#cc9042" stroke-linecap="round" stroke-linejoin="round" stroke-width="1"/>
            <path id="Trazado_194801" data-name="Trazado 194801" d="M138.441,353.8c-1.381-.214-11.256,6.171-11.52,8.823-.2,1.969,11.912,16.481,14.073,16.23s10.547-5.087,10.957-8.1S143.022,354.513,138.441,353.8Z" transform="translate(-22.809 -193.549)" fill="#efbf48" stroke="#cc9042" stroke-linecap="round" stroke-linejoin="round" stroke-width="1"/>
            <path id="Trazado_194802" data-name="Trazado 194802" d="M159.017,376.337c-1.495-.1-11.572,6.032-11.4,8.215s13.594,17.156,15.069,17.871,10.5-4.629,10.9-6.854S161.97,376.539,159.017,376.337Z" transform="translate(-25.696 -196.693)" fill="#efbf48" stroke="#cc9042" stroke-linecap="round" stroke-linejoin="round" stroke-width="1"/>
            <path id="Trazado_194803" data-name="Trazado 194803" d="M181.219,404.727c-1.952-1.58-13.2,2.934-13.384,5.214s4.819,20.76,6.648,22.16,10.955-1.52,11.874-3.886S183.075,406.229,181.219,404.727Z" transform="translate(-28.515 -200.607)" fill="#efbf48" stroke="#cc9042" stroke-linecap="round" stroke-linejoin="round" stroke-width="1"/>
            <path id="Trazado_194804" data-name="Trazado 194804" d="M134.4,347.026s-9.571,6.738-16.021-3.981,5.508-15.311,5.508-15.311c-.736-.468-11.278,4.988-11.621,7.012s8.524,17.75,10.4,19.174S133.914,348.2,134.4,347.026Z" transform="translate(-20.764 -189.91)" fill="#efbf48" opacity="0.8" style="mix-blend-mode: multiply;isolation: isolate"/>
            <path id="Trazado_194805" data-name="Trazado 194805" d="M151.951,370.759s-9.121,7.487-16.615-1.293,3.1-15.664,3.1-15.664c-1.381-.214-11.256,6.171-11.52,8.823-.2,1.969,11.912,16.481,14.073,16.23S151.54,373.768,151.951,370.759Z" transform="translate(-22.809 -193.549)" fill="#efbf48" opacity="0.8" style="mix-blend-mode: multiply;isolation: isolate"/>
            <path id="Trazado_194806" data-name="Trazado 194806" d="M173.639,395.555s-9.359,5.768-16.777-3.924,2.2-15.308,2.2-15.308c-1.5-.1-11.572,6.033-11.4,8.215s13.594,17.157,15.069,17.872S173.239,397.781,173.639,395.555Z" transform="translate(-25.702 -196.691)" fill="#efbf48" opacity="0.8" style="mix-blend-mode: multiply;isolation: isolate"/>
            <path id="Trazado_194807" data-name="Trazado 194807" d="M172.841,420.284c-2.969-13.015,8.378-15.557,8.378-15.557-1.952-1.58-13.2,2.934-13.384,5.214s4.819,20.76,6.648,22.16,10.955-1.52,11.874-3.886C186.357,428.214,175.811,433.3,172.841,420.284Z" transform="translate(-28.515 -200.607)" fill="#efbf48" opacity="0.8" style="mix-blend-mode: multiply;isolation: isolate"/>
            <path id="Trazado_194808" data-name="Trazado 194808" d="M123.725,332.205c-2.4.993,1.082,8.314,3.236,7C128.192,338.459,126.078,331.229,123.725,332.205Z" transform="translate(-22.25 -190.525)" fill="#efbf48" opacity="0.8" style="mix-blend-mode: multiply;isolation: isolate"/>
            <path id="Trazado_194809" data-name="Trazado 194809" d="M125.2,331.815c-2.405.969.916,7.705,3.084,6.445C129.519,337.54,127.555,330.864,125.2,331.815Z" transform="translate(-22.452 -190.471)" fill="#936168" stroke="#6d4658" stroke-miterlimit="10" stroke-width="1"/>
            <path id="Trazado_194810" data-name="Trazado 194810" d="M135.191,370.661c-2.377,1.089,3.241,7.849,5.722,6.583S139.1,368.869,135.191,370.661Z" transform="translate(-23.883 -195.861)" fill="#efbf48" opacity="0.8" style="mix-blend-mode: multiply;isolation: isolate"/>
            <path id="Trazado_194811" data-name="Trazado 194811" d="M136.384,369.733c-2.376,1.089,3.242,7.85,5.722,6.583S140.294,367.942,136.384,369.733Z" transform="translate(-24.049 -195.732)" fill="#936168" stroke="#6d4658" stroke-miterlimit="10" stroke-width="1"/>
            <path id="Trazado_194812" data-name="Trazado 194812" d="M164.659,386.516c-2.426,1.392,2.54,8,4.48,6.662S167.359,384.967,164.659,386.516Z" transform="translate(-27.981 -198.081)" fill="#efbf48" opacity="0.8" style="mix-blend-mode: multiply;isolation: isolate"/>
            <path id="Trazado_194813" data-name="Trazado 194813" d="M165.539,385.624c-2.425,1.391,2.541,8,4.48,6.662S168.24,384.074,165.539,385.624Z" transform="translate(-28.104 -197.957)" fill="#936168" stroke="#6d4658" stroke-miterlimit="10" stroke-width="1"/>
            <path id="Trazado_194814" data-name="Trazado 194814" d="M177.718,414.468c-3.1.626.157,11.548,2.926,10.8S182.015,413.6,177.718,414.468Z" transform="translate(-29.718 -202.004)" fill="#efbf48" opacity="0.8" style="mix-blend-mode: multiply;isolation: isolate"/>
            <path id="Trazado_194815" data-name="Trazado 194815" d="M179.149,414.574c-3.1.626.157,11.548,2.926,10.8S183.446,413.708,179.149,414.574Z" transform="translate(-29.918 -202.019)" fill="#936168" stroke="#6d4658" stroke-miterlimit="10" stroke-width="1"/>
          </g>
          <path id="Trazado_194816" data-name="Trazado 194816" d="M129.822,509.6c-.761-1.986.733-2.5,1.973-2.727,3.62-.655,3.014-6.184,6.5-11.121s10.191-8.593,10.191-8.593c-5.268,2.152-11.941,6.1-13.4,12.487-1.176,5.133-3.506,6.545-3.506,6.545a2.453,2.453,0,0,0-2.955,1.024c-.989,1.832.737,4.265,2.549,3.708A2.167,2.167,0,0,1,129.822,509.6Z" transform="translate(-23.006 -212.15)" fill="#e5989e" style="mix-blend-mode: multiply;isolation: isolate"/>
          <path id="Trazado_194817" data-name="Trazado 194817" d="M140.758,512.121A1.916,1.916,0,0,1,142.5,510.2c.976-.785,1.992-3.271,1.1-6.559a45.27,45.27,0,0,1-1.209-6.451,14.281,14.281,0,0,0,.408,6.577c1.072,3.684-.349,5.7-.349,5.7-1.243-.1-3.912.781-3.341,3.3a2.564,2.564,0,0,0,3.565,1.854A2.394,2.394,0,0,1,140.758,512.121Z" transform="translate(-24.499 -213.548)" fill="#e5989e" style="mix-blend-mode: multiply;isolation: isolate"/>
          <g id="Grupo_158515" data-name="Grupo 158515" transform="translate(106.027 37.235)">
            <path id="Trazado_194818" data-name="Trazado 194818" d="M129.93,231.386c3.6,14.515,22.529,16.3,31.723,13.248-10.683,1.111-25.941-.91-30.156-11.443a21.788,21.788,0,0,1,1.741-18.526,16.037,16.037,0,0,1,3.057-3.8l0-.016S126.331,216.87,129.93,231.386Z" transform="translate(-129.146 -210.847)" fill="#e5989e" style="mix-blend-mode: multiply;isolation: isolate"/>
          </g>
        </g>
      </g>
    </g>
  </g>
</svg>
