<svg xmlns="http://www.w3.org/2000/svg" width="284.377" height="317.399" viewBox="0 0 284.377 317.399">
  <g id="Grupo_162683" data-name="Grupo 162683" transform="translate(-58.574 -696.244)">
    <path id="Trazado_202345" data-name="Trazado 202345" d="M342.951,1605.941c0,13.179-63.662,23.865-142.19,23.865s-142.187-10.686-142.187-23.865,63.662-23.859,142.187-23.859S342.951,1592.765,342.951,1605.941Z" transform="translate(0 -616.162)" fill="#0096d9" opacity="0.16"/>
    <g id="Grupo_162682" data-name="Grupo 162682" transform="translate(92.063 696.244)">
      <g id="Grupo_162632" data-name="Grupo 162632" transform="translate(55.881 0)">
        <path id="Trazado_202346" data-name="Trazado 202346" d="M389.546,698.435s-34.36,8.141-35.712,56.5l-1.7,195.7s54.25,27.168,107.457-2.911L453.553,725.1S449.552,686.831,389.546,698.435Z" transform="translate(-352.137 -696.244)" fill="#0c1f3f"/>
      </g>
      <g id="Grupo_162633" data-name="Grupo 162633" transform="translate(140.869 136.958)">
        <path id="Trazado_202347" data-name="Trazado 202347" d="M707.835,1301.907h-54.84c-10.3-54.159-13.257-69.047-18.354-101.015,0,0-11.973-41.084,9.46-54.766h1.661a52.121,52.121,0,0,1,36.219,34.075S704.675,1236.743,707.835,1301.907Z" transform="translate(-631.307 -1146.125)" fill="#dff2fe"/>
      </g>
      <g id="Grupo_162634" data-name="Grupo 162634" transform="translate(32.079 131.956)">
        <path id="Trazado_202348" data-name="Trazado 202348" d="M404.43,1290.478c21.14-77.147-1.37-153.2-1.37-153.2-22.006-6.612-33.25-7.587-33.25-7.587l-34.859,4.029s-34.585,12.509-61,30.807l49.594,125.947Z" transform="translate(-273.953 -1129.695)" fill="#f5a58e"/>
      </g>
      <g id="Grupo_162637" data-name="Grupo 162637" transform="translate(88.796 79.723)">
        <g id="Grupo_162635" data-name="Grupo 162635" transform="translate(0 0)">
          <path id="Trazado_202349" data-name="Trazado 202349" d="M499.869,1016.719l-39.519.058-.093-58.593,39.518-.063Z" transform="translate(-460.258 -958.121)" fill="#f5a58e"/>
        </g>
        <g id="Grupo_162636" data-name="Grupo 162636" transform="translate(3.24)">
          <path id="Trazado_202350" data-name="Trazado 202350" d="M478.487,990.105c-5.307-9.69-6.921-20.281-7.585-31.928l36.277-.056.081,50.93C496.854,1007.167,483.862,999.9,478.487,990.105Z" transform="translate(-470.902 -958.121)" fill="#ee7d67"/>
        </g>
      </g>
      <g id="Grupo_162652" data-name="Grupo 162652" transform="translate(71.227 0.618)">
        <g id="Grupo_162638" data-name="Grupo 162638" transform="translate(0 51.926)">
          <path id="Trazado_202351" data-name="Trazado 202351" d="M402.549,882.427c-.075,7.265,4.005,15.474,10.56,18.455,8.882,4.047,12.249-4.107,12.214-12.061-.037-6.412-2.91-17.442-10.187-19.677C408.271,867.028,402.6,876.469,402.549,882.427Z" transform="translate(-402.548 -868.84)" fill="#f5a58e"/>
        </g>
        <g id="Grupo_162639" data-name="Grupo 162639" transform="translate(11.533 9.712)">
          <path id="Trazado_202352" data-name="Trazado 202352" d="M447.186,805.62c4.212,10.446,9.939,19.007,19.821,25.011,9.671,5.873,19.646,8.856,28.922,1.124,7.374-6.149,12.125-15.091,14.775-24.089,6.1-20.714,1.228-49.323-12-65.924-14.534-18.238-42.409-14.025-53.091,6.452C436.908,764.871,440.378,788.763,447.186,805.62Z" transform="translate(-440.432 -730.177)" fill="#f5a58e"/>
        </g>
        <g id="Grupo_162642" data-name="Grupo 162642" transform="translate(2.686 58.487)">
          <g id="Grupo_162640" data-name="Grupo 162640" transform="translate(3.143)">
            <path id="Trazado_202353" data-name="Trazado 202353" d="M426.586,909.563a1.372,1.372,0,0,1-.359-.049,1.355,1.355,0,0,1-.946-1.666c1.8-6.577.547-13.122-2.856-14.9a1.356,1.356,0,1,1,1.251-2.406c4.645,2.419,6.419,10,4.223,18.021A1.357,1.357,0,0,1,426.586,909.563Z" transform="translate(-421.693 -890.391)" fill="#ee7d67"/>
          </g>
          <g id="Grupo_162641" data-name="Grupo 162641" transform="translate(0 5.338)">
            <path id="Trazado_202354" data-name="Trazado 202354" d="M412.726,911.653a1.357,1.357,0,0,1-.541-2.6c1.19-.516,5.283-2.063,8.111-.318a1.357,1.357,0,0,1-1.427,2.309c-1.266-.782-3.793-.29-5.6.5A1.358,1.358,0,0,1,412.726,911.653Z" transform="translate(-411.37 -907.926)" fill="#ee7d67"/>
          </g>
        </g>
        <g id="Grupo_162650" data-name="Grupo 162650" transform="translate(32.04 48.251)">
          <g id="Grupo_162643" data-name="Grupo 162643" transform="translate(35.914 7.947)">
            <path id="Trazado_202355" data-name="Trazado 202355" d="M625.779,887.195c.137,2.3,1.369,4.1,2.754,4.006s2.383-2.023,2.239-4.319-1.379-4.1-2.764-4.006S625.63,884.89,625.779,887.195Z" transform="translate(-625.764 -882.873)" fill="#161d2f"/>
          </g>
          <g id="Grupo_162644" data-name="Grupo 162644" transform="translate(6.006 9.821)">
            <path id="Trazado_202356" data-name="Trazado 202356" d="M527.537,893.354c.14,2.3,1.375,4.095,2.754,4.005s2.382-2.021,2.237-4.32-1.372-4.1-2.758-4.008S527.39,891.051,527.537,893.354Z" transform="translate(-527.523 -889.029)" fill="#161d2f"/>
          </g>
          <g id="Grupo_162645" data-name="Grupo 162645" transform="translate(23.14 9.231)">
            <path id="Trazado_202357" data-name="Trazado 202357" d="M587.683,910.069a1.357,1.357,0,0,1-.183-2.7c3.992-.559,5.409-2.351,5.746-2.888a1.814,1.814,0,0,0,.338-1.054,20.447,20.447,0,0,0-3.01-1.41,9.856,9.856,0,0,1-2.976-1.529c-1.76-1.8-2.431-3.9-3.775-11.82a1.357,1.357,0,0,1,1.111-1.564,1.381,1.381,0,0,1,1.564,1.111c1.288,7.58,1.86,9.167,3.04,10.371a21.207,21.207,0,0,0,2.071.92c2.642,1.087,4.158,1.759,4.527,2.934a4.167,4.167,0,0,1-.595,3.488c-1.344,2.13-4.138,3.635-7.665,4.129A1.446,1.446,0,0,1,587.683,910.069Z" transform="translate(-583.803 -887.089)" fill="#ee7d67"/>
          </g>
          <g id="Grupo_162646" data-name="Grupo 162646" transform="translate(1.794 20.845)">
            <path id="Trazado_202358" data-name="Trazado 202358" d="M513.689,928.648c.1,1.633,3.183,2.776,6.883,2.539s6.618-1.746,6.509-3.381-3.186-2.767-6.878-2.538S513.584,927.014,513.689,928.648Z" transform="translate(-513.686 -925.239)" fill="#ee7d67"/>
          </g>
          <g id="Grupo_162647" data-name="Grupo 162647" transform="translate(34.817 18.774)">
            <path id="Trazado_202359" data-name="Trazado 202359" d="M622.162,921.847c.1,1.634,3.181,2.772,6.882,2.54s6.613-1.747,6.516-3.384-3.188-2.769-6.887-2.534S622.056,920.213,622.162,921.847Z" transform="translate(-622.159 -918.438)" fill="#ee7d67"/>
          </g>
          <g id="Grupo_162648" data-name="Grupo 162648" transform="translate(0 1.897)">
            <path id="Trazado_202360" data-name="Trazado 202360" d="M509.818,869.926a1.994,1.994,0,0,1-1.158-.367,2.025,2.025,0,0,1-.5-2.825c2.785-3.983,10.364-5,14.751-1.977a2.03,2.03,0,0,1-2.3,3.342c-2.694-1.858-7.736-1.014-9.121.961A2.028,2.028,0,0,1,509.818,869.926Z" transform="translate(-507.792 -862.999)" fill="#0c1f3f"/>
          </g>
          <g id="Grupo_162649" data-name="Grupo 162649" transform="translate(30.216)">
            <path id="Trazado_202361" data-name="Trazado 202361" d="M609.075,863.7a2.03,2.03,0,0,1-1.659-3.194c2.784-3.985,10.365-5,14.752-1.979a2.03,2.03,0,0,1-2.3,3.343c-2.7-1.859-7.739-1.014-9.124.963A2.023,2.023,0,0,1,609.075,863.7Z" transform="translate(-607.048 -856.768)" fill="#0c1f3f"/>
          </g>
        </g>
        <g id="Grupo_162651" data-name="Grupo 162651" transform="translate(0.162)">
          <path id="Trazado_202362" data-name="Trazado 202362" d="M425.19,765.18c-5.589-3.166-6.581-6.253-7.537-5.677h0c-.4-3.71-2.885-6.891-7.292-7.042-3.151-.11-6.161,4.679-7.058,7.863-.219-3.345-.158-8.155-.216-11.728a80.769,80.769,0,0,1,.552-10.507c.945-8.1,1.572-12.541,5.407-20.144,4.13-8.191,10.6-14.546,19.789-16.883,11.1-2.823,29.224-5.148,38.68,1.64,4.845,3.485.824,4.382.146,19.621C467.661,722.322,424.116,711.961,425.19,765.18Z" transform="translate(-403.079 -698.273)" fill="#0c1f3f"/>
        </g>
      </g>
      <g id="Grupo_162653" data-name="Grupo 162653" transform="translate(107.081 2.193)">
        <path id="Trazado_202363" data-name="Trazado 202363" d="M566.879,751.343c5.845-13.674,7.918-36.828-17.372-45.922-6.205-2.236-21.363-3.647-26.38,1.88-11.114,12.248,13.9,17.079,20.6,17.747C554.4,726.112,561.656,729.027,566.879,751.343Z" transform="translate(-520.32 -703.446)" fill="#0c1f3f"/>
      </g>
      <g id="Grupo_162654" data-name="Grupo 162654" transform="translate(112.852 80.617)">
        <path id="Trazado_202364" data-name="Trazado 202364" d="M549.9,970.375a11.48,11.48,0,0,1-10.528-7.467,1.357,1.357,0,1,1,2.527-.992,8.654,8.654,0,0,0,10.769,5.3,1.357,1.357,0,1,1,.8,2.592A12,12,0,0,1,549.9,970.375Z" transform="translate(-539.278 -961.056)" fill="#ee7d67"/>
      </g>
      <g id="Grupo_162655" data-name="Grupo 162655" transform="translate(93.29 13.379)">
        <path id="Trazado_202365" data-name="Trazado 202365" d="M475.042,773.773s7.785-4.582,25.368-5.682l4.429-10.286.932,10.139,11.124-.3c1.119-.031,1.966-5.05,1.966-5.05l1.923,4.946s10.622.334,15.79.2c0,0-.137-31.619-36.907-27.1C499.665,740.632,474.15,742.572,475.042,773.773Z" transform="translate(-475.019 -740.19)" fill="#0c1f3f"/>
      </g>
      <g id="Grupo_162656" data-name="Grupo 162656" transform="translate(36.912 137.13)">
        <path id="Trazado_202366" data-name="Trazado 202366" d="M290.318,1263.906c1.146,2.8,12.151,21.392,22.858,38.394H442.34c10.1-29.671,17.389-60.137,9.829-82.34C436.877,1183.894,414.1,1149.1,414.1,1149.1l-7.256-2.413c11.948,42.926-31.867,43.823-61.718,30.215-3.063-1.4-28.545-18.869-30.327-17.978-.034.021-9.277,4.474-9.277,4.474,20.178,15.754,14.025,40.488,11.8,54.493C313.7,1240.739,285.812,1252.9,290.318,1263.906Z" transform="translate(-289.827 -1146.691)" fill="#2b5c82"/>
      </g>
      <g id="Grupo_162657" data-name="Grupo 162657" transform="translate(20.728 140.959)">
        <path id="Trazado_202367" data-name="Trazado 202367" d="M254.245,1311.05h70.284l8.641-83.377c-21-52.507-36.607-68.4-36.607-68.4-76.579,25.74-57.886,70.757-57.886,70.757Z" transform="translate(-236.665 -1159.27)" fill="#fff"/>
      </g>
      <g id="Grupo_162658" data-name="Grupo 162658" transform="translate(135.512 132.931)">
        <path id="Trazado_202368" data-name="Trazado 202368" d="M633.837,1292.706h42.171l6.128-66.953c-1.1-36.067-42.75-86.243-42.75-86.243-11.728-4.943-25.674-6.612-25.674-6.612l20.126,69.922Z" transform="translate(-613.711 -1132.898)" fill="#fff"/>
      </g>
      <g id="Grupo_162659" data-name="Grupo 162659" transform="translate(74.425 152.516)">
        <path id="Trazado_202369" data-name="Trazado 202369" d="M434.088,1332.98a1.351,1.351,0,0,1-1.348-1.275c-.982-16.139-3.053-30.278-5.244-45.244-.444-3.025-.893-6.1-1.341-9.242-.011-6.645,3.119-11.414,6.77-16.173a2.175,2.175,0,0,1-.507-1.462,2.539,2.539,0,0,1,.029-.326c-5.9.869-11.974.98-14.354-6.156-1.543-10.657-2.231-20.437-2.895-29.895-.548-7.833-1.117-15.936-2.138-24.46a1.353,1.353,0,1,1,2.686-.325c1.03,8.591,1.6,16.729,2.154,24.595.66,9.411,1.343,19.144,2.817,29.462,1.815,5.382,6.365,4.938,13.653,3.736,1.051-.175,2.11-.349,3.155-.491a1.318,1.318,0,0,1,.653.07h0l0,0h.006s.007.006.008.006h.009s-.009.013,0,0l.007,0h.006s0,0,0,0h0a1.066,1.066,0,0,1,.176.089h0v0h0s0,0,.006,0h.006s0,0,0,0h0a.014.014,0,0,0,.007,0h0s0,0,.006,0h0a.011.011,0,0,1,0,.006h0a1.319,1.319,0,0,1,.4.4.946.946,0,0,1,.081.138v0l0,0h0a1.385,1.385,0,0,1,.137.58h0v.007h0a1.431,1.431,0,0,1-.029.294h0v0a1.524,1.524,0,0,1-.089.264,7.587,7.587,0,0,1-2.822,3.725c-3.792,4.861-7.277,9.51-7.277,15.69.435,2.948.886,6.018,1.327,9.04,2.2,15.028,4.275,29.219,5.266,45.478a1.351,1.351,0,0,1-1.268,1.431A.626.626,0,0,1,434.088,1332.98Z" transform="translate(-413.05 -1197.23)" fill="#c1d9e6"/>
      </g>
      <g id="Grupo_162660" data-name="Grupo 162660" transform="translate(143.921 148.132)">
        <path id="Trazado_202370" data-name="Trazado 202370" d="M664.521,1323.7a1.082,1.082,0,0,1-.2-.014,1.356,1.356,0,0,1-1.146-1.533c.523-3.568,1.118-7.185,1.721-10.826,2.766-16.741,5.629-34.05,1.259-49.35a1.28,1.28,0,0,1-.052-.372c0-3.884-3.3-7.9-9.011-11.179-1.216.184-2.89-.4-4.742-2.438-.03-.031-.058-.068-.084-.1h0a1.49,1.49,0,0,1-.18-.316v0h0a1.323,1.323,0,0,1-.1-.51v0h0a1.287,1.287,0,0,1,.03-.267,1.36,1.36,0,0,1,1.067-1.047h0c4.791-.937,10.793-4.12,12.633-8.9,1.156-3.012.468-6.238-2.055-9.6-12.563-15.706-19.452-28.913-22.3-42.776a1.352,1.352,0,1,1,2.648-.547c2.764,13.428,9.486,26.278,21.8,41.668,3.908,5.205,3.481,9.518,2.438,12.221-1.6,4.16-5.541,7.249-9.748,9.06a2.427,2.427,0,0,1,.417.712,2.122,2.122,0,0,1,.133.867c6.114,3.688,9.666,8.324,9.761,12.963,4.469,15.837,1.568,33.389-1.239,50.361-.6,3.62-1.193,7.222-1.711,10.774A1.355,1.355,0,0,1,664.521,1323.7Z" transform="translate(-641.334 -1182.832)" fill="#c1d9e6"/>
      </g>
      <g id="Grupo_162666" data-name="Grupo 162666" transform="translate(75.84 136.453)">
        <g id="Grupo_162664" data-name="Grupo 162664" transform="translate(0 25.5)">
          <g id="Grupo_162661" data-name="Grupo 162661" transform="translate(14.499 70.688)">
            <path id="Trazado_202371" data-name="Trazado 202371" d="M475.925,1463.27c.259,1.143-.068,3.994-1.208,4.253l-6.807-.28a2.116,2.116,0,0,1-2.533-1.6h0a2.117,2.117,0,0,1,1.6-2.531l6.147-2.661c1.14-.255,2.545,1.677,2.8,2.818Z" transform="translate(-465.324 -1460.429)" fill="#161d2f"/>
          </g>
          <g id="Grupo_162662" data-name="Grupo 162662" transform="translate(33.316 67.641)">
            <path id="Trazado_202372" data-name="Trazado 202372" d="M527.2,1454.445c.257,1.139,1.774,3.58,2.915,3.323l6.037-3.166a2.119,2.119,0,0,0,1.6-2.531h0a2.117,2.117,0,0,0-2.529-1.6l-6.7.223c-1.142.258-1.582,2.607-1.325,3.75Z" transform="translate(-527.134 -1450.42)" fill="#161d2f"/>
          </g>
          <g id="Grupo_162663" data-name="Grupo 162663">
            <path id="Trazado_202373" data-name="Trazado 202373" d="M432.135,1304.853c-7.774,0-11.712-8.965-11.753-9.067-7.851-21.988,3.967-59.8,4.475-61.4,1.638-5.238,5.388-5.69,6.255-5.727.793-.34,4.377-1.537,8.1,2.5,1.143,1.226,28.013,30.328,30.338,53.517.007.159.347,11.942-9.008,14.048l-.3-1.32c8.255-1.858,7.971-12.2,7.956-12.635-2.273-22.7-29.7-52.393-29.979-52.688-3.413-3.7-6.526-2.208-6.653-2.141l-.152.077-.177-.006c-.135.021-3.6,0-5.091,4.78-.122.392-12.19,38.978-4.51,60.5.164.363,4.327,9.83,12.585,7.965l.3,1.32A10.793,10.793,0,0,1,432.135,1304.853Z" transform="translate(-417.698 -1228.233)" fill="#161d2f"/>
          </g>
        </g>
        <g id="Grupo_162665" data-name="Grupo 162665" transform="translate(8.723)">
          <path id="Trazado_202374" data-name="Trazado 202374" d="M448.969,1171.583c-1.691-5.706-4.376-21.215-.991-25.747a3.168,3.168,0,0,1,2.607-1.368v1.352a1.808,1.808,0,0,0-1.525.823c-2.811,3.767-.678,18.2,1.2,24.555Z" transform="translate(-446.351 -1144.469)" fill="#161d2f"/>
        </g>
      </g>
      <g id="Grupo_162675" data-name="Grupo 162675" transform="translate(145.215 133.509)">
        <g id="Grupo_162667" data-name="Grupo 162667" transform="translate(0)">
          <path id="Trazado_202375" data-name="Trazado 202375" d="M674.621,1211.459a.675.675,0,0,1-.673-.629c-1.4-19.82-5.961-31.927-7.912-37.1a155.052,155.052,0,0,0-20.318-37.853.677.677,0,1,1,1.083-.811,156.708,156.708,0,0,1,20.5,38.186c1.967,5.225,6.581,17.464,7.991,37.482a.677.677,0,0,1-.627.722A.328.328,0,0,1,674.621,1211.459Z" transform="translate(-645.583 -1134.796)" fill="#161d2f"/>
        </g>
        <g id="Grupo_162671" data-name="Grupo 162671" transform="translate(14.416 70.59)">
          <g id="Grupo_162668" data-name="Grupo 162668">
            <path id="Trazado_202376" data-name="Trazado 202376" d="M703.514,1386.738a9.881,9.881,0,1,1-1.389-19.713l5.054-.353,1.386,19.713Z" transform="translate(-692.938 -1366.672)" fill="#7fa4b8"/>
          </g>
          <g id="Grupo_162669" data-name="Grupo 162669" transform="translate(4.643 0)">
            <path id="Trazado_202377" data-name="Trazado 202377" d="M727.929,1375.862a9.882,9.882,0,1,1-10.549-9.165A9.881,9.881,0,0,1,727.929,1375.862Z" transform="translate(-708.189 -1366.672)" fill="#94c0d8"/>
          </g>
          <g id="Grupo_162670" data-name="Grupo 162670" transform="translate(9.586 4.941)">
            <path id="Trazado_202378" data-name="Trazado 202378" d="M734.294,1387.5a4.941,4.941,0,1,1-5.274-4.584A4.942,4.942,0,0,1,734.294,1387.5Z" transform="translate(-724.425 -1382.901)" fill="#598fa9"/>
          </g>
        </g>
        <g id="Grupo_162672" data-name="Grupo 162672" transform="translate(17.958 69.937)">
          <path id="Trazado_202379" data-name="Trazado 202379" d="M714.644,1385.445a9.99,9.99,0,0,1-4.885-1.194,10.578,10.578,0,0,1-5.1-7.762,10.087,10.087,0,0,1,2.365-7.64,11.207,11.207,0,0,1,7.793-4.317.658.658,0,0,1,.722.627.675.675,0,0,1-.626.722,9.953,9.953,0,0,0-6.833,3.82,8.711,8.711,0,0,0-2.082,6.592,9.22,9.22,0,0,0,4.419,6.777c2.716,1.495,6.313,1.348,10.4-.442a.677.677,0,0,1,.545,1.24A16.788,16.788,0,0,1,714.644,1385.445Z" transform="translate(-704.571 -1364.527)" fill="#161d2f"/>
        </g>
        <g id="Grupo_162673" data-name="Grupo 162673" transform="translate(14.051 70.505)">
          <path id="Trazado_202380" data-name="Trazado 202380" d="M702.125,1387.283a9.832,9.832,0,0,1-6.58-2.156,11.577,11.577,0,0,1-3.446-11.533c1.158-4.578,4.487-6.731,11.129-7.2a.693.693,0,0,1,.722.629.677.677,0,0,1-.626.722c-6.036.425-8.909,2.214-9.913,6.185a10.2,10.2,0,0,0,3.007,10.163c.835.71,3.371,2.863,10.018,1.281a.662.662,0,0,1,.815.5.671.671,0,0,1-.5.811A20.161,20.161,0,0,1,702.125,1387.283Z" transform="translate(-691.738 -1366.392)" fill="#161d2f"/>
        </g>
        <g id="Grupo_162674" data-name="Grupo 162674" transform="translate(31.648 70.553)">
          <path id="Trazado_202381" data-name="Trazado 202381" d="M755.873,1377.682a.68.68,0,0,1-.632-.922c.539-1.382.076-3.66-1.147-5.677-1.114-1.84-2.6-3.028-3.952-3.178a.674.674,0,0,1-.6-.749.643.643,0,0,1,.746-.6c1.8.2,3.608,1.594,4.961,3.826,1.454,2.393,1.944,5.089,1.256,6.869A.684.684,0,0,1,755.873,1377.682Z" transform="translate(-749.54 -1366.552)" fill="#161d2f"/>
        </g>
      </g>
      <g id="Grupo_162679" data-name="Grupo 162679" transform="translate(0 155.621)">
        <g id="Grupo_162677" data-name="Grupo 162677" transform="translate(3.955 6.792)">
          <g id="Grupo_162676" data-name="Grupo 162676">
            <path id="Trazado_202382" data-name="Trazado 202382" d="M216.726,1360.068l25.3-84.406s10.858-60.466-30.753-42.629c0,0-14.467,7.409-17.215,32.224l-12.488,94.81Z" transform="translate(-181.57 -1229.741)" fill="#f5a58e"/>
          </g>
        </g>
        <g id="Grupo_162678" data-name="Grupo 162678">
          <path id="Trazado_202383" data-name="Trazado 202383" d="M224.459,1344.549l14.9-95.982s6.95-35.409-22.575-41.136c0,0-27.493,5.929-33.58,34.6l-14.623,102.519Z" transform="translate(-168.578 -1207.43)" fill="#dff2fe"/>
        </g>
      </g>
      <g id="Grupo_162680" data-name="Grupo 162680" transform="translate(60.938 162.731)">
        <path id="Trazado_202384" data-name="Trazado 202384" d="M371.254,1313.443a1.366,1.366,0,0,1-1.332-1.6l.746-4.035c7.477-40.586,10.572-57.385-1.677-74.9a1.353,1.353,0,0,1,2.218-1.551c12.9,18.442,9.743,35.57,2.118,76.939l-.743,4.031A1.356,1.356,0,0,1,371.254,1313.443Z" transform="translate(-368.748 -1230.785)" fill="#161d2f"/>
      </g>
      <g id="Grupo_162681" data-name="Grupo 162681" transform="translate(52.567 269.295)">
        <path id="Trazado_202385" data-name="Trazado 202385" d="M342.6,1601a1.164,1.164,0,0,1-.341-.046,1.347,1.347,0,0,1-.966-1.648c1.466-5.57,2.777-11.41,3.9-17.37a1.352,1.352,0,0,1,2.658.5c-1.133,6.024-2.46,11.928-3.942,17.557A1.356,1.356,0,0,1,342.6,1601Z" transform="translate(-341.25 -1580.83)" fill="#161d2f"/>
      </g>
    </g>
  </g>
</svg>
